<svg width="58" height="22" xmlns="http://www.w3.org/2000/svg"><defs><linearGradient x1="3.412%" y1="43.225%" x2="93.179%" y2="50%" id="a"><stop stop-color="#FDAF2D" offset="0%"/><stop stop-color="#FDCA5A" offset="31.925%"/><stop stop-color="#FDBC0B" offset="68.971%"/><stop stop-color="#FDC01C" offset="100%"/></linearGradient></defs><path d="M48.275 0l.38.008a8.837 8.837 0 013.934 1.127c.65.366 1.247.808 1.794 1.326a8.558 8.558 0 012.351 3.89c.189.656.296 1.347.323 2.073l.007.365v3.428l-.007.365a8.665 8.665 0 01-1.253 4.205 8.59 8.59 0 01-1.42 1.758 9.117 9.117 0 01-1.795 1.326 8.837 8.837 0 01-3.934 1.127l-.38.008h-6.87l-.384-.008a8.837 8.837 0 01-3.944-1.127 9.117 9.117 0 01-1.795-1.326 8.367 8.367 0 01-1.414-1.758 8.77 8.77 0 01-.923-2.131 8.665 8.665 0 01-.323-2.074l-.006-.365V8.789l.007-.383a8.404 8.404 0 01.718-3.162c.483-1.074 1.13-2 1.94-2.776A8.895 8.895 0 0138.088.652a8.64 8.64 0 012.935-.644L41.405 0h6.87zM27.43 0l.285.006c.386.018.794.07 1.224.155a7.21 7.21 0 011.59.52c.522.24 1.022.545 1.5.916a6.144 6.144 0 011.626 1.919 9.76 9.76 0 00-.737 1.35c-.465 1.031-.72 2.155-.766 3.373l-.008.409v3.657a9.379 9.379 0 001.336 4.876l.189.297a6.026 6.026 0 01-.372.605 5.998 5.998 0 01-1.267 1.334 7.837 7.837 0 01-1.502.908 7.202 7.202 0 01-1.59.52 8.032 8.032 0 01-1.223.154l-.285.007h-9.507v-3.809h9.507l.282-.03c.37-.05.713-.138 1.03-.263a3.222 3.222 0 001.024-.637c.289-.268.51-.596.667-.981.13-.322.206-.682.228-1.082l.006-.244v-1.538H20.561l-.275-.008a5.902 5.902 0 01-.868-.117 5.611 5.611 0 01-1.193-.395 5.823 5.823 0 01-1.136-.689 4.552 4.552 0 01-.96-1.018c-.278-.4-.5-.86-.666-1.377a5.48 5.48 0 01-.242-1.436l-.007-.321V5.347l.008-.269a6.035 6.035 0 01.505-2.068 5.4 5.4 0 01.688-1.135 4.772 4.772 0 011.018-.96 5.06 5.06 0 011.37-.666A5.48 5.48 0 0120.24.007L20.561 0h6.87zM12.202 0l.322.007a5.56 5.56 0 011.443.242c.523.166.982.388 1.377.667.237.166.452.347.647.543a5 5 0 00-.54.814c-.453.847-.71 1.822-.744 3.21l-.004.328v.77c0 1.566.26 2.626.748 3.539a5.088 5.088 0 002.117 2.117 5.853 5.853 0 001.623.578c.051.265.082.547.095.844l.006.301v1.7l-.008.274c-.01.185-.03.376-.062.571l-.054.289h-1.67l.001 2.948a5.042 5.042 0 01-.44.348c-.396.279-.853.5-1.37.667a5.45 5.45 0 01-1.427.242l-.317.007H5.332l-.268-.008a6.442 6.442 0 01-1.46-.27 5.083 5.083 0 01-1.736-.916c-.533-.425-.977-.977-1.333-1.655-.317-.604-.493-1.328-.528-2.175L0 15.66v-1.7l.008-.282a6.01 6.01 0 01.117-.89 5.7 5.7 0 01.395-1.216c.18-.4.413-.781.696-1.142a4.285 4.285 0 011.025-.938 6.576 6.576 0 01-.519-2.149l-.008-.282V5.347l.006-.32c.036-.84.212-1.563.529-2.17.356-.684.8-1.236 1.333-1.656A5.259 5.259 0 015.317.286 6.294 6.294 0 016.778.008L7.046 0h5.156zm36.073 3.809h-6.87l-.271.003a4.94 4.94 0 00-1.582.326c-.6.23-1.133.562-1.597.996a4.89 4.89 0 00-1.524 3.372l-.007.283v3.428l.007.282a4.86 4.86 0 001.503 3.358 4.83 4.83 0 001.588 1.003c.515.201 1.05.312 1.604.334l.279.003h6.87c.752 0 1.433-.124 2.043-.373a4.56 4.56 0 001.56-1.033c.43-.44.762-.964.996-1.575a5.408 5.408 0 00.345-1.693l.007-.306V8.789l-.006-.279a4.882 4.882 0 00-.404-1.772 5 5 0 00-1.091-1.582 4.732 4.732 0 00-1.575-1.01 4.873 4.873 0 00-1.875-.337zm-34.33 8.613H5.332l-.171.007c-.389.032-.703.176-.942.432-.24.257-.374.57-.404.938l-.006.161v1.7l.006.17c.032.39.174.706.426.95.252.243.562.38.93.41l.161.007h8.613c.489 0 .86-.146 1.114-.44.217-.25.342-.555.373-.914l.007-.184V13.96l-.006-.178c-.03-.403-.161-.722-.396-.957-.269-.269-.633-.403-1.092-.403zM50.362 5.2a1.934 1.934 0 011.209.806c.146.215.244.447.293.696a1.85 1.85 0 01-.675 1.825l-.16.116-10.283 6.87-.126.088a1.42 1.42 0 01-.387.175 2.016 2.016 0 01-.542.074 1.92 1.92 0 01-.894-.22 1.778 1.778 0 01-.688-.63 1.86 1.86 0 01-.293-.696 1.947 1.947 0 01-.007-.732 1.83 1.83 0 01.683-1.117l.13-.092 10.312-6.87.164-.1a1.84 1.84 0 01.532-.193 1.85 1.85 0 01.732 0zm-22.93-1.39H20.56l-.171.006c-.39.033-.706.177-.95.433-.243.256-.38.569-.41.937l-.007.162V7.06l.006.18c.029.41.159.728.39.955.23.226.558.354.983.382l.188.006h10.078V7.061l-.007-.245a3.363 3.363 0 00-.242-1.103 3.064 3.064 0 00-.68-1.026c-.289-.283-.63-.5-1.026-.651a3.556 3.556 0 00-1.282-.227zm-15.23 0H7.075l-.188.006c-.423.029-.744.158-.962.39-.218.23-.34.55-.367.96l-.006.182V7.06l.006.184c.028.417.156.736.382.958.226.222.537.347.932.375l.174.006h5.156c.518 0 .903-.13 1.157-.388.223-.227.348-.545.375-.954l.006-.181V5.376l-.006-.188c-.029-.425-.159-.753-.39-.984-.263-.264-.644-.395-1.142-.395z" transform="translate(.893 .334)" fill="url(#a)" fill-rule="evenodd"/></svg>