<svg xmlns="http://www.w3.org/2000/svg" width="316" height="64.75"><path d="M20.95 37.52a3.8 3.8 0 0 1 0 5.4l-1.26 1.26a3.82 3.82 0 0 1-5.4 0l-8.64-8.64a3.83 3.83 0 0 1 0-5.4l1.26-1.26a3.82 3.82 0 0 1 5.4 0l8.64 8.64zm-.86-16.42a3.84 3.84 0 0 0-5.4 0l-1.26 1.26a3.82 3.82 0 0 0 0 5.4l8.64 8.64a3.82 3.82 0 0 0 5.4 0l1.26-1.26a3.82 3.82 0 0 0 0-5.4l-8.64-8.64zm23.03 7.62a3.82 3.82 0 0 0-5.4 0l-1.26 1.26a3.82 3.82 0 0 0 0 5.4l8.64 8.64a3.82 3.82 0 0 0 5.4 0l1.26-1.26a3.82 3.82 0 0 0 0-5.4l-8.64-8.64zm7.78-7.78a3.83 3.83 0 0 0-5.41 0l-1.25 1.26a3.81 3.81 0 0 0 0 5.4l8.63 8.64a3.82 3.82 0 0 0 5.4 0L59.54 35a3.82 3.82 0 0 0 0-5.41l-8.63-8.64zm-14.36-8.56a3.82 3.82 0 0 0 0-5.4l-1.26-1.26a3.83 3.83 0 0 0-5.4 0l-8.64 8.64a3.82 3.82 0 0 0 0 5.4l1.25 1.26a3.83 3.83 0 0 0 5.4 0l8.65-8.64zm7.78 7.78a3.83 3.83 0 0 0 0-5.4l-1.26-1.26a3.83 3.83 0 0 0-5.4 0l-8.64 8.64a3.82 3.82 0 0 0 0 5.4l1.25 1.26a3.83 3.83 0 0 0 5.4 0l8.65-8.64zm-7.77 22.58a3.83 3.83 0 0 0 0-5.4l-1.26-1.26a3.82 3.82 0 0 0-5.4 0l-8.65 8.64a3.84 3.84 0 0 0 0 5.4l1.26 1.26a3.82 3.82 0 0 0 5.4 0l8.65-8.64zm7.77 7.78a3.82 3.82 0 0 0 0-5.4l-1.25-1.26a3.82 3.82 0 0 0-5.4 0l-8.64 8.64a3.82 3.82 0 0 0 0 5.4l1.25 1.26a3.82 3.82 0 0 0 5.4 0l8.64-8.64zm62.86-7.63l1.4 2.14c-.64 2.74-2.33 6.26-2.33 6.26l-.26.1c-6.4 2.53-16.25 4.64-26.87.35a21.13 21.13 0 0 1-12.7-14.02 22.9 22.9 0 0 1 3.56-19.68c4.57-6.2 11.94-9.6 21.95-10.12 3.77-.2 11.55.82 15.76 3.2l.35.2s.16 10.5.06 10.95l-.12.52-3.11.1-.17-.95c-.53-3.04-1.92-11.21-13.31-10.62-4.88.25-8.81 2.7-11.74 6.56-3.57 4.7-4.66 11.2-3.07 18.32a18.54 18.54 0 0 0 10.85 12.96c1.7.66 7.09 1.88 11.17.02 3.57-1.62 6.94-4.22 8.58-6.29m38.7 11.18V17.81c0-1.16 0-3.1-1.24-4.42-.18-.18-1.83-1.5-1.83-1.5v-1.6l9.76-1.96.88.56s-.04 38.37-.03 38.9c.13 3.72 2.68 3.97 2.68 3.97v2.31h-10.23zm43.23-2.45c-1.75-.41-2.64-1.86-2.64-4.32l.02-23-.88-.55-9.78 1.96v1.6s1.68 1.33 1.85 1.5c1.24 1.32 1.24 3.26 1.24 4.42v13.7c-3.2 2.43-6.15 3.29-8.16 2.33-1.62-.77-2.53-2.68-2.58-5.39V24.31l-.87-.56-9.8 1.96v1.6s1.69 1.33 1.86 1.5c1.26 1.34 1.26 3.3 1.25 4.46v11.68c.08 2.25.19 3.03.43 4.01.61 2.52 2.08 4.27 4.25 5.08 3.46 1.28 8.37.03 13.62-3.43v3.17h10.72v-2.03l-.53-.13zm48.58 0c-1.68-.4-2.57-1.85-2.63-4.32l-.01-14.07c0-3.24-1.69-9.36-8.06-9.36-4.73 0-7.96 2.81-9.5 4.36a7.17 7.17 0 0 0-6.92-4.36c-2.98 0-5.83 1.14-8.45 3.39V24.3l-.87-.56-9.78 1.96v1.6s1.68 1.33 1.85 1.5c1.24 1.31 1.25 3.26 1.25 4.41v20.56h10.65v-2.03l-.53-.13c-1.67-.4-2.5-1.81-2.57-4.34V30.86a7.34 7.34 0 0 1 5.73-1.74c1.62.14 3.29 1.27 3.33 7.1l-.02 17.56h10.65v-2.03l-.53-.13c-1.7-.4-2.55-1.82-2.61-4.34l-.01-14.06c0-.37-.07-1.54-.2-2.3a7.27 7.27 0 0 1 5.8-1.8c1.63.14 3.29 1.27 3.33 7.1v17.56h10.63v-2.03l-.53-.13zM142.36 38.9c0-4.5-1.45-8.36-4.23-11.13-2.88-2.87-6.98-4.39-11.86-4.39-9.19.01-16.1 6.68-16.1 15.52 0 9.42 6.32 15.52 16.1 15.52 4.7 0 8.74-1.55 11.7-4.5a15.37 15.37 0 0 0 4.4-11.02m-16.1 12.21c-5.96 0-7.62-4.69-7.63-12.25 0-5.56 1.67-12.25 7.64-12.25s7.65 6.7 7.64 12.25c0 7.56-1.68 12.25-7.64 12.25M273.75 14.4a3.97 3.97 0 0 1 7.92 0 3.96 3.96 0 0 1-7.92 0m.52 39.39V33.03c.01-1.22.02-3.05-1.2-4.34-.17-.17-1.84-1.5-1.84-1.5v-1.6l9.77-1.96.88.56-.03 23.1c.07 2.52.9 3.94 2.54 4.33l.53.13v2.02l-10.65.01zm-5.57-22.85c-2.07-3.7-4.78-5.98-8.1-6.79-4.58-1.11-9.19.9-12.03 2.6l.02-17.85-.87-.56-9.76 1.96v1.6s1.67 1.32 1.84 1.5c1.21 1.27 1.2 3.1 1.2 4.32l-.02 33.55v.42l.37.2c5.57 2.87 12.92 3.3 18.3 1.06 6.01-2.5 8.56-6.75 9.65-9.87 1.64-4.7.88-9.49-.6-12.14m-8.14 16.05c-1.7 2.88-5.15 4.54-7.87 3.78-2.73-.75-4.2-3.64-4.15-8.12V30.2l.3-.15c1.64-.85 4.7-2.41 8.79-.33a9.36 9.36 0 0 1 4.63 5.9c1.05 3.6.43 7.75-1.7 11.36m50.83 3.59l-.55-.1c-.45-.09-1.24-1.15-1.24-2.99V33.84c0-3.95-1.28-7.04-3.58-8.71-2.1-1.54-5-1.77-8.38-.67-3.97 1.28-10.04 6.58-11 7.76l-.21.26.08.34c.08.34.54 1.04.85 1.3l.2.17h6.62l-.01-1.86c0-2.73 1.79-4.02 3.29-4.3 1.52-.29 2.55-.14 3.27.45 1.02.86 1.54 2.76 1.54 5.67v1.73l-14 6.22-.28.12-.1.28c-1.29 3.92-1 6.93.84 8.96 2.9 3.2 9.96 3.64 20.26 1.31.78-.2 2.41-.37 2.41-.37v-1.93m-9.1-11.23v10.52c-2.31 1.62-4.64 1.78-6.27.42-1.8-1.48-2.18-4.28-.99-6.87l7.26-4.07z"/></svg>