<svg xmlns="http://www.w3.org/2000/svg" width="287" height="186"><path d="M249.01 151.57v6.53h-16.34v7.37h11.23a6.9 6.9 0 0 1 6.9 6.91v6.07a6.9 6.9 0 0 1-6.9 6.9h-19v-6.52h18.77V172h-11.23a6.91 6.91 0 0 1-6.91-6.91v-6.61a6.91 6.91 0 0 1 6.9-6.91h16.58zm37.48 33.79H269.9a6.91 6.91 0 0 1-6.91-6.91v-19.97a6.91 6.91 0 0 1 6.9-6.91h16.59v6.53h-16.35v7.53h16.35v6.52h-16.35v6.68h16.35v6.53zm-111.96 0h-16.58a6.91 6.91 0 0 1-6.9-6.91v-19.97a6.91 6.91 0 0 1 6.9-6.91h16.58v6.53h-16.35v7.53h16.35v6.52h-16.35v6.68h16.35v6.53zm-95.37-33.79H94.9c3.82 0 6.91 3.1 6.91 6.91v26.88h-7.14V158.1h-11.9v27.26h-7.14v-33.79h3.53zm115.34 14.05h12.66v-7.52H194.5v7.52zm19.8-6.21v5.83a6.9 6.9 0 0 1-6.08 6.86l6.7 13.26h-8.04l-5.84-13.2h-6.54v13.2h-7.15v-33.79h20.04c3.82 0 6.91 3.1 6.91 6.91v.93zm-96.13-7.84l7.98 28.1 8.45-28.1h8.14l-10.9 33.79h-11.21l-10.45-33.79h7.99zM.61 158.48c0-3.81 3.1-6.91 6.9-6.91h17.75v6.53H7.76v20.73h17.5v6.53H7.52a6.91 6.91 0 0 1-6.91-6.92v-19.96zm35.55 0c0-3.81 3.1-6.91 6.91-6.91h14.74c3.82 0 6.92 3.1 6.92 6.91v19.97c0 3.81-3.1 6.9-6.92 6.9H43.07a6.91 6.91 0 0 1-6.9-6.9v-19.97zm7.14-.38v20.73h14.3V158.1H43.3zM145.85 25.6l9.18 28.26h29.72l-24.04 17.47 9.18 28.27-24.04-17.47L121.8 99.6l9.18-28.27-24.04-17.47h29.71l9.19-28.26zm55.4 39.93a55.4 55.4 0 1 1-110.8 0 55.4 55.4 0 0 1 110.8 0zM145.85.64a64.88 64.88 0 1 0 0 129.77 64.88 64.88 0 0 0 0-129.77z"/></svg>