<svg xmlns="http://www.w3.org/2000/svg" version="1" viewBox="-.2 -.74 170 29"><path fill="#49162d" d="M169.57 26.68c.01.04.03.09.03.15 0 .2-.16.37-.35.37h-2.73a.37.37 0 0 1-.34-.21l-1.35-3.01h3.5l1.24 2.7zm-2.89-6.3l1.65 3.6h-3.5l-1.61-3.6h3.46zm-8.24-18l1.65 3.6h-5.8l1.67-3.6h2.48zM157.49.3l.95 2.08h-2.48l.95-2.08c.05-.1.16-.18.29-.18.13 0 .23.08.29.18zm-3.19 5.68h5.79l3.29 7.2H160l-2.51-5.64a.32.32 0 0 0-.29-.19.32.32 0 0 0-.29.19l-2.52 5.64H151l3.29-7.2zm-.34 8.17a.28.28 0 0 0-.03.13c0 .17.14.31.31.32h5.92c.16 0 .31-.15.31-.32 0-.05 0-.1-.03-.14l-.44-.96h3.38l1.65 3.6h-15.67l1.65-3.6h3.38l-.43.97zm-4.6 2.63h15.67l1.65 3.6h-3.46l-1.15-2.58a.33.33 0 0 0-.29-.18h-9.16a.31.31 0 0 0-.29.18l-1.15 2.58h-3.47l1.65-3.6zm1.82 3.6l-1.6 3.6h-3.5l1.63-3.6h3.47zm-1.61 3.6l-1.36 3.05a.33.33 0 0 1-.28.17h-2.84a.32.32 0 0 1-.32-.32c0-.05.01-.09.03-.14l1.27-2.76h3.5zm-11.09-10.01c0 .97-.1 1.91-.29 2.81h-3.3a10.78 10.78 0 0 0 .38-3.6h3.19c.02.26.02.53.02.79zm-.02-.79h-3.19a10.67 10.67 0 0 0-3.42-7.2h4.03a13.25 13.25 0 0 1 2.58 7.2zm-3.57 3.6h3.3a13.15 13.15 0 0 1-1.36 3.6h-3.75a10.7 10.7 0 0 0 1.81-3.6zm-1.81 3.6h3.75a13.4 13.4 0 0 1-2.95 3.6h-6.24a9.99 9.99 0 0 0 5.44-3.6zm-1.19-18h-15.46V1.11c0-.36.28-.64.63-.64h7.74c2.6 0 5.03.69 7.09 1.91zm-11.48 21.9h4.81c.84 0 1.65-.11 2.42-.3h6.24a13.43 13.43 0 0 1-8.76 3.22h-8.06a.63.63 0 0 1-.63-.64v-2.58h3.44c.11.18.32.3.54.3zm-.54-.3h-3.44v-3.6h3.34v3.26c0 .12.04.24.1.34zm-3.44-7.2h3.34v3.6h-3.34v-3.6zm0-3.6h3.34v3.6h-3.34v-3.6zm0-7.2h3.34v7.2h-3.34v-7.2zm0-3.6h15.46c1.57.93 2.92 2.15 3.99 3.6h-4.03a9.93 9.93 0 0 0-6.7-2.59l-.35.01h-4.39a.64.64 0 0 0-.64.64v1.94h-3.34v-3.6zm-8.9 24.3c.02.04.03.09.03.15 0 .2-.16.37-.35.37h-2.73a.38.38 0 0 1-.34-.21l-1.35-3.01h3.5l1.24 2.7zm-2.89-6.3l1.65 3.6h-3.5l-1.6-3.6h3.45zm-8.24-18l1.65 3.6h-5.78l1.65-3.6h2.48zM95.45.3l.95 2.08h-2.48L94.88.3c.05-.1.16-.18.28-.18.13 0 .24.08.29.18zm-3.18 5.68h5.78l3.3 7.2h-3.38l-2.51-5.64a.32.32 0 0 0-.59 0l-2.51 5.64h-3.39l3.3-7.2zm5.86 8.62c.16 0 .3-.15.3-.32 0-.05-.01-.1-.03-.14l-.43-.96h3.38l1.65 3.6H87.33l1.64-3.6h3.4l-.45.97c-.02.04-.02.08-.02.13 0 .17.14.31.31.32h5.92zm-10.8 2.18H103l1.64 3.6h-3.45l-1.15-2.58a.36.36 0 0 0-.3-.18h-9.16a.33.33 0 0 0-.29.18l-1.15 2.58h-3.46l1.65-3.6zm1.81 3.6l-1.61 3.6h-3.5l1.65-3.6h3.46zm-1.61 3.6l-1.36 3.05a.3.3 0 0 1-.27.17h-2.85a.32.32 0 0 1-.32-.32 480.68 480.68 0 0 1 1.3-2.9h3.5zm-11.24 0h-3.6c1.11-.37 2.17-.91 3.1-1.62.04-.05.11-.07.18-.07.18 0 .32.14.32.32v1.37zm0-22v.4H61.74A14.18 14.18 0 0 1 69.63.02c2.25 0 4.54.53 6.5 1.69.1.05.16.15.16.27zm-14.55.4h14.55v2.57c0 .17-.14.31-.32.31-.07 0-.14-.02-.18-.06a10.83 10.83 0 0 0-6.47-2.17c-2.83 0-5.35 1.13-7.19 2.95h-4.07a13.85 13.85 0 0 1 3.68-3.6zm14.55 21.6v1.59a.3.3 0 0 1-.16.28 12.8 12.8 0 0 1-6.5 1.69c-3.64 0-6.95-1.34-9.44-3.56H66c1.03.36 2.15.55 3.32.55 1.12 0 2.27-.2 3.37-.55h3.6zm-15.21-3.6a10.35 10.35 0 0 0 4.92 3.6h-5.81a13.75 13.75 0 0 1-2.88-3.6h3.77zm-3.02-14.4h4.07a10.9 10.9 0 0 0-3.22 7.2h-3.3a13.77 13.77 0 0 1 2.45-7.2zm1.25 10.8a11.1 11.1 0 0 0 1.77 3.6h-3.77a13.82 13.82 0 0 1-1.37-3.6h3.37zm-.41-3.1v.2c.01 1 .15 1.98.41 2.9h-3.37c-.21-.93-.33-1.9-.35-2.9v-.2l.02-.5h3.3l-.01.5zm-17.23 6.7h3.29a7.08 7.08 0 0 1-1.07 3.6H38.6c2.36-.8 2.99-2.41 3.07-3.6zm3.29 0h-3.29l.01-.47a3.95 3.95 0 0 0-1.84-3.13h4.35c.48.89.78 1.96.78 3.24l-.01.36zm-5.12-7.2c1.71.77 3.4 1.86 4.35 3.6h-4.35c-1.04-.75-2.35-1.21-3.39-1.59-.65-.24-3.3-1.3-4.82-2.01h8.21zm3.35-10.97v.17h-13.6C31.14.86 33.53-.14 36.6.02c2.28.11 5.57 1.53 6.4 1.9a.3.3 0 0 1 .19.29zm-13.6.17h13.6V5.1c0 .18-.14.32-.32.32a.3.3 0 0 1-.2-.07 11.87 11.87 0 0 0-6.47-2.39c-3.1-.02-4.66 1.5-5.16 3.02h-3.4a6.7 6.7 0 0 1 1.95-3.6zm2.47 21.6h-4.48v-1.93c.01-.17.15-.3.32-.3.08 0 .16.03.22.08.88.74 2.25 1.62 3.94 2.15zm-4.48 0h4.48c.97.3 2.05.49 3.2.48 1.39-.01 2.48-.2 3.34-.48h5.29c-1.42 2.23-4.25 3.59-8.45 3.56-3.08-.02-5.82-1-7.7-2.07a.34.34 0 0 1-.16-.28v-1.21zm.06-18h3.4a3.52 3.52 0 0 0 1.65 4.19c.72.45 2.57 1.3 4.15 1.86.89.32 1.95.68 3 1.15h-8.21a6.56 6.56 0 0 1-3.99-7.2zm-24.07 18c.1.06.22.1.34.1h10.86c.36 0 .64.28.64.64v1.7c0 .35-.28.63-.64.63H.64a.64.64 0 0 1-.64-.64v-2.43h3.57zm-.3-3.6v3.11c0 .23.12.44.3.55H0v-3.66h3.27zM0 16.68h3.27v3.7H0v-3.7zm15.41-14.3H0v-1.1C0 .92.29.64.64.64h14.13c.36 0 .64.28.64.64v1.1zM0 13.09h13.3v.09H0v-.09zm0 .09h13.3v1.46c0 .36-.28.65-.64.65H3.91c-.35 0-.64.3-.64.66v.83H0v-3.6zm12.66-.82c.36 0 .64.29.64.64v.09H0V5.98h3.27v5.74c0 .35.29.64.64.64h8.75zm2.75-9.98v.59c0 .36-.28.64-.64.64H3.91a.64.64 0 0 0-.64.64v1.73H0v-3.6h15.41z"/></svg>