<svg xmlns="http://www.w3.org/2000/svg" width="200" height="34.77"><path d="M109.12 23.72c-1.43 0-3.36-.29-4.56.61-.74.74-1.57 1.41-2.3 2.15-2.65 1.52-6.62 1.3-8.59-1.23-1.98-1.98-2.3-5-2.3-7.67 0-2.83.3-6.23 2.3-8.43 2.3-2.3 6.89-2.31 9.2 0 .31.46.77 1.07 1.23 1.99h8.89a18.59 18.59 0 0 0-3.37-6.44c-5.67-6.3-17.47-6.3-23 .15-4.3 4.81-4.68 13.04-3.11 19.01a14.25 14.25 0 0 0 13.23 10.7c3.88.23 8.05-.47 11.2-2.88 2.61-1.84 4.29-4.45 5.21-7.97l-4.03.01zm-37.98 3.06c-.77.61-1.84.92-3.37.92-2.02 0-4.76.42-6.44-.92-2.16-2.16-.94-5.48 1.69-6.44l1.38-.46 2.91-.77c2.15-.46 3.83-.92 4.91-1.53v3.07c-.01 1.95.42 4.63-1.08 6.13zm5.67-24.22C73.93.45 69.91.12 66.47.11c-3.53-.02-7.22.65-10.05 2.91a9.75 9.75 0 0 0-3.53 6.44h8.43c1.6-3.2 6.11-2.46 8.89-1.84 1.49.56 2.45 2.26 1.43 3.69-1.05 1.48-3.47 1.86-5.11 2.14l-3.53.46a16.37 16.37 0 0 0-7.82 3.07c-4.7 3.36-4.24 11.85.31 15.18a14.06 14.06 0 0 0 7.97 2.45c4.78 0 9.45.34 13.65-2.45 2.15-1.69 3.37-4.45 3.37-8.13V13.85c0-1.39.02-2.78 0-4.16a8.37 8.37 0 0 0-3.67-7.13zm-31.58.46A20.39 20.39 0 0 0 34.96.11c-3.39.28-7.16.9-9.81 3.22A13.23 13.23 0 0 0 20.09.72C13.5-.38 6.66.11 0 .11V34.3h8.74V15.21c0-2.32-.25-5.1 1.84-6.67 3.04-2.6 8.8-1.44 9.77 2.67.35 1.49.19 3.11.19 4.64V34.3h8.74V14.58c0-1.3-.08-2.64.34-3.89.61-1.79 2.23-2.92 4.03-3.35a6.62 6.62 0 0 1 5.72 1.3c1.3 1.09 1.68 2.72 1.71 4.35.07 3.29 0 6.6 0 9.89V34.3h8.74V23.8c0-3.81.23-7.72-.1-11.52-.3-3.5-1.39-7.24-4.49-9.26zM147.8 7.47a5.18 5.18 0 0 1 5.98-3.99 5.06 5.06 0 0 1 3.83 5.98 4.95 4.95 0 0 1-5.98 3.83c-2.61-.61-4.45-3.22-3.83-5.82zm3.52 8.12c3.68.77 7.51-.77 10.89-3.83l3.68-3.07A17.81 17.81 0 0 0 154.54.56a17.86 17.86 0 0 0-13.8 2.76l1.99 4.29c2 4.3 4.91 7.21 8.59 7.98zm15.79-3.06a69.36 69.36 0 0 0-16.87 22.23 17.45 17.45 0 0 0 17.63-13.65 17.4 17.4 0 0 0-.46-8.89l-.3.31zm28.06-9.51a20.01 20.01 0 0 0-9.35-2.76h-15.33V34.3h8.89V15.18c0-2.3-.23-4.93 1.84-6.48 2.96-2.54 8.77-1.5 9.77 2.56.33 1.34.19 2.88.19 4.25V34.3h8.74V23.93c0-3.73.22-7.53-.08-11.25-.29-3.63-1.46-7.57-4.67-9.66zm-57.19 3.37l-.15-.46a16.52 16.52 0 0 0-3.99 7.97 17.2 17.2 0 0 0 10.43 19.62c0-5.83-.92-11.5-2.45-17.32a62.54 62.54 0 0 0-3.84-9.81zm.46-6.13h-9.2a18.87 18.87 0 0 0-9.05 2.76c-3.07 1.99-4.75 5.83-4.75 11.81V34.3h8.89V15.9c0-2.45 0-4.29 1.07-5.67 1.07-.92 2.3-1.23 4.14-1.38 1.23-.15 2.15-.15 3.22-1.23.15-.15 4.75-5.52 5.83-6.75.31-.15.16-.61-.15-.61z"/></svg>