<svg xmlns="http://www.w3.org/2000/svg" width="400" height="170.92"><path fill="#e8200d" fill-rule="evenodd" d="M218.24 93c-7.3 0-16.1 4.45-22.97 11.76-6.76 7.19-11.58 17.05-14.83 25.93-1.9 6.06-4.64 15.16-3.9 23.49.68 7.79 4.61 14.21 12.54 14.21 7.31 0 16.52-3.6 23.66-11.3 6.71-7.24 10.9-17.5 14.15-26.4 1.9-6.05 4.63-15.15 3.9-23.48-.68-7.79-4.61-14.21-12.55-14.21zm-4.8 4.15c6.55-.03 5.41 9.37 3.52 18.77-1.1 5.5-2.31 9.77-3.87 14.77a185.08 185.08 0 0 1-7.15 19.46c-2.38 5.28-4.75 9.66-7.84 12.2a8.33 8.33 0 0 1-4.22 1.89c-6.55.03-5.4-9.37-3.52-18.77 1.1-5.5 2.32-9.77 3.87-14.78 1.56-5 4.3-13.14 7.15-19.45 2.39-5.28 4.76-9.66 7.84-12.2a8.33 8.33 0 0 1 4.22-1.89zm55.39-3.42c-6.64 0-14.22 3.03-21.11 10.13-6.03 6.2-11.5 15.6-15.77 27.96-3.2 8.73-5.23 20.15-3.4 27.94 1.48 6.23 5.88 10.14 12.52 10.14s14.74-3.03 21.63-10.13c6.04-6.2 11.71-15.5 15.25-27.95 2.46-9.05 5.23-20.16 3.4-27.95-1.48-6.22-5.88-10.14-12.52-10.14zm-4.45 3.88c1.63 0 2.46.65 3.08 1.45 5.05 6.49.44 22.1-3.08 32.76-3.52 10.66-8.67 24.24-13.52 30.85-1.94 2.63-4.27 3.35-5.33 3.35a3.53 3.53 0 0 1-3.1-1.44c-5.04-6.5-.43-22.1 3.1-32.76 3.52-10.67 8.66-24.25 13.51-30.86 1.94-2.63 4.27-3.35 5.34-3.35zm39.27-21.77l-24.52 72.28c-3.35 9.86-4.04 17.54.42 20.41 3.71 2.38 14.31-1.25 19.36-4.9l-.5-1.2c-3.13 1.14-5.65.93-6.7-.33-1.36-1.25-1.48-3.45-.82-6.02a447.8 447.8 0 0 1 11.12-37.2l10.47-30.85a1376.1 1376.1 0 0 1 8.12-21.81c-6.9.72-14.03 1.36-20.7 1.62l.14 1.51c2.75.55 5.08 2.15 3.6 6.5zm27.65 85.91l.44 1.06c-3.05 3.6-14.31 8.72-22.14 5.78-9.88-4.49-5.64-26.84.45-41.78 4.4-11.02 10.3-21.23 18.76-27.25 5.12-3.64 10.06-5.83 15.85-5.83 2.23 0 9.42.95 9.09 5.86-.37 5.27-6.8 9.14-9.35 6.95-1.87-1.25-1.34-4.67-1.95-6.84a2.55 2.55 0 0 0-2.5-1.95c-2.16.12-3.52 2-5.02 4.6-3.22 5.61-7.5 14.2-10.95 23.36a161.63 161.63 0 0 0-6.37 22.48c-.75 3.45-3.11 14 4.32 15.86 4.25.69 7.08-.86 9.36-2.3z"/><path fill="#e8200d" fill-rule="evenodd" d="M376.57 95.96c-6.89 0-15.16 4.47-22.05 12.68a72.45 72.45 0 0 0-13.74 24.8c-3.1 10.04-4.53 16.9-3.62 24.55 1.06 8.87 5.52 12.93 14.3 12.93 6.9 0 15.16-4.46 22.06-12.68 5.32-6.34 10.05-14.76 13.17-24.8 3.1-10.04 4.2-17.04 3.11-24.66-1.11-7.8-4.45-12.82-13.23-12.82zm-3.46 4.15c5.69 0 5.59 6.6 4.82 14-.62 5.93-3.5 15.1-4.82 19.33a212.42 212.42 0 0 1-7.66 20.15c-2.7 6.12-6.73 13.15-11.1 13.18-5.68 0-5.58-6.6-4.8-14 .6-5.93 3.5-15.1 4.8-19.33a212.4 212.4 0 0 1 7.67-20.15c2.7-6.12 6.73-13.14 11.1-13.18zM223.65 26.78c5.3-9.53 10.9-18.45 24.4-22.64C255.85 1.7 275.8-.04 287.92 0c5.58 0 19.21.87 34.48 2.87 15.37 2.02 32.16 4.72 45.13 4.89 10.78 0 25.38-1.9 32.47-7.76-5.16 9.32-12.68 18.63-22.72 30.34-7.57 8.83-15.74 18.22-23.01 22.6-4.37 2.63-7.68 4.23-11.68 5.47-11.39 2.74-25.62.58-40.67-.53a917 917 0 0 0-35.47-1.94c-19.81-.26-34.68 1.84-44.95 6-13.4 5.44-19.91 13.4-27.39 23.13a375.18 375.18 0 0 1 18.56-38.58zm-67.79-15.31a231.66 231.66 0 0 0-20.13 21.82c-9.05 11.02-16.4 19.4-16.36 25.62.2 5.3 4.1 17.06 9.96 31.32 6.59 16 15.32 34.43 19.32 48.13a86.47 86.47 0 0 1 2.94 29.58c7.37-9.89 17.94-27.77 25.56-44.16 5.4-11.63 9.7-22.32 8.64-29.7-1.08-7-4.71-15.54-8.84-24.97-6.77-15.47-13.77-26.68-18.31-40.76-2.65-8.24-2.6-11.46-2.78-16.88zM85.8 168.3c-3.72-21.79-10-46.83-19.67-69.89-6.03-14.4-14.23-29.34-26-40.8C24.46 43 13.9 42.47 0 44.5l48.29-29.26c5.04-2.83 9.5-4.08 13.37-3.57 13.84 1.71 30.77 24.96 41.25 45.23 8.63 16.68 21.05 41.9 19.45 57.26-.41 3.9-2.68 7.74-4.91 11.45-8.9 14.05-18.46 27.12-31.66 42.69z"/></svg>