<svg xmlns="http://www.w3.org/2000/svg" viewBox="0 0 206.09525 206.095"><g transform="matrix(1.25 0 0 -1.25 -281.45 600.05)"><ellipse cx="307.95" cy="-397.5" fill="#005ea6" rx="80.688" ry="80.838" transform="scale(1 -1)"/><circle cx="307.83" cy="-397.53" r="76.976" fill="#de5b9e" transform="scale(1 -1)"/><ellipse cx="307.7" cy="-397.25" fill="#fff" rx="70.244" ry="69.794" transform="scale(1 -1)"/><path fill="#de5b9e" fill-rule="evenodd" d="M314.792 449.268l-1.328-60.004c2.56-.416 5.52-.528 8.448-.88 2.176 20.1608 3.976 40.0704 6.32 59.912l-13.44.972zm-32.6552-.364c-.6032-.004-1.2072-.0176-1.8144-.0392l.5848-12.956c2.4128.0848 4.56-.1968 6.4-.5856 3.3256-.7032 6.8784-2.1896 7.2984-5.9344.6472-5.7872-4.5592-9.8208-11.0616-10.0328l.3752-7.1504c4.22-.2296 8.9184-1.4632 11.092-4.4816.7184-.9976 1.2312-2.368 1.2392-4.0672.0136-2.808-1.4544-5.5448-3.4592-7.2488-2.5112-2.128-6.5928-3-10.58-2.776l-.0448-4.72c11.1112-.248 21.6216 2.568 25.4336 10.176.92 1.8312 1.792 4.644 1.768 6.9112-.056 3.9056-1.8 6.4776-3.6 8.124-2.2328 2.048-5.16 3.3376-8.0816 4.2264 5.6624 2.6136 10.9216 7.088 10.0096 14.6184-.392 3.2056-1.752 6.1216-3.3528 8.1536-4.6896 5.9592-13.1656 7.8496-22.2064 7.7824z"/><path fill="#005ea6" fill-rule="evenodd" d="M278.1304 446.4888l-15.3296-2.488c3.4688-18.5592 7.1456-36.2736 10.6136-54.5368 2.1536.112 4.2352.136 6.416.28-.664 18.6576-.984 38.9752-1.7 56.7448zm51.6056-.2328l-1.288-13.852c3.32-.7368 6.856-2.0448 8.472-4.8576 1.504-2.6128.896-6.2696-.544-8.1576-1.976-2.5936-5.768-4.128-9.648-5.1224-.328-2.3872-.56-4.8472-.92-7.2104l11.168-17.816 7.168 1.312-6.912 18.5024c7.12 2.888 12.52 7.4272 14.312 14.192 1.856 7.028-.704 13.9672-5.048 17.62-4.168 3.5-10.304 5.0824-16.76 5.3896zm-18.32-60.04c-.256-6.728-.8-13.232-1.12-19.912l7.176 6.936 3.808-5.336 3.176 2.168-4.256 5.8 3.584 3.464c-.896.744-1.784 1.488-2.624 2.304l-6.64-6.448c.24 3.624.6 7.144.728 10.848l-3.832.176zm16.424-1.84c-1.256-.064-2.232-1.064-2.176-2.248.056-1.176 1.12-2.088 2.376-2.032 1.264.064 2.232 1.072 2.176 2.248-.048 1.184-1.12 2.088-2.376 2.032zm-54.9752-.136l-3.744-.512 2.4848-18.376 3.7432.504-.2 1.48c1.1136-.472 2.3672-.656 3.6584-.488 3.7704.512 6.4368 3.888 5.9448 7.536-.492 3.64-3.9592 6.184-7.7296 5.68-1.2912-.176-2.448-.696-3.3984-1.44l-.7592 5.616zm35.3272-2.392c-.072-.008-.152-.016-.224-.032-3.2136-1.056-6.4968-2.52-5.5224-6.176.2368-.88.8792-2.064 1.336-3.048.5112-1.104 1.348-2.192 1.3376-3.056-.0168-1.424-1.8408-2.128-3.1424-2.392.4368-.712.6904-1.672 1.132-2.384 2.5072.512 4.5552 1.584 5.4672 3.16 1.136 1.984-.12 3.752-1 5.64-.384.832-1.376 2.656-1.384 3.4-.008 1.376 1.728 2.192 3.032 2.376-.032.728-.736 1.688-1.032 2.512zm25.24-.4l-.688-14.712 3.856-.16.232 6.416 8.76-8.904.688 14.712-3.856.16-.232-6.408-8.76 8.896zm-36.772-2.44l-.0048-1.552c-.9864.696-2.168 1.152-3.4672 1.264-3.792.32-7.1264-2.4-7.4344-6.064-.3064-3.664 2.5272-6.904 6.3192-7.224 1.2992-.104 2.54.144 3.628.664l-.124-1.48 3.7648-.312 1.0824 14.384-3.764.32zm33.38 0l-3.856-.128.4-12.336 3.864.128-.408 12.336zm-51.8672-2.464c1.5376-.088 2.8344-1.168 3.0344-2.64.2272-1.688-1.064-3.264-2.88-3.504-1.816-.248-3.4784.928-3.7064 2.608-.228 1.688 1.064 3.264 2.88 3.512.2264.024.452.032.672.024zm14.7168-1.392c1.8256-.152 3.1952-1.656 3.0536-3.352-.1432-1.696-1.7448-2.952-3.5704-2.8-1.8264.152-3.196 1.656-3.0536 3.352.1432 1.696 1.7448 2.952 3.5704 2.8zm16.1024-9.592l-3.408-.096.472-16.736 3.408.096-.04 1.344c.952-.528 2.064-.816 3.24-.784 3.432.096 6.152 2.872 6.056 6.192-.088 3.312-2.96 5.936-6.392 5.84-1.176-.032-2.264-.384-3.192-.96l-.144 5.104zm13.496 0c-1.152.064-2.136-.728-2.2-1.776s.816-1.952 1.96-2.024c1.152-.072 2.128.72 2.2 1.768.064 1.048-.816 1.96-1.96 2.032zm3.816-.736l-.312-14.608 3.672-.152-.072 5.944 8.248-8.768.392 14.08-3.408.072-.224-6.096-8.296 9.528zm-34.0016-1.816l-.452-16.744 3.4096-.088.036 1.344c.9248-.576 2.0128-.928 3.1888-.96 3.4344-.096 6.3 2.528 6.3896 5.848.0888 3.312-2.6304 6.088-6.0648 6.184-1.176.032-2.2816-.264-3.2352-.792l.1368 5.112-3.4088.096zm-17.9736-.208l-4.2608-.384 1.436-15.6 4.1824.376-.5792 6.288c-.3608 2.872.7984 5.36 3.8032 4.992l-.3272 3.864c-1.3832.264-3.5632-.536-4.1216-1.168l-.1328 1.632zm71.2552-.096c-2.92-.488-5.296-1.832-5.8-3.888-.424-1.76.72-3.36 1.352-4.872.392-.944 1.376-2.656 1.392-3.488.016-1.488-1.768-2.104-3.016-2.36.296-.904.648-1.72 1.024-2.504 2.424.384 4.264 1.32 5.16 2.648 1.32 1.96-.04 4.464-.872 6.432-.488 1.16-1.272 2.456-1.248 3.28.048 1.448 1.84 1.984 3.032 2.248-.288.912-.704 1.648-1.024 2.504zm-25.24-1.432l-.68-11.056 3.464-.216.68 11.056-3.464.216zm30.024-1.248c-.36-.024-.72-.112-1.064-.272-.472-.216-.848-.536-1.136-.976s-.456-.912-.488-1.408.056-.976.28-1.448c.216-.464.544-.84.976-1.128.432-.28.904-.44 1.4-.48.496-.032.976.064 1.448.28.464.224.84.544 1.128.984.28.432.44.896.472 1.392s-.056.984-.28 1.456c-.224.48-.56.856-.992 1.128-.432.28-.888.432-1.376.464-.128.016-.248.016-.368.008zm-66.136-.4c-.2144-.008-.4312-.032-.6488-.056-3.4752-.472-5.9416-3.528-5.4984-6.816.4448-3.28 3.6336-5.576 7.1096-5.104s5.9424 3.528 5.4984 6.808c-.4168 3.08-3.2448 5.288-6.4608 5.168zm66.464-.176c.392-.024.76-.152 1.112-.368.344-.224.608-.52.792-.904s.256-.768.232-1.176c-.032-.392-.16-.768-.384-1.12-.232-.344-.536-.608-.912-.784s-.76-.256-1.16-.224c-.4.024-.768.152-1.12.384-.344.224-.608.528-.784.904s-.248.76-.224 1.16c.032.408.16.784.392 1.136s.536.608.912.784c.368.168.752.24 1.144.208zm-1.344-.704l-.216-3.008.616-.048.088 1.24.16-.016c.168-.008.312-.064.416-.16.104-.088.232-.304.376-.648l.216-.504.768-.056-.312.64c-.112.224-.184.344-.2.376-.08.12-.144.208-.192.248-.04.048-.112.088-.2.128.256.016.464.104.616.248s.24.32.256.544c.008.152-.016.304-.088.44-.064.128-.152.232-.264.304-.104.072-.256.12-.464.152-.064.016-.392.04-.968.08l-.608.04zm.576-.52l.256-.016c.344-.024.56-.056.648-.088.088-.04.152-.088.2-.16.04-.064.064-.144.056-.224-.008-.088-.04-.168-.096-.232-.048-.064-.12-.104-.208-.128-.088-.016-.304-.016-.664.008l-.248.016.056.824zm-37.512-.04c1.656.048 3.032-1.16 3.08-2.704.04-1.536-1.272-2.816-2.92-2.864-1.656-.048-3.04 1.16-3.08 2.696-.048 1.536 1.264 2.824 2.92 2.872zm-27.7608-1.68c1.4976-.072 2.7552-1.08 2.9424-2.464.1008-.744-.1224-1.488-.628-2.104-.5352-.656-1.3152-1.072-2.1936-1.192-1.7696-.24-3.3816.848-3.596 2.432-.2128 1.576 1.0528 3.056 2.8224 3.296.2208.032.4392.04.6528.032zm14.0672-1.144c1.6536-.048 2.9648-1.328 2.9232-2.864-.0416-1.544-1.42-2.752-3.0728-2.712-1.6544.048-2.9656 1.336-2.924 2.872s1.42 2.752 3.0736 2.704z"/></g></svg>
