<svg xmlns="http://www.w3.org/2000/svg" data-name="Слой 1" viewBox="0 0 268.66 171"><path d="M75.84 50.94a3.24 3.24 0 0 0-1.46-1.06 3.5 3.5 0 0 0-1.67-.14 5.92 5.92 0 0 0-1.22.32l-.9.33a20.83 20.83 0 0 0-3.7 2 55.18 55.18 0 0 0-11.26 11.09 124.08 124.08 0 0 0-9.08 12.68 196.76 196.76 0 0 0-5.22 8.78 77.7 77.7 0 0 0-5.3-.23c-1.3 0-2.66 0-3.91.09s-2.63.16-3.92.3a49.84 49.84 0 0 0-15.45 3.85 25.84 25.84 0 0 0-7 4.64 18.6 18.6 0 0 0-4.73 7.3 18.93 18.93 0 0 0-1 4.29c0 .35-.06.78-.07 1.13a11.57 11.57 0 0 0 0 1.26 10 10 0 0 0 .56 2.48 8.2 8.2 0 0 0 1.35 2.37l.11.14.15.16.17.17.34.34a11.58 11.58 0 0 0 5.39 2.75 25.49 25.49 0 0 0 8.37.51h.51l.51-.06 1-.13a42.85 42.85 0 0 0 5.9-1.36 52.6 52.6 0 0 0 6.73-2.61q-.67 3.38-1.15 6.79-.53 3.83-.77 7.69l-.11 2v1.92c0 1.36-.06 2.64 0 4a64.72 64.72 0 0 0 1.94 15.93 51.16 51.16 0 0 0 2.71 7.75 25.45 25.45 0 0 0 2.31 4.19 16.4 16.4 0 0 0 4 4.06 14.56 14.56 0 0 0 5.49 2.35 17.66 17.66 0 0 0 5.11.28 19.67 19.67 0 0 0 2.31-.4l.47-.14.59-.16a29.9 29.9 0 0 0 2.52-.97c.16.21.33.42.51.62s.44.49.68.72l.09.08.09.07.18.15.36.29c.29.2.62.4.93.58s.63.28.95.41a10 10 0 0 0 3.91.49 19.76 19.76 0 0 0 3.74-.62c1.22-.29 2.38-.75 3.59-1l-.15-.48a15.34 15.34 0 0 1-3.58.78 18.72 18.72 0 0 1-3.6.09 11 11 0 0 1-3.35-.73l-.73-.36-.62-.41-.64-.57q-.29-.31-.56-.64l-.22-.31c.45-.25.9-.5 1.35-.78a19.75 19.75 0 0 0 2-1.49 14.36 14.36 0 0 0 1.76-1.72 25.4 25.4 0 0 0 2.49-3.53l.54-.9.46-.8c.31-.53.62-1.06.93-1.67a63.67 63.67 0 0 0 1.76-3.5 75.59 75.59 0 0 0 4.85-14.53 80.11 80.11 0 0 0 1.97-15.13 23.67 23.67 0 0 0-.85-7.86 17.58 17.58 0 0 0-.66-2l-.4-1-.05-.12-.08-.17-.11-.21-.22-.42a15 15 0 0 0-1.25-1.84 12 12 0 0 0-1.5-1.57 9.84 9.84 0 0 0-3.9-2.16 8.36 8.36 0 0 0-2.33-.33 8.87 8.87 0 0 0-1.19.1h-.3l-.37.07-.45.12c-3.19 1-5.09 3.25-6.61 5.38l-.28.41-.17.25-.12.2-.48.79c-.32.52-.65 1-1 1.64s-.64 1.16-.91 1.74l-.81 1.75a49.47 49.47 0 0 0-2.44 7.26 60.48 60.48 0 0 0-1.67 15c0 2.51.16 5 .41 7.5a48 48 0 0 0 1.21 7.47 22.42 22.42 0 0 0 1.08 3.18 9.78 9.78 0 0 1-2.21-.63 3.7 3.7 0 0 1-1.16-.78 8.66 8.66 0 0 1-1.07-1.29 19.32 19.32 0 0 1-1.3-2.25c-.94-2-1.79-4-2.55-6.05a63.12 63.12 0 0 1-3.26-12.96 51.3 51.3 0 0 1-.36-3.41l-.06-.84v-2.66q0-3.52.18-7.06a87.73 87.73 0 0 1 1.89-13.14 74.46 74.46 0 0 0 10.17-8.41 111.07 111.07 0 0 0 8.11-8.76c2.39.4 4.76.88 7.1 1.5s4.78 1.47 7.33 2l.19-.46a26.82 26.82 0 0 0-7-3.22c-2-.67-4.08-1.22-6.15-1.72l.73-1c1.5-2.12 2.88-4.24 4.32-6.35s2.85-4.26 4.21-6.45 2.64-4.45 3.8-6.79a34 34 0 0 0 2.77-7.48 24.59 24.59 0 0 0 .59-4v-1a8.89 8.89 0 0 0 0-1.13 5 5 0 0 0-1.13-2.63zm-25 89a60.36 60.36 0 0 1 2-14.24 46.17 46.17 0 0 1 2.43-6.68l.78-1.59c.27-.52.56-1 .84-1.51s.61-1 .94-1.53l.5-.78.13-.19.09-.13.25-.35a14.46 14.46 0 0 1 2.19-2.43 6.61 6.61 0 0 1 2.43-1.37 6.08 6.08 0 0 1 5.23 1.34 8.51 8.51 0 0 1 1.12 1 7.1 7.1 0 0 1 .88 1.18 9.36 9.36 0 0 1 1.12 3 34.59 34.59 0 0 1 .17 6.84 75.22 75.22 0 0 1-2.08 14.2 54.27 54.27 0 0 1-5.09 13.24c-.59 1-1.17 2-1.8 3-.29.46-.65 1-1 1.47l-.54.75-.5.63a11.62 11.62 0 0 1-2.24 2.14 5.25 5.25 0 0 1-1.11.6 3.8 3.8 0 0 1-1.21.29 9.54 9.54 0 0 1-2.72-.21l-.35-.07a21.49 21.49 0 0 1-1.4-4.22 45.68 45.68 0 0 1-.89-7.14c-.2-2.41-.26-4.83-.18-7.25zM38.76 89.48l-.14.34c-.92 2.22-1.89 4.49-2.84 6.84a82.99 82.99 0 0 0-1.38 3.65l-.59 1.77-.58 1.88q-.56 1.9-1 3.81l-1.87.78a59 59 0 0 1-7 2.26 34.64 34.64 0 0 1-7.1 1 23.42 23.42 0 0 1-6.82-.63c-2.07-.57-3.72-1.61-4.11-2.94a5.09 5.09 0 0 1-.27-1.24v-1.43a14 14 0 0 1 .67-3.16 14.31 14.31 0 0 1 3.44-5.47 21.56 21.56 0 0 1 5.61-3.92 45.69 45.69 0 0 1 13.94-4.09 90.7 90.7 0 0 1 7.42-.78 82.8 82.8 0 0 1 3.41-.09zm15.71 1.82a56.88 56.88 0 0 1-5.26 5.39 73.55 73.55 0 0 1-7.44 5.79c.28-1 .63-2.17 1-3.26.72-2.27 1.55-4.57 2.3-7l1.74-3.87c3.13.19 6.25.47 9.35.88-.57.7-1.12 1.39-1.69 2.05zm19.22-36.65v.88a21.47 21.47 0 0 1-.46 3.53 27.49 27.49 0 0 1-1 3.47 31.16 31.16 0 0 1-1.43 3.39c-1.07 2.25-2.28 4.44-3.56 6.61s-2.64 4.31-4 6.45-2.74 4.32-4.14 6.39c-.43.63-.87 1.25-1.31 1.85-3.22-.66-6.45-1.18-9.7-1.59a251 251 0 0 1 3.23-6.82 106.33 106.33 0 0 1 7.49-13 78.6 78.6 0 0 1 4.48-6 26 26 0 0 1 5.31-5 16.48 16.48 0 0 1 3-1.61l.91-.3a3 3 0 0 1 .63-.15h.22l.06.06a2.16 2.16 0 0 1 .29 1 5.92 5.92 0 0 1-.01.82zm68.96 20.95a3.08 3.08 0 0 0 1.43-.36 9.13 9.13 0 0 0 3.46-4.15 9.64 9.64 0 0 0 .79-6.23 3.87 3.87 0 0 0-1.89-2.57 3.1 3.1 0 0 0-2.62-.08 6.28 6.28 0 0 0-2.52 2 10.44 10.44 0 0 0-2.26 4.59 7.07 7.07 0 0 0 .81 5 3.34 3.34 0 0 0 2.8 1.8z"/><path d="M251.98 54.1l-.44-1-.22-.47-.22-.37-.44-.74-.22-.37-.11-.19a.7.7 0 0 0-.11-.22l-.06-.1-1-1.52c-.34-.52-.63-.93-.95-1.36s-.68-.83-1-1.24a7.08 7.08 0 0 1-1-2.81v-.21c.39-.95.78-1.9 1.19-2.82.7-1.61 1.72-3.25 2.46-5.26a11.45 11.45 0 0 0 .72-3.28 8.82 8.82 0 0 0-.07-1.79 8.13 8.13 0 0 0-.44-1.82 3.21 3.21 0 0 0-.81-1.18l-.17-.14-.23-.15a2.1 2.1 0 0 0-.29-.15 2.38 2.38 0 0 0-.49-.16 2.33 2.33 0 0 0-.41-.06 3.91 3.91 0 0 0-2.41.67 4.29 4.29 0 0 0-.92.78 5.18 5.18 0 0 0-.62.87 7.36 7.36 0 0 0-.71 1.83 25 25 0 0 0-.49 6.74c0 1.11.13 2.2.21 3.29s.16 2.16.29 3.29l-.21.55c-.65 1.64-1.33 3.24-2 4.79-1.35 3.1-2.69 6-4 8.77l-1.62 3.44a17.65 17.65 0 0 0-3.65.92 15.59 15.59 0 0 0-3.39 1.85 15.94 15.94 0 0 0-7 13.62 10.41 10.41 0 0 0 .32 2 8.63 8.63 0 0 0 .34 1l.09.21.13.26.25.49a8.89 8.89 0 0 0 .92 1.27l-.28.25c-.38.35-.57.52-.71.68a43.65 43.65 0 0 1-10.41 8.71c-1 .62-2.34 1.21-3.41.64a3.31 3.31 0 0 1-1.32-2.91 28.53 28.53 0 0 1 1.55-8.87q4-14.09 7.37-28.35c1-4.36 1.72-8.85 2.91-13.15s2.45-8.9 3.46-13.4a1.65 1.65 0 0 0 0-1.12 1.12 1.12 0 0 0-1.05-.51 3.28 3.28 0 0 0-1.18.37l-3 1.36c-.9.41-1.81.82-2.68 1.3a5.11 5.11 0 0 0-1.21.84 4.8 4.8 0 0 0-1.14 2.7c-.53 3.43-1.44 6.78-2.27 10.16l-3.58 14.72a46.45 46.45 0 0 0-1.56 8.92l-.28-.23a9.36 9.36 0 0 0-8.08-1.6 15.2 15.2 0 0 0-5.91 3.64 43.36 43.36 0 0 0-14.12 31.79c-.33.65-.7 1.34-1.11 2.08a49 49 0 0 1-5.41 8 21.33 21.33 0 0 1-2 2 13.11 13.11 0 0 1-2.23 1.68 5 5 0 0 1-1.1.47 2.59 2.59 0 0 1-.55.15c-.17 0-.34 0-.5.05a1.91 1.91 0 0 1-1.41-.39 2.45 2.45 0 0 1-.54-1.46c-.12-.76-.13-2.11-.19-3.26s0-2.41 0-3.64.09-2.49.24-3.76a65 65 0 0 1 1.22-7.78c.61-2.64 1.39-5.3 2.21-8s1.5-5.24 2.23-7.94h.06l1.28-1.83c.83-1.22 2-3 3.38-5.39s2.92-5.31 4.54-8.75 3.31-7.38 5.1-11.68a118.79 118.79 0 0 0 5.24-14.17c.72-2.6 1.37-5.31 1.9-8.1l.37-2.12a21.55 21.55 0 0 0 .29-2.22 7.6 7.6 0 0 0-.18-2.49 4.54 4.54 0 0 0-1.51-2.43 3.47 3.47 0 0 0-1.52-.73 3.25 3.25 0 0 0-1.78.18 9.3 9.3 0 0 0-1.18.58 11.6 11.6 0 0 0-1.08.71 15 15 0 0 0-3.39 3.61 27.9 27.9 0 0 0-2.41 4.2l-1.93 4.14-1.95 4.17-.49 1-.25.52-.06.13-.09.22-.12.27-.93 2.15q-1.85 4.34-3.48 8.76t-3.15 8.86l-2.87 8.79c-.94 2.89-1.81 5.81-2.58 8.75a82.79 82.79 0 0 0-1.9 8.85c-.47 3-.71 5.93-1 8.82-.15 2.11-.31 4.19-.38 6.24-5.13 7.44-9.26 15.58-14.49 23-.62.87-1.39 1.82-2.46 1.88a1 1 0 0 1-1-.49 1.37 1.37 0 0 1-.08-.66 31 31 0 0 1 1.1-6.06c1.49-5.85 3.21-11.64 4.64-17.51.73-3 1.38-6 1.88-9.06.25-1.5 1.19-4.4-1.35-3.45q-2.2.82-4.33 1.83c-1.06.5-2.22.82-2.85 1.69a2.36 2.36 0 0 0-.37.81c-2 8-4.1 16.07-5.76 24.18-3.55 5.4-7.25 10.7-10.95 16-.94 1.35-2.08 2.82-3.71 3a8.06 8.06 0 0 1-.06-3.49c.72-5 2.23-9.8 3.37-14.69a55.52 55.52 0 0 0 1.3-7.46c.21-2.26.47-4.89-1-6.8a6 6 0 0 0-2.84-1.92 8.33 8.33 0 0 0-6.21.27c-2.37 1.11-4 3.3-5.35 5.44l-2.3 3.58a24 24 0 0 1-2.54 3.93c.29-.29.32-1.56.41-2l.48-2.32.93-4.47c.42-2 .82-4.05 1.23-6.08a79.43 79.43 0 0 0 5.94-8.23 128.12 128.12 0 0 0 13.14-29.56 38.85 38.85 0 0 0 2.05-13.71 27 27 0 0 0-.59-4.27c-.38-1.72-1.09-3.6-2.69-4.34-3.45-1.6-6.76 2-8.61 4.44a33.43 33.43 0 0 0-4.26 8.27c-4.23 10.92-6.71 22.43-9.87 33.68a1116.9 1116.9 0 0 0-6.1 22.89q-1.42 1.48-2.88 2.92-2.76 3.07-5.76 5.73c-1.91 1.72-4.35 3.28-6 5.21a9.41 9.41 0 0 0 1.68 0 54.07 54.07 0 0 0 11.94-9.07l-1.87 7.28-9.18 35.53a12.62 12.62 0 0 0-.56 2.52h.37q5.49-2.68 11-5.34a4 4 0 0 0 1.3-.85c.76-.85.75-2.28 1-3.34.32-1.55.6-3.1.88-4.65.55-3 1.08-6.1 1.67-9.14 1-5.31 2-11.25 4.53-16.09s4.88-9.35 9.16-12.79a1.6 1.6 0 0 1 .69-.38 1.15 1.15 0 0 1 1 .36c.87.85.71 2.27.47 3.46-1.82 9-4.28 17.86-4.86 27a11.42 11.42 0 0 0 .47 4.94 4.38 4.38 0 0 0 3.69 2.94 5.86 5.86 0 0 0 3.93-2 51.13 51.13 0 0 0 6.94-8.88l7.73-11.55-.52 3c-.36 2.21-.67 5.07.55 7.08 2 3.24 6.06.9 8.13-.93 4.16-3.69 7.23-8.44 9.89-13.31s5.46-10 8.1-15.1v3.78c0 1.24.13 2.69.31 4a31.74 31.74 0 0 0 .63 4.08 8.87 8.87 0 0 0 1 2.39 6.42 6.42 0 0 0 2.06 2.07 6.5 6.5 0 0 0 5.16.67 6.69 6.69 0 0 0 1.1-.4 6.92 6.92 0 0 0 .95-.52 9 9 0 0 0 1.57-1.32 16.84 16.84 0 0 0 2.08-2.76l1.59-2.56a82.17 82.17 0 0 0 4.66-8.78l.1-.22c.27 3.19 1.33 6.58 4.2 7.8 3.32 1.42 7-.92 9.56-3.48a38.51 38.51 0 0 0 7.61-11c.61 2.51 2.39 4.88 4.89 5.51s4.94-.48 7.11-1.71a49.5 49.5 0 0 0 9.09-6.59 39.54 39.54 0 0 0 6.4-6.87l.07-.13a11.73 11.73 0 0 0 3.74 1.54 11.4 11.4 0 0 0 2.16.28h1c.35 0 .71 0 1.06-.08a18.91 18.91 0 0 0 7.78-2.89l.86-.56.85-.6.37-.27.42-.35.79-.65c.54-.42 1-.91 1.51-1.38a16.51 16.51 0 0 0 1.39-1.5 26.75 26.75 0 0 0 2.39-3.2 36.84 36.84 0 0 1-.5 5.65c-1.7 10.21-8.9 18.1-17.44 23.45-7.38 4.57-15.65 7.5-23.75 10.7-11.46 4.49-22.7 9.52-33.94 14.56-8.89 4-17.79 8-26.4 12.53a94.61 94.61 0 0 0-17.81 11.72c-4.77 4.13-10.94 10.33-12.34 16.73.18-.84 5.95-3.41 6.84-3.93a58.17 58.17 0 0 1 13.09-5.78 41.17 41.17 0 0 1 7-1.38c2.35-.25 4.54.14 6.35-1.66a54 54 0 0 1 4.61-4.58 80.77 80.77 0 0 1 6-4.43c4.33-2.87 8.9-5.35 13.47-7.82 12.6-6.84 25.21-13.67 38-20.19 7.64-3.9 15.39-7.71 22.25-12.87 11.12-8.39 18.26-19.93 17.32-34.19a26.2 26.2 0 0 0-.34-2.79 1.52 1.52 0 0 0 .07-.53 25.77 25.77 0 0 0 1.63-6.8 19.28 19.28 0 0 0-1-8 20.52 20.52 0 0 0-.87-1.97zm-82.44 14.27c1.4-6 2.61-12 4.09-18 .74-3 1.5-6 2.3-8.91l.62-2.22.08-.28v-.07c-.06.16 0 0 0 0v-.14l.17-.55.35-1.1 1.39-4.4 1.38-4.36a24.45 24.45 0 0 1 1.6-3.88 12 12 0 0 1 2.36-3.15 8.71 8.71 0 0 1 .71-.59 6.7 6.7 0 0 1 .75-.49.72.72 0 0 1 .36-.11.93.93 0 0 1 .46.17 3.42 3.42 0 0 1 1.11 2.91 16.88 16.88 0 0 1-.14 2c-.06.69-.17 1.37-.28 2.05a48.39 48.39 0 0 1-2.08 7.8c-1.77 5-3.61 9.63-5.3 14s-3.3 8.26-4.8 11.71-3 6.38-4.2 8.77c-.85 1.63-1.62 3-2.27 4.07.48-1.7.95-3.45 1.34-5.23zm-62.58 9.11q.84-4 1.73-8c.85-3.8 1.77-7.59 2.58-11.39a89.82 89.82 0 0 1 2.81-11c.78-2.22 1.89-4.52 4-5.63a1.41 1.41 0 0 1 2.23.51c2.18 3.75.78 9.55-.12 13.5a98.14 98.14 0 0 1-4.54 13.92c-3.21 8.22-6.81 16.24-11.77 23.48.99-5.13 2.01-10.26 3.08-15.39zm95-3.25c-.7 2.71-1.59 5.36-2.34 8.06q-.77 2.76-1.34 5.56c-.37 1.8-.52 3.27-1.59 4.83l-3.85 5.63c-1.26 1.85-4.42 6.43-7.12 4.14a3.37 3.37 0 0 1-.9-1.3c-.88-2.12-.24-4.53.4-6.73.93-3.18 1.8-6.39 2.8-9.55s1.66-6.39 2.75-9.5a17.56 17.56 0 0 1 3.21-5.89 8.81 8.81 0 0 1 5.8-3.1h.11a3 3 0 0 1 2.47.82c1.44 1.66.07 5.28-.4 7.05zm23.17 7l-.26.46a6 6 0 0 1-.55-.72l-.19-.34-.09-.15-.1-.21a6.53 6.53 0 0 1-.27-.72 8.18 8.18 0 0 1-.32-1.6 13.45 13.45 0 0 1 5.8-11.94 13.7 13.7 0 0 1 5.08-2.18 363.82 363.82 0 0 1-9.08 17.38zm16.4-6.44c-1.92 3.66-4.84 7.47-8.85 8.8-.25.08-.5.15-.76.21h-.33l-.43.06a8.47 8.47 0 0 1-1.51 0 7.59 7.59 0 0 1-3-.88l.43-.78c1.11-2.06 2.79-5 4.82-8.91a650.1 650.1 0 0 0 5.06-9.88 15.28 15.28 0 0 1 7.46 1.58l.17.14a31.66 31.66 0 0 1-3.06 9.63zm3.72-17.36c-.05 1.88-.24 3.7-.41 5.54-.53-.21-1.07-.42-1.62-.58a19 19 0 0 0-5.31-.81l1.1-2.23c1.34-2.73 2.75-5.65 4.17-8.75l.7-1.55c0 .23.08.46.13.69.14.59.32 1.14.47 1.68s.31 1.05.41 1.55v.09s.06.18 0 0v.21l.08.42.15.85.07.43v1.04c.09.39.07.9.05 1.39zm23-51.76c-.81-3.07-3.89-6.52-7.38-5.47a5.7 5.7 0 0 0-3.36 3 6.82 6.82 0 0 0-.08 5.75 3.87 3.87 0 0 0 2 2.09 7.78 7.78 0 0 0 3.45 0 .83.83 0 0 1 .73.19.85.85 0 0 1 .1.65 19.87 19.87 0 0 1-2.13 6.84c-.39.74-.07.82.6.82l.89-.21h.16c1.75-1.52 3.76-3.14 4.62-5.38a14.58 14.58 0 0 0 .4-8.28z"/></svg>