<svg xmlns="http://www.w3.org/2000/svg" width="59.374962" height="59.374939" version="1"><g transform="translate(-406.745 -347.672)"><path fill="#a81612" d="M466.11986 377.35975c0 16.38748-13.3 29.68746-29.68748 29.68746s-29.68747-13.29998-29.68747-29.68746c0-16.38749 13.29999-29.68747 29.68747-29.68747 16.38748 0 29.68748 13.29998 29.68748 29.68747z" overflow="visible"/><path fill="#fff" d="M454.42945 377.35975c0 9.93438-8.06269 17.99707-17.99707 17.99707-9.93437 0-17.99707-8.06269-17.99707-17.99707s8.0627-17.99707 17.99707-17.99707c9.93438 0 17.99707 8.06269 17.99707 17.99707z" overflow="visible"/><path fill="#451400" d="M453.09633 377.35975c0 9.19849-7.46544 16.66395-16.66395 16.66395-9.1985 0-16.66394-7.46546-16.66394-16.66395 0-9.1985 7.46544-16.66396 16.66394-16.66396 9.19851 0 16.66395 7.46546 16.66395 16.66396z" overflow="visible"/><path fill="#fff" d="M418.03616 369.82697c-.21434.44954-.49658.82866-.84671 1.1374-.35013.30873-.73613.53692-1.15797.68459-.42186.14766-.86652.21005-1.334.18715-.46749-.0229-.92406-.13688-1.36973-.34191l-.018-.008c-.44564-.20502-.82558-.4759-1.13979-.81262-.3142-.33671-.5516-.71288-.71218-1.1285-.16057-.41561-.23231-.85797-.21521-1.3271.0171-.46911.13838-.9401.36385-1.41297.13643-.28615.28477-.53649.44503-.75108.16026-.21456.32795-.39904.50307-.55345.17515-.15437.36114-.28595.55798-.39474.19686-.10876.39995-.20038.60928-.27484l.59834 1.32168c-.33421.13825-.62285.30272-.86594.4934-.2431.19069-.43841.44079-.58599.75027-.12249.25693-.18541.51808-.18874.78344-.003.26536.0466.5179.14968.75761.10311.23971.2512.45736.44424.65296.19305.1956.42335.35494.69089.47801l.0177.008c.26754.12311.54106.19555.82051.21731.27946.0218.54525-.004.79732-.0764.25208-.0727.48234-.19462.69078-.36573.20843-.17111.37526-.38799.50048-.65062.16702-.35029.24291-.67665.22766-.97914-.0152-.30247-.0787-.62539-.19033-.96875l1.2918-.45212c.0971.23697.17374.47154.22979.70371.0561.23219.0851.47155.0871.71807.002.24653-.0288.5011-.0924.76371-.0636.26263-.16644.54287-.30848.84078z" style="line-height:125%;text-align:start" font-size="1014.75146484" font-family="Bitstream Vera Sans"/><path fill="#fff" d="M415.02302 360.87462l1.05225-1.0914 2.27879 2.27847 2.18599-2.25822-2.27881-2.31353.94708-.88104 4.85608 4.78324-.77176.98621-1.85137-1.70976-2.22105 2.15303 1.81632 1.74483-1.05224 1.0914-4.96128-4.78323z" style="line-height:125%;text-align:start" font-size="1014.7512207" font-family="Bitstream Vera Sans"/><path fill="#fff" d="M423.24496 353.83881l1.13936-.6172 3.24744 6.0781-1.13936.6172-3.24744-6.0781z" style="line-height:125%;text-align:start" font-size="938.12438965" font-family="Bitstream Vera Sans"/><path fill="#fff" d="M431.88899 354.39697c.38547-.0732.70002-.22589.87168-.458.17166-.23209.22727-.4896.16686-.77252l-.004-.0187c-.0698-.32683-.23412-.55398-.49291-.68147-.25879-.12747-.61691-.15457-1.00237-.0813l-1.18591.2253.43093 2.01771 1.21571-.23097zm-3.46131-2.8057l2.85026-.54148c.41872-.0795.80428-.0955 1.15667-.048.35239.0475.70065.15007.97283.30762.27219.15757.49959.36456.68222.62095.18262.25642.31017.55427.38264.89357l.004.019c.0819.38342.0806.73355-.004 1.05037-.0845.31684-.2338.59699-.44795.84044-.21419.24349-.51794.44644-.8393.60888-.32137.16245-.67804.2809-1.06999.35537l-1.382.29348.38683 2.08766-1.3189.21963-1.3735-6.70743zM441.3425 352.21045c-.30152-.0791-.59233-.097-.87246-.0538-.28011.0432-.53189.13846-.75537.28576-.22345.1473-.41432.33577-.57262.56543-.15828.22965-.26972.49038-.33434.78221l-.004.0196c-.0646.29181-.0749.58082-.0308.86701.0441.28618.13802.5511.28179.79473.1438.24363.33098.45575.56153.63637.23058.18062.49661.31047.79813.38956.30813.0808.60064.0992.87756.0552.27693-.044.52706-.13973.75042-.28704.22335-.14734.41423-.33581.57262-.56545.15838-.22961.2699-.49044.33456-.78246l.004-.0193c.0646-.29203.0749-.5811.0307-.86721-.0442-.2861-.13819-.55097-.28198-.79462-.14378-.24364-.32931-.45531-.55658-.63508-.22726-.17973-.49495-.31001-.80307-.39084zm.32545-1.37668c.53122.13933.99924.35992 1.40407.66177.40485.30184.7347.65262.98958 1.05233.25487.39972.42541.83571.51159 1.30795.0862.47226.0754.95161-.0323 1.43805l-.004.0196c-.1077.48643-.30038.91805-.57805 1.29487-.27765.37681-.6143.68321-1.00993.91921-.39562.236-.83845.38756-1.32847.45467-.49001.0671-1.00054.031-1.53155-.10823-.53102-.1393-.99898-.35988-1.40394-.66174-.40493-.30189-.73483-.65267-.98972-1.05239-.25486-.39971-.4254-.83569-.51159-1.30795-.0862-.47226-.0754-.9517.0324-1.43834l.004-.0193c.10774-.48665.30043-.91832.57808-1.29503.27764-.37672.61429-.68307 1.0099-.91907.39564-.236.83845-.38756 1.32847-.45467.49003-.0671 1.00055-.031 1.53156.10826z" style="line-height:125%;text-align:start" font-size="1019.20373535" font-family="Bitstream Vera Sans"/><path fill="#fff" d="M449.33504 354.97171l-2.04993-1.21478.66144-.99804 4.99402 2.96794-.66144 1.03401-1.72614-1.10686-2.9925 4.84478-1.18198-.68226 2.95653-4.84479z" style="line-height:125%;text-align:start" font-size="1019.20379639" font-family="Bitstream Vera Sans"/><path fill="#fff" d="M455.8076 358.288l.92698 1.05722-4.32319 3.65311 2.40784 2.72217-1.08991.81443-3.11894-3.67143 5.19722-4.5755zM460.99607 365.47068l1.85502 4.71421-1.12401.40469-1.39991-3.43433-1.81634.70983 1.06492 2.75297-1.19569.40459-1.06493-2.75297-1.21375.4754 1.48909 3.55403-1.1957.40458-1.87226-4.83393 6.47356-2.39907z" style="line-height:125%;text-align:start" font-size="1019.20391846" font-family="Bitstream Vera Sans"/><circle cx="45.26482" cy="398.73819" r="15.390038" fill="#fff" transform="matrix(.045 0 0 .045 410.755 359.695)" overflow="visible"/><circle cx="45.26482" cy="398.73819" r="15.390038" fill="#fff" transform="matrix(.045 0 0 .045 458.307 359.695)" overflow="visible"/><path fill="#fff" d="M415.74507 383.23648l.31827.84971-1.16258 1.50949 1.86823.37443.31828.84971-3.5835 1.34224-.29334-.78316 2.33946-.87628-1.90846-.43524-.008-.0205 1.14147-1.56587-2.32417.87053-.28948-.77284 3.58348-1.34225zM418.03199 388.53574l1.62316 2.38656-.61937.42125-1.15284-1.69505-.64185.43654 1.01446 1.49159-.61922.42114-1.01446-1.49158-.66448.45192 1.16823 1.71767-.61923.42116-1.63853-2.40919 3.16413-2.15201zM420.42806 394.44107l.31982-2.25183.72779.6624-.24104 1.45867 1.43356-.37327.70756.64399-2.20448.5216-.33091 2.34506-.72765-.6623.24841-1.54782-1.52188.38876-.70743-.64387 2.29625-.54139z" style="line-height:125%;text-align:start" font-size="563.45202637" font-family="Bitstream Vera Sans"/><path fill="#fff" d="M424.93228 395.74715l.71467.4448-2.02197 3.24877-.71468-.44479 2.02198-3.24878zM427.90677 401.49728c-.26483-.0927-.4939-.22697-.68717-.40273-.19328-.17578-.34328-.37597-.45001-.60058-.10672-.2246-.16675-.46667-.18012-.72622-.0134-.25955.0251-.51829.1154-.7762l.004-.0104c.0903-.25792.2213-.48327.39302-.67609.17173-.1928.36994-.34544.59467-.45791.22473-.11243.46949-.17735.73426-.19471.26479-.0174.53647.0227.81506.12026.16858.059.31771.12666.44737.20293.12967.0763.24284.15836.33949.24629.0967.0879.18109.18314.25332.28567.0722.10253.13513.20948.18877.32087l-.70971.40605c-.0965-.17671-.20521-.32677-.32609-.45016-.12089-.1234-.2725-.217-.45483-.28084-.15137-.053-.30177-.0728-.45118-.0595-.14943.0133-.28866.0553-.41767.12597-.12903.0707-.24312.16491-.34228.28273-.0992.11783-.17585.25415-.23005.40898l-.004.0102c-.0542.15484-.0796.31006-.0762.46568.003.15563.0327.30099.0877.43608.055.13512.13652.25535.24446.3607.10792.10537.23926.18513.39398.2393.20637.0722.39418.0955.56343.0698.16926-.0257.34729-.0792.53413-.1605l.32677.68777c-.12781.0672-.25544.12292-.38286.16716-.12743.0442-.2604.074-.39893.0891-.13854.0152-.28344.0127-.4347-.007-.15125-.0202-.31463-.0609-.49015-.12238zM434.34681 401.20738l-.35742-1.29241-.65217 1.17171 1.00959.1207zm-.61191-2.34132l.77074.0921 1.17085 4.0212-.87377-.10445-.24564-.89378-1.6066-.19206-.44923.81072-.85224-.10188 2.08589-3.63189zM437.8145 399.10304l.77243-.0767 2.01699 2.16727-.23292-2.34452.82688-.0821.37832 3.80787-.71251.0708-2.08467-2.23749.2405 2.42071-.82671.0821-.37831-3.80786zM447.54148 400.68241c-.27295.12171-.54177.18772-.80645.19804-.26471.0103-.51339-.0284-.74609-.1162-.2327-.0878-.44294-.22148-.63074-.40107-.18779-.1796-.33957-.3992-.45533-.65883l-.004-.0101c-.11128-.24958-.16977-.50378-.17548-.76263-.006-.25883.0363-.50699.12587-.74446.0896-.23748.22478-.45336.40549-.64769.18072-.1943.40422-.35083.67055-.46959.15643-.0697.30355-.12237.44133-.15789.13778-.0355.27049-.0577.39811-.0667.12763-.009.25307-.005.37631.0118.12325.0168.2469.0435.37094.08l-.22389.80014c-.0918-.0269-.18058-.0472-.26645-.0607-.0859-.0136-.17128-.0194-.25621-.0174-.0849.002-.17268.0131-.2633.0336-.0906.0204-.18585.0529-.2857.0974-.13986.0624-.25757.14975-.35307.26219-.0955.11242-.16713.23812-.21487.3771-.0478.13898-.0681.28572-.0611.44022.007.1545.0439.30666.11075.45648l.004.01c.0713.15979.16272.29557.27443.40735.1117.11179.23726.19644.37664.25398.1394.0576.28542.0852.43806.083.15264-.002.30717-.0381.4636-.10789.28625-.12763.4964-.30517.63047-.53265l-.22256-.49914-.774.34513-.29615-.66416 1.51785-.6768.6768 1.51784c-.11153.23325-.26715.45924-.46686.67798-.19971.21873-.45935.39935-.77889.54183zM451.51978 395.81782c.16396-.1274.25965-.26407.28703-.40999.0274-.14592-.009-.28366-.1099-.4132l-.007-.009c-.11178-.14384-.24167-.21599-.38967-.21641-.14801-.00042-.30403.0631-.46808.19057l-.66038.5131.67422.86773.67342-.52324zm-2.47859-.42804l1.38122-1.0732c.38272-.29738.75566-.42328 1.11882-.37771.30681.0385.57203.20167.79563.48945l.007.009c.1901.24469.28526.49039.28543.73715.00018.24676-.0682.48099-.20504.70269l1.5766.50566-.77698.60369-1.39876-.46384-.009.007-.51364.39909.7513.96691-.66473.51649-2.34783-3.02169zM452.96344 392.035l.54987-.63738 2.89741 2.49958-.54985.63739-2.89743-2.49959zM454.83101 389.62109l.42571-.72621 2.64092 1.54812.9648-1.64585.66031.38707-1.39054 2.37208-3.3012-1.93521zM456.88615 385.60832l.26361-.79944 2.90726.95861.59742-1.81185.72689.23967-.86101 2.6113-3.63417-1.19829z" style="line-height:125%;text-align:start" font-size="563.4520874" font-family="Bitstream Vera Sans"/><path fill="#fff" fill-rule="evenodd" d="M432.93921 384.30674c.008-.16832-.20361-.59444-.35174-.74256-.11796-.11797-.25488-.35343-.35174-.54716-.15565-.31131-.38105-.54225-.50808-.85981-.14453-.5796-.42065-1.22933-.70348-1.87595-.0238-.36036-.18938-.7406-.23449-1.09431-.0317-.24885-.0391-.48577-.0391-.74257 0-.24923.0391-.52195.0391-.78165v-1.05522c0-.33095.15632-.60834.15632-.93797 0-.22551.38803-.54158.46899-.70348.94103-.18459 1.67701-.4841 2.65761-.58625 1.29471.0375 1.37131.16835 2.03228.2345.60825.11789.88175.48663 1.36788.78164.2368.11841-.10324.49114-.15632.70349-.0259.18851-.16581.36203-.24105.52705-.25291.55489-.62616 1.01363-.77511 1.62248-.24099.51485-.35303.64585-.58622 1.28972-.0872.17429-.18554.47261-.27583.65316-.0991.19824-.0503.97336.002 1.18371.069.27616.0478.54948.15632.82074.0306.0765.0521.15632.0782.23449.0484.19933.10068.39302.15599.58119.20607.70103.4545 1.3256.70382 1.88099.1741.40623.41089.54823-.0894.42317-.21823-.0546-.1921-.11843-.30143-.22775-.12323-.12324-.27935-.19976-.4299-.31267-.15367-.11525-.23707-.27613-.35175-.39082-.22819-.22819-.28146-.47687-.54714-.74257-.14877-.76768-.74878-1.5521-1.13339-2.34494-.15579-.31155-.363-.56967-.50808-.85981-.11043-.22088-.2569-.36324-.31266-.58623-.0811-.32442-.0391-.80316-.0391-1.17248-.0705-.61454-.12323-1.03837.0782-1.60236.0394-.79443.64283-.63118 1.17247-.58625.34617 0 .50868-.0191.74257.15634.53538.40153.27357.34461.27357.93796 0 .27993-.0541.54622-.19542.78165-.15981.26637-.2786.5963-.42991.8989-.0228.0457-.0391-.43236-.0391-.54715 0-.2958-.24907-.47389-.46898-.42992-.34651.0693-.36681.23307-.50808.58625-.0858.21462.0739.60387.11724.82072.11414.54935.53931.96723 1.05523.74257.15598-.156.31265-.37958.31265-.58623 0-.2727.16875-.55865.27358-.82074.12484-.31208.26774-.66767.42991-.93797.17865-.50036.49899-.98902.19541-1.60238-.20231-.47089-.41539-.8391-.8989-.97706-.18527-.037-.8307-.0309-1.01613 0-.61745.0181-1.11641.21724-1.71963.35174-.19573.0489-.18486.30954-.2345.50808-.0695.27797-.0865.58048-.15632.8598-.0873.34922.0525.80675-.0782 1.13339-.099.24762-.0897.83668.0391 1.09431.15544.31088.21038.68437.4299.97706.38188.50917.47197 1.07848.85981 1.56329.26785.33483.32829.6175.50807.97706.0261.0521.0521.10423.0782.15633.20566.41131.65456.91831.85981 1.32881.14281.28561.44849.6197.66441.78164.24165.18124.43482.42629.62532.6644 1.24267.80315 2.11234.91963 2.54035.54716.20735-.20737-.2339-.53373-.31266-.58624-.36169-.34237-.63078-.86303-.82074-1.44605-.10457-.4183-.3176-.83063-.50807-1.21155-.20604-.61104-.40248-1.22626-.42989-1.87595 0-.34934-.0274-.60539.0391-.93799.0807-.78123.81455-1.47922.94023-2.06687.1874-.24987.314-.44871.38859-.74706.56261-.48217 1.00893-1.33938 1.25962-2.11269.0535-.21403-.28366-.4689-.36073-.62307-.0797-.15933-.3803-.38029-.54715-.54715-.16512-.16512-.20065-.35698-.35174-.50807-.15435-.15435-.44234-.36507-.62533-.27357-.22449.11223-.26934.35174-.54715.35174h-.66439c-.37095 0-.76954-.12265-1.1334-.19542-.25722-.0514-.78717-.19818-1.01614-.31265-.20514-.10257-.52586-.0121-.78165.0391-1.30226.28666-2.6578-.20901-2.73576 1.36788-.11809.66219-.30255 1.24767-.34387 1.91305-.0549.88332.0141 1.84782-.008 2.73775 0 .35586.0692.66143.19542.97705.17105.42765.44959.81136.62531 1.25065.70035 1.03194 1.32192 1.81658 1.91504 2.46218.21357.16019.038-.19653.42991.19542z"/><path fill="#fff" fill-rule="evenodd" d="M434.71994 371.68627l-1.85979-1.52915c-.0689.0138-.13776.0275-.20664.0413-.66432.16784-1.93553.0537-2.47971.41329-.90393.51492-1.49851 1.42845-2.14909 2.06643-.21038.10518-.11774.60431-.20664.82656-.15429.38576-.12733.83494-.28929 1.23986-.17314.43281-.16532 1.08761-.16532 1.57047 0 .71872.0413 1.43374.0413 2.14909 0 .5064.12569 1.45323.24797 1.94244-.0107 1.35633 3.05642 4.50919 4.79412 7.52179.24822.49644.41828.50365.86789.57858.0961.016.19288.0276.28931.0413.62813.0897.97118.45461 1.6118.45461.33404 0 .67821.16955.99188.24796.31942.0798.82011.0413 1.15719.0413.55233 0 1.13639-.0413 1.69448-.0413.299 0 .61289.0638.8679 0 .26596-.0665.64383 0 .90922 0 .27795 0 .64206-.12399.95057-.12399.20076 0 .55582-.50336.74391-.57858.44976-.17991.67418-.68281.90922-1.07455.17169-.28616.33252-.58619.41329-.90923.08-.31985.003-.61905-.33064-.70258-.29545-.0739-.34078-.21952-.61992-.28931-.28554-.0714-.44799-.088-.66125-.24796-.37269-.27951-.82536-.56936-1.19854-.8679-.36897-.29518-.78424-.55744-1.23984-.78525-.28534-.14267-.30795-.30539-.5786-.24797-.26186.0556-.40256-.62665-.2893-1.15719.0832-.38979-.0923-.45812-.20664-.74391-.27057-.65868-.59248-.31386.0827-.90923.43949-.32962.80205-1.24033 1.07454-1.69447.44647-.66588 1.05724-1.42839 1.07454-2.10775.22129-.36882.47291-1.20798.37196-1.61181-.0317-.4819-.55504-1.38991-.99189-2.19042-.70527-.42587-.79104-1.6709-1.48783-1.98376-.18119-.0362-.46153.0121-.57859.0413-.18022.045-.43307.66125-.61993.66125.64911.68436 1.12208 1.42206 1.61181 2.10776.3697.75018.79712 1.2091.74391 2.06642-.10653 1.13646-.90552 2.24071-1.19852 2.72769-.0413.0827-.45462.61992-.49595.70258-.16483.32966-.20923.29446-.33064.53727-.11441.22884-.30536.48675-.41326.70258-.11017.22033-.009.94915.0413 1.19853.0729.36482.36253.29295.45461.66125.074.29586 0 .7272 0 1.03322 0 .26465.0413.758.0413 1.0332 0 .27199.4017.0694.61993.124.3711.0928.45963.54228.90923.70258.39728.14165 1.18847.86036 1.52915 1.11586.33213.24911.0257-.144-.0827.2893-1.15988.83843-2.67453.92767-4.09152.82657-2.81489-.23702-3.00777.0325-4.09152-1.23984-1.37622-1.9233-2.80211-3.76269-4.17418-5.95132-.0449-1.3901-.009-3.05458.0827-4.46347 0-.79974.20664-.94186.20664-1.7358.19764-1.11924 1.16723-1.81452 2.0251-2.10774 1.21285-.33259 2.43746-.37196 3.67824-.37196z"/><path fill="#fff" fill-rule="evenodd" d="M432.13404 369.62873c-.46028-.21546-1.01269-.1408-1.48767-.0633-.14705-.0294.41275-.29438.50644-.41149.1865-.23314.51069-.30282.79131-.44313.41357.0492 1.04208.25402 1.45601.41149.38173.0954.89621.25321 1.29775.25321 1.43192-1.32007 3.10902-2.65531 4.74786-3.89325.25679-.10046 2.46774-.41893 3.07028-.41149.41231.20616.87422.0221 1.10784.41149.41193.58875 1.37788 1.42785 1.23445 1.89915-.008.58975-.18663 1.19335-.34819 1.80419-.009.0181-.89846.0633-.94957.0633h-.60139c-.24788 0-.32686-.042-.37983-.095.38894-.27402.62132-.48812.98122-.91791.11309-.11308-.0266-.428-.0633-.5381-.17199-.4893-.49638-.86065-.63303-1.36104-.7065.0407-1.63954.0155-2.34229.1899-.25419.10168-.49702.19505-.728.37984-.4048.43196-.52651.44937-1.17113 1.10783.0681.6221-.29917 1.21281-.22157 1.86749.33495.71502.18785.52472 1.32939.63305.21068.0242.53178-.0217.64486.0358.0436.0221.0563.0597.0199.12244-.0455.0784-.0249.43976-.34819.60139-.29669.14835-.99753.25015-1.32939.31654-.0528.0105-.10551.0211-.15827.0317-.21611.0432-.32321.0836-.5381.1266-.65227.076-.85507.52691-1.25207.78186-.26375.16938-.81055.13593-1.24846.10441-.24685 0-.31114-.0448-.4748-.12661-.12048-.0602-.15826-.31653-.18991-.44313-.0302-.12088-.32243-.35408-.41147-.44313-.1374-.1374-.28388-.15729-.44314-.31652-.21118-.21119-.35655-.35447-.60139-.53811-.14373-.1078-.20407-.2357-.34819-.37982-.31093-.34525-.45969-.60565-.9179-.75965z"/></g></svg>
