<svg xmlns="http://www.w3.org/2000/svg" width="166" height="166"><g fill="none" fill-rule="evenodd"><path fill="#18663E" fill-rule="nonzero" d="M0 82.52a82.52 82.52 0 1 1 165.05 0 82.52 82.52 0 0 1-82.53 82.53A82.52 82.52 0 0 1 0 82.52"/><path fill="#060500" fill-rule="nonzero" d="M27.1 82.4a54.15 54.15 0 1 1 108.31 0 54.15 54.15 0 0 1-108.3 0"/><path fill="#FFF" fill-rule="nonzero" d="M27.47 35.21a8.01 8.01 0 0 0-4.98 3c-2.87 3.55-2.27 8.36 1.38 11.3 3.64 2.96 8.35 2.56 11.23-1a8.8 8.8 0 0 0 1.65-3.22c.21-.74.24-1.2.24-2.29l-3.46-.31a4.5 4.5 0 0 1-.99 3.02 4.24 4.24 0 0 1-6.12.6 4.22 4.22 0 0 1-.64-6.08 4.52 4.52 0 0 1 2.68-1.65l-1-3.37"/><path fill="#FFF" d="M35.69 29.22c1.5-1.6 4.1-1.58 5.83.04 1.75 1.63 1.96 4.23.47 5.83-1.53 1.63-4.14 1.6-5.89-.03-1.73-1.63-1.94-4.21-.41-5.84zm-2.35 8.8c3.45 3.22 8.27 3.1 11.45-.31 3.14-3.36 2.94-8.2-.5-11.42-3.43-3.2-8.3-3.07-11.43.3-3.18 3.4-2.95 8.25.48 11.44z"/><path fill="#FFF" fill-rule="nonzero" d="M52.1 32.26l3.44-2.02-3.32-5.65 3.69-2.18-1.57-2.69-3.71 2.18-1.44-2.43 4.25-2.5-1.59-2.71-7.69 4.52 7.94 13.48M61.87 27.28l3.79-1.27-2.08-6.21 4.07-1.36-.99-2.97-4.07 1.37-.9-2.67 4.67-1.57-.99-2.98-8.46 2.83 4.96 14.83M72.22 24.38l9.3-1.15-.38-3.12-5.34.66-.41-3.38 4.47-.56-.37-3.09-4.49.55-.34-2.81 5.17-.63-.39-3.13-9.12 1.13 1.9 15.53M83.94 23.31l9.36.57.19-3.14-5.37-.32.21-3.4 4.5.27.19-3.12-4.5-.27.17-2.82 5.2.32.19-3.14-9.18-.56-.96 15.61M95.42 21.85c.84 2 2.25 3.32 4.33 4.08 3.26 1.18 6.26-.06 7.34-3.05.48-1.31.39-2.6-.22-3.64a8.6 8.6 0 0 0-2.12-2.16c-1.06-.83-1.31-1.04-1.52-1.42-.18-.3-.2-.7-.1-1.02.28-.73 1.12-1.02 2.02-.7.91.34 1.65 1.12 2.34 2.38l2.48-2.17a6.7 6.7 0 0 0-3.79-3.23c-3.1-1.13-6.14.06-7.14 2.8a4.2 4.2 0 0 0 .27 3.57c.45.76.85 1.17 2.13 2.16.98.8 1.31 1.08 1.6 1.43.23.35.3.71.16 1.08-.32.9-1.38 1.26-2.46.86-1.24-.45-2.23-1.62-2.93-3.45l-2.4 2.48M106.91 28.04l3.47 1.99 3.3-5.71 4.31 2.5-3.29 5.71 3.46 2 7.82-13.55-3.47-2-2.73 4.76-4.33-2.5 2.75-4.76-3.46-1.99-7.83 13.55"/><path fill="#FFF" d="M133.37 31.88c1.6 1.5 1.57 4.1-.04 5.83-1.63 1.75-4.23 1.96-5.83.46-1.64-1.51-1.6-4.13.02-5.87 1.63-1.75 4.22-1.94 5.85-.42zm-8.81-2.35c-3.22 3.44-3.1 8.27.32 11.46 3.36 3.13 8.2 2.93 11.4-.51 3.22-3.43 3.09-8.3-.27-11.43-3.42-3.18-8.26-2.95-11.45.48zM143.53 44.05l.64.96c.73 1.1.63 2.06-.35 2.72-.99.66-2.03.4-2.76-.68l-.62-.92 3.09-2.08zm-12.55 3.65l2.23 3.31 4.57-3.08 1.14 1.69c1.9 2.8 4.37 3.33 7.05 1.53 2.28-1.55 3.03-3.7 2.06-5.92a12.7 12.7 0 0 0-1.03-1.77l-3.05-4.51-12.97 8.75z"/><path fill="#FFF" fill-rule="nonzero" d="M44.73 129.22a8.06 8.06 0 0 0-3.18-4.87c-3.64-2.74-8.42-1.98-11.25 1.76-2.82 3.75-2.25 8.44 1.4 11.2a8.92 8.92 0 0 0 3.27 1.54c.75.18 1.2.2 2.3.15l.2-3.47a4.3 4.3 0 0 1-3.05-.88 4.23 4.23 0 0 1-.82-6.1 4.22 4.22 0 0 1 6.05-.84c.9.67 1.39 1.4 1.75 2.61l3.33-1.1"/><path fill="#FFF" d="M51.44 136.79c1.76 1.28 2.05 3.87.66 5.8-1.4 1.92-3.96 2.45-5.73 1.16-1.8-1.3-2.1-3.9-.7-5.83 1.41-1.93 3.96-2.45 5.77-1.13zm-9.05-1.26c-2.77 3.81-2.05 8.6 1.72 11.33 3.72 2.7 8.5 1.92 11.27-1.89 2.75-3.8 2.04-8.6-1.68-11.3-3.77-2.75-8.55-1.93-11.3 1.86zM55.95 152.81l3.76.97 2.6-6.68.16-.54c.15-.56.32-1.4.42-2.04l.07-.72c-.03.56-.03.64-.05 1.42a12.79 12.79 0 0 0-.02 1.92l.66 7.64 2.29.6 4.29-6.37c.5-.71 1-1.75 1.44-2.98-.23.72-.35 1.12-.5 1.7a8.86 8.86 0 0 0-.3 1.57l-1.09 7.07 3.76.96 2.1-15.61-3.74-.97-4.7 6.95c-.4.63-.84 1.72-1.28 3.07a15 15 0 0 0 .36-3.3l-.73-8.35-3.74-.98-5.76 14.67M82.51 144.98l1.14.04c1.33.04 2.04.7 2 1.86-.03 1.2-.86 1.88-2.16 1.84l-1.11-.04.13-3.7zm-4.42 12.28l3.99.14.2-5.51 2.03.07c3.38.12 5.27-1.57 5.38-4.8.1-2.75-1.21-4.63-3.58-5.14-.5-.1-1.2-.17-2.03-.2l-5.45-.19-.54 15.63zM96.78 146.46a9.77 9.77 0 0 0-.3-3.21 9.7 9.7 0 0 0 .78 2.23c.13.3.25.56.4.78l2.09 3.56-3.3.77.33-4.13zm-4.75 11.11l4-.92.22-3.04 5-1.14 1.54 2.62 4.02-.93-8.9-14-4.03.93-1.85 16.48z"/><path fill="#FFF" fill-rule="nonzero" d="M109.81 152.87l3.59-1.75-3.46-7.09c-.09-.18-.4-.57-1.1-1.53l-.59-.75-.3-.4c.4.4.5.5 1.04.98.77.69 1.16 1.05 1.45 1.2l8.63 4.82 3.53-1.72-6.86-14.06-3.58 1.75 3.33 6.84c.25.51 1.02 1.59 1.97 2.81a25.77 25.77 0 0 0-2.5-2.23l-8.38-4.7-3.63 1.77 6.86 14.06M116.9 131.87l9.41 3.46 4.5 5.17 3-2.6-4.5-5.18-2.11-9.8-3.38 2.93s.74 2.4 1.53 5.53c-1.94-.8-5.08-2.45-5.08-2.45l-3.37 2.94"/><path stroke="#FFF" stroke-width="2.9" d="M32.27 82.28a48.86 48.86 0 1 1 97.72 0 48.86 48.86 0 0 1-97.72 0z"/><path fill="#6F6C1D" fill-rule="nonzero" d="M33.65 82.3a47.48 47.48 0 0 1 47.5-47.47 47.47 47.47 0 1 1 0 94.94 47.48 47.48 0 0 1-47.5-47.47"/><path fill="#FFF" fill-rule="nonzero" d="M74.61 43.7c-7.59 4.25-25.52 18.7-18.6 33.36 6.35 13.5 37.84 11.29 30.83 35.64 17.46-25.04-6.3-33.86-13.75-44.44-5.91-8.4-3.03-17.36 1.52-24.56"/><path stroke="#FFF" stroke-width=".86" d="M74.61 43.7c-7.59 4.25-25.52 18.7-18.6 33.36 6.35 13.5 37.84 11.29 30.83 35.64 17.46-25.04-6.3-33.86-13.75-44.44-5.92-8.4-3.03-17.36 1.52-24.56z"/><path fill="#FFF" fill-rule="nonzero" d="M89.43 116.97c40.19-42.28-30.2-36.1-3.9-76.6-3.38 15.52 9.88 21.7 15.16 25.17 7.7 5.04 38.73 29.01-11.26 51.43"/><path stroke="#FFF" stroke-width=".86" d="M89.43 116.97c40.19-42.28-30.2-36.1-3.9-76.6-3.38 15.52 9.88 21.7 15.16 25.17 7.7 5.04 38.73 29.01-11.26 51.43z"/><path fill="#060500" fill-rule="nonzero" d="M56.91 116.93c8.1 7.44 16.44 3.47 16.44 3.47 1.66-1.68 1.75-2.7.26-4.02l-16.65-14.7c-1.49-1.3-2.52-1.39-4.18.3 0 0-3.93 7.53 4.13 14.95"/><path fill="#B42A27" fill-rule="nonzero" d="M74.37 98.89c8.41 7.12 4.8 15.27 4.8 15.27-1.66 1.68-2.73 1.84-4.22.52L58.3 100c-1.5-1.3-1.65-2.28 0-3.96 0 0 7.68-4.24 16.07 2.86"/></g></svg>