<svg xmlns="http://www.w3.org/2000/svg" viewBox="0 0 278.94 126.89"><path fill="#059" d="M233.8 26.5c10.3-.41 15-12.5 15-18.7 0-3.44-1.6-7.82-5.02-7.82-4.25 0-10.5 6.62-10.5 14.2 0 5.03 2.31 5.63 2.25 6.45-.24 3.07-6.73 6.08-1.78 5.87zm33.3 9.6c0 7.98-4.52 14.2-9.59 14.6 3.2-4.45 4.12-5.98 4.86-11.6 1.7-13.1-1.74-13-3.32-20.2 0 0 1.87-7.03-1.42-6.39-13.8 2.59-4.13 6.84-23.7 37.5-3.38 5.36-7.93 6.97-8.32 6.91-6.86-1.2 5.95-12.6 6.43-16.4 1.09-8.72-1.66-13.5-3.79-13.3-5.01.48-9.27 3.58-13.2 3.35 0 0 2.35-3.56-1.79-3.56-8.3 0-13 15-13 19 0 2.01 1.6 3.69 1.6 4.25 0 2.37-7.88 15.9-14 15.9-3.51 0-4.02-4.08-4.02-4.76 0-2.69 16.1-9.87 16.1-23 0-3.35-1.46-7.79-5.94-7.79-8.45 0-16.8 8.27-19.6 13.7-7.71 14.8.42 16.9-8.35 20 0 0-4.03 1.18-2.63-3.33.51-2.7 2.43-4.91 3.23-10.3 1.29-8.96-2.05-8.71-5.61-8.48-7.94.54-9.92 16-9.92 20.4v5.48c0 1.65-3.58 9.02-6.85 9.13-1.52.03-1.95-5.46-1.95-6.74 0-3.48 8.06-10.9 8.06-21.6 0-3.42-4.18-3.8-6.88-3.8-9.5 0-10.9 24.9-10.9 24.9 0 10.4-9.24 12.7-9.34 12.7-4.47 0-5.14-11-5.14-11-.23-5.7 15-12.5 15-42.9 0-3.19-1.41-9.18-4.78-8.58-10.9 1.92-21.1 39.6-20.1 52.7-.96 2.48-9.19 13.5-12.3 13.5-1.53 0-1.46-1.28-1.46-3.06 0-7.43 9.23-17.4 9.23-21.6 0-4.24-5.53-10.5-5.96-10.5-5.28 0-13 17.6-14.4 23.6-1.19 4.99-8.3 15.4-10.9 14.5-4.71-1.71 8.29-17.2 10.2-21.6 1.66-3.8 1.12-6.49-3.56-7.31-15.2-2.65-16.4 19.2-17.8 23.4-.15.5-20.4 26.6-29.4 26.6-4.72 0-12-1.15-11.4-17.6 1-25.1 25.4-55.5 31.1-56.4 3.5-.6-.91 17.8-7.32 22-10.5 6.88-23 21.8-13.3 27.8 14.8 9.04 25.6-20.6 25.6-20.6 17.8-35.6 5.17-43.5-1.67-43.5-15.8 0-54.3 46.6-54.3 75.6 0 18 11.8 29.4 22.3 29.4 20.7 0 33.2-24.5 39.3-30.2 1.69 1.71 5.52 7.33 11.4 7.33 6.86 0 6.91-9.48 10.5-11.9.91 2.39 2.42 8.66 8.23 8.66 9.35 0 10.2-11 16-14.2 1.36 7.02 5.79 10 11 10 7.85 0 12.3-7.06 15.8-13.3 2.96 2.28 3.55 5.22 7.94 5.56 9.55.76 14.6-15.3 15-15.5 0 0 3.14 1.36 4.12 1.36 5.26 0 9.42-5.62 10.1-4.92.24.22 3.87 6.58 8.07 7.58 17.5 4.18 28.5-21.1 31.1-28.9.12-.33 4.17-2.01 6.17-2.85-1.42 4.04-5.92 11.2-4.27 19.4.95 4.76 4.27 8.07 9.98 7.4 8.03-.93 12.9-14.2 14.7-14.5 3.8-.75 5.81 6.38 11.9 6.38 8.3 0 22.3-11.1 22.3-20.6 0-1.23-1.22-9.95-5.02-7.75zm-150 21l-.03-.1v-.06c0-3.43 5.22-16.1 7.09-18.7.54-.71 1.24-.44 1.5-.27.33.27 1.2.95-1.1 7.7-.03.12-4.2 12.1-6.56 12.1-.2 0-.66-.06-.9-.75zm65.3-6.65c-.63-2 3.91-8.84 6.6-9.67 1.26-.35 2.02.18 2.3.64.8 1.43-.7 4.29-2.62 6.4-4.28 4.16-6.14 3.02-6.28 2.63zm66.9-2.04c-.91 0-2.65-.98-3.89-1.8 4.76-9.54 4.66-11.4 6.38-12.8 2.26 1.52 2.73 2.03 2.73 5.55 0 4.15-2.4 9.02-5.22 9.02zm26.5 8.09c-1.82 0-3.24-1.46-3.24-3.24S274 50 275.82 50s3.24 1.46 3.24 3.24a3.26 3.26 0 0 1-3.26 3.25zm.02-6.14c-1.64 0-2.88 1.3-2.88 2.9s1.23 2.88 2.86 2.88c1.64 0 2.88-1.3 2.88-2.9s-1.23-2.88-2.86-2.88zm.8 3.28l.84 1.24h-.89l-.73-1.11h-.6v1.11h-.77v-3.45H276c.83 0 1.35.42 1.35 1.14 0 .57-.3.92-.74 1.08zm-.64-1.54h-.75v1.01h.77c.38 0 .59-.2.59-.5 0-.34-.23-.51-.61-.51z"/></svg>