<svg xmlns="http://www.w3.org/2000/svg" viewBox="0 0 391 449"><defs><linearGradient id="a" x1="0%" x2="100%" y1="50%" y2="51.49%"><stop offset="0%" stop-color="#0F9151"/><stop offset="100%" stop-color="#1BA85A"/></linearGradient><linearGradient id="b" x1="7.61%" x2="85.29%" y1="41.12%" y2="54.74%"><stop offset="0%" stop-color="#CF3A0A"/><stop offset="100%" stop-color="#EC5C2E"/></linearGradient></defs><g fill="none" fill-rule="evenodd"><path fill="#FAFAFA" stroke="#DCDCDC" stroke-linejoin="round" stroke-width="15" d="M195.5 8l187.49 108.25v216.5L195.5 441 8.01 332.75v-216.5z"/><g fill-rule="nonzero"><path fill="#D24013" fill-opacity=".67" d="M90.25 326.58v23.51h-5.43v-23.51h5.43zM84 316.8c0-.95.35-1.77 1.04-2.46a3.4 3.4 0 012.48-1.04c.99 0 1.82.35 2.51 1.04.7.68 1.04 1.5 1.04 2.49 0 .98-.34 1.82-1.04 2.5-.67.7-1.5 1.05-2.48 1.05s-1.82-.35-2.51-1.04A3.45 3.45 0 0184 316.8zm13.13 9.78h5.46v2.17a8.9 8.9 0 016.42-2.82c2.73 0 4.87.86 6.4 2.58 1.31 1.47 1.97 3.86 1.97 7.17v14.41h-5.45v-13.13c0-2.32-.32-3.92-.97-4.8-.63-.9-1.77-1.36-3.43-1.36-1.8 0-3.08.6-3.83 1.8-.74 1.17-1.11 3.22-1.11 6.15v11.34h-5.46v-23.51zm47.96 5.07v18.44h-5.43v-18.44h-2.31v-5.07h2.31v-8.62h5.43v8.62h4.23v5.07h-4.23zm7.92-22.33h5.43v19.22a9.35 9.35 0 016.4-2.61c2.65 0 4.78.86 6.37 2.58 1.35 1.5 2.03 3.89 2.03 7.17v14.41h-5.43v-13.9c0-1.89-.34-3.25-1-4.1-.67-.84-1.75-1.26-3.23-1.26-1.9 0-3.23.59-4 1.76-.76 1.2-1.14 3.24-1.14 6.13v11.37h-5.43v-40.77zm48.52 30.3h-16.85a7.14 7.14 0 001.88 4.6 5.74 5.74 0 004.28 1.7c1.35 0 2.47-.33 3.35-.97.87-.64 1.86-1.83 2.97-3.57l4.59 2.56a18.5 18.5 0 01-2.25 3.1c-.79.86-1.63 1.57-2.53 2.12-.9.56-1.88.96-2.92 1.22a14.1 14.1 0 01-3.4.39c-3.52 0-6.33-1.13-8.46-3.38-2.12-2.27-3.18-5.28-3.18-9.03 0-3.72 1.03-6.73 3.09-9.03 2.07-2.27 4.83-3.4 8.25-3.4 3.46 0 6.2 1.1 8.21 3.3 2 2.2 3 5.23 3 9.1l-.03 1.28zm-5.58-4.45c-.75-2.9-2.58-4.34-5.48-4.34a5.63 5.63 0 00-3.44 1.17 5.5 5.5 0 00-1.21 1.36c-.34.53-.6 1.14-.78 1.81h10.91zm32.2-25.85v19.99c2.18-2.26 4.64-3.38 7.39-3.38 3.17 0 5.81 1.18 7.92 3.55a12.7 12.7 0 013.16 8.78c0 3.62-1.06 6.62-3.19 8.98a10.27 10.27 0 01-7.99 3.53c-2.72 0-5.15-1.05-7.29-3.14v2.46h-5.43v-40.77h5.43zm12.92 29.18c0-2.25-.61-4.08-1.84-5.5a5.88 5.88 0 00-4.66-2.17c-2 0-3.62.7-4.87 2.1a7.8 7.8 0 00-1.86 5.4c0 2.3.61 4.12 1.83 5.49a6.1 6.1 0 004.83 2.1 6 6 0 004.69-2.1 7.71 7.71 0 001.88-5.32zm10.18-.33c0-3.4 1.22-6.29 3.65-8.67a12.21 12.21 0 018.88-3.57c3.51 0 6.49 1.2 8.93 3.6a11.97 11.97 0 013.62 8.83 11.9 11.9 0 01-3.64 8.86 12.46 12.46 0 01-9 3.55c-3.53 0-6.48-1.21-8.86-3.62a12.18 12.18 0 01-3.58-8.98zm5.56.1c0 2.34.62 4.2 1.88 5.57a6.63 6.63 0 005.1 2.08c2.12 0 3.81-.69 5.09-2.06 1.27-1.36 1.9-3.2 1.9-5.48 0-2.28-.63-4.1-1.9-5.48a6.63 6.63 0 00-5.1-2.07 6.6 6.6 0 00-5.04 2.07 7.55 7.55 0 00-1.93 5.36zm32.56-.9l-8.45-10.79h6.47l5.24 6.86 5.33-6.86h6.66l-8.69 10.79L306 350.09h-6.47l-6.9-8.79-7.08 8.8h-6.63l10.45-12.73z"/><path fill="#4E4E4E" d="M135.79 237.14h-27.61c-3.23 0-5.49.62-6.77 1.87-1.28 1.25-1.92 3.41-1.92 6.49v10.89h28.7l-1.1 13.64H99.5v31.79H84.2v-62.37c0-5.8 1.27-9.9 3.8-12.32s6.88-3.63 13.04-3.63h34.76v13.64zm28.6 64.68h-15.3V223.5h15.3v78.32zm77.55 0h-17.71l-15.3-29.04h-11v29.04h-15.28v-61.49c0-5.87 1.35-10.14 4.07-12.82 2.7-2.67 7.26-4.01 13.64-4.01h12.98c7.77 0 13.95 2.36 18.53 7.1 4.58 4.73 6.88 10.72 6.88 17.98 0 5.28-1.38 9.84-4.13 13.7a21.37 21.37 0 01-10.17 7.97l17.49 31.57zm-29.6-41.8c3.23 0 5.9-1.12 7.98-3.36a11.77 11.77 0 003.14-8.36c0-3.33-1.01-6.03-3.03-8.08-2.02-2.05-4.71-3.08-8.08-3.08h-7.6c-4.54 0-6.81 2.31-6.81 6.93v15.95h14.4zm93.84 41.8h-27.72c-8.8 0-14.98-1.52-18.54-4.56-3.56-3.05-5.33-8.42-5.33-16.12V223.5h51.59v13.64h-36.3v18.37h25.4l-1.1 13.64h-24.3v10.89c0 3.08.7 5.2 2.09 6.38 1.39 1.17 3.92 1.76 7.59 1.76h26.62v13.64z"/></g><path fill="url(#a)" d="M18.75 2.5c7.66 0 14.33 2.83 20 8.5l-6 6.5c-3.34-4.33-8-6.5-14-6.5-8.5 0-13.5 8.5-18 3-4.08-4.99 9.5-11.5 18-11.5z" transform="rotate(90 85.5 140)"/><path fill="url(#b)" d="M138.75 0c-16 13.5-29 22-46 22-26.5 0-38.92-30.75-59-8.5C15.25 34 47.25 60 77.75 60c13 0 57-7 61-60z" transform="rotate(90 85.5 140)"/></g></svg>