<svg xmlns="http://www.w3.org/2000/svg" viewBox="0 0 29.77 7.96"><defs><clipPath id="a"><path d="M0 0h612v792H0z"/></clipPath></defs><g clip-path="url(#a)" transform="matrix(.35278 0 0 -.35278 -141.6 127.24)"><path fill="#f14273" d="M414.77 354.34c2.61-2.6 2.95-4.58 2.96-6.43.02-3.05-2.57-7.43-7.43-7.39-4.18.04-6.38 3.43-6.38 6.53 0 3.28 2.48 6.51 6.05 6.52 3.11 0 4.36-2.2 4.36-3.98 0-2.11-1.44-3.38-2.8-3.37-1.36 0-1.9.88-1.9 1.63 0 .66.52 1.29 1.17 1.3 1.05 0 1.06-1.33.43-1.34-.3 0-.5.28-.31.66-.53-.3-.26-.98.33-.98 1.24 0 1.2 2.3-.55 2.3-1.01 0-1.89-.87-1.89-2.03 0-1.4 1.11-2.68 2.9-2.68 2.19 0 4.15 1.88 4.15 4.61 0 2.82-1.98 5.74-6.05 5.74a8.34 8.34 0 0 1-8.07-8.38 8.55 8.55 0 1 1 13.03 7.29"/><path fill="#73c32c" d="M414.2 355.71s1.03.9.4 2.03c-.74 1.32-1.9 2.57-1.9 2.57s-.63-1.52-.43-2.64c.3-1.7 1.94-1.96 1.94-1.96m.38-.96a4.05 4.05 0 0 0 4.7 3.42 4.05 4.05 0 0 0-4.7-3.42"/><path fill="#85868a" d="M485.2 350.21a1.15 1.15 0 0 1-1.71.26 1.14 1.14 0 0 1-.42-.88c0-.33.11-.6.34-.83.23-.23.5-.34.82-.34a1.14 1.14 0 0 1 1.15 1.16c0 .23-.06.44-.18.63m-.29-1.33a.92.92 0 0 0-.68-.3c-.27 0-.5.1-.69.3a.98.98 0 0 0-.28.7c0 .27.1.5.28.7a.93.93 0 0 0 1.25.11.93.93 0 0 0 .4-.81c0-.27-.09-.5-.28-.7"/><path fill="#85868a" d="M484.36 349.48c.08.02.14.07.2.13.05.08.07.15.07.24 0 .12-.05.22-.14.3a.72.72 0 0 1-.41.1h-.27v-1.34h.26v.53l.4-.53h.3l-.43.56zm-.3.17v.37h.06c.18 0 .26-.06.26-.18s-.09-.19-.27-.19z"/><path fill="#73c32c" d="M480.08 346.47c0-.81-.58-1.42-1.41-1.42-1.21 0-1.35 1.02-1.35 1.42v4.24h-1.86v-4.24c0-1.9 1.18-3.18 2.95-3.18.67 0 1.23.23 1.67.6v-.85c0-.68-.36-1.4-1.37-1.4-.63 0-1.11.27-1.23.8h-1.92a3.1 3.1 0 0 1 3.15-2.53c1.94 0 3.23 1.3 3.23 3.26v7.54h-1.86zm-55.58 4.43a3.68 3.68 0 0 1-3.72-3.8v-6.86h1.87v3.91a2.85 2.85 0 0 1 2.11-.84c1.92 0 3.47 1.7 3.47 3.8a3.68 3.68 0 0 1-3.72 3.79m0-5.88c-1.03 0-1.86.93-1.86 2.09 0 1.12.83 2.04 1.86 2.04 1.03 0 1.86-.87 1.86-2.04 0-1.19-.83-2.09-1.86-2.09"/></g><path fill="#73c32c" d="M9.94 6.08h.66V3.52h-.66zm.33-3.54a.33.33 0 0 0-.33.33v.37h.66v-.37a.33.33 0 0 0-.33-.33m2.07.91c-.7 0-1.15.5-1.15 1.14v1.49h.66v-1.5c0-.29.2-.49.5-.49.43 0 .47.35.47.49v1.5h.66V4.59c0-.67-.42-1.14-1.14-1.14m5.86.01a1 1 0 0 0-.75.3V2.38h-.66V4.8c0 .74.54 1.34 1.32 1.34.77 0 1.3-.6 1.3-1.34 0-.74-.54-1.34-1.21-1.34m-.1 2.06c-.36 0-.65-.32-.65-.72 0-.4.3-.73.66-.73.36 0 .65.31.65.73 0 .41-.3.72-.65.72m2.92-2.07c-.73 0-1.32.6-1.32 1.35 0 .74.6 1.34 1.32 1.34.63 0 1.08-.36 1.23-.88h-.7a.6.6 0 0 1-.54.3.67.67 0 0 1-.54-.27l1.8-.76a1.24 1.24 0 0 0-1.25-1.08m-.7 1.31c.01-.43.31-.73.7-.73.2 0 .38.08.5.23zm4.1-.16v1.48h.66V4.59c0-.36.27-.58.7-.5v-.62c-.86-.1-1.36.4-1.36 1.12m-1.71.01v1.48h.66V4.59c0-.36.27-.58.7-.5v-.62c-.86-.1-1.36.4-1.36 1.12m-8 .52h.36c.4 0 .55.27.55.55v.42h.66v-.53a.81.81 0 0 0-.43-.76.8.8 0 0 0 .43-.75v-.52h-.66v.4c0 .29-.15.56-.55.56h-.36v-2.1h-.66v3.7h.66z"/></svg>