<svg width="202" height="189" xmlns="http://www.w3.org/2000/svg"><g fill="none" fill-rule="evenodd"><ellipse fill="#FFF" cx="99.5" cy="98" rx="75.5" ry="76"/><g fill-rule="nonzero" fill="#EE3A43"><path d="M100.51 1.02c-2.5.32-5.54.82-6.81 1.09-2.27.45-6.13 1.27-12.26 2.54-4.1.82-12.86 3.5-16.35 4.95-1.5.6-3.23 1.27-3.86 1.46-3.46 1.09-14.17 6.49-18.4 9.26-6.81 4.54-7.81 5.27-10.67 7.72-12.99 11.13-21.9 24.66-26.2 39.79-2 7.04-2.46 10.62-2.41 19.75 0 9.31.45 12.72 2 14.76 2.72 3.55 4.8 2.18 4.8-3.13 0-9.9 2.19-21.98 5.73-31.61a75.82 75.82 0 0 1 36.6-41.24c7.05-3.59 9.14-4.36 17.17-6.45 2.55-.68 4.18-.59 4 .23-.09.45-3.54 2.22-8.85 4.5-14.67 6.35-19.13 9.12-26.62 16.48-10.44 10.22-16.44 20.21-20.35 33.93-1.86 6.5-2.4 13.94-2.09 28.2.37 15.08.87 19.8 2.64 25.2 1.54 4.69 5.45 12.9 7.77 16.31 2.72 3.9 12.49 13.63 16.53 16.4.54.36 2.59 1.82 4.54 3.18 7.45 5.18 14.58 8.85 20.4 10.4 4.26 1.18 12.12 2.77 13.62 2.77 1.45 0 2.36 1.13 1.59 2.04-.64.77-4.73.91-8.18.27-10.08-1.86-17.48-4.26-25.66-8.26-9.04-4.45-18.9-13.08-26.93-23.66-5.68-7.45-7.13-8.77-8.45-7.63-2.54 2.09-.05 10.22 5.59 18.16 5.04 7.09 15.35 16.3 22.52 20.12 15 8 33.52 11.27 51.78 9.18a114.78 114.78 0 0 0 40.42-12.36c2.86-1.45 4-2.18 8.54-5.22l3.31-2.27c3.14-2.13 12.04-10.85 15.04-14.76 11.4-14.94 17.53-28.3 19.7-42.83 1.23-8.08.46-27.52-1.45-37.92-2.04-10.86-3.86-15.8-8.72-23.7-3.27-5.28-3.9-6.1-8.53-10.73-10.22-10.22-26.26-19.35-36.34-20.75-8.8-1.23-9.85-1.46-10.8-2.32-2.14-2-.73-3.31 3.22-3 9.99.82 17.98 3.36 28.3 9.09 11.3 6.22 20.11 13.03 25.47 19.7 7.95 9.86 14.03 26.58 15.67 42.84.82 8.03.27 25.84-.9 31.56-2.55 12.08-4.23 17.26-8.27 25.39-7.59 15.21-18.8 26.57-38.47 38.83-2.55 1.63-3.5 2.86-3.1 4 .24.59.78.68 2.69.45 4.59-.5 10.85-3.85 18.4-9.36 5.04-3.68 5.06-3.86 8.17-6.49 2.47-2.1 13.67-12.9 16.98-17.17 6.68-8.67 10.31-15.53 13.04-24.61 3.45-11.72 4.9-24.71 4.45-40.1-.18-5-.5-9.9-.73-10.9l-1.36-6.36c-3.04-14.31-10.36-29.57-19.35-40.43-11.94-14.4-27.16-22.57-50.18-26.88-4.82-.87-22.62-1.14-28.39-.41zm20.94 36.97c.9.59 1.5 2.13 2.04 5.36.27 1.72.91 4.13 1.32 5.4l.77 2.27 9.5 3.23c9.8 3.31 11.17 3.86 18.16 7.26 5.09 2.46 6.31 3.64 5.86 5.59-.36 1.64-2.5 3-4 2.59-.5-.14-8.94-.05-18.66.23-16.54.4-35.75 1.59-43.2 2.68-1.72.27-5.54.77-8.4 1.13-5.5.68-10.85 1.4-21.8 2.95-3.63.5-8.13 1.14-9.99 1.37-1.86.27-5.31.77-7.63 1.18-3.86.63-4.36.63-5.36-.05-1.22-.77-1.18-.77-.82-1.77.87-2.27 17.26-11.58 28.8-16.4 2.86-1.22 5.5-2.36 5.81-2.63.32-.23 2.54-3.36 4.9-6.95 2.96-4.45 4.68-6.58 5.32-6.72.55-.1 4.68-.95 9.17-1.86 4.5-.91 8.82-1.73 9.54-1.86.77-.14 4.04-.82 7.27-1.55 8-1.77 10.49-2.09 11.4-1.45zM91.56 77.27c.1.46-.31 1.6-.9 2.5-.64.91-1.73 2.59-2.46 3.73-1.9 2.9-4.58 5.45-5.72 5.45-1.32 0-2.63-1.28-2.63-2.6 0-2.85 3.13-6.53 7.49-8.71 2.95-1.55 4-1.6 4.22-.37zm56.78 6.77c.77.77.68 2.54-.37 5.54-.9 2.5-.9 2.68-.18 3.5.4.5 1.23.86 1.77.86 1.36 0 3.18 1.5 2.73 2.23-.6.95-3.95 2.31-5.82 2.31-1 0-2.45-.31-3.31-.72-1.41-.68-1.6-.68-2.86.22-2.96 2.14-7.04 3.73-9.22 3.6-1.14-.05-2.37.13-2.73.4-2.86 2.32-6.86 3.32-13.71 3.36-2.55 0-5.55.18-6.73.36-3.67.6-4.5-.86-2.36-4.22 1-1.54 6.81-6.9 11.08-10.22.64-.5 1.05-.95.91-1.09-.13-.13-1.63 0-3.4.23-1.73.23-3.82.32-4.68.14-1.77-.32-3.27-1.69-3.27-2.91 0-1.64 1.22-2.32 4.22-2.32 1.55 0 4.23-.32 6-.68a35.2 35.2 0 0 1 5.86-.68c3.27 0 4.36.77 4.36 3.04 0 1.41-.64 2.23-5.5 7.18-3 3.09-5.31 5.68-5.09 5.81.78.41 7.68.73 9.18.41l1.59-.36-.14-2.5c-.09-2.18.1-2.77 1.45-4.72a23.8 23.8 0 0 1 9.4-7.59 24.12 24.12 0 0 1 5.91-1.27c1.86-.18 3.63-.32 3.9-.36.23-.05.69.13 1 .45zm-82.03.86c2.77 1.1 5.18 3.18 6.09 5.27.36.82.63 2.68.63 4.13 0 5.27-4.04 10.22-10.4 12.72-4.81 1.9-6.58 2.18-8.04 1.23-.63-.41-1.22-.68-1.27-.6-.09.1-.54 1.28-1.09 2.64-6.54 16.76-8.35 19.9-10.62 17.85-.82-.73-.91-1.18-.69-4.22.5-6.77 5.14-19.94 9.9-28.07a86.87 86.87 0 0 0 2.23-3.86c0-.1-.68-.05-1.54.04-1.23.14-1.68 0-2.1-.77-.67-1.27-.31-2.31 1.42-3.95 3.17-3.04 10.8-4.27 15.48-2.4zm38.56 5.45c1.18 1.18.9 2.6-1.09 5.36-1.59 2.18-2.22 2.9-7 7.81l-3.26 3.37 5.08.04c2.82 0 7.77.14 11 .23 4.17.13 6.53 0 8.08-.46 4-1.13 3.95 1.32-.05 3.27-3.13 1.6-6.54 2.1-16.21 2.32-5.68.18-9.72.5-11.8 1-6.69 1.59-7.96 1.36-7.96-1.4 0-1.92 1.87-4.19 8.81-10.68 6.36-5.9 6.82-6.5 4.68-5.86-2.04.59-6.4.5-7.81-.14a3 3 0 0 1-1.45-1.63c-.5-2 .95-2.64 6.76-3.04 2.82-.19 6.04-.5 7.18-.69 3.36-.54 4.04-.5 5.04.5zM83.03 92.4c1.04 2.72.13 6.58-3.37 13.94-1.4 2.95-2.54 5.68-2.54 6.13 0 2.1-2.45 2.54-4.13.73-.96-1-1.1-1.6-1.1-4.4 0-2.96.19-3.6 1.78-6.46 1.9-3.45 6.5-10.22 7.31-10.76.86-.64 1.64-.36 2.05.82zm52.23 17.9a8.9 8.9 0 0 1-.78 2.94c-.4.87-.63 1.73-.45 1.87.14.18 2-.14 4.09-.64 4.95-1.27 8.72-1.73 9.13-1.09.59.95-2.87 2.59-14.5 7-1.63.63-1.85.95-2.72 3.58a68.88 68.88 0 0 1-1.77 4.73c-.45 1-1.32 3.4-1.9 5.35-2.41 7.54-3.55 9.04-4.73 6.23-.82-1.96-.32-7.82 1.04-13.17 1.19-4.55 1.1-5-.95-5-1.4 0-3.36-2-2.95-3.04.59-1.73 1.13-1.96 4.4-1.96h3.32l2.13-3.36c2.64-4.22 4.5-5.9 5.77-5.27.55.32.87.96.87 1.82zM94.7 116c.13.41-.27 2.91-.96 5.59-1.45 5.77-1.5 6.63-.36 6.18.4-.18 1.27-.46 1.82-.6 1.68-.36 1.13 1.69-.82 2.96-2.77 1.86-3.09 2.31-3.4 4.54a76.3 76.3 0 0 1-.91 4.68c-.32 1.36-.73 3.04-.87 3.72-.5 2.14-2.4 4-4.18 4-2.58 0-3.5-2.95-2.45-8.18.18-1.13.32-2.09.23-2.18-.05-.04-2.14.55-4.59 1.41l-4.5 1.5-1.4 5.68c-1.6 6.36-2.36 8.08-4.09 9.44-1.54 1.23-3 1.23-4.09 0-1.09-1.22-1.09-6.4 0-9.62 1.23-3.6 1.05-4.23-1.18-4.55-2.45-.31-4.27-2.13-3.54-3.5.63-1.22 2.45-2.08 5.81-2.76 2.45-.5 2.9-.78 3.14-1.77.36-1.55 4.76-10 6.5-12.5 2.58-3.76 4.58-4.9 5.21-3 .37 1.14-1.18 7.5-2.68 11.36a21.5 21.5 0 0 0-1.18 3.36c0 .46 2.18.14 6-.9 2.54-.69 2.54-.69 3.59-3.5 1.68-4.5 4.27-9.5 5.63-10.86 1.4-1.36 2.81-1.59 3.27-.5zm22.93 4.86c.14.6-.09 3.32-.4 6.04a45.61 45.61 0 0 0-.41 7.77c.18 2.27.09 2.82-.5 3.04-1.18.46-3.41-1.18-4.55-3.31a23.95 23.95 0 0 0-1.22-2.18c-.1-.14-1.18.86-2.36 2.13-3.86 4.14-8.22 5.59-10.63 3.59-.95-.82-1.14-1.32-1.1-3.54 0-1.5.46-3.73 1.1-5.45l1.09-2.9-1.05-.83c-1.27-1.04-.77-1.95 1.37-2.4 2.09-.41 3.54.13 4.27 1.59.77 1.45.9 4.81.22 6.5-.59 1.63-.09 1.49 2.86-.83a30.2 30.2 0 0 0 7.04-7.76c1.32-2.1 1.78-2.5 3.1-2.5.67 0 1.04.32 1.17 1.04z"/><path d="M139.12 89.8c-1.78.78-5.23 4.14-5.23 5.05 0 .73.82.54 3.9-.9 2.28-1.05 2.96-1.6 3.19-2.6.18-.68.5-1.54.77-1.86.64-.82-.45-.68-2.63.32zm-80.85 1.33c-.13.13-.22.86-.22 1.59 0 .72-.91 4.04-2.05 7.4-2.31 6.81-2.36 7.17-1.22 6.58.4-.22 2.09-.95 3.68-1.68 3.58-1.63 7.03-4.86 7.72-7.22.36-1.4.31-2-.41-3.36a5.6 5.6 0 0 0-2.14-2.32c-1.45-.68-5-1.31-5.36-1zm-56 22.25c-1.54 1.63-2 4.31-1.45 8.22.86 6.09 2.27 8.77 5.45 10.36 2.45 1.27 4.13 1.31 5.22.13.73-.77.73-1.27.28-5.54l-.78-7.18c-.5-4.76-2-6.76-5.35-7.13-1.87-.22-2.18-.13-3.37 1.14zm170.17 58.46v-3.72h-1.42v-.5h3.43v.5h-1.43v3.72zm2.58 0v-4.22h.86l1.03 2.98.2.63.23-.68 1.04-2.93h.77v4.22h-.55v-3.53l-1.26 3.53h-.52l-1.25-3.6v3.6h-.55z"/></g></g></svg>