<svg data-name="Слой 1" xmlns="http://www.w3.org/2000/svg" width="81.34" height="70.3"><path d="M18.93 22.93h4.25l-1-2.14-5.52-12.08a61.76 61.76 0 0 1 48.06 0l-5.54 12-1 2.14h4.25l1-2.14 6.42-14L68.1 6a65.59 65.59 0 0 0-54.82 0l-1.75.8 6.47 14z" fill="#dc1d38"/><path fill="#5dac45" d="M52.8 43.92h-4.25l-.67 1.46-7.21 15.67-7.17-15.67-.67-1.46h-4.25l.67 1.46L40.67 70.3l11.47-24.92h-.01l.67-1.46z"/><path d="M29.38 16.41l-.81-4.72.81-.14 1.53 2.51h.02l-.47-2.7.79-.14.82 4.73-.77.13-1.62-2.76h-.02l.51 2.95-.79.14zM34.61 15.64l-.89.1-.22-1.98-1.38-2.66.89-.1.83 1.74h.01l.39-1.88.9-.1-.76 2.9.23 1.98zM37.72 12.19v-.37c0-.4-.23-.56-.46-.55a.48.48 0 0 0-.44.56l.18 2.43c0 .36.15.52.5.5s.42-.2.4-.51v-.58l.89-.05v.55a1.19 1.19 0 0 1-1.07 1.3h-.22a1.2 1.2 0 0 1-1.5-1.14l-.14-2.47a1.2 1.2 0 0 1 1.08-1.31h.21a1.23 1.23 0 0 1 1.39 1.24v.35zM39.54 14.54l.85-.01.02.78-.85.01zM41.64 11.5h-.7v-.44a5.48 5.48 0 0 0 1.06-.6h.45l-.06 4.86h-.8zM44.41 14.09v.25c0 .31.09.46.35.48s.42-.12.44-.43l.06-1.12a.91.91 0 0 1-.75.28.88.88 0 0 1-.89-1V12c.06-1 .45-1.44 1.34-1.39s1.24.48 1.19 1.38L46 14.26c0 .9-.45 1.29-1.33 1.24a1 1 0 0 1-1.09-1.13v-.29zm.94-2.41c0-.31-.12-.47-.39-.48s-.42.12-.44.43v.79c0 .31.13.47.35.48a1 1 0 0 0 .47-.19zM47.61 14.24v.38a.38.38 0 0 0 .29.45h.1c.28 0 .45-.1.5-.53l.12-1.08c0-.31-.12-.45-.32-.48a.49.49 0 0 0-.52.31l-.78-.07c.11-.74.21-1.31.33-2.44l2.15.23-.1.67-1.38-.15-.16 1a.78.78 0 0 1 .71-.2c.68.07.89.56.81 1.36l-.07.66c-.11 1-.5 1.44-1.36 1.35s-1.24-.43-1.15-1.22v-.36zM52 12.69v-.24c0-.31 0-.47-.3-.51s-.43.08-.48.39L51 13.44a.91.91 0 0 1 .77-.2.88.88 0 0 1 .78 1.12l-.09.56c-.16 1-.6 1.38-1.48 1.24s-1.18-.61-1-1.5l.37-2.27c.14-.89.58-1.24 1.46-1.09a1 1 0 0 1 1 1.23v.29zM50.8 15c0 .31.07.48.34.52s.43-.08.49-.39l.13-.79c0-.31-.07-.48-.29-.51A.93.93 0 0 0 51 14zM10.82 33.37a5.21 5.21 0 0 0-3.13-1.29l-1.9-.29a2.42 2.42 0 0 1-1.36-.56 1.3 1.3 0 0 1-.39-1c0-1.13.87-1.83 2.26-1.83a4.21 4.21 0 0 1 3.13 1l.12.12 2.21-2.18-.13-.12a7 7 0 0 0-5.25-1.9c-3.46 0-5.7 2-5.7 5a4.33 4.33 0 0 0 1.19 3.24A5.42 5.42 0 0 0 5 34.92l1.9.29a2.08 2.08 0 0 1 1.33.49 1.62 1.62 0 0 1 .44 1.19c0 1.5-1.45 1.81-2.66 1.81a5 5 0 0 1-3.69-1.29l-.12-.12L0 39.56l.12.12A7.52 7.52 0 0 0 6 41.83c3.62 0 6.06-2 6.06-5a4.51 4.51 0 0 0-1.28-3.47M23.7 33.38a3.91 3.91 0 0 0 1.77-3.27c0-2.86-1.94-4.63-5.08-4.63h-6.55v16.21h6.81c3.1 0 5-1.82 5-4.74a3.86 3.86 0 0 0-2-3.57M17.28 35h3.06a1.69 1.69 0 0 1 1.9 1.77 1.71 1.71 0 0 1-1.62 1.8h-3.34zm2.86-3.13h-2.86v-3.28h2.86c1.18 0 1.88.62 1.88 1.66s-.7 1.66-1.88 1.66M32 25.48l-5.9 16.21h3.6l1-2.81H36l1 2.81h3.6l-6-16.21zm3.11 10.45h-3.5l1.76-5.07zM53.69 30.51c0-3-2.19-5-5.32-5H42v16.18h3.44v-6.33h2l3.1 6.33h4l-3.64-6.92a4.43 4.43 0 0 0 2.83-4.26m-8.27-1.92h2.75a1.93 1.93 0 0 1 .28 3.85h-3.07zM67.65 30.51c0-3-2.19-5-5.32-5h-6.39v16.18h3.44v-6.33h2l3.1 6.33h4l-3.59-6.92a4.43 4.43 0 0 0 2.83-4.26m-3.44 0a1.9 1.9 0 0 1-1.87 1.93h-3v-3.85h2.75a1.9 1.9 0 0 1 2.08 1.92M79.66 27.07a6.4 6.4 0 0 0-8.74 0c-1.66 1.66-1.66 3.59-1.66 6.52s0 4.86 1.66 6.52a6.4 6.4 0 0 0 8.74 0c1.6-1.6 1.68-3.34 1.68-6.52s-.07-4.91-1.68-6.52m-1.76 6.52c0 3-.19 3.68-.74 4.32a2.41 2.41 0 0 1-1.85.81 2.51 2.51 0 0 1-1.88-.81c-.54-.62-.72-1.33-.72-4.32s.18-3.73.71-4.34a2.5 2.5 0 0 1 1.88-.79 2.4 2.4 0 0 1 1.85.79c.54.63.74 1.38.74 4.35"/><path d="M54.87 45.41a.86.86 0 0 1-1.46-.62.82.82 0 0 1 .27-.63.84.84 0 0 1 .59-.23.86.86 0 0 1 .6 1.48m-1.11-1.11a.71.71 0 0 0 0 1 .7.7 0 0 0 1 0 .7.7 0 0 0 .24-.5.69.69 0 0 0-.21-.5.7.7 0 0 0-1 0m.13 1v-1h.46a.46.46 0 0 1 .19 0 .24.24 0 0 1 .13.23.21.21 0 0 1-.07.17.31.31 0 0 1-.17.06.33.33 0 0 1 .14.06.26.26 0 0 1 .08.21v.15h-.24a.72.72 0 0 1 0-.13.44.44 0 0 0 0-.12.12.12 0 0 0-.07-.07h-.19v.34zm.46-.77h-.21v.28h.1a.23.23 0 0 0 .14 0 .13.13 0 0 0 0-.11.11.11 0 0 0-.08-.11" fill="#231f20"/></svg>