<svg data-name="Layer 1" xmlns="http://www.w3.org/2000/svg" width="1000" height="609.92"><path d="M483.63 0a220.62 220.62 0 0 0-94.85 21.31c6.46-2.13 14.62-1.8 19.89 4.74 8.64 10.71 8.8 12.95 30.33 9.11 20.61-3.66 73.48-4.88 128.34 53.38 13.48 14.31 30.78 32.19 36.44 38.36s16.72 14.86 36.57 19.94c18.25 4.67 45.42 4 57.65 18.8C673.28 70.36 586.67 0 483.63 0" fill="#a07eba"/><path d="M469.33 199.07c-15.83 4.68-63 25.28-143.16 87.06a469.23 469.23 0 0 0-9.48-50.85c-6.66-27.05-21.88-91.84 16.1-137.41 14-16.83 20.11-20.54 17.07-30.74-2.24-7.51-7-14.38 5.43-25.73-55.94 38.84-93.18 103.71-93.18 180.12v172.36a7 7 0 0 0 7 7h62.56c-18.15-4.26-25.81-12.84-27.49-21.74-8.34-44.14 55.91-113.67 166.3-177.46a1.44 1.44 0 0 0-1.16-2.61M551.79 350.5c-50.54 29.2-98.39 43.92-137.91 50.34h284.31a7 7 0 0 0 7-7V221.52c0-4.33-.14-11.55-.38-15.82-12.24 31.33-42.61 81-153 144.81" fill="#682a8d"/><path d="M660.08 213.69c-6.51-22.49-82.31-1.28-167.14 46.23C411.46 305.53 356.45 356 366.1 374.6c7.57 14.57 87 10.36 171.66-35.57 99.94-54.23 128.57-103.75 122.32-125.35M474.53 341.46c-22.2 12.46-49.15 8.16-65.75-8.83 8-8.16 36.67-35.27 88.4-62.71 12.94 25.44 3.11 57.08-22.65 71.53" fill="#682a8d"/><path fill="#06070b" d="M113.4 475H0v28.13h40.43v104.53h32.29V503.13h40.68V475zM753.35 503.13V475h-99.18v132.66h99.18v-28.13h-66.9v-25.39h55.52v-26.88h-55.52v-24.13h66.9zM803.12 579.53V475h-32.28v132.66h90.3v-28.13h-58.02zM908.29 579.53V475H876v132.66h90.3v-28.13h-58.01zM190.35 607.66h36.2L171.41 475h-26.13L89.42 607.66h34l7-19.48h53.23zm-50.18-46.23l17.77-49.16 16.7 49.16zM414 473.28a68.32 68.32 0 1 0 68.15 68.32A68.24 68.24 0 0 0 414 473.28m.18 107.24c-19 0-34.44-14.26-34.44-38.7 0-24.71 15.42-38.69 34.44-38.69s34.44 17.33 34.44 38.69-15.42 38.7-34.44 38.7"/><path d="M289.45 580.52c-19.3 0-34.94-14.26-34.94-38.7 0-24.71 15.64-38.69 34.94-38.69 10.67 0 20.2 5.31 26.61 13.65l26.4-18.78a69.33 69.33 0 0 0-53.2-24.68c-42.81 0-68.22 30.59-68.22 68.32 0 41 30 68.32 68.22 68.32 22.51 0 42.49-8.42 55.12-24.36l-27.32-19.45a33.52 33.52 0 0 1-27.62 14.41M611.57 536.29c12.23-5.52 18.94-14.39 18.94-28.77 0-22.3-20.86-32.52-42-32.52h-55.1v132.66l58.74-.06c23 0 48.67-8.49 48.67-34.86s-16.3-33.56-29.25-36.44m-48.07-35.48h22.4a13.44 13.44 0 1 1 0 26.88h-22.4zm31.84 79.38h-31.83v-28h27.21c10.67 0 18.28 5.27 18.28 14.31a13.65 13.65 0 0 1-13.65 13.65M975.21 579.71h9.87v1.4h-4.06v12.53h-1.75v-12.53h-4.06v-1.4zM997.37 579.71h2.63v13.93h-1.74v-11.48l-3.81 8.61h-2.08l-3.75-8.58v11.44h-1.74v-13.92h2.58s3.83 8 3.92 8.91c.11-.7 4-8.9 4-8.9" fill="#06070b"/></svg>