<svg xmlns="http://www.w3.org/2000/svg" width="1000" height="832.86"><defs><clipPath id="a"><path fill="none" d="M-188.67-278.13h1263.06v1389.11H-188.67z"/></clipPath></defs><g clip-path="url(#a)"><path d="M629 613.11a155.35 155.35 0 0 1-18.07 29.39 99.37 99.37 0 0 1-20.36 19.9c-6 4.24-11 7.5-15.1 6.78-2.65-.66-2.3-5.34-2-8.35a72.44 72.44 0 0 1 8.2-25.9 119.88 119.88 0 0 1 16.79-24.31 101.83 101.83 0 0 1 21.58-18.2 61.27 61.27 0 0 1 17.8-7.73 106.51 106.51 0 0 1-8.84 28.42m71.77-194.94c-17.19-2.72-29.62 10.37-35.07 23.28-1.93 4.52-2.48 6.85-4.34 12.69s-2.58 10.08-4 16c-1 4.26-2.58 10.88-3.21 13.81-1.17 5.36-1.31 6.19-2.82 14.32s-2.48 13.43-3.55 20.56c-.83 5.42-1.65 9.91-2.48 15.34a152.75 152.75 0 0 0-37.55 14.66 156.87 156.87 0 0 0-37.58 28.69 171 171 0 0 0-29.31 40.89 146.62 146.62 0 0 0-15.31 52 96.53 96.53 0 0 0-.51 7.38 24.27 24.27 0 0 1-4.41-4.78 37.92 37.92 0 0 1-5.32-12.76 73 73 0 0 1-1.81-16 116.21 116.21 0 0 1 .63-12.33c.45-4 1-7.84 1.68-11.31.4-2.25.68-4.34 1-6.37.19-1.34.35-2.65.59-4 2.45-15.08 3.53-25.19 2.05-35.48-1-6.82-6.5-19.93-20.3-20.36a25.61 25.61 0 0 0-3.4.12c-9.29.88-20.16 6-26.81 10.59A126.7 126.7 0 0 0 444.23 588a107.45 107.45 0 0 0-7.81 10.48c1.33-4.06 3.07-8.12 4.78-12.05 1.06-2.42 2.11-4.85 3.06-7.29l.35-.86c2.25-5.73 4.6-11.62 5.12-16.38.45-4.28-.22-7.76-2-10.34a14.34 14.34 0 0 0-5.53-4.8 15.81 15.81 0 0 0-6.45-1.44 34.69 34.69 0 0 0-3.75.06 30 30 0 0 0-14.14 4.8 51.71 51.71 0 0 0-9.34 7.66 64.31 64.31 0 0 0-7 9.69c-2.93 4.72-5.68 11.17-8.37 19.73a373.21 373.21 0 0 0-7.13 26.29c-2.19 9.2-4.2 18.69-6 28.23s-3 17.69-3.8 24.57c-.9 8.44-1.56 16.64-1.94 24.39a133.77 133.77 0 0 0 .43 21.73c.77 6.78 2.41 12.3 4.89 16.42 3.12 5.12 8.21 7.5 14.8 6.84h.32a52.74 52.74 0 0 0 9.52-2.18c3.7-1.28 9.32-5.29 14.08-12.76 2.75-4.26 5.54-15.53 8.91-29.8.79-3.27 1.5-6.28 2.1-8.67 13.17-51.4 32.29-62.19 41.74-64.16l-2 17.39c-.46 7.58-1 14.29-1.17 22.26.22 15.08 1.71 23.69 3.53 31.18 2.08 8.54 6 18.85 10.65 24.25 5.53 6.33 10.85 10.48 20.47 9.91a.48.48 0 0 0 .14 0h.09a35.41 35.41 0 0 0 10.79-2.82 33.82 33.82 0 0 0 10.67-7.61 25.39 25.39 0 0 0 5.74-8 32.12 32.12 0 0 0 6.65 8.46c4.23 3.78 10.29 5.56 18 5.31h.54c.85 0 2.7-.25 8.67-1 5.46-.73 12.09-2.89 19.76-6.34 7.49-3.4 16-8.71 25.41-15.74A137.14 137.14 0 0 0 629.28 676c-.66 10.94-1.2 21.38 3.58 35.7a56.07 56.07 0 0 0 8.5 16.18c4.45 6 11.22 9 20.2 9.12h.06l1-.08a35.22 35.22 0 0 0 10.79-3.4 30 30 0 0 0 8.57-7 24.71 24.71 0 0 0 5.66-13.92 22.58 22.58 0 0 0-.29-6 15 15 0 0 0-2.7-5.82c-.49-.71-1-1.48-1.51-2.35a51.61 51.61 0 0 1-5.73-13.15c-2.25-9.52-2.82-17.52-2.39-32.91.2-7.35.77-15.4 1.36-23.07.59-7.52 1.44-15.2 2.32-23.35.59-5.28 1.16-10.6 1.74-15.88.19-1.9.37-3.53.57-5h1.08a21.21 21.21 0 0 0 12.21-4.14c4.85-3.38 7.79-9.52 8.75-18.26.8-7.45-1-13.52-5.48-18a45 45 0 0 0-9.06-6.91c.48-2.82 1-5.48 1.31-7.92.48-3.13 1-5.87 1.51-8.12.34-1.57.65-3.15 1-4.74.26-1.36.49-2.7.79-4 .08-.29 5.48-25.5 16.28-63.05a85 85 0 0 0 3-14.71c.62-5.76-.79-15.43-11.62-17.15m155 132.31a39.73 39.73 0 0 1 .52 13.13 130.68 130.68 0 0 1-2.82 16.56c-.06.23-7.78 30.48-10.84 45a691.25 691.25 0 0 0-5.66 31 5.75 5.75 0 0 1-.12.68c-1.67 10.19-4.26 32.81-5.79 48.79-3 30.85-3.66 38.2-12.13 62-8.66 24.31-28.46 40.42-37.71 45.59-16.75 9.35-35.59 14.22-56.07 14.63h-.31c-1-.11-2.07-.19-3.24-.26a68.17 68.17 0 0 1-7.16-.76c-21.52-3.86-33.94-17.52-31.63-35.21 1.22-9.25 8.44-14.88 17.73-13.49a138.94 138.94 0 0 0 24 2.08c22.33-.25 37.66-7.64 46.83-23 9.55-16 10.71-26.53 12.33-41.1l.65-5.87c.9-7.52 1.57-14.48 2.3-21.79a100 100 0 0 1-10.54 12.07 110.69 110.69 0 0 1-18.86 14.93c-6.74 4-13.34 6.27-19.59 6.88H737.25c-10.25-.24-18.17-4.24-23.56-11.8-4.74-6.58-8.38-14.88-10.79-24.66a131.46 131.46 0 0 1-3.66-30.41 273.42 273.42 0 0 1 1.11-28.86c2.62-27.3 8.26-49.08 16.73-64.61 9.38-17.3 21.33-26.05 35.47-25.73.76 0 1.84.12 3.84.34a15.63 15.63 0 0 1 6.73 2.53 15.41 15.41 0 0 1 5.34 6.28c1.47 2.95 2 6.61 1.54 11.13s-2.18 9.65-5.29 15.42a149.38 149.38 0 0 0-7.86 18 268.7 268.7 0 0 0-6.16 20 141.72 141.72 0 0 0-4.31 24 203.9 203.9 0 0 0-.62 9 82.22 82.22 0 0 0 .11 12.13 30.24 30.24 0 0 0 2.13 9.54 5.51 5.51 0 0 0 3.21 2.67 12.49 12.49 0 0 0 2.87.37 11.4 11.4 0 0 0 6-1.91c1.54-1 5.31-4.21 9.74-10.17a122.49 122.49 0 0 0 14-24.63c2.3-5.43 5.25-14.32 8.35-23.75 3.5-10.6 9.65-31.42 13.18-40.15A92.47 92.47 0 0 1 813 552a39.15 39.15 0 0 1 10.22-10.42 27.05 27.05 0 0 1 16.65-4.69 26.36 26.36 0 0 1 4.86.91 13.83 13.83 0 0 1 6.82 4.18 19 19 0 0 1 4.17 8.54m10.8-4.48a17.76 17.76 0 0 1 .15-9.72c.54-1.85 2.27-6.16 3.29-10.22 1.2-5.36 1.68-10.7.39-15.68-1.14-4.38-1.42-10.74-.2-14.39a14.16 14.16 0 0 1 10.62-9.11c5.51-.93 11-.57 15.65 1.71 5.08 2.5 9.4 8.55 10.5 12.93 2.3 9.25 1.27 16.64.19 22.53a56.48 56.48 0 0 1-7.35 18.74c-2.24 3.75-6 7-9.2 9.31-4 2.82-10.43 3.89-17.24 1.42-3.12-1.14-6.22-5.26-6.79-7.53m113.41 130.63c-1.64 11.82-6.45 21.65-14.28 29.25a83.17 83.17 0 0 1-25.24 16.78 107.61 107.61 0 0 1-28.42 7.74 105 105 0 0 1-22.44.66c-.59 0-1.16-.12-1.68-.19-15.06-1.93-25.33-6.71-31.32-14.79s-8.37-16.39-7.19-24.82c1.39-10 6.62-14.86 10.77-17.15 5-2.82 9.4-4 13.34-3.69a2.89 2.89 0 0 1 .46.08c3.94.45 8.49 2.47 13.88 6.14 3.63 2.52 8.47 4.18 14.42 5 8 1 14.09.6 18-1.34 2.82-1.34 4.46-2.84 4.65-4.21.09-.62.26-1.88-1.9-3.94a45.25 45.25 0 0 0-10.73-7.24 416.04 416.04 0 0 0-15.93-7.59 98 98 0 0 1-17-9.62A49.79 49.79 0 0 1 866 634.09c-3.78-5.94-5.12-13-4-20.88 1.25-9.06 5.26-18.4 11.84-27.74A109.77 109.77 0 0 1 897 561.58a111.1 111.1 0 0 1 30-16.25 68.68 68.68 0 0 1 33.14-3.6c10.34 1.53 18.32 6.24 23.68 13.92s7.1 18.49 5.26 31.81a39.12 39.12 0 0 1-6.95 17.5c-3.12 4.34-9.11 9.29-20.06 7.55-7.45-1.11-10.45-5.14-11.64-8.35a50.87 50.87 0 0 1-2.43-8.46c-.43-2-.54-4.51-1.82-5.83a5.79 5.79 0 0 0-4.14-1 18.59 18.59 0 0 0-5.39 1A46.78 46.78 0 0 0 927 594a37.65 37.65 0 0 0-8.74 6.95 13.44 13.44 0 0 0-3.64 6.78c-.19 1.13-.29 3.06 2.1 5.36a66.31 66.31 0 0 0 11.39 8.41 179.75 179.75 0 0 0 16.27 8.67 98.92 98.92 0 0 1 17.81 10.74 56.62 56.62 0 0 1 13.49 14.42c3.94 6.16 5.39 13.34 4.26 21.32m-649.15-49.48c-5.12 7.93-10.25 14.12-15.7 18.88a83.7 83.7 0 0 1-16.42 11.39 28.93 28.93 0 0 1-6.37 2.65 84.09 84.09 0 0 1 4.7-16.42 131.92 131.92 0 0 1 12.5-23c5.93-8.75 10.73-14.49 15.62-18.6 3.4-2.87 6.37-4.58 8.61-5 5-.86 5.23 5.59 5.22 6.87 0 7.76-4.41 17.35-8.15 23.21m33-65.2a27.28 27.28 0 0 0-13.41-4.72 62.46 62.46 0 0 0-13 .56 1.7 1.7 0 0 0-.28 0 75.29 75.29 0 0 0-22.6 7.56 91.83 91.83 0 0 0-17.86 12.84 116.78 116.78 0 0 0-15 16 160.77 160.77 0 0 0-13.71 21.55c-6.42 12.38-12 26.78-17.07 44-3.16 0-10.08-1.4-13.24-2a34.47 34.47 0 0 0-3.49-.62h-1.34c14.65-60.94 24.87-95.45 32.34-119.36l12.16-35c3.18-6.61 5.11-15.65 4.8-19.83-.83-12.22-9.26-24.57-24.26-21.25-15.91 3.52-25.28 23.78-37.94 68.44-10.67 37.58-16.72 61.54-25.37 102.15q-5.63 27.76-11.21 55.52c-.57 2.78-1.13 5.57-1.67 8.33-1.27 5.77-1.93 7.42-4 7.89-1 .23-2.3-.48-2.89-2.84-1.33-5.17-2.44-15.88-3.23-29.62-1-31.64-3.64-64.42-2.5-105.91.66-23.71.63-27.52-.93-33.59-3-11.75-17.55-18.72-33.4-14.71s-20.57 21.8-29.7 46.09c-6.17 16.45-15.54 45.7-24.85 74.09-8.72 29.39-19 65.38-19 65.38-.65 2.5-1.27 5-1.91 7.47s-1.27 5-1.9 7.47c-2.27 6.08-3.06 7.29-4.57 7.72s-2.41-.83-2.87-2.69c-1-3.69-.8-27.27-.51-39.71.59-25.34 3.06-52.86 5.42-77.48 1.36-17.77 5.91-48.84 7.29-66.6.48-5.36 1-11 1.08-14.8.29-11.31-.48-16.78-5.42-22.38-7.73-6.81-17.16-6.28-28-3.81-17.52 4-30.64 14.83-29.08 20.79.25.9 1.16 1.76 2.05 3.07 2.65 3.84 4 6 5.11 9.89 1.27 4.58 1.87 10.93 1.84 21.16Q9 566.72 8.47 580.52C6.26 608.21 2.93 658.09 2 692.22c-.79 29.46.22 49.92 2.53 79.06a188 188 0 0 0 5.94 33c3 11.51 8.81 24.31 18.94 26.87 7.52 1.9 13.32 1.45 23.21-1.14 9.09-2.36 22.86-11.05 25.9-24.74q5.79-22.87 11.62-45.75c3.46-16.28 11.28-45.13 18-70.17a937.08 937.08 0 0 1 11.53-40.21c1.61-4.37 2.39-5.56 3.41-5.82s1.65.08 1.88 1a11.85 11.85 0 0 1 .31 2.78c0 1 .08 2.05.11 3.09q.12 4.68.22 9.38c.76 30.62 6.62 83.32 12.13 104.88 3.6 14.09 4.61 31.5 26.35 34.7a43.09 43.09 0 0 0 18.38-1.33c16-4.88 20.17-14.11 23.77-29.87 2.35-10 9.58-37.44 13.55-55.13 1.2-5.37 2.38-10.54 3.53-15.6 2.93.94 16.28 3 21.86 3.5a25 25 0 0 0 .32 3.64l.4 2.82c.2 1.36.36 2.59.65 4l1.16 5.32a64.62 64.62 0 0 0 10.68 23.5 47.28 47.28 0 0 0 16 14c6.28 3.43 17 4.92 27.24 3.87a26.48 26.48 0 0 0 4.17-.42 4.61 4.61 0 0 0 .8-.15c.69-.12 1.37-.26 2.08-.4a.55.55 0 0 0 0-.09c1.51-.34 3.36-.79 4.78-1.2 16-4.6 36.64-18.83 44.07-39.68 2.9-8.21 1.28-13.35-.59-16.22a10.53 10.53 0 0 0-8.81-5 24.12 24.12 0 0 0-3.38.32c-7 1.11-12.26 5.06-16.9 8.55-4.2 3.15-8.16 6.13-13.1 7.08-5.63 1.08-9.48.94-12.73-.66-3.63-1.79-4.86-3.12-6.33-6.82a32.6 32.6 0 0 1-1.77-8A100.43 100.43 0 0 0 322 682.71a125.3 125.3 0 0 0 26.22-22.83 129.43 129.43 0 0 0 19.09-29.19 104.35 104.35 0 0 0 9.06-34.84c.65-8.77-.29-16-2.75-21.58s-5.85-9.62-9.85-12.3" fill="#dd1438"/></g><g clip-path="url(#a)"><path d="M266 330.41c4.12 2.15 8.77 2.81 7.5 3.61-2.28 1.42-10.31 0-14.11-2.39-1.65-1-2.27 1.36-.77 3.29a15 15 0 0 0 2.64 3c14.62 12.78 33.46 16.61 50.47 13.68a213.62 213.62 0 0 0 333 33.34 216.1 216.1 0 0 0 26.64-33.55c17.24 3.23 36.5-.51 51.38-13.52a14.83 14.83 0 0 0 2.62-3c1.5-1.94.88-4.32-.79-3.29-3.8 2.38-11.82 3.81-14.09 2.39-1.27-.8 3.36-1.47 7.49-3.61 22.21-11.19 18.2-46.47 11.62-39.11-4.75 6-11 12.24-22.87 11.85 10.79-12.55 11.85-30.21 8.12-27.07-3.49 3.61-8.16 11.16-17.61 17.52A214.06 214.06 0 0 0 594.55 49.07c-9-16.33-20.25-28.17-40.5-32.77-9.49-1.3-14.27-1.17-22.05 2.22a15.4 15.4 0 0 0-3.6-6.74c-8.54-8.44-24-9.45-31.58-10.74-8.92-.87-24.51-1.12-39.36 2.65-32.4 8.21-54.5 23.94-70.51 46a215.06 215.06 0 0 0-48.87 37.72c-54.48 56.17-71.83 134.84-52.54 205.37-8.69-6.17-13.12-13.26-16.45-16.73-3.74-3.13-2.67 14.51 8.12 27.07-11.9.39-18.14-5.88-22.89-11.85-6.58-7.38-10.57 27.92 11.62 39.11" fill="#fff"/></g><path d="M986.67 727.14h1.2c1.39 0 2.52-.46 2.52-1.59s-.73-1.67-2.32-1.67a5.31 5.31 0 0 0-1.4.14zm-.06 6.13h-2.53v-10.91a30.64 30.64 0 0 1 4.18-.34c2.07 0 3 .34 3.72.88a2.72 2.72 0 0 1 1.13 2.32 2.81 2.81 0 0 1-2.25 2.59v.14c1.06.32 1.59 1.19 1.93 2.65a9.06 9.06 0 0 0 .8 2.67h-2.67a9.4 9.4 0 0 1-.86-2.67c-.2-1.13-.86-1.67-2.25-1.67h-1.19zm1.65-14.37a8.71 8.71 0 0 0 .12 17.41 8.35 8.35 0 0 0 8.32-8.64 8.48 8.48 0 0 0-8.37-8.77zm.12-2.19a10.94 10.94 0 1 1 0 21.87 10.94 10.94 0 1 1 0-21.87z"/><path d="M491.4 39.46A195.12 195.12 0 0 0 350.22 99.2c-75.51 77.8-73.61 202.6 4.24 278.13A196.67 196.67 0 1 0 491.4 39.46m0 410.27a212.58 212.58 0 0 1-148.7-60.28c-84.54-82-86.6-217.5-4.6-302a213.58 213.58 0 0 1 306.6 297.43 211.8 211.8 0 0 1-153.27 64.84" fill="#2f1e18"/><path d="M724.55 331.57c-3.78 2.38-11.81 3.81-14.09 2.39-1.27-.8 3.36-1.47 7.5-3.61 22.19-11.21 18.2-46.47 11.62-39.11-4.75 6-11 12.24-22.89 11.85 10.79-12.56 11.85-30.21 8.12-27.07-7.75 8-21.28 35.55-80.48 26a62.78 62.78 0 0 1 5.32-6c-3-1.81-6.07-4.68-9.17-9.26-9-14.28-16.76-16.7-21.39-18 7.56-7.27 12.64-14.94 17.23-23.61 15.33-32.75 13.55-68.38 11.88-77.76-1.77-14.51-5.48-37.15-16.87-58.31-12.9-24.06-25.51-68-68.92-82.76-8.83-.45-13.47 0-21.22 3.41-.76-1.53-8.09-7.56-8.87-8.94-4.6-4.17-18.12-7.86-24.17-9.86-12.46-.22-23.43-3.32-37.18.4-58.2 15.73-84.16 44.81-101.37 98.27-1.42 4.43-3.43 18.88-3.66 23.28.52-1.5-18.92 57.51-6 89.86 2.38 2.72 2.59 7.9 5 10.59 6.11 14.31 15.91 23.11 21.79 36.22-19.09.79-25.79 29.94-26.35 32.4-59.9 9.91-73.51-17.83-81.31-25.9-3.72-3.13-2.67 14.51 8.12 27.07-11.9.39-18.14-5.9-22.87-11.85-6.59-7.38-10.59 27.92 11.61 39.11 4.14 2.13 8.77 2.81 7.5 3.6-2.28 1.44-10.31 0-14.09-2.38-1.77-1.11-2.39 1.7-.46 3.69 57.15 38 83.47-3.8 92.18-5 31.52 9.06 87.39-13.2 62.6-32.4-6.74-10.54-16.92-28.63-17.3-49.48-1.39-11.71 0-15.34-12.9-14.26 4.57-14.23 9.26-26.7 4.52-48.33a7.55 7.55 0 0 0-2.38 1.7c25.39-24.79 75.48-27.74 102.87-54.82 3.55-6.17 17.58-8.23 20.94-14.65-3.12 22.27-13 41.87-33.68 61.55 0 0 14.51 0 26-8.18 19.66-14 28.88-31.09 42.45-45.81.08-.73 3.81-4.06 3.66-5a27.64 27.64 0 0 1 8 6.95c16 24.79 3 18.72 20.74 41.26 1 1.19 2.95 6.33 4 7.58 3.86 7.25 5.7 11.75 10.62 18.44 6.37 4.38 5.11 11.81 8.84 24.45-1.11 15.7-4.32 27.94-14.79 34.91-.57 13.68-12.12 45.41-12.12 45.41 1 3.13-12.12 24.12 18.94 30.45 8.15 1.65 20.47 0 30.93-1.84a51.4 51.4 0 0 1 6.5-19.08 45.29 45.29 0 0 0-.43 5.82 44.12 44.12 0 0 0 2.82 15.48c.32-.09.63-.15.94-.25 8.71 1.2 35 43 92.18 5 1.93-2 1.31-4.8-.46-3.69" fill="#dd1438"/><path d="M561.76 376.56c-2.38-5.49-4-9.2-3.87-14a4.39 4.39 0 0 0-2.3-2l.09 5.65-10-4.09a8.4 8.4 0 0 0-1.16 6c3.26 19.22 12.27 29.13 14.59 31.55a8.36 8.36 0 0 0 6.39 2.9 6.69 6.69 0 0 0 6-2.35c3.6-5.31-5.39-13.58-9.75-23.63M458.58 382.91l-5.4-6.25c-3.74 23.09-12.27 29.2-9.58 35.07a11.1 11.1 0 0 0 2.81 3.38 7.69 7.69 0 0 0 3.78 1.27 6.67 6.67 0 0 0 5.32-2.18c6.34-7.78 10.76-20.77 12.15-29.17a19.39 19.39 0 0 0 .11-5.34zM440 371.89l-8.84-2.1-1.08-5.4a12.31 12.31 0 0 0-1.77 2.61 72.68 72.68 0 0 1-5.14 14.43c-3.84 8.54-15.13 17.5-3.63 20.9a7.55 7.55 0 0 0 7.42-1.9c6.91-6.24 13.23-20.44 16-29a29.77 29.77 0 0 0 1.06-4.85zM530 383.23l-10.46-5.54c3.15 18.34 9.79 31.29 13.49 36a9.55 9.55 0 0 0 5.68 3.16 6.87 6.87 0 0 0 3.81-.79s2.79-1.28 3.47-3.18c2.13-5.94-7.79-15.79-10.34-38.12zM488.26 419c11 2.76 20.79-5.7 21-8.58.14-2.27-5.56-11.41-7.67-13.41a11.9 11.9 0 0 0-11.93-2.35c-3.35 1.13-9.88 7.79-9.75 14 .08 5.08 8.37 10.34 8.37 10.34" fill="#24ace9"/><path d="M413.17 143.61c31.16-9.34 44.16-34 73.44-54.35-4.86.65-10.85 3.38-14.94 5.71-24.71 14.17-32.51 20.31-44 28.25s-26.53 17.52-37.35 21.28c0 0 7.73 4.23 22.87-.9M554.06 16.3c-9.49-1.3-14.29-1.17-22.06 2.23a15.4 15.4 0 0 0-3.6-6.74c-8.55-8.46-24-9.46-31.58-10.74-8.94-.86-24.51-1.11-39.37 2.65C401 18 375.76 55.12 359.66 109.14a283.48 283.48 0 0 0-8.32 41.46c-7 16.07-20.27 57.66 7 98 4.89 7.25 21.05 27.4 25.25 38.43 5.83 26.62-27.71 10.71-51.26 34.6 0 0-19.39 25.16-57 20-6.41-1.08-12.18-3-16.78-6.74a15 15 0 0 0 2.64 3c23.85 20.85 58.94 17.87 78.92.62 4.38-3.77 4.51-6.16 19.46-6.17 26 0 49.45-1.91 63.05-21.78-10.57-13.8-15.34-18.64-19.45-27.16 0-4.31-1.33-9.89-4.71-17.1-2.18-26.89-5-30.41-4.54-43.88-1.06-17.23-.28-37.07 17.56-44.44s22.74-5.09 53.3-21c56.43-29.26 57.8-65.15 52-69.64 0 0-13.13 23-29.85 37.52-25 21.69-56.77 29.79-90.35 42.48-33.74 12.76-37.8 25.66-37.8 25.66-8.5-48.39 20.23-76.42 20.23-76.42-2.89-1-17.36 16.35-23.8 26.3 7.19-31.5 15.14-50.63 23.14-66.35a143.57 143.57 0 0 1 11.15-16.59c9-10.11 12.89-14.31 26.35-23.31 8.44-5.65 17.77-10.94 29.28-14 25.13-6.65 62.77-6.11 77.73 6.5a22.92 22.92 0 0 1 5.91 9s7.22-4.2 12.35-5.74c7.29-2.19 15.85 0 21.25 2.16 29.65 13.15 36.56 46.55 59 74.6-22.12-45.24-26.67-83.59-67.28-92.81m41.38 104.85c12.78 16.76 44 46 40.95 92.18a83.7 83.7 0 0 0 3.49-26.93c-2-68-40.28-70.66-69.33-126.72 0 0-4.37 23 24.9 61.48m129.87 213.64a15.54 15.54 0 0 1-2.64 3c-23.83 20.87-58.94 17.87-78.92.6-3.33-2.86-4.21-4.92-11-5.76a44.25 44.25 0 0 1-3.72-17.68 41.38 41.38 0 0 1 .45-5.88 52.19 52.19 0 0 0-5.83 15.19c-.82 0-1.64 1.31-2.5 1.56-28.49 11-45.73 3.63-57-18.74 1-1.45 7-9.2 7.75-10.67a122.66 122.66 0 0 0 11.14-40.38c3.23-27.1 3.1-33.34 4.09-40 1.5-12.93 1.45-16.25-1.31-25.48-2.42-7.61-4.43-10.23-9-18.86-11.28-16.35-15.57-23.32-20.91-33.72a69.44 69.44 0 0 1-6.16-15.33s-10.33 25.14-31.61 40.93c-18.2 13.51-32.18 17.86-42.46 16 15.73-8.89 31.95-18.63 43.9-38.19a150 150 0 0 0 19.9-55s1.1-.08 4.49 1.81c2.55 1.44 7.24 6.25 9.58 14.83a206.41 206.41 0 0 0 8.79 24.93c7.81 17.63 15.22 26.05 31 40.65 15.4 14.23 30.42 34.39 24.76 64-3.29 17.26-11 28-19.56 42.52-2.79 5.57-3.72 9.74-3 15.77 2.36 15.87 18.09 7.25 37.88 12.12a55.86 55.86 0 0 0-3.77 5.7 50.28 50.28 0 0 1 21.87 12.76s19.4 25.16 57 20c6.41-1.1 12.18-3 16.78-6.76" fill="#9c0b2b"/><path d="M594.39 194.81c-3.49-.8-4.92 1-6.54 4.35a53.3 53.3 0 0 0-2-8.5c-2.41-7.61-4.43-10.23-9-18.86-11.3-16.35-15.57-23.32-20.93-33.72a69.44 69.44 0 0 1-6.16-15.33s-10.31 25.14-31.61 40.93c-18.2 13.51-32.17 17.86-42.46 16 19.57-18.68 29.5-37.27 33.14-58.14-8.06 11.3-21.75 23.92-44.08 35.5-30.56 15.87-35.35 13.57-53.28 21-12.72 5.23-16.76 16.82-17.66 29.26-.17-2-.37-3.75-.57-5.22-.34-7.1-2.28-7-2.28-7s-11.3.15-12 16.87c-.22 10.31 1.61 13.23 3.12 16.75 1.7 4 3.64 8.94 6.16 10.17 4.31 2.05 6.2.65 6.9-.22l.25 1.44c.08.44.17 1 .23 1.51l.35 2.27c3.53 22.58 6.87 36.18 12.64 44.79a93.3 93.3 0 0 0 1.47 3.44c1.25 2.15 2.47 4.12 3.58 5.88 3.77 2.92 5.66 5.91 6.07 8.84l.71.91 2.21 2.84a3.13 3.13 0 0 0-.2.28c.57.52 1.14 1.06 1.74 1.54a61.05 61.05 0 0 0 6.88 6.48l-1.34 43.79 1.45 7.18 8.83 2.1 4.24-5.56 14.32 16.58 12.43-4.4a21.86 21.86 0 0 1 5.54 3.46c2.53 2.22 18.18 9.17 18.18 9.17l7.24-2.82 9.18-6.88 3.72-6.28 15.16 8 14.42-21.7 11.24 4.61-.77-49.58c1.42-1.51 2.78-3 4.06-4.51 4.31-5 9.32-10.23 13.1-15.85.12-.31.29-.65.45-1a2 2 0 0 0 .12-.26l.45-1 .25-.59.39-.88.37-.88.35-.83.43-1.08c.14-.37.22-.54.34-.83s.32-.85.48-1.28c.11-.28.22-.54.32-.83l.52-1.47c.11-.28.22-.54.31-.83.19-.52.37-1.08.56-1.64l.29-.86c.19-.57.37-1.16.54-1.74a47.4 47.4 0 0 0 .83-2.83l.28-1 .52-2 .26-1c.17-.66.32-1.36.48-2l.26-1.13c.15-.69.29-1.42.43-2.13l.25-1.19c.14-.74.26-1.5.39-2.25l.22-1.22c.12-.82.25-1.68.35-2.53 0-.35.11-.69.15-1.06.14-1.22.28-2.45.4-3.72.85-7.18 1.47-12.89 1.94-17.53 1.2.8 4 1.85 7.75-2 4.61-3.78 8.55-14.93 8.38-24-.17-7.95-2.1-16.68-6.76-17.77" fill="#fcd3d7"/><path d="M358.89 293.7a36.24 36.24 0 0 0-1.36-9.52c-1.16-5.8-2.33-9.72-4.69-19.9-2.81-12.1-10.57-12.52-13.44-12.32-2.24.17-13.78 3.19-21.53 9.65-8.09 6.16-8.21 10.65-7.19 13.84.8 2.53 4.71 9.62 7.72 13.44 8.6 10.54 21.47 13.2 16.11 16.95-1.56 1.7-1.14 4.6.69 11.16a57.22 57.22 0 0 0 4.37 9.94c1.4 1.93 2.67 5.76 8.16 6.27 1.37.14 3 0 2.67.91a13 13 0 0 0-1 5.43c.09 2.25 3.18 9.28 4.55 12.75 1.57 4 5.34 22 13.72 21.81a37.2 37.2 0 0 0 10.82-2.11c7.78-2.3 17.52-8.75 18.72-13.86 1.74-7.27-2.92-10.28-5.31-13.68-4.58-4.78-14.76-14.71-17.67-17.81-.68-.73-1.53-1.44-2.55-2.44-2.84-2.82-1.4-3.63-.12-5.48 1.54-3.18-3-12.15-4.12-13.92-1.88-2.87-5-6.2-7.83-6.25-5.88-1-.76-1.42-.73-4.91" fill="#24ace9"/><path d="M354.88 328.46c7.79-3.19 7.58-3.3 10.45-5.6.9-.73 3.18.48 1.08 4-.9 1.44-2.28.76-2 4 .39 4.11 9.09 10.34 3.23 11.53-5.32 1.06-8.38-8.8-8.8-10.22s-2.79.12-4 0c-2.52-.25-4.57-1.81 0-3.69M338.06 288c.74 5.57 5.12 11.9 8.75 8.4 2.3-2.22-2.1-2.82-5.19-15.73-2-8.38-4.14 3-3.57 7.33" fill="#2f1e18"/><path d="M350.69 300.71c-3.57.37-7.84.66-9.71 3s-2.11 3-.82 5.29 1.93.4 4-1.47a13 13 0 0 1 6.28-3.16c1.88-.28 4.18-1.27 4.85-3.32.49-1.59-1.25-.73-4.6-.39" fill="#fff"/><path d="M635.82 328.54c3 0 7.16-4.38 9-7.21 1.17-1.77 6.37-10.77 3.35-13.66-1.64-1.64-2.05-2.13.45-4.52 1-1 1.91-1.7 2.62-2.42 3-3.07 16-17.19 19.09-20.53 1.65-2.24 7-6.44 4.68-12.41-1.77-4.06-14.51-10.82-21.24-13.38-3.77-1.57-8-2.93-10.91-3.15-6.62-.79-11.95 18.58-13.46 22.55-1.31 3.41-3.13 11.33-3.1 13.57a12.26 12.26 0 0 0 1.37 5.28c.49.86-1.33.79-2.82.93a14 14 0 0 0-10 5.9c-1.44 1.33-3.35 5.09-4.72 9.09-1.64 6.44-1.13 9.08.63 10.71 6.07 3.63-6.84 5.19-16 17.33-3.3 3.74-7.89 10.5-8.64 13-1 3.12-1.76 6.68 8.07 13.35 7.38 5.8 21.48 9.08 24 9.23 3.12.19 9.69 1.9 12.13-10 2-10 2.75-13 3.66-17.43.93-5.37 1.47-9.62 1-11.21-.26-2.89-5.19-4.72.88-5" fill="#24ace9"/><path d="M627.6 327.16c-8.84-.57-8.57-1.4-11.51-3.38-1-.62-4.8 1.3-2.05 3.75.94.82 3 3.26 2.22 6.22-1 3.84-6.68 11.16-1.17 10.43 6.27-.79 7.72-9.65 8.41-11a3.8 3.8 0 0 1 3.15-2c2.64-.32 5.45-3.75 1-4M645.6 290.17c-1.76 3.83-3.07 9-8.18 6.28-6.42-3.45 1.58-8.55 6.51-13.75 4.61-4.85 3 4.46 1.67 7.47" fill="#2f1e18"/><path d="M638.57 301.8c-3-2.58-6.08-5.34-9.18-5.25s-4.31.59-4.94 3.15 1.22 1.81 4.12 2.21 6.05 2.47 7.55 3.64c1.64 1.33 4.77 2.3 5.6.9s-.31-2.21-3.15-4.65M464.85 298.79s-4.35-10.73-8.83-10.43c7.87-.06 18.2 1.57 26 1 1.23-.06 3.72-1.06 4.94-1.17 12.15-1.25 26.47 2.22 37.64-1.11-3.83 3.63-6.16 12.36-11.67 15.11-5.91 3-19.59 3.81-28.12 3.32s-13.92-3.52-20-6.7" fill="#fff"/><path d="M414.46 241.28a2.21 2.21 0 0 1 2.44-2.28c1.28 0 3 1 3 2.32.06 1.7-1.73 2.79-3.06 2.75-1.56 0-2.39-1.1-2.36-2.78M426.52 249.38a2.91 2.91 0 0 1 2.76-2.78 3.06 3.06 0 0 1 3 2.79c0 1.2-1.59 2.27-3.07 2.27a2.57 2.57 0 0 1-2.7-2.28M436.71 234.37c0-1.1 1.67-2.45 3.24-2.44 1 0 2.64 1.33 2.61 2.52-.56 2-1.54 2.78-2.61 2.78-2.07 0-3.27-.85-3.24-2.86M449.06 244.86c0-1.42.71-2.67 2.42-2.65a2.55 2.55 0 0 1 2.47 2.59c0 1.48-1.11 2.9-2.53 2.73-1.7 0-2.36-1.33-2.36-2.67M461.08 232a2.56 2.56 0 0 1 5.12 0 2.46 2.46 0 0 1-2.65 2.53 2.36 2.36 0 0 1-2.47-2.48M518 232.7c.25-1.5 1-2.33 2.64-2a2.75 2.75 0 0 1 2.18 3c-.28 1.34-1.57 1.85-3.1 1.54a2 2 0 0 1-1.72-2.54M534.24 235.7a2.25 2.25 0 0 1 2.38-2 2.5 2.5 0 0 1-.86 4.92c-1.2-.23-1.77-1.51-1.51-2.92M555.84 233.7c.31-1.45 1.44-2.18 3.41-1.81a2.16 2.16 0 0 1 1.87 2.81c-.31 1.57-1.27 2.81-2.84 2.52a2.86 2.86 0 0 1-2.44-3.52M543.29 245.45c.31-1.67 1.7-2.41 3.53-2.13a2.7 2.7 0 0 1-.93 5.31 2.83 2.83 0 0 1-2.61-3.18M560.23 246.65a2.53 2.53 0 0 1 3.29-2 2.47 2.47 0 0 1 2.27 3 2.82 2.82 0 0 1-3.18 2.18 2.71 2.71 0 0 1-2.38-3.16" fill="#dd1438"/><path d="M441.57 199.6a25.27 25.27 0 0 0-16.38 14.55c0 1.77 4.43 3.64 4.57 4.32 2.15.62 9.49-.66 12.07-.63 8.72.09 18.64-3.94 16.14-8.92 0 0-8.4-11.56-16.41-9.32M554.72 214.61c2.21-3.53-7.59-16.7-13.84-16.08s-10.94 3-15.88 10.63c-.28.45.12 2.45-.17 3 2.35 3.92 9 6.76 16.89 6.73a29.12 29.12 0 0 0 7.13-.86c.12-2.45 3.7.17 5.88-3.38" fill="#fff"/><path d="M490.55 417.24c6.67 1.7 12.9-2 13.94-6.7a12.67 12.67 0 0 0-1.48-8.67 11.76 11.76 0 0 0-4.71-4.8c-2.42-1.71-6.16-1.37-7.35-1l-1 .48c-6.61 2.58-10.53 17.83.65 20.68m-58.17-91c-.2 9.57-.28 19.08-.46 32 1 1.71 2.38 3.72 4.23 6.27 3.16 4.41 7.72-10.46 13.23-7.35 5.9 3.33 5.6 13.75 11.9 18.69 3.75 2.93 10.71-13.74 14.39-4.61 4 9.86 11.08 12.13 18.77 16.05 3.44-3 8.47-3.44 12.69-8.41 4-4.66 6.31-9.42 9.23-10.33 4.51-1.4 7.16 9.72 12 7.95 7.93-2.92 6.54-17.55 13.91-19.52 3.74-1 4.34 5.42 8.75 6.08s8.6-14.74 10.87-21.15c1.14-3.16 2.76-4.07 5.22-3.15 3.47 1.31 3.69 6 4 14 .49 11.31 5.7 22.16 12 29.73s-9.74 3.36-16-13c-3.92-10.19-2.82-10.26-5.74-5 0 0-5.4 9.35-8.89 10.28-4.46 1.2-8.71-5.34-8.71-5.34s-5.23 18.18-14.18 18.23c-8.41 0-11.24-8.94-13.21-5.46-1.5 2.58-3.35 6.42-10.9 9.18 4 3.09 7.53 6.28 9.06 11.87 2.89 13.29-7 21.69-18.6 22.55-8.38.57-18.54-3-21.22-10.84-2.95-10 3.26-19.17 9.28-23.48-5.57-1.47-10-5.26-13.26-10 0 0-4.72 6.51-11.7 5.28-4.45-.79-10.4-9.54-12.53-17-.11-.34-4.92 6.56-10.59 5.63-7.58-1.23-7.49-6.81-11.16-12.26-.82-1.2-3.52-5.14-4.07-1.76a36.58 36.58 0 0 1-3.46 10.73c-3.86 7.75-15 16.35-19.91 13.09 4.37-1.76 11.65-10.42 13.91-18.15a63.35 63.35 0 0 0 2.19-25.19c-.73-6.73 5.93-3 10.34 1.61l.22-4.35c.26-4.83.31-10.25.35-15.42a16.15 16.15 0 0 0-3.7-9.63c-2.75-3.29-7-10.14-9.38-13.63 0 0-2.82-4.49-4.63-7.83a91.61 91.61 0 0 1-5.39-12.86 104 104 0 0 1-4.83-22.55 185.87 185.87 0 0 1-1.25-18.55c1.31 6 3.24 15.94 4 19.09 3.27 14.35 6 21 11 29.68 5 9 11.44 16.25 17.52 22.63 3.57 3.74 10.91 9.82 15.59 13.58a143.31 143.31 0 0 0 16.11 11.73c6.25 3.94 17.75 11.93 33.52 11.75 14.83-.17 22.89-6 27.72-8.77 10.37-6 15.76-10.73 23-17.47 8.29-7.75 12.52-11.62 17.55-17.5 6.53-7.62 12.53-15.77 18-35 3-10.5 4.88-22.77 6.1-29.62.17 2.44.54 5.2-.22 14.66a148.82 148.82 0 0 1-3.09 19.5c-2.18 9.15-4.17 15.3-7.79 22-3.75 6.87-4.75 7.47-11.05 16.92-4.4 6.24-4.57 6.48-4.75 11.21-.14 19.83-4.55 47.06-8 4-21.81 18.52-40.56 30.19-58.33 30.39-17.46.2-35.68-11.34-59.75-31.19m105.73-132.57c-3.66 1.19-9.37 6.37-11.36 9.38-2.48 3.74-4 10.45-7.24 10.56-1.23-.43 0-3.21-1.91-3a4.06 4.06 0 0 0-3.23 5.12 3.71 3.71 0 0 0 3.26 2.39c5.71.74 6.58-4.52 8.75-7.55 1.84-2.52 5.62-6.39 7.64-7.53 1.87-1.08 4.6-1.9 6.95-.06 1.37 1.17 0 3.74-1 4.26-2.61.22-5.08-.74-6.31-.48s-3.1 3.63-3.38 7.79c2.75 1.11 3.41-1 6.11-1 4.35-.06 8.63 2.79 10.85.6s2.18-6.25 2.16-8c3.7.15 5.39 5.39 3.83 8.09-1.23 1.42-4.23 1.14-4.21 3.78 12.64 2.55 13.83-2.72 14.8-5.57.69-2.3.43-4.18-.63-7.33-3.7-9.38-15-14.74-25.07-11.44m-117 24c2.24 1.17 7 3.47 10.76 2.38a1.63 1.63 0 0 0-1.59-2.16c-2.38-.09-4.06-2.21-4-3.19.28-3.23 3.61-8.44 7.53-10.51 3.58-2.55 6.34-1.17 7.39.8-.08 1.54-.63 2.72-2 3-2.05.46-3.53-1.31-5.06-.65a6.16 6.16 0 0 0-.73 7.92c1 1.25 2.25 1.73 2.69 1.33 1.93-2.45 6.58-2.41 11.25-2 2-1.4 2.1-4.8 2.65-7.7 3.33-3.78 5 3.83 7.21 6.85 1.45 2 3 4.34 5 4.54 3.38.34 7.78-2.38 6.1-7.35-1-1.28-3.64 1.3-4.71.45-4-3.84-.4-11.68-8.8-15.88-9-4.51-22.92-2.95-28.49 4.06a36.82 36.82 0 0 0-6.28 10.33c-.85 3.06-1.65 6.22 1 7.81m85.77 34.06c-5.51-1.65-6.79 4.24-12.39 4.23-7.86 0-9.49-5-13.66-4.6-3.43.39-5.2 5.59-7.53 5.94-1.87-.37-1.48 2.78.88 3.38 4.72 1.19 3.69-2.76 6.81-1.67 1.84.71 2.22 3.86 7.52 6.28s10.51-.46 15.23-4.74c3-2.9 8.66-2.7 7.21-4.49-1.27-.6-2.18-3.78-4.06-4.34m11.45-71.8c.37 1.53 5.77 0 8.3-1a33.7 33.7 0 0 1 6.05-2.11 34.19 34.19 0 0 1 5.82-.62 52.66 52.66 0 0 1 9.6.57c5.22.86 15 6 15.85 3.75.9-4.23-2.81-7.62-5.62-9.15-7-3.75-17.58-5.7-27.07-1.85-3.18 1.51-4.26 2.79-7.25 4.83-2.08 1.4-5.91 3.67-5.68 5.54m-37.45 110.65c1.22 0 6-.51 7.22-.62 12.13-1.13 23.24 2 34.45-1.2-3.86 3.58-7 9.18-12.55 11.88-5.93 2.9-16.76 2.92-25.28 2.32s-15.65-5.28-21.67-8.52c-1.62 4.86 1 6.73 4.72 10 4.23 3.78 10.82 8.94 20.76 9.2 14.4.37 25.74-1 33-12.92 2.21-3.9 8.16-11.92 14.37-14.88 3.47-1.65 11.42-5.37 10.11-7.42-2.36-3-7.05-2.48-10.42-1.73-2.56.52-3.33 5.22-7.61 5.56-10.13 1.31-20-2.24-32.44-1.84-9 .26-16.07 2.35-25.67 3.1-9.26.74-12.47-4.15-21.16-5.22-4-.51-4.68 1.77-1.68 5.54 2.81 2.89 7.69 5.63 11.56 5.57 7.87 0 14.51 1.65 22.32 1.13m-25-112.5c-2.16-.56-3.43-1.4-6.17-1.73a39.35 39.35 0 0 0-5.85-.26 40.76 40.76 0 0 0-9.55 1.17c-5.12 1.31-14.63 6.93-15.6 4.72-.82-3 .73-5.63 2.65-7.56 6.81-2.19 12.42-3.49 21.11-6.91a26.56 26.56 0 0 1 8.2 1.47 50 50 0 0 1 7.56 4.37c2.11 1.31 6.25 3.36 6 5.19-.54 1.54-5.73.25-8.33-.45" fill="#2f1e18"/></svg>