<svg xmlns="http://www.w3.org/2000/svg" version="1.0" viewBox="0 0 750 190"><path d="M190.3 114.35h-23.2l-5.12 10.98h-20.87l36.34-66.5h22.3l13.39 66.5h-21.41l-1.42-10.98zm-1.75-14.38l-3.17-23.9-11.36 23.9h14.53zm49.22-41.15h33.98c7.4 0 12.64 1.77 15.72 5.3 3.07 3.55 4.04 8.59 2.92 15.12-1.16 6.71-4.08 11.96-8.74 15.74-4.68 3.78-11.13 5.67-19.38 5.67h-11.19l-4.26 24.68H226.3l11.48-66.5zm15.64 28.36h5.01c3.94 0 6.82-.7 8.66-2.07a8.16 8.16 0 003.3-5.28 6.46 6.46 0 00-1.15-5.31c-1.14-1.46-3.62-2.18-7.44-2.18h-5.82l-2.56 14.84zm55.65-28.36h54.8l-2.46 14.2h-34.3l-1.82 10.57h31.81l-2.34 13.56h-31.81l-2.27 13.12h35.3l-2.6 15.06h-55.79l11.48-66.5zm62.24 66.51l11.49-66.5h34.07c6.32 0 11.06.53 14.2 1.62 3.16 1.1 5.5 3.11 7.04 6.05 1.54 2.96 1.94 6.55 1.21 10.78a21.8 21.8 0 01-4 9.56 23.72 23.72 0 01-7.58 6.5 29.01 29.01 0 01-7.63 2.64c2.29.82 3.92 1.63 4.9 2.45.65.54 1.54 1.7 2.66 3.5a20.85 20.85 0 012.16 4.13l6.57 19.27h-23.1l-7.42-20.32c-.93-2.63-1.87-4.34-2.82-5.13a7.39 7.39 0 00-4.74-1.55h-1.81l-4.66 27h-20.53zm27.38-39.56h8.61c.94 0 2.79-.3 5.57-.9a6.68 6.68 0 003.68-2.1 7.34 7.34 0 001.96-3.85c.36-2.15-.03-3.8-1.19-4.95-1.15-1.14-3.6-1.72-7.33-1.72h-8.97l-2.33 13.52zm57.43-26.95h62.15l-2.84 16.42h-20.85l-8.65 50.1h-20.44l8.65-50.1h-20.85l2.83-16.42zm119.69 0h20.4l-6.84 39.63a37.69 37.69 0 01-3.75 11.13 30.5 30.5 0 01-7.31 9.15 28.73 28.73 0 01-9.14 5.51c-4.23 1.49-9.12 2.23-14.7 2.23-3.21 0-6.68-.23-10.4-.68-3.74-.46-6.77-1.36-9.09-2.7a18.45 18.45 0 01-6.03-5.74 17.34 17.34 0 01-3.03-7.66c-.53-4.23-.52-7.98.05-11.24l6.83-39.63h20.4l-7 40.57c-.63 3.63-.11 6.46 1.54 8.5 1.64 2.04 4.24 3.06 7.8 3.06 3.52 0 6.45-1 8.8-3.02 2.34-2 3.84-4.85 4.47-8.54l7-40.57zm28.6 66.51l11.49-66.5h34.07c6.32 0 11.05.53 14.2 1.62 3.16 1.1 5.5 3.11 7.03 6.05 1.54 2.96 1.95 6.55 1.22 10.78a21.66 21.66 0 01-4 9.56 23.71 23.71 0 01-7.58 6.5 29.1 29.1 0 01-7.64 2.64c2.3.82 3.93 1.63 4.9 2.45.66.54 1.55 1.7 2.67 3.5a20.86 20.86 0 012.15 4.13l6.58 19.27h-23.1l-7.42-20.32c-.94-2.63-1.87-4.34-2.82-5.13a7.4 7.4 0 00-4.74-1.55h-1.81l-4.66 27h-20.53zm27.37-39.56h8.62c.93 0 2.8-.3 5.57-.9a6.7 6.7 0 003.68-2.1 7.35 7.35 0 001.95-3.85c.37-2.15-.02-3.8-1.18-4.95-1.15-1.14-3.6-1.72-7.33-1.72h-8.98l-2.33 13.52zm62.44-26.95H749l-2.45 14.2h-34.3l-1.82 10.57h31.81l-2.34 13.56h-31.82l-2.26 13.12h35.3l-2.6 15.06h-55.79l11.48-66.5zM204.08 165.14v-27.37h4.33v24.14h16.14v3.23h-20.47zm39.89 0l12.59-27.37h4.67l13.4 27.37h-4.93l-3.82-8.29h-13.7l-3.6 8.3h-4.6zm9.46-11.24h11.1l-3.41-7.58a66.95 66.95 0 01-2.33-5.68c-.41 1.76-1 3.5-1.76 5.23l-3.6 8.03zm42.35 11.24v-27.37h12.3c2.5 0 4.5.27 6.02.83s2.7 1.4 3.55 2.56a5.97 5.97 0 011.29 3.6c0 1.18-.38 2.28-1.14 3.31a7.89 7.89 0 01-3.45 2.5 8.84 8.84 0 014.57 2.49 5.96 5.96 0 011.6 4.14 6.9 6.9 0 01-.97 3.58 7.28 7.28 0 01-2.4 2.55 11.1 11.1 0 01-3.6 1.35c-1.43.3-3.2.46-5.28.46h-12.5zm4.34-15.87h7.08c1.92 0 3.3-.1 4.14-.32a4.72 4.72 0 002.49-1.36 3.5 3.5 0 00.84-2.4c0-.9-.27-1.7-.79-2.4a3.96 3.96 0 00-2.23-1.41c-.97-.26-2.63-.38-4.98-.38h-6.55v8.27zm0 12.64h8.16c1.4 0 2.38-.04 2.94-.13 1-.15 1.84-.4 2.5-.75a4.36 4.36 0 001.66-1.52c.43-.67.65-1.44.65-2.3 0-1.03-.31-1.91-.94-2.67a4.99 4.99 0 00-2.6-1.58 18.94 18.94 0 00-4.8-.46h-7.57v9.41zm42.91-10.11c0-4.54 1.46-8.1 4.38-10.66 2.92-2.57 6.69-3.86 11.3-3.86 3.03 0 5.76.6 8.2 1.81a13.02 13.02 0 015.54 5.05 14.19 14.19 0 011.92 7.35c0 2.78-.67 5.26-2.02 7.45a12.71 12.71 0 01-5.7 4.98 18.86 18.86 0 01-7.95 1.69c-3.09 0-5.85-.62-8.27-1.87a13.1 13.1 0 01-5.52-5.1 13.4 13.4 0 01-1.88-6.83zm4.47.06c0 3.3 1.06 5.9 3.18 7.8 2.13 1.9 4.8 2.85 8 2.85 3.26 0 5.94-.96 8.05-2.88 2.11-1.91 3.17-4.63 3.17-8.16 0-2.23-.45-4.17-1.36-5.83a9.35 9.35 0 00-3.95-3.87 12.35 12.35 0 00-5.85-1.37c-3.07 0-5.71.88-7.92 2.64-2.22 1.76-3.32 4.7-3.32 8.82zm50.37 13.28v-27.37h14.53c2.92 0 5.14.24 6.66.73a7.08 7.08 0 015.01 6.74 6.3 6.3 0 01-2.26 4.9c-1.5 1.34-3.83 2.19-6.97 2.55 1.15.46 2.02.9 2.62 1.36 1.26.97 2.46 2.18 3.6 3.64l5.7 7.45h-5.46l-4.34-5.7a52.71 52.71 0 00-3.12-3.77 9.36 9.36 0 00-2.2-1.83 7.29 7.29 0 00-1.99-.73c-.49-.08-1.3-.13-2.41-.13h-5.03v12.16h-4.34zm4.34-15.3h9.32c1.98 0 3.53-.16 4.65-.5a4.92 4.92 0 002.55-1.65c.58-.75.87-1.57.87-2.46 0-1.29-.56-2.35-1.69-3.19-1.12-.83-2.9-1.25-5.33-1.25h-10.37v9.06zm42.91 15.3l12.59-27.37h4.67l13.4 27.37h-4.93l-3.82-8.29h-13.7l-3.6 8.3h-4.6zm9.46-11.24h11.1l-3.41-7.58a66.62 66.62 0 01-2.33-5.68c-.42 1.76-1 3.5-1.76 5.23l-3.6 8.03zm47.47 11.24V141h-10.8v-3.23h25.98v3.22h-10.85v24.15h-4.33zm35.33-13.34c0-4.54 1.46-8.1 4.38-10.66s6.7-3.86 11.31-3.86c3.03 0 5.75.6 8.18 1.81a13.07 13.07 0 015.56 5.05 14.19 14.19 0 011.91 7.35c0 2.78-.67 5.26-2.01 7.45a12.7 12.7 0 01-5.7 4.98 18.86 18.86 0 01-7.96 1.69 17.8 17.8 0 01-8.27-1.87 13.1 13.1 0 01-5.52-5.1 13.4 13.4 0 01-1.88-6.83zm4.47.06c0 3.3 1.06 5.9 3.19 7.8 2.12 1.9 4.78 2.85 7.99 2.85 3.26 0 5.95-.96 8.06-2.88 2.1-1.91 3.16-4.63 3.16-8.16 0-2.23-.45-4.17-1.35-5.83a9.36 9.36 0 00-3.96-3.87 12.36 12.36 0 00-5.85-1.37c-3.07 0-5.7.88-7.92 2.64-2.21 1.76-3.32 4.7-3.32 8.82zm50.38 13.28v-27.37h14.53c2.92 0 5.14.24 6.66.73a7.08 7.08 0 015 6.74 6.3 6.3 0 01-2.25 4.9c-1.5 1.34-3.83 2.19-6.98 2.55 1.15.46 2.02.9 2.62 1.36 1.27.97 2.46 2.18 3.6 3.64l5.7 7.45h-5.46l-4.33-5.7a52.75 52.75 0 00-3.13-3.77 9.36 9.36 0 00-2.2-1.83 7.28 7.28 0 00-1.98-.73c-.5-.08-1.3-.13-2.42-.13h-5.03v12.16h-4.33zm4.33-15.3h9.33c1.98 0 3.53-.16 4.64-.5a4.92 4.92 0 002.55-1.65c.58-.75.87-1.57.87-2.46 0-1.29-.56-2.35-1.68-3.19-1.13-.83-2.9-1.25-5.33-1.25h-10.38v9.06zm47.25 15.3v-27.37h4.34v27.37h-4.34zm29.93 0v-27.37h23.69V141h-19.36v8.38h18.13v3.21h-18.13v9.32h20.12v3.23h-24.46zm46.82-8.79l4.09-.3c.2 1.36.65 2.49 1.35 3.37a7.5 7.5 0 003.3 2.13c1.49.54 3.17.8 5.03.8 1.65 0 3.12-.2 4.38-.6a6.17 6.17 0 002.83-1.7c.62-.72.93-1.5.93-2.34 0-.86-.3-1.61-.9-2.25a6.85 6.85 0 00-2.95-1.62c-.88-.28-2.82-.73-5.83-1.33a34.3 34.3 0 01-6.33-1.71 8.57 8.57 0 01-3.5-2.55 5.5 5.5 0 01-1.15-3.4c0-1.39.47-2.68 1.41-3.88a8.63 8.63 0 014.11-2.74c1.8-.62 3.81-.93 6.02-.93 2.43 0 4.57.33 6.43.98a9.13 9.13 0 014.28 2.88 7.33 7.33 0 011.6 4.32l-4.15.26a5.34 5.34 0 00-2.27-3.92c-1.3-.89-3.2-1.33-5.71-1.33-2.63 0-4.54.4-5.74 1.2-1.2.8-1.8 1.78-1.8 2.9 0 1 .43 1.8 1.28 2.44.83.63 3.01 1.28 6.53 1.95 3.53.66 5.95 1.24 7.26 1.74a9.83 9.83 0 014.22 2.8 6.03 6.03 0 011.37 3.89 6.6 6.6 0 01-1.5 4.12 9.62 9.62 0 01-4.3 3 17.56 17.56 0 01-6.32 1.08c-2.97 0-5.45-.37-7.45-1.09-2-.72-3.58-1.8-4.72-3.26a8.19 8.19 0 01-1.8-4.91zM152.36 90.52L135.07 10.1a94.19 94.19 0 0142.85 41.43l-25.56 38.99zm-53.12 62.22l80.22-17.34a94.22 94.22 0 01-41.33 42.96l-38.9-25.63zM57.2 139l68.96 44.6a93.87 93.87 0 01-59.52 1.08l-9.43-45.69zM37.18 99.48l17.29 80.42a94.21 94.21 0 01-42.85-41.43l25.56-38.99zm13.7-42.13l-44.5 69.12A94.55 94.55 0 015.31 66.8l45.57-9.45zM90.3 37.27L10.08 54.6A94.2 94.2 0 0151.4 11.64l38.9 25.63zM132.33 51L63.38 6.4a93.87 93.87 0 0159.52-1.09l9.43 45.7z"/></svg>