<svg data-name="Layer 1" xmlns="http://www.w3.org/2000/svg" width="229.68" height="40.09"><path d="M111.86 25.06A4.63 4.63 0 0 1 103 23c0-3.38 2.28-6.42 5.63-6.42 3.61 0 4.47 2.69 4.55 3.17h5.31c.32-2-1.26-8.05-9.65-8.05A11.1 11.1 0 0 0 97.8 23.13c0 5.37 3.35 9.5 9.57 9.5 7.75 0 9.84-6.08 10.09-7.57zM71.14 26.54a11.77 11.77 0 0 1 .36-2.13l4-18.51h-5L66.4 25a10.93 10.93 0 0 0-.25 2.29c0 4.18 3.23 5.41 5.82 5.41a13.57 13.57 0 0 0 2-.18c.08-.42.86-4 .9-4.16h-1.3c-1.85 0-2.43-.79-2.43-1.82zM134.92 11.73L126 19.76l3-13.89h-5.01l-5.7 26.36h5.02l1.38-6.41 3.09-2.45 4.26 8.86h5.58l-6.05-11.87 10.3-8.63h-6.95zM43.76 24.08l4-18.21h9.44c6.89 0 8.58 3.83 8.58 6.15 0 5.14-4.85 6.5-5.45 6.68A5.55 5.55 0 0 1 64 24.17c0 4.39-4 8.07-10.32 8.07h-2.82c-5.27 0-8.1-3.62-7.1-8.16zm14.86-.32c0-1.24-.8-2.81-4.34-2.81h-4.6l-1.38 6.37h5.21c3.37 0 5.11-1.51 5.11-3.56zm1.71-10.62c0-1.28-1-2.39-3.37-2.39h-5.07l-1.15 5.32H56c2.87 0 4.33-1.37 4.33-2.94zM139.58 24.08l3.95-18.21H153c6.88 0 8.58 3.83 8.58 6.15 0 5.14-4.85 6.5-5.45 6.68a5.56 5.56 0 0 1 3.7 5.46c0 4.39-4.05 8.07-10.32 8.07h-2.86c-5.24.01-8.07-3.61-7.07-8.15zm14.86-.32c0-1.24-.8-2.81-4.34-2.81h-4.6l-1.38 6.38h5.21c3.37-.01 5.11-1.52 5.11-3.57zm1.71-10.62c0-1.28-1-2.39-3.37-2.39h-5.08l-1.15 5.32h5.29c2.85 0 4.3-1.37 4.3-2.94zM196 11.74c-5.31 0-8.93 3.15-10.15 9-.52 2.54-2.45 11.46-2.45 11.46h5l2.41-11.15c.76-3.49 2.61-4.68 5.09-4.68a9.65 9.65 0 0 1 1.57.13c.14-.7.83-3.86 1-4.63a18.49 18.49 0 0 0-2.47-.13zM213 40.09l16.7-28.35h-5.4l-7.68 13.34-1.79-13.36h-5.75c-6.59 0-10 3-11.21 8.78-.61 2.88-2.54 11.74-2.54 11.74h5s1.83-8.42 2.55-11.81 3.15-4.31 5.79-3.74l1-4.84c.78 4.6 3.15 19.28 3.15 19.28l-5.21 9H213zM85.52 23.5l4.74-.72-.26 1.29c-.58 2.48-3.1 4.07-5.89 4.07-1.78 0-2.82-1-2.82-2.09-.04-.94.82-2.05 4.23-2.55zm-1.86-5.34A5.23 5.23 0 0 1 88.25 16c2 0 3 .72 3 1.6 0 1.24-2 1.56-5.46 2.05-6 .86-9.71 2.71-9.71 7 0 3 2.53 6 7 6A7.9 7.9 0 0 0 89 30.23c0 .54.09 1.35.14 2h5.15a11.67 11.67 0 0 1 .07-5.33c.32-1.44 1.23-5.57 1.69-7.85.88-4.32-1.49-7.36-7.56-7.36-7.8 0-10.05 5.61-10.41 6.47h5.62zM176.12 26.09a4.51 4.51 0 0 1-4.1 2.09 4.38 4.38 0 0 1-4.7-4.21h15.18a13.81 13.81 0 0 0 .43-3.11c0-4.8-3.26-9.19-9.82-9.19a11 11 0 0 0-10.82 11c0 5.8 3.48 9.92 9.65 9.92 7.61 0 9.66-6 9.86-6.54zm-3-9.87c3.35 0 4.63 2 4.5 3.69h-9.59a5.36 5.36 0 0 1 5.14-3.69z"/><g><path d="M12.27 2.86c0-1.26-.77-2.86-4-2.86h-5L1.81 6.59H7c4.11 0 5.27-1.93 5.27-3.73zM25.76 2.86C25.76 1.6 25 0 21.74 0h-5L15.3 6.59h5.22c4.08 0 5.24-1.93 5.24-3.73zM10.46 12.78c0-1.26-.77-2.87-4-2.87h-5L0 16.5h5.22c4.08 0 5.24-1.93 5.24-3.72zM24 12.78c0-1.26-.77-2.87-4-2.87h-5l-1.51 6.59h5.22c4.08 0 5.29-1.93 5.29-3.72zM38.07 8.76c0-1.26-.78-2.87-4-2.87H29l-1.43 6.59h5.22c4.12 0 5.28-1.93 5.28-3.72zM36.12 19.08c0-1.26-.77-2.86-4-2.86h-5l-1.42 6.59h5.22c4.08 0 5.2-1.94 5.2-3.73zM22 23.1c0-1.27-.77-2.87-4-2.87h-5l-1.42 6.59h5.22c4.05 0 5.2-1.93 5.2-3.72z"/></g><path fill="none" d="M-4.18-9.03h240.5v53.5H-4.18z"/></svg>