<svg xmlns="http://www.w3.org/2000/svg" width="177" height="59"><g fill="none"><path fill="#255398" d="M147.57 58.06a28.68 28.68 0 1 0 0-57.36H29.2a28.68 28.68 0 0 0 0 57.36h118.38-.01z"/><path fill="#FFF" d="M147.13 54.63a25.22 25.22 0 1 0 0-50.45H29.53a25.23 25.23 0 0 0 0 50.45h117.6z"/><path fill="#255398" d="M147.26 49.3a19.94 19.94 0 1 0 0-39.87H29.71a19.94 19.94 0 1 0 0 39.88h117.55v-.01z"/><path fill="#FFF" d="M29.27 20.84h.57c1.58 0 2.07.57 2.07 2.26v8.8c0 1.7-.5 2.27-2.07 2.27h-.58V20.84h.01zm-8.2-5.1v4.15c.83.35.89 1.03.92 1.85v11.37c-.03.79-.11 1.5-.93 1.85v4.14h10.3c2.21 0 4.28-.13 5.95-1.71 1.77-1.67 1.88-3.44 1.88-5.73v-8.75c0-2.23-.2-4.36-2.1-5.86-1.67-1.28-3.96-1.3-5.95-1.3H21.07v-.01zm28.88 12.24h-2.5v-.65c0-.68.1-1.75 1.25-1.75s1.25 1.07 1.25 1.75v.65zm-8.94 4.85c0 2.07.08 3.98 1.88 5.32 1.42 1.06 4.06 1.5 6.68 1.3 2.64-.19 5.29-.98 6.7-2.2v-4.3h-6.43v.62c0 .87-.08 1.88-1.2 1.88-1.12 0-1.22-1.12-1.2-1.97v-1.57h8.83v-4.07c.11-4.2-1.44-6.3-7.76-6.27-6.03.03-7.6 1.91-7.5 6.6v4.66zm16.74 6.27v-4.14c.87-.55.79-1.42.79-2.3V22.19c0-.88.08-1.75-.8-2.3v-4.14h8.87v4.15c-.88.54-.8 1.41-.8 2.29v11.96h.71c1.86 0 1.83-1.12 1.83-2.59v-3.79h6.4v11.34h-17v-.01zm25.1-10.95c0-.96-.16-2.57 1.23-2.57s1.2 1.64 1.2 2.56v4.97c0 .92.08 2.34-1.23 2.34-1.28 0-1.2-1.42-1.2-2.34v-4.97.01zm8.86-.06c0-2.18-.14-4.25-2.21-5.5-1.5-.88-4.12-1.01-5.86-1.01-1.94 0-4.03.16-5.59 1.39-1.6 1.25-1.63 3.27-1.63 5.12v4.47c0 2.26 0 4.36 2.1 5.75 1.5 1 4 1.15 5.77 1.15 1.97 0 4.26-.17 5.81-1.5 1.55-1.34 1.6-3.5 1.6-5.4V28.1l.01-.01zm8.61-5.1a7.48 7.48 0 0 1 4.63-1.41c1.34.05 2.51.49 3.16 1.14 1.18 1.12 1.31 2.37 1.31 3.84V33c0 .84-.08 1.8.77 2.26v3.84h-6.84c-.39-1.74-.36-3.57-.36-5.34v-5.01c0-.11.08-.9-.19-1.53-.43-.66-1.14-1.15-2.2-.66V33c0 .84-.09 1.8.78 2.26v3.84h-8.01v-3.84c.85-.5.8-1.28.8-2.15V27.9c0-.93.02-1.53-.8-2.13v-3.84h6.95v1.06zm20.5 11.29c-.35.2-.75.3-1.15.3-1.3 0-1.3-1.5-1.3-2.43v-3.79c0-.98 0-2.12 1.28-2.12.4 0 .84.13 1.17.35v7.69zm7.22-12.35h-7.06v.98a6.99 6.99 0 0 0-4.25-1.33c-3.84 0-4.8 2.34-4.8 6.07v6.46c0 3.76 1.86 5.35 5.1 5.35a6.4 6.4 0 0 0 3.79-1.26v1.1c0 .97.16 2.66-1.26 2.66-.51 0-.81-.27-1-.65-.17-.38-.2-.87-.2-1.25h-5.97v4.11a14.2 14.2 0 0 0 7.53 1.83c1.96 0 4.44-.25 5.91-1.7 1.5-1.44 1.42-4.05 1.42-5.99V27.9c0-.87-.06-1.61.79-2.13v-3.84zm9 .76a7.9 7.9 0 0 1 4.35-1.11c1.34.05 2.51.49 3.17 1.14 1.17 1.12 1.3 2.37 1.3 3.84V33c0 .84-.08 1.8.77 2.26v3.84h-6.84c-.38-1.74-.36-3.57-.36-5.34v-5.01c0-.11.09-.9-.19-1.53-.43-.66-1.14-1.15-2.2-.66V33c0 .84-.09 1.8.78 2.26v3.84h-8v-3.84c.84-.5.78-1.28.78-2.15V21.85c.03-.87.08-1.8-.81-2.26v-3.85h7.24v6.95h.01zM155.4 33c0 .88-.08 1.75.82 2.27v3.84h-8.04v-3.84c.85-.52.8-1.28.8-2.15v-5.08c0-.87.07-1.74-.8-2.26v-3.84h7.22V33zm-6.95-14.85c0-1.85 1.91-2.62 3.5-2.62 1.6 0 3.45.88 3.45 2.73 0 1.8-1.82 2.64-3.4 2.64-1.69 0-3.55-.81-3.55-2.75zm-106.62.23H55.7v1.2H41.83v-1.2z"/></g></svg>