<svg data-name="Слой 1" xmlns="http://www.w3.org/2000/svg" width="300" height="72.46"><path d="M20.69 51.7v5.18h20.67V51.7h-7.74V25.83H20.69v5.23h7.75V51.7z" fill="#e70026"/><path d="M56.86 67.29H5.17V15.53h33.61v-5.18H0v62.11h62V33.64h-5.14zM62 0h-5.12v10.36H46.53v5.17h10.35v10.35H62V15.52h10.37v-5.16H62zM80.12 10.36v62.1H300v-62.1z" fill="#e70026"/><path d="M275.15 25.78a10.86 10.86 0 0 0-4.05.71 8.88 8.88 0 0 0-3 1.87 8.26 8.26 0 0 0-2.45 5.84 8.06 8.06 0 0 0 .64 3.4 6.67 6.67 0 0 0 1.71 2.3 8.5 8.5 0 0 0 2.33 1.5c.87.38 1.77.72 2.68 1l2.7.85a11.94 11.94 0 0 1 2.33 1 5.28 5.28 0 0 1 1.65 1.49 3.83 3.83 0 0 1 .63 2.28 6 6 0 0 1-.42 2.29 5 5 0 0 1-1.22 1.76 5.78 5.78 0 0 1-2 1.15 8 8 0 0 1-2.63.4 8.19 8.19 0 0 1-3-.48A11.07 11.07 0 0 1 269 52.1a17.23 17.23 0 0 1-1.45-1.1 1.67 1.67 0 0 0-1-.48 1 1 0 0 0-.54.16 1.56 1.56 0 0 0-.42.4l-1.21 2a12.72 12.72 0 0 0 4.16 2.92 13.16 13.16 0 0 0 5.46 1.08 11.89 11.89 0 0 0 4.34-.75 9.21 9.21 0 0 0 3.22-2.05 8.76 8.76 0 0 0 2-3.07 10.29 10.29 0 0 0 .68-3.77 7.23 7.23 0 0 0-.63-3.21A6.69 6.69 0 0 0 281.9 42a9.4 9.4 0 0 0-2.35-1.49c-.87-.39-1.77-.75-2.69-1.06l-2.69-.91a13.31 13.31 0 0 1-2.35-1 5.46 5.46 0 0 1-1.66-1.44 3.5 3.5 0 0 1-.63-2.13 4.65 4.65 0 0 1 .37-1.87 4 4 0 0 1 1.07-1.5 5.09 5.09 0 0 1 1.78-1 7.28 7.28 0 0 1 2.45-.38 7.71 7.71 0 0 1 2.51.36 10 10 0 0 1 1.77.8 13.28 13.28 0 0 1 1.22.8 1.5 1.5 0 0 0 .83.37.88.88 0 0 0 .56-.16 1.49 1.49 0 0 0 .41-.48l1-2a10.86 10.86 0 0 0-3.69-2.36 13 13 0 0 0-4.66-.77zm-163.76.06a16.41 16.41 0 0 0-6.3 1.18 14.32 14.32 0 0 0-4.9 3.26A14.56 14.56 0 0 0 97 35.22a17.76 17.76 0 0 0 0 12.43 14.55 14.55 0 0 0 3.14 5 14.32 14.32 0 0 0 4.9 3.26 17.55 17.55 0 0 0 12.61 0 14.24 14.24 0 0 0 4.86-3.26 14.64 14.64 0 0 0 3.14-5 17.82 17.82 0 0 0 0-12.43 14.25 14.25 0 0 0-8-8.19 16.31 16.31 0 0 0-6.26-1.19zm76.71.28v30.62h4.12V45.29h4.9a15.23 15.23 0 0 0 4.89-.71 10.06 10.06 0 0 0 3.58-2 8.48 8.48 0 0 0 2.18-3.05 10 10 0 0 0 .75-3.91 10.38 10.38 0 0 0-.7-3.91 7.55 7.55 0 0 0-2.1-3 9.65 9.65 0 0 0-3.55-1.91 16.91 16.91 0 0 0-5.05-.68zm25.64 0v30.62h17.38v-3.48h-13.24V26.12zm21.65 0v18.61a14.24 14.24 0 0 0 .83 4.92 11.32 11.32 0 0 0 2.43 3.91 11 11 0 0 0 3.84 2.59 14.13 14.13 0 0 0 10.16 0 11 11 0 0 0 3.83-2.59 11.48 11.48 0 0 0 2.41-3.91 14.08 14.08 0 0 0 .84-4.92V26.12h-4.12v18.61a10.57 10.57 0 0 1-.55 3.52A7.74 7.74 0 0 1 253.5 51a7.06 7.06 0 0 1-2.5 1.81 9.25 9.25 0 0 1-6.8 0 7.19 7.19 0 0 1-2.58-1.81 8 8 0 0 1-1.62-2.76 10.89 10.89 0 0 1-.55-3.53V26.12h-4.11zm-104.1.07V56.7h5V38v-1.21c0-.44-.05-.89-.09-1.33l15.9 20.27a2.44 2.44 0 0 0 .86.76 2.69 2.69 0 0 0 1.11.21H157V26.18h-5v19.87c0 .47.06 1 .12 1.45l-16-20.41a5 5 0 0 0-.42-.47 1.62 1.62 0 0 0-.39-.27 1.44 1.44 0 0 0-.45-.12 4.73 4.73 0 0 0-.63 0h-3zm31.87 0V56.7h19.22v-4.53h-13.5v-8.64h10.64v-4.37h-10.64V30.7h13.51v-4.52zm29.05 3.21h4.9c2.44 0 4.25.55 5.46 1.64a5.93 5.93 0 0 1 1.8 4.58 6.93 6.93 0 0 1-.47 2.59 5.52 5.52 0 0 1-1.38 2 6.59 6.59 0 0 1-2.28 1.31 9.59 9.59 0 0 1-3.13.47h-4.9zm-80.83 1.29a10.42 10.42 0 0 1 4 .74 8.13 8.13 0 0 1 3 2.13 9.69 9.69 0 0 1 1.91 3.39 15.7 15.7 0 0 1 0 9 9.54 9.54 0 0 1-1.91 3.38 8.14 8.14 0 0 1-3 2.12 10.29 10.29 0 0 1-4 .74 10.43 10.43 0 0 1-4-.74 8.32 8.32 0 0 1-3-2.12 9.44 9.44 0 0 1-1.93-3.38 13.94 13.94 0 0 1-.67-4.51 13.92 13.92 0 0 1 .67-4.5 9.59 9.59 0 0 1 1.93-3.39 8.3 8.3 0 0 1 3-2.13 10.56 10.56 0 0 1 4.01-.74z" fill="#fff"/></svg>