<svg xmlns="http://www.w3.org/2000/svg" width="300" height="79"><path fill="#0086a4" d="M137.83068226 55.5963299h6.44500232V15.31138837h-9.3248094V43.3534729l-19.3438317-28.04208453h-8.3276137V55.5963299h9.16890564V30.3634545l15.0432414 21.4058795c2.00615773 2.61212326 4.01525704 3.8269959 6.33910544 3.8269959m47.62418424-40.31435733h-36.43441297v6.96272045h13.5842176V55.5963299h9.17773037V22.24469302h13.672465v-6.96272045m11.12211493 40.31435733h26.15359v-7.08332524h-22.9502091V38.44691704h16.34047828v-6.9715452h-16.3404782V22.3858889h22.5030889v-7.1039163h-31.6778777V50.101458c.0294158 1.05308574.47359448 5.45957296 5.9714079 5.49487192m65.9708203-6.57737346l-5.1477654-5.02421907c-2.40621265 3.3181025-6.57737344 5.3860334-11.3044929 5.2124802-7.81283715-.2853333-12.9458947-6.5273666-12.67232772-13.9842725.27062538-7.4539644 5.8537447-13.3018259 13.66658184-13.0194342 3.6799169.1353127 7.0333184 1.6149275 9.2336204 3.903477l4.6888789-5.7066657c-3.5416626-3.7299238-8.5158748-6.1273117-14.48139954-6.3449886-12.52819028-.4618281-21.42941212 8.8982802-21.8618244 20.8322713-.44417863 11.9398742 7.75106394 21.9235976 20.27337107 22.3795425 7.52750387.2794501 13.73717978-3.0092366 17.6053578-8.248191m28.2891772-33.7369839v15.9463066H275.5289954V15.28197257h-9.18067196V55.5963299h9.180672V38.33807857h15.3079836V55.5963299h9.1630225V15.28197257h-9.1630225M64.2588186 55.5963299l4.11821235-8.96005344h22.0265529l4.12115395 8.96005344h9.51895368L85.49702803 15.28197257H73.28064525L54.73692335 55.5963299h9.52189527zm15.1314888-32.89569194l7.92755878 17.2347187H71.46274866l7.92755877-17.2347187m-22.52956313 5.1389407c0-16.42284254-13.57245128-27.6273217-29.25695717-27.6273217C11.98987916.21225696.1117781 12.5051208.0088228 27.64837593h-.00882474v41.676309l9.77781275 9.46306365V27.60131065c.1382543-10.01902232 8.4040948-18.1377838 18.5525467-18.1377838 10.2278746 0 18.5525467 8.248191 18.5525467 18.38193497S38.558232 46.2273968 28.3303575 46.2273968H14.5431708v9.3689331h13.0606163c16.6522858 0 29.25695717-10.4396683 29.25695717-27.75675124"/></svg>
