<svg xmlns="http://www.w3.org/2000/svg" width="1000" height="159.11"><path fill="#099" fill-rule="evenodd" d="M988.3 5.58v29.78c-15.42-5.82-29.16-8.77-41.18-8.77-7.12 0-12.8 1.32-17.06 3.87-4.26 2.57-6.44 5.74-6.44 9.48 0 4.96 4.82 9.38 14.5 13.34l28.01 13.62c22.64 10.8 33.87 25.13 33.87 43.13 0 14.96-5.96 26.9-17.98 35.73-11.93 8.93-28 13.35-48 13.35-9.23 0-17.52-.4-24.88-1.23-7.36-.8-15.83-2.42-25.21-4.75v-31.17c17.2 5.83 32.88 8.77 46.99 8.77 16.84 0 25.21-4.88 25.21-14.72 0-4.9-3.43-8.86-10.4-11.96l-31.1-13.25c-11.47-5.2-20-11.48-25.58-18.93-5.5-7.52-8.29-16.13-8.29-25.98 0-13.78 5.8-24.88 17.28-33.32C909.6 4.2 924.94 0 944.02 0c6.2 0 13.34.55 21.25 1.56 7.98 1.08 15.65 2.4 23.04 4.02zM107.48 5.58v29.78C92.05 29.54 78.33 26.6 66.3 26.6c-7.14 0-12.8 1.32-17.06 3.87-4.26 2.57-6.43 5.74-6.43 9.48 0 4.96 4.87 9.38 14.57 13.34l28 13.62c22.55 10.8 33.8 25.13 33.8 43.13 0 14.96-5.98 26.9-17.91 35.73-12.02 8.93-28 13.35-48.07 13.35-9.23 0-17.54-.4-24.9-1.23-7.36-.8-15.74-2.42-25.19-4.75v-31.17c17.28 5.83 32.95 8.77 46.97 8.77 16.84 0 25.21-4.88 25.21-14.72 0-4.9-3.4-8.86-10.3-11.96L33.9 90.8C22.32 85.6 13.8 79.32 8.3 71.87 2.74 64.35 0 55.74 0 45.9c0-13.78 5.76-24.88 17.3-33.32C28.77 4.2 44.13 0 63.2 0c6.27 0 13.32.55 21.32 1.56 7.91 1.08 15.58 2.4 22.95 4.02zM185.18 2.79v153.53h-45.63V2.8zM333.5 156.32H220.43V2.8h111.69v28.36h-67.8v34.08h58.8v25.54h-58.8v35.77h69.18zM358.69 156.32V2.8h55.69l38.01 93.96 39.75-93.96h52.88v153.53h-42.56V55.06l-44.2 102.64h-26.3L389.5 55.06v101.26zM693.24 156.32H580.23V2.8h111.63v28.36h-67.39v34.08h58.8v25.54h-58.8v35.77h68.77zM851.88 156.32h-48.33l-54.31-98.45v98.45h-30.76V2.8h49.77l52.88 96.77V2.79h30.75z" class="fil0" clip-rule="evenodd" image-rendering="optimizeQuality" shape-rendering="geometricPrecision" text-rendering="geometricPrecision"/></svg>