<svg xmlns="http://www.w3.org/2000/svg" viewBox="-0.5039063 -0.8779297 455.34863 83.84375"><path fill="#021a31" fill-rule="evenodd" d="M125.52735 63.206055l-12.46094 19.402344h7.6543l12.2832-19.402344h-7.47656zm26.34619 0v19.402344h6.40771V63.206055h-6.40771zm18.86816 0v19.402344h-5.69726V63.206055h5.69726zm14.06299 0v19.402344h-5.51855V63.206055h5.51855zm50.19922 0c-1.95801 4.449219-4.98535 7.476562-7.12207 9.257812-6.76318 4.804688-14.95166 4.804688-20.2915 4.804688h-14.2417v5.339844h17.26611c7.12061 0 14.41992-1.780274 19.04834-4.804688 6.40723-4.09375 9.78906-9.613281 11.57031-14.597656h-6.22949zm9.43359 0c1.42383 10.68164 10.85938 19.759766 22.6084 19.759766 11.92578 0 21.18262-9.078125 22.7832-19.759766h-5.69433c-1.60352 9.43457-9.43652 14.774414-17.08887 14.774414-8.01269 0-15.4873-6.051758-16.91113-14.774414h-5.69727zm53.93653 0v19.402344h-5.69532V63.206055h5.69532zm2.84961 0c1.42382 10.68164 10.85644 19.759766 22.60547 19.759766 11.92871 0 21.18261-9.078125 22.78613-19.759766h-5.69727c-1.60058 9.43457-9.43359 14.774414-16.91113 14.774414-8.1875 0-15.66504-6.051758-17.08887-14.774414h-5.69433zm54.64746 0v19.402344h-5.51758V63.206055h5.51758zm29.5498 0v19.402344h-5.69531V63.206055h5.69531zm29.3711 0v19.402344h-5.51661V63.206055h5.51661zm11.21484 0v19.402344h-5.51758V63.206055h5.51758zm12.63769 0v19.402344h-5.5166V63.206055h5.5166zm16.2002 0v19.402344h-5.69531V63.206055h5.69531z" clip-rule="evenodd"/><path fill="#021a31" fill-rule="evenodd" d="M133.00391 63.206055l.35596-.53418h18.51367v.53418h6.40771V25.468262h-8.36621l-24.38769 37.737793h7.47656zm32.04053 0V38.819336h5.69726v24.386719h-5.69726zm14.2417 0V38.819336h5.51855v6.407715c2.84717-6.230469 7.83203-7.120605 12.46045-7.476562V43.625c-3.9165.355469-7.29932 1.779297-9.43506 4.450684-1.95801 2.313965-3.02539 5.51709-3.02539 8.899902v6.230469h-5.51855zm61.94726 0c1.42383-3.916016 1.78028-7.476563 1.78028-9.791016 0-7.11914-3.02735-18.334472-13.35059-24.743652-4.62842-3.025879-11.92774-4.805176-19.04834-4.805176h-3.73779l.17871 4.983887h.53467c8.72168 0 14.24023 1.067871 19.40283 4.450683 6.23047 4.628418 10.14648 11.749024 10.14648 19.75879 0 3.916015-.88965 7.297851-2.13574 10.146484h6.22949zm8.90137 0c-.17969-.890625-.35742-1.958008-.35742-2.848633 0-11.569824 9.43652-18.157715 17.26855-18.157715 7.65235 0 17.44336 6.054199 17.44336 17.624512 0 1.245117-.17773 2.314453-.35449 3.381836h5.69433c.17969-1.067383.17969-2.136719.17969-3.204102 0-11.926269-9.9707-22.963379-22.96289-22.963379-11.57129 0-22.78613 9.434571-22.78613 23.318848 0 1.069336 0 1.958008.17773 2.848633h5.69727zm42.54394 0V25.468262h5.69532v37.737793h-5.69532zm14.23926 0c-.17773-.890625-.35449-1.958008-.35449-2.848633 0-11.569824 9.43359-18.157715 17.44336-18.157715 7.47754 0 17.26855 6.054199 17.26855 17.624512 0 1.245117-.17968 2.314453-.35742 3.381836h5.69727c.17676-1.067383.17676-2.136719.17676-3.204102 0-11.926269-9.96778-22.963379-22.9629-22.963379-11.57128 0-22.78515 9.434571-22.78515 23.318848 0 1.069336 0 1.958008.17969 2.848633h5.69433zm43.43555 0V38.819336h5.51758v5.161133c2.49316-3.916016 6.94336-6.22998 11.92578-6.22998 6.40918 0 11.74902 3.026855 14.77637 8.366699 3.38183-5.518067 8.54394-8.366699 14.77636-8.366699 10.32227 0 17.44239 7.299316 17.44239 18.869628v6.585938h-5.51661v-5.874024c0-9.435058-4.62793-14.596191-11.92578-14.596191-7.47851 0-11.92871 5.161133-11.92871 14.596191v5.874024h-5.69531v-5.874024c0-9.435058-4.4502-14.596191-11.92871-14.596191-7.29785 0-11.92578 5.161133-11.92578 14.596191v5.874024h-5.51758zm70.13574 0V38.819336h5.51758v24.386719h-5.51758zm12.63867 0V25.468262h5.5166v13.351074h5.69727v5.161133h-5.69727v19.225586h-5.5166zm16.02149 0V38.819336h5.69531v24.386719h-5.69531zm-312.22949-5.874024l14.95361-23.319335v23.319335h-14.95361zm312.22949-31.863769h5.69531v8.009766h-5.69531v-8.009766zm-28.66016 0h5.51758v8.009766h-5.51758v-8.009766zm-255.44482-1.958008h5.69726v9.967774h-5.69726v-9.967774z" clip-rule="evenodd"/><path fill="#008e8f" fill-rule="evenodd" d="M72.836424-.8779297L38.657713 38.285156H-.5039077L33.673827-.8779297h39.162597zm0 81.8857427L38.657713 42.022461H-.5039077L33.673827 81.007813h39.162597zm44.502446-40.408692L79.778319 18.88086 42.217772 40.243164l37.204591 21.539063 37.916507-21.183106z" clip-rule="evenodd"/></svg>
