<svg data-name="Слой 1" xmlns="http://www.w3.org/2000/svg" width="399.55" height="34.35"><defs><linearGradient id="a" x1="374.55" y1="35.42" x2="374.55" y2="1.61" gradientTransform="matrix(1 0 0 -1 0 35.42)" gradientUnits="userSpaceOnUse"><stop offset=".33" stop-color="#ff1e27"/><stop offset="1" stop-color="#e81b23"/></linearGradient></defs><path d="M378.25 0l-17.9 25.9c-2.36 3.41-6.2 6.7-10.8 7.06v.79h19.9c5.3 0 9.16-3.45 11.7-7.25L399.55 0h-21.3z" fill="#ed1c24"/><path d="M378.25 0l-17.9 25.9c-2.36 3.42-6.2 6.71-10.8 7.06v.79h19.9c5.3 0 9.16-3.45 11.7-7.25L399.55 0h-21.3z" fill="url(#a)"/><path d="M47.65 33.81V2.86h9v30.9h-9zm208.4 0l-21.7-18.3v18.3h-7.63V2.86h6.48L254.6 21V2.86h7.63v30.9H256zm47.3-21a31.93 31.93 0 0 0-14.7-3.64c-7.28 0-12.7 3.76-12.7 9s5.52 9.16 12.6 9.16a28.79 28.79 0 0 0 15.1-4.15v7.66a35.36 35.36 0 0 1-15.5 3.51c-12.3 0-22.1-6.32-22.1-16.1s9.93-15.9 22.1-15.9a40.22 40.22 0 0 1 15.2 2.84zm-196.4 21V2.86h30.2V9.5H116v7.7h20.6v6.64H116v10h-9.1zm201.8 0V2.86H340V9.5h-22.3v5.36h21.9v6.65h-21.9v5.68h22.2v6.64h-31.2zm-140.2-11.6l12.4 11.6h-9.64a6.26 6.26 0 0 1-4.66-1.75l-8.49-8.23a1 1 0 0 0-.73-.25h-5.78v10.2h-9V2.86h19.5c10.1 0 14.4 4.56 14.4 9.61.24 5.84-5.06 8.64-8 9.74zm-7.2-5.2c3.57 0 5.3-1.82 5.3-3.86s-1.53-3.74-5.3-3.74h-9.61V17zm-70.4 5.2l12.4 11.6h-9.64A6.25 6.25 0 0 1 89 32.06l-8.49-8.23a1 1 0 0 0-.73-.25h-5.72v10.2H65V2.86h19.5c10.1 0 14.4 4.56 14.4 9.61.25 5.84-5.05 8.64-7.95 9.74zM83.75 17c3.57 0 5.3-1.82 5.3-3.86s-1.53-3.74-5.3-3.74h-9.61V17zm-50.3 16.8l-4-6.8h-17.3l-3.6 6.8H0L17.25 2.89h7.85l19.5 30.9H33.45zm-17.8-13.3h10l-5.23-9.45zM214 33.81L210.09 27h-16.8l-3.48 6.8h-8.4l16.8-30.9h7.63l19 30.9zm-17.4-13.3h9.83l-5.11-9.45z" fill="#002157"/></svg>