<svg data-name="Слой 1" xmlns="http://www.w3.org/2000/svg" width="1000" height="227"><g data-name="#11185eff" fill="#11185e"><path d="M157.77 0h40.29c-.33 13.37-.11 26.75-.19 40.13-13.38 0-26.77 0-40.16-.08-.06-13.35.07-26.7.06-40.05zM329.18 0h82.92c19.2 1.27 39.69 4.28 55.14 16.74a45.79 45.79 0 0 1 16.33 33.16c1.25 14.72-2.78 30.58-13.71 41-8.33 8.08-19.18 12.85-30 16.52 10.7 2.87 21.47 6.54 30.37 13.34A44.76 44.76 0 0 1 485 140c4.36 10.76 4.87 22.77 2.91 34.13a54.26 54.26 0 0 1-25.45 36.29C445 221.07 424.09 223.8 404 223.6h-74.9c-.07-74.53.09-149.07 0-223.6m42.11 33.08c.11 19.36 0 38.73.06 58.09q16.81.1 33.65-.14c9.82-.43 20.14-2.7 27.78-9.27 11.45-9.57 12.87-29.15 2.21-39.83-6.88-6.57-16.76-8.56-26-8.85-12.58-.23-25.15.06-37.73 0m.07 157.58c10.85 0 21.72.12 32.58-.17 11.31-.65 23.27-3 32.2-10.42 13.62-12 12.58-36.34-1.69-47.45-8.68-6.56-19.84-8.56-30.47-8.91-10.86-.13-21.73.05-32.6-.09-.1 22.38.18 44.69.09 67.04zM650.3 0h40.23v223.59h-40.28q.14-111.8.05-223.59zM725.18 0h40.23c0 18.49-.07 37 .08 55.47 10.07-.05 20.14-.2 30.21-.13v30.45h-30.28c0 29.71-.07 59.43.06 89.14.07 6.44.78 14 6.37 18.2 7.38 5 16.83 3.6 25.14 2.41v30.57c-3.49.24-7 .59-10.45.87H769.8c-12.31-1-25.55-4.1-34-13.74-8.92-10.12-10.29-24.26-10.53-37.17-.12-30.09 0-60.19-.11-90.28h-24.87V55.52c8.31-.51 16.65.09 25-.28q-.09-27.62-.11-55.24zM811.35 0h39.94v40.12h-40c-.03-13.37.03-26.75.06-40.12zM10.35 69.26C32.56 55.74 59.16 50.35 85 52c14.62.81 30.26 4.34 40.86 15.14C136 77.64 138.69 92.94 139 107q.06 58.28.07 116.56h-32.45c-1.49-5.84-2.94-11.69-4.43-17.53C90.25 217 75.39 225.28 59.11 227H45c-12.89-1.32-25.85-6.6-34.4-16.61A45.83 45.83 0 0 1 0 185.08V176c.94-11.69 6.22-23.14 15.35-30.67 9.73-8.5 22-13.08 34.15-17l43.94-14.83c2.1-.86 5.25-1.66 5.33-4.45.28-6.73 1.23-14.69-3.79-20-6.13-6.4-15.61-7.15-24-7.36-22.17-.08-42.69 10.31-60.62 22.58v-35m81.36 72.42q-15.92 5.49-31.65 11.47c-6.85 2.81-13.84 7-17.15 13.89-3.36 7.74-3.16 17.84 2.78 24.3 5.81 5.93 14.91 7.75 22.85 6 11.77-2.47 22.31-9.5 30.34-18.27.17-13.6 0-27.21.09-40.82a41.72 41.72 0 0 1-7.27 3.42zM292.4 54.5a48.71 48.71 0 0 1 26.07-1.75q0 18.94-.06 37.89a55 55 0 0 0-36.59 7.12C267.08 106 256 121.79 255.73 139c-.14 28.2-.06 56.4-.09 84.61-13.41 0-26.82.08-40.22-.08v-168q19.53-.2 39.05-.06V86.2C264 72.62 276.35 60 292.4 54.5zM505.89 69.27C525.63 57.16 549 51.64 572 51.72c15.24.13 31.48 1.94 44.24 11 10.13 7.11 15.64 19.12 17.33 31.11 1.84 12.64 1 25.45 1.18 38.17v91.59c-10.9 0-21.8.06-32.69-.07-1.49-5.81-2.88-11.64-4.33-17.45-12 10.86-26.9 19.27-43.24 20.92h-14a55.65 55.65 0 0 1-25.64-8.89 42.94 42.94 0 0 1-18.32-27.27c-2.29-11.71-1-24.55 5.29-34.88 7.29-12 20.08-19.3 32.91-24.05 18.32-6.53 36.87-12.43 55.24-18.8 1.82-.68 4.19-1.75 4.17-4.05.25-5.12.64-10.44-1-15.39-1.8-5.28-7-8.5-12-10.11-6.84-2.06-14.13-2.11-21.2-1.6-19.82 1.78-37.92 11.28-54.1 22.32v-35m72.85 75.39c-8.07 2.92-16.17 5.76-24.16 8.9-7 3-14.13 7.73-16.87 15.22-2.41 7.1-2.1 15.75 2.84 21.73 5.41 6.36 14.54 8.47 22.53 7 12.2-2.14 22.78-9.56 31.27-18.28-.14-13.64 0-27.29.09-40.93-4.85 2.91-10.39 4.41-15.65 6.36zM889.94 71.87c13.2-12.32 31.15-18.69 49-19.82 19.75-1.35 40.32 1.84 57.53 12.06 0 12.19.06 24.38-.08 36.57-6.26-5-12.75-9.89-20.27-12.85A60 60 0 0 0 939 85.08c-12.09 3.14-22.27 12-27.73 23.19-8.25 16.47-8.78 36.1-3.8 53.62 3.52 12.31 11.25 24.17 23.2 29.63 13.89 6.23 30.1 5.17 44.23.28 9.17-3 17.07-8.65 25.14-13.77v32.11c1 3.22-1.69 4.08-3.62 5.21a112.83 112.83 0 0 1-42 11.65h-17.23c-15.52-1.2-31-6-43.28-15.85-14.78-11.5-23.76-29.09-27.66-47.14a117.54 117.54 0 0 1 .3-50.13c3.67-15.79 11.35-30.96 23.39-42.01zM157.71 55.6c13.41-.5 26.82-.19 40.23 0-.12 56 0 112-.07 168.05h-40.11c.05-56.06-.09-112.06-.05-168.05zM811.23 55.57c13.37-.43 26.75-.16 40.12 0 0 56 .06 112 0 168-13.34 0-26.67.08-40-.06q-.03-83.96-.12-167.94z"/></g></svg>