<svg xmlns="http://www.w3.org/2000/svg" xmlns:xlink="http://www.w3.org/1999/xlink" width="142.28" height="51.44"><defs><linearGradient id="a"><stop offset="0" stop-color="#8f969c"/><stop offset=".18" stop-color="#44494d" stop-opacity=".98"/><stop offset=".27" stop-color="#44494d" stop-opacity=".96"/><stop offset=".5" stop-color="#e4e5e7"/><stop offset="1" stop-color="#8f969c"/></linearGradient><linearGradient xlink:href="#a" id="b" gradientUnits="userSpaceOnUse" x1="74.09" y1="98.06" x2="102" y2="70.04"/></defs><path d="M100.74 50.3a4.04 4.04 0 0 1-2.86 1.14c-.86 0-1.51-.2-1.97-.62a2.08 2.08 0 0 1-.7-1.6 2.13 2.13 0 0 1 .95-1.81c.28-.19.6-.33.95-.43.26-.07.65-.14 1.17-.2 1.06-.13 1.85-.28 2.35-.45v-.35c0-.54-.12-.91-.36-1.13-.34-.3-.84-.45-1.5-.45-.63 0-1.09.11-1.38.33-.3.21-.51.6-.66 1.15l-1.28-.18c.11-.55.3-1 .57-1.33.27-.34.66-.6 1.17-.78a5 5 0 0 1 1.76-.28c.67 0 1.2.08 1.62.23.42.16.72.36.92.6.2.23.33.53.4.89.05.22.07.63.07 1.22V48c0 1.23.03 2 .08 2.33a3 3 0 0 0 .34.93H101a2.8 2.8 0 0 1-.26-.96m-.1-2.94c-.49.2-1.2.36-2.16.5-.54.08-.93.16-1.15.26a1.14 1.14 0 0 0-.7 1.06c0 .35.13.64.39.87.27.24.66.36 1.17.36.51 0 .96-.11 1.36-.33.4-.23.68-.53.87-.92.14-.3.21-.74.21-1.32v-.48m3.39-5.32v-1.51h1.32v1.51h-1.32m0 9.22v-7.78h1.32v7.78h-1.32m3.32 0v-7.78h1.19v1.18c.3-.55.58-.91.83-1.09.26-.17.54-.26.85-.26.45 0 .9.14 1.36.42l-.46 1.23a1.89 1.89 0 0 0-.96-.29c-.3 0-.55.09-.78.26-.23.18-.4.41-.5.72-.14.47-.21.98-.21 1.54v4.07h-1.32m5 0V40.53h1.31v10.73h-1.31m3.37-9.22v-1.51h1.32v1.51h-1.32m0 9.22v-7.78h1.32v7.78h-1.32m3.34 0v-7.78h1.18v1.11a2.8 2.8 0 0 1 2.48-1.28c.47 0 .9.08 1.29.25.4.17.69.4.88.66.2.28.33.6.41.98.05.24.08.67.08 1.28v4.78h-1.32v-4.73c0-.54-.05-.94-.16-1.2-.1-.27-.28-.48-.55-.64a1.7 1.7 0 0 0-.91-.24c-.56 0-1.05.18-1.46.54-.4.35-.6 1.03-.6 2.02v4.25h-1.32m13.67-2.5l1.36.17a3.24 3.24 0 0 1-3.42 2.51 3.58 3.58 0 0 1-2.7-1.05 4.1 4.1 0 0 1-1-2.95c0-1.3.33-2.32 1-3.05a3.42 3.42 0 0 1 2.63-1.08c1.04 0 1.89.35 2.55 1.06.66.7.99 1.7.99 2.99l-.01.35h-5.8c.05.86.29 1.5.72 1.96.44.46.98.68 1.63.68.48 0 .9-.12 1.24-.38.34-.25.61-.66.81-1.21m-4.33-2.13h4.34a2.64 2.64 0 0 0-.5-1.48c-.41-.5-.96-.76-1.63-.76-.6 0-1.11.2-1.53.61-.4.4-.63.95-.68 1.63m6.83 2.31l1.3-.2c.07.52.28.92.6 1.2.35.28.81.41 1.42.41.6 0 1.05-.12 1.34-.36.3-.25.44-.54.44-.87a.8.8 0 0 0-.39-.7 5.72 5.72 0 0 0-1.34-.45 12.8 12.8 0 0 1-2.02-.63 2 2 0 0 1-.85-.74 2 2 0 0 1-.28-1.05 2 2 0 0 1 .23-.96c.16-.3.38-.54.65-.74a3.94 3.94 0 0 1 1.98-.54c.61 0 1.15.09 1.6.26.47.18.81.42 1.03.72.22.3.37.7.45 1.2l-1.28.18a1.4 1.4 0 0 0-.52-.94 1.85 1.85 0 0 0-1.18-.34c-.6 0-1.04.1-1.3.3-.26.2-.39.44-.39.7 0 .18.06.33.16.47.11.14.28.26.5.35l1.17.34c.94.25 1.58.45 1.95.61a2 2 0 0 1 .87.69 2.19 2.19 0 0 1-.07 2.37 2.5 2.5 0 0 1-1.1.9c-.49.21-1.04.32-1.65.32a3.67 3.67 0 0 1-2.31-.63 2.94 2.94 0 0 1-1.01-1.87" font-size="40" font-weight="400" letter-spacing="0" word-spacing="0" fill="#8f969c" font-family="Arial"/><path transform="translate(-65.32 -60.9)" d="M65.32 97.21h7.56c7.24-15.15 20.24-18.63 29.69-20.38-24.7.35-31.42 11.57-37.25 20.38z" fill="url(#b)"/><path d="M52.82 7.5c-2.43-3.72-6.66-3.77-9.3-2.72-3.34 1.32-3.65 5.89-2.01 7.77.83 1.5 11.03 4.93 13.1 7 7.1 7.09 1.64 15.15-4.34 16.7-6.12 1.6-14.55.01-17.02-6.3L37.18 28m0 0c7.36 10.71 20.75 1.53 13.63-5.67-1-1.1-11.19-5.3-12.53-6.34-3.1-2.54-2.98-7.63-1.25-10.53 3.43-5.95 12.85-6.76 18.54.09l-2.75 1.93m18.81-2.53V36.3h-4.65V4.95h-9V1.2h22.8v3.75h-9.15M83.62 1.2v35.09h4.37V5.26h8.16c4.57.1 6.8 4.19 6.81 7.3 0 3.3-3.32 6.27-6.62 6.2h-4.91l.31.6 10.63 16.8.31.13h4.94l-.28-.44-8.38-12.97c4.6-.95 8.67-5.18 8.66-9.81-.01-5.08-3.66-11.72-11.13-11.84l-.34-.04zm53.41 35.1l-4.35-9.75h-14.7l-4.35 9.75h-4.8L125.48 0l16.8 36.3h-5.25zm-11.55-25.65l-5.7 12h10.95l-5.25-12m-99.15 9.6l-4.35 2.1 6.3 13.95h5.25l-7.2-16.05zM17.03 0h-.3L7.58 19.65h5.1l4.05-9 3.15 6.6 4.35-1.5L17.03 0" fill="#002e5e"/></svg>