<svg xmlns="http://www.w3.org/2000/svg" viewBox="0 0 55.21 13.14"><path fill="#da291c" d="M15.76 10.48h-1.72V4.16h1.72v5.71zm-.86-7.02a.96.96 0 01-.98-.96c0-.52.44-.95.98-.95.55 0 .99.42.99.95s-.44.96-1 .96m17.91 7.15c-.97 0-1.78-.33-2.33-.97a3.45 3.45 0 01-.79-2.28c0-.93.33-1.78.93-2.4a3.6 3.6 0 014.18-.47l-.06 1.4a2.67 2.67 0 00-1.6-.52c-1 0-1.73.8-1.73 1.9 0 .9.45 1.93 1.72 1.93a3 3 0 001.5-.46l.44 1.22a4.4 4.4 0 01-2.27.65M8.3 10.48H6.48l-.85-2.15H2.67l-.8 2.15H.13l3.4-8.78h1.25zm-5.1-3.6h1.88l-.66-1.86c-.1-.29-.19-.56-.25-.8-.06.22-.15.47-.26.77zm10.32-2.72h-1.71l-1.53 4.1-1.5-4.1H7.05L9.36 9.8c.17.44.44.7.94.7h.6zm5.18 6.45c-1.23 0-2.1-.85-2.1-2.06 0-1.27.97-2.04 2.66-2.1l1.02-.03v-.08c0-.8-.62-.97-1.14-.97a3 3 0 00-1.57.49l-.58-1.11a4.52 4.52 0 012.5-.73c1.7 0 2.53.76 2.53 2.32v2.88c0 .56.05.93.15 1.26h-.99c-.42 0-.59-.17-.71-.5-.5.42-1.09.63-1.77.63m1.58-2.96l-.8.03c-1.04.03-1.16.45-1.16.76 0 .49.35.78.93.78.4 0 .76-.12 1.03-.35zm17.25 2.96c-1.24 0-2.1-.85-2.1-2.06 0-1.27.97-2.04 2.66-2.1l1.02-.03v-.08c0-.8-.62-.97-1.14-.97a3 3 0 00-1.58.49l-.58-1.11a4.52 4.52 0 012.51-.73c1.7 0 2.53.76 2.53 2.32v2.88c0 .56.05.93.14 1.26h-.98c-.43 0-.59-.17-.72-.5-.5.42-1.08.63-1.76.63m1.58-2.96l-.81.03c-1.04.03-1.15.45-1.15.76 0 .49.34.78.92.78.41 0 .76-.12 1.04-.35zm-10.19 2.83H27.2v-3.7c0-.88-.26-1.27-.84-1.27-.45 0-.93.2-1.49.62v4.35h-1.71V4.16h.65c.5 0 .82.2.96.59v.03a3.5 3.5 0 012.13-.76c.97 0 2.02.6 2.02 2.3zm23.64-.18c-.2-.66-.87-1.16-3.21-1.34.37.43.76.85 1.18 1.23h1.18c.5 0 .71.05.85.1m-8.97-6.74c-.11 2.53 1.24 5.08 5.71 5.4h.05A21.07 21.07 0 0144.93.14s-1.24 1.1-1.34 3.42m6.94 6.64h-4.8c.06.15.28.25.78.28 3 .18 3.42 2.53 7.71 2.53.38 0 .62-.02.85-.07-1.7-.52-3.22-1.5-4.54-2.75"/></svg>