<svg xmlns="http://www.w3.org/2000/svg" width="353.08" height="56.14"><path d="M201.9 56.13h-8.23V19.5h8.22v36.64zM167.89 29.68a17.74 17.74 0 0 0-4.74-6.08 17.49 17.49 0 0 0-11.41-4.17c-3.68 0-7.15 1.25-10.42 3.76V11.7h-8.22V34.4c0 3.24.12 5.58.37 7.03a16.7 16.7 0 0 0 6.46 10.83 18.33 18.33 0 0 0 19.41 2c3.11-1.5 5.6-3.68 7.49-6.58a17.82 17.82 0 0 0 2.98-9.93c0-2.75-.64-5.44-1.92-8.06zm-9.12 15.17a10.18 10.18 0 0 1-7.64 3.23c-2.45 0-4.64-.8-6.54-2.41-2.37-2.04-3.56-4.77-3.56-8.17 0-2.6.84-4.82 2.53-6.67a9.9 9.9 0 0 1 7.7-3.35c2.8.05 5.14.94 7.02 2.66a9.94 9.94 0 0 1 3.31 7.6c0 2.8-.94 5.18-2.82 7.11zM25.18 45.42a10.04 10.04 0 0 1-6.82 2.66 10.04 10.04 0 0 1-6.83-2.66 9.86 9.86 0 0 1-3.31-7.6c0-2.8.94-5.17 2.82-7.11 2-2.08 4.44-3.14 7.31-3.22 2.88.08 5.32 1.15 7.32 3.22.9.92 1.57 1.94 2.04 3.06h8.54a18.13 18.13 0 0 0-2.52-5.88 18.18 18.18 0 0 0-7.49-6.58 18.11 18.11 0 0 0-7.88-1.88c-2.75.03-5.38.65-7.9 1.88-3.1 1.5-5.6 3.69-7.48 6.58a17.97 17.97 0 0 0-1.06 17.99 17.83 17.83 0 0 0 4.75 6.05 17.37 17.37 0 0 0 11.4 4.2H18.65c4.22 0 8.02-1.4 11.4-4.2a17.8 17.8 0 0 0 4.74-6.06 18.5 18.5 0 0 0 1.46-4.06h-8.5a9.96 9.96 0 0 1-2.57 3.61zM187.8 19.43a15.45 15.45 0 0 0-11.8 5.48c-2.21 2.72-3.32 6.24-3.32 10.55v20.67h8.22V37.78c0-3.49.45-5.94 1.35-7.35a6.07 6.07 0 0 1 2.35-2.13 6.71 6.71 0 0 1 3.2-.82h3.37v-8.05h-3.36zM74.25 34.14c-.76-4.5-2.91-8.1-6.46-10.83a18.34 18.34 0 0 0-19.42-2c-3.1 1.5-5.6 3.7-7.47 6.58a17.83 17.83 0 0 0-1.07 17.99 17.8 17.8 0 0 0 4.74 6.05 17.38 17.38 0 0 0 11.41 4.21c3.68 0 7.15-1.25 10.42-3.76v3.75h8.22V41.18c0-3.25-.12-5.59-.37-7.04zm-10.1 10.64a9.96 9.96 0 0 1-7.68 3.3c-2.75 0-5.1-.88-7.03-2.65a9.87 9.87 0 0 1-3.31-7.6c0-2.8.94-5.18 2.82-7.12a10.2 10.2 0 0 1 7.65-3.23c2.53.06 4.71.86 6.54 2.42a10.33 10.33 0 0 1 3.55 8.17c0 2.6-.85 4.82-2.53 6.7zM85.52 55.65V37.79c0-3.5.45-5.95 1.35-7.36a6.75 6.75 0 0 1 5.56-2.95 6.6 6.6 0 0 1 3.21.84 5.86 5.86 0 0 1 2.31 2.15c.87 1.55 1.3 4.19 1.3 7.89v17.77h8.23V37.8c0-3.5.45-5.95 1.35-7.36a6.75 6.75 0 0 1 5.56-2.95c1.11 0 2.18.28 3.2.84a5.85 5.85 0 0 1 2.31 2.15c.88 1.55 1.31 4.19 1.31 7.89v17.77h8.22V36c0-2.7-.25-4.87-.73-6.5a13.1 13.1 0 0 0-2.66-4.7 14.5 14.5 0 0 0-11.65-5.36 15.44 15.44 0 0 0-11 4.6 14.47 14.47 0 0 0-10.96-4.6 15.42 15.42 0 0 0-11.81 5.48c-2.2 2.73-3.31 6.24-3.31 10.55v20.67h8.21v-.48zM242.1 34.14c-.77-4.5-2.92-8.1-6.47-10.83a18.36 18.36 0 0 0-19.42-2c-3.1 1.5-5.6 3.7-7.48 6.58a17.96 17.96 0 0 0-1.06 17.99 17.86 17.86 0 0 0 4.74 6.05 17.38 17.38 0 0 0 11.4 4.21c3.69 0 7.16-1.25 10.43-3.76v3.76h8.22V41.18c0-3.25-.12-5.59-.37-7.04zM232 44.78a9.95 9.95 0 0 1-7.7 3.3c-2.75 0-5.09-.88-7.02-2.65a9.86 9.86 0 0 1-3.32-7.6c0-2.8.94-5.18 2.82-7.12a10.2 10.2 0 0 1 7.65-3.23c2.53.06 4.71.86 6.54 2.42a10.33 10.33 0 0 1 3.56 8.17c0 2.6-.85 4.82-2.54 6.7zM275.15 29.48c-.49-1.63-1.38-3.2-2.65-4.7-3-3.56-6.89-5.35-11.66-5.35a15.44 15.44 0 0 0-11.81 5.48c-2.2 2.72-3.31 6.24-3.31 10.55v20.68h8.21V37.78c0-3.49.46-5.94 1.36-7.35a6.06 6.06 0 0 1 2.34-2.13 6.7 6.7 0 0 1 6.42.02 5.9 5.9 0 0 1 2.31 2.15c.87 1.55 1.31 4.18 1.31 7.9v17.77h8.22V35.98c0-2.7-.25-4.86-.74-6.5z"/><g><circle cx="325.04" cy="28.03" r="28.03"/><g fill="#EF3D23"><path d="M337.4 24.86l-12.32-3.93c-.26.93-.58 1.86-.98 2.8l8.65 4.88a48.66 48.66 0 0 0 4.65-3.75zM331.31 29.58l-7.85-4.43c-.5 1-1.08 1.99-1.75 2.96l4.97 4.2c1.6-.83 3.15-1.74 4.63-2.73zM347.24 12.1l-21.3 3.8c-.06 1.1-.21 2.3-.48 3.52l13.22 4.22a46.47 46.47 0 0 0 8.56-11.55z"/></g><path fill="#EF3D23" d="M343.31 41.74l-23.15-6.55a56.77 56.77 0 0 0 5-2.12l-4.38-3.71a23.42 23.42 0 0 1-4.89 4.63l5.65-17.27-8.38 1.58 1.18.83-5.26.88-.3.59 1.08.33.93.6.72.9.1.16-6.02.68.18-.57-2.77 1.13 2.23.65.22-.74 6.56-.42.3.7.13.75-5.34.38-.15.73 6.28-.33.31.3-11.94 15.89h41.71zm-28.53-22.47l1.76.93-2.59.73.83-1.66z"/></g></svg>