<svg xmlns="http://www.w3.org/2000/svg" width="300" height="49"><desc>Logo of Fiji Airways</desc><g fill="#2c1e16"><path d="M25.2981 25.14461c.10634-.15882.20285-.32495.30916-.48378.06453-.09811.13458-.19494.2051-.28768.06969-.09282.17217-.18264.2112-.29278.01215-.0271.00879-.02579-.01292-.05274-.03423-.04907-.04813-.10029-.07763-.14813-.03732-.06868-.07998-.13142-.12757-.19297-.14269-.19514-.46814-.72934-.73817-1.12876-.26689-.39827-.64622-1.01396-.94211-1.41246 0 0-.11368.18637-.33543.55952-.21784.37438-.55839.8843-.76161 1.16896-.15183.22482-.39246.53909-.81127 1.09435.18264.26971.52282.97051.8187 1.39563.29181.42554.77036 1.09375 1.09026 1.53877.15888-.19595.26724-.32394.35371-.46843.0926-.1407.24942-.32313.32372-.46632.07995-.14348.1999-.32764.42156-.71781.01953-.03773.04839-.07137.07325-.10539M24.1924 33.74076c.08875-.20476.19982-.81451.2749-1.17932.07288-.36743.09642-.8304.14824-1.22311.05495-.39157-.01629-1.05346-.06143-1.34614-.04726-.29609-.13651-.6089-.23101-.83756-.09482-.23353-.20195-.4472-.36049-.60107-.06104.1573-.07717.25496-.12022.38247-.05231.14998-.06817.27994-.1285.43811-.05835.15429-.16287.52368-.20115.60806-.06235.12733-.07007.24756-.13207.48616-.05858.23651-.09041.64874-.10044.75906-.00864.11292.11078.85651.14422 1.13604.03955.28331.1761.89144.25736 1.13258.08062.2395.25164.61054.30267.74978.11938-.1165.11939-.30272.20791-.50506M20.84179 31.70438c.09774-.12652.3953-.52672.66393-.81267.27014-.28498.38636-.59684.48288-.88713.09999-.29319.22612-.82909.25047-1.11464.0266-.29263-.01592-.41901-.02443-.52055-.01855-.18628-.04246-.23359-.12102-.14966-.04915.0439-.28337.31523-.46812.5298-.18389.21383-.47992.64155-.58384.88926-.10742.25061-.28193.67164-.34001.97349-.0626.29821-.12436.74724-.1394.87726-.01424.13008 0 .32803.01695.46987.09105-.03527.16987-.13046.2626-.25505M18.93689 29.62816c.22204-.14587.51597-.29329.91071-.70721.39368-.41161.54022-.66671.75875-1.0402.21778-.37358.26537-.57803.38856-.78933.12036-.2156.13009-.26066.02935-.24321-.14288.02892-.1687.02901-.54104.24989-.3674.21971-.78168.68024-.95465.84505-.17698.16449-.5829.79022-.68822.99104-.10153.19473-.38047.7804-.47767.9094-.0992.13366.01906.10086.19684-.00146.10735-.07248.14893-.06868.37735-.21398M17.50395 27.37482c-.40216.09647-.95576.06788-1.26836.05722.10043-.13837.47198-.41255.77398-.63982.30613-.22851.75676-.3794.91128-.45647.15466-.07862.39685-.19771.58086-.23577.18382-.04456.19968-.07697.36209-.10817.18948-.03596.33325-.02131.6087-.07202.15191-.03054.22757-.02044.40841.02985.05908.01507.08446.04632.03698.0985-.03326.03809-.08757.06782-.13133.09689-.03031.02304-.05894.04543-.09441.07202-.06795.04705-.12136.10265-.19392.14683-.06752.04223-.13483.08204-.20076.12444-.17867.12079-.35731.24159-.53188.3708-.40605.29926-.86505.41796-1.26167.51571M19.78696 23.90091c-.13497-.10253-.4878-.17652-.70699-.22144-.23955-.0516-.59165-.1336-.83948-.12951-.24463.00436-.59208-.01352-.88758-.03474-.29111-.01677-.71621.02197-1.07898.1196-.36609.09892-.77543.21242-1.02727.3137-.17217.06737-.35446.12172-.5986.23577-.12989.06316-.29182.06215-.4762.16631-.18608.1048-.1711.13518-.11557.14506.05217.01119.26237.09319.41121.10509.20504.01462.65218.13261 1.15738.17052.50796.04294 1.03281.0334 1.46534.01949.43811-.01334.94836-.05725 1.62536-.29559.22221-.12086.30869-.08802.5444-.17139.24056-.08375.36871-.14547.75596-.25535-.11499-.08304-.0947-.06666-.22902-.16757M24.26311 18.36593c.04558-.11116.08046-.20231.10241-.44374.01998-.21986.07966-.46834.09717-.68763.01629-.21455.08111-.63507.08315-.83482.00349-.31325.00769-.41283.00224-.61-.00885-.23055-.03022-1.00635-.15103-1.48649-.11593-.48049-.12799-.73793-.43247-1.17512-.29052.31376-.35744.91708-.40135 1.2138-.04237.29761-.08201.79541-.09549 1.2988-.02313.69761.04616 1.53176.1283 1.86087.07929.33367.24144 1.0062.31663 1.12831.12457.19028.12412.15073.25163-.05454 0 0 .04395-.07578.09881-.20944M25.58268 19.316c-.02727-.046-.05117-.19085-.05054-.27785-.00377-.13577-.03045-.13497.03322-.36538.06527-.23024.18083-.77437.2645-1.02068.08307-.24878.29363-.71169.49632-.90207.20257-.18873.62281-.75029.94979-1.01319 0 0-.14789 1.01513-.27689 1.40569-.11841.37131-.23927.70775-.44496 1.17031-.21217.46276-.57687.83025-.82101 1.03295-.08662.03083-.12245.01708-.15044-.02979M27.43516 20.50105c.25388-.1059.62057-.39742.93955-.65221.31855-.25881.41252-.38811.60609-.62848.19187-.23968.34858-.64221.44078-.8144.09507-.17677.24071-.35134.03255-.26063-.21361.08862-.22065.12184-.5342.26341-.31623.13571-.26151.11005-.85086.60785-.5933.49664-.94778 1.15926-1.06314 1.5857 0 0 .17846.00576.4292-.10125M28.98408 21.80698c.24769-.07342.66424-.3725 1.07663-.67922.40985-.30534.62442-.61713.95481-1.05951-.12996.01078-.34686.03782-.62134.10474-.27439.06536-.42926.13751-.66461.25237-.2335.11259-.34748.2224-.65145.34707-.25787.1144-.48602.28311-.70567.45578-.09748.07901-.19372.14443-.2645.24923-.06476.10052-.11454.24031-.16477.3494-.03233.06316-.06016.13882-.06887.20813-.01251.10208.08874.07014.15924.05719.1022-.0157.20146-.05259.29834-.08086.15984-.04674.41153-.12864.65218-.20431M34.15273 23.83225c-.06047-.06193-.16307-.14783-.42308-.24079-.26565-.09268-.74243-.20374-1.01251-.27421-.27263-.07799-.55507-.11011-.86638-.13518-.31422-.02857-.48879-.03236-.91383-.05647-.23237-.01546-.64725.02582-1.01007.12422-.36434.09745-1.3792.47841-1.61889.55254-.24632.07594-.07043.18948-.00829.25962.06098.07405.33294.15924.4438.18142.10875.01875.27661.07835.50682.11781.23012.04027.83678.10588 1.55605.10355.71757-.01053 1.20832-.02639 1.80119-.08372.59285-.05736 1.24414-.26096 1.67953-.41244 0 0-.06782-.07867-.13433-.13634M32.16772 26.842c-.136-.10026-.55544-.31006-.83682-.43399-.27987-.12217-.70013-.35868-1.08802-.49873-.38763-.14323-.76862-.11984-.99313-.12414-.2205-.00391-.43437-.02818-.68081.03164 0 0 .02443.12154.20431.262.17958.14369.78102.4265 1.069.55744.28303.13217.74963.28418 1.20237.36728.44816.08023.92334.08474 1.32857.0611 0 0-.07154-.11775-.20549-.22261M29.94664 29.69494c-.18999-.29538-.3847-.6186-.79478-1.04686-.40587-.43023-.83832-.75411-1.0813-.91001-.24123-.15736-.44291-.23535-.63232-.37752-.19204-.13999-.15075-.00886.08126.38304.23207.3911.59795 1.03942.73083 1.2095.13389.16775.39407.34698.65873.50401.26934.15832.56853.3169.7002.42883.13193.10954.40129.24123.54292.29684-.0244-.13928-.06422-.25976-.20555-.48783M27.26273 30.71639c-.05826-.47685-.29534-.93693-.47265-1.13202-.18069-.19377-.08954-.12339-.30598-.41152-.21806-.28827-.47367-.63314-.71527-.8663-.14295-.13874-.16534-.19398-.16055-.04277 0 0 .00386.29457.01521.39151.03088.2898.08426.74041.38593 1.50944.30737.76879.80338 1.44906 1.27973 1.99053.11607-.35463.02369-.96114-.0264-1.43888M20.14727 22.02351c-.18571-.11199-.56765-.3797-.9887-.71379-.41777-.33462-.69316-.34677-.98346-.4433-.28891-.09396-1.03011-.22258-1.10011-.25072-.08193-.03003-.07166-.03635-.22953-.06438-.10053-.01155-.13061-.02639-.31464.00283 0 0 .06345.10895.10284.15447.04398.0483.16594.22305.31005.33125.23478.1841.52462.32982.83273.54965.31262.22351.71716.34892 1.20886.49121.49204.13823.95888.16372 1.31554.1953.29518-.01024.03198-.13891-.15357-.25254M21.18825 20.77792c-.01847-.09841-.10154-.33734-.26733-.68615-.17-.34674-.38516-.63152-.5923-.84461-.207-.21469-.28535-.30164-.35343-.37716-.06343-.07426-.25315-.22129-.34838-.28234-.09513-.06187-.32781-.26923-.57783-.37417-.25862-.10823-.35114-.18106-.71016-.31935-.35443-.13614-.27744-.00749-.21253.121.07035.13046.25474.51401.448.87096.20007.35278.29205.44975.48312.65334.18716.21126.47448.42038.71235.59681.23563.17458.50186.30514.68879.40361.18429.10139.51367.30862.74901.41552 0 0-.01467-.14885-.01933-.17748M22.07688 19.11261c-.01388-.21971-.06173-.44736-.09601-.63749-.02807-.16133-.08128-.27663-.14704-.48414-.05341-.17494-.17618-.32313-.24697-.49321-.07037-.16602-.29934-.5826-.53546-.89344-.23237-.30811-.39292-.55487-.66185-.82436 0 0-.02291.05677.00508.21894.03156.1584.10387.53338.20817.88469.10656.34424.2528.76623.4548 1.20452.20387.4353.61525 1.05309 1.00802 1.46765 0 0 .02753-.2232.01127-.44309M88.5714 3.0826l-30.51468.04821.06407 43.20816 4.15541-2.05899-.05759-36.99466 24.30975-.04098c.00024-.00239 2.04301-4.16173 2.04301-4.16173"/><path d="M88.58842 13.14915l-2.07359-4.15674-22.5456.03883.06022 35.2456 4.15486 2.05096-.01489-15.5757 16.6583-.02728-2.07246-4.15532-14.59565.02385-.00682-1.75365 14.60905-.02259 2.0513-4.1585-16.66817.02755-.01118-7.50276 20.45457-.03426h.00005l-.00002.00001h.00004zM95.72277 2.68237l.07233 43.59057 4.16104-2.05345-.06448-39.49231-4.16891-2.04485v.00003l.00002.00001zM105.79403 2.667l.06614 43.59128-4.15439-2.04231-.06342-39.48973 4.15166-2.05924h.00002-.00001zM148.41093 2.59725l.06966 43.59281 4.15495-2.05404-.06082-39.49192-4.16377-2.04685h-.00002zM158.47856 2.58155l.06934 43.59648-4.16025-2.04533-.06346-39.48968 4.1544-2.06148v.00001h-.00003zM134.0202 30.77579l-.04443-26.0999-4.16016-2.04655.04135 27.39357c.0062 4.02211-.95538 6.62705-5.26958 6.63254-2.87066.00624-4.78453-1.44267-6.7188-3.64097l-1.56596 4.28965c1.98495 1.66645 4.02053 3.51925 8.82712 3.51265 4.80302-.00794 8.90162-3.45896 8.8905-10.04123"/><path d="M139.92813 30.72083l-.0439-28.11063-4.16043 2.06091.04712 26.50284c.01076 7.38611-5.23624 11.38516-10.75629 11.3943-5.52362.00891-8.35841-2.53502-9.91685-3.97625l-4.29147 1.59606c3.12487 3.18881 7.05022 6.53999 14.09291 6.52631 7.04855-.01179 15.04572-4.66505 15.02895-15.99354M9.66578 39.74305c-.08553-.00048-3.32463.26616-3.81338.43978.21449.31409 1.09279 1.30172 1.56094 1.73805.46339.4359 1.82375 1.71503 2.29925 2.09712.06441.03743.04886.00457.10496-.20518.04987-.2118-.01664-4.07365-.15177-4.06976M14.07257 36.73832c-.2018-.16034-1.08672-1.19058-1.23741-1.35357-.14772-.16028-1.15923-1.30773-1.20912-1.3631-.05004-.05378-.14003-.23628-.21886-.34594 0 0 .1495 3.44484.19676 3.52901.04588.08167 2.18688.11261 2.89256-.05909 0 0-.21534-.25117-.42396-.4073M13.59925 45.98664s.63.34283.7486.48595c.12027.14247.60289.2766.77756.44255 0 0 .07223-.1113.15793-.27304.06795-.12621.11397-.26007.20408-.41737.06663-.12067.13866-.16745.22158-.39641.08159-.22344.32955-.75065.41391-.93349.08381-.18532 1.85026-3.63649 1.98934-3.91527.14221-.27771.70732-1.30325.86625-1.53341 0 0-.06998-.04751-.152-.10421-.08849-.05724-.5123-.29662-.63825-.37664-.12759-.07937-.05479.0168-.23526-.14724 0 0-1.51016 2.63576-1.59331 2.7961-.07824.16001-.29132.53378-.38173.72092-.09609.18742-.24803.52801-.30039.61609-.0481.08525-1.63117 2.41251-1.71537 2.53967-.12351.18736-.18974.24111-.36294.4958M11.97533 45.20099c.11162-.06495.22149-.15509.39472-.3565.17506-.20368 3.84624-6.17333 3.94679-6.28529.09722-.11068.0006-.2203-.11096-.18279-.11199.04232-4.69977.57496-4.87425.70122.04263.12655.00346.42489.04604.65877.0334.22822.36842 4.68105.43136 4.88614.10395.3137.01021.30601.16633.57845M10.2521 32.20876s-5.32469 6.13459-5.40055 6.33033c.05713-.02472-.07498.15948.12805.06567.20594-.09919 4.5234-1.14948 4.61705-1.20317.06133-.06223.6278-4.65612.65545-5.19283M3.91039 36.19509c.15041-.20834 2.70143-2.68843 2.97064-3.01351.26671-.32454 1.6621-1.64937 2.69037-2.92271-.05914-.20231-.22938-.69316-.32145-.98641-.08777-.27836-.14434-.44655-.21299-.73125 0 0-.11022.16518-.15685.24326-.04518.07101-.21201.2375-.53607.64239-.32571.40554-1.93222 2.01148-2.48448 2.6548-.55229.64332-2.8116 2.83502-3.2288 3.2702 0 0 .041.17082.11505.31552.0732.14548.29926.49207.50843.94529 0 0 .0812.15506.17934.09617 0 0 .32406-.30722.47677-.51374M1.94974 32.91441c.19857-.11598 1.06271-1.03859 1.2264-1.19729 0 0 2.49694-2.47126 3.14952-3.06347.65813-.59093 1.46782-1.5806 2.17363-2.27943 0 0-.03962-1.16592-.0065-1.4333.03479-.26806.00664-.67901.01646-.99211.00594-.31504-.00499-.32818-.06709-.39112 0 0-.15926-.08627-.35598-.17754-.19351-.09178-2.39662-1.28104-2.57523-1.35856-.1699-.0759-.70135-.25884-1.01444-.42041-.31161-.1598-3.61294-2.02978-3.9723-2.13499-.00108.11856-.07198.52703-.10341.81151-.02861.27997-.13214.62973-.14148.90174.06772.02794.66873.30761.97698.46874.31475.16091 2.6623 1.41327 3.21847 1.66223.55646.25467 2.84384 1.39583 3.23562 1.63313-.11846.05143-.55618.45488-.78304.61591-.22822.16655-1.50574 1.5626-1.92147 1.96408-.41331.40083-1.03973.97199-1.31353 1.26767-.27175.29983-2.11126 2.02757-2.26939 2.1246-.15739.09793-.32366.258-.41853.2986.01997.10921.06935.50838.10762.70957.047.20282.09439.56147.13651.68474.03822.12135.07849.38972.20577.62402.11744-.09348.28212-.20043.49539-.31833"/><path d="M.77711 24.03081c-.26779-.10014-.3651-.13963-.74555-.2435 0 0 .01428.03842-.01031.30979C0 24.36719.09047 25.70239.1229 26.09274c.03329.38967.15422 1.29982.31794 2.21868 0 0 .20798-.06835.45066-.24329.24054-.16948 1.29009-1.0091 1.73794-1.36399.44894-.35809 1.30622-1.08915 1.51127-1.2409.18903-.14428.28152-.2118.28152-.2118-.08859-.02012-.97728-.22496-1.14172-.28989-.1768-.07095-.3397-.09053-.57624-.21449-.23117-.12104-.71098-.27752-.91474-.38074-.14601-.07214-.66498-.20637-1.01246-.33552M8.89247 20.83135c-.00911-.06862.04279-.28508.0597-.47163.01654-.18252.03984-.404.15824-.70403 0 0-.10446-.04981-.2362-.09243-.10823-.03483-2.41826-.97949-3.08356-1.27146-.66833-.29379-3.37541-1.5424-3.6298-1.69223-.25214-.14799-.52422-.2364-.72826-.35417 0 0-.17036.3034-.23132.43264-.05665.12646-.18386.68397-.19942.96271 0 0 .75448.22494.80769.25234.05015.02551 6.23344 2.74666 7.06496 3.08356 0 0 .02355-.07294.01799-.1453M9.48726 17.24202c-.12079-.09247-6.17731-3.27674-6.31738-3.37013-.14094-.09268-.40086-.16386-.57533-.28702 0 0 .33036-.18076.50835-.24774.08987-.02982.28629-.09513.56363-.15396.27848-.06274 4.65173-1.06927 4.80796-1.09223.07288-.01116.13394.16954.1495.22099.01283.05441.65677 1.99751.7626 2.41554.10594.41641.63319 2.39168.6193 2.46469-.01155.07402.0328.1636-.02968.23864 0 0-.36617-.09211-.48898-.18879M5.40927 10.41941c.20827-.07154 3.71763-.72855 3.90866-.77903-.01357-.10858-.16483-.88911-.19894-1.13595-.03377-.24198-.2981-2.05461-.36802-2.27163-.05877-.16193-.06141-.21299-.13597-.25445 0 0-.10735-.00006-.17115.02725 0 0-.10217.07629-.29512.24607-.18888.16936-.8667.81741-1.29505 1.22416-.42411.40468-1.22518 1.44195-1.47662 1.77596-.2552.33119-.69802 1.04014-.91378 1.39912 0 0 .1136-.03331.23986-.09047.15186-.07259.57595-.0939.70614-.14101M13.1488 13.01372c.77778-.73587 1.43937-1.22237 1.9758-1.53054-.07373-.07689-.26071-.09788-.36742-.13175-.10796-.02916-3.49262-.36495-3.70129-.38706-.2037-.02331-.2495.00964-.40377.01101 0 0 .25309 1.25063.27188 1.51547.01573.26293.2393 2.14213.32167 2.56042.1239-.15583 1.12173-1.30683 1.90312-2.03754M16.61934 9.814c-.17383-.14814-6.04415-4.63929-6.1615-4.76937-.227-.24738-.24547-.20387-.20061.15617.04252.32349.20612 1.02119.29276 1.44551.08468.41933.34694 1.6579.45488 2.44418 0 0 .42336.05772.65125.10826.23103.0516 4.77128.85371 5.15097.85019.08639-.00023-.00454-.08355-.18775-.23493M19.95479 8.79613c-.03028-.03101-.47611-.47336-.71416-.69671-.24395-.2207-1.02216-1.00316-1.42509-1.36656-.41038-.36167-1.55029-1.36578-2.13589-1.87809-.34164-.30057-2.04046-1.94215-2.1432-2.08223 0 0-.05182.00176-.21409.15333-.1627.14751-.87481.63991-.95242.68536-.07335.04337-.08562.07214.02407.15297.10962.08187 5.4405 4.78937 5.66354 4.96467.21837.17303.64787.48395.67786.50926.05777.04802.05312.00167.17836-.03549.12421-.03474.78559-.1984 1.12821-.27388 0 0-.0546-.10101-.08722-.13304M17.11526 2.56235c.15137.1913 3.05446 3.01795 3.32655 3.28396.27477.26382 2.1685 2.18618 2.28651 2.27354.11303.08854.19874.20288.24029.23407 0 0 2.63517-.10423 2.97009-.03272.04916-.13276.23775-.45064.35919-.66805.12549-.21786 1.2209-3.50546 1.49175-4.16054.26886-.66015.82795-2.01071.94278-2.29814.11562-.28737.15445-.47515.27127-.62439 0 0-.08298-.07288-.1923-.09569-.11451-.02809-.5268-.07441-.68379-.12333-.1444-.0365-.32404-.04949-.53801-.09312 0 0-.34379.65814-.41033.83136-.06843.17616-.93184 2.16836-1.06017 2.39076-.12926.22397-1.43712 4.12755-1.63549 4.41956 0 0-.94206-1.11207-1.24959-1.42404-.3104-.31552-3.22962-3.142-3.74624-3.65858-.51876-.5192-1.12066-1.08306-1.60613-1.71145 0 0-.11154.03749-.43891.13133-.32778.09865-.82961.30985-1.05111.38501-.2184.07626-.12214.15449-.01899.27215.23195.25487.6227.52129.74254.66838"/><path d="M25.38006 0s-.23486.00857-.48974.01535c-.25646-.00224-.5916-.00033-.98947.02576-.40852.02761-1.22662.05026-1.93188.11954-.5205.05214-.85317.08011-1.552.28311 0 0 .40971.46655.56596.63084.16201.16238.80338.95024 1.35908 1.58741.56108.64006 1.2098 1.3551 1.49873 1.73882 0 0 1.31731-3.55399 1.53934-4.40081M28.45228 8.96835c.23604.0585.69598.21159.87189.26546.14769.04486.12206-.01961.21551-.22261.05003-.10685.17864-.33254.37982-.6194.20495-.2841 1.49027-2.14923 1.75795-2.44861.26772-.30024.53207-.76783.76155-1.06425.22749-.29257 1.0743-1.29099 1.21017-1.55227.06306-.117.19985-.31686.58427-.87126 0 0-.10009-.07125-.2127-.13793-.11383-.07086-.40903-.32281-.69742-.42724-.28825-.10605-.82666-.40829-1.18531-.38752 0 0-.29712.58007-.43499.80974-.13349.22598-.88409 1.38325-1.06626 1.6654-.18461.28272-2.30821 3.83552-2.42772 4.04102-.12325.20189-.34157.52678-.48872.7701 0 0 .50155.12136.73199.17936M32.02481 9.99231c.18784-.05077 3.1549-1.30579 3.40815-1.38375.25476-.07701.36981-.1707.5683-.3214.06301-.12506.15858-.28024.15633-.56699-.00125-.28907.21016-3.40577.22434-3.73138.01925-.35504.10174-.59702-.04861-.42575-.14448.16945-1.01059 1.31856-1.26981 1.6494-.2713.33056-1.43524 1.91615-1.78371 2.40354-.34748.48509-1.23358 1.89087-1.55906 2.42718 0 0 .11712-.00057.30406-.05074M36.11623 13.77106c-.00357-.12949.05904-2.58406.07523-2.90543.01863-.32119.04377-.25998-.12806-.2255-.07009.00737-.20231.05913-.36722.12411-.13151.05268-1.41146.3088-1.66071.3693-.24176.058-.72078.08886-1.03136.23827.07739.0191.46241.36638.73516.59854.2719.23293.90427.75434 1.26165 1.0773.36069.32164.82538.76975 1.0802.99546.0775.0708.04157-.14718.03513-.27207M39.53645 13.23646c.35722-.44145 1.89349-2.33223 2.13618-2.4983.24585-.16581.57939-.50607.75723-.6425.17978-.14028.28654-.23153.20167-.21258-.08327.0191-.23243.06209-.4472.09832-.21818.03836-2.43184.49718-2.779.55129-.34261.05772-.83028.10393-1.34681.26376.00635.12569-.0955 1.29409-.09606 1.58549-.00574.29489-.06845 1.17386-.06831 1.324.00097.14942-.05108.64352-.05903.81147-.01042.16855-.0313.51455-.01555.83965-.00513.05683.03698.02841.15824-.12524.09502-.16658 1.19905-1.55415 1.55867-1.99533M39.40443 19.02486c.07486-.08683.18377-.21983.30712-.34265.12654-.12252 3.78146-4.14916 3.96101-4.31368.18438-.16411.30698-.34997.35111-.41859.03026-.04005.27255-.29979.41102-.40262.13905-.10041-.03376.04295.76393-.61847-.04529-.05256-.19033-.31347-.24879-.4253-.05404-.10742-.22812-.30642-.40359-.58788-.177-.28239-.26999-.39656-.42381-.55177 0 0-.168.12617-.29999.23759-.13977.10835-1.04535 1.20317-1.19729 1.36546-.14791.16264-.33711.51338-.46945.67358-.12907.15918-1.23159 1.2808-1.49554 1.52165-.26507.24395-1.71452 1.87143-1.83755 1.98214-.12101.10608-.13278.17363-.29605.31863.06329.08563.09192.42886.13659.62176.04022.19735.19352.99985.28485 1.31.12368-.10017.37619-.28552.45645-.36949M41.63753 8.16589c-.14581-.18112-.29492-.40611-.47834-.61806-.18679-.21872-1.60994-1.80303-1.77891-2.02255-.17204-.22141-.55932-.5261-.69088-.67767-.13205-.14596-.11335-.0942-.17799-.17351-.04465-.05086-.09632-.13061-.13833-.09489-.05684.04814-.04058.13599-.05613.254-.0304.23777-.02291.33289-.08278.61081-.04879.22643-.22016 2.78568-.22828 2.99076-.00903.20643-.04231.66262-.04231.66262s3.29793-.44351 3.42317-.47175c.17731-.04212.20549-.04095.49981-.08238 0 0-.11147-.19497-.24908-.37775M41.03685 21.96915c.13435-.11053 3.34312-2.5899 3.54364-2.75416.20337-.16882.70473-.5084 1.13483-.86332.42914-.3534.82609-.63623 1.46337-1.03292 0 0-.01101-.31498-.10529-.65528-.09193-.33928-.53875-1.45652-.53875-1.45652-.00159-.00015-.26294.23849-.39805.34892-.13274.11068-4.91809 4.29318-5.30328 4.61583-.38485.31869-1.00978.89968-1.1409 1.0105-.13679.11113-.20965.14891-.18886.31141.01589.1096.01695.47211.0454.71038.02622.23645.09175.68874.05026.93281-.03683.24607-.04692.79396-.0999 1.10235.20102.05295 2.5447.95632 2.95448 1.1105.40807.15557 1.22822.46646 1.68365.63364.45897.16347 1.47713.54323 1.83698.69605.36206.14655 1.12733.47521 1.54993.62167.05068-.16724.07032-.49993.07347-.89099-.00033-.38808-.02537-.62857-.04792-.93191 0 0-.18095-.10495-.39089-.1936-.20708-.08417-1.38905-.54397-1.88306-.7042-.49517-.15628-4.52624-1.63384-4.69714-1.72524-.16826-.09354-.10729-.15178-.01251-.28929.08128-.12178.28189-.44745.47055-.59663"/><path d="M47.78143 22.77952c.01158-.20802.01084-.52935.00968-.81034-.00076-.54407-.08698-1.48983-.11082-1.93029-.00657-.08775-.01365-.39268-.00766-.61895.00471-.23043-.13357-.04924-.27596.07023-.14727.11984-3.08523 2.39858-3.1729 2.49314-.09393.09237-.34192.20147-.2908.23433.05326.03552.14629.03343.30771.08683.20002.06414 2.18241.741 2.47858.85744.29574.11238.79073.24359 1.02934.37176.01368-.17774.02461-.54741.03284-.75414M46.72633 30.29851c-.13307-.06373-.41061-.17201-.65052-.33018-.24001-.15736-.594-.35731-.86505-.5635-.27614-.20422-1.30303-.692-1.71892-.92099-.42025-.22613-2.72746-1.44255-3.02778-1.60215-.2935-.15494-.83434-.413-1.2565-.63532 0 0 .00655.31057-.00088.49956-.007.19309.00159.80165.00568.97071.00243.16894.00473.2683.10052.34248.09408.07551 4.01047 2.31032 4.30048 2.45932.28852.14721 2.44991 1.39643 2.56813 1.45476.16979-.13715.22084-.31737.34094-.50261.08252-.12652.20902-.33785.28757-.50992.07443-.17082.18382-.35382.25618-.48449 0 0-.19223-.10539-.33984-.17768M44.08596 34.23112c-.20436-.19446-3.23525-2.32322-3.78586-2.75813-.54995-.43327-1.68036-1.23952-1.75077-1.30886-.09441-.08928-.1558-.1336-.17044.0015-.01612.14223-.04265.31898-.00056.62063.03988.29908.12309 1.19771.17022 1.52403.04479.32535.10336 1.08614.12495 1.49813.02384.41382.09438 1.00703.11176 1.4832 0 0 .37895-.03105.65437-.04161.27496-.01462 4.82351-.47091 5.16903-.62281 0 0-.31354-.20117-.52266-.39608M36.8246 33.58295c-.01403-.21031-.03011-.45151-.03999-.63642-.21137.18586-.30116.3125-.46514.51882-.16246.20723-.71282.94514-1.00394 1.25376-.29.30547-.78587.78032-.98443.92295-.19612.14204-.94099.67508-1.04752.74611-.10501.07203-.06474.12652.05499.15031.12313.02164 2.75411-.19678 3.57066-.30036.07177-.26634-.06649-2.4461-.08466-2.65518M41.46449 40.54758c.32872-.3762 1.50531-1.78061 1.55013-1.85645.04575-.07739.89915-1.38028.91077-1.46401.01708-.08157.06089-.08405.04274-.18661-.27033.07963-4.95527.58006-5.60133.62806.02122.15771.12643 4.98197.19344 5.17774l.02361.07802.08726-.02764c.14683-.16835 2.466-1.96957 2.79339-2.34911M36.16383 38.34444s-.59494.04535-.86504.00636c-.26631-.03624-4.00585-.02806-4.39387.0054 0 0 .18443.18216.37585.43037.19194.25144 5.05954 4.91404 5.18534 5.08445.11825.1738.34242.16744.43032.1504.0928-.16917-.08526-.69784-.11066-.88093-.06334-.38758-.48111-4.49755-.62195-4.79606M34.2262 45.74354c.28076-.08757.39753-.18273.48295-.26134-.07542-.10288-.2201-.27015-.5839-.6825-.36314-.41067-3.82621-4.15656-4.3154-4.66341-.4888-.51165-.64603-.68247-1.03479-1.08658 0 0-.19531.07996-.42535.13338-.23512.05614-.51247.12387-.65044.16784-.14105.04212-.20632.03218-.09068.10966.11008.07695 3.17973 3.59509 3.59848 4.05117.42287.45483 1.49693 1.68703 1.64817 1.87992.14893.19105.23424.37235.47422.77023.34101-.10226.61759-.33062.89672-.41835M27.70294 43.87762c-.55197-.58036-1.05263-1.14796-1.77929-2.00967-.72823-.87072-1.28545-1.36676-2.07252-2.02494-.36998-.00525-1.90631-.03794-2.50499-.12047-.09363.14246-.15649.27482-.2164.41062-.06161.12759-1.98872 3.98879-2.13302 4.28078-.14857.29412-.68181 1.27971-.79093 1.51281-.10356.23436-.06562.04731-.29231.38439-.23074.33746-.45139.76783-.58969 1.19843.118.08743.40784.1936.63013.28797.22686.09724.77575.18652 1.00916.29161.02566-.12276 3.0782-6.24854 3.29609-6.70265.21517-.45909.37152-.51923.59435-.86709 0 0 2.55392 2.66265 2.81989 3.01446.26415.35406 1.44628 1.88099 1.8617 2.42714.41326.54356.97039 1.14694 1.34588 1.77745 0 0 .90141-.17578 1.09447-.25763.19724-.08301.652-.18461.80946-.2834-.18347-.14008-2.53028-2.74523-3.08197-3.31986"/><path d="M22.76901 48.65621s.08085-.01041.55618-.00042c.40536.00684.42653-.02191.7998-.01713.37177.00383.86344-.05979 1.41419-.18745.54746-.12715.61378-.12841 1.0358-.21607.39557-.08119.43415-.12372.31564-.29427-.12093-.17076-.39266-.53926-.64383-.87601-.253-.33447-.45163-.57448-.83194-.97376-.38599-.39907-1.15932-1.12858-1.44077-1.44303-.27338-.31453-.55308-.63047-.79573-.9277-.08854.07728-.2501.45267-.38604.67934-.13451.22834-.35766.77557-.4731 1.01611-.11184.2369-.65525 1.45891-.87214 1.87514-.21815.41205-.27216.67838-.48753 1.05112l-.01884.05642.0882.02415c.12356.00797.25525.11354.54406.12438.22386.00573.80345.13012 1.19601.10918M195.9118 46.02416l-1.74301-.90929-1.64799.91304-.03116-21.26892 1.74841.87266 1.63721-.8789.03656 21.2714-.00002.00001zM232.49908 31.26573l4.34039 14.69596 1.61908-.91767 1.61005.90901 6.19383-21.28002-1.95398.8795-1.47252-.87302-4.38504 16.08872-4.72998-16.07544-1.22366.87332-1.23592-.87117-4.66905 16.0923-4.44214-16.07669-1.46286.87699-1.95993-.87024 6.27101 21.26501 1.60158-.91928 1.62387.90833 4.27524-14.70559.00003-.00002zM270.67438 45.89671l-.0177-8.48335-7.43835-12.76578 2.36896.86801 1.35889-.87484 5.52347 9.82385 5.45065-9.84059 1.36716.86938 2.35318-.87854-7.36557 12.79187.00998 8.48463-1.84088-.91037-1.76953.91573h-.00024zM291.27234 46.17289c-4.69458.00889-9.00534-2.037-8.23764-6.75127l1.66418.82972 1.79742-.83491c-.427 2.315 1.96759 3.82928 4.7659 3.82456 3.16214-.00295 5.08377-1.32363 5.08011-3.13969-.00558-5.03281-12.80933-2.53042-12.8219-10.03312-.00842-3.79457 3.55771-5.77232 7.9097-5.77903 4.57663-.00197 8.54428 1.92283 7.62347 6.36304l-1.72391-.84105-1.84201.85242c.44815-2.20358-1.05276-3.51742-4.05298-3.50955-2.42029-.00018-4.42346 1.1624-4.42273 2.94495.00818 4.44411 12.819 2.29459 12.82968 9.79707.00885 4.17812-3.60315 6.27108-8.56952 6.27681M212.59509 38.92704c2.01761-1.08301 3.55659-3.83735 3.65042-6.70699-.01062-.09876.00786-.67035-.00244-.77302-.24722-4.13716-3.19991-6.72519-6.91011-6.71907l-7.99779.01286.03058 21.27465.00803-.00313 1.63417-.91045 1.60405.91042-.00975-6.19742 3.7464-.01657s.33841.00134.89253-.04623l4.90503 6.23985 1.32521-.91296 3.0206.91156-5.89688-7.0635-.00003-.00001-.00002.00001zm-7.99503-2.04525l-.02232-9.10206 4.64961-.00908c2.04068.00105 3.61507 1.66985 3.77916 3.74502.00542.07089.03905.19527.03882.52198-.00339.34014-.05127.65274-.05443.73074-.26683 2.49003-1.97493 4.10982-4.039 4.10866l-4.35184.00474zM176.11597 36.92237l6.31633-.00475-3.19032-8.62417-3.12601 8.62892zm4.97263-12.14381l7.99617 21.24916-2.03177-.89828-1.35358.90254-2.30049-6.20145-8.23207.00916-2.31044 6.21392-1.36392-.90424-2.02129.9106 7.92662-21.27355 1.83672.86888 1.85403-.87678h.00002l.00006.00003h-.00003l-.00003.00001zM252.35373 36.80172l6.31067-.00916-3.22391-8.61943-3.08679 8.62858v.00001h.00003zm4.97256-12.14387l7.9903 21.24862-1.95328-.90093-1.4245.90789-2.30777-6.20607-8.22664.0117-2.31033 6.21404-1.42043-.90771-1.97041.90944 7.92485-21.27388 1.86366.87314 1.83449-.87657h.00006V24.65787v-.00002z"/></g></svg>
