<svg data-name="Слой 1" xmlns="http://www.w3.org/2000/svg" width="350" height="204"><g data-name="#00a1e4ff" fill="#00a1e4"><path d="M168.52 0h11c.09 3.73.08 7.45.06 11.18h11c0 3.66 0 7.32-.08 11h-10.93V33c-3.62.23-7.24.18-10.86.15v-11h-11c-.06-3.65-.05-7.31-.06-11h11.09c-.12-3.69.21-7.44-.22-11.15zM104.94 30.91c11.06-2.66 23.2 6.54 23 18 .85 10.06-8 19.49-18 19.68C101 69.41 92.19 62.8 90.3 54c-2.77-10 4.47-21.2 14.64-23.09zM148.91 30.89c11.09-2.62 23.23 6.6 22.92 18.11.89 10.35-8.53 19.94-18.82 19.67-9.08.39-17.56-6.74-19-15.67-2.01-9.81 5.07-20.28 14.9-22.11zM192.9 30.91c10.72-2.55 22.43 6 22.84 17.11a18.92 18.92 0 0 1-10.14 18.53 19.09 19.09 0 0 1-25-27.1 18.87 18.87 0 0 1 12.3-8.54zM237 30.89c9.61-2.16 20 4.41 22.24 14a19.08 19.08 0 0 1-27.64 21.48 19.1 19.1 0 0 1 5.4-35.48zM108.47 96.38c-.28-7.64-.15-15.3-.07-22.94 44 .13 87.94 0 131.91 0v22.81c-43.95.1-87.9-.05-131.84.13zM0 115.75h33.31v31.88c11-10.54 21.77-21.33 32.78-31.87h33.57c-12.9 13.11-26.15 25.88-38.95 39.08 16.13 15.64 31.71 31.86 48 47.33.14-28.8 0-57.61.06-86.42h34v65.55c18.13-.05 36.25.06 54.37-.06.25 7.41 0 14.83.12 22.24H65.07c-10.42-10.55-21-21-31.45-31.46-.15 10.51 0 21-.09 31.52-11.19-.08-22.38 0-33.57-.05zM206.63 115.75c18.28-.06 36.56.12 54.84-.09 5.77 15.69 10.82 31.65 16.27 47.46a8.47 8.47 0 0 0 1.32-2.14c5.21-15.09 10.54-30.14 15.8-45.22H350v87.66c-11.25.14-22.51.05-33.76.05 0-20.18.1-40.37-.06-60.56-1.57.88-1.73 2.87-2.4 4.36-6.53 18.73-13.23 37.45-19.78 56.2-10.58 0-21.17.14-31.74-.07-6.63-19.17-13.49-38.25-20.18-57.39a3.38 3.38 0 0 0-1.78-2.35v59.84h-33.68q.03-43.87.01-87.75z"/></g></svg>