<svg xmlns="http://www.w3.org/2000/svg" width="276.87" height="275.44" version="1"><path fill="#2b67ac" fill-rule="evenodd" d="M141.1 0v36.56c16.1-.97 28.72-11.3 37.55-30.72A138.07 138.07 0 0 0 141.1 0zm-5.85.03c-12.64.3-25 2.24-36.81 5.81 8.7 19.12 21.05 29.44 36.8 30.7V.03zM92.85 7.7a136.16 136.16 0 0 0-31 15.53c21.87 25 46.55 38.16 73.4 39.16v-20c-18.19-1.28-32.77-13.2-42.4-34.7zm91.37 0c-9.77 21.78-24.6 33.72-43.13 34.72v20c27.14-.78 52.04-13.95 74.13-39.2a136.23 136.23 0 0 0-31-15.52zM57.06 26.59a139.43 139.43 0 0 0-15.94 13.7 140.46 140.46 0 0 0-8.15 8.93c21.91 24.44 58.91 38.65 102.28 39.34V68.22c-28.77-1-55.04-14.98-78.19-41.63zm162.97 0c-23.35 26.88-49.88 40.89-78.94 41.66v20.34c43.7-.53 80.95-14.78 103-39.37a140.84 140.84 0 0 0-8.12-8.94c-5.01-5-10.34-9.56-15.94-13.69zM29.28 53.81A136.48 136.48 0 0 0 9.22 90.06C49.1 110.92 97 114.15 135.25 114.31v-19.9c-44.62-.7-82.88-15.36-105.97-40.6zm218.53 0C224.58 79.2 186.03 93.9 141.09 94.44v19.87c38.36-.12 86.64-3.25 126.78-24.25a136.38 136.38 0 0 0-20.06-36.25zM7.31 95.66c-12.03 32.43-7.16 65.3 0 84.12 40.53-20.91 88.54-24.29 127.06-24.5v.06h8.03v-.06c38.53.2 86.6 3.58 127.16 24.5 7.16-18.82 12.03-51.69 0-84.12-40.55 20.92-88.62 24.29-127.16 24.5v-.1h-8.03v.1c-38.52-.21-86.53-3.59-127.06-24.5zm12.34 28.78h32.82c5.2 0 10.8 3.43 10.8 9.84 0 .48-.02.96-.08 1.4l7.96-11.21h16.6l13.81 18.19v-18.2h17.94l15.9 16.38v-16.4h13.25c.8 0 .66.62 0 .62-5.24 0-7.46 3.62-7.46 5.5v21.5h-9.63a8.44 8.44 0 0 1-6.28-2.84l-17.94-18.25v12.31c.1 4.9 3.54 7.6 8.78 7.6.65 0 .8 1.18 0 1.18H96.47c-3.77 0-6.05-1.55-7.07-3.06l-3.75-4.9H68.72c-1.16 0-3.44.56-3.82 2.4-.65 3.25 1.66 4.38 6.91 4.38.65 0 .8 1.21 0 1.21H51.28c.65-.75 2.15-2.93 3.1-4.06l3.77-5.31c-1.74.93-3.73 1.4-5.68 1.4l-14.94-.03c-1.16 0-3.81.53-3.81 2.41 0 3.64 1.66 4.38 6.9 4.38.65 0 .8 1.21 0 1.21H19.65v-27.65zm151.16.62h16.6l13.78 18.19v-18.19h17.06c-.08 0 9.94 12.6 9.94 12.6l9.3-12.6h23c.8 0 .66.88 0 .88-6.8 0-8 3.33-8 5.22v15.06c0 1.89 1.2 5.22 8 5.22.66 0 .8.62 0 .62h-20.24v-19.9l-14.1 19.9h-3.4l-15.78-19.53v11.31c0 3.93 3.56 7.63 8.8 7.63.66 0 .8.6 0 .6h-19.65c-3.76 0-6.08-.97-7.1-2.48l-3.71-4.9h-16.97c-1.16 0-3.62.53-3.78 2.4-.28 3.35 1.66 4.38 6.9 4.38.66 0 .8.6 0 .6H150.9c.65-.76 2.19-2.34 3.13-3.48l16.78-23.53zm-95.81 5l-5.72 8h11.78l-6.06-8zm-41.47.47v7.53h11.03c2 0 3.63-1.7 3.63-3.78a3.7 3.7 0 0 0-3.63-3.75H33.53zm141.1.13l-5.7 8h11.79l-6.1-8zm-39.38 30.43c-38.24.17-86.15 3.43-126.03 24.28a136.45 136.45 0 0 0 20.06 36.25c23.1-25.23 61.35-39.9 105.97-40.59V161.1zm5.84 0V181c44.92.54 83.42 15.21 106.66 40.56a137.63 137.63 0 0 0 20.06-36.22c-40.14-20.97-88.37-24.12-126.72-24.25zm0 25.75v20.35c29.04.77 55.54 14.73 78.88 41.56 8.9-6.55 17-14.11 24.09-22.56-22.05-24.56-59.3-38.81-102.97-39.35zm-5.84.03c-43.37.7-80.36 14.9-102.28 39.35a140 140 0 0 0 24.1 22.63c23.14-26.65 49.41-40.64 78.18-41.63v-20.34zm5.84 26.16v20c18.52 1 33.33 12.92 43.1 34.66a137.65 137.65 0 0 0 31-15.53c-22.08-25.2-46.99-38.36-74.1-39.13zm-5.84.03c-26.85 1-51.53 14.15-73.4 39.16 9.66 6.5 20.07 11.7 31 15.53 9.63-21.49 24.21-33.4 42.4-34.69v-20zm5.84 25.81v36.57a137.16 137.16 0 0 0 37.53-5.9c-8.83-19.4-21.43-29.69-37.53-30.67zm-5.84.04c-15.76 1.24-28.12 11.57-36.81 30.68a138.03 138.03 0 0 0 36.8 5.82v-36.5z"/></svg>