<svg xmlns="http://www.w3.org/2000/svg" width="125.26737" height="25.535"><defs><linearGradient id="f" x2="1" gradientTransform="scale(2.07693) rotate(85 -95.023 319.01)" gradientUnits="userSpaceOnUse"><stop offset="0" stop-opacity="0" stop-color="#fff"/><stop offset=".65" stop-opacity="0" stop-color="#fff"/><stop offset=".83644658" stop-color="#fff"/><stop offset=".95" stop-color="#fff"/><stop offset="1" stop-color="#fff"/></linearGradient><linearGradient id="d" x2="1" gradientTransform="matrix(8.70836 0 0 -8.70836 477.226 795.963)" gradientUnits="userSpaceOnUse"><stop offset="0" stop-opacity="0" stop-color="#fff"/><stop offset=".46311543" stop-color="#fff"/><stop offset=".9" stop-color="#fff"/><stop offset="1" stop-color="#fff"/></linearGradient><linearGradient id="b" x2="1" gradientTransform="matrix(9.73444 0 0 -9.73444 466.35 804.994)" gradientUnits="userSpaceOnUse"><stop offset="0" stop-opacity="0" stop-color="#fff"/><stop offset=".25" stop-opacity="0" stop-color="#fff"/><stop offset=".35313042" stop-opacity="0" stop-color="#fff"/><stop offset="1" stop-color="#fff"/></linearGradient><clipPath id="a"><path d="M-5041.36 6275.33H5953.76V-4719.79H-5041.36V6275.33z"/></clipPath><linearGradient id="j" x2="1" gradientTransform="matrix(12.16806 0 0 12.16806 267.17 -369.888)" gradientUnits="userSpaceOnUse"><stop offset="0" stop-color="#fff"/><stop offset=".43000001" stop-color="#fff"/><stop offset="1" stop-color="#a2a5a3"/></linearGradient><clipPath id="c"><path d="M-5041.36 6275.33H5953.76V-4719.79H-5041.36V6275.33z"/></clipPath><linearGradient id="i" x2="1" gradientTransform="matrix(10.88545 0 0 10.88545 280.764 -358.6)" gradientUnits="userSpaceOnUse"><stop offset="0" stop-color="#fff"/><stop offset=".9" stop-color="#a2a5a3"/><stop offset="1" stop-color="#a2a5a3"/></linearGradient><clipPath id="e"><path d="M-5041.36 6275.33H5953.76V-4719.79H-5041.36V6275.33z"/></clipPath><linearGradient id="h" x2="1" gradientTransform="rotate(-85 -57.35 -337.726) scale(2.59616)" gradientUnits="userSpaceOnUse"><stop offset="0" stop-color="#fff"/><stop offset=".65" stop-color="#fff"/><stop offset=".95" stop-color="#a2a5a3"/><stop offset="1" stop-color="#a2a5a3"/></linearGradient><linearGradient id="g" x2="1" gradientTransform="rotate(-124.4 50.98 -253.275) scale(29.72696)" gradientUnits="userSpaceOnUse"><stop offset="0" stop-opacity=".99607843" stop-color="#be0000"/><stop offset="1" stop-color="red"/></linearGradient></defs><path fill="url(#g)" d="M266.85518-378.80287h-.001l.315.825 1.3975 3.665 7.63875 20.045h25.16375l-20.16375-20.25125c-2.68625-2.6875-6.3325-4.28375-10.13125-4.28375h-4.21875z" transform="translate(-266.354 379.303)"/><path fill="#fff" d="M2.21205 4.99026c2.755 4.705 9.985 5.20125 10.77125 12.5175.0325.3.2625.54125.5625.58875 4.16625.65125 8.22375 2.36625 11.75 5.1925l.002.002c.0237.0187.0475.0275.0787.0275.0312 0 .0625-.0113.0875-.0337.05-.0487.0512-.1275.004-.1775-2.44125-2.56625-5.425-4.6175-8.77375-5.965l-1.01875-.41c-.525-.21125-.88875-.73125-.8725-1.33.0562-2.185 5.22625-1.74125 5.75-2.79125l.09-.18125c-1.06375-.91-2.32875-1.59375-3.72125-1.97625-.0125.0525-.0462.3075.23625.76875.30875.5025-.33625 1.3-1.27625.43875l-.0787-.0713c-6.985-6.4-12.22125-3.08125-14.98875-10.265l1.3975 3.665z"/><path fill="url(#h)" d="M283.02768-367.26037v1.74375c.75375-.2175 1.61125-.3525 2.33375-.50375v-.97125s-1.145.0563-1.8475-1.08875c.20875.34125-.0225.81875-.48625.82" transform="translate(-266.354 379.303)"/><path fill="url(#i)" d="M280.76393-361.05537c3.86125.7425 7.60375 2.41 10.885 5.04125-5.25-4.48625-8.45-5.17-9.92375-5.17-.58 0-.89375.10625-.96125.12875" transform="translate(-266.354 379.303)"/><path fill="url(#j)" d="M267.16893-377.97787l1.3975 3.665c2.75375 4.705 9.98375 5.20125 10.77125 12.515-.79625-9.335-4.89625-7.94-9.30125-12.1875-1.13625-.80875-2.0975-1.99375-2.8675-3.9925z" transform="translate(-266.354 379.303)"/><path fill="#323232" d="M37.71305 17.88751c2.71625 0 5.0025-1.34375 5.0025-3.1875s-2.28625-3.1875-5.0025-3.1875c-2.71625 0-5.0025 1.34375-5.0025 3.1875s2.28625 3.1875 5.0025 3.1875m-.1425 2.64375c-4.975 0-8.13375-2.58625-8.13375-5.83125 0-3.30125 3.345-5.83125 8.27625-5.83125 4.93125 0 8.27625 2.54375 8.27625 5.7025 0 1.415-.62875 2.57375-1.83 3.545h2.93l-.7 1.20125c-.44375.7575-.98625 1.21375-2.15875 1.21375h-6.66zM52.8053 16.20088h5.17375l-2.40125-4.27375c-.0563-.1-.1-.12875-.185-.12875-.0863 0-.12875.0288-.18625.12875l-2.40125 4.27375zm6.50375 2.35875h-7.8325l-1.115 1.9725h-3.245l5.43125-9.405c.42875-.74375 1.04375-1.315 2.2725-1.315h1.215c1.23 0 1.84375.57125 2.2725 1.315l5.43125 9.405h-3.315l-1.115-1.9725zM79.20368 9.81188v10.72h-2.90125l-8.51875-7.10375v7.10375h-2.9025v-10.72h1.81625c.92875 0 1.4.2425 1.92875.7l7.67625 6.39v-7.09h2.90125zM89.52218 12.22751v8.305h-2.90125v-8.305h-5.94625v-2.415h14.79375v2.415h-5.94625zM98.62618 16.20088h5.17375l-2.40125-4.27375c-.0575-.1-.1-.12875-.185-.12875-.0863 0-.12875.0288-.18625.12875l-2.40125 4.27375zm6.50375 2.35875h-7.8325l-1.115 1.9725h-3.245l5.43125-9.405c.42875-.74375 1.04375-1.315 2.2725-1.315h1.215c1.23 0 1.84375.57125 2.2725 1.315l5.43125 9.405h-3.315l-1.115-1.9725zM110.5598 19.76l-.27125-.0863.72875-2.32875c2.08625.67125 4.31625.9425 6.33125.9425 3.3025 0 4.1175-.38625 4.1175-.8 0-.17125-.115-.3-.3725-.38625-.32875-.11375-1.24375-.3-3.945-.7425-2.9875-.48625-4.33-.73-5.31625-1.1875-.98625-.45625-1.5875-1.18625-1.5875-2.2575 0-.815.40125-1.4725 1.04375-1.9875 1.14375-.88625 3.10125-1.2425 5.23125-1.2425 2.745 0 5.04625.22875 7.60375.8575l.22875.0713-.61375 2.2725c-2.85875-.615-4.445-.78625-6.6175-.815-1.53-.0138-2.5875.1-3.145.27125-.315.10125-.44375.24375-.44375.415 0 .1575.1.3.415.4.3425.115.9.24375 3.83.715 3.17375.515 4.2175.72875 5.08875 1.0725 1.18625.45625 1.90125 1.3 1.90125 2.3575 0 1.33-1.02875 2.31625-2.81625 2.85875-1.1.32875-2.5725.515-4.23.515-2.60125 0-5.375-.34375-7.16125-.915"/></svg>
