<svg xmlns="http://www.w3.org/2000/svg" width="1000" height="147.4"><path fill="#2E4BB1" d="M274.8 117.74a69.2 69.2 0 0 1-14.52 1.4c-15 0-18.27-5.15-18.27-14.99V47.47H213.9v59.96c0 26.7 15 38.89 44.97 38.89 14.53 0 28.11-2.82 44.51-6.56v-92.3H274.8v70.28zm91.36 2.8c-10.31 0-11.72-4.68-11.72-12.64V71.36h23.43V47.93h-23.43V19.36h-28.1v28.1h-14.06V70.9h14.06v38.42c0 16.86 3.27 36.54 31.38 36.54 8.44 0 15.46-1.88 23.43-4.22l-2.81-23.42c-4.22 1.4-7.97 2.34-12.18 2.34zM70.54 67.62A382.47 382.47 0 0 0 53.21 62c-16.4-4.69-21.55-7.03-21.55-14.52 0-8.44 6.09-12.65 21.08-12.19 12.18 0 22.96 3.28 33.73 7.03l6.1-27.64C79.9 10 68.2 5.77 53.66 5.77 19.94 5.77 1.2 24.97 1.2 47.93c0 17.34 7.5 28.58 24.36 35.6 4.68 1.88 10.77 3.76 16.86 5.63 18.27 5.62 23.9 8.43 23.9 15.46 0 8.43-7.03 13.12-21.55 13.12-13.12 0-25.3-3.75-37.95-9.37l-6.56 28.1c14.05 5.63 27.64 9.38 44.5 9.38 34.67 0 52.48-19.21 52.48-42.63 0-18.74-10.78-29.52-26.7-35.61zm369.17-24.83c-9.37 0-18.27 2.34-24.36 4.22V.62h-28.11v145.23h28.1V73.23c5.16-1.87 10.78-3.75 17.81-3.75 10.77 0 15 4.22 15 14.53v61.84h28.1V80.73c0-25.77-11.71-37.95-36.54-37.95zm-284.84-.47c-28.58 0-51.53 20.15-51.53 51.54 0 31.38 22.95 52.47 51.53 52.47 28.58 0 51.53-20.62 51.53-52.47S183.45 42.3 154.87 42.3zm0 75.9c-12.18 0-22.02-8.9-22.02-24.83s9.37-24.36 22.02-24.36 22.02 8.43 22.02 24.36c0 16.4-9.84 24.83-22.02 24.83zm631.05-32.33a242.4 242.4 0 0 0-13.59-4.22c-9.84-2.8-13.58-4.21-13.58-8.43 0-4.21 3.74-7.03 12.65-7.03 9.36 0 17.8 1.88 27.17 4.69l4.68-24.36c-10.3-2.34-20.14-4.22-31.39-4.22-26.7 0-41.22 13.59-41.22 32.33 0 13.12 6.56 21.55 19.67 27.17 3.75 1.4 7.97 3.28 13.12 4.68 10.3 2.82 15.46 4.22 15.46 8.9 0 4.7-6.09 6.56-14.52 6.56-10.3 0-19.68-1.87-29.52-5.62l-4.21 24.36c12.18 3.28 23.42 5.63 36.07 5.63 28.1 0 40.76-14.53 40.76-32.8-.47-12.65-5.62-22.02-21.55-27.64zM680.5 42.31c-29.52 0-50.6 20.62-50.6 53.4 0 30.46 18.27 50.6 51.07 50.6 14.52 0 26.23-4.21 38.41-9.36l-4.21-23.43c-9.37 4.22-18.74 7.5-29.99 7.5-16.86 0-23.89-7.03-24.83-17.34h63.25s.94-11.24.94-13.58c0-26.7-14.53-47.79-44.04-47.79zm-19.68 42.63c1.88-8.43 6.1-19.2 18.27-19.2 12.18 0 15.93 12.18 15.93 19.2h-34.2zm201.92 35.6c-10.3 0-11.71-4.68-11.71-12.64V71.36h23.42v-23.9h-23.42v-28.1h-28.11v28.1H808.4v23.9h14.52v38.41c0 16.87 4.21 36.55 32.32 36.55 8.44 0 15.46-1.88 23.43-4.22l-3.28-23.42c-4.69.93-8.43 1.87-12.65 1.87zm18.74-114.3c-7.03 0-12.18 5.62-12.65 12.65s5.62 12.65 12.18 12.65c7.03 0 12.65-5.62 12.65-12.65s-5.15-12.65-12.18-12.65zm0 22.95c-5.62 0-9.84-4.21-9.84-10.3 0-6.1 4.22-10.3 10.3-10.3 5.63 0 10.31 4.2 9.85 10.3-.47 6.09-4.69 10.3-10.31 10.3zm1.4-9.83c2.35-.47 3.75-1.4 3.75-3.75 0-2.34-1.87-4.22-4.68-4.22h-4.69v14.53h2.81v-6.1c.94 0 1.4.47 1.88 1.41l3.28 4.69h3.28l-2.81-4.69c-1.88-.94-2.35-1.4-2.82-1.87zm-1.87-1.4h-1.4v-4.23h1.87c1.87 0 2.34.94 2.34 1.88 0 1.87-1.4 2.34-2.81 2.34zm-277.34 29.5l-17.8 53.88-17.8-53.87H543.7l-18.27 53.87-17.8-53.87h-30.45l35.13 98.38h25.77l17.8-53.41 17.8 53.4h25.77l35.14-98.37h-30.92z"/><g transform="translate(-1.6 -8.75) scale(4.68484)"><path fill="#CCC" d="M207 10.8c-2 0-3.7.7-5 1.4-1.3-.7-2.9-1.4-5-1.4-4.1 0-6.7 2.6-6.7 7.2 0 5.5 5.3 10.9 11.7 15.3 6.4-4.3 11.7-9.7 11.7-15.3 0-4.6-2.7-7.2-6.7-7.2z"/><linearGradient id="a" x1="-86.67" x2="-71.21" y1="61.43" y2="61.43" gradientTransform="translate(596.96 -263.3) scale(4.6848)" gradientUnits="userSpaceOnUse"><stop offset="0" stop-color="#3656cc"/><stop offset=".35" stop-color="#304cb2"/><stop offset=".72" stop-color="#283b80"/></linearGradient><path fill="url(#a)" d="M190.9 18.1c0 5.6 6 10.9 11 14.4 1.5-1 3-2.2 4.4-3.4-6.7-5.6-13.1-10.7-15.3-12.5 0 .4-.1.9-.1 1.5z"/><linearGradient id="b" x1="-86.2" x2="-68.74" y1="58.82" y2="71.05" gradientTransform="translate(596.96 -263.3) scale(4.6848)" gradientUnits="userSpaceOnUse"><stop offset=".3" stop-color="#e61c23"/><stop offset=".8" stop-color="#c3161c"/></linearGradient><path fill="url(#b)" d="M212.6 20.7c-4.9-4-7.8-6.1-11-8-.9-.5-2.6-1.3-4.5-1.3-1.8 0-3.4.6-4.5 1.7-.7.7-1.2 1.6-1.4 2.7 2.5 1.8 9.4 6.7 16.3 12.2 2.3-2.2 4.2-4.7 5.1-7.3z"/><linearGradient id="c" x1="-83.89" x2="-73.9" y1="58.48" y2="65.47" gradientTransform="translate(596.96 -263.3) scale(4.6848)" gradientUnits="userSpaceOnUse"><stop offset="0" stop-color="#fdbc11"/><stop offset=".25" stop-color="#fcb415"/><stop offset=".8" stop-color="#f89e1c"/></linearGradient><path fill="url(#c)" d="M211.3 13.1a6.03 6.03 0 0 0-4.4-1.7c-1.9 0-3.3.6-4.4 1.2 1.9 1.1 6 3.4 10.3 6.6.1-.4.1-.9.1-1.3.1-2-.5-3.7-1.6-4.8z"/></g></svg>