<svg xmlns="http://www.w3.org/2000/svg" width="124" height="28"><defs><linearGradient id="a" x1="28.9%" x2="71.1%" y1="-100.18%" y2="200.19%"><stop offset="0%" stop-color="#396"/><stop offset="100%" stop-color="#004F32"/><stop offset="100%" stop-color="#004F32"/></linearGradient></defs><g fill="none" fill-rule="evenodd"><path fill="#000" d="M61.93 22.8a.6.6 0 0 0-.4.17l-4.01 3.83c-1.48 1.42-3.44.83-3.65.76l-17.14-4.68c-3.27-.98-3.92-2.05-4.42-3.34 0 0-.29-.8-1-1.01l-20.94-6.15c-.86-.27-1.33-.5-1.66-1.16L7.55 9.2c-.25-.48-.71-.53-.74-.54-1.58-.21-2.05-1.1-2.24-1.47l-.94-1.64c-.3-.5-.7-.55-.72-.55-.9-.06-1.33-.29-1.7-.9L.29 2.56C-.16 1.73-.01 1.14.2.8.64.07 1.44 0 1.76 0h50.08a4.6 4.6 0 0 1 3.4 1.28c.61.6 1.03 1.4 1.25 2.35 0 .02.06.22.5.22h9.89c.43 0 .49-.2.49-.22.22-.95.64-1.74 1.24-2.35.85-.85 2-1.28 3.41-1.28h50.08c.32.01 1.12.07 1.56.79.2.35.36.94-.09 1.77l-.92 1.53c-.37.61-.8.84-1.7.9-.01 0-.43.04-.72.55l-.94 1.64c-.2.38-.66 1.26-2.24 1.47a1 1 0 0 0-.74.54l-1.16 2.03c-.33.65-.8.9-1.66 1.16l-20.94 6.15c-.71.2-1 1.01-1 1.01-.5 1.3-1.15 2.36-4.42 3.34l-17.14 4.68c-.2.07-2.17.66-3.65-.76 0 0-4-3.83-4.02-3.83a.6.6 0 0 0-.39-.18z"/><path fill="#FFF" d="M68.28 3.83a3.8 3.8 0 0 1 1-1.9c.66-.66 1.58-1 2.74-1h23a4.9 4.9 0 0 0-1.23 1.4c-.26.5-.6 1.08-1 1.73H68.2a1 1 0 0 0 .09-.23zm54.47-1.71l-.9 1.5c-.17.27-.27.4-.96.44H93.65c.3-.52.56-.98.78-1.4 0 0 .97-1.73 2.69-1.73h24.96c.26.01.6.04.78.34.02.04.07.12.07.27 0 .14-.04.32-.18.58zm-3.33 2.96l-.95 1.67c-.13.25-.33.63-.97.85a7.2 7.2 0 0 1-1.95 0L92.37 6.06c.3-.44.58-.87.83-1.28h26.42a2.4 2.4 0 0 0-.2.3zm-3.94 3.68l-1.1 1.94c-.05.06-.31.35-1.16.24l-22.2-2.98.86-1.18 23.59 1.57.27.02c-.1.12-.18.24-.26.39zm-7.64 4.3c-.83.23-2.47-.02-3.04-.14L89.54 9.78c.34-.39.66-.78.96-1.16l22.3 3-4.96 1.45zm-7.56 2.23c-1.07.28-2.47-.18-2.49-.18h-.01v-.01l-10.22-3.15c.5-.52.99-1.03 1.44-1.54l15.66 3.22c.03 0 .35.07.8.13l-5.18 1.53zm-7.98 2.34c-.72.2-1.8-.22-2.15-.4l-5.54-2.6c.85-.68 1.63-1.39 2.37-2.1l10.59 3.27c.02 0 .21.07.5.13l-5.77 1.7zm-1.63 1.6c-.31.79-.64 1.6-2.8 2.42-.9.28-1.97-.51-1.98-.52l-5.18-3.7c1.12-.7 2.21-1.46 3.27-2.29l5.86 2.74c.03.02.63.32 1.36.46-.35.4-.5.8-.53.89zm-8.19 3.95l-.81.23c-.7.16-1.53-.52-1.8-.8l-3-3.14a34.14 34.14 0 0 0 3.17-1.64l5.42 3.88c.02.02.33.25.79.45l-3.77 1.02zm-7.17 1.96c-.57.1-1.24-.85-1.43-1.2l-1.64-2.77c1.34-.38 2.65-.84 3.92-1.39l3.19 3.33c.03.03.38.4.89.68l-4.93 1.35zm-5.43 1.48a1.3 1.3 0 0 1-1-.12c-.6-.37-.79-1.21-.8-1.26l-.84-3.01c1.46-.2 2.89-.49 4.28-.86l1.73 2.93c.06.1.41.72.94 1.15l-4.31 1.17zm-3.52-1.1l-3.1-2.95c1.1-.04 2.19-.12 3.26-.25l.85 3.08c.02.1.2.78.67 1.32-.66-.19-.85-.38-1.68-1.2zm-4.07-3.66v-9.38h1.5l2.53 9.13a35.6 35.6 0 0 1-4.03.25zm-4.75-.25l2.53-9.13h1.5v9.38a37.9 37.9 0 0 1-4.03-.25zm-.67 4.51c-.32.32-.7.5-1.05.6.48-.54.64-1.22.67-1.32l.85-3.08c1.07.13 2.16.2 3.26.25l-3.73 3.55zm-1.09-.89c0 .01-.2.9-.81 1.27-.28.17-.6.2-1 .12l-4.3-1.17c.53-.43.88-1.05.94-1.16l1.72-2.92c1.4.37 2.82.66 4.28.86l-.83 3zm-7.23-.09l-4.93-1.35c.5-.29.86-.65.9-.68l3.18-3.33c1.27.54 2.58 1 3.91 1.4l-1.63 2.75c-.2.36-.86 1.3-1.43 1.21zm-6.36-1.73l-4.58-1.25c.46-.2.77-.44.8-.46l5.41-3.87A34.5 34.5 0 0 0 47 19.47l-3 3.14c-.27.28-1.11.96-1.8.8zM36 21.65c-2.16-.82-2.49-1.63-2.8-2.42a2.92 2.92 0 0 0-.53-.9 5.68 5.68 0 0 0 1.37-.45l5.85-2.74c1.05.83 2.14 1.6 3.26 2.28l-5.17 3.7c-.01.02-1.08.81-1.98.53zm-4.43-4.02l-5.78-1.7a34358.7 34358.7 0 0 0 11.1-3.4c.74.71 1.52 1.42 2.37 2.1l-5.53 2.6c-.37.18-1.44.6-2.16.4zm-7.97-2.34l-5.2-1.53c.46-.06.78-.12.81-.13l15.66-3.22c.46.51.93 1.02 1.44 1.54L26.08 15.1c-.03.01-1.42.47-2.5.19zm-7.57-2.22l-4.96-1.46 22.3-3c.3.4.62.78.95 1.17l-15.25 3.14a8.8 8.8 0 0 1-3.04.15zm-5.38-2.14c-.84.12-1.1-.16-1.16-.23l-1.1-1.95a1.92 1.92 0 0 0-.26-.38l23.86-1.59c.27.38.56.78.87 1.18l-22.21 2.97zM6.36 7.6c-.64-.22-.84-.6-.97-.85C5 6.09 4.5 5.1 4.24 4.78h26.42c.25.4.53.84.83 1.28L8.3 7.6c-.36.04-1.42.13-1.95 0zM2.98 4.06c-.64-.05-.78-.12-.98-.45l-.9-1.5a1.16 1.16 0 0 1-.17-.57c.02-.34.25-.6.85-.6h24.96c1.7 0 2.69 1.73 2.69 1.73l.79 1.4H2.98zM51.83.93c1.17 0 2.09.34 2.76 1 .48.49.81 1.13.99 1.9l.08.23h-24.6c-.37-.62-1-1.74-1-1.74-.02-.05-.44-.8-1.23-1.39h23zm35.63 4.8v-.95h4.89c-.25.4-.52.8-.81 1.23l-4.08-.27zm0 1.75v-1l3.57.24-.84 1.13-2.73-.37zm0 1.88V8.2l2.2.3c-.3.36-.6.73-.93 1.1-.57-.1-1-.2-1.27-.25zm0 .74l.72.14-.72.78v-.92zM80 12.48h5.97c-.61.6-2.05 1.78-2.1 1.82L80 12.48zm-6.2 0h4.49l4.94 2.32a35.34 35.34 0 0 1-3.17 2.16l-6.26-4.48zm-3.65 0h2.4l6.83 4.89a33 33 0 0 1-3.06 1.55l-6.17-6.44zm-3.05 0h2.05l6.46 6.74c-1.22.51-2.48.94-3.76 1.3l-4.75-8.04zm-.84 0l4.87 8.24c-1.33.35-2.7.61-4.1.8l-2.5-9.04h1.73zm-8.68 0h1.73l-2.51 9.04a35.4 35.4 0 0 1-4.09-.8l4.87-8.24zm-2.89 0h2.05L52 20.53c-1.29-.36-2.54-.8-3.76-1.31l6.46-6.74zm-3.4 0h2.4l-6.17 6.44a33.17 33.17 0 0 1-3.06-1.55l6.82-4.89zM39.96 14.3a73.71 73.71 0 0 1-2.09-1.82h5.97l-3.88 1.82zm5.6-1.82h4.48l-6.26 4.48a34.65 34.65 0 0 1-3.18-2.16l4.95-2.32zM36.4 10.1v.9c-.25-.25-.49-.5-.72-.76l.72-.14zm0-1.89v1.15l-1.27.26-.94-1.11 2.2-.3zm0-1.72v.99l-2.73.37c-.3-.38-.57-.76-.84-1.13l3.57-.23zm0-.75L32.33 6c-.3-.43-.57-.84-.82-1.23h4.89v.96z"/><path fill="url(#a)" d="M37.13 11.76V4.79h49.6v6.96h-49.6z"/><path fill="#FFF" d="M40.42 5.9h-.21l-2.12 4.74h.57l.01-.03c.18-.57.4-1.13.61-1.66l.05-.1h1.63c.23.5.45 1.07.7 1.77v.02h.8L40.42 5.9zm-.93 2.58l.66-1.56.68 1.56h-1.34zm3.2 1.82l.01.02c.25.28.82.4 1.12.4 1 0 1.7-.64 1.7-1.56 0-.76-.58-.99-1.14-1.2-.5-.2-.97-.39-.97-.95 0-.43.34-.74.8-.74.37 0 .65.2.8.55v.03h.13l.2-.6-.03-.02a1.54 1.54 0 0 0-.98-.33c-.93 0-1.52.52-1.52 1.32 0 .82.6 1.06 1.14 1.27.49.19.94.37.94.93 0 .52-.38.93-.88.93-.45 0-.75-.2-1.05-.67v-.02h-.14l-.13.64zM49.26 6h-3.49v.49h.04c.4-.05.8-.09 1.42-.09v4.26h.67V6.4c.48 0 .93.03 1.35.08h.05V6h-.04zm2.4-.1c-1.48 0-2.51 1-2.51 2.42 0 1.44 1 2.4 2.5 2.4 1.54 0 2.58-1 2.58-2.5 0-1.6-1.29-2.32-2.57-2.32zm1.24 4c-.33.34-.74.52-1.23.52-1.09 0-1.79-.8-1.79-2.02 0-1.36.71-2.2 1.85-2.2.53 0 1.04.24 1.35.63.35.44.42.9.42 1.45v.09c0 .45-.18 1.08-.6 1.53zM58.88 6h-.42v3.43L55.28 6h-.32v4.64h.46v-3.6l2.88 3.19.36.41h.26V6h-.04zm7.51 0h-.17L65.1 8.04l-.78 1.41a53.8 53.8 0 0 1-1.85-3.43L62.46 6h-.24v.04a162 162 0 0 1-.64 4.56l-.01.04h.56v-.04c0-.65.12-1.63.24-2.66l.07-.64c.08.15.96 1.8 1.3 2.5l.37.77h.12l.02-.03c.38-.89.93-1.9 1.68-3.25.11.8.25 2.4.33 3.31v.04h.71v-.04c-.16-1.13-.34-2.62-.54-4.56V6h-.04zm3.18-.1h-.2l-2.13 4.74h.58v-.03c.18-.58.4-1.13.62-1.67l.04-.1h1.64a25 25 0 0 1 .69 1.78v.02h.8L69.57 5.9zm-.93 2.58l.67-1.56.67 1.56h-1.34zm5.01-.13c.84-.17 1.34-.65 1.34-1.3 0-.7-.5-1.05-1.52-1.05H72v4.64h.67V8.42h.2l.51.6.8 1.03.42.6h.88l-1.84-2.3zm-.97-.27V6.33c.27-.02.7-.03.93 0 .47.08.7.35.7.8 0 .47-.3.81-.82.91-.3.06-.64.05-.81.04zM78.86 6h-3.5v.49h.05c.4-.05.79-.09 1.42-.09v4.26h.67V6.4c.47 0 .93.03 1.35.08h.05V6h-.04zm.59 4.64h.63V6h-.63zM84.57 6v3.43L81.38 6h-.32v4.64h.46v-3.6l2.88 3.19.35.41h.27V6h-.46z"/></g></svg>