<svg xmlns="http://www.w3.org/2000/svg" width="346" height="136"><defs><linearGradient id="a" x1="0%" y1="49.97%" y2="49.97%"><stop offset="0%" stop-color="#B0272D"/><stop offset="25%" stop-color="#AC262C"/><stop offset="49%" stop-color="#A12328"/><stop offset="72%" stop-color="#8E1F22"/><stop offset="94%" stop-color="#731919"/><stop offset="100%" stop-color="#6B1716"/></linearGradient><linearGradient id="b" x1="49.99%" x2="49.99%" y1="-4.44%" y2="98.22%"><stop offset="0%" stop-color="#F7F8FA"/><stop offset="46%" stop-color="#F5F6F8"/><stop offset="63%" stop-color="#EEF0F3"/><stop offset="75%" stop-color="#E3E5E9"/><stop offset="84%" stop-color="#D2D6DB"/><stop offset="93%" stop-color="#BCC2C8"/><stop offset="100%" stop-color="#A1AAB2"/><stop offset="100%" stop-color="#A0A9B1"/></linearGradient><linearGradient id="c" x1="35.46%" x2="61.87%" y1="53.49%" y2="35.76%"><stop offset="0%" stop-color="#ACB7CD"/><stop offset="38%" stop-color="#A0ABBD"/><stop offset="100%" stop-color="#848F9A"/></linearGradient><linearGradient id="d" x1="19.39%" x2="81.56%" y1="51.33%" y2="48.17%"><stop offset="0%" stop-color="#E1E5ED"/><stop offset="18%" stop-color="#D8DDE5"/><stop offset="47%" stop-color="#C0C6CF"/><stop offset="83%" stop-color="#98A2AC"/><stop offset="100%" stop-color="#848F9A"/></linearGradient><linearGradient id="e" x1="120.5%" x2="48.16%" y1="115.94%" y2="43.65%"><stop offset="0%" stop-color="#E1E5ED"/><stop offset="2%" stop-color="#DADFE7"/><stop offset="9%" stop-color="#BFC6CF"/><stop offset="17%" stop-color="#A9B2BB"/><stop offset="26%" stop-color="#98A2AC"/><stop offset="38%" stop-color="#8D97A2"/><stop offset="54%" stop-color="#86919C"/><stop offset="100%" stop-color="#848F9A"/></linearGradient><linearGradient id="f" x1="0%" y1="50.04%" y2="50.04%"><stop offset="0%" stop-color="#CAD1E0"/><stop offset="2%" stop-color="#C7CEDD"/><stop offset="70%" stop-color="#687686"/><stop offset="100%" stop-color="#435363"/></linearGradient><linearGradient id="g" x1="6773%" x2="9888%" y1="7588%" y2="7588%"><stop offset="0%" stop-color="#CAD1E0"/><stop offset="2%" stop-color="#C7CEDD"/><stop offset="70%" stop-color="#687686"/><stop offset="100%" stop-color="#435363"/></linearGradient><linearGradient id="h" x1="26.32%" x2="98.49%" y1="106.66%" y2="6.93%"><stop offset="0%" stop-color="#231F20"/><stop offset="35%" stop-color="#242123"/><stop offset="56%" stop-color="#28272B"/><stop offset="73%" stop-color="#2F3339"/><stop offset="88%" stop-color="#39424D"/><stop offset="100%" stop-color="#435363"/></linearGradient><linearGradient id="i" x1="0%" x2="100.02%" y1="50.15%" y2="50.15%"><stop offset="0%" stop-color="#848F9A"/><stop offset="45%" stop-color="#B5BCC6"/><stop offset="80%" stop-color="#D5DAE2"/><stop offset="100%" stop-color="#E1E5ED"/></linearGradient><linearGradient id="j" x1="0%" x2="109.95%" y1="50%" y2="50%"><stop offset="0%" stop-color="#F5F6F9"/><stop offset="33%" stop-color="#F3F4F7"/><stop offset="48%" stop-color="#ECEDF1"/><stop offset="59%" stop-color="#DFE2E6"/><stop offset="69%" stop-color="#CDD1D7"/><stop offset="77%" stop-color="#B5BBC3"/><stop offset="85%" stop-color="#98A1AB"/><stop offset="92%" stop-color="#75818D"/><stop offset="98%" stop-color="#4E5D6D"/><stop offset="100%" stop-color="#435363"/></linearGradient><linearGradient id="k" x1="50%" x2="50%" y1="100%" y2="0%"><stop offset="0%" stop-color="#0043A6"/><stop offset="33%" stop-color="#0141A3"/><stop offset="56%" stop-color="#063C9A"/><stop offset="75%" stop-color="#0D348A"/><stop offset="94%" stop-color="#172775"/><stop offset="100%" stop-color="#1C226B"/></linearGradient><linearGradient id="l" x1="-.01%" y1="49.96%" y2="49.96%"><stop offset="0%" stop-color="#7E6528"/><stop offset="22%" stop-color="#957C2E"/><stop offset="47%" stop-color="#A88E33"/><stop offset="73%" stop-color="#B39936"/><stop offset="100%" stop-color="#B79D37"/></linearGradient><linearGradient id="m" x1="62.32%" x2="21.77%" y1="82.39%" y2="-24.28%"><stop offset="0%" stop-color="#FFF"/><stop offset="16%" stop-color="#FCFCFC"/><stop offset="30%" stop-color="#F2F1F1"/><stop offset="43%" stop-color="#E0E0E0"/><stop offset="55%" stop-color="#C8C7C8"/><stop offset="67%" stop-color="#A9A8A8"/><stop offset="78%" stop-color="#838181"/><stop offset="89%" stop-color="#575455"/><stop offset="100%" stop-color="#242021"/><stop offset="100%" stop-color="#231F20"/></linearGradient><linearGradient id="n" x1="78.38%" x2="9.82%" y1="101.89%" y2="-24.35%"><stop offset="0%" stop-color="#FFF"/><stop offset="17%" stop-color="#FCFCFC"/><stop offset="31%" stop-color="#F2F2F2"/><stop offset="44%" stop-color="#E2E1E1"/><stop offset="55%" stop-color="#CAC9C9"/><stop offset="67%" stop-color="#ACABAB"/><stop offset="78%" stop-color="#878585"/><stop offset="89%" stop-color="#5B5859"/><stop offset="99%" stop-color="#2A2627"/><stop offset="100%" stop-color="#231F20"/></linearGradient><linearGradient id="o" x1="1575.16%" x2="1070.96%" y1="10238%" y2="12202%"><stop offset="0%" stop-color="#F7F8FA"/><stop offset="46%" stop-color="#F5F6F8"/><stop offset="63%" stop-color="#EEF0F3"/><stop offset="75%" stop-color="#E3E5E9"/><stop offset="84%" stop-color="#D2D6DB"/><stop offset="93%" stop-color="#BCC2C8"/><stop offset="100%" stop-color="#A1AAB2"/><stop offset="100%" stop-color="#A0A9B1"/></linearGradient><linearGradient id="p" x1="55.17%" x2="45.67%" y1="119.5%" y2="-30.64%"><stop offset="0%" stop-color="#FFF"/><stop offset="14%" stop-color="#FBFBFB"/><stop offset="28%" stop-color="#F0F0F0"/><stop offset="41%" stop-color="#DDD"/><stop offset="54%" stop-color="#C3C2C2"/><stop offset="67%" stop-color="#A1A0A0"/><stop offset="79%" stop-color="#787576"/><stop offset="92%" stop-color="#474445"/><stop offset="100%" stop-color="#231F20"/></linearGradient><linearGradient id="q" x1="0%" y1="49.89%" y2="49.89%"><stop offset="0%" stop-color="#E7E6E7"/><stop offset="30%" stop-color="#DCDBDC"/><stop offset="82%" stop-color="#BFBEBF"/><stop offset="100%" stop-color="#B4B3B3"/></linearGradient><linearGradient id="r" x1="0%" y1="50%" y2="50%"><stop offset="0%" stop-color="#B79D37"/><stop offset="27%" stop-color="#B39936"/><stop offset="53%" stop-color="#A88E33"/><stop offset="78%" stop-color="#957C2E"/><stop offset="100%" stop-color="#7E6528"/></linearGradient><linearGradient id="s" x1="0%" x2="102.2%" y1="50%" y2="50%"><stop offset="0%" stop-color="#CAD1E0"/><stop offset="14%" stop-color="#BFC7D6"/><stop offset="39%" stop-color="#A1ABBA"/><stop offset="72%" stop-color="#727F8E"/><stop offset="100%" stop-color="#435363"/></linearGradient><linearGradient id="t" x1="61.82%" x2="30.73%" y1="42.75%" y2="61.76%"><stop offset="0%" stop-color="#435363"/><stop offset="23%" stop-color="#414F5E"/><stop offset="49%" stop-color="#3A4450"/><stop offset="77%" stop-color="#2F3238"/><stop offset="100%" stop-color="#231F20"/></linearGradient><linearGradient id="u" x1="2.15%" x2="91.94%" y1="57.95%" y2="43.01%"><stop offset="0%" stop-color="#435363"/><stop offset="10%" stop-color="#404E5C"/><stop offset="100%" stop-color="#231F20"/></linearGradient><linearGradient id="v" x1="0%" y1="49.95%" y2="49.95%"><stop offset="0%" stop-color="#CAD1E0"/><stop offset="2%" stop-color="#C7CEDD"/><stop offset="66%" stop-color="#687686"/><stop offset="94%" stop-color="#435363"/></linearGradient><linearGradient id="w" x1="9355%" x2="19509%" y1="5492%" y2="5492%"><stop offset="0%" stop-color="#B79D37"/><stop offset="27%" stop-color="#B39936"/><stop offset="53%" stop-color="#A88E33"/><stop offset="78%" stop-color="#957C2E"/><stop offset="100%" stop-color="#7E6528"/></linearGradient><linearGradient id="x" x1="19928%" x2="29194%" y1="10876%" y2="10876%"><stop offset="0%" stop-color="#7E6528"/><stop offset="22%" stop-color="#957C2E"/><stop offset="47%" stop-color="#A88E33"/><stop offset="73%" stop-color="#B39936"/><stop offset="100%" stop-color="#B79D37"/></linearGradient><linearGradient id="y" x1="0%" y1="50%" y2="50%"><stop offset="0%" stop-color="#6B1716"/><stop offset="6%" stop-color="#731919"/><stop offset="28%" stop-color="#8E1F22"/><stop offset="51%" stop-color="#A12328"/><stop offset="75%" stop-color="#AC262C"/><stop offset="100%" stop-color="#B0272D"/></linearGradient><linearGradient id="z" x1="7277%" x2="11040%" y1="9925%" y2="9925%"><stop offset="0%" stop-color="#CAD1E0"/><stop offset="2%" stop-color="#C7CEDD"/><stop offset="70%" stop-color="#687686"/><stop offset="100%" stop-color="#435363"/></linearGradient><linearGradient id="A" x1="12368%" x2="12368%" y1="10263%" y2="9587%"><stop offset="0%" stop-color="#0043A6"/><stop offset="33%" stop-color="#0141A3"/><stop offset="56%" stop-color="#063C9A"/><stop offset="75%" stop-color="#0D348A"/><stop offset="94%" stop-color="#172775"/><stop offset="100%" stop-color="#1C226B"/></linearGradient><linearGradient id="B" x1="17122%" x2="17122%" y1="7966%" y2="7248%"><stop offset="0%" stop-color="#0043A6"/><stop offset="33%" stop-color="#0141A3"/><stop offset="56%" stop-color="#063C9A"/><stop offset="75%" stop-color="#0D348A"/><stop offset="94%" stop-color="#172775"/><stop offset="100%" stop-color="#1C226B"/></linearGradient><linearGradient id="C" x1="14742%" x2="19502%" y1="10475%" y2="10475%"><stop offset="0%" stop-color="#B0272D"/><stop offset="25%" stop-color="#AC262C"/><stop offset="49%" stop-color="#A12328"/><stop offset="72%" stop-color="#8E1F22"/><stop offset="94%" stop-color="#731919"/><stop offset="100%" stop-color="#6B1716"/></linearGradient><linearGradient id="D" x1="27922%" x2="27922%" y1="2957%" y2="2256%"><stop offset="0%" stop-color="#0043A6"/><stop offset="33%" stop-color="#0141A3"/><stop offset="56%" stop-color="#063C9A"/><stop offset="75%" stop-color="#0D348A"/><stop offset="94%" stop-color="#172775"/><stop offset="100%" stop-color="#1C226B"/></linearGradient><linearGradient id="E" x1="52.71%" x2="45.92%" y1="110.12%" y2="-37.92%"><stop offset="0%" stop-color="#FFF"/><stop offset="13%" stop-color="#FBFBFB"/><stop offset="26%" stop-color="#EFEFEF"/><stop offset="40%" stop-color="#DBDADA"/><stop offset="54%" stop-color="#BFBEBE"/><stop offset="67%" stop-color="#9A9999"/><stop offset="81%" stop-color="#6E6B6C"/><stop offset="94%" stop-color="#3A3738"/><stop offset="100%" stop-color="#231F20"/></linearGradient><linearGradient id="F" x1="64.96%" x2="37.32%" y1="121.82%" y2="-10.89%"><stop offset="0%" stop-color="#FFF"/><stop offset="20%" stop-color="#FCFCFC"/><stop offset="34%" stop-color="#F3F3F3"/><stop offset="46%" stop-color="#E4E3E4"/><stop offset="57%" stop-color="#CECECE"/><stop offset="68%" stop-color="#B3B1B1"/><stop offset="78%" stop-color="#908E8F"/><stop offset="87%" stop-color="#686565"/><stop offset="96%" stop-color="#3A3637"/><stop offset="100%" stop-color="#231F20"/></linearGradient><linearGradient id="G" x1="21.99%" x2="78.79%" y1="50.02%" y2="50.02%"><stop offset="0%" stop-color="#E1E5ED"/><stop offset="7%" stop-color="#D1D6DF"/><stop offset="21%" stop-color="#B5BCC6"/><stop offset="36%" stop-color="#9FA8B2"/><stop offset="53%" stop-color="#909AA5"/><stop offset="72%" stop-color="#87929D"/><stop offset="100%" stop-color="#848F9A"/></linearGradient><linearGradient id="H" x1="22.73%" x2="69.58%" y1="49.85%" y2="49.85%"><stop offset="0%" stop-color="#ACB7CD"/><stop offset="2%" stop-color="#A8B3C9"/><stop offset="19%" stop-color="#8A96A9"/><stop offset="37%" stop-color="#728090"/><stop offset="56%" stop-color="#61707F"/><stop offset="76%" stop-color="#576674"/><stop offset="100%" stop-color="#546371"/></linearGradient><linearGradient id="I" x1="19916%" x2="24624%" y1="2735%" y2="2735%"><stop offset="0%" stop-color="#6B1716"/><stop offset="6%" stop-color="#731919"/><stop offset="28%" stop-color="#8E1F22"/><stop offset="51%" stop-color="#A12328"/><stop offset="75%" stop-color="#AC262C"/><stop offset="100%" stop-color="#B0272D"/></linearGradient><linearGradient id="J" x1="50%" x2="50%" y1="122.85%" y2="-52.23%"><stop offset="0%" stop-color="#E7E6E7"/><stop offset="39%" stop-color="#E5E4E5"/><stop offset="61%" stop-color="#DDDCDC"/><stop offset="79%" stop-color="#CFCECF"/><stop offset="95%" stop-color="#BCBBBB"/><stop offset="100%" stop-color="#B4B3B3"/></linearGradient></defs><g fill="none" fill-rule="evenodd"><path fill="url(#a)" fill-rule="nonzero" d="M120.32 67.14H72.28l2.6 19.49h45.44z"/><path fill="url(#b)" fill-rule="nonzero" d="M20 10.55a91.3 91.3 0 0 1 7.51 7.79h143.58v13.1H36.82c.7 1.24 1.35 2.52 1.95 3.81l.08.53h132.53v9.37H40.3l.7 4.51h130.09v12.5H43l.77 5h76.59v19.47H46.72l1.06 7.09c.21 1.09.55 2.14 1 3.15h71.55v6.77H57.22c4.22 1.71 10.26 3.36 18.92 5.63 20.49 4.05 96.77 20.66 96.77 20.66V10.55H20z"/><g fill-rule="nonzero"><path fill="#231F20" d="M64.46 107.86c-14-3.86-17.46-7.13-17.79-10.52-.33-3.39-9.88-62.11-9.88-62.11a163.64 163.64 0 0 0-14.65-20.37C14.87 7.74 7.69 5.36 3.63 4.57 8.27 11 18.85 25.82 25 34.47c0 0 9.27 54.8 10.67 62.44.58 3.21 4 6.89 16.56 11.55l42.71 6.7s-16.48-3.4-30.48-7.3z"/><path fill="#656363" d="M94.93 115.52h-.06l-42.71-6.7h-.07c-10.86-4-16-7.68-16.79-11.83C33.94 89.55 25.05 37 24.64 34.61 18 25.34 6.66 9.44 3.32 4.78a.36.36 0 0 1 0-.41.38.38 0 0 1 .39-.16c3.78.74 11.23 3.07 18.7 10.39A165.34 165.34 0 0 1 37.12 35v.13c.39 2.4 9.56 58.77 9.88 62.14.26 2.7 2.55 6 17.51 10.2a543.92 543.92 0 0 0 30.44 7.29c.2.04.33.23.29.43a.37.37 0 0 1-.31.33zm-42.61-7.42l30.82 4.84c-5.61-1.3-12.47-3-18.78-4.72-12.41-3.46-17.65-6.6-18.06-10.84-.32-3.29-9.49-59.7-9.87-62A164 164 0 0 0 21.85 15.1a37.18 37.18 0 0 0-17.36-10C8.4 10.59 19 25.45 25.31 34.26c.03.04.05.1.06.15.09.59 9.29 54.88 10.63 62.43.47 2.4 2.63 6.16 16.32 11.26z"/></g><path fill="url(#c)" fill-rule="nonzero" d="M6.75 8.93l6.43 5.21a12.8 12.8 0 0 1 7.23 4.06c3.21 3.56 11.41 14.57 11.41 14.57l-6.54 3.4a5 5 0 0 0-.84-2.47L6.75 8.93z"/><path fill="url(#d)" fill-rule="nonzero" d="M25.12 35.22h9.64s8.42 47.7 8.83 50.64c.41 2.94 3.94 12.73 0 12.87-3.94.14-7.72-.51-8.75-6.45l-9.72-57.06z"/><g fill-rule="nonzero"><path fill="#FFF" d="M169.34 129.14c-15.3-3.33-75.36-16.36-93.19-19.88-21.31-5.58-26.72-7.43-28.36-15.54-2.62-17.74-7.87-50.86-9-58.46C32.54 21.74 20 10.55 20 10.55s-9.24-6.28-18.46-9l2.14 3c4.07.8 11.25 3.18 18.51 10.29a163.64 163.64 0 0 1 14.6 20.38s9.55 58.72 9.88 62.11c.33 3.39 3.79 6.62 17.78 10.52 13.99 3.9 30.47 7.3 30.47 7.3s66.36 13.47 74.41 14l.01-.01z"/><path fill="#656363" d="M169.34 129.51c-8-.52-71.75-13.44-74.46-14-.17 0-16.64-3.44-30.49-7.3-12.41-3.46-17.65-6.6-18.06-10.84-.32-3.29-9.49-59.7-9.87-62A164 164 0 0 0 21.85 15.1C14.54 7.93 7.25 5.65 3.55 4.93a.38.38 0 0 1-.23-.15L1.18 1.8a.36.36 0 0 1 0-.43c.1-.13.26-.19.42-.14 9.17 2.68 18.48 9 18.57 9 .09 0 12.75 11.45 18.94 24.88v.1c.39 2.62 1.28 8.27 2.37 15.28C43.59 63.8 46.44 82 48.16 93.67c1.62 8 7.16 9.76 28.09 15.24 18.19 3.6 80.81 17.19 93.17 19.88.19.04.32.22.29.41a.37.37 0 0 1-.37.31zM3.85 4.23C7.67 5 15 7.37 22.4 14.6A165.29 165.29 0 0 1 37.12 35v.13c.39 2.4 9.56 58.77 9.88 62.14.26 2.7 2.55 6 17.51 10.2a543.92 543.92 0 0 0 30.44 7.29c.52.1 40.66 8.24 62 12.06-22.82-4.94-66.31-14.33-81-17.23-20.87-5.46-27-7.41-28.66-15.83-1.72-11.64-4.57-29.88-6.65-43.2-1.09-7-2-12.59-2.36-15.23-6.01-13.24-18.45-24.39-18.58-24.5A79.62 79.62 0 0 0 2.43 2.26l1.42 1.97z"/></g><g fill-rule="nonzero"><path fill="url(#e)" d="M117.34 21.14c-8-.52-74.41-14-74.41-14L.22.44c17.33 6.43 52 14.72 120.7 26.16v-4.7l-3.58-.76z" transform="translate(52 108)"/><path fill="#656363" d="M173.29 135.05l-.44-.07C111.49 124.75 72 116.19 52.09 108.8l.19-.71 42.71 6.7c.68.14 66.44 13.47 74.38 14h.06l3.88.84-.02 5.42zM56.1 109.44c20.82 7 59 15.16 116.44 24.74v-4l-3.26-.71c-8.11-.55-71.73-13.44-74.43-14l-38.75-6.03z"/></g><g fill-rule="nonzero"><path fill="url(#f)" d="M1 .67l2 12.49h28.38c-.7-3.6-1.47-9.56-1.83-12.49H1z" transform="translate(40 49)"/><path fill="#656363" d="M71.38 62.53H43a.37.37 0 0 1-.37-.31l-2-12.49a.38.38 0 0 1 .37-.43h28.55c.19 0 .34.14.37.32.39 3.14 1.14 8.94 1.83 12.47.02.1 0 .22-.08.3a.38.38 0 0 1-.29.14zm-28.11-.74h27.66c-.64-3.45-1.33-8.68-1.71-11.76H41.44l1.83 11.76z"/></g><g fill-rule="nonzero"><path fill="url(#g)" d="M.73 1.14c1 6.71 2.09 13.52 3 19.49h28.15l-2.6-19.49H.73z" transform="translate(43 66)"/><path fill="#656363" d="M74.88 87H46.72a.37.37 0 0 1-.37-.31c-.9-6-2-12.78-3-19.49a.38.38 0 0 1 .38-.43h28.55c.19 0 .34.14.37.32l2.6 19.49c.01.1-.02.21-.09.29a.38.38 0 0 1-.28.13zM47 86.26h27.4L72 67.51H44.16C45.17 74 46.17 80.5 47 86.26z"/></g><g fill-rule="nonzero"><path fill="url(#h)" d="M173 1.36l-18.95 9.19-16.64 25.24S131.92 75 130 84.9c-1.92 9.9-4.25 17.52-10.62 20.07-22.31 7.48-118.44 25-118.44 25s62.39-8.73 91.12-15.47c11-2.26 21.74-4.31 30.16-6 12.47-4.64 15.89-8.31 16.47-11.52 1.39-7.65 10.67-62.44 10.67-62.44A6477.34 6477.34 0 0 1 173 1.36z" transform="translate(172)"/><path fill="#656363" d="M172.92 130.29a.37.37 0 0 1-.37-.31c-.03-.2.1-.38.3-.42 1-.17 96.36-17.56 118.38-24.94 5.87-2.35 8.25-9 10.38-19.79 1.92-9.73 7.38-48.7 7.43-49.09 0-.05.03-.1.06-.15l16.64-25.24c.04-.06.09-.1.15-.13L344.83 1a.38.38 0 0 1 .17 0c.14 0 .26.08.33.2.07.12.07.26 0 .38-.16.22-15.66 21.84-23.62 33C321.28 37 312.39 89.55 311 97c-.75 4.14-5.9 7.77-16.71 11.8-3.84.79-8.1 1.63-12.64 2.53-5.67 1.12-11.53 2.28-17.57 3.52-28.38 6.63-90.48 15.35-91.08 15.44h-.08zm136.85-94.37c-.28 2-5.54 39.51-7.43 49-1.81 9.15-4 17.6-10.85 20.34-16 5.37-70.53 16-99.71 21.48 20.78-3.13 53.65-8.35 72.17-12.69 6-1.25 11.91-2.4 17.59-3.52 4.54-.9 8.8-1.74 12.58-2.51 13.58-5.06 15.74-8.83 16.18-11.22 1.37-7.51 10.57-61.8 10.7-62.39 0-.05.03-.1.06-.15C327.9 24.58 340.48 7 343.85 2.33l-17.54 8.51-16.54 25.08z"/></g><g fill-rule="nonzero"><path fill="url(#i)" d="M.92 21.92v4.7h.25C70.1 15.14 104.88 6.83 122.17.38c-8.42 1.73-19.19 3.77-30.16 6C63.3 13.19.92 21.92.92 21.92z" transform="translate(172 108)"/><path fill="#656363" d="M173.16 135l-.62-.11v-5.29h.32c.62-.09 62.7-8.8 91.09-15.46 6-1.25 11.91-2.4 17.59-3.52 4.54-.9 8.8-1.74 12.58-2.51l.21.7c-19.9 7.41-59.51 16-121.1 26.26l-.07-.07zm.13-4.79v4c56.59-9.43 94.57-17.44 115.71-24.42l-7.31 1.45c-5.67 1.12-11.53 2.28-17.57 3.52-27.35 6.47-85.92 14.79-90.83 15.48v-.03z"/></g><path fill="url(#j)" fill-rule="nonzero" d="M172.92 10.55v119.37S269 112.45 291.35 105c6.38-2.59 8.65-10.25 10.65-20.1 2-9.85 7.44-49.11 7.44-49.11l16.61-25.24H172.92z"/><path fill="url(#k)" fill-rule="nonzero" d="M175.16 50.37h47.08v6.4h-47.08z"/><path fill="url(#l)" fill-rule="nonzero" d="M274.37 67.41h-99.21c.07 2.83 0 8.51 0 12.15h97.3l1.91-12.15z"/><g fill-rule="nonzero"><path fill="url(#m)" d="M30.37.41h-28L.46 12.56h27.51L30.37.41z" transform="translate(272 67)"/><path fill="#656363" d="M300 79.93h-27.54a.38.38 0 0 1-.38-.43L274 67.35a.37.37 0 0 1 .37-.31h28a.4.4 0 0 1 .29.13c.07.08.1.2.08.3l-2.4 12.15a.38.38 0 0 1-.34.31zm-27.08-.74h26.77l2.25-11.42h-27.25l-1.77 11.42z"/></g><path fill="#1C1B1A" fill-rule="nonzero" d="M175.16 84.24v8.46l93 .13c.86-2.77 1.53-5.6 2-8.46l-95-.13z"/><g fill-rule="nonzero"><path fill="url(#n)" d="M32.11.42H3.16a63.09 63.09 0 0 1-2 8.46h30l.95-8.46z" transform="translate(267 84)"/><path fill="#656363" d="M298.24 93.24h-30a.38.38 0 0 1-.31-.16.36.36 0 0 1 0-.33 62 62 0 0 0 1.95-8.4c.03-.18.19-.3.37-.31h28.95c.1 0 .2.04.28.12.07.08.1.18.09.28l-.86 8.46a.37.37 0 0 1-.47.34zm-29.53-.78h29.19l.79-7.72h-28.21a67.28 67.28 0 0 1-1.77 7.73v-.01z"/></g><path fill="url(#o)" fill-rule="nonzero" d="M251.23 107.67c-8 2.14-66.1 11.95-76.07 13.63v6s88.51-16.79 99.21-19.78c3.1-.87 5.94-1.67 8.49-2.48a402.1 402.1 0 0 0-20-1.88 46.61 46.61 0 0 1-11.63 4.51z"/><g fill-rule="nonzero"><path fill="url(#p)" d="M33.18.52H5.95C5.27 2.79 3.43 4.63.88 6.18c4.7.35 14.48 1.12 20 1.88C27.13 6 31.56 3.94 33.18.52z" transform="translate(262 97)"/><path fill="#656363" d="M282.86 105.42h-.05a416.15 416.15 0 0 0-20-1.88.37.37 0 0 1-.34-.28.36.36 0 0 1 .17-.4c2.69-1.63 4.3-3.41 4.91-5.45.05-.16.2-.27.36-.27h27.23c.13 0 .25.06.32.17.06.1.06.24 0 .35-1.82 3.85-7.1 6-12.54 7.73l-.06.03zM264 102.89c4.61.35 13.61 1.08 18.82 1.79 5-1.6 9.82-3.54 11.73-6.79h-26.33a10.21 10.21 0 0 1-4.22 5z"/></g><g fill-rule="nonzero"><path fill="url(#q)" d="M172.92 10.55V1.36H1.33l.16.22c9.22 2.69 18.46 9 18.46 9l152.97-.03z"/><path fill="#656363" d="M172.92 10.92H20a.38.38 0 0 1-.21-.07c-.09-.06-9.3-6.27-18.36-8.92a.38.38 0 0 1-.2-.14L1 1.57a.36.36 0 0 1 0-.38.4.4 0 0 1 .33-.2h171.59a.37.37 0 0 1 .38.37v9.19a.37.37 0 0 1-.38.37zm-152.85-.74h152.47V1.73H3.19a80.82 80.82 0 0 1 16.88 8.45z"/></g><path fill="url(#r)" fill-rule="nonzero" d="M171.09 18.35H58.69l10.07 13.1h102.33v-13.1z"/><g fill-rule="nonzero"><path fill="url(#s)" d="M1.46.35a81.51 81.51 0 0 1 9.35 13.1h31.06l-10-13.1H1.46z" transform="translate(26 18)"/><path fill="#656363" d="M68.62 31.82h-32l-.11-.19a80.23 80.23 0 0 0-9.31-13l-.55-.63h31.43l10.54 13.82zM37 31.08h30.12L57.7 18.71H28.27A80.34 80.34 0 0 1 37 31.08z"/></g><path fill="url(#t)" fill-rule="nonzero" d="M58.69 18.35h-.8l9.98 13.1h.89z"/><path fill="#656363" fill-rule="nonzero" d="M94.93 115.52h-.06l-42.71-6.7h-.07c-10.86-4-16-7.68-16.79-11.83C33.94 89.55 25.05 37 24.64 34.61 18 25.34 6.66 9.44 3.32 4.78a.36.36 0 0 1 0-.41.38.38 0 0 1 .39-.16c3.78.74 11.23 3.07 18.7 10.39A165.34 165.34 0 0 1 37.12 35v.13c.39 2.4 9.56 58.77 9.88 62.14.26 2.7 2.55 6 17.51 10.2a543.92 543.92 0 0 0 30.44 7.29c.2.04.33.23.29.43a.37.37 0 0 1-.31.33zm-42.61-7.42l30.82 4.84c-5.61-1.3-12.47-3-18.78-4.72-12.41-3.46-17.65-6.6-18.06-10.84-.32-3.29-9.49-59.7-9.87-62A164 164 0 0 0 21.85 15.1a37.18 37.18 0 0 0-17.36-10C8.4 10.59 19 25.45 25.31 34.26c.03.04.05.1.06.15.09.59 9.29 54.88 10.63 62.43.47 2.4 2.63 6.16 16.32 11.26z"/><path fill="url(#u)" fill-rule="nonzero" d="M67.07 35.79l2.65 9.37h2.93L70 35.79z"/><g fill-rule="nonzero"><path fill="url(#v)" d="M.85.79l1.45 9.37h29.42L29.07.79z" transform="translate(38 35)"/><path fill="#656363" d="M69.72 45.53H40.3a.37.37 0 0 1-.37-.31l-1.45-9.37a.38.38 0 0 1 .38-.42h28.21c.17 0 .31.11.36.27l2.65 9.37c.03.11.01.23-.06.32a.38.38 0 0 1-.3.14zm-29.1-.74h28.6l-2.44-8.63h-27.5c.3 1.96.72 4.95 1.34 8.63z"/></g><path fill="#1C1B1A" fill-rule="nonzero" d="M171.38 35.79H70l2.65 9.37h98.73z"/><path fill="url(#w)" fill-rule="nonzero" d="M171.09 49.67H69.55c.36 2.93 1.13 8.89 1.83 12.49h99.71V49.67z"/><path fill="#D2B887" fill-rule="nonzero" d="M180.91 120.33l3.1-.52h-3.1z"/><path fill="url(#x)" fill-rule="nonzero" d="M263.23 98h-87.95c.06 5 0 15.77 0 23.52 1.12-.19 2.84-.59 4.95-.95.27-.04.53-.12.77-.24V120h3c1.38-1 2.86-.58 4.43-.85.71-.12 1.44-.3 2.19-.42l.37-.09 6.38-1.1.73-.13 7.7-1.33 1.1-.19c1.79-.31 3.59-.45 5.4-.76 2.12-.52 4.28-.85 6.45-1l3.33-1c.31 0 .62-.04.92-.13l7.16-1.27 1.14-.2 6.22-1.13.38-.07c2.52-.47 4.81-.9 6.78-1.29l.73-.14 2.12-.43c1.44-.3 2.59-.55 3.38-.75l.35-.09c.78-.21 1.54-.43 2.3-.65l1.1-.34a38.8 38.8 0 0 0 7.88-3.28l.73-.44.14-.09c.23-.15.46-.06.67-.21a15.08 15.08 0 0 0 3.9-4.66l-4.75.04z"/><g fill-rule="nonzero"><path fill="#A22A2E" d="M175.16 18.6h47.08v19.49h-47.08z"/><path fill="#656363" d="M222.24 38.46h-47.08a.37.37 0 0 1-.38-.37V18.6a.37.37 0 0 1 .38-.37h47.08a.37.37 0 0 1 .38.37v19.49a.37.37 0 0 1-.38.37zm-46.7-.74h46.33V19h-46.34l.01 18.72z"/></g><path fill="url(#y)" fill-rule="nonzero" d="M278.6 41l-51.46.33v20.89h47.67z"/><g fill-rule="nonzero"><path fill="url(#z)" d="M31 .87H.77c1.34 2.92 3.79 4.88 8.45 6.77H38.4A16.84 16.84 0 0 1 31 .87z" transform="translate(48 96)"/><path fill="#656363" d="M86.4 104H57.08c-4.76-2-7.27-4-8.65-7a.36.36 0 0 1 0-.35c.07-.1.2-.17.32-.17H79c.14 0 .26.07.33.19a16.47 16.47 0 0 0 7.2 6.62c.15.08.23.25.19.41a.37.37 0 0 1-.32.3zm-29.11-.74H85a16.85 16.85 0 0 1-6.14-6H49.37c1.34 2.51 3.69 4.28 7.93 6.01l-.01-.01z"/></g><path fill="url(#A)" fill-rule="nonzero" d="M120.32 96.87H79a16.84 16.84 0 0 0 7.36 6.77h33.92l.04-6.77z"/><path fill="url(#B)" fill-rule="nonzero" d="M123.5 73.48h47.44v7.18H123.5z"/><path fill="url(#C)" fill-rule="nonzero" d="M123.42 90.22v22.22l47.6 8.86V90.22z"/><path fill="url(#D)" fill-rule="nonzero" d="M227.14 23.56v7h51.36a65.11 65.11 0 0 0 4.8-7h-56.16z"/><g fill-rule="nonzero"><path fill="url(#E)" d="M29.2.56H5.3a65.11 65.11 0 0 1-4.8 7h31.22l4.41-7c-2.3-.15-4.62-.15-6.93 0z" transform="translate(278 23)"/><path fill="#656363" d="M309.72 30.94H278.5a.38.38 0 0 1-.34-.21.36.36 0 0 1 0-.39 65.21 65.21 0 0 0 4.77-7 .38.38 0 0 1 .32-.18h23.89a54.5 54.5 0 0 1 7 0c.13 0 .25.08.31.2.06.11.06.25 0 .36l-4.41 7a.38.38 0 0 1-.32.22zm-30.45-.74h30.24l4-6.31a52.42 52.42 0 0 0-6.24 0h-23.76a70.07 70.07 0 0 1-4.24 6.31z"/></g><g fill-rule="nonzero"><path fill="url(#F)" d="M32.32.82L4.6 1 .81 22.22h28.37z" transform="translate(274 40)"/><path fill="#656363" d="M303.18 62.59h-28.37a.38.38 0 0 1-.29-.13.36.36 0 0 1-.08-.3l3.79-21.22c.03-.18.19-.3.37-.3l27.72-.18a.38.38 0 0 1 .38.42l-3.15 21.4a.37.37 0 0 1-.37.31zm-27.92-.74h27.6l3-20.66-27 .18-3.6 20.48z"/></g><path fill="#656363" fill-rule="nonzero" d="M175.06 121.4v-24h.32v23.93z"/><path fill="url(#G)" fill-rule="nonzero" d="M321.23 35.06h-9.93s-6.3 45.51-11.47 58.66c-2.61 6-.38 6.14 3.16 6 3.54-.14 7.88-4 7.88-4l10.78-60.67"/><path fill="url(#H)" fill-rule="nonzero" d="M338.83 10l-8.19 7.36s-5.17 1.54-7.35 4.35c-2.18 2.81-8 11.65-8 11.65l6.4.69L338.83 10z"/><path fill="#656363" fill-rule="nonzero" d="M175.16 121.64a.37.37 0 0 1-.37-.37V97.52a.37.37 0 0 1 .38-.37h92.79c.1 0 .2.04.27.11s.11.17.11.27c-.17 7.15-17.4 10.6-27.7 12.67l-2.67.54c-8.84 1.84-62.2 10.81-62.73 10.9h-.08zm.38-23.76v23c5.17-.87 53.87-9.07 62.26-10.82l2.68-.54c9.23-1.85 26.27-5.26 27.07-11.58l-92.01-.06zm96.92-17.95h-97.3a.37.37 0 0 1-.38-.37V67.41c0-.1.04-.2.11-.27a.38.38 0 0 1 .27-.11h99.21a.38.38 0 0 1 .38.43l-1.91 12.15a.37.37 0 0 1-.38.32zm-96.93-.74h96.61l1.79-11.42h-98.39v6.29c-.01 1.81-.02 3.62-.01 5.13zm99.28-16.6h-47.67a.37.37 0 0 1-.38-.37V41.33c0-.2.17-.37.37-.37l51.46-.33a.4.4 0 0 1 .29.13c.07.08.1.2.08.3l-3.8 21.22a.37.37 0 0 1-.35.31zm-47.29-.74h47l3.66-20.48-50.63.33-.03 20.15z"/><path fill="url(#I)" fill-rule="nonzero" d="M175.16 18.6h47.08v19.49h-47.08z"/><path fill="#656363" fill-rule="nonzero" d="M171.09 31.82H68.76a.38.38 0 0 1-.3-.15l-10.07-13.1a.36.36 0 0 1 0-.39.4.4 0 0 1 .34-.2h112.4a.37.37 0 0 1 .38.37v13.1a.37.37 0 0 1-.42.37zM69 31.08h101.71V18.71H59.44L69 31.08zm102.09 31.45H71.38a.37.37 0 0 1-.37-.3c-.69-3.55-1.45-9.37-1.84-12.52a.36.36 0 0 1 .09-.29.38.38 0 0 1 .28-.12h101.55a.37.37 0 0 1 .38.37v12.49a.37.37 0 0 1-.38.37zm-99.4-.74h99V50H70c.36 3.16 1.06 8.4 1.69 11.79zM171 121.66l-47.6-8.86a.37.37 0 0 1-.31-.36V90.21a.37.37 0 0 1 .38-.37H171a.37.37 0 0 1 .38.37v31.09a.37.37 0 0 1-.38.36zm-47.23-9.53l46.85 8.72V90.58H123.8l-.03 21.55z"/><path d="M120.32 67.14H72.28l2.6 19.49h45.44z"/><path fill="#656363" fill-rule="nonzero" d="M120.32 87H74.88a.37.37 0 0 1-.37-.32l-2.6-19.49a.38.38 0 0 1 .37-.42h48a.37.37 0 0 1 .38.37v19.49c0 .2-.15.35-.34.37zm-45.11-.74h44.73V67.51H72.71l2.5 18.75z"/><g fill-rule="nonzero"><path fill="url(#J)" d="M1.16 1.36H.92v9.19h153.13l18.94-9.19z" transform="translate(172)"/><path fill="#656363" d="M326.05 10.92H172.92a.37.37 0 0 1-.38-.37V1.36a.37.37 0 0 1 .38-.37H345c.17 0 .33.11.37.28a.37.37 0 0 1-.2.41l-18.95 9.2a.37.37 0 0 1-.17.04zm-152.76-.74H326l17.39-8.45h-170.1v8.45z"/></g></g></svg>