<svg xmlns="http://www.w3.org/2000/svg" viewBox="0 0 655 203"><path fill="#180c18" d="M26.61 0h45.85c2.75 1.4 6.12 3.34 5.83 6.95.23 12.17.13 24.36.19 36.54-7.24.2-14.48.22-21.71-.02-.24-11.81.07-23.61-.07-35.41-4.82-.31-9.66-.3-14.48-.05.18 52.86 0 105.72.14 158.58 4.75.2 9.5.23 14.25.06.26-12.08-.26-24.17.28-36.24 7.24-.06 14.48.03 21.72.09.13 12.07-.49 24.15.09 36.21 11.45-.01 22.9.01 34.35.05.73-19.25.03-38.52.39-57.77.12-1.99.16-4.29 1.78-5.71 2.1-1.88 5.14-1.57 7.75-1.71 12.69.06 25.37.01 38.06.04 2.62.13 5.61-.16 7.82 1.55 1.76 1.34 1.82 3.74 1.95 5.75.48 19.24-.14 38.5.27 57.74 11.58.06 23.16.02 34.73-.07.19-19.22-.13-38.44.07-57.66.01-2.56.73-5.73 3.45-6.68 2.49-.7 5.12-.56 7.68-.64 12.35-.02 24.7.05 37.04-.08 2.99-.08 5.85.87 8.64 1.82 1.14 6.62 1.04 13.35.58 20.03-7.25.18-14.5.18-21.75 0a375 375 0 0 1 .02-14.23c-4.55-.3-9.12-.31-13.67-.09-.25 11.65-.01 23.31-.18 34.96.01 7.55-.39 15.11.04 22.65 33.07.06 66.14.21 99.21-.12-6.97-7.84-14.85-14.79-22.26-22.21-2.1-2.19-4.51-4.19-6.02-6.86-.54-2.79-.31-5.65-.35-8.47.11-9.18-.19-18.36.01-27.53 7.15.07 14.3.03 21.45-.09.45 14.56.23 29.14.23 43.71.09 1.89-.1 4.11 1.46 5.51 4 4.25 8.13 8.42 12.77 11.97.52-20.24.22-40.5.32-60.75 7.19-.46 14.4-.29 21.61-.28.24 21.71-.03 43.43.17 65.14 11.47.11 22.95.09 34.42.01.08-18.92-.05-37.84.1-56.76.11-2.19.08-4.69 1.69-6.39 1.86-2.08 4.91-1.77 7.43-1.91 13.36.04 26.73-.11 40.1.01 2.67.06 5.97.19 7.58 2.71 1.19 2.32.93 5.05 1.1 7.57.06 7.96.24 15.93-.21 23.88.03 3.94-4.22 5.8-7.62 5.75-9.44.24-18.88-.13-28.32.08-.18 8.35-.32 16.71.06 25.06 4.75.14 9.52.18 14.28.08.08-4.89.22-9.77.3-14.65 7.17.08 14.33.03 21.5.08-.03 4.83.02 9.66.14 14.49 11.43.07 22.86-.01 34.29-.11.54-19.19-.05-38.41.19-57.61.04-2.45.7-5.34 3.1-6.52 2.07-.79 4.34-.66 6.53-.76 16.03-.16 32.06-.08 48.09-.05.34 21.67 0 43.34.14 65 11.58.06 23.15.04 34.73.01.41-8.24.03-16.48.17-24.73.09-2.08.05-4.53 1.77-6.03 1.59-1.55 3.94-1.68 6.04-1.79 9.34-.33 18.69.14 28.04-.11.07-8.39.13-16.78.01-25.17-11.95-.26-23.9.05-35.85-.12l.01-7.01c11.29-.32 22.58.03 33.87-.09 6.31.14 12.65-.24 18.94.37 2.99.27 4.63 3.36 4.64 6.1.37 19.52-.35 39.06.18 58.58 6.8.13 13.61.01 20.41.27l-.17 6.72c-37.58.25-75.17-.11-112.74.23-.2 7.06.13 14.14-.1 21.2.12 3.08-1.78 5.62-3.57 7.93h-54.34c.02-2.54.12-5.07.16-7.61 11.96-.28 23.91.24 35.87-.09.22-7.08.26-14.17.08-21.25-125.45-.36-250.91-.32-376.37-.14-47.66-.38-95.33 0-142.99-.27v-6.81c6.86-.12 13.72-.05 20.58-.23.01-48.53-.12-97.07-.09-145.6.11-5.28-.4-10.63.5-15.86.42-2.84 3.51-3.82 5.62-5.14m110.71 108.3c-3.55 1.19-3.79 5.49-3.91 8.64-.06 13.37 0 26.75-.02 40.13.09 3.46.11 7.94 3.62 9.82 3.4 1.49 7.73 2.16 11.05.13 2.55-2.17 2.4-5.9 2.55-8.95-.02-13.71.04-27.43-.02-41.14-.17-2.93-.26-6.72-3.18-8.32a13.45 13.45 0 0 0-10.09-.31m277.96-.13c-3.11 1.17-3.89 4.84-3.87 7.8-.01 4.93-.26 9.89.21 14.8.15 2.36 2.22 4.02 4.43 4.41 3.29.62 7.11.84 10.02-1.12 3.21-2.68 2.37-7.34 2.58-11.04-.23-4.13.61-8.56-1.16-12.45-2.55-3.92-8.26-3.64-12.21-2.4m90.99-.09c-2.19 1.1-1.75 3.84-1.89 5.85.02 15.71.02 31.43 0 47.14.03 2.2-.12 5.08 2.3 6.14 3.58.69 7.31.56 10.93.17 2.53-.35 3.11-3.2 2.99-5.34 0-16.36.05-32.73-.02-49.1.21-2.33-1-5.02-3.57-5.29-3.55-.17-7.35-.73-10.74.43m91.36 35.32a178 178 0 0 0 .15 22.98c3.71 1.65 7.88 1.47 11.83 1 2.04-.33 3.08-2.51 2.94-4.42.04-6.51.33-13.06-.18-19.56-.62-3.41-4.76-3.03-7.37-3.07-2.62.04-6.75-.34-7.37 3.07z"/></svg>