<svg xmlns="http://www.w3.org/2000/svg" viewBox="-.8 -.8 37.59 28.13"><path fill="#231f20" d="M35.83 15.57L29.9 9.62a.58.58 0 0 0-.81 0l-.54.54a.57.57 0 0 0 0 .81l5.94 5.95c.22.22.59.22.81 0l.54-.54a.57.57 0 0 0 0-.81m-15.4 3.51a.58.58 0 0 0-.81 0l-.54.54a.57.57 0 0 0 0 .81l5.94 5.94c.23.23.6.23.82 0l.53-.54a.57.57 0 0 0 0-.8l-5.94-5.95zm0-18.91a.58.58 0 0 0-.81 0l-.54.54a.57.57 0 0 0 0 .8l5.94 5.95c.23.23.6.23.82 0l.53-.54a.57.57 0 0 0 0-.81L20.43.17zm-9.45 9.45a.58.58 0 0 0-.82 0l-.53.54a.57.57 0 0 0 0 .81l5.94 5.95c.22.22.59.22.8 0l.55-.54a.57.57 0 0 0 0-.81l-5.94-5.95zm5.4 9.46a.58.58 0 0 0-.81 0l-5.95 5.94a.57.57 0 0 0 0 .81l.54.54c.23.23.6.23.82 0l5.94-5.94a.57.57 0 0 0 0-.81l-.54-.54zm3.24-2.16c.22.22.59.22.81 0l5.94-5.95a.57.57 0 0 0 0-.8l-.53-.55a.57.57 0 0 0-.82 0l-5.94 5.95a.58.58 0 0 0 0 .8l.54.55zm-12.7-7.3a.58.58 0 0 0-.81 0L.17 15.57a.57.57 0 0 0 0 .8l.54.55c.22.22.58.22.8 0l5.95-5.95a.57.57 0 0 0 0-.8l-.54-.55zm3.23-2.17c.23.23.6.23.83 0l5.93-5.93a.58.58 0 0 0 0-.82L16.4.17a.59.59 0 0 0-.83 0L9.63 6.1a.59.59 0 0 0 0 .83l.52.52z"/></svg>