<svg xmlns="http://www.w3.org/2000/svg" viewBox="8.5 -69.43 300 234.49"><path fill="#FFF" d="M161.44-67.86c12.15 9.42 27.2 16.93 44.72 22.33 15.23 4.69 32.34 7.8 50.88 9.24l3.15.25V3.85h48.31v86.67h-29.7l-2.91 2.97-7.27 6.45c-32.64 28.98-78.04 63.8-108.95 65.13h-.25c-23.7-.8-63.7-24.37-109.71-64.7l-6.97-6.1-3.57-3.73H8.5V3.84h49.35V-36.1l3.2-.16c39.08-1.82 68.78-11.59 96.3-31.66l2.07-1.5 2.02 1.56z"/><path d="M159.36-65.17c26.7 20.7 62.97 29.6 97.41 32.27v28.24c-7.3-.38-13.22 7.27-13.23 11.91h61.56v79.87h-57.08c1.36 7.4 11.23 10.66 18.33 10.27-37.94 33.69-79.77 63.11-106.82 64.27-24.65-.81-66.32-27.69-107.58-63.85 17.1.28 18.62-10.7 18.62-10.7l-58.67.04V7.25h61.38C72.97 1.4 67.6-4.05 61.2-4.66v-28.2c36.58-1.7 68.2-10.48 98.15-32.31z"/><path fill="#F60" d="M249.66-26.76V-9.1c-6.73 1.4-13.54 10.55-13.52 16.35h-5.55c.54-11.03 6.66-16.4 13.56-20.05 0-3.49 0-5.38.03-8.8-29.38-.72-63.35-13.34-84.6-27.7-19.35 13.03-55.74 26.96-85.4 27.7-.02 1.94-.02 5.78 0 8.8 7.74 3.95 12.3 11.68 12.77 20.04H81.1C79.85-1.49 74.86-6.17 68.71-9.6c0-5.58 0-11.03-.03-16.82 33.55-1.9 71.17-14.87 90.52-29.86 18.54 15.25 57.5 27 90.46 29.52z"/><path fill="#F60" d="M145.57-23.55c-.32-7.87-2.1-9.74-13.62-4.15-7.37 3.68-9.06 3.34-9.2 9.84V-.73c.1 8.17 2.75 8.04 10.88 7.98 9.9-.06 11.87.09 11.94-5.73-.02-4.13.02-14.32 0-25.07zM139.13-.73c0 1.15-.56 1.47-1.36 1.5-1.76.08-4.89.02-7.02.02-1.31.01-1.85-1.21-1.86-2.27-.05-4.71-.47-15.92 1.23-17.64.56-.57 9-5.44 9.01-1.44V-.73zM105.74-7.2l-5.29-11.43c-1.9.34-2.99.63-6.65 1.28v24.6h6.74l.2-9.77c2 2.56 3.6 6.22 5.17 9.35 1.53-3.1 3.12-7.21 4.95-10.55.88 1.04.72 7.25.72 10.96h6.65v-29.6c-5.21 1.06-5.12 1.06-6.93 1.57l-5.56 13.6zm40.55-26.94l-.06 7.35 9.24-4.58s-.02 25.96 0 38.61h7.4v-38.6l9.49 4.66.05-7.49s-10.92-5.24-13.39-7.03c-2.3 1.7-12.73 7.08-12.73 7.08zM222.8-2.7c2.8-.96 3.56-10.23.32-13.8-1.75-1.91-12.23-3.57-21.1-5.5V7.25h6.43V-.58c3.2-.01 2.4-.06 5.1 0 3.71-.01 5.2.11 5.22 7.83h6.36s.64-7.72-2.33-9.95zm-6.1-3.98c-2.92-.17-3.99-.2-8.17-.42l-.04-6.77c3.5.4 8.81 1.07 9.35 1.75.66.84 1.21 5.48-1.13 5.44zm-30.33-21.24c-5.73-2.27-13.28-6.27-13.28 3.06V.8c0 6.45 3.74 6.45 12.23 6.46 8.98 0 11.28 0 11.28-6.46v-20.65c0-5.01-4.8-5.9-10.23-8.06zm3.7 26.14c.02 3.02-2.82 2.56-4.78 2.56-2.8 0-5.4.5-5.4-4.5 0 0-.02-9.68 0-15.51 0-3.44 2.09-2.88 5.21-1.97 2 .6 5 .62 4.99 4.21l-.01 15.21zM19.39 14.74h278.57v64.61H19.37"/><path d="M25.5 20.2h267.02v54.06H25.5"/><path fill="#FFF" d="M44.2 42.54h-4.44v-15.6h-6.1v40.83h6.14V50.75h4.36v17.06h6.14V26.97h-6.1v15.57zm53.41 18.4V26.98H91.1v40.8h12.62v-6.82h-6.1zm7.45 6.83h12.57v-6.86c-2.32.02-3.8.02-6.09 0V50.08h6.13v-7.15h-6.13V33.4h6.17v-6.42h-12.65v40.79zM135.7 45h11.23v5.07H135.7zm29.97-11.03c-.01-4.76-2.22-7.02-5.4-7.02-4.14 0-5.92 0-10.64.02v40.8c3.55 0 6.55 0 8.76-.02 5.02.02 7.29-3.9 7.33-7.23-.02-7.37-.06-17.88-.05-26.55zM158 60.92c-1.36.01-1.28.01-2.2-.01V33.15s3.64-.84 3.64 1.95l.06 23.9c-.02 1.12-.66 1.89-1.5 1.92zm-21.3-33.95h-6c-1.36 4.53-1.7 8.53-3.1 13.32-1.28-4.75-2-9-2.8-13.34-1.97 0-3.37 0-6.37.02 1.65 8.04 3.98 15.88 6.03 23.92-.01 5.1.03 9.82.01 16.54h6.15c0-6.34 0-9.87-.03-16.41 2.19-8 4.44-15.44 6.12-24.05zM85.65 47.03c3.19-3.2 3.05-6.85 3.05-8.8 0-4.3-.67-11.28-6.62-11.28-6.8 0-7.66 0-10.31.02l-.1 40.84h6.61v-15.7h1.1c1.42.01 2.91.27 2.92 2.8 0 3.04-.02 8.54 0 11.12 0 1.19 1.73 1.74 2.46 1.78h3.98l.01-13.09c-.04-4.46-1.1-5.89-3.1-7.69zm-3.67-4.86c.01 1.62-.71 2.09-1.33 2.1h-2.4V33.44c2.38.02 3.74.02 3.76 2.29-.01 1.75.03 4.57-.03 6.44zm-16.39-15.2h-9.4c-1.32 13.98-2.77 27.4-4.19 40.84h5.8L58.93 58h4.2c.32 2.34.78 6.17 1.26 9.78h5.67a2232.3 2232.3 0 0 0-4.48-40.8zM59.9 50l.72-14.73c.86 5.26 1.2 9.56 1.65 14.73H59.9zm181.32-4.6c-2.8-2.1-5.54-3.08-5.55-8.42.01-1.81-.32-4.19 1.73-4.2 2.41-.16 2.41 3.11 2.42 8.12l6.1.04v-7.98c0-3.92-2.32-7-7.86-7.04-9.35-.1-8.46 8.57-8.45 14.3 0 6.35 5.18 8.39 7.9 10.45 1.4 1.05 2.6 2.32 2.6 6.44 0 3.61-.59 4.89-2.12 4.88-2.52-.02-2.3-2.45-2.31-3.65l.01-6.2c-1.28 0-5.19 0-6.16-.02-.01 12.68 1.01 16.05 8.45 16.05 6.34 0 8.3-4.5 8.3-10.3-.05-7.9-1.33-9.69-5.06-12.48zM220.9 26.62h-9.69v40.85l8.46-.01c5.2 0 7.86-2.26 7.84-6.66V33.84c.02-5.4-3.5-7.2-6.6-7.21zm.86 32.29c-.01 1.83-.44 2-4.05 1.99V33.1s.9.02 2 0c.93.01 2.04.99 2.06 2.19.02 7-.01 23.62-.01 23.62zm35.03-33.3c-3.49.02-8.5.74-8.5 8.6v26.26c0 6.02 4.4 7.93 7.95 8 4.24.07 8.4-3.64 8.4-7.91v-26.2c0-7.54-4.67-8.78-7.85-8.75zm1.62 33.71c-.01 3.89-4.3 2.92-4.3-.59 0-9.3-.06-19.05-.02-24.27.01-2.8 4.33-2.72 4.32 0v24.86zm20.14-32.7l.26 18.71c-1.36-6.1-2.62-12.48-3.96-18.71h-7.83V67.1h6.45l-.19-22.41c1.51 7.66 2.83 14.8 4.21 22.41h7.2V26.63h-6.14zM192.2 50.8c-.86-7.9-1.67-16.23-2.41-24.17h-6.18l5.42 40.8h6.51l5.68-40.8h-6.06a1772.6 1772.6 0 0 0-2.96 24.17zm-20.7-24.17c-1.35 13.44-3.68 27.3-4.86 40.8h5.83l1.2-9.87h4.35c.56 3.37.9 6.57 1.57 9.87h5.76l-5.08-40.8h-8.76zm2.89 23.36l1.35-14.6c.8 4.06 1.18 10.61 1.4 14.6h-2.75zm27.97-23.36v40.85h6.16l-.02-40.85"/><path fill="#F60" d="M84.96 87.11c-.09 6.72-2.98 11.48-7.2 15.03 27.18 24.35 63.92 45.1 81.98 46.3 18.33-1.2 54.05-23.31 81.34-46.48-5.48-4.8-7.05-8.98-7.07-14.85l5.42.01c.46 7.06 7.95 12.76 11.06 14.09-40.1 33.1-65.44 49.26-91.13 52.65-26.7-3.73-52.55-19.72-91.37-52.36 5.4-2.4 10.84-8 10.83-14.39h6.14z"/><path fill="#F60" d="M116.21 87.11c-3.27 0-8.4-.1-8.4 3.66v23.42c0 4.54 2.58 5.4 6.88 8.34 4.32 2.95 5.6 3.86 7.4 4.1 1.2.16 3.08-1.01 3.08-4.48l.01-30.03c0-5.22-3.19-5-8.97-5.01zm3.16 28.01c0 3.61-2.4 1.94-3.23 1.36-.68-.45-2.89-1.13-2.89-3.7-.01-4.94 0-13.6.01-17.86 0-1.7 1.89-1.92 2.62-1.93 2.16 0 3.5-.32 3.5 2.23v19.9zm20.57-6.13c-1.45-5.2-5.52-19.65-5.52-19.65s-.36-2.22-1.92-2.22c-1.2 0-3.04-.02-4.69-.01v43.13a18.75 18.75 0 0 0 5.49 2.88v-26.2h.54c1.87 6.33 4.7 15.03 6.4 19.86 1.72-5.34 3.35-11.3 5.02-16.77l.63.04v28.82l5.77 2.2V87.11h-5.89c-1.88 7.37-3.45 13.66-5.83 21.88zM104.08 87.1h-7.72c-1.75 0-3.87 1.75-3.88 3.74l.01 14.56c0 2.33 8.37 7.96 12.6 10.37 0-2.41-.04-3.58-.04-6.75-2.85-2.02-6.74-3.6-6.72-5.38 0-4.97-.03-8.21-.03-10.32h6.33s.78 0 .78-1.02v-3.83c0-.94-.33-1.36-1.33-1.37zm123.76 0h-5.32l-3.27 11.98c-1.08-3.39-1.68-8.62-2.6-11.98h-6.08c1.82 5.32 3.86 11.02 5.74 16.6l-.02 11.04c1.87-1.27 4-2.98 5.46-4.07v-8.98c1.56-3.44 4.5-9.57 6.1-14.59zm-42.87 0h-6.7l-8.88 53.12c4-1.24 5.46-1.84 6.85-2.53.65-4.62 1.45-9.72 2-13.26 2.22-.8 4.3-1.36 6.82-1.9.54 3.18 1 6.71 1.52 10.2 2.47-.9 4.3-2.03 5.59-2.88a1080.37 1080.37 0 0 0-7.2-42.75zm-5.76 30.6s1.98-16.36 2.59-16.42c.6-.05 2.23 15.07 2.23 15.07-1.62.6-2.68.9-4.82 1.36zm24.13-30.6v17.31h-.52s-2.38-10.93-4.19-17.31h-5.8v42.33l6.06-3.55-.17-19.73c2.23 6.22 3.37 10.5 5.17 16.34 1.73-1.02 3.44-2 5.25-3.4V87.12h-5.8zm-30.87 25.39l-.02-19.67c0-2.58-1.35-5.71-5.35-5.72h-12.37v54.52c3.63 1.58 4.66 1.75 6.46.47v-22.23c8.38-.95 10.93-1.16 11.28-7.37zm-11.27 1.24V92.99h2.99c1.04 0 1.77.63 1.75 2.25.02 3.91.02 11.22.02 15.74 0 1.65-.9 2.5-4.76 2.76z"/><path fill="#231F20" d="M265.6 90.82a2 2 0 0 1 .6 1.48c0 .6-.2 1.1-.6 1.5-.42.42-.91.63-1.5.63s-1.08-.2-1.5-.62c-.4-.42-.6-.91-.6-1.5s.2-1.08.62-1.5a2 2 0 0 1 1.48-.62 2 2 0 0 1 1.5.63zm.24-.24a2.36 2.36 0 0 0-1.74-.7c-.67 0-1.24.22-1.73.7a2.38 2.38 0 0 0-.71 1.72c0 .7.24 1.27.71 1.75.48.48 1.05.72 1.73.72.68 0 1.26-.24 1.74-.72.48-.49.71-1.06.71-1.75 0-.67-.23-1.25-.71-1.72zm-1.37 1.61c-.1.04-.25.06-.46.06h-.42v-.97h.4c.26 0 .45.04.57.1.13.07.18.2.18.4s-.09.34-.27.41zm-1.36 1.45h.48v-1.06h.37c.25 0 .43.03.53.1.17.1.26.3.26.61v.33l.02.02h.45l-.03-.03a.88.88 0 0 1-.02-.13v-.4a.72.72 0 0 0-.15-.42.7.7 0 0 0-.47-.27 1 1 0 0 0 .4-.12c.17-.12.26-.3.26-.53 0-.34-.14-.57-.42-.68a1.9 1.9 0 0 0-.73-.1h-.95v2.68z"/></svg>