<svg xmlns="http://www.w3.org/2000/svg" viewBox="0 0 49.13 7.21"><path fill="#002e6b" d="M18.93 1.2v1.84h-2.07V1.2h-1.14V6h1.14V4.08h2.07V6h1.14V1.2zm5.33 0l-1.2 1.9-1.19-1.9h-1.35l1.98 3.14v1.67h1.14V4.34l1.97-3.13zm5.02 0v3.53c0 .13-.1.24-.24.24H27.2V1.2h-1.14V6h3.37c.3 0 .54-.1.72-.27a.98.98 0 0 0 .26-.71V1.2zm5.57 0h-3.37V6h1.14V2.26h1.83c.15 0 .24.11.24.24V6h1.15V2.19c0-.3-.1-.54-.27-.72a.98.98 0 0 0-.72-.26m5.42-.01h-3.38V6h3.38c.3 0 .54-.08.71-.26a.97.97 0 0 0 .27-.71V2.19c0-.3-.09-.54-.27-.72a.97.97 0 0 0-.71-.26M40.1 2.5v2.22c0 .13-.1.25-.24.25h-1.84V2.25h1.83c.15 0 .25.1.25.25m3.14-1.3c-.3 0-.54.1-.72.27a.97.97 0 0 0-.26.72v3.82h1.14V4.52h2.07v1.49h1.14V1.2zm2.23 1.05v1.23H43.4V2.5c0-.12.09-.24.24-.24zM47.72 6h1.15V1.2h-1.15zM6.8 6.95c3.6 0 6.52-1.5 6.52-3.34 0-1.85-2.92-3.35-6.53-3.35C3.2.26.26 1.76.26 3.61c0 1.84 2.93 3.34 6.53 3.34M8.02 5.3c-.1.25-.3.8-.73 1a.94.94 0 0 1-.43.1h-.07c-1.2 0-2.32-.16-3.26-.45l-.04-.01c-.08-.03-.13-.07-.13-.12 0-.04.02-.08.05-.1l.06-.06c.22-.18.87-.65 2.1-1.12.43-.17.97-.37 1.54-.5.33-.06 1.56-.25.91 1.26m3.3-3.37a.14.14 0 0 1 .1-.08c.04 0 .08 0 .14.05.77.47 1.22 1.06 1.22 1.7 0 1.15-1.48 2.14-3.6 2.57-.13.03-.22.03-.25 0s-.03-.06 0-.11a17.16 17.16 0 0 0 2.34-4.02l.05-.11M5.58 1.9c.11-.25.3-.8.73-1 .13-.07.3-.1.43-.1h.07c1.2 0 2.33.16 3.26.45l.04.01c.09.03.13.07.13.12 0 .04-.02.07-.05.1l-.06.06c-.22.18-.87.65-2.1 1.12-.43.17-.97.37-1.54.49-.33.07-1.56.26-.9-1.25m-1.2-.87c.15-.03.23-.03.27 0 .02.03.02.07 0 .11a17.24 17.24 0 0 0-2.4 4.13c-.02.04-.05.08-.1.08-.03 0-.08 0-.14-.04C1.25 4.83.8 4.24.8 3.6c0-1.16 1.48-2.15 3.6-2.58"/></svg>