<svg xmlns="http://www.w3.org/2000/svg" width="1000" height="171.8"><path fill="#e60012" d="M435.34 171.22c3.54 0 25.1-.12 42.5-1.33 21.02-1.46 31.85-8.67 39.79-19 9.85-12.79 9.79-36.76 9.77-55.41-.01-20.83.28-81.2.19-86.57-.07-5.4-2.12-8.21-8.3-8.16-6.18.04-23.61 0-29.6.05L479.03.75c-6.18-.05-8.22 2.75-8.31 8.16v5.78c.09 6.4-.09 67.29-.11 81.56v6.33c-.17 13.15-1.77 25.94-20.36 27.92a165 165 0 0 1-21.64 1.22c-9.96 0-13.62-.38-21.75-1.22-18.6-1.96-19.72-14.77-19.9-27.92v-6.33c-.02-14.27-.2-75.17-.11-81.56V8.91c-.08-5.4-2.13-8.21-8.3-8.16L367.87.8c-5.98-.05-23.4-.01-29.6-.05C332.1.7 330.06 3.5 330 8.9c-.1 5.38-.03 65.74-.05 86.57-.02 18.65-.07 42.62 9.77 55.4 7.92 10.34 18.6 17.55 39.56 19.01 17.4 1.23 38.3 1.33 42.94 1.33h13.13zm-377.9-7.83c-.11 5.86-1.84 8.17-7.85 8.31-6.02.18-35.5.08-40.86.04-5.35-.06-8.64-1.68-8.65-7.42C.04 158.6.04 14.55 0 9.08c-.01-5.45 2.56-8.03 8.2-7.86 5.63.14 34.58-.15 42.26-.02 5.81-.04 7.18 3.31 7.2 9.3.14 8.04-.07 147.06-.21 152.89m802.99-58.27c.1 13.52 3.38 22.56 18.87 24.97 12.4 1.29 29.19 1.55 42.07.24 11.79-1.3 20.87-6.07 21.4-19.42.6-11.27.65-13.21.69-25.1.06-28.85-.25-70.75-.16-74.86l.05-1.75c-.1-6.4 2.82-9.1 8.23-9.1l3.24-.1c6.16.05 30.94.1 36.93.1 5.41 0 8.33 2.7 8.24 9.1l-.08 1.99c.12 6.02-.07 69.84-.13 88.67-.34 9.46-1.02 31.49-8.3 45.46-6.35 12.12-17.7 21.45-37 23.36-37.12 3.7-70.95 2.16-97 1.07-19.37-1-31.84-5.34-42.2-16.84-11.7-13.19-12.32-35.72-12.15-61.57-.22-57.04-.4-73.47-.3-78.91V9.2c-.1-6.4 2.82-9.1 8.23-9.1l3.21-.1c6.22.05 31.93.1 37.94.1 5.39 0 8.33 2.7 8.22 9.1-.09 6.41-.03 79.45 0 95.54M571.8.61c5.79-.17 109.4-.05 141.78.13 28.69.32 39.3 4.4 47.08 14.82 8.98 12.04 9.91 27.13 2.65 39.54-5.21 8.9-14.85 16.67-29.3 23.72-11.48 5.9-31.58 14.84-51.22 23.49-26.3 11.62-50.12 21.68-54.12 23.77-5.42 2.85-3.37 7.1.93 7.04 11.24-.13 119.77-1.01 125.56-1.03 5.82 0 7.7 2.1 7.7 8.34 0 6.53.06 17.71.07 22.78-.13 6.1-2.07 7.76-7.85 7.82-6.6.07-122.2.1-130.42.14-18.27-.05-37.1.02-48.32-5.42-14.02-6.8-18.76-20.46-18.78-30.04.67-23.33 13.67-30.8 37.1-41.66 26.05-11.82 102.94-45.08 107.52-47.2 5.68-2.65 3.92-7.86-1.35-7.69-4.04.09-121.82.69-127.64.68-5.8-.02-9.5-.95-9.5-6.58.02-5.6-.04-19.64-.04-25.42 0-5.8 2.33-7.04 8.15-7.23M267.6 88.35C241.56 77.53 165.54 53.48 155.45 48.5c-4.85-2.1-4.53-8.3 2.05-8.3 11.22.17 122.66.39 128.48.43 5.8.01 8.26-2.25 8.26-8.51.02-6.53-.02-18.51-.1-23.77-.08-5.35-2-7.38-6.81-7.4l-133.5.16c-35.92-.08-45.14 5.2-55.31 17.42-13.27 15.95-9.05 37.53-1.44 48.66 8.58 12.45 22.73 17.95 45.26 25.84 27.28 8.87 91.54 31.47 91.54 31.47 5.89 2.55 5.44 8.72-1.83 8.72 0 0-122.58-1.1-128.39-1.12-5.81 0-8.65 2.83-8.68 8.45 0 5.62-.05 15.92-.08 21.76 0 5.78 1.68 9.08 7.5 9.29 5.78.2 111.18-.2 143.59-.26 24.66-.07 48.48-7.69 53.37-34.92 2.92-23.47-7-38.01-31.74-48.06"/></svg>