<svg xmlns="http://www.w3.org/2000/svg" width="170" height="38"><path fill="#223D7D" d="M148.7.77c2.92 0 5.68.15 7.97.46a14.8 14.8 0 0 1 12.71 12.1 39.55 39.55 0 0 1 0 11.94 14.95 14.95 0 0 1-12.7 12.26c-2.3.15-5.06.46-7.97.46h-.92c-3.06 0-5.67-.31-8.12-.46a14.79 14.79 0 0 1-12.56-12.26c-.15-.91-.46-3.36-.46-5.97 0-2.45.3-4.9.46-5.97a14.62 14.62 0 0 1 12.56-12.1c2.45-.3 5.06-.46 7.97-.46h1.07zm1.54 8.88l-2-.15c-.76 0-1.22 0-1.83.15a5.43 5.43 0 0 0-5.2 4.75c-.16 1.38-.16 3.52-.16 5.05 0 1.54 0 2.91.15 4.3.46 3.2 2.91 5.05 5.06 5.05h3.98c2.3 0 4.6-1.84 5.05-5.06.16-1.38.16-2.75.16-4.44 0-1.38 0-3.52-.16-4.9-.3-2.6-2.3-4.6-5.05-4.75zM93.42 19.3c0-1.99.15-3.98.61-5.97a14.63 14.63 0 0 1 12.56-12.1c2.3-.3 5.05-.46 7.97-.46 3.21 0 6.12.15 8.57.46.92.15 1.53.92 1.53 1.84v5.51c0 1.07-.76 1.84-1.68 1.84 0 0-2.91-.15-4.45-.15-1.83 0-3.36 0-5.05.15a5.28 5.28 0 0 0-5.05 4.75 35.7 35.7 0 0 0-.31 4.13v.15c0 1.38.15 2.76.3 4.14a5.42 5.42 0 0 0 5.06 4.9c1.53.15 3.37.3 5.05.3 1.54 0 4.45-.15 4.45-.15.92 0 1.68.77 1.68 1.84V36c0 .91-.61 1.68-1.53 1.83-2.45 0-5.36.16-8.57.16-2.92 0-5.67-.31-7.97-.46a14.79 14.79 0 0 1-12.56-12.26 24.22 24.22 0 0 1-.61-5.82v-.15zm-4.14 9.04c1.08 0 1.84.92 1.84 1.84v5.51c0 1.07-.77 1.84-1.84 1.84h-21.9a7.19 7.19 0 0 1-7.2-7.2V8.58a7.19 7.19 0 0 1 7.2-7.2h21.9c1.08 0 1.84.77 1.84 1.69v5.36c0 1.07-.77 1.84-1.84 1.84H75.81c-1.08 0-1.84.6-1.84 1.68v3.37l11.48-.15c.92 0 1.84.92 1.84 1.83v4.6c0 1.07-.92 1.84-1.84 1.84H73.97v3.06c0 1.07.76 1.84 1.84 1.84h13.47zm-55.74 9.19a7.27 7.27 0 0 1-6.9-5.06l-7.5-28.94v-.46c0-.92.77-1.69 1.84-1.69h11.18c.92 0 1.68.61 1.84 1.38l5.81 24.2c0 .3.31.61.77.61.3 0 .61-.3.61-.61l5.98-24.2a1.8 1.8 0 0 1 1.68-1.38h6.28c1.07 0 1.84.77 1.84 1.69v.46l-7.2 28.33a7.1 7.1 0 0 1-7.05 5.67h-9.18zM2.75 1.38h10.88c1.07 0 1.83.77 1.83 1.69v32.62c0 1.07-.76 1.84-1.84 1.84H2.76c-.92 0-1.84-.77-1.84-1.84V3.07c0-.92.92-1.69 1.84-1.69z"/></svg>