<svg xmlns="http://www.w3.org/2000/svg" width="225" height="160" version="1"><g stroke-linecap="round"><path fill="#fff" stroke="#000" stroke-width="8.52" d="M9.06 155.74l103.44-148 103.44 148H9.06z"/><path fill="#cd0000" stroke-width="4" d="M112.83 35.7l-5.33 7.53v69.72h9.92V42.2l-4.6-6.48zM124 51.47v61.5h9.93v-47.5l-9.93-14zm-23.1 1.04l-9.93 14v46.45h9.93V52.5zm39.62 22.23v38.22h9.92V88.74l-9.92-14zM84.39 75.8l-9.92 13.97v23.18h9.92V75.8zM157.04 98v14.95h10.62l-10.62-14.94zm-89.16 1.08l-9.85 13.87h9.85V99.08z"/><path fill="none" stroke="#000" stroke-width="2.69" d="M25.27 148.1L112.5 23.3l87.23 124.8H25.27z"/><path stroke-width="4" d="M53.21 118.38v23.83h12.88v-5.35h-6.56v-18.48H53.2zm20.42 0v23.83h12.88v-5.35h-6.56v-18.48h-6.32z"/><path fill="none" stroke="#000" stroke-width="6.55" d="M115.72 130.05a9.03 9.03 0 1 1-18.06 0 9.03 9.03 0 1 1 18.06 0z"/><path stroke-width="5.87" d="M123.63 118.11l8.91 19.1-1.87 4.19h6.53l10.41-22.33h-7l-4.8 10.71-5.17-11.67h-7z"/><path stroke-width="3.65" d="M153.99 118.56v24.25l8.24-.06c7.47 0 13.6-5.45 13.6-12.1 0-6.64-6.13-12.09-13.6-12.09H154zm5.47 5.45h2.77c4.17 0 7.52 2.94 7.52 6.65 0 3.7-3.35 6.68-7.52 6.68h-2.77V124z"/></g></svg>