<svg xmlns="http://www.w3.org/2000/svg" width="707" height="561"><defs><linearGradient id="a" x1="88.05%" x2="87.07%" y1="7.93%" y2="73.37%"><stop offset="0%" stop-color="#999"/><stop offset="100%" stop-color="#D7D7D7"/></linearGradient><radialGradient id="b" cx="28.14%" cy="42.58%" r="40%" fx="28.14%" fy="42.58%" gradientTransform="matrix(1 0 0 .2297 0 .33)"><stop offset="0%" stop-color="#FFF"/><stop offset="100%" stop-color="#919191"/></radialGradient></defs><g fill="none" fill-rule="evenodd"><path fill="#43565C" fill-rule="nonzero" d="M290.08 256.74c-20.83-28.2-45.63-44.03-71.17-56.74-4.14-2.06-8.3-4.04-12.48-5.99 12.1 4.76 23.79 10.2 42.47 20.86 20.5 11.69 38.92 36.63 50.56 53.87a729.2 729.2 0 0 0 4.38 6.41c-4.53-5.88-9.08-12.07-13.76-18.4"/><path fill="#657681" d="M83.59 302.4c.75 6.36 1.8 13.95 3.24 22.28 50.94 170.37 110.2 183.02 255.87 189.47 113.15 5 177.92-23.08 216.07-58.24 38.18-35.2 49.9-77.67 56.6-102 4.8-17.48 7.98-34.37 9.37-51.5h81.11c-3.29 55.02-20.59 108.28-57.14 155.42-45.2 55.68-115.88 81.28-177.04 92.93-61.19 11.64-113.12 9.37-121.09 9.12-7.95-.25-37.05.16-72.9-2.95-35.86-3.1-78.58-9.74-113.7-24.14-15.48-6.34-28.85-12.85-40.61-19.7-31.82-19.16-61.24-47.04-75.62-67.5C29.7 419.9 8.02 374.9 1.82 302.41H83.6zm265.11 0c2.48 3.44 4.43 5.44 5.48 5.72.63-.12 1.35-.63 2.42-1.92.83-1 1.74-2.3 2.7-3.8h70.83c-12.23 9.17-22.82 19.64-32.78 32.2-16.29 20.5-25.6 40.66-28.58 50.49-3.1 10.23-8.99 18.85-9.9 20.12-1.1 1.52-6.08 2.82-7.76-.1-1.72-1.53-3.47-4.7-5.07-8.84-2.1-5.41-4.71-13.88-10-24.52-5.25-10.6-13.15-23.38-25.86-37.48a261.21 261.21 0 0 0-34.05-31.86h72.57z"/><path fill="#657681" d="M1.82 302.4A491.84 491.84 0 0 1 .1 260.5v-1.38l.01-.46c.55-68.74 32.12-131.07 55.12-157.9 3.16-3.68 14.76-17 24.78-26.43C108.81 47.22 186.71-4.2 360.33.5c98.75.23 158.89 13.2 199.58 30.86a219.82 219.82 0 0 1 48.77 28.93c12.92 10.07 23.36 20.27 33.74 29.58l.28.25.11.35c.07.2 49.16 59.26 60.29 142.84a360.68 360.68 0 0 1 2.75 69.09h-81.1c1.42-17.49.99-35.25-1.47-54.18a324.17 324.17 0 0 0-4.85-22.92c.3-.2-1.74 1.56-1.74 1.56s-14.4 8.92-84.15 29.94c-46.38 13.97-77.73 27.11-102.41 45.6H359.3l.6-.94c2.38-3.84 4.94-8.52 7.3-12.36 5.2-8.47 21-31 43.48-52.06 21.94-20.56 74.6-44.79 113.51-59.24 7.13-2.65 13.6-5.24 19.4-7.7 16-7.39 31.86-16.75 46.07-26.13a37.55 37.55 0 0 0-2.55-7.14s-.68-1.77-2.27-4.75a103.07 103.07 0 0 0-7.97-12.52c-7.59-10.32-20.1-23.96-39.76-37.2-9.14-6.3-22.38-13.3-39.7-20.98-34.51-14.17-81.57-24.66-145.3-24.66-98.7 0-156.43 24.89-189.45 49.64-16.51 12.37-26.87 24.73-33.1 33.97a91.94 91.94 0 0 0-6.48 11.14c-1.28 2.63-3.18 6.41-3.18 6.41-1.88 5.25.25 7.5 4.09 9.99a761.64 761.64 0 0 0 21.5 13.23 406.07 406.07 0 0 0 39.01 16.7c38.91 14.45 91.57 38.68 113.51 59.24 22.5 21.1 37.23 44.04 42.4 52.47 2.36 3.82 5.13 8.4 7.75 12.13l.54.77h-72.57c-15.42-11.93-31.28-20.95-47.1-26.68-28.04-10.16-56.77-16.47-69.38-20.32a1452.7 1452.7 0 0 1-28.84-9.19l-1.5-.52c-13.64-4.75-27.61-10.75-40.79-18.38-.5-.3-.83-.37-1-.37a.59.59 0 0 0-.38.1c-.15.1-.32.26-.53.54-.24.31-.45.66-.66.97-.76 1.14-3.74 25.44-4.24 54.17.06 0 .45 7.63 1.88 19.68H1.82"/><path fill="#CCC" fill-rule="nonzero" d="M84.72 321.97c51.39 174.27 111.17 187.26 258.13 193.76 226.82 10.04 260.7-112.56 274.08-161.27 14.76-53.75 6.5-124.04 6.5-124.04l23.04 78.56-45.49 147.68-63.8 47.26-67.92 20.67-108.69 12.4-138.81-12.4L143.2 485l-39.58-56.7-15.36-53.76s-6.5-38.4-3.54-52.58z"/><path fill="#666" fill-rule="nonzero" d="M619.32 212.07s24.82 102.8-14.8 184.93c-39.6 82.13-77.3 132.3-253.37 132.9-176.07.59-212.64-72.7-239.84-123.46-27.2-50.77-30.7-123.46-30.7-123.46l-3.2 85.38 50.4 94.79 42 38.42 59.6 25.95 159.5 10.03 70.31-10.03 75-18.88 71.5-59.69 28.32-102.2-2.9-113.35c-4.4-17.4-8.34-24.52-11.82-21.33z"/><path fill="gray" fill-rule="nonzero" d="M49.4 158.23l16.34 10.71s-2.56 118.93-3.07 120.94c-.51 2.01 0 66.31 0 66.31l20.91 81.6-9.18 7.68-44.38-117.35 4.6-96.92 9.18-60.72 5.6-12.25z"/><path fill="url(#a)" fill-rule="nonzero" d="M624.14 215.21s25.2 105.5-12.91 187.03c-38.12 81.53-65.6 122.68-251.98 130.02-151.18 3.79-190.48-35.57-218.43-64.22-22.1-22.65-37.48-60.56-37.48-60.56s-68.23-126.25-61-86.43c9.48 52.19 24.6 126.96 83.37 173.9 36 28.75 108.6 46.47 108.6 46.47l113.72 9 101.75-6.04 160.93-62.04 68.82-150.46c-3.2-69.93-9.94-127.78-20.22-173.54l-22.45 19.38-12.72 37.49z"/><path fill="url(#b)" fill-rule="nonzero" d="M56.19 113.13s-2.97 31.73 4.13 50.36c-9.59 15.35-22.21 61.33-23.85 98.28-1.64 36.94 5.26 133.35 52.89 188.38-7.95 15.04-12.69 24.3-12.69 24.3S1.71 423.57 1.71 260.68c0-78.57 42.32-149.16 64.77-167.79-6.86 9.59-10.3 20.24-10.3 20.24z"/><path fill="#121113" fill-rule="nonzero" d="M7.1 291.95s2.15 78.93 31.65 129c29.5 50.07 56.12 82.1 125.97 110.73 69.86 28.63 170.23 26.48 186.12 26.98 15.9.5 207.2 9.07 296.98-101.52 51.44-66.33 64.82-144.9 54.1-223.46-10.72-78.56-50.57-124.46-50.57-124.46s5.54 14.24-1.01 53.6c9.71 16.9 25.47 73.02 22.44 117.91-3.02 44.9-11.26 105.79-45.4 153.46-21.93 30.65-39.34 52.09-87.26 74.54-47.91 22.44-121.3 33.67-187.63 32.66-66.33-1-130.14-6.18-183.74-30.65-53.6-24.46-82.08-61.66-102.51-91.3-20.44-29.64-4.68-14.61-29.64-39.21-24.97-24.6-29.5-88.28-29.5-88.28"/><path fill="#C9CDD1" fill-rule="nonzero" d="M57.75 100.51S126.95-4.24 360.5 2.08c197.3.46 239.77 51.86 281.18 89.02.9 2.7-16.4 16.73-16.4 16.73l-28.4 10.67-81.35-63.86-144.5-31.5s-136 16.1-141.65 15.4c-5.65-.7-94.73 49.07-94.73 49.07L118 138.7 65.23 98.84l-7.48 1.67"/><path fill="#E6E6E6" fill-rule="nonzero" d="M70.14 92.56S133.48-2.17 360.3 3.98c191.62.44 238.17 55.3 278.39 91.38-12.84 10.96-26.34 9.43-26.34 9.43l-22.48 12.25-79-62.02-140.35-30.6S238.46 40.07 232.97 39.39c-5.5-.67-92.01 47.67-92.01 47.67l-45.9 28.52-27.73-16.7 2.8-6.31z"/><path fill="gray" fill-rule="nonzero" d="M70.14 103.08S146.59 17.5 350.7 17.5s278.7 69.1 286.53 79.54c-8.87 11.4-24.89 23.58-24.89 23.58-52.29-32.86-101.4-58.82-147.3-77.87L341.6 24.52S195.7 58.19 192.89 58.19c-2.8 0-78.56 53.3-78.56 53.3s-6.2 10.43-11.96 9.14c-15.69-12.71-32.23-17.55-32.23-17.55z"/><path fill="#2A2E33" fill-rule="nonzero" d="M588.52 136.46S550.24 35.5 352.33 35.5c-197.9 0-232.16 99.84-232.16 99.84l-9.46-16.57 33.67-46.07 89.2-40.79 61.95-9.47 59.15-2.92 75.82 4.12 59.7 12.72 82.41 41.7 44.64 35.37 3.2 3.58-31.93 19.46"/><path fill="#B3B3B3" fill-rule="nonzero" d="M582.93 152.1s-19.1 12.74-58.04 27.2c-38.93 14.46-91.33 38.6-113.03 58.95-22.37 20.96-38.1 43.38-43.26 51.77-5.15 8.4-11.24 20.83-14.48 19.62-.4 7.17-2.02 50.04-2.02 50.04l2.42 1.62 20.43-35.29 67.74-73.7 30.84-32.87 105.05-50.15 4.35-17.19z"/><path fill="#121113" fill-rule="nonzero" d="M521.02 181.87c-12.65 5.54-71.98 24.24-101.37 60.14-10.01 12.24-27.58 44.46-32.38 52.26-4.8 7.8-28.01 57.49-33.67 64.34-5.65 6.86 30.16-28.96 30.16-28.96s97.15-86.36 99.3-87.64c2.13-1.29 36.66-32.39 36.66-32.39s11.22-32.1 1.3-27.75"/><path fill="#333" fill-rule="nonzero" d="M644.97 104.33s-50.89 44.9-102.72 68.2c-51.83 23.3-116.48 45.6-155.19 130.74-29.43 51.93 45.96-46.61 45.96-46.61l39.67-28.45 92-41.03 47.04-30.16 33.24-52.7z"/><path fill="#E6E6E6" fill-rule="nonzero" d="M645.83 103.47s-36.21 36.46-87.22 65.2c-16.87 9.51-61.75 29.16-82.41 40.1-45.52 24.08-69.06 66.48-76.42 75.13-7.37 8.66-45.32 76.86-45.32 76.86l16.36-3.52 63.06-83.27 51.31-31.1 117.03-36.67 38.38-31.96s9.3 4.72 12.08-38.81c1.72-26.82-6.85-31.96-6.85-31.96z"/><path fill="#333" fill-rule="nonzero" d="M559.74 246.53l-77.5 24.9-43.5 17.89-55.06 41.04s-12.98 23.14-14.03 28.06c-1.05 4.9-9.11 31.56-9.11 31.56l-1.06 8.77-2.8 3.5-2.46-15.78 1.39-21.54 10.75-19.88 12.41-21.36 23.15-24.9 31.91-18.94 54.02-16.84 44.89-11.57 27-4.9z"/><path fill="#999" fill-rule="nonzero" d="M616.07 225.91s-14.26 8.8-83.72 29.73-105.56 40.06-135.89 78.26c-16.38 20.63-25.78 40.95-28.82 50.96-3.03 10.01-8.82 18.49-9.7 19.72-.91 1.27-5.6 1.81-5.65-.92-.02-.94 4 2.55 5.37-7.49-.04-11.64 1.03-32.25 7.86-44.37 9.4-16.69 23.66-36.7 46.71-50.36 23.06-13.65 52.78-25.48 72.2-32.45 19.4-6.98 67.94-20.33 88.87-27.91 20.93-7.58 47.32-19.11 47.32-19.11l-4.55 3.94z"/><path fill="#B3B3B3" fill-rule="nonzero" d="M356.18 363.32s1.13 31.99 0 35.37c-1.12 3.37-6.72-1.7-6.72-1.7l-22.72-53.01-31.99-33.11-48.55-30.33-21.32-8.41-34.23-10.66-14.04-4.22-2.81-8.13 71.56 17.42 53.58 28.04 27.51 25.82 20.48 28.04 9.25 14.88z"/><path fill="#CCC" fill-rule="nonzero" d="M126.2 152.1s19.1 12.74 58.03 27.2c38.93 14.46 91.33 38.6 113.04 58.95 22.37 20.96 37.01 43.79 42.17 52.18 5.15 8.39 12.33 20.42 15.56 19.2.4 7.18 2.03 50.05 2.03 50.05l-2.43 1.62-20.42-35.29-67.75-73.7-30.83-32.87-105.06-50.15-4.34-17.19z"/><path fill="#E6E6E6" fill-rule="nonzero" d="M347.63 349.27l-27.76-34.66-50.43-43.27-160.2-62.5-48.83-44.15s-11.4-37.42-4.26-51.31c-.26-4.36 7.87-27.04 10.9-19.98 8.28 8.41 18.23 20.9 52.18 43.06-2.92 6.9-.19 9.91 4.2 12.77a785.92 785.92 0 0 0 21.91 13.47l28.6 15.77 55.68 28.07 29.48 18.58 28.83 30.37 21.57 26.63 23.32 30.37 23.88 47.65-9.07-10.87z"/><path fill="#1A1A1A" fill-rule="nonzero" d="M114.09 428.68c-12.36-8.67-27.88-15.86-43.02-25.56-12.17-7.8-21.76-40.1-26.52-66.96-16.97-95.67 16.55-166 16.55-166s.59-1.65-.06-2.24c-2.43-2.22-.69-6.23 3.14-3.69 42.8 28.44 53.77 28.69 87.3 44.32 48 22.4 98.34 22.19 151.73 76 25.42 25.62 50.68 76.06 53.6 75.43-.2 5.02-.96 28.74-.96 28.74s1.35-22.82-5.92-34.26c-29.5-46.41-72.72-65.72-72.72-65.72s-37.23-19.39-95.57-30.61c-25.15-4.84-60.97-13.77-92.2-31.84-2.58-1.5-3.54.32-4.44 1.67-1.7 2.55-8.43 66.85-1.45 108.2 6.47 38.39 15.35 59.16 30.54 92.52z"/><path fill="#3C444B" fill-rule="nonzero" d="M67.4 93.65s18.76 22.21 50.79 42.92c-13.4-4.97-19.4-5.74-31.5-14.97-8.13-6.2-19.29-27.95-19.29-27.95"/><path fill="#121113" fill-rule="nonzero" d="M641.25 92.68s-14.88 16.02-24.86 23.48c-9.97 7.47-26.68 19.7-26.68 19.7l30.44-15.05 21.1-28.13"/><path fill="#1A1A1A" fill-rule="nonzero" d="M91.71 113.61s26.84-37.17 71.73-58.95c44.9-21.78 74.84-26.44 102.56-30.52 26.63-3.92 80.58-4.94 84.82-5.02h.26c4.37.07 61.4 1.1 88.05 5.02 27.73 4.08 57.9 7.85 102.8 29.63 44.89 21.78 76.5 60.92 76.5 60.92s-11.26 2.65-18.14 8.28c-6.88 5.64-9.46 3.1-9.46 3.1s-.61-15.56-21.5-38.32c-20.9-22.76-53.19-36.2-94.98-51.15-40.4-14.45-118.14-14.93-123.27-14.95h-.26c-5 .02-79.67.5-120.04 14.95-41.79 14.95-66.1 32.12-87 54.88-20.88 22.75-25.23 45.82-25.23 45.82s-6.83-8.7-13.7-14.33a121.4 121.4 0 0 0-13.14-9.36z"/><path fill="#3C444B" d="M303.76 275.2c-4.37-5.99-8.92-12.18-13.6-18.51-20.85-28.23-45.67-44.06-71.21-56.78-4.14-2.06-8.3-4.04-12.48-5.98 12.02 4.93 23.7 10.37 42.39 21.02 20.47 11.68 38.88 36.6 50.52 53.84 1.44 2.14 2.9 4.28 4.38 6.41zM61.58 104.82c3.65 4.05 32.57 28.44 80.16 59.5 48.63 31.71 105.21 38.6 146.16 94.05 31.9 43.19 35.17 38.57 63.9 91.95-5.34-15.23-10.97-25.83-18.2-37.14-7.22-11.31-20.29-28.78-31.9-45.98-11.6-17.2-30.34-42.66-51.46-54.7-21.11-12.05-33.36-17.48-47.16-23-13.8-5.51-36.3-14.25-58.05-26.66s-59.14-37.98-83.45-58.02z"/><path fill="#1A1A1A" fill-rule="nonzero" d="M358.15 360.52c21.51-46.58 42.27-73.33 85.39-104.52 24.95-18.05 42.95-21.38 71.43-32.68 18.86-7.48 30.19-9.88 48.98-17.53 34.35-13.99 49.65-20.87 84.98-42.66 2.45 8.32-15.82 41-28.86 60.2-36.71 16.16-66.26 25.14-110.22 35.43-26.38 6.17-45.78 12.55-72.58 23.38-44.89 18.15-57.88 40.5-79.12 78.38z"/><path fill="#CCC" fill-rule="nonzero" d="M346.15 358.42c6.97 13.76 10.18 25.95 10.18 38.22 0 12.28-4.56 10.18-8.77-.7-4.21-10.87-10.52-34.02-36.13-62.43-25.6-28.4-53.66-48.75-81.71-58.92-28.06-10.17-56.82-16.48-69.45-20.34a1937.88 1937.88 0 0 1-30.66-9.78l31.71 8.02s71.9 16.14 112.94 40.34c41.03 24.2 60.88 43.83 71.9 65.59z"/><path fill="#C9CDD1" fill-rule="nonzero" d="M56.14 113.2c-1.57 1.9-41.67 51.42-54.43 147.48 0-74.36 38.04-143.3 61.15-166.26-3.23 4.82-6.74 15.6-6.72 18.77"/><path fill="#121113" fill-rule="nonzero" d="M118.4 137.08s-10.14-13.35-22.83-23.3c-12.68-9.94-22.35-14-22.35-14s7.02 8.63 21.31 19.9c14.3 11.26 23.86 17.4 23.86 17.4"/><path fill="#C9CDD1" fill-rule="nonzero" d="M73.28 99.87s8.1 2.5 19.93 12.06c0 0 25.42-34.48 63.03-53.63 37.6-19.14 74.75-31.07 125.75-36.12 0 0-62.93 2.14-126.84 34.64-36.23 18.42-62.22 52.37-62.22 52.37-6.34-4.67-12.89-7.78-19.65-9.32"/><path fill="#E6E6E6" fill-rule="nonzero" d="M649.41 161.4s6.92 9.03 15.5 43.71c6.53 26.36 7.95 52.26 7.95 52.26s-5.54-53.9-23.93-94.2l.48-1.76z"/><path fill="#F2F2F2" fill-rule="nonzero" d="M351.1 17.52c4.62-.11 61.58.8 88.3 4.74 13.93 2.05 28.46 4.02 45.15 8.21 16.73 4.2 35.61 10.63 58.2 21.6 22.67 11 41.96 26.35 55.55 38.94a269.29 269.29 0 0 1 16.38 16.55c2 2.21 3.8 4.3 5.1 5.84l-1.35 1.3s-31.61-39.15-76.5-60.93c-44.9-21.78-75.07-25.55-102.8-29.63-26.65-3.93-88.03-6.62-88.03-6.62z"/><path fill="#E6E6E6" fill-rule="nonzero" d="M185.24 492.03c88.65 42.12 266.65 39.61 342.87 0-80.14 48.32-255.2 50.82-342.88 0z"/><path fill="#CCC" fill-rule="nonzero" d="M614.92 397.6h30.74s-33.63 87.6-127.76 118.1c-39.39 12.76-98.38 13.45-98.38 13.45 107.63-6.3 162.98-40.72 195.4-131.53z"/><path fill="#FFF" fill-rule="nonzero" d="M372.6 331.91s28.13-59.1 94.8-92.52c17.55-8.8 46.94-15.85 46.94-15.85l-17.1 6.42c-19.15 6.89-34.33 12.03-53.7 26.04-33.27 24.07-53.23 45.49-70.49 75.41l-.46.5"/><path fill="#B3B3B3" fill-rule="nonzero" d="M362.68 357.98s12.96-57.58 105.7-85.15c-59.12 22.35-85.44 41.87-105.7 85.15z"/><path fill="#E6E6E6" fill-rule="nonzero" d="M353.07 400.5a34.4 34.4 0 0 1-2.68-5.65c-2.13-5.5-4.8-14.09-10.15-24.9-5.42-10.92-13.55-24.04-26.55-38.47a266.97 266.97 0 0 0-33.59-31.6c35.8 22.04 53.38 40.2 63.35 59.9 6.8 13.45 9.84 25.16 9.84 36.87 0 1.63-.09 2.9-.22 3.85z"/><path fill="#ECECEC" fill-rule="nonzero" d="M588.63 136.92l2.15 6.4s10.7-5.9 29.95-20.74c19.26-14.84 25.22-19.26 25.22-19.26s5.52 4.25 24.99 36.03c0 0-6.07-18.7-28.14-46.4l-22.4 27.64-31.77 16.33z"/><path fill="#666" fill-rule="nonzero" d="M285.76 255.53c-31.01-33.37-52.88-40.94-92.6-55.15-38.13-13.65-53.84-35.1-56.83-39.62l5.41 3.55c47.79 31.17 103.25 38.37 144.02 91.22z"/><path fill="gray" fill-rule="nonzero" d="M187.94 259.35s6.4 1.4 8.46 1.88a423.4 423.4 0 0 1 56.6 17.05 315.58 315.58 0 0 1 39.52 21.6c59.13 37.77 59.45 69.27 59.45 69.27s-.84-21.69-36.92-51.83c-36.36-30.38-98.15-49.64-116.42-54.88-3.35-.95-10.69-3.1-10.69-3.1z"/></g></svg>