<svg xmlns="http://www.w3.org/2000/svg" width="161" height="161"><g fill="none" fill-rule="evenodd"><path fill="#295CA7" fill-rule="nonzero" d="M80.41.26c44.12 0 80.09 35.97 80.09 80.15 0 44.05-35.98 80.09-80.09 80.09C36.3 160.5.26 124.46.26 80.41.26 36.23 36.3.26 80.41.26z"/><path fill="#FFF" fill-rule="nonzero" d="M80.41 10.43c38.47 0 69.92 31.45 69.92 69.98 0 38.47-31.45 69.85-69.92 69.85S10.5 118.88 10.5 80.4c0-38.53 31.44-69.98 69.91-69.98v.01zM33.61 42.8l25.07 65.05 9.2-23.76h24.08l9.2 23.76 25.33-65.84a60.4 60.4 0 0 0-15.88-13.52L93 76.93H68.2L50.54 28.3A60.85 60.85 0 0 0 33.6 42.8h.01zm103 16.34l-28.56 74.51a60.31 60.31 0 0 0 28.56-74.51zm-41.04 79.37l-.2-1.51-15.49-40.18L64.4 137l-.06 1.25a59.13 59.13 0 0 0 16.08 2.16c5.25 0 10.3-.65 15.16-1.9h-.01zm-43.98-5.52L23.76 60.45A59.95 59.95 0 0 0 51.59 133v-.01z"/><path fill="#295CA7" d="M80.41 20.34c5.25 0 10.44.66 15.36 1.97L80.61 64.26 65.38 22.25c4.9-1.27 9.96-1.9 15.03-1.9v-.01z"/></g></svg>