<svg xmlns="http://www.w3.org/2000/svg" xmlns:xlink="http://www.w3.org/1999/xlink" width="649" height="119"><defs><path id="a" d="M91.65 10.84a58.56 58.56 0 1 0 .28 96.6L44 59l47.65-48.16z"/></defs><g fill="none" fill-rule="evenodd"><path fill="#000" d="M598.95 83l-6.7-17.78L585.52 83h13.42zm9.82 26h-33.05l-3.6 9.53h40.25l-3.6-9.53zM605.6 4.53l43.03 114H535.85l43.03-114h26.72z"/><path fill="#FFF" d="M595.5 18.8l32.61 86.37h-71.74l32.6-86.37h6.54zm-2.61 5.46l25.63 67.9h-52.56l25.64-67.9-30.55 80.91h62.38L592.9 24.26zm0 0l27.53 72.95h-56.36l27.54-72.95h1.29z"/><path fill="#000" d="M496.36 44.77V4.53h37.5v114h-37.5 5.54L472.5 78.3v40.24H435v-114h37.5-5.55l29.41 40.24z"/><path fill="#FFF" d="M456.5 18L512 97.16V18h4.5v87H512l-55.5-79.16V105H452V18h4.5z"/><g transform="translate(311.92 .97)"><path fill="#000" d="M58.68 117.8a58.56 58.56 0 1 1 0-117.12 58.56 58.56 0 0 1 0 117.12zm0-34.3a24.51 24.51 0 1 0 0-49.01 24.51 24.51 0 0 0 0 49.02z"/><circle cx="58.68" cy="59.24" r="41.72" stroke="#FFF" stroke-width="4.5"/></g><path fill="#000" d="M247 4.53h23.36a39.35 39.35 0 0 1 21.58 71.91l19.94 42.1h-40.52l-16.5-34.85v34.84h-37.5v-114h29.63zM255 56c7.18 0 14-5.82 14-13s-6.82-13-14-13v26z"/><path stroke="#FFF" stroke-width="4.5" d="M258.8 70.56c15.62 0 28.29-11.93 28.29-26.66 0-14.72-12.67-26.66-28.3-26.66"/><path fill="#FFF" d="M237.5 68.31V19.5h21.87V15H233v90h4.5V72.8h21.87v-4.5H237.5zm25.23.69h4.5l18 36h-4.5l-18-36z"/><g transform="translate(93.92 .97)"><path fill="#000" d="M58.68 117.8a58.56 58.56 0 1 1 0-117.12 58.56 58.56 0 0 1 0 117.12zm0-34.3a24.51 24.51 0 1 0 0-49.01 24.51 24.51 0 0 0 0 49.02z"/><circle cx="58.68" cy="59.24" r="41.72" stroke="#FFF" stroke-width="4.5"/></g><path fill="#000" d="M100.8 18.6a58.56 58.56 0 1 0 .24 83L76.98 77.25a24.51 24.51 0 1 1 0-34.56l23.8-24.1z"/><g transform="translate(.92 .97)"><mask id="b" fill="#fff"><use xlink:href="#a"/></mask><circle cx="58.68" cy="59.24" r="41.72" stroke="#FFF" stroke-width="4.5" mask="url(#b)"/></g></g></svg>