<svg xmlns="http://www.w3.org/2000/svg" width="130.9" height="78"><g fill="#00652E" fill-rule="evenodd" clip-rule="evenodd"><path d="M23.43 49.5V25.4c0-2.1.65-2.74 2.59-2.42 0-1.7-.76-3.98-2.3-5.8v.06c0 1.32-.81 2.38-1.82 2.38s-1.83-1.06-1.83-2.38c0-.96.44-1.79 1.08-2.16a8.71 8.71 0 0 0-4.19-1.02c-2.93 0-5.65 1.13-8.08 2.9.73.3 1.26 1.19 1.26 2.24 0 1.32-.82 2.38-1.83 2.38-1 0-1.83-1.06-1.83-2.38l.02-.24a30.57 30.57 0 0 0-4.41 5.5l1.37 2.4c1.94-1.78 3-.42 3 1.47v34.02c0 3.57-2 2.94-2.84.52-1.98 2.58-.61 7.4 2.83 6.04v2.78c0 1.89-1.86 2.52-2.99 2.2 3.07 5.99 8.65 1.69 8.81-2.2 3.48 1.57 5.66-1.36 4.77-5.35-1.7 2.83-4.77 1.68-4.77-.84v-7.56a5.62 5.62 0 0 0 5.18 3.67c3.01 0 5.86-4.34 5.97-7.18 1.67-.62 2.25.71 2.03 3.09 2.56-1.41 2.89-8.9-2.02-8.03zm-6.03 2.46c0 1.8-1.13 3.2-2.52 3.1-1.39-.08-2.52-1.61-2.52-3.42V26.39c0-1.81 1.13-3.34 2.52-3.43 1.39-.1 2.52 1.3 2.52 3.1v25.9"/><path d="M43.48 31.07v-9.35c0-4.02-5.06-6.64-8.81-5.14-6.3 2.52-7.52 6.77-7.52 13.12v8.92c0 7.04 3.88 11.55 9.63 9.24 4.98-2 6.7-5.76 6.7-9.66v-3.88l-5.5 1.47v4.72c0 2.1-1.2 3.15-2.18 3.47-1.02.33-2.67.2-2.67-2.73V33.9l10.35-2.83zm-10.34-4.94c0-3.48.46-4.78 2.42-5.56 1.4-.56 2.1.75 2.1 2.96v4.91l-4.52 1.28v-3.59m75.6 9V25.8c0-4.02-3.61-9.33-7.36-9.84-6.3-.86-8.98 2.73-8.98 9.08v12.65c0 4.88 4.37 9.08 8.65 9.66 5.85.77 7.69-3.89 7.69-7.04V38.4l-5.5-1.48v3.93c0 2.1-1.22 2.5-2.19 2.3-1.02-.22-2.66-1.22-2.66-4.16v-6.55l10.35 2.7zM98.39 24.66c0-3.48.46-4.53 2.42-4.27 1.4.19 2.1 1.89 2.1 4.1v4.9l-4.52-1.14v-3.59M76.07 12.8c-2.15 0-3.6 1.82-5.1 3.77v-3.56H62.9v2.83c.32 0 2.02 0 2.02 2.41v17.96c0 2.41-1.7 2.83-2.5 2.83v2.42h11.07v-2.42c-.8 0-2.5-.42-2.5-2.83V19.02a3.42 3.42 0 0 1 5.09 3.12v3.78l2.99-1.26V12.8h-2.99m47.94 11.86c-2.2 0-3.6.93-5.1 2.3V23.4l-8.32-3.2v2.83c.56.23 2.26.88 2.26 3.3V45.4c0 2.4-1.7 2.08-2.83 1.51v2.58l11.4 5.4v-2.88a4.26 4.26 0 0 1-2.5-3.94V29.42c2.36-.34 5.09 2.26 5.09 5.07v4.46l2.59-.1V25.13s-1.14-.48-2.6-.48M58.5 13.04c-2.15.36-3.6 2.44-5.09 4.64v-3.9l-8.09 1.38v3.17c.33-.05 2.02-.34 2.02 2.07v17.95c0 2.42-1.7 3.13-2.5 3.27v2.4l11.08-1.88v-2.42c-.81.14-2.5.01-2.5-2.4v-17.2c2.35-1.64 5.09-.55 5.09 2.26v3.9l2.99-1.76v-12l-3 .52m30.02 24.64v-23.2l-8.08-1.15v2.83c.32.05 2.02.29 2.02 2.7v17.96c0 2.4-1.7 2.59-2.51 2.47v2.42l11.08 1.58v-2.42c-.81-.11-2.51-.77-2.51-3.2m-3.15-25.04c1.9 0 3.43-2 3.43-4.45 0-2.46-1.54-4.46-3.43-4.46-1.9 0-3.43 2-3.43 4.46s1.53 4.45 3.43 4.45m41.77 45.5c-1.6 0-2.88-1.27-2.88-2.87s1.27-2.87 2.88-2.87 2.88 1.27 2.88 2.87-1.27 2.87-2.88 2.87v-.46a2.4 2.4 0 1 0 0-4.8 2.4 2.4 0 1 0 0 4.8v.46"/><path d="M126.52 56.9h-.5v-3.23h1.27c.75 0 1.14.19 1.14.85 0 .68-.46.84-.84.84l.86 1.54h-.56l-.8-1.5h-.57v-.46h.77c.37 0 .64-.04.64-.42 0-.32-.2-.39-.63-.39h-.78v2.77"/></g></svg>