<svg xmlns="http://www.w3.org/2000/svg" width="125" height="12.28"><path d="M0 12.27V.01h11c.76 0 1.51.34 2.05.88a4.79 4.79 0 0 1-.02 6.52 3.1 3.1 0 0 1-2.15.87c-1.46.03-2.92 0-4.38.01-.96-.98-1.94-1.93-2.9-2.9H11c.5-.42.46-1.14.4-1.73-.05-.3-.16-.74-.53-.76-2.66-.02-5.32 0-7.98-.01v9.38H0M29.21 0l3.1.01 2.57 7.27L37.3.34c.06-.13.08-.39.3-.33h2.87l2.56 7.25c.89-2.41 1.75-4.83 2.63-7.25h3.06l-4.4 12.26H41.8l-2.81-7.85c-.95 2.61-1.88 5.23-2.82 7.85h-2.54L29.21.01m20.06 12.26V.01h12.44v2.88h-9.55v1.8h8.91v2.9h-8.92v1.8h9.56v2.88H49.27M62.9.01h10.71a4.1 4.1 0 0 1 1.9.26 3.8 3.8 0 0 1 2 2.7c.29 1.39.1 2.96-.82 4.1a3.03 3.03 0 0 1-2.16 1.18c-.49.03-.97 0-1.46.01l3.6 4.01h-3.96L66.57 5.4l7.41-.01c.44.02.69-.44.73-.82.04-.48.06-1.03-.23-1.44-.14-.2-.4-.24-.63-.23h-8.07v9.38H62.9V.01m45.42 0h12.42v2.87h-9.55v1.8a1370.48 1370.48 0 0 0 8.9 0V7.6l-7.49.01h-1.41l-.02 1.82c3.18-.02 6.37-.01 9.56 0 .01.95-.02 1.9.02 2.85H108.3c.03-4.08 0-8.17.01-12.26m-27 3.51c-.04.65 0 1.31-.01 1.97h8.63c-.02-.7.05-1.4-.04-2.1a.6.6 0 0 0-.68-.52h-7.34c-.35-.02-.55.34-.56.65zm-2.77-.83c.34-1.37 1.52-2.62 2.99-2.68l7.9-.02c.24 0 .5 0 .74.07a3.7 3.7 0 0 1 2.63 3.56v8.64h-2.86c-.03-1.3 0-2.6-.01-3.9H81.3v3.9h-2.88c0-1.05.02-2.1 0-3.14V4.57c0-.63-.05-1.26.12-1.87m18.24.18V9.4h6.48c.35 0 .76-.05 1-.34.2-.24.19-.58.2-.88v-4.2c-.01-.25 0-.55-.2-.76-.23-.3-.64-.35-1-.34h-6.48zM93.88 0h5.19c1.12.03 2.25.01 3.38.02.75 0 1.53-.07 2.25.19a3.82 3.82 0 0 1 2.63 3.32c.05 1.16 0 2.32.02 3.48-.02.91.1 1.85-.22 2.72a4.49 4.49 0 0 1-1.39 1.86 3 3 0 0 1-.7.39c-1.13.4-2.35.27-3.53.29h-7.63V0M18.45 2.97c-.42.14-.6.6-.58 1.02v4.18c0 .36.04.79.36 1.01.29.2.66.21 1 .22h6.17c.36 0 .76-.04 1.03-.3.24-.24.25-.6.24-.92v-4.3c0-.3-.1-.62-.35-.8-.26-.19-.6-.19-.92-.2h-5.82c-.38.02-.76-.03-1.13.1zM18.01.11c.55-.14 1.12-.1 1.69-.1h5.34c.5 0 1.01-.03 1.5.1a3.81 3.81 0 0 1 3.04 3.88v4.54a3.67 3.67 0 0 1-1.12 2.59 4 4 0 0 1-2.83 1.15h-6.75a3.97 3.97 0 0 1-2.8-1.18A3.7 3.7 0 0 1 15 8.41V3.65A3.85 3.85 0 0 1 18.02.11M123.4 10.76v-.43c.16.05.42.03.42.27-.1.14-.28.12-.43.16zm.53.26c.16-.19.34-.44.2-.7-.21-.4-.75-.22-1.11-.26v1.55h.36c0-.22.02-.44.05-.66.15.2.28.42.37.65h.42l-.29-.58"/><path d="M124.62 10.85c.04.78-.93 1.37-1.6.93-.75-.4-.68-1.67.14-1.96.67-.3 1.52.29 1.46 1.03zm.37-.14c-.03-.93-1.1-1.59-1.95-1.23a1.44 1.44 0 1 0 1.95 1.23"/><path d="M123.4 10.76v-.43c.16.05.42.03.42.27-.1.14-.28.12-.43.16zm.53.26c.16-.19.34-.44.2-.7-.21-.4-.75-.22-1.11-.26v1.55h.36c0-.22.02-.44.05-.66.15.2.28.42.37.65h.42l-.29-.58"/><path d="M123.4 10.76v-.43c.16.05.42.03.42.27-.1.14-.28.12-.43.16zm.53.26c.16-.19.34-.44.2-.7-.21-.4-.75-.22-1.11-.26v1.55h.36c0-.22.02-.44.05-.66.15.2.28.42.37.65h.42l-.29-.58"/></svg>