<svg xmlns="http://www.w3.org/2000/svg" width="638" height="150"><path class="ps03" d="M152.88 8.24l-38.32 95.32c10.3-28.7 37.76-94.21 38.32-95.32zm476.07 67.09c-2.67-4.07-3.3-6.32-3.47-8.84-.1-1.71 1.12-4.74 1.4-6.06.03-.65-.36-.92-.84-.92h-12.72c-.7 0-1.11.64-1.38 1.15-7.09 17.29-13.01 25.81-18.5 31.92-6.95 7.19-15.4 12.3-19.4 13.78-2.25.82-5.56 1.65-7.38 1.65-3.89 0-6-4.27-6-7.96 0-1.35-.1-3.03.1-4.16 10.5-4.46 33.2-11.8 33.2-25.85 0-6.01-5.04-10.92-12.56-10.92-6.1 0-13.1 2.05-20.36 7.91-10.04 8.04-17.22 21.97-17.48 34.1a162.13 162.13 0 0 1-12.85 6.62c-.86.37-1.21-1.15-.52-3.06a474.44 474.44 0 0 1 10.2-25.7c1.79-4.07 3.15-8.54 3.45-11.68.32-3.42-1.37-7.6-6.6-7.6-11.38 0-22.4 13.76-30.17 24.4h-.46l9.13-21.63c.32-.73-.49-1.03-1.14-1.03h-10.86c-.7 0-1.11.61-1.38 1.12-.7 1.75-2.98 7.22-5.79 13.98-4.86 3.22-9.2 3.36-10.78 1.16-1.94-2.73-.17-6.65 2.43-10.4 2.15-3.1 3.59-6.56.57-8.41-1.63-1.02-4.88.52-7.75 3.03-6.33 5.53-7.64 6.05-18.58 17.83a1622.1 1622.1 0 0 1 7.22-16.8c.33-.73-.44-1-1.09-1h-12.92c-.7 0-1.09.5-1.35 1.02-.36.66-9.16 22.02-15.33 36.98-5.62 3.85-14.57 8.71-17.35 8.33-.85-.13-1.09-1.14-.45-2.87 5.63-15.32 12.13-29.71 17.75-42.27.33-.74-.38-1.16-.99-1.16h-13.07c-.66 0-1.05.5-1.32 1.02l-.04.06-1.36 3.14h-.3c-.46-2.42-4.05-4.82-7.47-5.01-8.74-.45-20.43 3.97-30.65 21.44a41.6 41.6 0 0 0-5.34 17.63c-2.75 1.94-5.46 3.72-7.47 5.13-5.06 3.6-8.59 3.52-10.89-2.78-.94-2.6-3.75-8.63-4.96-11.68 4.35-1.21 14.02-3.94 18.88-8.25 4.6-4.04 7.17-8.62 7.17-13.88 0-5.12-3.46-9.97-10.88-9.97-6.15 0-10.5 1.62-15.62 5.39a41.73 41.73 0 0 0-6.6 5.78c1.8-3.42 2.45-5.5 3.14-7.22a6651.22 6651.22 0 0 1 22.04-53.07c.16-.38-.03-1.07-.64-1.07H359.7c-.7 0-1.45.54-1.71 1.26-.1.26-20.08 48.68-32.82 79.47-7.34 8.95-18.05 15.28-22.66 16.98-2.26.82-5.56 1.65-7.39 1.65-3.88 0-6-4.27-6-7.96 0-1.35-.1-3.03.12-4.16 10.5-4.46 33.2-11.8 33.2-25.85 0-6.01-5.05-10.92-12.58-10.92-6.08 0-13.09 2.05-20.35 7.91-9.55 7.65-16.5 20.63-17.4 32.3-5.43 3.25-10.06 5.94-14.8 7.9-3.58 1.46-2.48-1.97-1.85-3.56a2458.5 2458.5 0 0 1 15.3-37.54h9c.5 0 1.07-.44 1.28-.97l1.15-2.5c.2-.53-.05-.96-.55-.96h-9.03c4.5-10.81 7.92-18.95 8.01-19.18.15-.34-.28-1.14-.92-1.14h-12.52c-.7 0-1.4.65-1.61 1.17-.1.21-3.54 8.3-8.05 19.15h-4.79c-.5 0-1.07.43-1.28.96l-1.15 2.5c-.2.53.05.97.55.97h4.83l-2.25 5.46c-6.08 7.58-13.1 6.64-16.83 5.75-.04-10.17-5.18-17.28-13.45-17.28-10.07 0-21.75 10.54-27.62 24.3-3.33 6.97-11.18 13.78-19.14 18.91a59.36 59.36 0 0 0 7.1-14.41c5.35-15.91 2.3-28.8-8.2-28.8-4.65 0-9.77 2.54-14.5 6.76l1.48-3.29c.33-.57.52-1.83-.88-1.83h-11.44c-.97 0-2.24.81-2.55 1.49a717.93 717.93 0 0 0-12.68 30.15c-5.15 4.43-12.33 10.03-17.76 12.86-2.43 1.26-2.99-1-2.41-2.64 10.3-28.7 37.76-94.21 38.32-95.32.57-1.1.29-2.17-1-2.34-41-7.66-59.66 21.32-70.77 50.52h-5.98c-.51 0-1.08.43-1.27.96l-1.5 2.16c-.19.54.06.97.57.97h6.67c-11.45 31.12-16.06 55.28-43.87 55.28-11.33 0-22.92-11.58-22.65-23.5.33-14.3 11.65-21.45 18.44-24.18-13.58-3.07-26.2 10.56-26.85 24.18-.3 6.33 4.73 12.22 10.36 17.36 4.95 4.53 9.85 8.7 19.08 8.86 39.02.66 52.38-39.23 58.63-58h19.69c-7.38 18.13-14.48 36.12-18.1 47.28-3.05 9.34 5.81 10.6 9.38 9.54 12.63-3.79 22.07-10.59 27.56-15.23-7.03 18-13.4 35.43-15.2 41.79-.42.91.19 1.47 1.77 1.44 1.83-.02 10.26.02 11.29-.02 1.3-.05 1.43-.83 1.78-1.79 1.8-4.95 9.41-25.62 13.8-37.05 1.18 6.8 5.15 11.17 11.26 11.17.4 0 .78-.01 1.17-.05l.77-.08.16-.04c.25-.03.49-.07.75-.13l.27-.06c8-1.78 24.74-10.56 33.1-21.08-1.63 12.34 3.35 21.44 12.71 21.44 11.15 0 24.78-12.88 29.82-28.78a40.87 40.87 0 0 0 1.54-6.74c3.69.47 9.2 1.08 13.87-2.41a765.77 765.77 0 0 0-11.22 29.01c-3.94 11.18 6.06 9.93 14.38 6.12 8.75-4.02 13.52-7.17 18.85-10.59.78 7.57 5.3 13.27 13.76 13.27 6.28 0 12.5-2.27 17.76-5.2 6.03-3.35 12.99-8.26 18-14.44-4.01 9.73-6.72 16.27-6.8 16.43-.32.68.16.94.89.94h12.86c1.13 0 1.42-.55 1.66-1.06 1.18-3.23 3.64-9.26 5.52-14.3 1.28-3.51 1.95-4.94 4.76-4.94.77 0 1.31.56 1.72 1.3 1.44 3.13 5.55 12.41 7.53 16.65 1.96 4.2 5.97 7.26 13.8 2.26a253.67 253.67 0 0 0 14.89-10.22c.63 5.9 3.36 10.49 9.14 11.21 9.18 1.16 17.5-7.03 23.31-15.62 0 0-3.38 8.47-3.84 9.9-1.3 3.96.83 7.23 4 7.23 6.38 0 16.4-4.7 24.84-10.3l-2.88 6.95c-.33.68.15.94.88.94h12.86c1.14 0 1.42-.55 1.66-1.06a645.2 645.2 0 0 1 8.6-21.54c5.6-8.28 11.04-12.1 14.17-15.03-2.86 5.05-1.13 11.32 5.83 11.32 3.74 0 9.63-.91 16.82-5.9a3855.11 3855.11 0 0 0-12.92 31.22c-.24.71.13.99.86.99h12.87c1.13 0 1.35-.65 1.56-1.19 6.4-16.19 14.24-28 21.65-37.44 4.63-5.9 8.64-8.4 10.28-8.4 1.04 0 1.43.8 1.34 1.84-.13 1.32-.76 3.02-2.1 6.17-3.8 9.19-7.7 18.4-11.7 27.76-7.3 17.14 5.29 14.11 8.82 12.35 7.58-3.79 13.72-6.77 19.45-10.03 1.34 6.52 5.76 11.2 13.43 11.2 6.28 0 12.5-2.26 17.76-5.19 6.41-3.58 17.03-11.63 22.85-18.84v-.03c5.29-5.97 8.75-11.78 13.07-18.96 1.47 4.62 2.53 6.73 6 12.33 3.19 5.19 4.26 8.13 4.26 11.22 0 6.02-5.6 12.2-10.93 12.2-2.93 0-4.7-2.92-4.78-6-.08-3.33-3.73-4.8-5.19-5-5.15-.67-11.82 6.2-7.92 13.07 1.85 3.25 5.64 5.21 11.5 5.21 13.72 0 29.3-15.84 29.3-29.86 0-3.78-1.06-7-4.39-12.33zm-57.67-6.66c1.95-2.32 3.9-3.54 5.58-3.54 1.55 0 2.46 1.63 2.46 3.13-.13 3.42-2.07 8.6-4.66 11.46A53.35 53.35 0 0 1 561.58 90c1.17-5.05 5.04-16 9.7-21.33zm-271.52 0c1.95-2.32 3.9-3.54 5.57-3.54 1.56 0 2.47 1.63 2.47 3.13-.13 3.42-2.07 8.6-4.67 11.46A53.27 53.27 0 0 1 290.07 90c1.16-5.05 5.03-16 9.7-21.33zM94.1 56.42c6.18-17.93 20.18-46.71 38.79-46-4.25 10.73-11.53 28.2-18.8 46H94.1zm72.82 31.85c-4.58 11.14-11.54 20.16-15.32 20.16-3.78 0-3.14-9.02 1.44-20.16 4.58-11.13 11.37-20.16 15.15-20.16 3.79 0 3.32 9.03-1.27 20.16zm62.2-.65c-4.97 12.06-12.5 21.84-16.6 21.84-4.1 0-3.4-9.78 1.56-21.84 3.53-8.57 3.19-4.53 7.1-8.11-1.05 4 4.52-.75 10.2 1.8-.6 2-1.36 4.12-2.27 6.31zm112.46 2.2c-1.4 0-2.04-.4-2.04-.94 0-.67 1.15-3.36 2.69-5.38 7.54-10.24 13.43-15.1 17.91-15.1 2.3 0 4.1 1.5 4.1 4.32 0 4.04-4.1 7.95-9.08 11.59-5.9 4.17-10.76 5.52-13.58 5.52zm71.48-2.87c-4.91 10.72-12.07 19.25-15.8 19.09-3.7-.17-2.7-8.97 2.21-19.69 4.92-10.7 11.92-19.25 15.62-19.08l-2.03 19.68" fill="#fff" fill-rule="evenodd"/><path class="ps04" d="M152.89 8.25l-38.32 95.32c10.3-28.7 37.75-94.21 38.32-95.32zm476.06 67.08c-2.67-4.07-3.3-6.32-3.46-8.83-.11-1.72 1.1-4.76 1.38-6.06.04-.65-.35-.93-.83-.93h-12.72c-.7 0-1.1.64-1.38 1.15-7.08 17.3-13.01 25.82-18.5 31.92-6.95 7.2-15.4 12.32-19.4 13.78-2.26.83-5.55 1.65-7.38 1.65-3.89 0-6-4.27-6-7.96 0-1.35-.11-3.03.1-4.16 10.5-4.46 33.2-11.8 33.2-25.85 0-6-5.05-10.91-12.57-10.91-6.09 0-13.09 2.04-20.35 7.9-10.04 8.04-17.21 21.98-17.48 34.1-4.26 2.41-9.01 4.9-12.85 6.61-.85.39-1.21-1.13-.51-3.05a465.26 465.26 0 0 1 10.2-25.7c1.78-4.07 3.13-8.53 3.43-11.68.33-3.41-1.36-7.61-6.59-7.61-11.38 0-22.4 13.78-30.16 24.4h-.47l9.13-21.62c.32-.73-.48-1.03-1.13-1.03h-10.86c-.7 0-1.12.62-1.4 1.12-.7 1.75-2.97 7.22-5.77 13.97-4.87 3.23-9.22 3.38-10.8 1.17-1.93-2.73-.16-6.65 2.43-10.39 2.16-3.11 3.6-6.57.58-8.42-1.64-1.02-4.88.53-7.75 3.03-6.34 5.53-7.64 6.05-18.57 17.83 2.76-6.51 5.33-12.5 7.21-16.8.33-.73-.45-1-1.1-1h-12.9c-.7 0-1.1.51-1.37 1.02-.34.67-9.15 22.03-15.32 36.99-5.62 3.85-14.57 8.71-17.36 8.32-.84-.13-1.07-1.13-.44-2.86 5.62-15.33 12.13-29.72 17.75-42.28.33-.74-.37-1.16-1-1.16h-13.06c-.66 0-1.05.5-1.32 1.02l-.04.05-1.36 3.15h-.3c-.46-2.42-4.05-4.83-7.48-5-8.73-.46-20.43 3.97-30.65 21.44a41.56 41.56 0 0 0-5.33 17.62c-2.76 1.93-5.47 3.72-7.46 5.14-5.08 3.6-8.6 3.51-10.9-2.78-.94-2.61-3.75-8.64-4.96-11.69 4.35-1.22 14.01-3.94 18.87-8.25 4.61-4.04 7.18-8.62 7.18-13.88 0-5.11-3.46-9.97-10.88-9.97-6.14 0-10.5 1.62-15.62 5.4a41.2 41.2 0 0 0-6.6 5.78c1.79-3.44 2.44-5.51 3.14-7.22 5.99-14.82 21.88-52.7 22.04-53.08.17-.38-.03-1.06-.65-1.06h-12.85c-.69 0-1.44.53-1.72 1.25-.09.27-20.07 48.68-32.8 79.47-7.35 8.95-18.07 15.29-22.68 16.98-2.25.83-5.55 1.65-7.37 1.65-3.9 0-6.01-4.27-6.01-7.96 0-1.35-.1-3.03.1-4.16 10.52-4.46 33.22-11.8 33.22-25.85 0-6-5.05-10.91-12.58-10.91-6.08 0-13.09 2.04-20.35 7.9-9.55 7.65-16.5 20.63-17.4 32.3-5.43 3.25-10.07 5.95-14.8 7.9-3.57 1.46-2.48-1.97-1.85-3.57 4.1-10.39 10.15-25.13 15.3-37.53h9c.5 0 1.07-.44 1.27-.96l1.16-2.5c.2-.54-.05-.97-.56-.97h-9.02c4.49-10.8 7.92-18.94 8.01-19.17.15-.35-.28-1.15-.93-1.15h-12.5c-.7 0-1.4.65-1.63 1.17-.08.22-3.53 8.3-8.04 19.15h-4.79c-.5 0-1.08.43-1.28.97l-1.15 2.5c-.2.52.05.96.56.96h4.82l-2.25 5.46c-6.09 7.59-13.1 6.64-16.83 5.75-.04-10.17-5.17-17.27-13.45-17.27-10.07 0-21.76 10.52-27.63 24.3v-.03c-3.32 6.99-11.17 13.8-19.13 18.94a59.97 59.97 0 0 0 7.11-14.42c5.34-15.9 2.3-28.8-8.2-28.8-4.66 0-9.78 2.54-14.5 6.76l1.48-3.28c.32-.57.5-1.84-.89-1.84h-11.43c-.97 0-2.25.82-2.56 1.5a713.11 713.11 0 0 0-12.68 30.14c-5.14 4.42-12.33 10.03-17.76 12.86-2.43 1.27-2.99-1-2.4-2.63 10.3-28.7 37.75-94.21 38.32-95.32.56-1.11.28-2.18-1.02-2.34-41-7.67-59.66 21.3-70.76 50.51h-5.99c-.5 0-1.07.43-1.27.97l-1.49 2.16c-.19.53.06.96.56.96h6.68c-11.45 31.13-16.05 55.28-43.87 55.28-11.33 0-22.92-11.58-22.65-23.5.33-14.3 11.65-21.45 18.44-24.18-13.58-3.07-26.2 10.56-26.85 24.18-.3 6.34 4.73 12.22 10.36 17.36 4.95 4.53 9.85 8.71 19.08 8.86 39.01.67 52.38-39.24 58.63-58h19.68c-7.37 18.13-14.47 36.12-18.1 47.28-3.04 9.34 5.82 10.6 9.39 9.53 12.62-3.78 22.06-10.57 27.56-15.22-7.03 18-13.4 35.43-15.2 41.79-.43.9.2 1.47 1.77 1.45 1.83-.03 10.26 0 11.29-.03 1.3-.06 1.43-.82 1.77-1.8 1.8-4.94 9.42-25.6 13.8-37.05 1.2 6.81 5.16 11.19 11.27 11.19a13.17 13.17 0 0 0 1.94-.14l.16-.03.76-.14.26-.06c8-1.78 24.75-10.56 33.11-21.07-1.64 12.34 3.35 21.44 12.7 21.44 11.14 0 24.78-12.9 29.82-28.79a41.19 41.19 0 0 0 1.54-6.73c3.68.46 9.21 1.08 13.87-2.43a770.45 770.45 0 0 0-11.22 29.03c-3.94 11.17 6.06 9.92 14.38 6.1 8.75-4 13.52-7.16 18.86-10.58.78 7.57 5.3 13.27 13.74 13.27 6.3 0 12.52-2.27 17.77-5.2 6.02-3.35 12.98-8.26 18-14.43-4.01 9.72-6.71 16.26-6.8 16.43-.32.68.16.93.89.93h12.86c1.13 0 1.4-.54 1.65-1.06 1.19-3.23 3.65-9.26 5.52-14.3 1.28-3.5 1.95-4.93 4.77-4.93.78 0 1.31.55 1.72 1.28 1.43 3.14 5.55 12.43 7.53 16.66 1.97 4.2 5.98 7.26 13.8 2.26a252.43 252.43 0 0 0 14.89-10.22c.62 5.9 3.36 10.49 9.14 11.22 9.19 1.15 17.5-7.04 23.31-15.63 0 0-3.38 8.47-3.84 9.89-1.3 3.97.83 7.24 4 7.24 6.38 0 16.4-4.7 24.84-10.3-1.69 4.09-2.81 6.8-2.89 6.96-.31.68.16.93.89.93h12.86c1.14 0 1.42-.54 1.65-1.06 1.89-5.12 5.11-13.1 8.6-21.53 5.6-8.29 11.05-12.1 14.18-15.03-2.86 5.04-1.13 11.32 5.82 11.32 3.75 0 9.64-.92 16.83-5.9-5.84 14.04-12.53 30.12-12.92 31.22-.25.7.13.98.87.98h12.86c1.13 0 1.35-.66 1.55-1.19a146.61 146.61 0 0 1 21.65-37.44c4.64-5.9 8.66-8.39 10.3-8.39 1.03 0 1.42.78 1.32 1.83-.12 1.32-.75 3.02-2.1 6.17A2429.9 2429.9 0 0 1 515.73 104c-7.31 17.14 5.28 14.12 8.8 12.35 7.58-3.78 13.72-6.77 19.45-10.03 1.34 6.52 5.78 11.21 13.44 11.21 6.28 0 12.5-2.27 17.77-5.2 6.4-3.58 17.02-11.62 22.84-18.84v-.02c5.29-5.98 8.74-11.78 13.07-18.98 1.47 4.63 2.53 6.74 6 12.34 3.2 5.2 4.26 8.14 4.26 11.22 0 6.03-5.6 12.2-10.93 12.2-2.93 0-4.7-2.92-4.78-6-.08-3.32-3.73-4.8-5.18-5-5.16-.67-11.82 6.2-7.93 13.07 1.84 3.25 5.64 5.21 11.5 5.21 13.73 0 29.3-15.84 29.3-29.86 0-3.78-1.06-7-4.39-12.33zm-57.66-6.66c1.94-2.31 3.89-3.54 5.57-3.54 1.56 0 2.46 1.64 2.46 3.14-.13 3.4-2.08 8.59-4.66 11.45A53.06 53.06 0 0 1 561.58 90c1.17-5.05 5.04-16 9.7-21.33zm-271.53 0c1.95-2.31 3.9-3.54 5.57-3.54 1.56 0 2.47 1.64 2.47 3.14-.13 3.4-2.07 8.59-4.67 11.45A53.02 53.02 0 0 1 290.07 90c1.16-5.05 5.02-16 9.7-21.33zM94.1 56.42c6.17-17.93 20.17-46.71 38.78-46-4.24 10.74-11.53 28.2-18.8 46H94.1zm72.81 31.85c-4.58 11.14-11.54 20.17-15.32 20.17-3.78 0-3.14-9.03 1.44-20.17 4.58-11.14 11.37-20.16 15.15-20.16 3.79 0 3.31 9.02-1.27 20.16zm62.2-.64c-4.97 12.05-12.5 21.83-16.6 21.83-4.1 0-3.4-9.78 1.56-21.83 3.53-8.58 3.19-4.54 7.1-8.12-1.05 4 4.51-.75 10.2 1.8a72 72 0 0 1-2.27 6.32zm112.46 2.2c-1.4 0-2.04-.4-2.04-.94 0-.67 1.15-3.37 2.69-5.4 7.55-10.23 13.44-15.07 17.91-15.07 2.3 0 4.1 1.47 4.1 4.3 0 4.04-4.1 7.95-9.09 11.59-5.89 4.17-10.75 5.52-13.57 5.52zm71.5-2.87c-4.94 10.7-12.1 19.24-15.81 19.08-3.7-.17-2.72-8.97 2.2-19.69 4.93-10.7 11.92-19.25 15.62-19.09l-2.02 19.7z" fill="none" stroke="#fff" stroke-width="9.32"/><path class="ps05 ps10" d="M152.88 8.24l-38.32 95.32c10.3-28.7 37.76-94.21 38.32-95.32zm476.07 67.09c-2.67-4.07-3.3-6.32-3.47-8.84-.1-1.71 1.12-4.74 1.4-6.06.03-.65-.36-.92-.84-.92h-12.72c-.7 0-1.11.64-1.38 1.15-7.09 17.29-13.01 25.81-18.5 31.92-6.95 7.19-15.4 12.3-19.4 13.78-2.25.82-5.56 1.65-7.38 1.65-3.89 0-6-4.27-6-7.96 0-1.35-.1-3.03.1-4.16 10.5-4.46 33.2-11.8 33.2-25.85 0-6.01-5.04-10.92-12.56-10.92-6.1 0-13.1 2.05-20.36 7.91-10.04 8.04-17.22 21.97-17.48 34.1a162.13 162.13 0 0 1-12.85 6.62c-.86.37-1.21-1.15-.52-3.06a474.44 474.44 0 0 1 10.2-25.7c1.79-4.07 3.15-8.54 3.45-11.68.32-3.42-1.37-7.6-6.6-7.6-11.38 0-22.4 13.76-30.17 24.4h-.46l9.13-21.63c.32-.73-.49-1.03-1.14-1.03h-10.86c-.7 0-1.11.61-1.38 1.12-.7 1.75-2.98 7.22-5.79 13.98-4.86 3.22-9.2 3.36-10.78 1.16-1.94-2.73-.17-6.65 2.43-10.4 2.15-3.1 3.59-6.56.57-8.41-1.63-1.02-4.88.52-7.75 3.03-6.33 5.53-7.64 6.05-18.58 17.83a1622.1 1622.1 0 0 1 7.22-16.8c.33-.73-.44-1-1.09-1h-12.92c-.7 0-1.09.5-1.35 1.02-.36.66-9.16 22.02-15.33 36.98-5.62 3.85-14.57 8.71-17.35 8.33-.85-.13-1.09-1.14-.45-2.87 5.63-15.32 12.13-29.71 17.75-42.27.33-.74-.38-1.16-.99-1.16h-13.07c-.66 0-1.05.5-1.32 1.02l-.04.06-1.36 3.14h-.3c-.46-2.42-4.05-4.82-7.47-5.01-8.74-.45-20.43 3.97-30.65 21.44a41.6 41.6 0 0 0-5.34 17.63c-2.75 1.94-5.46 3.72-7.47 5.13-5.06 3.6-8.59 3.52-10.89-2.78-.94-2.6-3.75-8.63-4.96-11.68 4.35-1.21 14.02-3.94 18.88-8.25 4.6-4.04 7.17-8.62 7.17-13.88 0-5.12-3.46-9.97-10.88-9.97-6.15 0-10.5 1.62-15.62 5.39a41.73 41.73 0 0 0-6.6 5.78c1.8-3.42 2.45-5.5 3.14-7.22a6651.22 6651.22 0 0 1 22.04-53.07c.16-.38-.03-1.07-.64-1.07H359.7c-.7 0-1.45.54-1.71 1.26-.1.26-20.08 48.68-32.82 79.47-7.34 8.95-18.05 15.28-22.66 16.98-2.26.82-5.56 1.65-7.39 1.65-3.88 0-6-4.27-6-7.96 0-1.35-.1-3.03.12-4.16 10.5-4.46 33.2-11.8 33.2-25.85 0-6.01-5.05-10.92-12.58-10.92-6.08 0-13.09 2.05-20.35 7.91-9.55 7.65-16.5 20.63-17.4 32.3-5.43 3.25-10.06 5.94-14.8 7.9-3.58 1.46-2.48-1.97-1.85-3.56a2458.5 2458.5 0 0 1 15.3-37.54h9c.5 0 1.07-.44 1.28-.97l1.15-2.5c.2-.53-.05-.96-.55-.96h-9.03c4.5-10.81 7.92-18.95 8.01-19.18.15-.34-.28-1.14-.92-1.14h-12.52c-.7 0-1.4.65-1.61 1.17-.1.21-3.54 8.3-8.05 19.15h-4.79c-.5 0-1.07.43-1.28.96l-1.15 2.5c-.2.53.05.97.55.97h4.83l-2.25 5.46c-6.08 7.58-13.1 6.64-16.83 5.75-.04-10.17-5.18-17.28-13.45-17.28-10.07 0-21.75 10.54-27.62 24.3-3.33 6.97-11.18 13.78-19.14 18.91a59.36 59.36 0 0 0 7.1-14.41c5.35-15.91 2.3-28.8-8.2-28.8-4.65 0-9.77 2.54-14.5 6.76l1.48-3.29c.33-.57.52-1.83-.88-1.83h-11.44c-.97 0-2.24.81-2.55 1.49a717.93 717.93 0 0 0-12.68 30.15c-5.15 4.43-12.33 10.03-17.76 12.86-2.43 1.26-2.99-1-2.41-2.64 10.3-28.7 37.76-94.21 38.32-95.32.57-1.1.29-2.17-1-2.34-41-7.66-59.66 21.32-70.77 50.52h-5.98c-.51 0-1.08.43-1.27.96l-1.5 2.16c-.19.54.06.97.57.97h6.67c-11.45 31.12-16.06 55.28-43.87 55.28-11.33 0-22.92-11.58-22.65-23.5.33-14.3 11.65-21.45 18.44-24.18-13.58-3.07-26.2 10.56-26.85 24.18-.56 11.9 9.7 25.89 29.44 26.22 39.02.66 52.38-39.23 58.63-58h19.69c-7.38 18.13-14.48 36.12-18.1 47.28-3.05 9.34 5.81 10.6 9.38 9.54 12.63-3.79 22.07-10.59 27.56-15.23-7.03 18-13.4 35.43-15.2 41.79-.42.91.19 1.47 1.77 1.44 1.83-.02 10.26.02 11.29-.02 1.3-.05 1.43-.83 1.78-1.79 1.8-4.95 9.41-25.62 13.8-37.05 1.18 6.8 5.15 11.17 11.26 11.17.4 0 .78-.01 1.17-.05l.77-.08.16-.04c.25-.03.49-.07.75-.13l.27-.06c8-1.78 24.74-10.56 33.1-21.08-1.63 12.34 3.35 21.44 12.71 21.44 11.15 0 24.78-12.88 29.82-28.78a40.87 40.87 0 0 0 1.54-6.74c3.69.47 9.2 1.08 13.87-2.41a765.77 765.77 0 0 0-11.22 29.01c-3.94 11.18 6.06 9.93 14.38 6.12 8.75-4.02 13.52-7.17 18.85-10.59.78 7.57 5.3 13.27 13.76 13.27 6.28 0 12.5-2.27 17.76-5.2 6.03-3.35 12.99-8.26 18-14.44-4.01 9.73-6.72 16.27-6.8 16.43-.32.68.16.94.89.94h12.86c1.13 0 1.42-.55 1.66-1.06 1.18-3.23 3.64-9.26 5.52-14.3 1.28-3.51 1.95-4.94 4.76-4.94.77 0 1.31.56 1.72 1.3 1.44 3.13 5.55 12.41 7.53 16.65 1.96 4.2 5.97 7.26 13.8 2.26a253.67 253.67 0 0 0 14.89-10.22c.63 5.9 3.36 10.49 9.14 11.21 9.18 1.16 17.5-7.03 23.31-15.62 0 0-3.38 8.47-3.84 9.9-1.3 3.96.83 7.23 4 7.23 6.38 0 16.4-4.7 24.84-10.3l-2.88 6.95c-.33.68.15.94.88.94h12.86c1.14 0 1.42-.55 1.66-1.06a645.2 645.2 0 0 1 8.6-21.54c5.6-8.28 11.04-12.1 14.17-15.03-2.86 5.05-1.13 11.32 5.83 11.32 3.74 0 9.63-.91 16.82-5.9a3855.11 3855.11 0 0 0-12.92 31.22c-.24.71.13.99.86.99h12.87c1.13 0 1.35-.65 1.56-1.19 6.4-16.19 14.24-28 21.65-37.44 4.63-5.9 8.64-8.4 10.28-8.4 1.04 0 1.43.8 1.34 1.84-.13 1.32-.76 3.02-2.1 6.17-3.8 9.19-7.7 18.4-11.7 27.76-7.3 17.14 5.29 14.11 8.82 12.35 7.58-3.79 13.72-6.77 19.45-10.03 1.34 6.52 5.76 11.2 13.43 11.2 6.28 0 12.5-2.26 17.76-5.19 6.41-3.58 17.03-11.63 22.85-18.84v-.03c5.29-5.97 8.75-11.78 13.07-18.96 1.47 4.62 2.53 6.73 6 12.33 3.19 5.19 4.26 8.13 4.26 11.22 0 6.02-5.6 12.2-10.93 12.2-2.93 0-4.7-2.92-4.78-6-.08-3.33-3.73-4.8-5.19-5-5.15-.67-11.82 6.2-7.92 13.07 1.85 3.25 5.64 5.21 11.5 5.21 13.72 0 29.3-15.84 29.3-29.86 0-3.78-1.06-7-4.39-12.33zm-57.67-6.66c1.95-2.32 3.9-3.54 5.58-3.54 1.55 0 2.46 1.63 2.46 3.13-.13 3.42-2.07 8.6-4.66 11.46A53.35 53.35 0 0 1 561.58 90c1.17-5.05 5.04-16 9.7-21.33zm-271.52 0c1.95-2.32 3.9-3.54 5.57-3.54 1.56 0 2.47 1.63 2.47 3.13-.13 3.42-2.07 8.6-4.67 11.46A53.27 53.27 0 0 1 290.07 90c1.16-5.05 5.03-16 9.7-21.33zM94.1 56.42c6.18-17.93 20.18-46.71 38.79-46-4.25 10.73-11.53 28.2-18.8 46H94.1zm72.82 31.85c-4.58 11.14-11.54 20.16-15.32 20.16-3.78 0-3.14-9.02 1.44-20.16 4.58-11.13 11.37-20.16 15.15-20.16 3.79 0 3.32 9.03-1.27 20.16zm62.2-.65c-4.97 12.06-12.5 21.84-16.6 21.84-4.1 0-3.4-9.78 1.56-21.84 3.53-8.57 8.26-15.98 12.17-19.55-1.05 4-.55 10.7 5.12 13.24-.6 2-1.35 4.12-2.26 6.31zm112.46 2.2c-1.4 0-2.04-.4-2.04-.94 0-.67 1.15-3.36 2.69-5.38 7.54-10.24 13.43-15.1 17.91-15.1 2.3 0 4.1 1.5 4.1 4.32 0 4.04-4.1 7.95-9.08 11.59-5.9 4.17-10.76 5.52-13.58 5.52zm71.48-2.87c-4.91 10.72-12.07 19.25-15.8 19.09-3.7-.17-2.7-8.97 2.21-19.69 4.92-10.7 11.92-19.25 15.62-19.08 3.71.16 2.9 8.98-2.03 19.68" fill="#174a91" fill-rule="evenodd"/><path class="ps06" d="M152.89 8.25l-38.32 95.32c10.3-28.7 37.75-94.21 38.32-95.32zm476.06 67.08c-2.67-4.07-3.3-6.32-3.46-8.83-.11-1.72 1.1-4.76 1.38-6.06.04-.65-.35-.93-.83-.93h-12.72c-.7 0-1.1.64-1.38 1.15-7.08 17.3-13.01 25.82-18.5 31.92-6.95 7.2-15.4 12.32-19.4 13.78-2.26.83-5.55 1.65-7.38 1.65-3.89 0-6-4.27-6-7.96 0-1.35-.11-3.03.1-4.16 10.5-4.46 33.2-11.8 33.2-25.85 0-6-5.05-10.91-12.57-10.91-6.09 0-13.09 2.04-20.35 7.9-10.04 8.04-17.21 21.98-17.48 34.1-4.26 2.41-9.01 4.9-12.85 6.61-.85.39-1.21-1.13-.51-3.05a465.26 465.26 0 0 1 10.2-25.7c1.78-4.07 3.13-8.53 3.43-11.68.33-3.41-1.36-7.61-6.59-7.61-11.38 0-22.4 13.78-30.16 24.4h-.47l9.13-21.62c.32-.73-.48-1.03-1.13-1.03h-10.86c-.7 0-1.12.62-1.4 1.12-.7 1.75-2.97 7.22-5.77 13.97-4.87 3.23-9.22 3.38-10.8 1.17-1.93-2.73-.16-6.65 2.43-10.39 2.16-3.11 3.6-6.57.58-8.42-1.64-1.02-4.88.53-7.75 3.03-6.34 5.53-7.64 6.05-18.57 17.83 2.76-6.51 5.33-12.5 7.21-16.8.33-.73-.45-1-1.1-1h-12.9c-.7 0-1.1.51-1.37 1.02-.34.67-9.15 22.03-15.32 36.99-5.62 3.85-14.57 8.71-17.36 8.32-.84-.13-1.07-1.13-.44-2.86 5.62-15.33 12.13-29.72 17.75-42.28.33-.74-.37-1.16-1-1.16h-13.06c-.66 0-1.05.5-1.32 1.02l-.04.05-1.36 3.15h-.3c-.46-2.42-4.05-4.83-7.48-5-8.73-.46-20.43 3.97-30.65 21.44a41.56 41.56 0 0 0-5.33 17.62c-2.76 1.93-5.47 3.72-7.46 5.14-5.08 3.6-8.6 3.51-10.9-2.78-.94-2.61-3.75-8.64-4.96-11.69 4.35-1.22 14.01-3.94 18.87-8.25 4.61-4.04 7.18-8.62 7.18-13.88 0-5.11-3.46-9.97-10.88-9.97-6.14 0-10.5 1.62-15.62 5.4a41.2 41.2 0 0 0-6.6 5.78c1.79-3.44 2.44-5.51 3.14-7.22 5.99-14.82 21.88-52.7 22.04-53.08.17-.38-.03-1.06-.65-1.06h-12.85c-.69 0-1.44.53-1.72 1.25-.09.27-20.07 48.68-32.8 79.47-7.35 8.95-18.07 15.29-22.68 16.98-2.25.83-5.55 1.65-7.37 1.65-3.9 0-6.01-4.27-6.01-7.96 0-1.35-.1-3.03.1-4.16 10.52-4.46 33.22-11.8 33.22-25.85 0-6-5.05-10.91-12.58-10.91-6.08 0-13.09 2.04-20.35 7.9-9.55 7.65-16.5 20.63-17.4 32.3-5.43 3.25-10.07 5.95-14.8 7.9-3.57 1.46-2.48-1.97-1.85-3.57 4.1-10.39 10.15-25.13 15.3-37.53h9c.5 0 1.07-.44 1.27-.96l1.16-2.5c.2-.54-.05-.97-.56-.97h-9.02c4.49-10.8 7.92-18.94 8.01-19.17.15-.35-.28-1.15-.93-1.15h-12.5c-.7 0-1.4.65-1.63 1.17-.08.22-3.53 8.3-8.04 19.15h-4.79c-.5 0-1.08.43-1.28.97l-1.15 2.5c-.2.52.05.96.56.96h4.82l-2.25 5.46c-6.09 7.59-13.1 6.64-16.83 5.75-.04-10.17-5.17-17.27-13.45-17.27-10.07 0-21.76 10.52-27.63 24.3v-.03c-3.32 6.99-11.17 13.8-19.13 18.94a59.97 59.97 0 0 0 7.11-14.42c5.34-15.9 2.3-28.8-8.2-28.8-4.66 0-9.78 2.54-14.5 6.76l1.48-3.28c.32-.57.5-1.84-.89-1.84h-11.43c-.97 0-2.25.82-2.56 1.5a713.11 713.11 0 0 0-12.68 30.14c-5.14 4.42-12.33 10.03-17.76 12.86-2.43 1.27-2.99-1-2.4-2.63 10.3-28.7 37.75-94.21 38.32-95.32.56-1.11.28-2.18-1.02-2.34-41-7.67-59.66 21.3-70.76 50.51h-5.99c-.5 0-1.07.43-1.27.97l-1.49 2.16c-.19.53.06.96.56.96h6.68c-11.45 31.13-16.05 55.28-43.87 55.28-11.33 0-22.92-11.58-22.65-23.5.33-14.3 11.65-21.45 18.44-24.18-13.58-3.07-26.2 10.56-26.85 24.18-.56 11.9 9.7 25.89 29.44 26.22 39.01.67 52.38-39.24 58.63-58h19.68c-7.37 18.13-14.47 36.12-18.1 47.28-3.04 9.34 5.82 10.6 9.39 9.53 12.62-3.78 22.06-10.57 27.56-15.22-7.03 18-13.4 35.43-15.2 41.79-.43.9.2 1.47 1.77 1.45 1.83-.03 10.26 0 11.29-.03 1.3-.06 1.43-.82 1.77-1.8 1.8-4.94 9.42-25.6 13.8-37.05 1.2 6.81 5.16 11.19 11.27 11.19a13.17 13.17 0 0 0 1.94-.14l.16-.03.76-.14.26-.06c8-1.78 24.75-10.56 33.11-21.07-1.64 12.34 3.35 21.44 12.7 21.44 11.14 0 24.78-12.9 29.82-28.79a41.19 41.19 0 0 0 1.54-6.73c3.68.46 9.21 1.08 13.87-2.43a770.45 770.45 0 0 0-11.22 29.03c-3.94 11.17 6.06 9.92 14.38 6.1 8.75-4 13.52-7.16 18.86-10.58.78 7.57 5.3 13.27 13.74 13.27 6.3 0 12.52-2.27 17.77-5.2 6.02-3.35 12.98-8.26 18-14.43-4.01 9.72-6.71 16.26-6.8 16.43-.32.68.16.93.89.93h12.86c1.13 0 1.4-.54 1.65-1.06 1.19-3.23 3.65-9.26 5.52-14.3 1.28-3.5 1.95-4.93 4.77-4.93.78 0 1.31.55 1.72 1.28 1.43 3.14 5.55 12.43 7.53 16.66 1.97 4.2 5.98 7.26 13.8 2.26a252.43 252.43 0 0 0 14.89-10.22c.62 5.9 3.36 10.49 9.14 11.22 9.19 1.15 17.5-7.04 23.31-15.63 0 0-3.38 8.47-3.84 9.89-1.3 3.97.83 7.24 4 7.24 6.38 0 16.4-4.7 24.84-10.3-1.69 4.09-2.81 6.8-2.89 6.96-.31.68.16.93.89.93h12.86c1.14 0 1.42-.54 1.65-1.06 1.89-5.12 5.11-13.1 8.6-21.53 5.6-8.29 11.05-12.1 14.18-15.03-2.86 5.04-1.13 11.32 5.82 11.32 3.75 0 9.64-.92 16.83-5.9-5.84 14.04-12.53 30.12-12.92 31.22-.25.7.13.98.87.98h12.86c1.13 0 1.35-.66 1.55-1.19a146.61 146.61 0 0 1 21.65-37.44c4.64-5.9 8.66-8.39 10.3-8.39 1.03 0 1.42.78 1.32 1.83-.12 1.32-.75 3.02-2.1 6.17A2429.9 2429.9 0 0 1 515.73 104c-7.31 17.14 5.28 14.12 8.8 12.35 7.58-3.78 13.72-6.77 19.45-10.03 1.34 6.52 5.78 11.21 13.44 11.21 6.28 0 12.5-2.27 17.77-5.2 6.4-3.58 17.02-11.62 22.84-18.84v-.02c5.29-5.98 8.74-11.78 13.07-18.98 1.47 4.63 2.53 6.74 6 12.34 3.2 5.2 4.26 8.14 4.26 11.22 0 6.03-5.6 12.2-10.93 12.2-2.93 0-4.7-2.92-4.78-6-.08-3.32-3.73-4.8-5.18-5-5.16-.67-11.82 6.2-7.93 13.07 1.84 3.25 5.64 5.21 11.5 5.21 13.73 0 29.3-15.84 29.3-29.86 0-3.78-1.06-7-4.39-12.33zm-57.66-6.66c1.94-2.31 3.89-3.54 5.57-3.54 1.56 0 2.46 1.64 2.46 3.14-.13 3.4-2.08 8.59-4.66 11.45A53.06 53.06 0 0 1 561.58 90c1.17-5.05 5.04-16 9.7-21.33zm-271.53 0c1.95-2.31 3.9-3.54 5.57-3.54 1.56 0 2.47 1.64 2.47 3.14-.13 3.4-2.07 8.59-4.67 11.45A53.02 53.02 0 0 1 290.07 90c1.16-5.05 5.02-16 9.7-21.33zM94.1 56.42c6.17-17.93 20.17-46.71 38.78-46-4.24 10.74-11.53 28.2-18.8 46H94.1zm72.81 31.85c-4.58 11.14-11.54 20.17-15.32 20.17-3.78 0-3.14-9.03 1.44-20.17 4.58-11.14 11.37-20.16 15.15-20.16 3.79 0 3.31 9.02-1.27 20.16zm62.2-.64c-4.97 12.05-12.5 21.83-16.6 21.83-4.1 0-3.4-9.78 1.56-21.83 3.53-8.58 8.26-15.98 12.17-19.56-1.05 4-.56 10.7 5.13 13.25-.61 2-1.37 4.12-2.27 6.3zm112.46 2.2c-1.4 0-2.04-.4-2.04-.94 0-.67 1.15-3.37 2.69-5.4 7.55-10.23 13.44-15.07 17.91-15.07 2.3 0 4.1 1.47 4.1 4.3 0 4.04-4.1 7.95-9.09 11.59-5.89 4.17-10.75 5.52-13.57 5.52zm71.5-2.87c-4.94 10.7-12.1 19.24-15.81 19.08-3.7-.17-2.72-8.97 2.2-19.69 4.93-10.7 11.92-19.25 15.62-19.09 3.71.17 2.9 9-2.02 19.7z" fill="none" stroke="#174a91" stroke-width="2.07"/></svg>