<svg xmlns="http://www.w3.org/2000/svg" xmlns:xlink="http://www.w3.org/1999/xlink" width="348.2" height="156.6"><defs><linearGradient id="a"><stop offset="0" stop-color="#ecebe9"/><stop offset="1" stop-color="#fff"/></linearGradient><linearGradient id="b" x1="163.25" x2="163.25" y1="2.56" y2="46.81" gradientTransform="translate(33.78 24.83)" gradientUnits="userSpaceOnUse" xlink:href="#a"/></defs><path fill="#ff3f2c" fill-rule="evenodd" d="M208.9 23.37c0 11.06-8.77 20.02-19.6 20.02-10.82 0-19.6-8.96-19.6-20.02 0-11.05 8.78-20.02 19.6-20.02 10.83 0 19.6 8.97 19.6 20.02z"/><path fill="url(#b)" d="M266.54 68.45H148.35l43.24-40.74c3.9-3.61 7.57-4.07 10.95 0l22.3 19.36c.92.58 1.87.88 2.9 0l6.34-4.56c2.49-2.2 4.9-1.78 7.28 0z" transform="translate(-33.78 -24.83)"/><path fill="#0158ba" d="M30.63 69.01c-1.82-3.78-6.23-3.6-8.16.47L0 152.92c1.55 5.65 6.07 4.31 8.03-.72l7.35-28.37 22.21-1.63 6.85 23.16c.91 1.74 5.51 4.22 6.16-2.38zm-4.22 11.66l10.1 35.72-19.77 1.1zm291.16-11.66c1.82-3.78 6.23-3.6 8.16.47l22.47 83.44c-1.55 5.65-6.08 4.31-8.03-.72l-7.35-28.37-22.22-1.63-6.84 23.16c-.91 1.74-5.51 4.22-6.16-2.38zm4.22 11.66l-10.1 35.72 19.77 1.1zM169.38 74.2c-1.12.09-2.93 1.06-3.94 2.78l-18.53 56.44c.19 5.1 6 4.68 7.44 1.72l5.75-18.19h18.78l6.65 18.81c.22 1.17 6.63 3.57 6.35-2.53l-18-56.25c-.33-1.45-2.64-2.92-4.5-2.78zm.09 12.16l8.88 24.87h-16.79z"/><path fill="#0158ba" fill-rule="evenodd" d="M73.13 73.8c-13.41 0-20.7 10.8-20.7 22.21v28.44c0 11.41 7.95 18.16 19.41 18.16h1.5c.94 0 1.85-.08 2.75-.19 5.73.42 10.74-.48 17.1 2.28 7.94 8.36 15.37 8.5 22.19 9.66 9.82.14 19.58 0 23.06-5.78.67-.75 2.81-4.13-3.03-2.94-7.35 1.26-11.04 5.5-25.03 1.28-7.05-4.08-13.28-9.78-22.2-10.12a19.17 19.17 0 0 0 5.85-13.97V94.39c0-11.41-8.1-20.6-19.56-20.6h-1.34zm.03 5.8h.93c7.91 0 13.47 7.66 13.47 17.16v23.7c0 9.5-6.34 17.15-14.25 17.15h-1.03c-7.9 0-13.4-6.31-13.4-15.81V98.1c0-9.5 6.37-18.5 14.28-18.5z"/><path fill="#0158ba" d="M103.46 77.9c1.9-5.86 6.14-3.58 6.83-.33v44.56s1.32 10.5 12.2 10.4c12.38-.11 14.3-10.89 14.3-10.89V77.57c1.1-3.89 5.04-4.9 6.83-.16v44.07s-2.19 17.72-20.97 17.72c-17.23 0-18.87-16.91-18.87-16.91z"/><path fill="#0158ba" fill-rule="evenodd" d="M200.13 74.48c-.28 0-.56.06-.82.13-.37.1-.75.23-1.06.44-.17.11-.32.26-.47.4-.61.6-1 1.44-1 2.38v55.75a3.34 3.34 0 1 0 6.69 0v-24.54h20.16a3.34 3.34 0 1 0 0-6.68h-20.16V81.17h21.47c1.85 0 3.31-1.5 3.31-3.34s-1.46-3.35-3.31-3.35h-24.81zm37.82 0a3.33 3.33 0 0 1 3.33 3.34v57.94a3.33 3.33 0 1 1-6.67 0V77.82a3.33 3.33 0 0 1 3.34-3.34zm19.33 0c-1.94 0-3.5 1.5-3.5 3.35v60.09a3.42 3.42 0 0 0 3.5 3.34c1.94 0 3.5-1.5 3.5-3.34V93.23l24.94 49.75c.77 1.55 1.84 2.35 3.28 2.1h.1a3.32 3.32 0 0 0 3.34-3.32v-.4c.01-.2.02-.4 0-.6V77.83a3.34 3.34 0 1 0-6.69 0v48.59l-24.12-49.69a3.8 3.8 0 0 0-3.38-2.1 3.47 3.47 0 0 0-.97-.15z"/></svg>