<svg xmlns="http://www.w3.org/2000/svg" width="177" height="41"><path fill="#10664D" d="M.5.28L10.68.4c6.64.38 12.05 1.93 12.04 9.01-.01 5.08-3.26 7.31-4.68 7.78 4.3.4 9.95 3.59 9.95 11.63 0 8.02-7.66 11.73-14.06 11.4-6.4-.34-13.43 0-13.43 0V.27zm6.38 15.94c1.95 0 3.7.02 4.98-.2 4.73-.78 5.22-3.81 5.22-5.79 0-3.32-1.8-6.1-6.7-6.1-.74-.05-2.53 0-3.5.21v11.88zm0 19.35h6.47c3.2 0 6.9-2.08 6.9-6.9 0-6.4-4.8-8.62-13.38-7.87v14.77zM38 30.5c-1.29 4.42-1.79 5.27-2.73 9.28-.79-.06-5.69-.06-6.48 0 0 0 13.03-36.87 13.02-38.91 0-.09 7.34-.16 7.36-.04C50.3 9.2 62.1 39.77 62.1 39.77a99.88 99.88 0 0 0-8.3 0c-1.13-4.3-1.36-5.37-2.69-9.26H38zm11.63-4.67L44.38 8.8l-5.01 17.04h10.26zM75.35.85h3.46c9.77 0 15.45 9.1 15.45 18.44 0 12.87-5.53 20.41-15.45 20.41h-3.46l-10.7.14s.16-24.85.16-20.36c.01 4.33-.16-18.77-.16-18.77l10.7.14zm-4.23 34.1l4.9.13c5.94 0 10.84-3.52 10.84-15.85 0-9.87-4.9-13.7-10.2-13.7l-5.54.14v29.27zm67.07 4.85c.53-12.15 0-38.85 0-38.85 1.3.12 6.15.12 7.38 0 0 0-.32 26.7 0 38.85h-7.38zm20.17-.02c.49-11.89 0-33.68 0-33.68-3.71 0-8.12 0-10.84.4.1-.81.31-4.57.37-5.58h28c.18 1.01.26 4.77.36 5.58-3.08-.4-7.82-.4-11.01-.4 0 0-.6 21.87 0 33.68h-6.88zm-42.47.96c10.08.09 17.93-9.34 18.02-20.4.06-8.91-5.82-20.43-18.02-20.33-12.2-.1-18.08 11.42-18 20.34.07 11.05 7.92 20.48 18 20.4zm.07-36.2c6.26 0 10.68 6.2 10.59 16.1-.1 8.88-4.66 15.33-10.6 15.33h-.12c-5.94 0-10.5-6.45-10.6-15.34-.09-9.88 4.34-16.08 10.6-16.09h.13z"/></svg>