<svg width="211" height="316" xmlns="http://www.w3.org/2000/svg"><defs><linearGradient x1="50%" y1="0%" x2="50%" y2="100%" id="a"><stop stop-opacity="0" offset="0%"/><stop stop-opacity=".536" offset="65.005%"/><stop offset="100%"/></linearGradient></defs><g fill="none" fill-rule="evenodd"><path d="M0-1c20 0 35 15 35 35l-.002 96.738a104.935 104.935 0 0135-20.763L70 104h35c57.99 0 105 47.01 105 105s-47.01 105-105 105S0 266.99 0 209zm160 210c0-30.376-24.624-55-55-55s-55 24.624-55 55 24.624 55 55 55 55-24.624 55-55z" fill="#1B8DE0"/><path d="M35 34c20 0 35 15 35 35v70h35l1.158.01C144.284 139.627 175 170.726 175 209c0 38.66-31.34 70-70 70s-70-31.34-70-70zm105 175c0-19.137-15.358-34.686-34.421-34.995L105 174H70v35c0 19.33 15.67 35 35 35s35-15.67 35-35z" fill="#0F4D7B"/><path fill-opacity=".4" fill="url(#a)" d="M105 106h70v35h-70z" transform="rotate(90 106 105)"/></g></svg>