<svg data-name="Layer 1" xmlns="http://www.w3.org/2000/svg" width="286.42" height="205.85"><path d="M262.81 35.77l20.34-25.57L286.42 0 169.35 54.08a274.42 274.42 0 0 1 11-31.49l5.18-11.27L139 33l3.1-9.46-41.37 20.85L98.2 52 62 69.12q-15.38 22.65-38 51L1.86 147.66 0 158.36l37.63-15.77a422.18 422.18 0 0 1-24.17 52.73l-1.8 10.54 66.59-31.32A59.44 59.44 0 0 0 93.18 165l1-1s4.42-.16 5.86-.45 5.63-1.91 5.63-1.91l97.24-45.75q33.09-45.47 59.9-80.12z" fill="#014713"/><path d="M174.81 26.53l4.19-9.4-44.75 20.62 2.75-9.13-32.61 16.62L102 53 65 70.47q-7.7 11.44-19 27.05-22.93 31.18-41.21 51.15l40.34-16.56-10.7 26q-11.83 28.14-18 38.08l59.83-28.23A56.35 56.35 0 0 0 90 159.21l2.65-2.65a45.58 45.58 0 0 0 6.42.11 35.44 35.44 0 0 0 4.68-1.69l96.17-45.07L228.11 71q32-43.35 51.38-65.52L164.28 59.15a335.83 335.83 0 0 1 10.53-32.62z" fill="#88c333"/><path d="M159.1 64.51Q164 46.34 168.5 33l3.55-9.75-43.71 20.3 2.82-8.9-23.1 11.72-2.53 7.89-37.48 17.68-19.6 27.66q-21.13 29.41-29 37.8l32.39-13.63-9.25 24.73q-10.4 26.87-16.73 37.69L75 163a48.65 48.65 0 0 0 12.79-8.11l4.11-4.79s1.19.67 2.25 1.24 3.37.42 4.45.17 3.94-1.41 3.94-1.41l95.15-44.68q32.37-46.82 53.86-73.69l15-17.41z" fill="#fff"/><path d="M158.08 33.86l-9.24 4.34c-1.18.56-2.59 2.37-4.23 5.35l-.17.11.85-3.94-11.78 5.63v2.82l-10.24 32.05-2 3.66 14.08-6.65.11-2.65 7.44-24.45a20.65 20.65 0 0 1 1.13-2.65 7 7 0 0 1 1.69-1.41l4.17-2c.79-.39 1.24-.39 1.3 0l-.45 2.25-8.11 24.9-1.86 3.44 13.91-6.54.28-2.7a27 27 0 0 1 1.3-5.47l4.9-15.77c3.01-9.31 1.99-12.75-3.08-10.32zm-40.84 45.52l-3.94 2s-1.4.74-1.86.28c-.28-.27.45-2.42.45-2.42L118.37 59c3.1-1.52 6.08-3 9.13-4.39l2.36-7.61-9.13 4.4 2.65-8.4-11.66 5.9-2.54 7.89-3.49 1.69-2.42 7.52 3.55-1.69-5.92 19c-1.41 4.39-1.76 7.38-1 8.56s3.94.28 3.94.28l14.37-6.76 3.65-9.39a15.85 15.85 0 0 1-4.62 3.38zM91.1 65.46L72.62 99l9.29-29.35-11.77 5.62-35 49.24L46 119.43l1.35-3.38 18.59-27h.17l-7.91 24.58 13.24-6.14 15.43-27.83-6.93 21.24-1.8 3.38 13.63-6.37.45-3.38L103 59.83z" fill="#014713"/><path d="M230.93 35.94l-2.14 4.9-27.27 40.06h-.17l11.55-36.51-23.6 11-24.85 42.8-.28.17 10.42-32.16 2.48-5L157 70.7l-.68 4.85-16.17 51.77 17.85-8.45 29.91-51.15h.17l-14 43.66 21.35-9.91 37.91-55.1 14.48-18.42zM101.29 101c-.85-2.53-3.72-2.65-8.68-.39l-33.68 15.73a12 12 0 0 1-.28 4.51 60.29 60.29 0 0 1-3 8.28l-18.41 46.53 35.83-16.85a43.43 43.43 0 0 0 11.66-7.49 20.17 20.17 0 0 0 6.08-9.41l7.66-25.18c2.65-8 3.61-13.29 2.82-15.73zm-18.81 20.8L76 141.07l-2.37 5.46a6.26 6.26 0 0 1-3.21 2.54l-9.13 4.39 12.34-33.07 7.6-3.49c1.46-.68 2.31-.68 2.37 0s-.28 2.2-1.12 4.9zm53.46-2.37l-4.23 2.37-16.34 7.6q-2.11.93-2.54 0l.45-3.94 1.69-5.35 28.51-13.29 5.58-17.63c2-6.14 2.71-10.25 2.14-12.22-.62-2.14-2.82-2.31-6.59-.56l-25.85 12.21a24.28 24.28 0 0 0-9.13 7.77 59.58 59.58 0 0 0-6.2 14.2l-7.15 22.65c-1.86 6.14-2.59 10.2-2.08 12.06.62 2.14 2.82 2.37 6.53.56L134.65 130l5.58-14.2zM121 101a26.82 26.82 0 0 1 1.69-3.66 10.77 10.77 0 0 1 2.31-2.08c1.65-1 7-3.27 7-3.27s1.29-.14 1.52.17c.52.68-.56 3.38-.56 3.38l-2.54 7.72-11.94 5.63z" fill="red"/></svg>