<svg xmlns="http://www.w3.org/2000/svg" viewBox="0 0 950 994"><path fill="#be3628" d="M466.72 0h.27c-.82 16.32 3.42 32.55 9.45 47.6 9.97 24.2 25.76 45.47 42.8 65.14 23.6 27.01 49.96 51.42 75.6 76.45 25.65 24.69 50.78 50.05 73.35 77.63 23.34 28.67 43.76 60.12 57.18 94.71 28.9 72.98 22.55 158.3-14.73 227.14-32.59 61.06-88.9 109.02-154.51 131.17-44.33 15.21-92.55 18.68-138.66 10.49a275.15 275.15 0 0 1-99.84-38.99c-55.65-35.3-98.01-91.07-116.65-154.33-17.07-57.25-15.43-120.35 6.89-175.96 13.25-33.63 33.19-64.26 56.03-92.14 18.66-22.69 39.07-43.88 60.14-64.31-6.37-5.77-14.18-9.7-22.31-12.33-14.42-4.61-29.5-6.47-44.29-9.5-18-3.47-35.85-8.58-52.14-17.14-27.77-14.65-50.15-38.58-64.8-66.19-14.81-28.51-20.9-61.72-16.13-93.56 30.77-5.02 63 .21 91.01 13.73a158.06 158.06 0 0 1 63.31 56.72c9.7 15.19 16.18 32.25 20.46 49.71 4.2 16.49 6.26 33.45 10.68 49.88 2.77 10.34 7.11 20.44 14.31 28.49 17.12-16.62 34.48-32.99 51.53-49.7 19.65-19.43 38.98-39.36 55.45-61.63 16.16-21.95 29.56-46.82 33.75-74.06 1.17-6.28 1.07-12.69 1.85-19.02M448.7 287.69c-13.71 17.82-30.66 32.72-46.66 48.4-20.84 20.14-41.26 41.73-53.87 68.17a124.72 124.72 0 0 0-11.07 70.75c4.37 34.54 23.47 66.82 51.45 87.48 29.66 22.41 69.16 30.9 105.44 22.93 33.13-6.98 63.09-27.59 81.55-55.97 21.41-32.2 27.47-74.35 14.97-111.07-6.46-19.35-17.67-36.75-30.66-52.34-20.76-25.08-46.23-45.69-67.9-69.91-12.33-13.99-23.68-30.37-25.44-49.46-1.34 15.18-8.66 29.1-17.81 41.02zm309.06 531.56c3.52.01 7.05-.12 10.58.16-.25 21.9.06 43.8-.16 65.7 4.43-9.09 13.8-15.31 23.84-16.17 8.91-.76 18.91.96 25.3 7.74 6.37 6.78 7.86 16.49 8.15 25.43.1 16.62-.01 33.24.05 49.86-3.51.04-7.02.03-10.52.03-.01-16.34.02-32.67-.01-49-.21-6.08-.98-12.54-4.58-17.64-2.37-3.5-6.3-5.72-10.41-6.44-8.67-1.62-18.31 1.21-24.06 8.07-5.7 6.56-7.57 15.51-7.69 23.99v41.01l-10.5.01.01-132.75zM382.45 951.94c.11-44.15-.01-88.3.07-132.45l10.48.01v132.49c-3.52.01-7.04.04-10.55-.05zM0 824.81c15.25-2.5 31.47 4.18 40.49 16.73 4.95 6.5 7.14 14.55 8.5 22.47.93 5.2 1.96 10.68 5.55 14.8-6.97-5.32-16.12-4.87-24.15-7.36C13.85 867.12 1.51 851.46 0 834.61v-9.8zm912.97 16.7c5.25-.03 10.51-.01 15.77-.01l.03 1.99c-2.25 0-4.48 0-6.71-.02-.14 6.26-.03 12.52-.06 18.78l-2.25-.01c0-6.25-.01-12.49.01-18.73-2.24-.02-4.48-.01-6.7.01l-.09-2.01zm17.04-.03l2.98.03c2.38 5.56 4.69 11.16 7.09 16.73 2.4-5.57 4.72-11.17 7.07-16.75l2.85.01v21.38l-1.82-1.13c-.49-5.68.01-11.41-.24-17.1-2.48 5.95-4.98 11.9-7.49 17.84-1.9-1.71-2.61-4.22-3.59-6.48-1.35-3.45-3.27-6.73-3.79-10.45-.44-.01-.87-.01-1.29.02.4 5.54.17 11.11.21 16.67l-1.99.01c-.01-6.93-.01-13.85.01-20.78zM54 879.94c9.88-10.21 25.14-14.73 38.97-11.46 15.32 3.25 27.96 15.92 31.46 31.15.16-10.04.02-20.08.07-30.12 5.83-.02 11.67-.02 17.5-.01.02 13.5-.04 27 .03 40.5.22 11.78 10.27 22.28 22 23.16 12.92 1.5 25.53-9.3 26.19-22.25.07-13.8 0-27.6.03-41.4 5.83-.02 11.66-.02 17.49-.01.02 5.52.01 11.04.01 16.56 5.66-7.95 13.74-14.4 23.23-17.05 12.87-3.77 27.42-.36 37.57 8.32a41.73 41.73 0 0 1 13.84 23.18 42.12 42.12 0 0 1 16.12-24.97 41.8 41.8 0 0 1 37.52-6.07 41.63 41.63 0 0 1 27.62 29.55c1.71 6.09.93 12.45 1.11 18.69-21.2.67-42.42.06-63.62.34 3.48 7.16 9.75 13.54 17.82 15.03 7.91 1.63 15.7-2.22 21.78-6.97 4.12 4.17 8.35 8.25 12.4 12.49-7.28 7.06-16.88 12.03-27.14 12.39-15.84 1.17-31.74-7.86-39.39-21.67-3.46-6.1-4.9-13.12-5.17-20.07h-15.58c-.08-7.94-4.12-15.8-10.81-20.14-6.16-4.25-14.49-5.5-21.44-2.5-9.78 4.18-16.38 14.72-16.12 25.32.03 12.19.03 24.38 0 36.57-5.83-.01-11.66.01-17.49-.01 0-5-.02-10.01.01-15-6.82 9.26-17.43 15.75-28.92 16.99a41.72 41.72 0 0 1-36.89-14.66c-4.83-5.64-7.85-12.63-9.24-19.88a42.04 42.04 0 0 1-20.6 29.43c-13.77 7.97-31.99 7-44.88-2.32.08 10.63-.04 21.26.05 31.89-5.84.12-11.69.03-17.53.06.04-21.68.42-43.36.23-65.04-.48-11.08 4.05-22.13 11.77-30.02m23.56 5.85c-9.63 2.46-17.14 11.42-17.87 21.34-1.19 11.74 7.55 23.42 19.14 25.62 11.82 2.81 24.75-5.05 28.02-16.67 2.82-8.5.02-18.43-6.55-24.44a23.85 23.85 0 0 0-22.74-5.85m239.59-.03c-7.5 1.84-13.6 7.67-16.53 14.72 15.18-.04 30.36.17 45.53-.11-3.77-11.48-17.64-17.71-29-14.61zm126.03-16.46c12.25-1.94 25.52 1.16 34.89 9.5 14.1 12.49 17.14 34.29 10.09 51.25a39.19 39.19 0 0 1-27.11 22.9c-13.37 3.16-28.61.41-38.84-9.11-13.96-12.6-16.86-34.43-9.65-51.29 5.21-12.43 17.31-21.44 30.62-23.25m-1.72 10.35c-10.81 2.82-19.03 12.43-21.24 23.24-2.87 12.4.6 26.84 10.75 35.06 9.06 7.28 22.26 8.45 32.73 3.66 7.68-3.53 13.42-10.62 15.86-18.65 3.89-12.33 1.36-27.06-8.05-36.28-7.81-7.54-19.72-9.89-30.05-7.03zm66.03-4.09c8.9-7.55 21.93-8.37 32.66-4.73 6.58 2.15 11.96 7.13 15.04 13.28-3.08 2.04-6.29 3.87-9.41 5.83-2.14-3.61-4.76-7.16-8.53-9.18-7.24-3.69-16.77-2.93-22.92 2.54-3.61 3.13-4.86 8.69-2.62 12.98 1.71 3.62 5.61 5.38 9.21 6.59 9.62 3.11 20.52 3.16 28.97 9.29 5.26 3.82 7.56 10.48 7.4 16.8.17 7.14-2.83 14.42-8.52 18.86-7.46 5.98-17.68 7.24-26.91 5.89-10.2-1.24-20.23-6.89-25.03-16.22 3.11-2.08 6.12-4.3 9.22-6.37 5.89 11.35 21.46 16.99 32.9 10.77 5.32-2.7 9.01-8.86 7.55-14.86-.72-4.12-4.2-7.02-7.88-8.54-9.78-4.11-21.12-3.96-30.22-9.79-11.22-7.02-10.66-25.09-.91-33.14zm90.94-6.03c12.48-2.32 26.23.56 35.9 9.03 17.7 15.47 18.67 45.66 3.05 62.9-14.81 16.19-42.92 17.07-58.91 2.16-14.36-13.23-16.86-36.3-8.26-53.36a39.08 39.08 0 0 1 28.22-20.73m.05 10.01a29.19 29.19 0 0 0-19.4 16.53c-6.56 14.28-3.29 33.55 9.89 42.97 10.49 7.32 25.61 7.29 36-.21 16.84-12.29 17.26-40.92 1.04-53.91-7.61-6.08-18.2-7.82-27.53-5.38zm84.8-6.29c14.05-7.11 32.16-5.76 44.71 3.86 16.61 12.67 20.01 37.66 10.84 55.76-5.57 11.05-16.73 18.88-28.93 20.7-14.57 2.56-31.56-2.53-39.43-15.76.07 18.06.02 36.12.03 54.19H660V871h10.5c-.02 4.72.07 9.44-.08 14.16a32.9 32.9 0 0 1 12.86-11.91m10.17 6.45c-11 2.94-19.93 12.11-22.77 23.11-3.47 12.34 1.06 26.43 11.08 34.43 10.03 8.27 25.27 9.68 36.5 3.02 18.5-11.05 20.06-40.59 4.16-54.55-7.79-6.83-19.12-8.77-28.97-6.01zm139.33-8.7c3.93-.02 7.87-.04 11.81.08 8.51 22.56 17.21 45.05 25.76 67.59 8.42-22.52 16.88-45.03 25.14-67.6 3.77-.1 7.55-.1 11.33-.06-13.79 35.88-27.4 71.83-41.24 107.69-2.88 7.68-9.36 14.5-17.89 15.3h-6.35c-2.35-.35-4.68-.89-6.98-1.37.29-3.4.64-6.79.98-10.17 4.27 1.13 8.93 3.05 13.27 1.13 4.08-1.87 6.34-6.05 8-10.01 2.83-7.05 5.4-14.2 8.16-21.29-10.67-27.09-21.37-54.17-31.99-81.29z"/></svg>