<svg xmlns="http://www.w3.org/2000/svg" xmlns:xlink="http://www.w3.org/1999/xlink" viewBox="2.52 -2.7 107 69"><defs><path id="a" d="M.03.11h122.3v69.53H.03z" transform="rotate(179.95 61.18 34.88)"/></defs><clipPath id="b"><use overflow="visible" xlink:href="#a"/></clipPath><g fill="#DD1A5B" fill-rule="evenodd" clip-path="url(#b)" clip-rule="evenodd"><path d="M29.05 55.15c.08 0 .08-.07.07-.13.3.02.12-.38.45-.3-.06-.38.46-.27.47-.55.2 0 .04.35.34.27.1 0 .1-.1.09-.19 0-.13-.12-.24-.27-.3.07-.16.46-.17.31-.43.07-.15.24-.07.35-.1l1.27-1.18.02-.26h.1c-.04-.26.31-.4.49-.45-.08-.5.67-.01.44-.53.06-.15.38-.16.3-.37.46-.52.86-.94 1.3-1.49-.05-.24.32-.22.25-.47.32-.22.27-.59.6-.82.18-.5.44-.96.65-1.44.42-.29.01-.82.53-1.08.12-.03.15.2.32.13v-.17c-.15-.16-.19-.4-.27-.53 0-.1.15-.09.24-.08-.04-.29.21-.48.01-.72a.96.96 0 0 0 .26-.43c.14-.28-.45-.53-.1-.68-.04-.09.05-.2-.09-.26.28-.4-.46-.41-.17-.82-.43-.23.1-.96-.55-.96a.28.28 0 0 1 .14-.2c.19-.54-.56-.24-.6-.68.23-.4-.46-.21-.25-.63-.13-.14-.27-.39-.55-.35l.02-.3c-.47.1-.25-.58-.76-.4-.15-.04-.1-.17-.12-.27-.2-.39-.53.04-.76-.1.2-.07.06-.27.1-.42a.54.54 0 0 1-.52-.3c-.2-.1-.3-.23-.51-.19v-.13c-.4 0-.52-.43-.92-.44-.15-.34-.65-.19-.77-.51-.3-.14-.49.04-.6.24l-.03-.05c.03-.13-.05-.21-.19-.23l.03-.03a.44.44 0 0 0-.12-.32c-.12-.04-.11.03-.2.05-.05-.13-.2-.14-.34-.15-.3.3-.34-.28-.62-.28-.04.1.1.23-.01.3-.1-.1-.01-.22-.1-.3-.24-.14-.44-.32-.75-.27-.23.73-.28-.43-.84-.27 0 .08.03.18-.02.23-.24-.12-.25-.47-.59-.42-.1.2.27.2.15.33h-.13c-.14 0-.13-.14-.13-.22h-.1c-.17.04-.14-.14-.15-.22a.3.3 0 0 0-.32.12c-.12.01-.24-.02-.29-.1-.23.1-.46-.03-.71-.04a5.17 5.17 0 0 0-1.77-.28v.07a1.8 1.8 0 0 1-.8-.3c-.19.02-.41.03-.56.1-.6-.19-1.28-.07-2-.15-.91.03-2.05-.1-2.97-.08-.1-.06-.11-.15-.19-.22-.18-.12-.33.02-.46.1 0-.29-.4-.15-.5-.28-.46 0-.26-.27-.27-.53h-.08c-.06-.04-.03-.1-.04-.16h-.15c-.13.1.14.26-.05.36-.35-.19-.12-.55-.25-.81.56-.14.5-.73.52-1.13-.01-.14.17-.18.24-.18.06.04 0 .13.08.2.37.16.22-.27.45-.24v-.1c.07-.15-.12-.27-.22-.33.16-.06-.06-.28.08-.36.16-.14.3-.18.54-.1l-.01-.2c-.7-.52.64-.16.27-.79.57.04.2-.64.73-.67-.01-.23.38-.15.34-.4.03-.52.91-.15.81-.7.22-.13.42-.43.78-.31-.14-.36.48-.22.4-.58.44.08.58-.39.84-.56.17-.49.86-.46 1.2-.84h.22v-.06c.05-.12.12-.16.27-.15-.1-.46.5-.3.69-.54.11-.2.4-.19.57-.3.03-.19-.1-.31-.25-.44l.6-.35c.14-.1.37 0 .5-.1.12-.18 0-.41-.07-.59.1-.18.35 0 .45-.14.26.58.42-.23.83-.12-.1-.61.73-.34.85-.83.44.4.48-.3.92-.15.17-.35.54-.4.83-.6.04-.16-.08-.2-.19-.28.09 0 .11-.12.2-.11.07.05.04.15.04.23.02.1.14.1.23.1.25-.16-.23-.42.08-.45.04.07.09.12.09.2.16.03.2 0 .28-.12.06.03.03.1.03.14.1 0 .23.02.3-.03-.35-.48.42-.29.46-.52.43.13.65-.23 1.04-.08.05-.52.92-.09.86-.7.08-.02.05.07.11.1.34-.05.3.4.58.42h.08c.1-.2.17-.47.33-.6.13-.4.66-.24.94-.44-.08-.18.16-.07.17-.18.07.06.04.15.04.22h.23c.04.03.13.08.1.15.03.12.12.1.22.1l.03-.39.35.02c.28-.44.68.13 1.02-.17l-.01.32c.07 0 .2.03.25-.02.1-.08.08-.21.12-.32l1.22-.01c.15.2.41.26.48.48-.18.53-.25 1.14-.67 1.55-.26.16-.2.53-.4.75-.33.2-.6.37-.94.53.02.08-.02.17.05.23.27.1.41-.1.63-.16.17-.04.43-.03.5.15.3.09.21-.3.5-.3-.07-.68.97-.46 1.12-1.08-.1-.28.37-.25.3-.52.15-.4.82-.43.52-.94-.12-.36.07-.75-.35-.93.02-.22-.3-.26-.45-.34 0-.25-.39-.48-.31-.72l-.3-.05v-.12c-.27-.28-.5-.68-.82-.82-.3-.16-.67-.16-.8-.49a.64.64 0 0 0-.62-.13.27.27 0 0 0-.15.1v-.03l-.2-.04c-.3-.2-.58-.43-.92-.5l.05.55-.35.01a.12.12 0 0 1-.11-.1c-.06-.02-.1-.03-.13-.01-.07.02-.1.1-.15.12-.03 0-.06 0-.1-.03.1-.03.1-.12.1-.2l-.01-.08c-.27-.1-.3.11-.42.24-.24-.3-.6-.03-.9-.18-.18.12-.34.22-.3.45l-.07-.07c-.05-.12-.13-.15-.23-.14-.16 0-.37.1-.53.1 0 .1.04.23-.02.32h-.2l-.13-.01c-.12-.06-.16.22-.28.05-.16-.05-.43-.1-.56 0-.49 0-.9.04-1.35.07-.2.28-.53.09-.83.15l-.01.32c-.37-.04-.64.21-.87.38-.37.1-.74.18-1.14.21.05.18-.17.16-.3.15-.12.12-.4.13-.29.36 0 .16-.2.07-.3.1.04.21-.22.21-.32.33-.14-.17.14-.22.1-.39-.2-.2-.38.07-.57.11.07.2-.18.38-.37.24-.1.02-.24.04-.17.18-.1.06-.15.06-.23-.04-.27-.14-.32.1-.48.14-.13.26-.3.48-.63.64-.02-.02-.1-.04-.06-.1.04-.02.07-.08.13-.08l-.01-.23c-.57.05-.87.52-1.21.91-.27.23-.37-.26-.65-.12-.02.1.04.21.12.26-.01.37-.57.12-.59.45-.05-.12-.18-.05-.29-.08 0 .04.04.11-.02.13l-.04-.02c-.11-.04-.18 0-.24.08 0-.15-.13-.25-.3-.22l-.02.27.25.04.01.19-.18-.01c-.3.12.02.35-.08.48-.07-.13-.2-.05-.3-.07 0 .05.03.14-.02.19-.16.08-.29.27-.5.23.16-.15.39-.36.23-.63-.22-.1-.49-.15-.61.03-.07.18.14.16.23.2-.2.02-.2.2-.4.21-.18.05-.12.47-.46.37-.03.35-.5.16-.75.29-.04.14.1.22.16.33-.07 0-.24-.03-.35-.02-.11.18-.46.11-.45.33-.05-.06-.12-.02-.18-.04.17.41-.41.13-.44.44.13.34-.32.1-.42.26-.03.1.07.26-.06.32-.06-.06-.04-.15-.04-.23-.07.01-.15-.02-.18.03-.04.14.06.22.2.24-.14.1-.25.35-.42.36.02-.12-.06-.2-.06-.33-.54-.04-.19.54-.32.79-.1.12-.08-.08-.19-.1-.1-.03-.17.03-.28.05-.08.19.17.16.12.33.03.03-.02.08-.05.06-.12.15.07.3-.1.39-.07-.05-.07-.11-.12-.17-.17.07-.45-.06-.6.07-.01.08.05.15.05.23-.07.05-.28-.03-.22.15-.2.11-.27.56-.62.35.07.23-.06.38-.26.35l.03.23c-.1.11-.14.43-.47.3.1.25-.1.29-.2.47 0 .28-.26.49-.39.72v.02a.47.47 0 0 0-.05.1v.05a.4.4 0 0 0 0 .15l.07.16h-.07c-.28.1-.38.37-.37.65a.55.55 0 0 0-.16.48c.07.12.28-.1.23.14-.05.05-.18.02-.25.02-.13.37-.11.85-.1 1.25-.02.8.37 1.47.61 2.2a15.67 15.67 0 0 0 1 1.55l.17.21a11.7 11.7 0 0 0 1.08 1.22l.3.27c.1.1.22.18.33.28.1.08.21.17.32.24a6.6 6.6 0 0 0 2.66 1.16c.46-.02 1.03.13 1.47.07.12-.02.02-.23.2-.2l.05.33h.12c.14-.1.27-.07.53-.06.05-.19.4-.13.52-.27.02.08.21.12.15.23-.03.06-.12.02-.18.04v.18h.11c.08.04.13-.01.12-.08.24.07.53.19.82.07.96.25 1.94-.05 2.93.06.16.3.72.16.79.43.27.1.6.28.87.13.01-.05-.04-.13.02-.18.18 0 .28.17.48.11.27.27.77.24 1.04.21.34.02.58.18.89.04.23.23.6.29.88.43.17.01.34-.13.46.05.63-.04.99.77 1.63.47.01.24.28.21.35.43.17.11.35-.03.49.02.25.08.43.28.56.48.41-.03.16.41.45.5.9.38.26 1.1.44 1.77-.07.24-.43.24-.23.57-.13.17-.15.38-.23.56 0 .25-.22.45-.28.7-.08-.07-.01-.25-.19-.2-.17.06.04.22-.02.35-.44.61-.85 1.28-1.41 1.8.02.37-.33.55-.58.75-.3.75-1.1 1.13-1.49 1.87-.13 0-.22.04-.24.17-.58.36-.78.95-1.25 1.4-.47 0-.34.6-.75.74-.5.04-.42.6-.86.76-.68.06-.7.73-1.24 1.1-.22.1-.58.1-.62.42-.42.32-.69.58-1.14.85-.57.3-1.03.81-1.58 1.2-.1.08-.21.15-.32.21l-.06.04c-.12.06-.25.12-.39.17-.35.13-.42.53-.83.55-1.34.95-2.8 1.63-4.32 2.27-.6.52-1.4.66-2.06 1.03-.18.04-.36.1-.53.15l-.12.05-.83.32c-.35.12-.78.09-1.13.2-.54.02-.22-.56-.7-.55.42-.26-.26-.63-.01-1.02h.07c-.07-.24.18-.27.34-.34-.03-.53.32-.86.6-1.21.09-.1.16-.21.22-.33.07-.17.28-.2.4-.31a.28.28 0 0 0 .09-.15c.38.14.22-.3.4-.37.3.02.4-.27.48-.46.42.12.18-.4.55-.36-.01-.3.52-.28.48-.55a.9.9 0 0 1 .77-.33c.14-.24.5-.4.28-.8a.7.7 0 0 1 .39-.26c.16.17-.22.13-.13.32-.03.17.2.08.28.1.13 0 .18-.06.19-.14v-.08l-.06-.22v-.06c.07.04.16.07.25.07h.05a.2.2 0 0 0 .09-.02l-.02-.3c-.17.02-.5-.09-.48.14a.3.3 0 0 1-.02-.16c.07-.29.82.05.9-.3.03.15-.19.16-.24.26-.01.03-.01.08.03.14.63.24.4-.75.94-.5.05-.17.38-.11.34-.34l.33-.01-.02-.4a11.8 11.8 0 0 0 1.15-.7 43.6 43.6 0 0 0 1.4-1.04c.26.07.33-.21.57-.17.06-.32.35-.28.66-.26-.08-.19.12-.28.2-.37.41.14.47-.2.78-.22.26-.5.78-.65 1.16-1.05.04-.1.02-.3.24-.22v-.16c.18-.16.47-.3.7-.35v.16c.15.05.24-.03.32-.1-.01-.08.01-.15-.05-.21.3-.1.54-.46.92-.33.06-.08.17-.1.12-.23.57-.27 1.23-.56 1.57-.98.2-.02.36.13.3.33h.14c.02-.14.2-.21.13-.37.08-.05.12-.17.24-.13.11-.42.65-.05.81-.37.28-.1.5-.3.8-.26.33-.39.9-.35 1.36-.58.46.15.63-.27 1.06-.24.03-.13.18-.07.3-.08.04-.12.28-.21.08-.38-1.21-.23-2.08.4-3.1.6-.46-.19-.37.4-.79.18-.23.2-.72.01-1.03.18-.35.07-.31.31-.54.52l-.58-.03c-.21.27-.69.2-.8.51-.26-.19-.16.18-.37.18-.03-.04-.1-.05-.08-.1-.2-.07-.22.06-.25.18-.2-.14-.24.1-.42.08-.17-.02-.22.08-.23.22a.08.08 0 0 1-.05-.07l-.18-.01c-.07.29-.88-.02-.58.52l-.25-.08c-.38-.04-.24.26-.4.44-.07-.06-.04-.14-.06-.2l-.28-.02c-.17.24-.44.26-.66.36.02.34-.4.12-.6.3-.09.18-.43.1-.59.29-.04.33-.54.26-.8.38-.15.02.03.3-.21.24-.2 0-.28.07-.38.21a.42.42 0 0 0-.3.1l-.11.1-.07.05a.38.38 0 0 1-.11.06h-.04a.44.44 0 0 1-.14.02c.05.2-.2.11-.2.31-.06-.07-.18-.03-.25-.05l.03.13c-.01.07-.06.09-.12.1-.1 0-.23-.04-.3-.01-.06.01-.08.05-.05.15-.46.14-.6.52-1.1.62-.01.2-.34.1-.36.34-.04.1-.13.13-.23.14-.06.01-.13.01-.18.03-.07.02-.12.07-.08.2-.14.13-.26.26-.53.19-.03.32-.52.2-.5.5.09.18-.14.15-.24.15-.14 0-.34.07-.24.24-.1.1-.19.21-.35.15-.14.18-.4.2-.34.5-.5-.12-.4.4-.8.41-.53.03-.55.63-1.08.73.15.33-.4.11-.19.43h-.22c-.11.07-.19.13-.2.28a1.16 1.16 0 0 0-.78.8l-.39.2c-.08.07.09.3-.12.25-.4-.08-.13.39-.2.52-.18-.01-.07-.27-.29-.18-.13.05-.38.1-.27.34-.34-.03-.19.38-.52.39-.11.33-.46.53-.64.82-.17-.04-.13.14-.12.24-.27.07-.06.36-.34.4.15.32-.25.37-.44.53-.07.2.1.26.25.34l-.47.37c-.05.18.12.38.02.5-.02.2-.1.47.1.63-.07.03-.08.09-.06.16-.08.27.27.09.4.2-.03.38.39.52.7.61.04.2.3.12.4.15.06.15.22.3.37.34l.36.02c.1.1.07.28.3.24.15-.09.05-.27.12-.38.08.08.2.24.17.4.18.07.45.16.56.02.14.13.06.22.1.38.16.05.24.16.36.29.17.04.21-.06.28-.15.29.39.52-.15.9 0l-.02-.19c-.03 0-.09 0-.1-.04l.43-.08v.14h.1c.53-.3.28.54.84.27.13 0 .14-.12.2-.2l.08.17.13.02h.22c.08 0 .15 0 .23-.02l.07.2c.36.18.12-.31.46-.15.06-.16-.12-.12-.18-.23.04-.02.05-.05.06-.07l-.01-.08-.03-.09c0-.03 0-.06.02-.08h.12c0-.04-.03-.1.02-.12.03 0 .1 0 .11.03-.04.12-.06.3.06.4.44.42.9-.03 1.35-.04a.6.6 0 0 1 .13-.16c.15-.16.36-.3.27-.55l.06.05c-.09.24.3.12.17.37.37-.05.74-.11.98-.34l-.1-.49c.25.12.34-.17.5-.11.04.08-.02.15-.1.16.04.16-.19.28-.05.42.38-.18.83-.2 1.05-.54.13.04.24-.25.35 0-.04.11-.24.17-.16.33l.43.02c0-.13.1-.22.28-.17-.06-.5.81-.03.71-.61.45 0 .69-.3 1.02-.44.2-.26.63-.23.77-.47.18.03.3-.04.49-.05l.2-.13c.04-.04.07-.08.04-.15-.02-.32.4-.39.61-.52.16-.17.45-.28.28-.5.09-.02.1.07.18.1.42.09.45-.31.75-.47.4 0 .37-.43.7-.52.42 0 .73-.37.85-.7.05-.04.17 0 .12-.08 0-.13.13-.04.2-.06.07-.15.4-.16.17-.38.11-.04.06-.23.24-.15.09-.04.12.07.11.14.03.3.27-.06.46.07.03-.37.33-.08.58-.19l-.01-.13c-.24-.32.34-.39.43-.65.12-.06.34-.1.3-.28l.16.14c.42.06.08-.5.25-.7.1-.16.18.05.32.01m64.03-37.26h-.17c.15.52-.32.65-.54.96.11.22-.2.11-.2.28-.05.07-.37-.04-.24.18.03.06.1.03.15.05-.02.24-.5.14-.3.47-.1.13-.17.07-.33.08l-.04.48c-.06 0-.16-.02-.14.06.01.04-.03.09.03.12h.12c-.25 0-.23.22-.34.31v.07c-.3.04-.15.35-.38.46-.2.25-.37.46-.43.72-.25.11-.26.65-.66.52-.05.25.06.54-.28.6.06-.2-.21-.4-.03-.55.04-.13.2-.2.12-.38-.06-.06-.17-.04-.24-.04.01-.07.08-.09.05-.16.17.01.34.02.4-.11-.02-.06.02-.14-.05-.17h-.1c.05-.05.02-.13.03-.19.07.02.16-.02.17-.1 0-.09 0-.22-.13-.28l.3-.03c.01-.25-.07-.53-.26-.66.16.08.16-.1.25-.15-.16-.27.16-.28.15-.52-.06-.21.12-.36-.05-.53.3-.07.1-.59.39-.7.02-.13-.1-.25.13-.24-.07-.37.18-.68.28-1.02.25-.22.15-.64.5-.84 0-.3.34-.5.35-.76.06.03.1-.02.15-.06-.27-.32.34-.26.2-.63.18-.07.34-.26.21-.44.09-.13.28-.01.38-.09.03-.41.46-.35.55-.7.15-.1.4-.12.34-.38.05-.23.44-.18.47-.49.23-.08.35-.4.57-.44l.05-.01c.25-.1.15-.52.52-.37.05-.1.2-.16.13-.31.14.04.38.1.46-.05l.07-.05v.03c.34-.03.9-.19 1.16.21.38-.02.46.36.63.54-.1.22-.52.04-.42.34-.23.14-.35.38-.62.3-.17-.07-.22.07-.22.17l.07.46c-.05-.01-.06.01-.07.03-.02-.07.03-.23-.12-.2-.4 0-.2.56-.63.48.02.06.03.1.02.14-.01.24-.5.05-.45.4-.1-.02-.18.08-.2.14-.04.27.08.28.05.56-.16.11-.5-.08-.56.16.02.12-.04.3.15.3l.04.03c-.04.04-.1.04-.14.09.01-.08-.01-.22-.14-.17-.24-.02-.14.24-.2.35-.03.13.14.3-.02.4a.38.38 0 0 0-.29-.09c-.04.07-.1.13-.06.22.09.02.18.14.14.23.07.15-.08.06-.12.12 0-.02-.05-.08-.08-.07-.06 0-.15 0-.15.06v.1h-.05c.14.3-.48.4-.33.76m12.9 8.42c-.37.3-.74.7-1.13.94a1.6 1.6 0 0 1-.4.18c.1.25-.26.06-.27.24-.63.15-1.09.49-1.7.66-.28.15-.8.03-.85.35-.06-.03-.04-.1-.04-.13-.25-.02-.42.16-.68.13-.1.27-.65-.05-.77.25-.36-.15-.32.24-.64.11V29l-.35.05v-.1h-.11c-.24.02-.69-.13-.63.23-.08-.06-.04-.14-.05-.2l-1.03-.08-.03-.02c-.35-.16-.68-.36-1.1-.36l.03-.22-.25-.01c-.39-.24-.5-.6-.66-.96-.24-.45-.17-.93-.42-1.4.1-.25-.04-.58-.21-.82.11-.07.12-.29.05-.42.36.04.14-.33.12-.44H95c.13-.28-.35-.09-.27-.37.06-.02.08-.12.17-.09-.08-.17.16-.38-.1-.48l.08-.07c-.21-.34.21-.5.14-.82l-.26-.04v-.04c.15-.03.17-.22.1-.34-.03-.17.16-.13.28-.13-.02-.12.02-.26-.06-.39-.06-.07-.2 0-.29-.06.25-.06.23-.32.41-.44-.06-.2.28-.52-.05-.62.05-.07.2.02.28-.04.04-.12.03-.3-.06-.4h.05l.2-.05c-.15-.22.22-.31.07-.57h-.1c-.06-.06-.04-.17-.04-.24-.06-.01-.15.02-.18-.03.1-.02.19-.09.3-.05.18-.08.12-.25.14-.39-.03-.1-.12-.14-.22-.17.1.02.15-.14.28-.12 0-.07.01-.15-.08-.2l.28-.04c-.05-.1.07-.14.08-.2 0-.01-.01-.03-.05-.06-.08-.06-.03-.13-.05-.19.13-.03.02-.28.24-.21-.07-.3.43-.47.15-.78.05-.11.23 0 .32-.08.02-.11-.07-.2-.13-.3.02-.05.1 0 .14-.02l-.01-.32c.22-.1.1-.34.05-.5.13-.07.23-.24.42-.19 0-.2.28-.1.2-.34-.06-.01-.15.02-.18-.05-.02-.05-.16-.14-.01-.18.01 0 .04.02.03.06l.33.05c-.07-.32.36-.25.18-.6-.08-.07-.34-.03-.25-.17.06-.28.5-.25.55-.52l-.01-.14c.07-.14.25-.07.35-.17.24-.2-.08-.46 0-.69h-.18c-.01-.2-.18-.27-.13-.5a.54.54 0 0 1-.13-.03c-.29-.12-.35-.45-.64-.58-.4.1-.37-.38-.8-.22-.2-.32-.6-.26-.9-.24a1.4 1.4 0 0 0-.36-.04l-.1.01-.27.03-.06.01-.6.14h-.03c-.35.04-.71.07-.85.33-.3.01-.38.33-.72.32-.2 0-.19.23-.43.16.02.35-.53.06-.44.44-.2 0-.33.17-.42.33-.2-.05-.29.2-.45.25-.13.26-.4.34-.61.54-.07.07.01.26-.17.18-.17.21-.52.32-.37.67-.2.06-.44.09-.58.3-.12.12-.3.28-.28.5-.14.15-.53.12-.44.45 0 .06-.04.1-.1.1v.09c.03.08 0 .23-.14.15l-.01.27c.03 0 .09 0 .1.03-.13.3-.17-.18-.36-.15-.09.06-.11.2-.1.32.16 0 .25.05.37.08-.24-.05-.1.21-.27.22.03.28-.26.48-.44.55v-.12c-.36-.07-.24.35-.46.4v.16h.15c.02-.06-.03-.14.02-.2.05 0 .1.01.13.05-.07.16-.16.24-.21.38-.03.08.05.04.08.1-.14.11-.06.37-.34.3.03.09-.06.2.08.26-.05.05 0 .23-.17.16v.13c.05 0 .13-.02.14.03 0 .06.04.14-.02.16-.05-.01-.03-.06-.03-.1h-.12c-.22.11.02.4-.08.58-.44-.16-.2.4-.44.46h-.18c-.1.13-.18.29-.08.5-.1.02-.18.08-.14.2-.09.1-.1.3-.24.33.05.34-.17.47-.02.8-.07.07-.13.17-.3.12 0 .11-.1.4.14.4-.04.05-.11 0-.17.02-.04.13-.22.28-.16.47h.1a.6.6 0 0 1 .05.14c.01.04.02.1 0 .12l-.11-.1c-.19-.06-.25.14-.2.3.06 0 .13-.03.18.03.14.43-.49.32-.37.76h.1c.1 0 .09.09.09.13-.23.1.03.39-.05.55h-.06c-.02.23.02.49-.2.65.18.24.13.53.37.73-.02.08.1.18-.04.23-.06-.07-.06-.15-.11-.24-.26-.09-.07.26-.3.25-.03.1.02.22.11.27.24 0 0 .33.13.45.2.15.21.2.37.38.4.18.18-.29.5-.18-.05.02-.06.08-.12.06l.02.39c.01.06.03.1.06.14l.03.03.06.06.05.02.07.04.05.01a.99.99 0 0 0 .15.03 9.37 9.37 0 0 0 .2.02l.09.01.13.04c.05.01.1.03.14.06.35-.15.85-.01 1.2-.17.1-.18.37-.3.56-.46.15-.34.48-.51.68-.73.5.15.15-.62.56-.62.23-.66.78-1.15 1.14-1.78h.08c0-.28.2-.47.32-.7.04-.1.02-.35.2-.28l-.01.46c.15.42-.14 1.13.48 1.24 0 .13-.3-.01-.21.2.05.05 0 .2.16.16.09.06.12.2.12.33.07 0 .19-.02.25.04-.12.3.27.37.1.64.07.24.35.37.35.66.22-.05.24.12.43.12-.06.05-.15.02-.2.03-.14.27.28.16.3.33.02.06.03.13.13.1.18-.03.1.16.13.24.07-.03.1.04.18.06-.03.07-.1.02-.15.03l.01.13c.05.08.14.07.21.07 0-.02 0-.08.04-.09.06.26.4.04.5.25-.03.04-.08.04-.13.06-.04.12.06.2.12.29.3-.07.22.24.51.19.06.28.43.27.66.41.22.13.37.36.63.38v-.1c.08-.02.14-.1.23-.1.2.02.08.22.13.33h.18c.23.26.27.03.39-.1l.03-.02c.01-.02.02-.03.04-.03a.18.18 0 0 1 .1-.02c.1.11.09.34.3.34.17-.14.33.13.58.06 0-.04-.02-.08.02-.1l.16.01c.14 0 .26-.07.26-.2l.22.19c.27.08.56.08.63-.2.33.11.6-.12.75-.25v.12c.1.02.17.01.24 0l.22-.04c.1-.13.33-.19.31-.4.2-.02.36.07.54.09.17-.2.46-.07.55-.32.06.01.03.08.04.12h.22c.14-.07.23-.14.24-.3.38.28.37-.33.74-.13.02-.12-.08-.27.05-.35l.09.2c.25 0 .42-.17.66-.2-.01-.22.28-.08.39-.2.15-.22.36-.2.52-.4.5-.18.96-.67 1.49-.93l-.03-.48-.25-.01z"/><path d="M57.26 37.6c0-.29-.12-.67-.04-1-.14-.1-.12-.22-.02-.33.01-.42.06-.76.05-1.15a7.1 7.1 0 0 0 .25-1.7c-.22.03-.13.37-.38.44-.1-.42.29-.54.18-.96.03-.1.1-.21.16-.32-.03-.1.05-.25-.08-.32-.05-.03.24.08.17-.09-.02-.04.03-.1-.04-.13h-.11l.06-.13c.05.06.12.02.18.04.03-.19.26-.38.05-.57.25.09.72-.86.51-1.24.13-.08.12-.27.06-.39.67.14.16-.6.5-.8.34-.09.45-.85.46-.95.11-.08.18-.2.19-.38-.13-.24.2-.2.13-.41.3-.12.41-.41.54-.65.13-.26.36-.46.42-.76.35.09.14-.28.34-.33.3-.24.4-.66.72-.88l.02-.25c.1.02.2 0 .22-.09v-.16c.26.08.03-.22.19-.24 0-.04.01-.08-.03-.1.08-.05.18-.24.3-.3-.05.07.07.1.15.1.07.03.16-.02.17-.09l-.09-.3c.33.08.45-.66.78-.2l-.1.26c-.27.03-.3.26-.35.48-.04.14-.08.28-.21.36-.03.33-.35.51-.21.9-.06.07-.25.16-.17.3.17.04-.09.29-.09.33 0 .1.06.24-.09.26-.05.48-.26.91-.3 1.4-.16.35-.24.72-.38 1.08 0 0-.2.54-.19.63.02.06 0 .12.05.17-.42.14-.14.8-.46 1 .18.39-.44.15-.26.53-.13.06-.1.18-.09.3.04.05.1.02.14.02v.11c-.03-.07-.1-.03-.18-.05-.08.16-.07.35-.1.52a.59.59 0 0 0-.13.57c-.1.05-.45.57-.4.72-.49.09.12.7-.35.7-.14.03-.04.16-.07.25.14.02.06.17.09.26-.09 0-.2.03-.2.12.02.2-.32.22-.23.5-.07.16-.38.18-.31.44-.2.15-.12.41-.33.6-.06.27-.06.69-.42.84-.17.5-.44.85-.69 1.33 0 0-.04-.23.02-.3m7.48-2.57c-.16-.92.76-1.35 1.35-1.78.12-.2.4-.34.66-.52.1-.24.56-.12.54-.48-.12-.08-.27-.03-.35.07v.04h-.03c-.02-.12.18-.18.3-.18.2-.12.24-.3.3-.47.53.12.7-.31 1.03-.51a.6.6 0 0 1 .3-.1c.23-.15.44-.4.74-.49.17-.2.48-.2.76-.31.14-.25.32-.51.69-.52l.5-.23c.25.36.14.86.43 1.17.13.18-.06.61.32.56a7.32 7.32 0 0 1-.26 3.1c-.19.02-.03.3-.23.33.05.22-.24.32-.22.6-.32.29-.5.6-.85.9-.23.14-.08.56-.45.55a.47.47 0 0 1-.1.13c-.15.13-.35.25-.36.46-.28.16-.4.5-.85.38-.2.08 0 .34-.3.28-.07.04-.02.12-.03.19.03.05.1.03.15.04-.31-.04-.32.26-.6.23-.19.1-.5.25-.54.53-.3.1-.18-.28-.48-.16-.06.05-.01.15-.02.23-.16.07-.47-.1-.53.13 0 .07 0 .2.1.17h.11c-.08.13-.21.14-.38.17-.04-.1-.25-.13-.36-.08l-.06.2c-.11-.18-.35-.1-.5-.1-.08.06-.12.14-.1.23-.57.08-1.09-.02-1.63.11v-.1c-.38.09-.6-.16-.98-.17-.09.06-.1.17-.25.12-.1-.1.2-.43-.15-.42h-.1c.02-.14-.06-.22-.2-.24-.58-.35-.17-.94-.36-1.37.31-.1-.07-.54.38-.47.04-.1.2-.14.13-.28l-.19-.07c.2-.04.05-.25.3-.24.04-.19.27-.1.3-.26.02.09-.06.23.08.24h.1c.01.3.38.23.55.42.18.02.24.29.45.27.07.22.34 0 .36.22.53.1 1.25.31 1.72.04.05.17.31.1.43.09 0-.27.32-.22.5-.33.26-.3.95-.5.66-1.1-.07-.07-.16-.03-.23-.05 0 .28-.24.53-.46.67l-.4.1c-.07-.29-.39-.02-.57-.15.06-.3-.2-.29-.17-.56-.31-.23-.33-.55-.67-.67.1-.23-.06-.54-.31-.57h.03zM40.5 26.75a.6.6 0 0 0 .07.2c-.04.11 0 .4-.27.33-.05.16-.03.41.1.51-.01.15-.19.22-.32.22-.07.17.14.15.23.21-.07.12-.03.32-.2.34v.1c.08.16-.11.12-.2.12 0 .21.15.4.2.58-.25.1.1.41-.26.38-.04.12.08.15.11.23-.01.04-.07.03-.1.03v.18h.11l.06.05a.1.1 0 0 1 .03.07v.12c-.12.08-.15.15-.15.23 0 .11.1.23.19.35.08.13.15.26.1.4h-.03c-.13.05-.45-.07-.39.18-.1-.05-.08-.13-.08-.21h-.14c.15.38.04.88.31 1.2-.04.07-.07.19-.17.15v.1c.01.03 0 .06-.02.08-.02.02-.05.02-.1 0 .03.15.03.3.02.43-.03.43-.15.86-.17 1.25a7.6 7.6 0 0 0-.1 1.76l-.15.13c.04.11-.03.3.04.39.02.03.06.05.13.06-.14.02-.22.08-.32.1v-.07l-.15-.01v.16c.31.15-.09.26.03.51.07.02.16-.02.23.05-.1.12-.24.13-.28.27l.01.2h.14v-.1c-.06-.1.1-.09.17-.08-.09.14-.1.49-.08.7h-.03c-.07-.03-.03-.1-.05-.13 0-.07-.03-.17-.14-.13-.07.07-.18.2-.17.34 0 .04.01.09.05.13.16.04.23-.04.36.09-.17 0-.16.2-.35.17v.13c.1 0 .21.01.22.1-.1.15-.24.35-.21.58a.33.33 0 0 0-.06.1v.04l-.02.09v.01c.02.21.16.44.08.62l-.04.07c-.02.08-.1.3.1.33l-.08.05c.18.29-.37.62.15.88-.06.05-.17.02-.26.03.04.07-.04.09-.06.15.08.79-.01 1.48.07 2.2.2-.06.2.11.29.2-.1 0-.07.22-.25.14 0 .1 0 .22.13.24l-.15.06c.1.28-.13.43-.04.73.46.19-.11.7.3.96-.14.2 0 .45-.07.67-.04.17.07.33.2.42-.08.02-.2.08-.15.2 0 .13.15.05.23.13-.13.04-.1.18-.1.29.07 0 .16-.02.22.03.01.2.12.36.2.53.16.1.37-.04.37.21.61.43.9-.27 1.34-.33.04-.06.06-.15.1-.23v-.01a.27.27 0 0 1 .06-.07l.02-.03a.2.2 0 0 1 .12-.03c.25-.6.3-1.17.28-1.81.05-.38.09-.75.34-1.02a.15.15 0 0 0 0-.1c-.01-.08-.11-.15-.16-.23.16-.15.1-.48.33-.6.21-.26-.28-.27-.13-.56.3-.08.09-.4.2-.6.04-.07.13-.08.2-.12.01-.37-.15-.89.2-1.18.02-.08.1-.2.1-.3a.14.14 0 0 0-.05-.1.2.2 0 0 0-.07-.04c.1-.21.35-.32.28-.63.2-.24.23-.58.29-.89.05-.06.03-.13.02-.2l-.01-.08c-.01-.06 0-.11.07-.13l.1-.01c-.07-.7.7-1.18.32-1.88.06 0 .1-.03.14-.06.26-.18.14-.64.39-.88.05-.1-.13-.2.03-.25-.03-.31.29-.55.1-.9.17-.39.5-.76.55-1.23.16-.28.22-.65.5-.82.24-.17-.05-.4.07-.58.24-.01.2-.38.41-.42.07-.28.41-.44.33-.74h.07c-.03-.28.11-.44.29-.62.06-.17.17-.34.4-.4a.46.46 0 0 1 .07-.17l.04-.04a.48.48 0 0 1 .08-.08l.04-.03a.75.75 0 0 1 .11-.05l.04-.02.16-.05c.14-.04.27-.07.38-.12-.21.27.13.55.04.83-.29-.06-.02.23-.24.25-.22.27.26.33.15.55h-.01c-.37-.1-.2.23-.22.42 0 .03-.01.06-.03.08h-.1c-.07.18.18.4-.05.48-.02.2.1.49-.08.58.02.18-.04.38.13.52a.46.46 0 0 1-.28.15c-.05.18.08.44-.08.54.27.89-.2 1.67.01 2.58.05 0 .1-.02.14.03l-.1.1.08 1.19-.17.06.12 1h-.03c0 .24.02.5.13.68-.14.4.07.83.03 1.25l.21.15c.07.13-.05.14-.01.3.05.18.03.4.3.45.04.2-.24 0-.28.15.04.37.23.7.41 1.05.2 0 .32.17.54.12.45-.3 1.03-.34 1.46-.67.08 0 .15 0 .21-.02l.07-.02c.2-.08.32-.26.53-.4.32-.06.23-.52.7-.36l-.1-.26c.22-.2.42-.48.54-.76-.14-.4.18-.71.1-1.15-.35-.15.05-.56-.26-.74.36.03.2-.37.23-.57-.28-.2.03-.52-.04-.8.25-.67.55-1.38.55-2.05h.04c.13-.16-.2-.53.23-.47.05-.18-.12-.2-.19-.33.17-.45.54-.83.72-1.28-.05-.32.17-.46.26-.74.03 0 .09 0 .1.05-.25.3.06.6-.24.86-.05.76-.1 1.8.18 2.54.12.11.23.25.2.47.03.06.12.15.18.17-.03.26.23.43.33.65.2.05.27.04.3.27.09.15.3.2.43.18v.07h.06c.05.02.05.07.05.1-.02.05-.1.02-.14.02 0 .1.02.19.08.27.27.06.49.2.76.25.16.26.51.2.73.36.12.02.22 0 .3-.08.27.13.53.06.81.1v-.13c.34.08.16-.28.3-.4.42.03.36-.35.4-.63.07-.04.2-.1.32-.1 0-.16-.03-.25-.17-.3.4-.2.4-.62.5-.95h-.08c.05-.22.42-.3.27-.6.18 0 .16-.1.2-.21.07-.04.19-.18.13-.32-.28.01-.08-.28-.2-.4.08-.11.23-.27.39-.2v.09c-.03.05-.1.02-.15.03v.16h.16v-.1c-.02-.07.08-.05.14-.05.05-.15-.13-.15-.09-.3-.01-.06.09-.06.13-.06.03-.13-.09-.35.14-.38-.02-.07.02-.16-.05-.22.05-.07.14-.06.21-.05v-.16h-.08c-.14-.15.1-.34-.1-.43.46-.26.48-.93 1.08-.98-.01.2.2.36.13.58.19.28.17.42.28.73-.1.2.06.2.02.44.43-.03.02.47.4.45l.05.83-.25.06c-.03.16-.17.26-.16.47-.22.1-.07.39-.4.3.1.28-.3.34-.23.6-.28.47-.44 1.1-.18 1.67h.08c.01.34.4.4.52.67.05.08.25-.02.26.15.3-.04.38.24.65.25.06.14.4.12.44.3.31-.13.17.3.42.23.14-.04.1-.19.2-.22.04.01.03.07.03.1.23.11.49-.08.62.18.2.1.69-.2.82.1.41-.1.06.44.49.31.16-.03.24-.17.34-.24h.6c.03-.25.38-.02.5-.17.1.01.2.13.32.05.08-.25.27.08.42.05.1.02.1-.12.14-.18.05.01.04.06.04.1H68c.16-.2.52-.27.8-.35.01-.1-.02-.16-.08-.23.13-.06.31.03.43-.03v-.07c-.01-.12.14-.04.2-.06.19-.14.56-.1.6-.32l.04.03c-.12.28.1.28.26.32.02 0 .04 0 .06.02l.04.01.03.03.02.05v.03c0 .04 0 .08-.03.13.06 0 .15.04.21-.02-.07-.33.43-.03.34-.34 0-.12-.12-.05-.18-.17l.02-.03c.6.34.7-.24 1.18-.33.17-.13.17-.52.52-.4v.08c-.07.03-.11.11-.17.1-.08.2.15.19.14.34.25.1.12-.19.25-.25.42.16.37-.33.66-.4.08-.18.27-.32.19-.55h.2c.24-.1.35-.26.46-.43.22-.16.35-.5.61-.61.1.02.13.13.12.2l.25.02c.06-.19-.16-.19-.1-.37-.32-.36.1-.56.15-.9.47-.02-.13-.5.36-.48 0-.11.02-.25-.12-.3l.14-.13c0-.3.26-.31.23-.64.04 0 .06 0 .07-.03.05-.04.01-.15.02-.22-.11-.08-.1-.25-.2-.34a.26.26 0 0 0-.15-.06s.22-.52.23-.66c.25-.33-.29-.43-.07-.8-.35-.25.02-.55-.1-.82.13.16.02.39.12.56h.1c.27-.44-.11-.97-.02-1.52-.2-.14-.4-.18-.5-.43a11.12 11.12 0 0 0-.81-2.17c.11-.05.22-.1.33-.12l.18-.03c.06 0 .13 0 .2.02.1-.24.39 0 .58-.1 0-.04.3-.26.48-.14v.07c.1 0 .2-.02.26.04l-.02.25s.1.08.1.1c0 .03-.02.04-.06.04v.16c.2.1-.08.23.02.4.09 0 .2-.03.25.03-.02.05-.1.02-.14.02-.07.43.17.81.37 1.09.02.7.8 1.2 1.26 1.72.54.1.8.8 1.37.52v.03c.3.16.57-.04.53-.3.84-.78.88-2.1 1-3.22.44-.28.08-.95.36-1.32.46.13.93-.02 1.33.13.29.35.85.28 1.03.63.2.13.35-.05.53-.07-.03-.23-.22-.33-.35-.5-.37 0-.6-.2-.93-.23-.3-.54-1.1-.19-1.49-.69.42-1.25.46-2.74 1.1-3.94.18-.73.44-1.43.8-2.09h.1v-.09c.03-.05-.06-.01-.08-.07l.12-.09c.17-.12.22-.4.17-.67.3.01.09-.43.34-.47.38.1-.03-.38.34-.36-.24-.32.26-.44.18-.7 0-.05.05-.1.11-.09 0-.1-.04-.2.02-.27.64.06-.01-.57.5-.58.28-.12.1-.44.34-.56l.05-.18a.87.87 0 0 1 .08-.16.56.56 0 0 1 .26-.2l.04-.03c.07-.45.57-.7.82-1.02.12-.28.56-.4.32-.82-.71.04-.87.73-1.12 1.17h-.11c-.37.45-.58.96-1.04 1.3-.32.19-.18.7-.6.78.13.34-.28.3-.26.56-.3.07-.41.47-.63.65.04.24-.28.3-.26.53-.05.1-.07.23-.17.3a.2.2 0 0 1-.13.01c0 .07-.02.15.05.2-.05.06-.1.07-.18.05l.01.3c-.34-.03-.05.42-.44.32.01.05.02.08 0 .11-.01.1-.12.14-.17.18 0 .17-.08.21-.16.29a.33.33 0 0 0-.08.09l-.01.23h-.08c.07.2-.21.21-.31.33.02.41-.36.64-.5 1-.04.13.03.38-.18.32l-.05-.1c.07-.34-.09-.86.2-1.15.03-.18-.1-.3-.13-.45.1-.08.24-.1.27-.22-.17-.2.18-.4-.05-.52h.08l-.02-.25c-.4 0 0-.3-.24-.43.1-.14.13-.29.13-.45 0-.26-.06-.54.04-.8.2-.03.25-.19.23-.35a.6.6 0 0 0-.05-.16c.16-.74 0-1.5.16-2.24.18-.9.16-1.91.36-2.82v-.3c0-.3.04-.58.17-.81-.1-.62.24-1.1.3-1.65.03-.18.02-.37-.04-.57 0-.04.02-.08.03-.11.1-.25.35-.4.18-.75a.3.3 0 0 0 .1-.2c0-.2-.09-.45.04-.57a.24.24 0 0 1 .1-.05h.13c.1.01.15.05.31.05.12-.07.25-.11.38-.14.26-.06.53-.07.82-.07h.46c.13-.05.26-.12.42-.07.67-.13 1.4-.2 2.1-.17.44.07.74-.3 1.1-.23v.06c.33-.07.68-.1 1.02-.15.34-.05.67-.12.97-.28.22.43.2-.22.56-.04-.02-.1.02-.16.1-.2.34.06.61.18.96.09v-.05c-.05-.13.1-.1.18-.1-.09-.25.23-.17.37-.17.23.11.43-.2.51.05h.2c.47-.44 1.26-.31 1.81-.6.25-.05.49-.13.7-.27.41-.11.73-.33 1.08-.5.19-.17.26-.54.66-.45.17-.02.11-.19.17-.28.49-.03-.04-.5.32-.7-.15-.23.3-.2.12-.47-.12-.03-.17-.06-.18-.1-.04-.1.16-.21.11-.34a.2.2 0 0 0-.06-.09c-.1-.25-.2-.53-.52-.6-.12-.43-.63-.44-1-.62-.1-.14-.38 0-.46-.16a.6.6 0 0 1-.2-.02c-.17-.05-.34-.15-.57-.1-.1.04-.27.13-.19.3.04.24.36.12.47.26.24.07.28-.1.5-.07.12.21.54 0 .58.3.38.05.35.52.74.59-.06.04-.07.09-.06.16.28.25-.15.36-.19.56-.24-.06-.1.19-.24.26a1 1 0 0 0-.97.44c-.29-.08-.55.07-.82.12l-.02.32h-.03l-.07-.06C95 4.76 95 4.74 95 4.7c-.03-.36-.41 0-.64-.1.09.3-.26.17-.39.28 0 .11.06.18.16.2-.12.02-.25.08-.36.02v-.04c-.3-.19-.33.16-.55.2l-.14-.3h-.07c-.05.01-.06.05-.13.1.06.75-1 .36-1.47.6l-.09-.23c-.38.1-.63-.14-.95.02-.01.04.02.11-.04.14-.09.03-.09-.08-.14-.12-.17 0-.3 0-.4.15-.55-.23-.96.2-1.45.03v-.04c-.13-.07-.34-.04-.35.12-.32-.13-.47.36-.76.03h-.06c-.05 0-.05.06-.11.09-.01-.03-.06-.05-.07-.07v-.03c-.44-.05-.8.12-1.29.04-.15.6-.66-.28-.8.19v-.07c-.3-.1-.33.12-.57.1-.27-.18-.52.04-.79 0-.02-.42-.05-.85.05-1.22h.03v-.2h-.07c-.08-.3.22-.53.25-.82.08-.1.1-.17.08-.25-.02-.13-.13-.25-.15-.4.1-.47.3-.94.18-1.44h.15c.2-.2.32-.43.25-.76.24-.15.21-.5.22-.8-.24-.29-.51-.05-.64.18-.07.05-.3-.02-.21.15.03.12-.13.11-.2.15-.04.17-.03.28-.13.4-.03.06.06.03.08.08-.12.13-.28.2-.42.3.1.22-.1.36-.23.47.04.3-.12.45-.33.66.07.26-.21.27-.19.5-.19.3-.28.63-.42.95-.02.08.05.04.09.1-.31.09-.33.42-.33.69-.31-.03-.2.31-.3.41v.17c-.27.28-.25.8-.6.96a11 11 0 0 0-2.64.17c-.6.11-1.1.18-1.72.24 0 .03 0 .09-.04.1-.02-.02-.05-.04-.04-.07-.28-.03-.54.04-.7.2-.33-.38-.58.08-.78.12.05-.13-.09-.18-.2-.21-.16.05-.34.1-.52.13-.37.07-.75.12-1.13.18l-.57.1-.07.13c-.06-.03-.03-.1-.03-.17h-.15v.06c-.32.04-.63.14-.99.12-.14.47-.78-.08-.92.34l-.06-.1c-.17.27-.57.02-.7.23-.1.13-.37-.04-.4.14-.38-.1-.4.2-.79.06-.03.32-.5.12-.7.17-.3 0-.27.3-.4.4-.05-.05-.12-.1-.13-.14h-.1c-.1-.04-.04.03-.1.05-.57-.05-.9.42-1.44.35-.07.08-.12.08-.14.16-.46-.32-.28.44-.71.1-.1.1.03.3-.1.4 0 .01-.01.03-.03.03-.06-.02-.02-.09-.04-.16-.4-.11-.63.13-.96.19-.52-.06-.8.52-1.36.42-.15.28-.56.21-.74.48-.36-.1-.43.24-.78.22-.1.13-.39.18-.47.33-.23-.13-.31.07-.43.14-.84.32-1.52.83-2.25 1.32.04.28-.42.07-.42.33-.17.16-.4.37-.65.45-.01.05.02.13-.04.16-.46.31-.89.68-1.19 1.2-.3.08-.25.43-.54.49.02.28-.26.32-.3.56-.12.13-.02.38-.3.3.11.24-.2.24-.1.46.04 0 .09 0 .12.03.01.3-.47.22-.4.5l.2.02c0-.04 0-.08.04-.1.03 0 .1.22.04.29a2.35 2.35 0 0 0-.21-.08c.05.2-.22.02-.22.15-.04.24.02.43-.15.59.04.2-.19.39-.05.57h-.03c-.17.5-.05 1.1 0 1.57.23.84 1.2 1.5 2.02 1.86 1.12.2 2.2.08 3.01-.4.16-.12-.01-.3-.02-.45-.17-.05-.25.05-.4.05-.15.34-.62.28-.75.54-.3-.03-.5.27-.83.05-.23-.14-.6-.13-.75-.31l-.18-.01-.54-.78c-.1-.24.02-.44-.14-.67.14-.25.15-.6.07-.9.04-.02.05-.08.11-.06-.09-.35.22-.46.25-.77-.1-.38.34-.46.32-.81.4-.33.38-.68.85-.96-.04-.1.05-.24-.09-.27.06-.37.58.03.37-.43l.3.05c.3-.1.2-.4.51-.5-.05-.18.27-.04.17-.24.19-.03.36-.18.47-.3v-.1c0-.1.12-.05.18-.05.05-.12.3-.01.31-.21.14-.01.3-.23.48-.24-.05-.28.38-.13.34-.34l1.27-.59c-.04-.25.16-.1.3-.17v-.07c.56-.1 1.05-.57 1.62-.63.26-.31.76-.29 1.15-.53.28-.04.27-.44.63-.22.17-.15.37-.2.56-.27l.07-.02.1-.04.09-.03.07-.03a.77.77 0 0 0 .09-.06l.05-.03a.76.76 0 0 0 .12-.11v.16c.58-.19 1.22-.28 1.77-.5.84-.1 1.52-.54 2.41-.57.05-.17.37-.05.56-.07.44-.11.92-.21 1.31-.35.36 0 .71-.05.99-.16.1-.23.38.14.53-.07.15-.36.86.15.77-.38.06.05.08.1.08.17l.24.04c.3-.02.48-.2.76-.06.52.1.97-.22 1.5-.12 0-.05-.04-.14.02-.16.36.2.76-.2 1.07.05.5-.1 1.03-.18 1.6-.15.42-.25.6-.16 1.09-.18.02.07 0 .12-.05.16.08.5-.49.74-.2 1.25-.01.04-.07.02-.1.02v.1c-.05.06-.15.02-.22.02l.01.29a.1.1 0 0 1 0 .04c-.02.04-.07.08-.13.06-.18.31-.1.68-.1.99-.04.03-.16.02-.19.07l.02.08c.03.03.04.07.04.1 0 .1-.1.18-.17.24.02.31-.27.42-.2.74.05 0 .12-.02.17.04-.34-.03-.36.32-.27.54-.16.04-.08.27-.27.27 0 .59-.03 1.03-.1 1.57.04.02.11-.02.14.04l-.04.03a.33.33 0 0 0-.32.13c-.07.08-.11.18-.2.24l.13.17c-.14.17.1.15.14.29-.28-.05-.13.3-.41.3.08.3-.24.35-.1.68.04 0 .11-.03.13.03 0 .36-.54.63-.16 1.03h-.29c.02.1-.03.2.09.24.31.04-.1.5.3.5l-.04.02c-.29.16.12.44.15.6-.05.02-.04.13-.15.09v.12c-.14.02-.04.3-.27.19-.2.3.29.33.06.64-.02.15.24.24.02.35h-.08v-.1c0-.17-.24-.07-.36-.1.1.32-.13.51-.14.8l.43.04c-.05.08-.02.18-.02.28 0 .06 0 .13-.06.17l-.29-.05c-.08.11-.14.27-.06.42-.44.24-.12.79-.2 1.18h-.02v.16c.26.11-.04.33-.02.52.46.17-.2.12-.08.41-.05.21.32.5 0 .58.18.5.08 1 .1 1.52 0 .09.02.23-.06.28a.13.13 0 0 1-.11 0c0 .06.03.13-.03.17-.5.21-1.04.16-1.59.34.08.44-.47.06-.67.15-.82-1.62-1.8-3.18-2.61-4.81l-.14-.01c-.3-.32-.3-.74-.4-1.12-.4-.45-.5-1.05-.69-1.6-.3-.46-.24-1.04-.28-1.6-.03-.1 0-.2.13-.18.03-.24.22-.42.08-.61.06-.17-.13-.07-.15-.2 0-.16.1-.3.2-.3v.11c.38.07.15-.38.3-.53.32.12.1-.32.43-.2a1.05 1.05 0 0 0-.2-.44c-.06-.23 0-.44.18-.57-.18-.4.35-.23.37-.46 0-.07-.1-.07-.14-.08-.2.01-.11-.13-.08-.21.01.05.09.12.18.1.13-.06.03-.3.06-.39l.17.01v.14h.14v-.16c-.06-.02-.14 0-.18-.05 0-.06-.03-.15.06-.18.08.04.08.1.11.16.26.1.18-.43.39-.37 0-.1-.04-.21.01-.3.23.03.15-.3.32-.33v-.09c-.03-.07-.02-.17.09-.13a.18.18 0 0 0 .03-.09c0-.1-.05-.22-.02-.3.14.03.12-.07.11-.17 0-.06 0-.12.06-.14.06-.01.09-.06.11-.1.04-.1.06-.18.23-.1.09-.06.29-.06.35-.17a.22.22 0 0 0 0-.14c.17-.19.34-.37.63-.42-.06-.11.08-.15.13-.23.52.03.88-.17 1.3-.26l.01.1c.12.04.2-.05.33-.01.16.03.26.2.32.33l-.27.86c.05.69-.63.93-.95 1.43l.01.14c.11.12.3.05.44.09.47-.37.7-.71 1.01-1.15.15-.13.1-.37.31-.4l.05.26c.13 0 .27.02.34-.04a.17.17 0 0 0 .05-.1c.22 0 .08-.26.27-.25.08-.13-.1-.43.19-.42 0-.12.02-.27-.05-.38.18-.13.34-.01.53-.08-.1-.34-.46-.47-.74-.61-.47-.06-.78-.35-1.26-.32v-.13c-.2.08-.5.07-.68.1v-.07c-.42-.2-.22.33-.56.27-.02-.1-.14-.1-.23-.1-.03.09-.08.12-.15.12-.1 0-.26-.07-.41-.05-.15.16-.45.14-.52.36-.43-.07-.73.3-1.2.23-.14.02-.13.17-.17.24-.07.1-.17.13-.28.14-.17.02-.37 0-.53.01-.1.02-.2.06-.24.15a.42.42 0 0 0-.03.18c.3.25-.39 0-.45.26-.04.06-.05.17-.17.12-.13.27-.5.32-.7.48-.01.31-.36-.07-.45.18-.02.08.04.15.07.23-.1.05-.25 0-.39.01l.01.1c.02.05-.01.1-.07.09.07.22-.08.29-.2.38-.08.05-.14.11-.13.22-.49.08-.41.48-.76.7.14.36-.5.2-.25.63.03.25-.38.82-.67.91-.02.34-.15.62-.32.86l-.1.66c0 .33-.11.55-.01.84.1.12.21.14.33.17-.14 0-.26.11-.2.26h.11c.11.1.03.36.03.52a.4.4 0 0 0-.18 0h-.03a.14.14 0 0 0-.07.06l-.01.02a.43.43 0 0 0-.03.1l-.03.14a.32.32 0 0 1-.04.07c-.07.4.17.71.33 1.04l.04.1.05.1.03.14.01.09a.7.7 0 0 1-.02.23c.04.02.2.1.15.2.05.01.12-.01.14.04-.02.02-.03.04-.06.03l.01.23h.06c-.1.3.5.16.24.47.2.25-.03.5.11.77l.29.05c0 .13 0 .28.07.39l.08.1c.12 0 .23.01.3-.1a.3.3 0 0 1 .11.28h.1c-.04.26.24.5.49.4v.11c.05 0 .09-.01.1.03-.04.19.1.25.27.27.26.41-.47.14-.23.54.22.28.22.64.45.92.13.24.21.45.34.7.09.2.32.5.56.43a.34.34 0 0 0 .11-.05l.04.19c.33.13-.15.2.02.45l.1.18c.09.19.2.39.43.4-.14.24-.4.31-.63.44a.8.8 0 0 0-.34.32c-.7-.09-.9.64-1.53.76 0 .07-.02.12-.05.16l-.02.01a.34.34 0 0 1-.1.09c-.25.12-.67.08-.77.38-.26.38-.86.33-.96.81-.2.1-.41.27-.62.44-.22.18-.44.37-.66.5-.29.22-.52.62-1.01.57l-.05-.35h-.03c-.13-.01-.23-.14-.23-.2h.1c.04-.19-.08-.31-.05-.49-.06-.1-.17-.2 0-.26 0-.33-.07-.6-.16-.94-.15-.16-.03-.45-.03-.68H64c.12-.29-.13-.56-.04-.83.23-.32-.05-.86.17-1.22 0-.05-.05-.17.06-.16l-.01-.2c.02-.13.17-.07.29-.08v-.18l-.3-.06c.22-.12.06-.47.14-.7.15 0 .02-.16.1-.21.1.07.12.16.25.13.02-.34.23-.51.18-.9.5.2.26-.23.42-.41-.05-.02.05-.2.2-.3-.02-.03.01-.12-.04-.13-.14-.04-.06-.2-.1-.26h.04c-.02-.1 0-.28.14-.24.34-.28-.23-.16-.2-.43.04-.02.1-.09.13-.03v.1l.33.02v-.13h-.1c-.01-.1-.19-.08-.12-.2.01-.07.09-.02.13-.03.14 0 .16-.08.14-.19.5.1-.12-.34.27-.37.05-.1.05-.27-.09-.3.01-.04.07-.03.1-.02.12-.1-.1-.44.21-.38.07-.19-.03-.43.1-.58.03-.26.11-.66-.24-.81-.22-.24-.68-.4-1-.3-.46-.15-.48.38-.96.18v.05l-.57.02v.02c-.14-.12-.24.09-.47.02.02.06 0 .12.05.17l-.35.1c-.16.13-.6-.05-.5.3-.27.08-.63.01-.69.36-.25-.03-.42.27-.51.46-.23-.02-.42.26-.74.19.06.35-.43.37-.62.48.01.2-.38.06-.3.3-.26 0-.33.37-.6.44-.04.13.1.12.12.23-.05.24-.38.14-.56.23l-.02.23c-.16.07-.16.36-.34.42-.08.12-.34.23-.3.38-.2.03-.21.31-.35.37-.1.12-.14.36-.41.33v.1c.02.03.11.06.16.1-.18-.04-.08.23-.28.16v.16c-.02.05-.1.15-.2.1-.06.2 0 .41-.16.55a.92.92 0 0 0-.48.3v.19c-.31.13-.06.55-.5.46-.07.14.1.15.03.27-.25 0-.27.19-.19.34h-.04V29c-.03.35-.38.44-.27.82h-.23c-.42.1-.4.6-.49.97-.07.01-.13.08-.1.16-.01.58-.26 1.14-.38 1.71-.26.17-.43.36-.61.6-.17.23-.2.61-.5.7 0 .24-.12.4-.28.57.17.38-.37.27-.28.6-.21.25-.43.61-.5.95-.09.18-.24.37-.37.58 0-.44-.09-1 .12-1.4-.13-.53 0-1.06.07-1.6-.14-.19-.03-.38-.3-.48.2-.05-.02-.4.3-.3.24-.26-.01-.51-.1-.77.27-.07.2-.38.29-.58.1-.1-.08-.36.13-.37l-.06-.4c.44-.1-.11-.45.15-.67.03-.16-.05-.48.12-.6.06-.27.13-.6.03-.87-.55-.5.53-.16.15-.66-.17-.48.25-1-.17-1.4.05-.3-.31-.42-.15-.7-.11-.28-.31-.42-.56-.56-.18-.11-.47-.05-.6-.21a1.01 1.01 0 0 0-.5.04c-.33.04-.52.12-.86.12-.5.35-1.1.55-1.3 1.23-.27.32-.65.47-.67.96-.01-.01-.04-.03-.03-.07h-.15v.13c-.17.1-.22.28-.26.47-.02.09-.03.17-.06.25-.2.17-.23.38-.4.5-.07.55-.8.72-.69 1.32.05.01.12-.02.15.04-.26.04-.38.21-.56.35.02.27-.38.46-.25.74-.3.1-.1.55-.4.59.05.23-.2.2-.2.38-.16.47-.45.92-.65 1.35-.05-.1-.07-.2-.09-.33h-.1c-.08.02-.14-.03-.11-.1.03-.03.04-.08.1-.06-.03-.1.05-.26-.09-.29l.18-.06c-.15-.2.14-.22-.02-.41.31 0 .12-.36.26-.52-.04-.27.2-.63-.11-.8.05-.06.14-.03.22-.02v-.16l-.23-.05.05-.49c.28-.02.05-.29.13-.4.05.05.14.03.21.05a3.23 3.23 0 0 1-.12-.47l.2-.01c.11-.24.14-.59 0-.85.06 0 .1-.03.12-.06a.33.33 0 0 0 .04-.27.19.19 0 0 0-.07-.1c.26-.17.2-.49.18-.78a.83.83 0 0 1 .05-.48h.07l.01-.45h.12v-.18c-.35-.13.17-.07.01-.3-.16-.02-.22.05-.36-.04-.04-.23.01-.46.18-.57-.1-.2.17-.27.16-.4.02-.22.07-.47.2-.68a.56.56 0 0 0 .07-.57c.19-.27.01-.82.3-.9-.03-.06 0-.14-.06-.2.05 0 .1 0 .14-.02l.04-.02.05-.04.04-.05.03-.04.03-.08.01-.02c.06-.14.11-.28.32-.27.08-.2-.2-.13-.3-.24.06-.12.21-.03.31-.04v-.14c-.06-.01-.14.03-.18-.03-.06-.33.3-.39.55-.5v-.58c.24-.05.1-.45.38-.4l-.03-.48.18.01v-.1c.06-.2-.17-.2-.3-.2-.03-.12.04-.2.07-.29.03.03.09.05.08.1H47c.16-.19 0-.47-.06-.64.03-.05.12-.02.18-.03v-.16H47c-.1 0-.07-.1-.08-.17 0-.07.02-.22.17-.16a.2.2 0 0 1 .08.17h.18c.01-.31-.07-.6-.12-.9-.24-.09-.35.16-.56.02l.01-.3c.22.07.63.03.73.33.21.07.17-.2.2-.31-.23-.44.4-.83-.06-1.26-.13-.02-.22 0-.28.08l-.03-.03c.06-.32.17-.56.21-.86.18-.1.12-.45.4-.37v.06c.25.05.4-.05.61-.03.02-.25-.06-.36-.1-.59.1-.05-.07-.35.14-.34.13.06.05.22.09.33h.17v-.2c.18-.16.23-.44.28-.7h-.1c-.14 0-.18-.15-.2-.26.01-.04.14.12.16.2.07 0 .18.03.25-.02.04-.16.04-.44-.1-.56-.06-.13.07-.16.17-.18.04-.14-.08-.22-.12-.33.27.06.3-.14.3-.33-.2-.21.26-.24.05-.52.17-.13.03-.59.41-.42v-.14c.38-.12.24-.56.5-.78-.15-.22-.07-.54-.11-.74h.03c.07-.04.25.02.17-.13-.12-.15-.2-.4-.34-.56.07-.28-.4-.21-.35-.5l-.7-.7c-.3-.2-.8-.31-1.12-.15-.37-.23-.65.06-.99.14-.36.17-.3.67-.76.65 0 .05.04.13-.02.19-.31-.05-.39.24-.62.36.01.59-.73.3-.75.86-.3.05-.34.4-.5.6l-.16-.01c-.29.3-.58.62-.85.96-.11.14-.23.28-.33.43-.32.17-.42.58-.7.8-.03.57-.97.7-.84 1.38.5.14.64-.26.9-.55.2.01.16-.37.45-.3 0-.06-.03-.16.03-.21.24.06.21-.22.42-.25-.05-.22.18-.2.2-.37.1-.1.17-.23.41-.18.21-.02.3-.15.35-.3.23-.18.32-.47.58-.58.02.01.05.03.03.05l.21.01c.13-.1.1-.31.1-.43l.29.13c.39.38-.38.26-.2.63-.48.08-.16.67-.5.85-.04.18.14.33.17.4l-.17.09c-.02-.02-.05-.03-.03-.07h-.15c.02.1-.02.23.04.32-.4 0-.22.43-.39.57-.06.26-.1.55-.18.8-.01.04-.01.08-.03.11-.34.1-.06.52-.19.73-.27-.05-.05.27-.16.36-.27-.02-.2.34-.3.5.02.32-.34.56-.33.92l.03.16c-.23.14-.13.47-.3.59-.08.18.1.42-.16.45-.02.09.05.15.09.23-.11.15-.33.3-.18.57-.22.08-.02.4-.24.47 0 .52-.34.85-.18 1.41-.1.05-.12.16-.12.27 0 .2.05.4-.24.39.1.4-.07.72-.16 1.05-.05.2-.07.4.01.62-.1.05.03.28-.2.21l.01.26c-.04.08-.07.26-.24.22 0 .03 0 .06.02.09.07.2.35.38.2.61h-.11c-.01.07.03.14-.04.16-.05-.06-.13-.02-.21-.04l-.11.78c-.01.14-.03.31-.12.4.02.46-.31.87-.22 1.32zM38.99 56.2c-.31.06-.53.3-.77.47-.56.12-1.02.42-1.5.68-.16.11-.43.23-.6.3-.04.12-.18.1-.2.24-.63.09-1.14.55-1.69.72-.08.12-.47.09-.36.37l-.4.08c.12-.36.58-.3.8-.58-.04-.3.35-.18.4-.42.3-.06.42-.36.64-.4 0-.22.4-.08.4-.3.36-.18.76-.21.99-.54.23-.16.57-.05.7-.35.19.02.33-.1.47-.2.37-.07.69-.3 1.06-.38.13.06.14.24.06.3m64.94-20.61c-.07 0-.18.01-.24-.04.03-.01.03-.07.03-.1.03-.17-.4-.27-.26.02.03 0 .1 0 .11.05-.01.02-.03.02-.06.02h-.07c-.08-.03-.04-.1-.05-.14h-.1c-.05-.02-.04-.06-.04-.1h-.18v.15h.11c.03.05.11.1.04.14-.1-.01-.22.02-.32-.05l.02-.26c-.12-.03-.19.05-.3.03-.02.1 0 .16.06.22l-.03.03c-.03.02-.07 0-.1 0-.06 0-.17 0-.15-.07.02-.05.1-.02.14-.02v-.16l-.23-.01v-.04a.63.63 0 0 0-.3-.03c-.14.01-.26.07-.38.1a.53.53 0 0 1-.42-.06c-.13.3.27.1.3.31-.24-.04-.34.28-.57 0 .02-.04.08-.02.1-.02v-.07c.02-.04.08-.03.1-.03v-.16c-.34.13-.83.06-1.2 0 0 .14.16.28.36.28l-.25.08a1 1 0 0 1-.28 0c-.05-.14.14-.2.02-.36-.15-.02-.3 0-.36.08-.33-.22-.62.09-.92.06-.07.32.47.16.34.46h-.14v-.13c-.2.07-.14-.18-.33-.12l-.02.27c-.1-.06-.2-.15-.34-.13a.28.28 0 0 0-.04-.18c-.1-.14-.32-.2-.5-.12-.04.08-.02.11.02.13a.4.4 0 0 0 .07.02l.03.01.02.01a.1.1 0 0 1 .03.02v.01c.02.02.02.04.02.06-.03.05-.1.02-.15.02-.1-.02-.17-.09-.14-.2-.36.08-.76.06-1.15.09l.01.21c.22.08.62.07.79-.05-.02.2-.41.1-.26.4l.31.05c-.05.12-.2.03-.3.06-.16.24-.51.01-.77.01-.02-.1.16-.15.22-.15v.04l.18.01v-.13h-.12c-.03 0-.1-.04-.07-.08-.18-.02-.4.05-.54-.08.05-.06.1-.07.18-.05 0-.14.31-.04.2-.25-.15 0-.33-.08-.36.1-.34 0-.14.36-.52.3-.2-.22-.37-.02-.54-.14-.2.03 0 .28-.24.33.03.18-.28.06-.35.08-.09-.03-.23-.06-.19-.2h-.13v.12c.05.01.1-.01.14.04-.25.06-.53.12-.82.03-.09-.35-.55-.05-.86-.14-.21.01-.44.23-.6.13-.3-.1-.3.17-.57.1-.12.34-.67 0-.84.22v-.02c-.27-.04-.52 0-.7.06-.2.23.21.2.19.4.06 0 .13-.02.18.03-.2.25-.62-.13-.75.17-.06-.06-.04-.14-.04-.2-.17-.04-.2.03-.32.07-.05-.01-.04-.05-.04-.1h-.18c0 .05.04.14-.03.16a.57.57 0 0 0-.4-.11l.01.13-.71-.03.01.35c-.12.02-.3.21-.46.04.01-.04.08-.03.1-.03v-.1c-.03-.07-.03-.12-.15-.1a.28.28 0 0 0-.3.07.29.29 0 0 0-.05.1c-.02 0-.03-.02-.03-.03v-.06c-.26-.11-.25.05-.28.16-.02.07-.06.11-.18.07v-.05c-.13 0-.32.06-.46.03v-.03c-.27-.1-.32.14-.53.11l.01.2c.06 0 .15-.03.2.03-.17-.04-.07.18-.19.19-.04-.14-.18-.09-.3-.1 0 .05.03.11-.03.15-.03-.1-.1-.2-.08-.3-.1.01-.23-.03-.31.01-.1.1-.34.08-.48.12-.32-.04-.4.23-.73.22.02.37-.41.18-.7.16h-.1c-.25 0-.1.3-.14.37-.13 0-.04-.12-.11-.16-.4-.28-.37.24-.67.17a.5.5 0 0 1-.14-.08c-.46.25-1.1.2-1.52.44.06.22-.21.15-.35.15l.02.26c-.27-.18-.45.08-.72-.07v.07c-.02.05-.1.02-.15.02-.37-.03-.64.13-.98.15v.07c-.56.07-.95.32-1.51.37.05.49-.67.04-.75.38-.44-.23-.4.36-.8.2-.05.08-.11.1-.19.1-.12.01-.25-.03-.26.13-.2-.02-.3.09-.45.08a.36.36 0 0 1-.16-.04h-.12c-.21.05-.15.36-.43.33-.05.28-.34.03-.53.14v.05c-.08.12-.12-.08-.22-.03a.97.97 0 0 1-.17.06c-.18.06-.38.1-.43.26l-.06-.06c-.17-.02-.34.04-.4.1-.02.06-.12.03-.17.04v.09l-.35.04h-.08l.01.29h.15l.09.01h.03a.23.23 0 0 0 .1-.02.1.1 0 0 0 .06-.06c.2.04.4-.21.54.02-.04.1-.16.05-.25.06a.34.34 0 0 1-.16.08.4.4 0 0 1-.05.02c-.1.02-.23.02-.34.03h-.02a.72.72 0 0 0-.24.06c.07.36-.43-.01-.45.33a.15.15 0 0 0-.18-.1c-.06 0-.2-.02-.17.08-.05.02-.1.09-.15.02v-.12c-.27.05-.52.1-.85.02-.01.1.04.23-.03.32h-.1l-.05-.23c-.46.07-.8.27-1.09.53-.32-.13-.36.32-.7.15v.07c-.06.05-.17.02-.24.03.02.1-.06.25.12.28l-.07.07c-.08-.05-.26 0-.22-.15-.07.01-.2-.02-.22.03-.48 0-.87.23-1.23.39-.03.1-.28-.01-.2.15-.1.16-.23-.02-.36.02-.04.29-.52.2-.77.36 0 .39-.61-.02-.67.32-.32-.09-.06.23-.22.3-.35-.1-.56.16-.9.06.06.24-.29.07-.39.18 0 .06.04.14-.02.19-.27-.08-.4.14-.63.1-.03.28-.4.03-.5.24-.5-.1-.5.4-.98.34-.08.09-.18.2-.39.17v.07c-.18-.01-.26.09-.4.1-.06.14.07.1.1.2-.1.1-.18-.06-.28-.01-.16.11-.5-.02-.5.23.06.1-.06.1-.14.09-.32.16-.6.24-.9.44-.5-.1-.67.24-1.09.27a.3.3 0 0 1-.42.24c-.12.27-.54.24-.84.32-.03.2-.22.18-.27.34L54 48.9c-.12.02-.27-.07-.33.05-.28-.05-.48.14-.67.23-.15.3-.66.18-.9.37-.2-.02-.16.26-.39.14l-.02.02c-.09.11-.36.1-.42.2v.08c0 .03.03.06.06.1-.13.03-.21-.08-.36-.04-.22-.01-.03.24-.27.21-.02.32-.48 0-.68.22.07.34-.39.13-.55.26-.13.36-.64.3-.94.5-.25-.06-.22.2-.37.24h-.08c-.08.2-.35.21-.41.44-.1-.06-.21-.04-.32-.04-.08.1-.19.08-.24.24-.04.06-.13 0-.18 0-.13 0-.32.06-.32.16-.26 0-.28.27-.6.18a.16.16 0 0 0-.14.14c0 .02 0 .04.02.07-.28.01-.5.22-.76.33a.8.8 0 0 1-.26.07c.07.22-.2.13-.3.18.02.35-.52.16-.5.43-.37-.03-.35.37-.77.26.01.35-.37-.04-.53.16-.38.52-1.14.45-1.56.96-.36-.1-.32.43-.7.25.06-.05.1-.17.03-.25-.15-.32-.64-.26-.95-.23-.26-.22-.38.06-.63.06-.22.13-.41.1-.52.33-.36.09-.69.29-1.03.34-.16.29-.66.17-.8.44-.16.04-.24.2-.45.18.06.32-.25.11-.42.2-.08.25-.48.12-.47.46-.4-.14-.52.2-.85.16.15.44-.5.25-.48.56-.23-.17-.19.14-.3.17-.07-.03-.04-.1-.06-.16h-.14l.01.1c.08.2-.29.17-.42.3-.14.09-.09.3-.34.2-.15.09-.41.15-.35.37-.76.18-.94.74-1.63 1.05.08.5-.56.3-.57.78-.06.05.01.27-.17.25-.02.43-.2.93.24 1.27.26.2.52.45.9.34.3.3.3-.15.53-.18 0 .22.17.22.24.4a1 1 0 0 0 .6-.13c.57-.04 1.01-.06 1.6-.16.16-.08.46-.1.48-.25.42-.1.9-.2 1.15-.5.26 0 .35-.19.6-.23.55-.08.79-.4 1.38-.4.27-.33.8-.03 1.05-.42.4-.13.67-.32 1.08-.44-.05-.2.23 0 .25-.15 0-.1.2 0 .17-.12.39-.01.65-.13.91-.34.37.02.12-.58.56-.5v.07h.1c.05-.26.37-.01.54 0 .25-.06.52-.05.63-.26.1-.16.2-.18.4-.11.1-.07.32-.07.22-.32.06-.11.22-.04.39 0 .06 0 .13.02.19 0-.11-.46.4.12.66-.1V58c.02-.07-.05-.04-.07-.09l.3-.12c.04-.36.64-.05.7-.32.14 0 .13-.23.33-.17.15-.23.58-.03.77-.23-.12-.22.2-.09.2-.2.18.04.23-.03.27-.1l.04-.05.05-.04.04-.01.03-.01h.1c.07-.19.4-.16.55-.23.03-.07.09-.12.18-.1.05.01.08 0 .1-.01.04-.04-.04-.16.04-.2.17.15.4.04.56-.01-.1-.22.24-.02.21-.22.41.2.48-.27.89-.17.02-.15-.07-.15-.12-.28.1-.14.24.01.35-.07a.3.3 0 0 1 .13-.05c.26-.05.63.15.77-.02a.24.24 0 0 0 .05-.12c-.24-.34.33-.18.38-.4.05.05.1.08.16.1l.05.02.1.03a.68.68 0 0 0 .31-.06l.04-.01.4-.2a.68.68 0 0 1 .18-.05v-.12c.2.03.21-.15.45-.07.04-.43.64-.06.77-.4.4 0 .6-.26.99-.32.13-.35.66-.08.69-.45.06.05.15.02.2.03.04-.17.36-.03.33-.21.2-.1.57-.03.78-.13 0-.2.33-.2.55-.22.1-.34.57-.17.62-.53.04.02.12-.02.15.05-.05.03-.07.08-.15.05l.01.2h.15c.1-.08.28-.05.2-.24.08-.08.15-.17.29-.12.13-.36.37.04.63-.06.02-.26.39-.1.56-.18v-.05c.01-.04.07-.04.1-.04.01-.06-.02-.15.04-.18.07.05.18.03.28.04v-.07c.06-.05.15 0 .2-.02-.02-.19.25-.1.33-.17.06-.15.27-.14.45-.11.33-.02.28-.4.63-.32.11-.12.55-.02.46-.3-.05-.02-.12 0-.15-.05.07-.04.1-.15.2-.11.03.01.05.03.05.05.03.07.03.12.14.12.07-.04.13-.04.1-.13-.08-.23.24-.1.32-.12v.06l.18.01c.23-.1.5-.19.59-.41.27.05.36-.2.52-.2V50h.19c-.02-.37.47-.14.7-.18-.03-.1.02-.19.1-.2-.3-.65.43.06.7-.22.6.34.27-.6.88-.25.1-.05-.05-.26.14-.2v-.21c-.07 0-.15.02-.19-.04a.5.5 0 0 1 .39-.07c-.04.09.1.15.05.26.32.1.26-.2.56-.05l.1-.38c.05.03.03.1.04.14.22.11.14-.23.3-.15l.01.07c.26-.1.83.02.8-.4.22-.01.38-.18.65-.06.35.07.35-.18.52-.32l.07.12c.18.09.23-.12.4-.08-.01-.13-.05-.3 0-.41.23-.06.12.16.2.24.11 0 .22 0 .27-.09.23.04.32-.09.43-.16a.27.27 0 0 1 .1-.05h.03c.04 0 .09 0 .15.02.06-.3.52-.06.67-.3.01-.03-.03-.1.02-.12l.09.16c.06.02.1.03.13.02.06 0 .08-.06.12-.1a.2.2 0 0 1 .1-.06c.38-.01.53-.3.92-.31.1-.14.35-.1.48-.23.4.16.4-.26.75-.2.38 0 .58-.25.94-.27v-.07c.37-.13.65-.16 1.02-.3.07-.13-.03-.33.05-.46.13-.2.26.03.4.05l-.21.1v.1c0 .02 0 .05.03.06.65.04.87-.38 1.5-.36.06-.04-.05-.23.13-.18 0-.22.21.02.36-.05l.01-.23c-.1 0-.2.02-.28-.04.13-.05.36 0 .38-.21.3-.03.53-.27.78-.15-.15.11-.26.26-.5.26.04.1-.05.2.1.27.13.05.18-.06.27-.1.06-.29.62-.02.48-.46-.04 0-.11.03-.15-.03.06-.05.15-.02.23-.02l.04.26.28.01c.18-.04.14-.29.2-.44-.07 0-.16.02-.22-.04a.71.71 0 0 1 .64-.17.87.87 0 0 1 .1-.07c.12-.06.23-.12.28-.26.13.03.23-.03.35-.01.01-.07-.03-.14.02-.16.05.01.05.05.05.1.14-.01.3.03.43-.03v-.16c0-.07.08-.11.17-.08.09-.04.1.07.11.14l.36.01c0-.05-.04-.13.02-.16.02.01.04.03.04.05l.01.05c.08.03.13.02.16 0 .07-.06-.03-.3.19-.24-.02.1.1.14.12.22v.1l.13.01v-.1c.02-.06-.07-.02-.07-.06 0-.15.17-.18.3-.15a.3.3 0 0 1 .2-.06h.16c.07-.02.13-.05.14-.14.36-.04.6-.21.91-.27.1-.03.21-.04.33-.02a.2.2 0 0 1 .05-.1l.04-.03c.02 0 .03-.02.05-.03a.33.33 0 0 1 .06-.02l.05-.02.12-.03c.18-.04.35-.07.4-.22.23-.02.5-.2.77-.1.31-.25.9-.21 1.35-.33.06-.2.4-.22.66-.25-.04-.1.05-.2-.09-.27-.45 0-.72.2-1.12.27-.13.13-.43-.03-.5.14-.53 0-1 .2-1.48.3l-.02-.63a.28.28 0 0 1 .27.02c-.14-.17-.02-.42-.16-.59.04-.05.1-.06.17-.06v-.06c.27.08.5-.42.64 0h.18c-.2-.69.87-.06.83-.7.14.04.3-.03.4.1-.04.05-.13 0-.19.01v.1c0 .12-.15.03-.24.05v.14h.26v-.1c.02-.05.1 0 .14-.02 0-.03-.02-.08.02-.1.01.17.3.1.29.09v.12h.16c.03-.15-.1-.12-.16-.23l.17-.08c-.03.29.38.15.55.25v.1c.25-.04.3.2.55.18.16-.03.12-.14.16-.25l.11.1c.26.07.38-.06.5-.1v.12c.16.08.21-.1.33-.1.07-.47.63-.52.73-.9.26.14.63.16.9.17l-.23.18c-.28-.22-.43.08-.68 0-.05.18-.42-.06-.27.25.23.28.26-.11.49-.02v.07l.4.04v-.1c.45.23.42-.28.7-.4 0 .01.04.03.03.05l.6.07c.02-.07-.03-.15.03-.2l.08.07c.18-.12.53-.04.78-.08v-.11c.2.09.42.06.42-.2.37.32.63-.11.99-.08-.1-.26.39-.01.2-.32.06-.11.22-.24.34-.17-.1.13-.32.19-.22.44.32.02.24-.41.59-.33.03-.14.24-.1.2-.3l-.6-.08c.12-.17.35-.14.56-.17a.57.57 0 0 0 .16-.06.32.32 0 0 0 .12-.1c.1.1.38-.07.32.17-.03.06-.12.01-.18.02v.1c-.02.05-.11.02-.17.03v.16l.4.04c.04-.41.8-.07.63-.48h.1c.1.01.08.08.08.14v.06h.18c.07-.16-.14-.15-.23-.2.13-.17.23.1.4.03.02-.28.37.01.49-.11v.06c-.37-.06-.22.34-.26.5.2.02.37 0 .53-.07.33.24.32-.28.6-.2v.14c.13.11.36.25.55.18-.03-.13.04-.21.14-.29l.06.14c.25.1.17-.22.4-.14l.01-.32h.08v-.1c.02-.11.2-.02.32-.05-.03-.23.15-.32.08-.54.16 0 .23-.2.3-.31.25.07.44-.13.7 0 .02-.03-.03-.1.05-.13.04.02.03.07.03.1l.33.01a.27.27 0 0 0 .07-.08c.05-.09.05-.19.12-.3.06.07.15.04.23.06.07-.07.27-.13.2-.3-.05 0-.1.02-.11-.02 0-.05.08-.03.13-.04l.06-.02c.07-.02.16-.08.15-.13.06-.03.13-.02.2-.01h.16v-.07c.4.08.89-.03 1.35-.05l-.01-.16c-.9-.2-1.86-.32-2.66-.33l.01.26z"/></g></svg>