<svg xmlns="http://www.w3.org/2000/svg" width="500" height="232"><path fill="#00653B" d="M141.95 18l-3.66-1.67c-2.9-1.31-4.13-2.68-4.13-4.58 0-3.34 2.88-4.03 5.27-4.03 1.63 0 3.03.5 3.86 1.36l.83 2.63-.07 1.13h8.5v-1.81c0-6.6-6.72-11.03-13-11.03-8 0-13.8 5.17-13.8 12.3 0 7 6.05 9.83 10.04 11.74l1.16.53c4.08 1.83 7.63 3.43 7.63 6.8 0 4.23-4.41 4.55-5.77 4.55-3.42 0-5.56-1.97-5.62-5.12l-.02-1.02h-8.36v2.3c0 7.23 7.1 11.56 14 11.56 7.05 0 14.18-4.25 14.18-12.34 0-7.5-5.45-10.68-11.04-13.3m73.8 17.37V24.8h16.04v-7.74h-16.04V8.27h18.4V.55h-26.78v42.54h27.54v-7.72m30.96-27.1h3.48c4.73 0 7.13.76 7.13 4.91 0 4.08-1.8 5.45-7.05 5.45h-3.56m11.38 6.08c4.62-1.48 7.63-5.85 7.63-11.29 0-7.93-5.51-12.88-14.36-12.88h-13.05v42.55h8.4V26.36h3.27l9.41 16.75h9.67l-10.97-18.4zM315.5 8.27h3.48c4.73 0 7.1.76 7.1 4.91 0 4.08-1.77 5.45-7.04 5.45h-3.55m11.4 6.08c4.6-1.48 7.62-5.85 7.62-11.29C334.5 5.5 329 .54 320.15.54h-13.02v42.55h8.36V26.36h3.28l9.41 16.75h9.7l-10.99-18.4zM173.66.54h8.41v42.57h-8.41zm193.82 25.63l3.36-11.88 3.31 11.88m4.73 16.92h9.5L376.58.55h-11.54L353.2 43.1h9.51l2.45-8.66h11.33l2.4 8.66zM210.95 75.36h32.06v149.47h-32.06zm277.56-.16h-99.36v26.18h35.81v126.43h31.03V101.38h32.52M365.2 168.66c-6.15-8-43.85-40.8-48.5-45.56-4.06-4.15-6.15-9.16-5.09-13.37.83-3.35 5.18-7.08 11.4-7.08 13.5 0 28.49 17.76 28.49 17.76l21.3-18.43-4.2-4.63c-18.8-18.08-30.74-24.24-49.71-24.24-8.69 0-19.23 3.22-27.93 9.56-8.03 5.83-12.8 16.23-13.48 26.7-.71 10.22 3.32 21.29 10.7 28.6 12.84 12.57 30.57 26.17 42.94 38.33 7.42 7.29 10.32 13.32 8.3 18.51-2 5.02-7.31 8.25-13.55 8.25-14.3 0-28.8-16.97-28.94-17.12l-2.91-3.67-24.79 16.54 3.05 3.8c15.74 19.02 33.47 29.39 52.64 29.39 15.22 0 28.04-5.57 35.38-11.6 16.28-13.41 17.37-35.49 4.9-51.74m-234.68-27.78l20.33 57.74h-23.8l-8.36-24.95m73.1 51.15L152.84 107.3l-35.3-10.71-12.65 35.77L83.05 67.2H55.01L0 224.82h32.44l35.84-99.58 19.47 55.43-15.65 44.15h119.69zm299.48-11.65c0 1.8-1.06 1.95-2.07 1.95h-3.35v-3.85h3.35c1.01 0 2.07.14 2.07 1.9m-.54 3.6c1.73-.41 2.6-1.62 2.6-3.6 0-2.48-1.42-3.76-4.28-3.76h-5.2v12.7h2v-5.15h2.69l3.03 5.15h2.47l-3.31-5.33z"/><path fill="#00653B" d="M488.37 206.1a9.56 9.56 0 0 0-9.65 9.48 9.56 9.56 0 0 0 9.65 9.46c5.3 0 9.64-4.24 9.64-9.46a9.57 9.57 0 0 0-9.64-9.48m0 20.92a11.54 11.54 0 0 1-11.64-11.44c0-6.32 5.2-11.44 11.64-11.44 6.42 0 11.63 5.12 11.63 11.44 0 6.3-5.21 11.44-11.63 11.44"/></svg>