<svg width="123" height="36" xmlns="http://www.w3.org/2000/svg"><g fill="#20B4FF" fill-rule="evenodd"><path d="M105.338 20.222c1.518 0 2.462 1.187 2.175 2.683l-.037.167-1.575 6.298H94.642l-.528 2.111h11.26l-.88 3.519H92.568c-1.518 0-2.462-1.186-2.175-2.683l.037-.167 2.626-10.503c.185-.74.902-1.35 1.642-1.418l.14-.007h10.5zM92.357 16l-4.394 17.575c-.185.74-.903 1.35-1.642 1.418l-.14.007h-10.5c-1.518 0-2.462-1.186-2.175-2.683l.037-.167 2.626-10.503c.185-.74.902-1.35 1.642-1.418l.139-.007h9.833L88.838 16h3.519zm-20.793 4.222c1.518 0 2.462 1.187 2.174 2.683l-.037.167-2.625 10.503c-.185.74-.903 1.35-1.643 1.418l-.139.007h-10.5c-1.518 0-2.462-1.186-2.175-2.683l.037-.167 1.218-4.873c.185-.74.903-1.35 1.643-1.419l.138-.006h9.835l.527-2.111H58.758l.88-3.519h11.926zm-14.037 0l-.88 3.519h-11.26l-1.934 7.74h7.74l.528-2.11h-5.63l.88-3.52h9.148l-1.93 7.724c-.197.787-.995 1.425-1.782 1.425h-10.5c-1.575 0-2.532-1.276-2.138-2.85l2.625-10.503c.197-.787.995-1.425 1.782-1.425h13.35zm-19.737 0c1.517 0 2.461 1.187 2.174 2.683l-.037.167-1.574 6.298h-11.26l-.528 2.111h11.26L36.945 35H25.02c-1.518 0-2.462-1.186-2.174-2.683l.037-.167 2.625-10.503c.185-.74.903-1.35 1.643-1.418l.138-.007H37.79zm49.113 3.519h-7.74l-1.936 7.74h7.74l1.936-7.74zm-18.295 5.63h-7.74l-.528 2.11h7.74l.528-2.11zM119.096 16l-1.056 4.222h4.222l-.88 3.519h-4.222l-1.055 4.222h-3.519l1.054-4.222h-4.22l.88-3.519h4.222L115.575 16h3.52zm-15.306 7.74h-7.74l-.528 2.112h7.74l.528-2.111zm-67.549 0h-7.74l-.528 2.112h7.74l.528-2.111z"/><path d="M14.531 35c6.852-4.46 11.21-13.525 13.076-27.193-1.625 3.578-2.937 6.13-3.935 7.653-5.3 8.093-7.277 8.093-9.14 17.197-.787-.552-.45-5.387-1.943-11.864-1.493-6.476-5.05-9.384-6.7-12.986C5.042 5.96 4.67 3.615 4.776.775 2.195 3.682.773 8.428.51 15.011.119 24.795 11.616 36.898 14.53 35z" opacity=".982"/></g></svg>