<svg xmlns="http://www.w3.org/2000/svg" width="178" height="24"><path d="M54.9 23h26.2v-5.3H65.4v-3.5h12.7V9.3H65.4V6.1h15.7V1H54.9zM38.4 1h10.8v21.9H38.4zM34 9.4l-.2-1.2-.3-1.1-.5-1-.6-.9-.4-.4-.4-.4-.5-.4-.5-.3-.6-.3-.6-.3-.7-.3-.8-.3-1.7-.5-2-.4-2.2-.2-2.6-.2-2.9-.1H3V23h15.1l2.6-.1 2.3-.2 2-.3 1.8-.4 1.5-.4 1.3-.5.6-.3.5-.3.9-.7.7-.8.6-.9.4-1 .3-1.1.2-1.2.1-1.3v-2.8l.1-1.3zm-11.2 4.1v.7l-.1.6-.1.6-.2.5-.3.4-.4.4-.4.3-.5.3-.6.2-.8.2-.9.1-1 .1-2.5.2h-1.2V5.9H15l2.5.1 1 .1.9.2.8.2.6.2.5.3.4.3.4.4.3.4.2.5.1.5.1.6v3.8zm138.5 4.1V1h-10.8v22H175v-5.4zM119.5 23h26.3v-5.3H130v-3.5h12.8V9.3H130V6.1h15.8V1h-26.3zm-4.8-8.1l-.1-.4-.2-.4-.2-.4-.6-.7-.8-.6-.4-.3-.5-.3-1-.5-1.2-.4-1.2-.4-1.3-.4-1.3-.3-1.3-.2-5.2-.9-1.3-.3-1.3-.4-.6-.2-.5-.3-.3-.4-.1-.4.1-.5.3-.3.3-.3.5-.2.6-.2.6-.1h2.5l.9.1.8.2.7.2.5.4.5.3.4.4.4.5h9.4l-.1-.4v-.4l-.1-.4-.2-.4-.2-.3-.2-.4-.5-.6-.6-.6-.8-.6-.8-.5-1-.4-1-.4-1.1-.4-1.1-.2-1.3-.3-1.2-.2-1.4-.1-1.3-.1h-1.4l-2.7.1-2.6.3-1.2.2-1.2.2-1.2.4-1 .4-1.1.4-1 .5-.8.6-.7.6-.5.7-.3.4-.1.4-.2.4-.1.4v1l.1 1 .2.8.3.4.2.4.6.7.7.6.9.6.9.4 1.1.4 1.1.4 1.2.3 2.4.5 5.1.9 1.5.3.8.2.7.3.6.2.5.4.1.2.2.2.1.2v.4l-.1.2-.1.2-.2.2-.5.3-.6.2-.6.1-.8.1-.7.1h-2.1l-1-.2-1-.2-.7-.2-.7-.4-.5-.5-.5-.5-.4-.6H83.5l.2.8.1.4.1.4.4.7.5.8.7.6.8.6.8.6 1 .5 1.1.4 1.2.4 1.3.4 1.4.3 1.4.2 1.5.2 1.6.1h3.1l1.5-.1 1.4-.1 1.4-.2 1.4-.2 1.3-.3 1.2-.3 1.2-.4 1-.4 1-.6.8-.5.7-.7.6-.7.2-.4.2-.4.1-.5.1-.4.1-.5v-.5l-.1-1z"/></svg>