<svg xmlns="http://www.w3.org/2000/svg" height="144.05" width="300"><path d="M54.15 109.32v27.7S45 111.07 44.8 110.39c-.22-.7-.72-1.06-1.67-1.06H34.4v33.73h5.9v-27.34L49.53 142c.2.68.78 1.06 1.54 1.06h8.97v-33.73h-5.89zm30.99 0v33.73h6.93l-.01-14.35h12.48v-6.17l-12.47.02v-7.02h12.66v-6.21h-19.6zm160.21 0v6.48h7.74v27.25h7.05V115.8h7.72v-6.48h-22.5zm-116.23 33.73h7.45v-33.72h-7.45v33.72zm84.96 0h7.47v-33.72h-7.47v33.72zm77.49 0H299v-33.72h-7.43v33.72zM1 143.05h7.46v-33.72H1v33.72zm187.3-33.73h-5.88v27.7s-9.15-25.96-9.37-26.64c-.23-.7-.73-1.06-1.64-1.06h-8.75v33.73h5.88v-27.34s9.04 25.62 9.25 26.28c.21.68.8 1.06 1.54 1.06h8.98v-33.73zm-7.76-55.36C177.7 50.27 150 12.94 150 12.94s-27.8 37.65-30.46 41.1c-10.26-.88-28.1-7.73-28.1-19.61 0-15.11 25.9-29.11 58.56-29.11 34.3 0 58.58 14 58.58 29.1 0 11.9-17.76 18.66-28.04 19.54M150 1c-42.18 0-71.55 16.48-71.55 37.82 0 9.96 6.42 21.22 20.05 28 12.64 6.28 30.51 8.46 33.09 8.78L150 21.34l18.6 54.26c2.58-.32 20.28-2.5 32.93-8.79 13.61-6.77 20.04-18.03 20.04-27.99C221.57 17.48 192.2 1 150 1" fill="#231f20"/></svg>