<svg xmlns="http://www.w3.org/2000/svg" width="800" height="316.46" version="1"><g fill="#424d07"><path d="M137.68 0h65.11v168.98c0 29.1-12.6 89.97-102.82 89.97C9.77 258.95 0 202.22 0 170.27v-31.13h62.95v30.52c0 18.67 12.41 36.01 36.34 36.01 23.78 0 38.39-13.18 38.39-35.4V0zm165.79 70.62c51 0 95.91 19.43 95.91 108.63H278.31c0 28.47 11.92 40.22 32.9 40.22 20.88 0 27.92-16.54 27.92-16.54h59.51c0 25.6-35.66 60.14-89.58 59.6-61.52 0-91.68-45.12-91.68-91.43 0-46.39 26.72-100.48 86.1-100.48m36.43 72.7c0-17.3-9.79-33.94-32.2-33.94-21.75 0-29.4 15.33-29.4 33.95h61.6zm158.04-72.7c51.07 0 95.89 19.43 95.89 108.63H472.8c0 28.47 11.88 40.22 32.87 40.22 21.04 0 27.96-16.54 27.96-16.54h59.44c0 25.6-35.58 60.14-89.48 59.6-61.61 0-91.77-45.12-91.77-91.43 0-46.39 26.6-100.48 86.13-100.48m36.44 72.7c0-17.3-9.85-33.94-32.2-33.94-21.74 0-29.38 15.33-29.38 33.95h61.58zm74.76 173.14V77.56h60.15v27.15a52.24 52.24 0 0 1 8.32-13.34c4.03-4.83 15.35-18.68 45.48-18.68 30.05 0 76.9 20.76 76.9 94.23 0 56.76-27.91 98.3-76.2 98.3-26.63 0-38.5-9.18-45.5-14.49-4.46-3.5-5.84-5.14-8.3-8.4v74.13h-60.85zm59.39-147.48c-.68 35.32 7.02 53.91 36.4 53.91 29.31 0 33.62-31.75 33.62-55.97 0-24.27-5.68-47.76-36.44-47.76-18.82 0-32.82 14.47-33.58 49.82"/><path d="M137.68 0h65.11v168.98c0 29.1-12.6 89.97-102.82 89.97C9.77 258.95 0 202.22 0 170.27v-31.13h62.95v30.52c0 18.67 12.41 36.01 36.34 36.01 23.78 0 38.39-13.18 38.39-35.4V0zm165.79 70.62c51 0 95.91 19.43 95.91 108.63H278.31c0 28.47 11.92 40.22 32.9 40.22 20.88 0 27.92-16.54 27.92-16.54h59.51c0 25.6-35.66 60.14-89.58 59.6-61.52 0-91.68-45.12-91.68-91.43 0-46.39 26.72-100.48 86.1-100.48m36.43 72.7c0-17.3-9.79-33.94-32.2-33.94-21.75 0-29.4 15.33-29.4 33.95h61.6zm158.04-72.7c51.07 0 95.89 19.43 95.89 108.63H472.8c0 28.47 11.88 40.22 32.87 40.22 21.04 0 27.96-16.54 27.96-16.54h59.44c0 25.6-35.58 60.14-89.48 59.6-61.61 0-91.77-45.12-91.77-91.43 0-46.39 26.6-100.48 86.13-100.48m36.44 72.7c0-17.3-9.85-33.94-32.2-33.94-21.74 0-29.38 15.33-29.38 33.95h61.58zm74.76 173.14V77.56h60.15v27.15a52.24 52.24 0 0 1 8.32-13.34c4.03-4.83 15.35-18.68 45.48-18.68 30.05 0 76.9 20.76 76.9 94.23 0 56.76-27.91 98.3-76.2 98.3-26.63 0-38.5-9.18-45.5-14.49-4.46-3.5-5.84-5.14-8.3-8.4v74.13h-60.85zm59.39-147.48c-.68 35.32 7.02 53.91 36.4 53.91 29.31 0 33.62-31.75 33.62-55.97 0-24.27-5.68-47.76-36.44-47.76-18.82 0-32.82 14.47-33.58 49.82"/></g></svg>