<svg xmlns="http://www.w3.org/2000/svg" xmlns:xlink="http://www.w3.org/1999/xlink" width="491.03" height="302.18"><defs><radialGradient id="al" cx="-80.71" cy="798.99" r="131.15" fx="-80.71" fy="798.99" gradientTransform="matrix(.11816 .5011 -.63709 .15022 859.55 460)" gradientUnits="userSpaceOnUse" xlink:href="#a"/><linearGradient id="a"><stop offset="0" stop-color="#dcdcdc" stop-opacity=".9"/><stop offset=".75" stop-color="#e1e1e1" stop-opacity=".45"/><stop offset="1" stop-color="#c8c8c8" stop-opacity="0"/></linearGradient><linearGradient id="ak" x1="369.36" x2="369.15" y1="746.21" y2="759.43" gradientTransform="translate(208.85 154.73) scale(.65042)" gradientUnits="userSpaceOnUse" xlink:href="#b"/><linearGradient id="b"><stop offset="0" stop-color="#fafafa"/><stop offset=".5" stop-color="#fafafa" stop-opacity=".9"/><stop offset=".7" stop-color="#e1e1e1" stop-opacity=".5"/><stop offset="1" stop-color="#c8c8c8" stop-opacity="0"/></linearGradient><linearGradient id="aj" x1="675.93" x2="719.12" y1="355.21" y2="363.55" gradientTransform="translate(-46.07 264.79) scale(.65042)" gradientUnits="userSpaceOnUse" xlink:href="#c"/><linearGradient id="c"><stop offset="0" stop-opacity="0"/><stop offset=".11" stop-color="#323232" stop-opacity=".95"/><stop offset=".22" stop-color="#323232" stop-opacity=".9"/><stop offset=".51" stop-color="#e1e1e1" stop-opacity=".5"/><stop offset="1" stop-color="#c8c8c8" stop-opacity="0"/></linearGradient><linearGradient id="ai" x1="571.36" x2="772.17" y1="562.84" y2="355.21" gradientTransform="translate(-46.07 264.79) scale(.65042)" gradientUnits="userSpaceOnUse" xlink:href="#d"/><linearGradient id="d"><stop offset="0" stop-color="#969696"/><stop offset=".13" stop-color="#c0bebe"/><stop offset=".5" stop-color="#b4b4b4"/><stop offset="1" stop-color="#bebebe"/></linearGradient><linearGradient id="ah" x1="679.22" x2="700.81" y1="344.02" y2="359.17" gradientTransform="translate(-46.07 264.79) scale(.65042)" gradientUnits="userSpaceOnUse" xlink:href="#e"/><linearGradient id="e"><stop offset="0" stop-color="#fafafa"/><stop offset=".25" stop-color="#ededed" stop-opacity=".75"/><stop offset=".5" stop-color="#e1e1e1" stop-opacity=".5"/><stop offset="1" stop-color="#c8c8c8" stop-opacity="0"/></linearGradient><linearGradient id="ag" x1="375.04" x2="269.12" y1="746.21" y2="782.54" gradientTransform="translate(208.85 154.73) scale(.65042)" gradientUnits="userSpaceOnUse" xlink:href="#f"/><linearGradient id="f"><stop offset="0" stop-color="#fafafa"/><stop offset=".25" stop-color="#fafafa" stop-opacity=".9"/><stop offset=".5" stop-color="#e1e1e1" stop-opacity=".5"/><stop offset="1" stop-color="#c8c8c8" stop-opacity="0"/></linearGradient><linearGradient id="af" x1="373.58" x2="460.72" y1="572.69" y2="496.92" gradientTransform="translate(-46.07 264.79) scale(.65042)" gradientUnits="userSpaceOnUse" xlink:href="#g"/><linearGradient id="g"><stop offset="0" stop-color="#e6e6e6"/><stop offset="1" stop-color="#fafafa" stop-opacity="0"/></linearGradient><linearGradient id="ae" x1="610.01" x2="607.67" y1="312.78" y2="687.54" gradientTransform="translate(-46.07 264.79) scale(.65042)" gradientUnits="userSpaceOnUse" xlink:href="#h"/><linearGradient id="h"><stop offset="0" stop-color="#aaa"/><stop offset=".1" stop-color="#bebebe"/><stop offset=".21" stop-color="#bebebe"/><stop offset=".55" stop-color="#b4b4b4"/><stop offset=".67" stop-color="#878787"/><stop offset=".78" stop-color="#969696"/><stop offset="1" stop-color="#aaa"/></linearGradient><linearGradient id="ac" x1="424.35" x2="510.74" y1="311.26" y2="449.18" gradientTransform="translate(-46.36 264.83) scale(.65042)" gradientUnits="userSpaceOnUse" xlink:href="#i"/><linearGradient id="i"><stop offset="0" stop-color="#8282a9"/><stop offset="1" stop-color="#a9a9a9" stop-opacity="0"/></linearGradient><linearGradient id="ab" x1="679.43" x2="679.43" y1="522.97" y2="555.65" gradientTransform="translate(-46.07 264.79) scale(.65042)" gradientUnits="userSpaceOnUse" xlink:href="#j"/><linearGradient id="j"><stop offset="0" stop-color="#505050"/><stop offset="1" stop-color="#fafafa" stop-opacity="0"/></linearGradient><linearGradient id="aa" x1="556.41" x2="752.65" y1="531.07" y2="577.49" gradientTransform="translate(-46.07 264.79) scale(.65042)" gradientUnits="userSpaceOnUse" xlink:href="#k"/><linearGradient id="k"><stop offset="0" stop-color="#323232"/><stop offset=".11" stop-color="#b4b4b6"/><stop offset=".25" stop-color="#b4b4b4"/><stop offset="1" stop-color="#aaa"/></linearGradient><linearGradient id="Z" x1="712.65" x2="772.32" y1="346.15" y2="524.35" gradientTransform="translate(-46.07 264.79) scale(.65042)" gradientUnits="userSpaceOnUse" xlink:href="#l"/><linearGradient id="l"><stop offset="0"/><stop offset=".55" stop-color="#7d7d7d"/><stop offset=".69" stop-color="#969696"/><stop offset=".86" stop-color="#8a8a8a"/><stop offset="1" stop-color="#505050"/></linearGradient><linearGradient id="Y" x1="-481.86" x2="-501.85" y1="598.39" y2="536.07" gradientUnits="userSpaceOnUse" xlink:href="#m"/><linearGradient id="m"><stop offset="0" stop-color="#b3b3b3" stop-opacity="0"/><stop offset=".12" stop-color="#b3b3b3" stop-opacity=".37"/><stop offset=".29" stop-color="#b3b3b3" stop-opacity=".87"/><stop offset=".38" stop-color="#b3b3b3" stop-opacity=".75"/><stop offset=".52" stop-color="#b3b3b3" stop-opacity=".5"/><stop offset="1" stop-color="#b3b3b3" stop-opacity="0"/></linearGradient><linearGradient id="X" x1="-388.89" x2="-404.46" y1="410.14" y2="374.18" gradientUnits="userSpaceOnUse" xlink:href="#n"/><linearGradient id="n"><stop offset="0" stop-color="#b3b3b3" stop-opacity="0"/><stop offset=".16" stop-color="#b3b3b3" stop-opacity=".3"/><stop offset=".34" stop-color="#b3b3b3" stop-opacity=".87"/><stop offset=".41" stop-color="#b3b3b3" stop-opacity=".75"/><stop offset=".66" stop-color="#b3b3b3" stop-opacity="0"/><stop offset="1" stop-color="#b3b3b3" stop-opacity="0"/></linearGradient><linearGradient id="W" x1="395.83" x2="436.43" y1="152.23" y2="195.04" gradientTransform="translate(-45.36 428.21) scale(.65042)" gradientUnits="userSpaceOnUse" xlink:href="#o"/><linearGradient id="o"><stop offset="0" stop-color="#28170b"/><stop offset="1" stop-color="#28170b" stop-opacity="0"/></linearGradient><linearGradient id="V" x1="-323.65" x2="-322.13" y1="629.44" y2="580.94" gradientTransform="matrix(.64932 0 0 .65042 591.4 243.16)" gradientUnits="userSpaceOnUse" xlink:href="#p"/><linearGradient id="p"><stop offset="0"/><stop offset="1" stop-opacity="0"/></linearGradient><linearGradient id="U" x1="409.51" x2="706.22" y1="123.33" y2="251.32" gradientTransform="translate(-46.07 428.93) scale(.65042)" gradientUnits="userSpaceOnUse" xlink:href="#q"/><linearGradient id="q"><stop offset="0" stop-color="#323232" stop-opacity="0"/><stop offset=".39" stop-color="#323232" stop-opacity=".95"/><stop offset=".47" stop-color="#323232" stop-opacity=".9"/><stop offset=".7" stop-color="#e1e1e1" stop-opacity=".5"/><stop offset="1" stop-color="#c8c8c8" stop-opacity="0"/></linearGradient><linearGradient id="R" x1="-460.09" x2="-170.13" y1="376.14" y2="706.53" gradientUnits="userSpaceOnUse" xlink:href="#r"/><linearGradient id="r"><stop offset="0" stop-color="#5a5a5a"/><stop offset=".27" stop-color="#505050"/><stop offset=".63" stop-color="#666"/><stop offset=".7" stop-color="#666"/><stop offset="1" stop-color="#666"/></linearGradient><linearGradient id="T" x1="-460.09" x2="-170.13" y1="376.14" y2="706.53" gradientUnits="userSpaceOnUse" xlink:href="#s"/><linearGradient id="s"><stop offset="0" stop-color="#5a5a5a"/><stop offset=".27" stop-color="#505050"/><stop offset=".63" stop-color="#666"/><stop offset=".67" stop-color="#666"/><stop offset="1" stop-color="#666"/></linearGradient><linearGradient id="Q" x1="-321.37" x2="-322.13" y1="680.21" y2="580.94" gradientTransform="matrix(.64932 0 0 .65042 591.4 243.16)" gradientUnits="userSpaceOnUse" xlink:href="#p"/><linearGradient id="A"><stop offset="0" stop-color="#999"/><stop offset=".22" stop-color="#3c3c3c" stop-opacity=".87"/><stop offset=".52" stop-color="#969696"/><stop offset=".75" stop-color="#828282"/><stop offset="1" stop-color="#5a5a5a"/></linearGradient><linearGradient id="O" x1="-79.27" x2="316.9" y1="600.05" y2="857.4" gradientUnits="userSpaceOnUse" xlink:href="#t"/><linearGradient id="t"><stop offset="0" stop-color="#000032"/><stop offset=".25" stop-color="#646464"/><stop offset=".42"/><stop offset="1" stop-color="#787878"/></linearGradient><linearGradient id="N" x1="430.32" x2="432.35" y1="522.03" y2="584.66" gradientTransform="translate(85.86 438.7) scale(.57191)" gradientUnits="userSpaceOnUse" xlink:href="#u"/><linearGradient id="u"><stop offset="0" stop-color="#828282"/><stop offset=".5" stop-color="#828282"/><stop offset="1" stop-color="#3c3c3c"/></linearGradient><linearGradient id="M" x1="441.49" x2="446.49" y1="615.15" y2="532.13" gradientTransform="translate(85.86 438.7) scale(.57191)" gradientUnits="userSpaceOnUse" xlink:href="#u"/><linearGradient id="L" x1="423.25" x2="428.3" y1="463.44" y2="582.64" gradientTransform="translate(85.86 438.7) scale(.57191)" gradientUnits="userSpaceOnUse" xlink:href="#v"/><linearGradient id="v"><stop offset="0" stop-color="#b4b4b4"/><stop offset=".32" stop-color="#828282"/><stop offset="1" stop-color="#3c3c3c"/></linearGradient><linearGradient id="K" x1="385.88" x2="382.85" y1="461.42" y2="607.9" gradientTransform="translate(85.86 438.7) scale(.57191)" gradientUnits="userSpaceOnUse" xlink:href="#w"/><linearGradient id="w"><stop offset="0" stop-color="#787878"/><stop offset="1" stop-color="#1e1e1e"/></linearGradient><linearGradient id="D" x1="476.09" x2="472.34" y1="455.14" y2="596.27" gradientTransform="matrix(.57191 0 0 .49645 -8 733.05)" gradientUnits="userSpaceOnUse" xlink:href="#x"/><linearGradient id="x"><stop offset="0" stop-color="#464646"/><stop offset="1"/></linearGradient><linearGradient id="E" x1="476.09" x2="472.34" y1="455.14" y2="596.27" gradientTransform="matrix(.57191 0 0 .51638 -8 723.46)" gradientUnits="userSpaceOnUse" xlink:href="#x"/><linearGradient id="J" x1="476.09" x2="472.34" y1="455.14" y2="596.27" gradientTransform="translate(-8 692.77) scale(.57191)" gradientUnits="userSpaceOnUse" xlink:href="#x"/><linearGradient id="H" x1="476.09" x2="472.34" y1="455.14" y2="596.27" gradientTransform="matrix(.57191 0 0 .5273 -8 718.49)" gradientUnits="userSpaceOnUse" xlink:href="#x"/><linearGradient id="C" x1="613.16" x2="613.16" y1="481.63" y2="497.79" gradientTransform="translate(85.86 438.7) scale(.57191)" gradientUnits="userSpaceOnUse" xlink:href="#y"/><linearGradient id="y"><stop offset="0" stop-color="#b8b8b8"/><stop offset="1" stop-color="#828282"/></linearGradient><linearGradient id="B" x1="424.02" x2="419.91" y1="627.07" y2="457.07" gradientTransform="translate(85.86 438.7) scale(.57191)" gradientUnits="userSpaceOnUse" xlink:href="#z"/><linearGradient id="z"><stop offset="0" stop-color="#505050"/><stop offset=".06" stop-color="#525252"/><stop offset=".56" stop-color="#555"/><stop offset=".79" stop-color="#5a5a5a"/><stop offset="1" stop-color="#c8c8c8"/></linearGradient><linearGradient id="ad" x1="375.04" x2="269.12" y1="746.21" y2="782.54" gradientTransform="translate(208.85 154.73) scale(.65042)" gradientUnits="userSpaceOnUse" xlink:href="#f"/><linearGradient id="F" x1="476.09" x2="472.34" y1="455.14" y2="596.27" gradientTransform="translate(-8 692.77) scale(.57191)" gradientUnits="userSpaceOnUse" xlink:href="#x"/><linearGradient id="G" x1="476.09" x2="472.34" y1="455.14" y2="596.27" gradientTransform="translate(-8 692.77) scale(.57191)" gradientUnits="userSpaceOnUse" xlink:href="#x"/><linearGradient id="I" x1="476.09" x2="472.34" y1="455.14" y2="596.27" gradientTransform="translate(-8 692.77) scale(.57191)" gradientUnits="userSpaceOnUse" xlink:href="#x"/><linearGradient id="P" x1="42.88" x2="447.53" y1="601.3" y2="598.27" gradientUnits="userSpaceOnUse" xlink:href="#A"/><linearGradient id="S" x1="-460.09" x2="-170.13" y1="376.14" y2="706.53" gradientUnits="userSpaceOnUse" xlink:href="#s"/></defs><path fill="url(#B)" d="M124.35 776.85c-11.36-1.75-18.24-5.94-21.03-13.68l-1.48-4.12-2.25-20.84v-21.44l10.08-.16c8.97-.14 10.16-.05 10.8.82.55.74.72 5.57.72 19.57 0 17.56.07 18.71 1.18 21 .65 1.34 2.08 3.1 3.17 3.93 4.23 3.2 3.84 3.16 32.36 3.16h26.37l2.2-4.27c1.24-2.4 3.82-6 5.9-8.23 2.04-2.18 3.7-4.11 3.7-4.29 0-.18-2.91-.4-6.48-.49l-6.48-.16.14-2.2c.3-5.1 7.07-14.83 13.99-20.11a48.4 48.4 0 0 1 7.63-4.56c8.02-3.68 8.76-3.73 59.1-3.71l45.29.02 13.69 9.99c7.53 5.5 13.97 10 14.3 10 .77 0 21.65-12.84 27.87-17.14l4.6-3.17 17.57.05c17.95.05 17.52.04 18.3.45 1.12.6.72.94.72 20.13 0 16.46.15 20.07.89 21.83 1.15 2.73 2.33 4 5.16 5.5 2.22 1.18 3.11 1.23 23.57 1.4 11.7.1 21.86.04 22.6-.15l1.34-.33.15-23.87.15-23.87h21.31l.29 23.74.29 23.73 38.65.15 38.65.15 1.6-1.25a9.32 9.32 0 0 0 2.4-3.15c.68-1.63.68-2.18 0-3.81a9.3 9.3 0 0 0-2.4-3.15l-1.59-1.24H524.1c-30.65 0-35.37-.1-36-.85-.92-1.1.04-7.95 1.74-12.47 1.32-3.5 4.58-8.76 7.44-12 2.8-3.16 9.65-7.46 14.18-8.9 3.97-1.25 4.3-1.26 37.13-1.1l33.12.15.16 5.1c.12 3.7-.03 5.23-.57 5.57-.41.26-13.65.47-29.43.48-27.24 0-28.78.06-30.87 1.11-3.73 1.9-8.13 8.01-7.3 10.16.23.6 5.8.74 28.21.74 18.49 0 28.96.22 30.98.65 4.52.95 8.04 2.94 11 6.2 3.41 3.77 4.63 7.37 4.34 12.79-.47 8.78-6.25 14.87-15.53 16.37-5.24.84-163.87.82-169.37-.03-9.55-1.47-14.42-4.31-17.29-10.09l-1.9-3.84-.29-19.7c-.19-12.83-.5-19.76-.89-19.9-1.37-.45-34.25 20.49-34.25 21.82l40.97 33.06c0 .33-7.18-1.3-16.58-1.3h-15.35l-13.68-9.72c-7.52-5.34-14.03-9.72-14.48-9.72-.79 0-23.72 13.81-29.75 17.92l-3.08 2.1-83.9-.06c-63.88-.04-85-.23-88.5-.77zm164-8.94c2-1.27 9.33-5.86 16.3-10.18 6.97-4.32 12.67-8.15 12.67-8.5 0-.6-29.21-23.2-34.05-27.47-1.76-1.55-3.9 2.81-2.89 4.5l-2.41 2.72-26.6.08c-29.02.1-29.71.32-31.97 1.52-3.4 1.82-11.08 8.67-11.08 10.78 0 .96 6.19.61 35.74.62 17.19.01 31.79-.03 31.79-.03-.1.5-.04 6.24-.04 6.24l.04 4.04-26.5.28c-28.57.3-27.15.15-31.5 3.54-2.37 1.84-7.4 8.66-6.54 9.52l71.45-.2.18 5.7c.13 4.17.78-.18 5.41-3.15z" transform="translate(-98.34 -477.42)"/><path fill="url(#C)" d="M99.8 716.37v5.41h22.6v-5.41H99.8zm357.14.32v5.43h24.77v-5.43h-24.77zm-87.1.02l-2.03 1.41h8.08c2.66-.06 4.5.08 5.84.32l-.01 3.77h23.75v-5.48l-10.44.14c-9.67-.07-16.51-.12-25.2-.16zm-96.13.32l-16.8.05c-39.74.15-42.95.22-44.27 1.15 0 .4-1.82 1.16 2.72.84.67-.05.98.07 1.95-.04 6.3.1 16.43-.1 38.35-.1 24.6 0 45.05.1 45.04-.13-.01-.76 1.34-1.2-1.68-1.47-3.29-.28-10.88-.33-25.3-.3zm286.76.46l-13.11.06c-31.04.14-33.56.23-34.59 1.16 0 .4-1.41 1.14 2.13.82.53-.04.76.1 1.52-.02 4.93.1 12.84-.1 29.95-.1 19.22 0 35.18.1 35.18-.13-.02-.76 1.03-1.2-1.33-1.46-2.57-.29-8.48-.36-19.75-.33z" transform="translate(-98.34 -477.42)"/><path fill="url(#D)" d="M413.49 995.58c-1.45-2.34 3.47-8.92 8.93-11.96 6.19-3.43 8.62-3.67 38.14-3.68l27.59.33.42 4.49c-1.43.07-6.9.09-28.57.1-31.83.04-32.19.08-36.57 3.68-1.4 1.16-2.85 2.95-3.28 4.06-.3.76-.28 1.4-.78 1.88a21.3 21.3 0 0 1-3.95 1.56c-.53.14-1.07.51-1.4.35-.22-.12-.08-.12-.28-.4z" transform="translate(-4.5 -731.48)"/><path fill="url(#E)" d="M106.47 999.72c0-.61.42-2.36 1-4.1 1.5-4.47 5.27-8.78 10.22-11.67 5.95-3.48 7.58-3.63 40.17-3.66 18.06-.02 28.6 0 28.6 0v5.31c-1.4-.17-11.26.03-28.35.03-29.86 0-31.28-.09-35.53 2.51-1.04.65-2.94 2.3-4.1 3.62-1.54 1.76-3.06 3.35-3.83 5.12-1.38 1.23-3.15 1.26-4.46 1.87-2.68 1.23-3.8 1.47-3.8 1.47z" transform="translate(-4.5 -731.48)"/><path fill="url(#F)" d="M468.7 1016.01c.8-3.21-3.26-7.48-7.81-8.5-1.12-.26-15.92-.33-32.88-.17-16.96.17-31.75-.07-32.9-.09-1.23-.01-1.7.1-1.94-.18-.45-.53.62-1.81 2.74-3.43l2.43-1.86 29.83.03c32.97.04 37.66.3 40.36 2.22 4.6 3.27 6.47 8.6 4.08 11.63-1.57 1.98-5.95 4.73-6.93 4.12 2.43-1.99 2.3-1.9 3.01-3.77z" transform="translate(-4.5 -731.48)"/><path fill="url(#G)" d="M365.6 1020.98c-.95-.53-2.34-.49-2.54-1.02-.2-.53-.27-12.22-.27-25.1 0-16.45-.04-21.6-.19-24.25.81-.04 2.72.83 4.34 2.46l2.62 3.2-.18 43.63c0 .9.1 1.82-.02 2.72l-3.77-1.64z" transform="translate(-4.5 -731.48)"/><path fill="url(#H)" d="M109 1022.2s-.31-3.18.86-6.31c1.25-3.34 5.92-8.12 9.57-9.8 5.62-2.6 6.85-2.69 34.71-2.7 19.33 0 27.76.15 27.76.15l.19 5.1-26.6.03c-15.58 0-26 .2-27.31.54-4.16 1.07-8.6 5.37-10.25 9.95-.27.76-7.94 2.96-8.57 3.23z" transform="translate(-4.5 -731.48)"/><path fill="url(#I)" d="M312.17 1032c-4.75-.6-12.9-3.38-15.8-5.39a23.63 23.63 0 0 1-6.18-7.03c-1.62-3.04-2.28-10.07-2.3-24.48-.01-7.93.05-14.7-.22-14.86-.27-.16-6.7 3.54-13.94 8.05-13.55 8.45-17.44 11.05-20.07 12.26l-10.58.06c1.37-1.29 41.47-26.78 43.58-27.67 1.45-.6.5-.76 1.2-.36 1.02.58 4.4 1.84 4.81 2.8.72 1.69.16 5.16.37 17.09.38 20.95.61 22.1 5.4 26.77a22.42 22.42 0 0 0 6.95 4.62s2.8.84 4.21 1.15c1 .22 3.04.51 3.04.51l78.98.15 80.98.05s1.91-.3 2.82-.62c.7-.24 1.33-.63 1.99-.95 10.44-5.02 14.06-11.83 10.3-19.36a20.2 20.2 0 0 0-3.75-5c-1.26-1.14-3.13-2.93-3.03-3.22.28-.8 6.6 2.53 8.48 4.42 4.72 4.7 6.71 14.17 3.63 20.48-3.17 6.48-9.6 9.85-18.62 10.66-7.3.65-157.07.54-162.25-.12z" transform="translate(-4.5 -731.48)"/><path fill="url(#J)" d="M30.22 1031.81c-6.1-.87-8.89-1.82-13.01-4.46a24.58 24.58 0 0 1-9.15-10.7c-.37-.81-.81-1.6-1.11-2.46-.25-.72-.44-1.47-.57-2.23a38.3 38.3 0 0 1-.45-4.54c-.26-4.73-.18-14.22-.18-14.22l-.2-21.3c-.01-.64-.06-1.54-.06-1.54s2.32 1.18 3.99 2.62l3.08 2.65.01 14.8c.03 16.48.33 18.39 2.89 23.81 1.54 3.26 4.9 6.16 10.31 8.91 6.38 3.23 6.23 3.22 86.52 3.22h73.62l3.7-2.71c2.03-1.5 9.91-6.58 17.52-11.3 7.6-4.72 13.82-8.85 13.82-9.18 0-1.22-3.47-3.85-29.3-22.23-4.99-3.54-8.82-6.1-10.76-7.87 1.85.05 6.08.1 8.73.11h4.17l12.58 8.96 18.3 13.05c3.15 2.25 7.46 5.56 7.04 5.83l-15.9 10.2c-4.84 3.1-10.15 6.38-11.73 7.4l-7 4.51c-2.28 1.47-4.3 3.29-4.3 3.6.46.28 2.13.2 4.87.2h4.72l16.15-10.54c8.88-5.8 16.65-10.7 17.27-10.9 1.58-.5 2.09-.18 17.2 10.57 7.38 5.26 14.23 10.48 14.86 10.8.63.32 3.95.07 7.72.25 2.74.13 4.22-.04 6.06.27 9.78 3.57 1.16.46 13.98 5.16l-33.22.04c-1.76-.93-18.05-12.67-22.54-16.31-2.06-1.67-4.1-3.05-4.55-3.05-.44-.01-3.14 1.59-6 3.55-2.86 1.96-9.3 6.33-14.31 9.72l-9.12 6.16-85.25-.06c-66-.05-86.41-.23-90.4-.8z" transform="translate(-4.5 -731.48)"/><path fill="url(#K)" d="M408 764.85c-3.7-1-6.25-2.87-7.3-4.29-.67-.92-.7-.73-.87-1.25-.16-.48-.54-1.31-.62-1.81-.77-5.11-.7-17.22-.7-17.22v-17.62l3.18-2.84a196.1 196.1 0 0 0 3.42-3.07c.12-.12.33-.04.8.36.76.62.45 3.97.45 21.53 0 23.19 1.85 23.79 6.77 26.67 2.14.57-2.17.4-5.14-.46zm-285.86-1.2c-3.15-.76-5.86-3.46-6.42-5.02l-.72-2.01c-.47-11.64-.8-23.08-.8-35.05l2.26-2.26a11.3 11.3 0 0 1 5.74-3c.21.43.15 9.95.23 21.09.18 24.26-.17 22.47 5.03 25.35 1.48.82 4.36 1.61 4.2 1.88-.36.57-7.02-.37-9.52-.98zm351.85-18.59v-23.1l2.01-1.77c2.2-1.92 5.38-3.74 5.8-3.31.36.35.45 47.64.09 48.58-.15.4-1.74 1.17-3.27 1.72-2.03.72-4.4 1.36-4.35 1.13-.3.25-.28-7.7-.28-23.25z" transform="translate(-98.34 -477.42)"/><path fill="url(#L)" d="M486.84 753.06c.01-2.93 1.8-11.81 4.25-16.84 3.1-6.36 8.64-12.46 13.72-15.13 1.95-1.02 3.84-1.86 4.21-1.86a43.38 43.38 0 0 1 7.98-1.41c-2.02.9-3.71 1.43-6.04 2.78-3.15 1.73-5.96 3.25-10.32 8.58a20.13 20.13 0 0 0-3.89 6.8c-1.56 4.37-1.98 8.85-2.42 11.66-1.51.83-1.4 1.21-7.5 5.42zm-305.44-5.64c0-2.05 2.74-8.39 5.97-13.84 3.74-6.29 7.17-9.33 13.5-11.99 4.68-1.96 13.16-3.95 15.34-3.89 1.32.04-3.63 1.7-6.4 2.74-4.88 1.8-7.77 3.98-12.01 8.25-2.63 2.65-5.25 6.05-9.01 15.44l-1.18 3.7-3.36-.05c-2.4-.04-2.44-.11-2.85-.36zm115.77-30.35l12.05-.01c16.06 11.86 25.12 18 28 20.07l-6.88 4.25c-15.4-11.04-19.8-14.69-33.17-24.3z" transform="translate(-98.34 -477.42)"/><path fill="url(#M)" d="M348.03 754.52l-10.86-8.06h5.57c3.05 0 5.86-1.22 6.3-.83 0 0 9 7.3 40.6 32.61-20.38-5.23-26.25-12.3-41.61-23.72z" transform="translate(-98.34 -477.42)"/><path fill="url(#N)" d="M185.13 765.64c-.96-.67-.91-.94.72-4.57 1.97-4.4 9.04-12.25 11.9-14.17a23 23 0 0 1 4.4-2.44c1.58-.58 3.07-1.3 4.4-1.81.8-.31 2.4-.74 5.31-.71l4.6.04-2.87 1.02a33.7 33.7 0 0 0-13.07 7.98c-4.49 4.32-7.2 8.26-9.31 13.55-.81 2.03-1.5 3.64-1.7 3.77-1.68-.04-2.95-1.67-4.38-2.66z" transform="translate(-98.34 -477.42)"/><path fill="url(#O)" d="M112.04 825.07a270.96 270.96 0 0 1-91-26.07c-24.42-11.82-39.94-22.72-56.5-39.69-18.57-19.03-27.63-32.95-36.11-55.5-10.15-26.96-6.63-63.02 9.23-94.44 13.35-26.46 30.1-45 56.38-62.41 9.78-6.48 34-18.94 40.38-20.77 4.49-1.3-2.23 1.23-9.9 5.69-4.74 2.63-7.67 4.25-12.04 6.85-10.15 6.21-12.78 8.4-23.31 16.92-28.78 23.27-46.65 50.86-53.06 81.94-2.1 10.16-2.1 32.91 0 43.07 7.6 36.84 29.7 67.03 67.36 92.06 21.67 14.4 46.8 25 76.07 32.11 24.75 6 34.09 6.97 67.5 6.97 24.36 0 32.26-.35 42-1.85 31.12-4.79 64.29-15.58 86.5-28.15 18.18-10.28 24.22-13.86 25.86-15.33.94-.84 5.13-3.07 9.33-4.96 5.02-2.26 8.59-4.63 10.46-6.95 2.8-3.47 2.99-3.53 10.1-3.53 4.26 0 10.8-6.19 10.8-5.6-8.32 11.9-22.06 25.13-29.86 31.15-11.58 8.96-20.68 15.09-37.19 22.96-27.76 13.25-50.49 20.98-85.5 25.2-25.66 3.1-52.96 2.92-77.5.33z" transform="matrix(.64922 0 0 .64732 151 -325.73)"/><path fill="url(#P)" d="M213.42 621.5c-18.38-1.96-45.33-7.8-59.57-12.93-10.07-3.63-31.4-12.95-36.93-16.14-6.13-3.55-21.06-14.65-29.76-22.14-11.28-9.7-29.37-32.5-27.8-35.04.45-.72 8.54-3.74 10.03-3.74.27 0 1.76 2.23 3.54 5.4 8.08 14.37 20.1 27.27 33.49 38.19 17.91 14.6 30.83 21.06 57 28.5 53.97 15.32 116.77 14.61 167-1.9 19.61-6.45 39.46-17.22 46.93-25.47 2.02-2.23 18.08-7.9 19.2-6.77 1.42 1.42-2.35 6.22-10.13 12.91-13.87 11.92-48.38 26.78-76 32.74-24.86 5.37-33.62 6.26-64 6.55-15.95.14-30.8.07-33-.16z" transform="translate(83.5 -206.1) scale(.65042)"/><path fill="url(#Q)" d="M257.09 653.42c-5.26-1.67-8.17-3.33-14.64-8.35-14.22-11.05-24.5-25.03-29.05-39.5-2.68-8.55-3.29-14.15-2.89-26.53.3-9.5.62-12.08 2.08-17.01 3.62-12.31 8.64-21.67 17.04-31.75 19.03-22.86 54.58-40.1 90.77-44.03 10.02-1.09 28.74-1.18 31.62-.16 2.96 1.05 6.06 4.48 7.05 7.8.66 2.2.57 2.86-.7 5.37-.81 1.58-2.3 3.9-3.32 5.16-1.03 1.25-3.69 4.7-5.92 7.65a703.69 703.69 0 0 1-11.59 14.63 495.7 495.7 0 0 0-14.97 19.68c-7.6 10.6-24.2 35.73-27.52 41.63-1 1.78-2.8 4.6-3.98 6.25a64.01 64.01 0 0 0-4.5 7.96c-2.17 4.58-2.33 5.35-2.11 9.75.3 5.98 2.16 9.1 7.52 12.55 8.06 5.2.74 4.79 85.82 4.79h75.89l6.58-7.1c5.08-5.47 7.08-8.18 8.8-11.93a94.12 94.12 0 0 0 6.27-20.5c.95-5.5.36-20.23-.97-24a99.74 99.74 0 0 0-12.41-28.83c-10.42-16.28-25.26-29.2-46.72-40.68-3.81-2.03-13.54-6.73-13.39-6.88.47-.47 14.96 5.58 22.1 9.14 17.65 8.8 32.82 21.38 42.9 35.58 7.47 10.53 13.66 22.51 16.72 34.59 1.7 6.72 1.9 12.56 1.89 19.88-.04 14.6-3.1 24.2-10.24 38.13-5 9.78-6.15 11.03-13.74 15.02l-8.42 3.05-74.87.46c-76.43.48-76.64 0-84.1-1.44-15.93-3.07-22.46-6.87-26.62-15.49-2.07-4.27-2.53-12.57-1.03-18.54 3.42-13.66 26.9-50.05 59.77-92.6 6.25-8.11 11.67-15.3 12.03-15.98 1.73-3.24 0-5.38-4.94-6.11-3.44-.51-21 2.22-28.6 4.45-18.58 5.45-25.74 8.22-35.02 13.56-13.96 8.03-25.4 17.89-33.35 28.73-8.48 11.56-11.85 18.83-15.05 32.47-1.9 8.07-1.46 20.67 1.03 29.63 5.19 18.67 16.2 33.18 35.26 46.48 2.95 2.05 5.36 3.85 5.36 4 0 .53-2.32.14-5.84-.98z" transform="translate(-98.34 -477.42)"/><g fill="url(#R)" transform="matrix(.64932 0 0 .65042 493.43 -234.13)"><path fill="url(#S)" d="M-514.86 630.76c-8.1-2.57-12.57-5.11-22.54-12.84-21.9-16.98-37.74-38.48-44.74-60.73-4.13-13.14-5.06-21.75-4.45-40.79.48-14.6.96-18.56 3.2-26.15 5.58-18.92 13.31-33.3 26.25-48.82 29.3-35.13 84.05-61.64 139.78-67.68 15.43-1.67 44.27-1.82 48.7-.25 4.56 1.62 9.33 6.89 10.86 12 1.02 3.39.89 4.38-1.09 8.25a54.14 54.14 0 0 1-5.1 7.93 605.76 605.76 0 0 0-9.12 11.76 1082.31 1082.31 0 0 1-17.84 22.5 762.16 762.16 0 0 0-23.07 30.25c-11.68 16.3-37.27 54.93-42.37 64-1.55 2.75-4.3 7.08-6.13 9.61a98.36 98.36 0 0 0-6.93 12.25c-3.34 7.03-3.6 8.22-3.26 14.98.47 9.2 3.34 13.98 11.6 19.3 12.4 8 1.12 7.36 132.15 7.36h116.88l10.13-10.9c7.83-8.42 10.91-12.6 13.57-18.35 3.89-8.4 7.9-21.54 9.64-31.51 1.47-8.46.56-31.12-1.5-36.9-3.85-15.67-12.22-29.6-20.65-42.97-16.04-25.02-37.36-41.33-70.4-58.98-5.87-3.13-34.9-18.68-20.62-15.5.72-.73 23.03 8.58 34.03 14.05 27.18 13.52 50.55 32.87 66.07 54.7 11.5 16.2 21.04 34.61 25.75 53.18 2.62 10.33 2.94 19.32 2.9 30.57-.06 22.45-4.75 37.2-15.75 58.62-7.72 15.03-9.48 16.95-21.18 23.1l-12.95 4.68-115.32.71c-117.7.73-118.03 0-129.5-2.21-24.54-4.73-34.6-10.57-41.01-23.82-3.18-6.57-3.9-19.33-1.59-28.5 5.27-21 41.44-76.96 92.05-142.38 9.63-12.46 17.98-23.51 18.54-24.56 2.66-4.98 0-8.28-7.61-9.4-5.3-.79-32.35 3.42-44.05 6.84-28.61 8.38-39.65 12.65-53.93 20.85-21.5 12.34-39.13 27.5-51.37 44.17-13.05 17.77-18.24 28.95-23.18 49.93-2.91 12.4-2.24 31.78 1.6 45.55 7.98 28.7 24.94 51.02 54.3 71.46 4.54 3.15 8.25 5.93 8.25 6.16 0 .8-3.57.2-9-1.52z"/><path fill="url(#T)" d="M-514.86 630.76c-8.1-2.57-12.57-5.11-22.54-12.84-21.9-16.98-37.74-38.48-44.74-60.73-4.13-13.14-5.06-21.75-4.45-40.79.48-14.6.96-18.56 3.2-26.15 5.58-18.92 13.31-33.3 26.25-48.82 29.3-35.13 84.05-61.64 139.78-67.68 15.43-1.67 44.27-1.82 48.7-.25 4.56 1.62 9.33 6.89 10.86 12 1.02 3.39.89 4.38-1.09 8.25a54.14 54.14 0 0 1-5.1 7.93 605.76 605.76 0 0 0-9.12 11.76 1082.31 1082.31 0 0 1-17.84 22.5 762.16 762.16 0 0 0-23.07 30.25c-11.68 16.3-37.27 54.93-42.37 64-1.55 2.75-4.3 7.08-6.13 9.61a98.36 98.36 0 0 0-6.93 12.25c-3.34 7.03-3.6 8.22-3.26 14.98.47 9.2 3.34 13.98 11.6 19.3 12.4 8 1.12 7.36 132.15 7.36h116.88l10.13-10.9c7.83-8.42 10.91-12.6 13.57-18.35 3.89-8.4 7.9-21.54 9.64-31.51 1.47-8.46.56-31.12-1.5-36.9-3.85-15.67-10.68-30.98-19.1-44.34-16.05-25.02-38.91-44.89-71.96-62.53-5.86-3.14-20.84-10.35-20.61-10.59.72-.72 23.03 8.59 34.03 14.06 27.18 13.52 50.55 32.87 66.07 54.7 11.5 16.2 21.04 34.61 25.75 53.18 2.62 10.33 2.94 19.32 2.9 30.57-.06 22.45-4.75 37.2-15.75 58.62-7.72 15.03-9.48 16.95-21.18 23.1l-12.95 4.68-115.32.71c-117.7.73-118.03 0-129.5-2.21-24.54-4.73-34.6-10.57-41.01-23.82-3.18-6.57-3.9-19.33-1.59-28.5 5.27-21 41.44-76.96 92.05-142.38 9.63-12.46 17.98-23.51 18.54-24.56 2.66-4.98 0-8.28-7.61-9.4-5.3-.79-32.35 3.42-44.05 6.84-28.61 8.38-39.65 12.65-53.93 20.85-21.5 12.34-39.13 27.5-51.37 44.17-13.05 17.77-18.24 28.95-23.18 49.93-2.91 12.4-2.24 31.78 1.6 45.55 7.98 28.7 24.94 51.02 54.3 71.46 4.54 3.15 8.25 5.93 8.25 6.16 0 .8-3.57.2-9-1.52z"/></g><path fill="url(#U)" d="M210.51 579.04c.3-9.5.62-12.08 2.08-17.01 3.62-12.31 8.64-21.67 17.04-31.75 19.03-22.86 54.58-40.1 90.77-44.03 10.02-1.09 28.74-1.18 31.62-.16 2.96 1.05 6.06 4.48 7.05 7.8.66 2.2.57 2.86-.7 5.37-.81 1.58-2.3 3.9-3.32 5.16-1.03 1.25-3.69 4.7-5.92 7.65a703.69 703.69 0 0 1-11.59 14.63 495.7 495.7 0 0 0-14.97 19.68c-7.6 10.6-24.2 35.73-27.52 41.63-1 1.78-2.8 4.6-3.98 6.25a64.01 64.01 0 0 0-4.5 7.96c-2.17 4.58-2.33 5.35-2.11 9.75.3 5.98 2.16 9.1 7.52 12.55 8.06 5.2.74 4.79 85.82 4.79h75.89l6.58-7.1c5.08-5.47 7.08-8.18 8.8-11.93a94.13 94.13 0 0 0 6.27-20.5c.95-5.5.36-20.23-.97-24-2.5-10.18-8.17-18.91-13.64-27.6-10.42-16.27-25.27-29.2-46.72-40.67-3.81-2.04-12.3-7.97-12.16-8.12.47-.47 14.96 5.58 22.1 9.14 17.65 8.8 32.82 21.38 42.9 35.58 7.47 10.53 13.66 22.51 16.72 34.59 1.7 6.72 1.9 12.56 1.89 19.88-.04 14.6-3.1 24.2-10.24 38.13-5 9.78-6.15 11.03-13.74 15.02l-8.42 3.05-74.87.46c-76.43.48-76.64 0-84.1-1.44-15.93-3.07-22.46-6.87-26.62-15.49-2.07-4.27-2.53-12.57-1.03-18.54 3.42-13.66 26.9-50.05 59.77-92.6 6.25-8.11 11.67-15.3 12.03-15.98 1.73-3.24 0-5.38-4.94-6.11-3.44-.51-21 2.22-28.6 4.45-18.58 5.45-25.74 8.22-35.02 13.56-13.96 8.03-25.4 17.89-33.35 28.73-8.48 11.56-11.85 18.83-15.05 32.47-1.9 8.07-1.46 20.67 1.03 29.63-10.8-9.03-12.03-17.03-11.8-24.88z" transform="translate(-98.34 -477.42)"/><path fill="url(#V)" d="M213.4 605.57c-2.68-8.55-3.29-14.15-2.89-26.53.3-9.5.62-12.08 2.08-17.01 3.62-12.31 8.64-21.67 17.04-31.75 19.03-22.86 54.58-40.1 90.77-44.03 10.02-1.09 28.74-1.18 31.62-.16 2.96 1.05 6.06 4.48 7.05 7.8.66 2.2.57 2.86-.7 5.37-.81 1.58-2.3 3.9-3.32 5.16-1.03 1.25-3.69 4.7-5.92 7.65a703.69 703.69 0 0 1-11.59 14.63 495.7 495.7 0 0 0-14.97 19.68c-7.6 10.6-24.2 35.73-27.52 41.63-1 1.78-2.8 4.6-3.98 6.25a64.01 64.01 0 0 0-4.5 7.96c-2.17 4.58-2.33 5.35-2.11 9.75.3 5.98 2.16 9.1 7.52 12.55 8.06 5.2.74 4.79 85.82 4.79h75.89l6.58-7.1c5.08-5.47 7.08-8.18 8.8-11.93a94.13 94.13 0 0 0 6.27-20.5c.95-5.5.36-20.23-.97-24a99.74 99.74 0 0 0-12.41-28.83c-10.42-16.28-25.26-29.2-46.72-40.68-3.81-2.03-13.54-6.73-13.39-6.88.47-.47 14.96 5.58 22.1 9.14 17.65 8.8 32.82 21.38 42.9 35.58 7.47 10.53 13.66 22.51 16.72 34.59 1.7 6.72 1.9 12.56 1.89 19.88-.04 14.6-3.1 24.2-10.24 38.13-5 9.78-6.15 11.03-13.74 15.02l-8.42 3.05-74.87.46c-76.43.48-76.64 0-84.1-1.44-15.93-3.07-22.46-6.87-26.62-15.49-2.07-4.27-2.53-12.57-1.03-18.54 3.42-13.66 26.9-50.05 59.77-92.6 6.25-8.11 11.67-15.3 12.03-15.98 1.73-3.24 0-5.38-4.94-6.11-3.44-.51-21 2.22-28.6 4.45-18.58 5.45-25.74 8.22-35.02 13.56-13.96 8.03-25.4 17.89-33.35 28.73-8.48 11.56-11.85 18.83-15.05 32.47-1.9 8.07-1.46 20.67 1.03 29.63-3.03 1.77 5.07 14.12-8.9 1.65z" transform="translate(-98.34 -477.42)"/><path fill="url(#W)" d="M214.12 604.85c-2.69-8.55-3.3-14.15-2.9-26.53.31-9.5.63-12.07 2.08-17 3.62-12.31 8.65-21.67 17.04-31.76 19.04-22.85 54.58-40.1 90.77-44.02 10.02-1.1 28.74-1.18 31.62-.16 2.96 1.05 6.06 4.48 7.06 7.8.65 2.2.57 2.85-.71 5.37-.8 1.58-2.3 3.9-3.32 5.15-1.02 1.26-3.68 4.7-5.92 7.65A703.69 703.69 0 0 1 338.26 526a495.7 495.7 0 0 0-14.98 19.67c-7.59 10.6-24.2 35.73-27.52 41.63-1 1.79-2.79 4.6-3.97 6.25a64 64 0 0 0-4.5 7.97c-2.17 4.57-2.34 5.34-2.12 9.74.3 5.99 2.17 9.1 7.53 12.55 8.06 5.2.73 4.8 85.81 4.8h75.9l6.57-7.1c5.08-5.47 7.09-8.19 8.81-11.93a94.13 94.13 0 0 0 6.26-20.5c.96-5.5.36-20.24-.97-24-2.5-10.19-8.17-18.91-13.64-27.6-10.42-16.28-25.26-29.2-46.72-40.68-3.8-2.04-12.3-7.96-12.15-8.11.46-.47 14.95 5.58 22.1 9.14 17.64 8.79 32.81 21.38 42.9 35.58 7.46 10.53 13.66 22.5 16.71 34.58 1.7 6.72 1.91 12.57 1.9 19.89-.05 14.6-3.1 24.2-10.24 38.13-5.01 9.77-6.16 11.02-13.75 15.02l-8.41 3.04-74.88.47c-76.42.47-76.64 0-84.09-1.44-15.94-3.08-22.47-6.88-26.63-15.5-2.06-4.27-2.53-12.57-1.03-18.53 3.42-13.66 26.91-50.05 59.77-92.61 6.26-8.1 11.67-15.29 12.04-15.97 1.73-3.24 0-5.38-4.94-6.12-3.45-.5-21 2.23-28.6 4.46-18.58 5.45-25.75 8.22-35.03 13.55-13.96 8.03-25.4 17.9-33.35 28.73-8.47 11.56-11.84 18.83-15.05 32.48-1.9 8.07-1.45 20.67 1.04 29.62-3.03 1.78-2.38 1.06-8.91 1.65z" transform="translate(-98.34 -477.42)"/><path fill="url(#X)" d="M-417.36 373.75c15.43-1.67 44.27-1.82 48.7-.25 4.56 1.62 9.33 6.89 10.86 12 1.02 3.39.89 4.38-1.09 8.25a54.14 54.14 0 0 1-5.1 7.93 605.76 605.76 0 0 0-9.12 11.76c-24.86 24.52-20.18 10.59-16.76-16.72 2.66-4.98 0-8.28-7.61-9.4-9.7-7.52-.44-6.27-19.88-13.57z" opacity=".8" transform="matrix(.61089 0 0 .62338 478.29 -223.57)"/><path fill="url(#Y)" d="M-390.95 435.94a762.16 762.16 0 0 0-23.07 30.25c-11.68 16.3-37.27 54.93-42.37 64-1.55 2.75-4.3 7.08-6.13 9.61a98.36 98.36 0 0 0-6.93 12.25c-3.34 7.03-3.6 8.22-3.26 14.98.47 9.2 3.34 13.98 11.6 19.3 12.4 8 1.12 7.36 132.15 7.36 17.04 7.43 149.99 19.8.6 24.5-117.7.73-118.03 0-129.5-2.21-24.54-4.73-34.6-10.57-41.01-23.82-3.18-6.57-3.9-19.33-1.59-28.5 29.05-98.94 123.36-148.82 109.51-127.72z" transform="matrix(.61089 0 0 .62338 473.99 -218.5)"/><path fill="#505050" d="M218.12 139.5c-3.24-4.54-3.33-9.86-.28-16.79 5.35-12.18 35.66-54.58 58.55-81.89 13.2-15.76 18.53-23.26 18.53-26.09 0-1.24-.8-2.75-2.35-4.48l-4.16-3.75 3.72 1.15c2.3.71 8.9 2.91 10.86 4.2 3.23 2.12 2.68 8-.62 13.75-1.58 2.74-7.82 10.82-13.28 17.17-14.91 17.36-32.54 41.14-48.95 66.02-8.72 13.22-11.5 18.84-10.56 21.3.49 1.27-7.78 10.9-9.34 10.87-.6 0-1.56-.67-2.12-1.46z"/><path fill="url(#Z)" d="M455.53 621.34c-1.4-1.55-4.87-8.82-4.87-10 0-.52 1.4-.53 2-1 1.78-1.44 3.02-4.37 4.78-11.29 4.1-16.18 2.4-32.21-5.12-47.82-9.24-19.23-28.38-35.63-49.74-42.64-3.02-1-3.97-1.35-4.6-2.07-1.1-1.25-.96-1.71.83-5.64 1.34-2.91 1.64-4.45 2.64-4.59.78-.11 4.57 1.4 10.2 4.15 27.56 13.45 45.65 30.44 54.76 51.43 4.76 11 5.8 15.34 6.22 26.12.51 13.35-1.6 23.17-7.5 34.72-4.75 9.32-7.28 11.2-9.6 8.63z" transform="translate(-98.34 -477.42)"/><path fill="url(#aa)" d="M324.62 622.09c-3.36-.42-6.47-2.6-6.47-3.9 0-1.28 8.64-11.25 9.72-11.25.37 0 .56 1.42 1.72 2.01 1.91.98 7.88 1.1 62.62 1.34l60.5.27 2.61 4.73c1.58 2.86 2.91 5.62 2.66 6.27-.4 1-37.22 1.6-97.3 1.51-35.75-.05-34.97-.85-36.06-.98z" transform="translate(-98.34 -477.42)"/><path fill="url(#ab)" d="M324.62 622.09c-3.36-.42-6.47-2.6-6.47-3.9 0-1.28 8.64-11.25 9.72-11.25.37 0 .56 1.42 1.72 2.01 1.91.98 7.88 1.1 62.62 1.34l60.5.27 2.61 4.73c1.58 2.86 2.91 5.62 2.66 6.27-.4 1-37.22 1.6-97.3 1.51-35.75-.05-34.97-.85-36.06-.98z" opacity=".5" transform="translate(-98.34 -477.42)"/><path fill="url(#ac)" d="M324.7 679.42c-62.88-5.48-113.16-42.33-120.63-88.4-4.67-28.8 7.69-56.9 34.93-79.44 9.37-7.76 11.84-9.35 23.9-15.46 22.57-11.43 44.47-16.64 73.18-17.4 15.45-.42 26.65.28 39.33 2.44 11.03 1.89 12.35 2.35 15.46 5.46 2.22 2.22 2.77 3.23 2.77 5.08 0 2.82-3.09 7.12-19.49 27.16-19.47 23.8-31.44 39.9-46.97 63.22-12.88 19.33-14.66 23.64-12.64 30.57 1.49 5.13 6.15 7.5 10.73 8.37 5.94 1.13 12.62.87 57.57.8 23.61-.04 73.7.07 75.25-.05a6.52 6.52 0 0 0 4.56-2.03c4.64-6 6.46-8.51.32 2.4-2.63 4.67-6.63 8.29-11.05 9.2-5.1 1.06-139.57.54-146.96-.57-6.46-.97-10.2-2.4-15.2-5.8-3.14-2.12-4.35-3.46-5.75-6.31-1.57-3.21-1.73-4.1-1.38-7.88.45-4.75 2.42-9.59 6.18-15.13 1.36-2 3.45-5.4 4.66-7.54 1.2-2.15 6.32-10.2 11.37-17.9 13.4-20.4 27.05-39 36.77-50.07 6.1-6.98 14.93-19.05 15.56-21.3 1.23-4.39-2.21-10.31-6.98-12-3.24-1.15-20.5-.9-30.9.44-57.08 7.4-100.16 40.3-107.45 82.1-1.24 7.1-1.24 21.2-.01 28.23 3.4 19.41 15.82 37.42 35.5 51.46 7.17 5.12 22.87 13.16 32.16 16.5 42.16 15.08 95.58 12.68 135.73-6.11 9.65-4.52 13.79-7.33 19.8-13.43l5.29-5.36 9.12-.43c8.7-.42 13.52.03 12.88 1.06-.58.94-12.86 5.75-17.77 7.49-2.77.98-5.35 2.76-9.28 5.23-30.1 18.93-71.91 28.77-110.56 25.4z" transform="translate(-98.34 -477.42)"/><path fill="url(#ad)" d="M325.41 679.3c-62.87-5.48-113.15-42.33-120.62-88.4-4.67-28.8 7.68-56.89 34.92-79.43 9.38-7.76 11.84-9.36 23.91-15.47 22.56-11.42 44.47-16.63 73.17-17.4-9.4 4.6-4.28 8.04-16.78 8.57-57.09 7.39-100.16 40.3-107.45 82.1-1.24 7.1-1.25 21.2-.02 28.23 3.4 19.4 15.83 37.42 35.51 51.46 7.17 5.11 22.86 13.16 32.16 16.49 42.15 15.09 95.57 12.69 135.72-6.11 9.66-4.52 13.8-7.32 19.81-13.42l5.29-5.36 9.11-.44c8.7-.41 13.52.03 12.89 1.07-.59.94-12.86 5.74-17.78 7.48-2.77.99-5.35 2.77-9.28 5.24-30.1 18.92-71.9 28.77-110.56 25.4z" opacity=".3" transform="translate(-98.34 -477.42)"/><path fill="url(#ae)" d="M324.98 679.38c-62.87-5.48-111.67-39.87-119.14-85.94-4.67-28.8 7.68-56.4 34.92-78.94 9.38-7.76 12.15-9.38 23.48-15.98 21.85-12.74 43.42-19.08 72.13-19.85 15.44-.41 26.65.29 39.32 2.45 11.04 1.89 12.36 2.36 15.46 5.46 2.23 2.22 2.78 3.23 2.78 5.08 0 2.82-3.09 7.13-19.49 27.16-19.47 23.8-31.44 39.9-46.97 63.22-12.88 19.33-14.66 23.64-12.64 30.57 1.48 5.13 6.15 7.5 10.73 8.38 5.93 1.13 12.62.86 57.57.79 23.61-.04 73.7.07 75.25-.05a6.52 6.52 0 0 0 4.55-2.03c4.64-6 6.47-8.51.33 2.4-2.63 4.67-6.64 8.29-11.05 9.2-5.11 1.07-139.57.54-146.96-.57-6.46-.97-10.2-2.4-15.2-5.8-3.14-2.12-4.36-3.46-5.76-6.31-1.57-3.21-1.72-4.1-1.37-7.88.44-4.75 2.42-9.59 6.17-15.13 1.36-2 3.46-5.4 4.67-7.54 1.2-2.15 6.32-10.2 11.37-17.9 13.4-20.4 27.05-38.99 36.76-50.07 6.11-6.98 14.93-19.05 15.57-21.3 1.23-4.39-2.22-10.31-6.98-12-3.25-1.15-20.5-.9-30.9.45-57.08 7.38-100.16 40.3-107.45 82.09-1.24 7.1-1.25 21.2-.02 28.23 3.4 19.41 15.83 37.42 35.51 51.46 7.17 5.12 22.87 13.16 32.16 16.5 42.16 15.08 95.57 12.68 135.72-6.11 9.66-4.52 13.8-7.33 19.81-13.43l5.29-5.36 9.11-.43c8.71-.42 13.53.03 12.89 1.06-.58.94-12.86 5.75-17.77 7.49-2.78.98-5.36 2.76-9.28 5.23-30.11 18.93-71.92 28.77-110.57 25.4z" transform="translate(-98.34 -477.42)"/><path fill="url(#af)" d="M324.7 679.42c-62.88-5.48-113.16-42.33-120.63-88.4-4.67-28.8 7.69-56.9 34.93-79.44 9.37-7.76 11.84-9.35 23.9-15.46 22.57-11.43 44.47-16.64 73.18-17.4-.6 6.24-10.5 8.6-16.79 8.56-57.08 7.4-100.16 40.3-107.45 82.1-1.24 7.1-1.24 21.2-.01 28.23 3.4 19.41 15.82 37.42 35.5 51.46 7.17 5.12 22.87 13.16 32.16 16.5 42.16 15.08 95.58 12.68 135.73-6.11 9.65-4.52 13.79-7.33 19.8-13.43l5.29-5.36 9.12-.43c8.7-.42 13.52.03 12.88 1.06-.58.94-12.86 5.75-17.77 7.49-2.77.98-5.35 2.76-9.28 5.23-30.1 18.93-71.91 28.77-110.56 25.4z" opacity=".5" transform="translate(-98.34 -477.42)"/><path fill="url(#ag)" d="M325.41 679.3c-62.87-5.48-113.15-42.33-120.62-88.4-4.67-28.8 7.68-56.89 34.92-79.43 9.38-7.76 11.84-9.36 23.91-15.47 22.56-11.42 44.47-16.63 73.17-17.4-9.4 4.6-4.28 8.04-16.78 8.57-57.09 7.39-100.16 40.3-107.45 82.1-1.24 7.1-1.25 21.2-.02 28.23 3.4 19.4 15.83 37.42 35.51 51.46 7.17 5.11 22.86 13.16 32.16 16.49 42.15 15.09 95.57 12.69 135.72-6.11 9.66-4.52 13.8-7.32 19.81-13.42l5.29-5.36 9.11-.44c8.7-.41 13.52.03 12.89 1.07-.59.94-12.86 5.74-17.78 7.48-2.77.99-5.35 2.77-9.28 5.24-30.1 18.92-71.9 28.77-110.56 25.4z" opacity=".3" transform="translate(-98.34 -477.42)"/><path fill="url(#ah)" d="M331.93 624.88c-5.17-.12-14.77-7.65-14.06-7.05 5.42 4.6 28.17 4.18 72.69 4.08l67.55-.17 1.73-1.65c.94-.9 3.07-4.49 4.72-7.96 9.8-20.6 9.84-41.5.1-61.82-3.95-8.26-8.57-14.79-15.91-22.45-10.64-11.12-20.68-18.67-36.75-25.77-11.4-5.03-11.73-3.91-11.26-7.07 0-.79-.43-1.8-.77-3.03-1.5-5.36-.81-4.18 12.72 2.89 18.18 9.5 27.99 15.96 39.43 27.89 25.27 26.33 31.56 60.31 16.8 90.85-2.82 5.84-6.87 9.82-11.37 11.2-2.01.62-13.8.67-60.88.61-33.81-.03-38.26.1-64.74-.55z" opacity=".3" transform="translate(-98.34 -477.42)"/><path fill="url(#ai)" d="M331.93 623.15c-9-.13-17.12-7.48-16.41-6.89 5.42 4.54 30.52 4.06 75.04 3.95l67.55-.16 1.73-1.63c.94-.9 3.07-4.43 4.72-7.86 9.8-20.34 9.84-40.95.1-61.01-3.95-8.16-8.57-14.6-15.91-22.16-10.64-10.97-20.68-18.43-36.75-25.43-11.4-4.96-11.73-3.86-11.26-6.98 0-.78-.43-1.77-.77-3-1.5-5.28-.11-1.36 13.41 5.61 18.18 9.38 25.9 14.38 37.34 26.15 25.28 25.99 32.96 58.15 18.2 88.29-2.82 5.76-6.87 9.7-11.37 11.06-2.01.6-13.8.66-60.88.6-33.81-.04-38.26-.18-64.74-.54z" transform="translate(-98.34 -477.42)"/><path fill="url(#aj)" d="M464.67 550.31c-3.96-8.26-8.58-14.79-15.92-22.45-10.64-11.12-20.68-18.67-36.75-25.77-11.4-5.03-11.73-3.91-11.26-7.07 0-.79-.43-1.8-.77-3.03-1.5-5.36-1.68-2.44 11.85 4.63 18.17 9.5 28.86 14.22 40.3 26.15 9.76 13.3 3.3 6.2 12.55 27.54z" opacity=".5" transform="translate(-98.34 -477.42)"/><path fill="url(#ak)" d="M435.74 645.92l5.29-5.36 9.11-.44c8.7-.41 13.52.03 12.89 1.07-6.12 6.91-33.19 11.83-27.29 4.73z" opacity=".3" transform="translate(-98.34 -477.42)"/><path fill="url(#al)" d="M324.98 679.24c-62.87-5.49-111.67-39.87-119.14-85.94-4.67-28.8 7.68-56.4 34.92-78.94 9.38-7.76 12.15-9.38 23.48-15.99 21.85-12.73 43.42-19.07 72.13-19.84 15.44-.41 26.65.28 39.32 2.45 11.04 1.89 12.36 2.35 15.46 5.46 2.23 2.22 2.78 3.23 2.78 5.08 0 2.82-3.09 7.12-19.49 27.16-19.47 23.8-31.44 39.9-46.97 63.22-12.88 19.33-14.66 23.64-12.64 30.57 1.48 5.12 6.15 7.5 10.73 8.37 5.93 1.13 12.62.87 57.57.8 23.61-.04 73.7.07 75.25-.05a6.52 6.52 0 0 0 4.55-2.03c4.64-6 6.47-8.52.33 2.4-2.63 4.67-6.64 8.29-11.05 9.2-5.11 1.06-139.57.54-146.96-.57-6.46-.97-10.2-2.4-15.2-5.8-3.14-2.13-4.36-3.46-5.76-6.32-1.57-3.2-1.72-4.1-1.37-7.88.44-4.74 2.42-9.58 6.17-15.12 1.36-2 3.46-5.4 4.67-7.55 1.2-2.14 6.32-10.2 11.37-17.88 13.4-20.41 27.05-39 36.76-50.09 6.11-6.97 14.93-19.04 15.57-21.3 1.23-4.38-2.22-10.3-6.98-11.99-3.25-1.15-20.5-.9-30.9.44-57.08 7.4-100.16 40.3-107.45 82.1-1.24 7.1-1.25 21.2-.02 28.23 3.4 19.4 15.83 37.42 35.51 51.46 7.17 5.11 22.87 13.16 32.16 16.49 42.16 15.1 95.57 12.69 135.72-6.1 9.66-4.53 13.8-7.33 19.81-13.43l5.29-5.36 9.11-.44c8.71-.41 13.53.04 12.89 1.07-.58.94-12.86 5.74-17.77 7.49-2.78.98-5.36 2.76-9.28 5.23-30.11 18.93-71.92 28.77-110.57 25.4z" opacity=".6" transform="translate(-98.34 -477.42)"/></svg>