<svg xmlns="http://www.w3.org/2000/svg" width="100" height="78"><radialGradient id="a" cx="103.14" cy="26.32" r="49.15" gradientTransform="matrix(.774 0 0 .774 -29.77 18.6)" gradientUnits="userSpaceOnUse"><stop offset=".84" stop-color="#60727f"/><stop offset=".87" stop-color="#fff"/><stop offset=".97" stop-color="#fff"/><stop offset=".98" stop-color="#fbfbfc"/><stop offset=".98" stop-color="#eef0f2"/><stop offset=".99" stop-color="#dadee1"/><stop offset="1" stop-color="#bfc7cc"/></radialGradient><path fill="url(#a)" d="M81.87 39.02l-.01.81.19.21s.31 1.2.49 1.52c.25.47.71.65 1.45.65s1.3-.14 2.27-.46c1.03-.33 1.61-1.04 2.08-1.34l.2-.18.02-1.21a38.5 38.5 0 0 0-75.9-9.18c.19.37 1.33.86 2.35 1.2.98.32 1.54.46 2.28.46.46 0 1.05-.23 1.37-.64.32-.4.7-.97.7-.97l.25-.2h.02a31.83 31.83 0 0 1 62.24 9.33z"/><radialGradient id="b" cx="103.14" cy="26.9" r="48.87" gradientTransform="matrix(.774 0 0 .774 -29.77 18.6)" gradientUnits="userSpaceOnUse"><stop offset=".95" stop-color="#fff"/><stop offset=".98" stop-color="#aab4bb"/><stop offset="1" stop-color="#2b4355"/></radialGradient><path fill="url(#b)" d="M85.78 46.91a10.7 10.7 0 0 0-2.9-.65c-.74.01-1.15.26-1.6.87-.13.17-.45.7-.45.7l-.24.14-.02.06a31.83 31.83 0 0 1-62.31-10.07l-.14-.01s-.24-.56-.4-.89c-.2-.38-.56-.85-1.3-.9a10.5 10.5 0 0 0-2.84.44c-1.04.28-1.62.46-2 .88a38.5 38.5 0 0 0 75.97 10.29c-.15-.2-.52-.43-1.77-.86z"/><path fill="#fff" d="M50.05.5a38.52 38.52 0 0 0-37.4 29.33l.14.17c.38.35 1.35.75 2.22 1.04.98.32 1.54.46 2.28.46.46 0 1.05-.23 1.38-.64.31-.4.69-.97.69-.97l.25-.2h.01a31.83 31.83 0 0 1 62.24 10.14l.19.2s.31 1.2.49 1.53c.25.47.71.65 1.45.65s1.3-.14 2.27-.46c1.03-.33 1.61-1.04 2.08-1.34l.2-.18.02-1.23A38.5 38.5 0 0 0 50.06.5z" opacity=".7"/><defs><filter id="c" width="75.9" height="41.7" x="12.65" y=".51" filterUnits="userSpaceOnUse"><feColorMatrix values="1 0 0 0 0 0 1 0 0 0 0 0 1 0 0 0 0 0 1 0"/></filter></defs><mask id="f" width="75.9" height="41.7" x="12.65" y=".51" maskUnits="userSpaceOnUse"><g filter="url(#c)"><linearGradient id="d" x1="68.09" x2="70.36" y1="-.43" y2="42.94" gradientUnits="userSpaceOnUse"><stop offset=".42"/><stop offset=".68" stop-color="#fff"/></linearGradient><path fill="url(#d)" d="M50.05.51h-.01V7.2h.01a31.82 31.82 0 0 1 31.81 32.64l.19.2s.31 1.2.49 1.52c.25.47.71.65 1.45.65s1.3-.14 2.27-.46c1.03-.33 1.61-1.04 2.08-1.34l.2-.18.02-1.21A38.5 38.5 0 0 0 50.06.52z"/></g></mask><radialGradient id="e" cx="103.14" cy="26.32" r="49.15" gradientTransform="matrix(.774 0 0 .774 -29.77 18.6)" gradientUnits="userSpaceOnUse"><stop offset=".84" stop-color="#2b4355"/><stop offset=".87" stop-color="#fff"/><stop offset=".97" stop-color="#fff"/><stop offset=".97" stop-color="#fbfbfc"/><stop offset=".98" stop-color="#eef0f2"/><stop offset=".98" stop-color="#dadee1"/><stop offset=".99" stop-color="#bdc4ca"/><stop offset=".99" stop-color="#97a3ac"/><stop offset=".99" stop-color="#697a87"/><stop offset="1" stop-color="#344b5c"/><stop offset="1" stop-color="#2b4355"/></radialGradient><path fill="url(#e)" d="M81.87 39.02l-.01.81.19.21s.31 1.2.49 1.52c.25.47.71.65 1.45.65s1.3-.14 2.27-.46c1.03-.33 1.61-1.04 2.08-1.34l.2-.18.02-1.21a38.5 38.5 0 0 0-75.9-9.18c.19.37 1.33.86 2.35 1.2.98.32 1.54.46 2.28.46.46 0 1.05-.23 1.37-.64.32-.4.7-.97.7-.97l.25-.2h.02a31.83 31.83 0 0 1 62.24 9.33z" mask="url(#f)"/><linearGradient id="g" x1="76.46" x2="29.38" y1="52.31" y2="5.23" gradientUnits="userSpaceOnUse"><stop offset=".2" stop-color="#95a1aa"/><stop offset=".6" stop-color="#95a1aa" stop-opacity="0"/></linearGradient><path fill="url(#g)" d="M50.05.5a38.52 38.52 0 0 0-37.4 29.33c.19.38 1.34.87 2.36 1.2.98.33 1.54.47 2.28.47.46 0 1.05-.23 1.38-.64.31-.4.69-.97.69-.97l.25-.2h.01a31.83 31.83 0 0 1 62.24 10.14l.19.21s.31 1.2.49 1.52c.25.47.71.65 1.45.65s1.3-.14 2.27-.46c1.03-.33 1.61-1.04 2.08-1.34l.2-.18.02-1.23A38.5 38.5 0 0 0 50.06.5z"/><defs><filter id="h" width="75.9" height="41.7" x="12.65" y=".51" filterUnits="userSpaceOnUse"><feColorMatrix values="1 0 0 0 0 0 1 0 0 0 0 0 1 0 0 0 0 0 1 0"/></filter></defs><mask id="k" width="75.9" height="41.7" x="12.65" y=".51" maskUnits="userSpaceOnUse"><g filter="url(#h)"><linearGradient id="i" x1="58.06" x2="82.23" y1="-3.58" y2="43.86" gradientUnits="userSpaceOnUse"><stop offset=".34"/><stop offset=".66" stop-color="#6f6c72"/><stop offset=".82" stop-color="#fff"/></linearGradient><path fill="url(#i)" d="M50.05.51h-.01V7.2h.01a31.82 31.82 0 0 1 31.81 32.64l.19.2s.31 1.2.49 1.52c.25.47.71.65 1.45.65s1.3-.14 2.27-.46c1.03-.33 1.61-1.04 2.08-1.34l.2-.18.02-1.21A38.5 38.5 0 0 0 50.06.52z"/></g></mask><radialGradient id="j" cx="103.14" cy="26.32" r="49.15" gradientTransform="matrix(.774 0 0 .774 -29.77 18.6)" gradientUnits="userSpaceOnUse"><stop offset=".84" stop-color="#60727f"/><stop offset=".87" stop-color="#60727f" stop-opacity="0"/><stop offset=".97" stop-color="#60727f" stop-opacity="0"/><stop offset="1" stop-color="#60727f"/></radialGradient><path fill="url(#j)" d="M81.87 39.02l-.01.81.19.21s.31 1.2.49 1.52c.25.47.71.65 1.45.65s1.3-.14 2.27-.46c1.03-.33 1.61-1.04 2.08-1.34l.2-.18.02-1.21a38.5 38.5 0 0 0-75.9-9.18c.19.37 1.33.86 2.35 1.2.98.32 1.54.46 2.28.46.46 0 1.05-.23 1.37-.64.32-.4.7-.97.7-.97l.25-.2h.02a31.83 31.83 0 0 1 62.24 9.33z" mask="url(#k)" opacity=".2"/><linearGradient id="l" x1="26.49" x2="65.2" y1="75.44" y2="25.12" gradientUnits="userSpaceOnUse"><stop offset=".01" stop-color="#95a1aa"/><stop offset=".04" stop-color="#abb4bb" stop-opacity=".91"/><stop offset=".09" stop-color="#c9cfd4" stop-opacity=".76"/><stop offset=".14" stop-color="#e1e4e7" stop-opacity=".59"/><stop offset=".2" stop-color="#f2f3f4" stop-opacity=".42"/><stop offset=".27" stop-color="#fcfcfc" stop-opacity=".23"/><stop offset=".34" stop-color="#fff" stop-opacity="0"/></linearGradient><path fill="url(#l)" d="M85.78 46.91a10.7 10.7 0 0 0-2.9-.65c-.74.01-1.15.26-1.6.87-.13.17-.45.7-.45.7l-.27.16v.04a31.83 31.83 0 0 1-62.3-10.07h-.12l-.02-.01s-.24-.56-.4-.89c-.2-.38-.56-.85-1.3-.9a10.5 10.5 0 0 0-2.84.45c-1.04.28-1.62.46-2 .87a38.5 38.5 0 0 0 75.97 10.29h.01c-.16-.2-.52-.43-1.78-.86z"/><path fill="#eaecee" d="M4.5 34.99l1.77-3.1h.02l-1.16-1.87a.95.95 0 0 0-.33.19s-.82.77-2.38 2.88a26.2 26.2 0 0 0-2.16 3.29c-.04.09-.04.17 0 .23l.17-.11 4.08-1.51H4.5z"/><path d="M64.19 31.9l-12.13 9.25 8.8-2.55h-.04l12.35-9.78c.07-.05.1-.1.08-.14l-9.08 3.22h.02z"/><path fill="#4b5f6e" d="M95.35 43.05l-1.63 2.65 1.35 1.76a.39.39 0 0 0 .21-.12c.44-.54 1.96-2.43 2.55-3.26.54-.74 1.54-2.25 1.96-2.89.06-.08.06-.16.02-.21l-4.46 2.08z"/><linearGradient id="m" x1="37.54" x2="37.54" y1="48.84" y2="36.82" gradientUnits="userSpaceOnUse"><stop offset="0" stop-color="#bfc7cc"/><stop offset=".73" stop-color="#405666"/></linearGradient><path fill="url(#m)" d="M35.92 45.71l11.63-8.89h-.01l-8.38 2.63c-.22.16-11.26 8.94-11.53 9.17-.1.1-.12.17-.1.22l8.4-3.13h-.01z"/><linearGradient id="n" x1="73.17" x2="78.85" y1="33.47" y2="49.06" gradientUnits="userSpaceOnUse"><stop offset="0" stop-color="#2b4355"/><stop offset="0" stop-color="#2e4557"/><stop offset=".1" stop-color="#697a86"/><stop offset=".19" stop-color="#97a3ac"/><stop offset=".28" stop-color="#b9c1c7"/><stop offset=".34" stop-color="#cdd3d7"/><stop offset=".39" stop-color="#d5d9dd"/><stop offset=".73" stop-color="#405666"/><stop offset=".75" stop-color="#586b79"/><stop offset=".82" stop-color="#939fa8"/><stop offset=".88" stop-color="#c2c9ce"/><stop offset=".93" stop-color="#e3e6e9"/><stop offset=".97" stop-color="#f8f8f9"/><stop offset="1" stop-color="#fff"/></linearGradient><path fill="url(#n)" d="M88.54 40.23l-.2.18c-.46.3-1.05 1-2.08 1.34-.97.32-1.54.47-2.27.47s-1.2-.18-1.45-.65c-.18-.33-.5-1.53-.5-1.53l-.18-.2-21-1.24-8.8 2.55 43.29 1.9 4.47-2.07c-.04-.06-.14-.1-.3-.1l-10.98-.65z"/><linearGradient id="o" x1="5.13" x2="73.25" y1="30.26" y2="30.26" gradientUnits="userSpaceOnUse"><stop offset="0" stop-color="#cad0d4"/><stop offset=".05" stop-color="#a0abb3"/><stop offset=".09" stop-color="#808e99"/><stop offset=".17" stop-color="#2b4355"/><stop offset=".3" stop-color="#586b79"/><stop offset=".48" stop-color="#939fa8"/><stop offset=".65" stop-color="#c2c9ce"/><stop offset=".8" stop-color="#e3e6e9"/><stop offset=".92" stop-color="#f8f8f9"/><stop offset="1" stop-color="#fff"/></linearGradient><path fill="url(#o)" d="M73.1 28.63l-53.5 1.05-.25.2s-.38.57-.7.97c-.32.42-.9.64-1.37.64-.74 0-1.3-.14-2.28-.46-1.02-.33-2.17-.83-2.36-1.2v-.01l-7.28.15a.81.81 0 0 0-.24.04l1.16 1.87h57.88l9.08-3.21c-.01-.04-.06-.06-.15-.05z"/><linearGradient id="p" x1=".26" x2="47.54" y1="37.22" y2="37.22" gradientUnits="userSpaceOnUse"><stop offset="0" stop-color="#405666"/><stop offset=".03" stop-color="#384b5a"/><stop offset=".11" stop-color="#27343e"/><stop offset=".2" stop-color="#192127"/><stop offset=".3" stop-color="#0e1215"/><stop offset=".43" stop-color="#060809"/><stop offset=".59" stop-color="#010202"/><stop offset="1"/></linearGradient><path fill="url(#p)" d="M47.54 36.82L4.51 35 .42 36.5l-.16.12c.04.05.1.08.18.08l11.14.8c.38-.43.96-.6 2-.89.99-.27 2.11-.47 2.85-.43.73.04 1.08.51 1.28.89.17.33.41.89.41.89l21.06 1.49-.02.01 8.38-2.63z"/><linearGradient id="q" x1="27.53" x2="95.07" y1="47.33" y2="47.33" gradientUnits="userSpaceOnUse"><stop offset="0"/><stop offset=".67"/><stop offset=".79"/><stop offset="1" stop-color="#364c5d"/></linearGradient><path fill="url(#q)" d="M93.72 45.7l-57.79.01-8.4 3.13c.04.09.2.11.29.11l52.71-.94.3-.18s.32-.53.45-.7c.45-.61.86-.86 1.6-.87.73-.01 1.95.33 2.9.65 1.28.44 1.63.68 1.79.87l7.35-.3a.6.6 0 0 0 .15-.02l-1.35-1.76z"/><linearGradient id="r" x1="66.55" x2="66.55" y1="42.01" y2="5.95" gradientUnits="userSpaceOnUse"><stop offset=".25" stop-color="#172735"/><stop offset=".55" stop-color="#172735" stop-opacity="0"/></linearGradient><path fill="url(#r)" d="M81.85 39l-.01.83.18.21s.32 1.2.5 1.52c.1.2.25.34.43.45A33.05 33.05 0 0 0 50.03 5.95v1.23A31.82 31.82 0 0 1 81.85 39z"/><linearGradient id="s" x1="36.15" x2="31.09" y1="24.73" y2="10.83" gradientUnits="userSpaceOnUse"><stop offset=".26" stop-color="#253b4c"/><stop offset=".74" stop-color="#253b4c" stop-opacity="0"/></linearGradient><path fill="url(#s)" d="M18.64 30.86c.32-.4.7-.97.7-.97l.25-.2a31.83 31.83 0 0 1 30.44-22.5V5.94C34.4 5.95 21 17.77 17.86 31.39c.3-.1.59-.28.78-.53z"/><linearGradient id="t" x1="17" x2="66.99" y1="54.22" y2="54.22" gradientUnits="userSpaceOnUse"><stop offset="0" stop-color="#0d0d0d"/><stop offset=".06" stop-color="#2b4355"/><stop offset=".07" stop-color="#384e5f"/><stop offset=".11" stop-color="#5c6f7d"/><stop offset=".14" stop-color="#6b7b88"/><stop offset=".76" stop-color="#6b7b88" stop-opacity="0"/></linearGradient><path fill="url(#t)" d="M50.05 70.82a31.82 31.82 0 0 1-31.8-32.86h-.1v-.01h-.03s-.24-.56-.4-.89c-.13-.22-.3-.48-.57-.66l-.01.12c-.08.9-.14 1.64-.14 2.48a33.05 33.05 0 0 0 33.05 33.05h.01c6.2 0 11.99-1.66 16.93-4.58v-1.61a31.69 31.69 0 0 1-16.94 4.96z"/><linearGradient id="u" x1="77.29" x2="60.52" y1="47.67" y2="68.31" gradientUnits="userSpaceOnUse"><stop offset="0" stop-color="#2b4355"/><stop offset=".04" stop-color="#32495a"/><stop offset=".1" stop-color="#445969"/><stop offset=".17" stop-color="#627481"/><stop offset=".18" stop-color="#6b7b88"/><stop offset=".52" stop-color="#6b7b88" stop-opacity="0"/></linearGradient><path fill="url(#u)" d="M81.28 47.13c-.13.17-.45.7-.45.7l-.3.18h-.08l-.01.02a31.83 31.83 0 0 1-30.39 22.79v1.23A32.77 32.77 0 0 0 82.3 46.38v-.02l.01-.03c-.4.12-.7.37-1.02.8z"/><linearGradient id="v" x1="50.47" x2="50.47" y1="42.21" y2="4.78" gradientUnits="userSpaceOnUse"><stop offset=".4" stop-color="#fff"/><stop offset=".73" stop-color="#fff" stop-opacity="0"/></linearGradient><path fill="url(#v)" d="M50.05 4.78a34.23 34.23 0 0 0-33.38 26.68c.2.03.4.04.62.04.19 0 .4-.04.6-.11a33.06 33.06 0 0 1 65.08 10.62c.26.14.6.2 1.02.2h.14A34.22 34.22 0 0 0 50.05 4.78z"/><linearGradient id="w" x1="49.69" x2="49.69" y1="73.41" y2="36.16" gradientUnits="userSpaceOnUse"><stop offset="0" stop-color="#fff" stop-opacity="0"/><stop offset=".46" stop-color="#fff"/></linearGradient><path fill="url(#w)" d="M82.87 46.26c-.22 0-.4.03-.57.08v.03a32.77 32.77 0 0 1-32.25 25.68A33.05 33.05 0 0 1 17 39c0-.84.06-1.58.14-2.48v-.12a1.4 1.4 0 0 0-.71-.23H16l-.01.09a31.7 31.7 0 0 0-.15 2.74c0 18.9 15.32 34.41 34.21 34.41a34.16 34.16 0 0 0 33.49-27.08v-.01a4.12 4.12 0 0 0-.67-.06z"/><linearGradient id="x" x1="84.64" x2="93.21" y1="40.9" y2="41.8" gradientUnits="userSpaceOnUse"><stop offset=".19" stop-color="#0c1824"/><stop offset=".86" stop-color="#0c1824" stop-opacity=".03"/></linearGradient><path fill="url(#x)" d="M88.54 40.23l-.2.18c-.46.3-1.05 1-2.08 1.34-.73.24-1.24.39-1.76.44.4.07 7.34-1.37 8.84-1.68l-4.8-.28z"/><linearGradient id="y" x1="18.33" x2="28.21" y1="30.5" y2="30.5" gradientUnits="userSpaceOnUse"><stop offset=".04" stop-color="#0c1824"/><stop offset=".17" stop-color="#0c1824" stop-opacity=".86"/><stop offset="1" stop-color="#0c1824" stop-opacity="0"/></linearGradient><path fill="url(#y)" d="M18.67 30.86a1.9 1.9 0 0 1-1 .6l9.87-1.93-7.93.16-.25.2s-.38.57-.7.97z"/><linearGradient id="z" x1="17.56" x2="17.64" y1="31.47" y2="31.47" gradientUnits="userSpaceOnUse"><stop offset=".04" stop-color="#0c1824"/><stop offset=".17" stop-color="#0c1824" stop-opacity=".86"/><stop offset="1" stop-color="#0c1824" stop-opacity="0"/></linearGradient><path fill="url(#z)" d="M17.55 31.48l.09-.02-.09.02z"/><linearGradient id="A" x1="81.47" x2="81.47" y1="42.21" y2="15.14" gradientUnits="userSpaceOnUse"><stop offset=".37"/><stop offset="1" stop-opacity="0"/></linearGradient><path fill="url(#A)" d="M84.13 42.21a7.15 7.15 0 0 0 2.14-.46c1.02-.33 1.6-1.03 2.07-1.34v-.19c.02-.47.02-.86.02-1.22 0-3.11-.37-6.14-1.08-9.04-.91-1.58-2.55-2.3-3.96-3.5-1.66-1.42-4.95-8.66-8.74-11.32a34.06 34.06 0 0 1 9.55 27.07z"/><linearGradient id="B" x1="14.28" x2="23.99" y1="30.91" y2="14.09" gradientUnits="userSpaceOnUse"><stop offset=".12"/><stop offset=".19" stop-color="#040404"/><stop offset=".27" stop-color="#121212"/><stop offset=".35" stop-color="#282828"/><stop offset=".43" stop-color="#464646"/><stop offset=".51" stop-color="#6e6e6e"/><stop offset=".6" stop-color="#9e9e9e"/><stop offset=".68" stop-color="#d7d7d7"/><stop offset=".73" stop-color="#fff"/></linearGradient><path fill="url(#B)" d="M15.01 31.04a9 9 0 0 0 1.66.42 34 34 0 0 1 3.72-9.51 37.23 37.23 0 0 1 5.24-6.91c-1.24.1-5.82 7.26-7.15 8.38-1.32 1.11-4.51 2.93-5.02 4.25l-.03.05c-.21.7-.41 1.43-.59 2.16l-.03.14c.38.34 1.34.74 2.2 1.02z"/><path d="M85.78 46.91c-.7-.24-1.54-.48-2.23-.6l-.01.02a34.19 34.19 0 0 1-33.49 26.89c-18.37 0-34.21-15.08-34.21-34.22 0-1.02.05-1.75.15-2.74v-.09c-.7.04-1.6.21-2.41.43-.88.24-1.42.4-1.8.7v.2a38.09 38.09 0 0 0 3.33 17.2c7.71 9.43 19.7 19.77 34.94 19.77 16.05 0 32.78-11.94 37.34-26.86a6.4 6.4 0 0 0-1.61-.7z"/><path fill="#fff" d="M64.19 31.9l-12.13 9.25 43.3 1.9-1.64 2.65-57.8.01 11.63-8.89L4.5 35l1.77-3.1z"/><linearGradient id="C" x1="51.46" x2="47.55" y1="44.97" y2="30.03" gradientUnits="userSpaceOnUse"><stop offset="0" stop-color="#aab4bb"/><stop offset=".55" stop-color="#fff"/></linearGradient><path fill="url(#C)" d="M49.3 36.27L5.53 34.41l1.09-1.9h55.72L50.33 41.7l43.94 1.93-.9 1.45-55.62.01z"/><path fill="#2b4355" d="M50.05 77.7a38.74 38.74 0 0 1-38.67-40.03L.43 36.89a.42.42 0 0 1-.35-.2.42.42 0 0 1 0-.4c.03-.05.63-1.22 2.18-3.31 1.55-2.1 2.37-2.88 2.4-2.91.17-.16.47-.29.7-.3l7.14-.13A38.9 38.9 0 0 1 25.99 8.7 38.2 38.2 0 0 1 50.05.3a38.74 38.74 0 0 1 38.68 39.74l10.8.64c.24 0 .4.08.47.22a.4.4 0 0 1-.05.4c-.63.95-1.48 2.23-1.96 2.9-.6.83-2.1 2.7-2.56 3.26a.68.68 0 0 1-.51.22l-7.21.28a38.86 38.86 0 0 1-13.43 21.22 38.79 38.79 0 0 1-24.23 8.52zM.42 36.5h.03l11.33.8v.2a38.35 38.35 0 0 0 38.28 39.82 38.13 38.13 0 0 0 37.3-29.6l.04-.14h.14l7.37-.29c.1 0 .18-.03.22-.08.32-.4 1.94-2.4 2.54-3.24.48-.67 1.33-1.94 1.96-2.88a7644.46 7644.46 0 0 1-11.1-.66l-.2-.02.01-.19c.02-.47.02-.86.02-1.22A38.35 38.35 0 0 0 50.06.69a38.2 38.2 0 0 0-37.22 29.18l-.04.15-7.43.15a.8.8 0 0 0-.44.18s-.83.79-2.36 2.85C1.04 35.27.44 36.45.43 36.46v.04zM50.05 71a32.05 32.05 0 0 1-31.99-33.06v-.2l21.68 1.53-11.96 9.47h.04c.24 0 45.15-.63 52.74-.91l.27-.01-.08.26a32.26 32.26 0 0 1-11.37 16.43A31.74 31.74 0 0 1 50.05 71zm-31.6-32.85c-.02.32-.02.59-.02.84a31.66 31.66 0 0 0 31.62 31.62A31.8 31.8 0 0 0 80.3 48.24c-7.55.28-52.24.9-52.48.9-.13 0-.4-.05-.47-.25-.03-.08-.05-.24.15-.41.7-.6 10.19-8.24 11.12-8.89l-20.18-1.43zm63.6 1.88L60.3 38.76l12.55-9.94-53.5 1.07.08-.26a32.28 32.28 0 0 1 11.4-16.23 31.73 31.73 0 0 1 19.21-6.41 32.05 32.05 0 0 1 32 32.85v.2zm-20.7-1.6l20.32 1.19V39A31.66 31.66 0 0 0 50.06 7.38c-13.9 0-26 8.87-30.16 22.11l53.22-1.06c.23 0 .3.12.33.19.02.07.04.2-.15.36l-11.94 9.45z"/><defs><filter id="D" width="100" height="77.4" x=".04" y=".3" filterUnits="userSpaceOnUse"><feColorMatrix color-interpolation-filters="sRGB" result="source" values="-1 0 0 0 1 0 -1 0 0 1 0 0 -1 0 1 0 0 0 1 0"/></filter></defs><mask id="F" width="100" height="77.4" x=".04" y=".3" maskUnits="userSpaceOnUse"><g filter="url(#D)"><linearGradient id="E" x1="50.04" x2="50.04" y1="77.7" y2=".3" gradientUnits="userSpaceOnUse"><stop offset="0" stop-color="#fff"/><stop offset=".08" stop-color="#fbfbfb"/><stop offset=".16" stop-color="#eee"/><stop offset=".24" stop-color="#dadada"/><stop offset=".32" stop-color="#bdbdbd"/><stop offset=".41" stop-color="#979797"/><stop offset=".49" stop-color="#6a6a6a"/><stop offset=".5" stop-color="#666"/><stop offset=".5" stop-color="#6a6a6a"/><stop offset=".59" stop-color="#979797"/><stop offset=".67" stop-color="#bdbdbd"/><stop offset=".76" stop-color="#dadada"/><stop offset=".84" stop-color="#eee"/><stop offset=".92" stop-color="#fbfbfb"/><stop offset="1" stop-color="#fff"/></linearGradient><path fill="url(#E)" d="M50.05 77.7a38.74 38.74 0 0 1-38.67-40.03L.43 36.89a.42.42 0 0 1-.35-.2.42.42 0 0 1 0-.4c.03-.05.63-1.22 2.18-3.31 1.55-2.1 2.37-2.88 2.4-2.91.17-.16.47-.29.7-.29l7.14-.14A38.9 38.9 0 0 1 25.99 8.7 38.2 38.2 0 0 1 50.05.3a38.74 38.74 0 0 1 38.68 39.74l10.8.64c.24 0 .4.08.47.23.03.06.07.2-.05.4-.63.94-1.48 2.22-1.96 2.89-.6.83-2.1 2.7-2.56 3.26a.68.68 0 0 1-.51.22l-7.21.28a38.86 38.86 0 0 1-13.43 21.22 38.8 38.8 0 0 1-24.23 8.52zM.42 36.5h.03l11.33.8v.2c-.02.55-.04 1.04-.04 1.5a38.35 38.35 0 0 0 38.31 38.3 38.13 38.13 0 0 0 37.31-29.58l.04-.14h.14l7.37-.29c.1 0 .18-.03.22-.08.32-.4 1.94-2.4 2.54-3.24.48-.67 1.33-1.94 1.96-2.88a7554.45 7554.45 0 0 1-11.1-.66l-.2-.02.01-.19c.02-.47.02-.86.02-1.22A38.36 38.36 0 0 0 50.06.69a38.2 38.2 0 0 0-37.22 29.18l-.04.15-7.43.15a.8.8 0 0 0-.44.18s-.83.79-2.36 2.85C1.04 35.27.44 36.45.43 36.46a.1.1 0 0 0 0 .04zM50.05 71a32.05 32.05 0 0 1-31.99-33.06v-.2l21.68 1.53-11.96 9.47h.04c.24 0 45.15-.63 52.74-.91l.27-.01-.08.26a32.26 32.26 0 0 1-11.37 16.43A31.74 31.74 0 0 1 50.05 71zm-31.6-32.85c-.02.32-.02.59-.02.84a31.66 31.66 0 0 0 31.62 31.62A31.8 31.8 0 0 0 80.3 48.24c-7.55.28-52.24.9-52.48.9-.13 0-.4-.05-.47-.25-.03-.08-.05-.24.15-.41.7-.6 10.19-8.24 11.12-8.89l-20.18-1.43zm63.6 1.88L60.3 38.76l12.55-9.94-53.5 1.07.08-.26a32.28 32.28 0 0 1 11.4-16.23 31.73 31.73 0 0 1 19.21-6.41 32.05 32.05 0 0 1 32 32.85v.2zm-20.7-1.6l20.32 1.19V39A31.66 31.66 0 0 0 50.05 7.38c-13.9 0-26 8.87-30.16 22.11l53.22-1.06c.23 0 .3.12.33.19.02.07.04.2-.15.36l-11.94 9.45z"/></g></mask><path fill="#fff" d="M50.05 77.7a38.74 38.74 0 0 1-38.67-40.03L.43 36.89a.42.42 0 0 1-.35-.2.42.42 0 0 1 0-.4c.03-.05.63-1.22 2.18-3.31 1.55-2.1 2.37-2.88 2.4-2.91.17-.16.47-.29.7-.29l7.14-.14A38.9 38.9 0 0 1 25.99 8.7 38.2 38.2 0 0 1 50.05.3a38.74 38.74 0 0 1 38.68 39.74l10.8.64c.24 0 .4.08.47.23.03.06.07.2-.05.4-.63.94-1.48 2.22-1.96 2.89-.6.83-2.1 2.7-2.56 3.26a.68.68 0 0 1-.51.22l-7.21.28a38.86 38.86 0 0 1-13.43 21.22 38.8 38.8 0 0 1-24.23 8.52zM.42 36.5h.03l11.33.8v.2c-.02.55-.04 1.04-.04 1.5a38.35 38.35 0 0 0 38.31 38.3 38.13 38.13 0 0 0 37.31-29.58l.04-.14h.14l7.37-.29c.1 0 .18-.03.22-.08.32-.4 1.94-2.4 2.54-3.24.48-.67 1.33-1.94 1.96-2.88a7554.45 7554.45 0 0 1-11.1-.66l-.2-.02.01-.19c.02-.47.02-.86.02-1.22A38.36 38.36 0 0 0 50.06.69a38.2 38.2 0 0 0-37.22 29.18l-.04.15-7.43.15a.8.8 0 0 0-.44.18s-.83.79-2.36 2.85C1.04 35.27.44 36.45.43 36.46a.1.1 0 0 0 0 .04zM50.05 71a32.05 32.05 0 0 1-31.99-33.06v-.2l21.68 1.53-11.96 9.47h.04c.24 0 45.15-.63 52.74-.91l.27-.01-.08.26a32.26 32.26 0 0 1-11.37 16.43A31.74 31.74 0 0 1 50.05 71zm-31.6-32.85c-.02.32-.02.59-.02.84a31.66 31.66 0 0 0 31.62 31.62A31.8 31.8 0 0 0 80.3 48.24c-7.55.28-52.24.9-52.48.9-.13 0-.4-.05-.47-.25-.03-.08-.05-.24.15-.41.7-.6 10.19-8.24 11.12-8.89l-20.18-1.43zm63.6 1.88L60.3 38.76l12.55-9.94-53.5 1.07.08-.26a32.28 32.28 0 0 1 11.4-16.23 31.73 31.73 0 0 1 19.21-6.41 32.05 32.05 0 0 1 32 32.85v.2zm-20.7-1.6l20.32 1.19V39A31.66 31.66 0 0 0 50.05 7.38c-13.9 0-26 8.87-30.16 22.11l53.22-1.06c.23 0 .3.12.33.19.02.07.04.2-.15.36l-11.94 9.45z" mask="url(#F)" opacity=".5"/><path d="M58.09 3.44l-.26.92 2.12.56-.53.45c-.04.05-.07.05-.13.03l-1.63-.44-.28.98 2.81.75-.55.47c-.06.05-.09.08-.16.06l-3.44-.91c-.09-.03-.12-.08-.09-.16l1.1-3.58c.03-.08.08-.11.16-.1l3.71 1-.56.5c-.05.05-.07.06-.14.04l-2.13-.57zM30.5 9.62c-.6-.94-1.06-.94-1.8-.41-.73.51-.9.96-.3 1.88.62.96 1.07.96 1.8.44.74-.53.91-.96.3-1.91m1.08-.77c.83 1.29.5 2.21-1 3.27s-2.43 1.03-3.26-.26c-.83-1.3-.52-2.21.99-3.28 1.5-1.07 2.43-1.03 3.27.27m41.07 4.69l-.69.23c-.05.02-.1.05-.17 0l-2.6-1.94c-.08-.05-.1-.1-.04-.18l1.96-2.9c.15-.21.3-.24.5-.09l.67.5c.07.05.08.11.03.18l-1.78 2.62 2.12 1.58zM44.79 3.51c-.12-.52-.42-.59-.85-.5l-1.2.25.25 1.31 1.24-.26c.43-.09.68-.27.56-.8m1.2-.25c.27 1.04-.4 1.49-1.05 1.62l-1.82.39.17.87c.05.25-.04.39-.3.44l-.8.17c-.1.02-.14-.02-.15-.1l-.67-3.69c-.01-.08.02-.13.1-.15l2.86-.6c.63-.13 1.4.01 1.67 1.05"/></svg>