<svg xmlns="http://www.w3.org/2000/svg" viewBox="0 0 100 99.82"><path fill="#e9620b" d="M50.2 99.8c-7.94-.1-15.87-.16-23.71-1.83A30.77 30.77 0 012.12 73.2 126.43 126.43 0 012.14 27C4.73 13.36 13.38 5 26.87 2 38.85-.63 51-.14 63.17.52 70.09.9 76.8 2.21 83 5.6c8.17 4.5 12.89 11.59 14.94 20.51 2.69 11.74 2.22 23.68 1.73 35.59a55 55 0 01-2.9 16.19 29.36 29.36 0 01-18.49 18.65c-7.21 2.65-14.73 3-22.29 3.26-1.93.05-3.86 0-5.79 0z"/><g fill="#fff"><path d="M80.18 31.2h-8.34a.65.65 0 00-.65.64V70a.66.66 0 00.65.65h8.34a.65.65 0 00.64-.65V31.84a.64.64 0 00-.64-.64m-28.53 0H19.82a.64.64 0 00-.64.64V70a.65.65 0 00.64.65h8.34a.66.66 0 00.65-.65V40.09a.66.66 0 01.65-.65h18a6.1 6.1 0 016.51 6.36V70a.66.66 0 00.65.65h8.34a.65.65 0 00.64-.65V42.92a10.73 10.73 0 00-3.12-8.25 11.14 11.14 0 00-8.8-3.47"/><path d="M45.8 46.38H37a.65.65 0 00-.64.64V70a.64.64 0 00.64.64h8.8a.65.65 0 00.65-.64V47a.66.66 0 00-.65-.64"/></g></svg>