<svg xmlns="http://www.w3.org/2000/svg" width="341" height="228"><path fill="#FFF" d="M78 10h254l-66 211H8z"/><path fill="red" fill-rule="nonzero" d="M79.95.08c-5.2 0-10.66 3.99-12.25 8.94L.48 218.98c-1.58 4.96 1.3 8.94 6.5 8.94h254.1c5.2 0 10.63-3.98 12.22-8.94L340.52 9.02c1.58-4.95-1.3-8.94-6.5-8.94H79.95zm85.53 16.47c7.41 0 14.18.36 18.94 1.31 16.8 2.18 28.77 10.76 31.1 19.66 1.25 6.4 0 12.84 0 12.84-11.94 47.3-108.23 36.66-111.1 51.06h90.72l-10.72 38.22 51.78-38.22h57.5l-61.78 42.5 31.44 67.5h-57.84l-16.82-41.06-17.84 12.5-9.28 28.56h-45l26.78-81.78H47.3s13.82-44.64 55-56.6c36.13-10.46 59.62-7.5 65.72-19.46v-4.66c0-1.4-3.5-5-17.88-5-25.23 0-28.22 15.38-28.22 15.38H73.36c11.91-25.9 32.5-37.22 56.06-41.07 9.6-.73 23.72-1.7 36.06-1.68z"/></svg>