<?xml version="1.0" encoding="UTF-8" standalone="no"?>
<!-- Created with Inkscape (http://www.inkscape.org/) -->

<svg
   xmlns:dc="http://purl.org/dc/elements/1.1/"
   xmlns:cc="http://creativecommons.org/ns#"
   xmlns:rdf="http://www.w3.org/1999/02/22-rdf-syntax-ns#"
   xmlns:svg="http://www.w3.org/2000/svg"
   xmlns="http://www.w3.org/2000/svg"
   xmlns:sodipodi="http://sodipodi.sourceforge.net/DTD/sodipodi-0.dtd"
   xmlns:inkscape="http://www.inkscape.org/namespaces/inkscape"
   version="1.1"
   width="317"
   height="257.37692"
   id="svg20956"
   inkscape:version="0.91 r13725"
   sodipodi:docname="Bandai Namco Entertainment.svg">
  <sodipodi:namedview
     pagecolor="#ffffff"
     bordercolor="#666666"
     borderopacity="1"
     objecttolerance="10"
     gridtolerance="10"
     guidetolerance="10"
     inkscape:pageopacity="0"
     inkscape:pageshadow="2"
     inkscape:window-width="1366"
     inkscape:window-height="705"
     id="namedview3359"
     showgrid="false"
     inkscape:zoom="2.5971896"
     inkscape:cx="165.15117"
     inkscape:cy="36.752291"
     inkscape:window-x="-8"
     inkscape:window-y="-8"
     inkscape:window-maximized="1"
     inkscape:current-layer="svg20956" />
  <defs
     id="defs20958" />
  <metadata
     id="metadata20961">
    <rdf:RDF>
      <cc:Work
         rdf:about="">
        <dc:format>image/svg+xml</dc:format>
        <dc:type
           rdf:resource="http://purl.org/dc/dcmitype/StillImage" />
        <dc:title></dc:title>
      </cc:Work>
    </rdf:RDF>
  </metadata>
  <g
     transform="translate(-512.03723,-513.57368)"
     id="layer1">
    <g
       transform="matrix(3.0583853,0,0,3.0583853,418.64066,264.44757)"
       id="g20907">
      <path
         d="m 130.20972,121.8797 c 1.67303,-5.4419 -0.58184,-10.73397 -4.758,-15.40953 -0.3804,-0.42958 -0.80636,-0.9082 -1.26503,-1.42196 -0.10585,0.40172 -0.22068,0.81008 -0.35411,1.22441 -0.56837,1.91318 -0.977,3.72095 -0.94557,5.29273 0.0917,4.73722 2.30298,8.81483 4.65664,12.96403 0.26494,0.46603 0.51705,0.93803 0.7621,1.41069 0.084,-0.17435 0.16807,-0.34604 0.25275,-0.51708 0.49075,-1.04078 1.33368,-2.51975 1.65122,-3.54329"
         id="path9469"
         style="fill:#fabe00;fill-opacity:1;fill-rule:nonzero;stroke:none"
         inkscape:connector-curvature="0" />
      <path
         d="m 78.143767,142.32542 c -6.282837,-1.05669 -15.802677,-1.92247 -23.542999,-3.70837 -1.632614,-0.37852 -3.161305,-0.81207 -4.548867,-1.3139 1.43375,1.41533 3.12025,3.01827 4.08378,3.75543 5.121084,3.89796 11.28332,7.26094 19.43356,8.38592 9.776439,1.35301 21.820575,1.33047 30.646959,-1.75873 0.59916,-0.2108 1.18869,-0.43222 1.76091,-0.6722 -0.92055,-0.0583 -1.84559,-0.12926 -2.77897,-0.2234 -9.333807,-0.92543 -19.071115,-3.45778 -25.054373,-4.46475"
         id="path9471"
         style="fill:#fabe00;fill-opacity:1;fill-rule:nonzero;stroke:none"
         inkscape:connector-curvature="0" />
      <path
         d="m 116.92492,97.352389 c 2.68532,2.590021 5.29943,5.488301 7.26177,7.695821 1.31058,-5.01564 0.66459,-9.230476 -2.03804,-12.950773 -3.58341,-4.928133 -11.18004,-6.047139 -17.8914,-4.794223 -0.068,0.0179 -0.18218,0.03712 -0.33165,0.0716 0.45931,0.263841 0.91157,0.539615 1.35228,0.822681 3.75982,2.308944 8.10405,5.744849 11.64704,9.154899"
         id="path9473"
         style="fill:#e60012;fill-opacity:1;fill-rule:nonzero;stroke:none"
         inkscape:connector-curvature="0" />
      <path
         d="m 107.95421,146.05301 c -0.62354,0.36593 -1.28877,0.67617 -1.9771,0.96056 1.19896,0.0782 2.3883,0.1253 3.55326,0.13126 10.38458,0.0597 19.22956,-2.8532 20.57928,-13.32797 0.20656,-1.61752 0,-3.15814 -0.45739,-4.657 -0.33422,-1.09315 -0.80508,-2.16045 -1.34651,-3.21979 -0.64663,1.29799 -1.41771,2.60328 -2.29143,3.89199 -4.43661,6.52444 -11.30321,12.25802 -18.06011,16.22095"
         id="path9475"
         style="fill:#e60012;fill-opacity:1;fill-rule:nonzero;stroke:none"
         inkscape:connector-curvature="0" />
      <path
         d="m 47.921484,135.13872 c -7.38429,-7.80984 -9.122752,-17.15632 -6.331591,-25.63305 0.357315,-1.07526 0.786477,-2.09018 1.28428,-3.05738 -1.045001,0.64369 -2.053437,1.33246 -3.016968,2.0756 -9.59297,7.39617 -9.968247,15.96505 1.248357,24.2091 2.193283,1.61553 5.785034,3.43856 8.7154,4.4873 0.0757,0.0245 0.155884,0.0537 0.230939,0.0829 -0.881419,-0.87373 -1.667896,-1.67718 -2.130417,-2.16443"
         id="path9477"
         style="fill:#e60012;fill-opacity:1;fill-rule:nonzero;stroke:none"
         inkscape:connector-curvature="0" />
      <path
         d="m 76.790847,94.65829 c 11.876705,-3.581084 23.660393,-6.488642 24.196043,-6.614597 0.38554,-0.09413 2.13042,-0.494537 2.93871,-0.668884 -3.45319,-1.999361 -7.499122,-3.47104 -12.477793,-4.181688 -12.017193,-1.706351 -20.991118,2.710672 -30.562277,7.951703 -7.892358,4.323552 -14.579981,8.615284 -18.011357,15.303466 2.612183,-1.62216 5.441833,-2.95529 8.295219,-4.09219 4.25506,-1.69177 19.815892,-5.943066 25.621455,-7.69781"
         id="path9479"
         style="fill:#fabe00;fill-opacity:1;fill-rule:nonzero;stroke:none"
         inkscape:connector-curvature="0" />
      <path
         d="m 127.54365,124.52938 c -2.35366,-4.1492 -4.5649,-8.22681 -4.65664,-12.96403 -0.0314,-1.57178 0.3772,-3.37955 0.94557,-5.29273 0.13343,-0.41433 0.24826,-0.82269 0.35411,-1.22441 -1.96234,-2.20752 -4.57645,-5.1058 -7.26177,-7.695821 -3.54299,-3.41005 -7.88722,-6.845955 -11.64704,-9.154899 -0.44071,-0.283066 -0.89297,-0.55884 -1.35228,-0.822681 -0.80829,0.174347 -2.55317,0.57475 -2.93871,0.668884 -0.53565,0.125955 -12.319338,3.033513 -24.196043,6.614597 -5.805563,1.754744 -21.366395,6.00604 -25.621455,7.69781 -2.853386,1.1369 -5.683036,2.47003 -8.295219,4.09219 -0.497803,0.9672 -0.926965,1.98212 -1.28428,3.05738 -2.791161,8.47673 -1.052699,17.82321 6.331591,25.63305 0.462521,0.48725 1.248998,1.2907 2.130417,2.16443 1.387562,0.50183 2.916253,0.93538 4.548867,1.3139 7.740322,1.7859 17.260162,2.65168 23.542999,3.70837 5.983258,1.00697 15.720566,3.53932 25.054373,4.46475 0.93338,0.0941 1.85842,0.16507 2.77897,0.2234 0.68833,-0.28439 1.35356,-0.59463 1.9771,-0.96056 6.7569,-3.96293 13.6235,-9.69651 18.06011,-16.22095 0.87372,-1.28871 1.6448,-2.594 2.29143,-3.89199 -0.24505,-0.47266 -0.49716,-0.94466 -0.7621,-1.41069"
         id="path9481"
         style="fill:#ed6d00;fill-opacity:1;fill-rule:nonzero;stroke:none"
         inkscape:connector-curvature="0" />
      <path
         d="m 54.487864,107.8086 0.975078,0 c 1.123906,0 2.204189,0.11402 2.204189,1.32318 0,1.10774 -1.13866,1.39346 -2.238188,1.39346 l -0.941079,0 0,-2.71664 z m -3.353113,10.66701 5.309684,0 c 2.253585,0 4.902974,-0.66292 4.902974,-3.80515 0,-1.60094 -0.865382,-2.5456 -2.542259,-2.8996 l 0,-0.0424 c 1.406165,-0.49056 2.216378,-1.41135 2.216378,-3.07196 0,-2.26188 -1.75065,-3.33382 -4.091479,-3.33382 l -5.795298,0 0,13.15296 z m 3.353113,-5.57381 1.030889,0 c 1.154697,0 2.471694,0.12661 2.471694,1.55785 0,1.34308 -1.277866,1.52803 -2.506335,1.52803 l -0.996248,0 0,-3.08588 z"
         id="path9483"
         style="fill:#ffffff;fill-opacity:1;fill-rule:nonzero;stroke:none"
         inkscape:connector-curvature="0" />
      <path
         d="m 61.138922,118.47561 3.412773,0 0.994964,-2.80613 4.724637,0 0.936588,2.80613 3.681561,0 -4.852937,-13.15296 -4.117138,0 -4.780448,13.15296 z m 8.337557,-5.29207 -3.158097,0 1.62684,-5.14358 0.03207,0 1.499182,5.14358 z"
         id="path9485"
         style="fill:#ffffff;fill-opacity:1;fill-rule:nonzero;stroke:none"
         inkscape:connector-curvature="0" />
      <path
         d="m 75.552113,105.32265 4.282003,0 4.259551,8.93216 0.034,0 -0.04875,-8.93216 3.06508,0 0,13.15296 -4.1691,0 -4.410303,-8.98784 -0.034,0 0.104564,8.98784 -3.083042,0 0,-13.15296 z"
         id="path9487"
         style="fill:#ffffff;fill-opacity:1;fill-rule:nonzero;stroke:none"
         inkscape:connector-curvature="0" />
      <path
         d="m 89.055017,118.47561 4.587357,0 c 4.291626,0 7.449086,-1.7143 7.449086,-6.62984 0,-5.09254 -3.064443,-6.52312 -7.449086,-6.52312 l -4.587357,0 0,13.15296 z m 3.35568,-10.55299 1.304166,0 c 2.45245,0 3.913142,1.35699 3.913142,3.97684 0,2.62052 -1.406807,3.98016 -3.913142,3.98016 l -1.304166,0 0,-7.957 z"
         id="path9489"
         style="fill:#ffffff;fill-opacity:1;fill-rule:nonzero;stroke:none"
         inkscape:connector-curvature="0" />
      <path
         d="m 100.33513,118.47561 3.41213,0 0.99304,-2.80613 4.7272,0 0.93787,2.80613 3.68541,0 -4.85357,-13.15296 -4.11843,0 -4.78365,13.15296 z m 8.34525,-5.29207 -3.16515,0 1.62748,-5.14358 0.0346,0 1.50303,5.14358 z"
         id="path9491"
         style="fill:#ffffff;fill-opacity:1;fill-rule:nonzero;stroke:none"
         inkscape:connector-curvature="0" />
      <path
         d="m 114.60398,105.32265 3.35697,0 0,13.15296 -3.35697,0 0,-13.15296 z"
         id="path9493"
         style="fill:#ffffff;fill-opacity:1;fill-rule:nonzero;stroke:none"
         inkscape:connector-curvature="0" />
      <path
         d="m 51.134751,121.33876 4.319852,0 4.302531,8.93547 0.04106,0 -0.05838,-8.93547 3.100363,0 0,13.1503 -4.215287,0 -4.444944,-8.98718 -0.03528,0 0.11098,8.98718 -3.120891,0 0,-13.1503 z"
         id="path9495"
         style="fill:#ffffff;fill-opacity:1;fill-rule:nonzero;stroke:none"
         inkscape:connector-curvature="0" />
      <path
         d="m 63.520806,134.48906 3.450621,0 0.995606,-2.80149 4.780448,0 0.94621,2.80149 3.725824,0 -4.908747,-13.1503 -4.156911,0 -4.833051,13.1503 z m 8.428651,-5.29141 -3.19338,0 1.639029,-5.14623 0.03528,0 1.519069,5.14623 z"
         id="path9497"
         style="fill:#ffffff;fill-opacity:1;fill-rule:nonzero;stroke:none"
         inkscape:connector-curvature="0" />
      <path
         d="m 78.095013,121.33876 5.348816,0 2.204831,8.74322 0.03592,0 2.33313,-8.74322 5.14097,0 0,13.1503 -3.319114,0 0.05645,-10.0969 -0.03849,0 -2.750104,10.0969 -3.117684,0 -2.610258,-10.0969 -0.03528,0 0.07057,10.0969 -3.319756,0 0,-13.1503 z"
         id="path9499"
         style="fill:#ffffff;fill-opacity:1;fill-rule:nonzero;stroke:none"
         inkscape:connector-curvature="0" />
      <path
         d="m 105.38501,134.19208 c -0.96931,0.24196 -2.04318,0.53033 -3.77651,0.53033 -3.39609,0 -7.316288,-1.77397 -7.316288,-6.74983 0,-4.57613 3.09908,-6.86386 7.293838,-6.86386 1.29583,0 2.55317,0.30495 3.77522,0.68148 l -0.27328,2.84458 c -1.09119,-0.61585 -2.15094,-0.92278 -3.3159,-0.92278 -2.406907,0 -3.976654,1.81176 -3.976654,4.26058 0,2.58472 1.767329,4.15119 4.248004,4.15119 1.11172,0 2.24204,-0.30759 3.17285,-0.68214 l 0.16872,2.75045 z"
         id="path9501"
         style="fill:#ffffff;fill-opacity:1;fill-rule:nonzero;stroke:none"
         inkscape:connector-curvature="0" />
      <path
         d="m 105.90398,127.91756 c 0,4.18235 2.22343,6.80485 6.38676,6.80485 4.15114,0 6.37842,-2.6225 6.37842,-6.80485 0,-4.21882 -2.18687,-6.80884 -6.37842,-6.80884 -4.19861,0 -6.38676,2.59002 -6.38676,6.80884 m 3.50515,0 c 0,-2.28243 0.81727,-4.20556 2.88161,-4.20556 2.05793,0 2.87904,1.92313 2.87904,4.20556 0,2.16442 -0.82111,4.20621 -2.87904,4.20621 -2.06434,0 -2.88161,-2.04179 -2.88161,-4.20621"
         id="path9503"
         style="fill:#ffffff;fill-opacity:1;fill-rule:nonzero;stroke:none"
         inkscape:connector-curvature="0" />
    </g>
  </g>
  <g
     style="font-style:normal;font-weight:normal;font-size:46.21596527px;line-height:125%;font-family:sans-serif;letter-spacing:0px;word-spacing:0px;fill:#ff0000;fill-opacity:1;stroke:none;stroke-width:1px;stroke-linecap:butt;stroke-linejoin:miter;stroke-opacity:1"
     id="text3361">
    <path
       d="m 5.938059,250.77481 18.070442,0 0,-4.067 -13.448846,0 0,-10.62968 12.247231,0 0,-4.067 -12.247231,0 0,-9.42806 13.448846,0 0,-4.067 -18.070442,0 0,32.25874 z"
       style="font-style:normal;font-variant:normal;font-weight:500;font-stretch:normal;font-family:'Frutiger 55';-inkscape-font-specification:'Frutiger 55 Medium';fill:#ff0000"
       id="path3366" />
    <path
       d="m 31.016719,250.77481 4.3443,0 0,-10.90697 c 0,-5.73078 2.218367,-9.70535 7.163475,-9.70535 3.789709,0.23108 4.991324,2.91161 4.991324,8.41131 l 0,12.20101 4.344301,0 0,-14.00344 c 0,-6.33158 -2.726742,-10.12129 -8.827249,-10.12129 -3.281334,0 -6.42402,1.61756 -7.718067,4.29808 l -0.09243,0 0,-3.74349 -4.205652,0 0,23.57014 z"
       style="font-style:normal;font-variant:normal;font-weight:500;font-stretch:normal;font-family:'Frutiger 55';-inkscape-font-specification:'Frutiger 55 Medium';fill:#ff0000"
       id="path3368" />
    <path
       d="m 71.794364,227.20467 -6.239156,0 0,-6.83996 -4.3443,1.38647 0,5.45349 -5.314836,0 0,3.51241 5.314836,0 0,13.77236 c 0,4.71403 2.772958,6.83996 7.255906,6.83996 1.386479,0 2.726742,-0.36973 3.697277,-0.64702 l 0,-3.69728 c -0.647023,0.41595 -1.617558,0.83189 -2.957821,0.83189 -1.987287,0 -3.651062,-1.47891 -3.651062,-4.20565 l 0,-12.89426 6.239156,0 0,-3.51241 z"
       style="font-style:normal;font-variant:normal;font-weight:500;font-stretch:normal;font-family:'Frutiger 55';-inkscape-font-specification:'Frutiger 55 Medium';fill:#ff0000"
       id="path3370" />
    <path
       d="m 95.303128,245.45997 c -1.062967,0.87811 -4.390516,2.35702 -7.255906,2.35702 -4.113221,0 -7.764282,-3.1889 -7.764282,-7.85672 l 16.822611,0 c 0,-7.57941 -2.541878,-13.31019 -10.398592,-13.31019 -6.655099,0 -11.045616,4.94511 -11.045616,11.92372 0,7.67185 3.835925,12.7556 12.201015,12.7556 3.882141,0 5.776996,-0.92432 7.44077,-1.52512 l 0,-4.34431 z M 80.28294,236.72516 c 0.323511,-3.05026 2.079718,-6.56267 6.331587,-6.56267 3.743493,0 5.869427,2.95782 5.869427,6.56267 l -12.201014,0 z"
       style="font-style:normal;font-variant:normal;font-weight:500;font-stretch:normal;font-family:'Frutiger 55';-inkscape-font-specification:'Frutiger 55 Medium';fill:#ff0000"
       id="path3372" />
    <path
       d="m 102.95836,250.77481 4.3443,0 0,-10.7221 c 0,-5.91565 2.54188,-9.61292 6.42402,-9.61292 0.73946,0 1.61756,0.0924 2.40323,0.41594 l 0,-3.88214 c -0.92432,-0.18487 -1.57134,-0.32351 -2.86539,-0.32351 -2.49566,0 -4.99132,1.7562 -6.14672,4.20565 l -0.0924,0 0,-3.65106 -4.06701,0 0,23.57014 z"
       style="font-style:normal;font-variant:normal;font-weight:500;font-stretch:normal;font-family:'Frutiger 55';-inkscape-font-specification:'Frutiger 55 Medium';fill:#ff0000"
       id="path3374" />
    <path
       d="m 133.44574,227.20467 -6.23915,0 0,-6.83996 -4.3443,1.38647 0,5.45349 -5.31484,0 0,3.51241 5.31484,0 0,13.77236 c 0,4.71403 2.77295,6.83996 7.2559,6.83996 1.38648,0 2.72674,-0.36973 3.69728,-0.64702 l 0,-3.69728 c -0.64702,0.41595 -1.61756,0.83189 -2.95782,0.83189 -1.98729,0 -3.65106,-1.47891 -3.65106,-4.20565 l 0,-12.89426 6.23915,0 0,-3.51241 z"
       style="font-style:normal;font-variant:normal;font-weight:500;font-stretch:normal;font-family:'Frutiger 55';-inkscape-font-specification:'Frutiger 55 Medium';fill:#ff0000"
       id="path3376" />
    <path
       d="m 140.22432,232.56572 c 1.7562,-1.47891 4.39051,-2.40323 6.83996,-2.40323 4.3443,0 5.82321,2.07972 5.82321,6.14672 -1.70999,-0.0924 -2.91161,-0.0924 -4.6216,-0.0924 -4.48294,0 -10.95318,1.84864 -10.95318,7.76428 0,5.12998 3.55863,7.34834 8.64239,7.34834 3.97457,0 6.28537,-2.17215 7.30212,-3.60484 l 0.0924,0 0,3.05025 4.06701,0 c -0.0924,-0.69324 -0.18487,-1.94107 -0.18487,-4.6216 l 0,-9.75156 c 0,-6.42402 -2.72674,-9.75157 -9.47427,-9.75157 -3.00404,0 -5.59213,0.92432 -7.76428,2.21836 l 0.23108,3.69728 z m 12.66317,9.05833 c 0,3.51241 -2.26458,6.19294 -6.56267,6.19294 -1.98728,0 -4.39051,-1.34026 -4.39051,-3.83593 0,-4.15943 5.82321,-4.52916 8.18022,-4.52916 0.92432,0 1.84864,0.0924 2.77296,0.0924 l 0,2.07972 z"
       style="font-style:normal;font-variant:normal;font-weight:500;font-stretch:normal;font-family:'Frutiger 55';-inkscape-font-specification:'Frutiger 55 Medium';fill:#ff0000"
       id="path3378" />
    <path
       d="m 165.16434,250.77481 4.3443,0 0,-23.57014 -4.3443,0 0,23.57014 z m 4.62159,-33.73765 -4.89889,0 0,4.89889 4.89889,0 0,-4.89889 z"
       style="font-style:normal;font-variant:normal;font-weight:500;font-stretch:normal;font-family:'Frutiger 55';-inkscape-font-specification:'Frutiger 55 Medium';fill:#ff0000"
       id="path3380" />
    <path
       d="m 177.42745,250.77481 4.3443,0 0,-10.90697 c 0,-5.73078 2.21837,-9.70535 7.16347,-9.70535 3.78971,0.23108 4.99133,2.91161 4.99133,8.41131 l 0,12.20101 4.3443,0 0,-14.00344 c 0,-6.33158 -2.72674,-10.12129 -8.82725,-10.12129 -3.28133,0 -6.42402,1.61756 -7.71807,4.29808 l -0.0924,0 0,-3.74349 -4.20565,0 0,23.57014 z"
       style="font-style:normal;font-variant:normal;font-weight:500;font-stretch:normal;font-family:'Frutiger 55';-inkscape-font-specification:'Frutiger 55 Medium';fill:#ff0000"
       id="path3382" />
    <path
       d="m 205.63436,250.77481 4.3443,0 0,-11.8775 c 0,-4.39052 1.75621,-8.73482 6.19294,-8.73482 3.51241,0 4.20565,3.65106 4.20565,6.56267 l 0,14.04965 4.3443,0 0,-11.8775 c 0,-4.39052 1.75621,-8.73482 6.19294,-8.73482 3.51242,0 4.20566,3.65106 4.20566,6.56267 l 0,14.04965 4.3443,0 0,-15.11262 c 0,-5.12997 -2.17215,-9.01211 -8.18023,-9.01211 -2.12593,0 -5.68456,1.20161 -7.30212,4.57538 -1.24783,-3.1889 -3.97457,-4.57538 -6.70132,-4.57538 -3.46619,0 -5.82321,1.24783 -7.48698,3.97457 l -0.0924,0 0,-3.41998 -4.06701,0 0,23.57014 z"
       style="font-style:normal;font-variant:normal;font-weight:500;font-stretch:normal;font-family:'Frutiger 55';-inkscape-font-specification:'Frutiger 55 Medium';fill:#ff0000"
       id="path3384" />
    <path
       d="m 264.82184,245.45997 c -1.06297,0.87811 -4.39052,2.35702 -7.25591,2.35702 -4.11322,0 -7.76428,-3.1889 -7.76428,-7.85672 l 16.82261,0 c 0,-7.57941 -2.54188,-13.31019 -10.39859,-13.31019 -6.6551,0 -11.04562,4.94511 -11.04562,11.92372 0,7.67185 3.83593,12.7556 12.20102,12.7556 3.88214,0 5.77699,-0.92432 7.44077,-1.52512 l 0,-4.34431 z m -15.02019,-8.73481 c 0.32351,-3.05026 2.07972,-6.56267 6.33158,-6.56267 3.7435,0 5.86943,2.95782 5.86943,6.56267 l -12.20101,0 z"
       style="font-style:normal;font-variant:normal;font-weight:500;font-stretch:normal;font-family:'Frutiger 55';-inkscape-font-specification:'Frutiger 55 Medium';fill:#ff0000"
       id="path3386" />
    <path
       d="m 272.47707,250.77481 4.3443,0 0,-10.90697 c 0,-5.73078 2.21837,-9.70535 7.16348,-9.70535 3.78971,0.23108 4.99132,2.91161 4.99132,8.41131 l 0,12.20101 4.3443,0 0,-14.00344 c 0,-6.33158 -2.72674,-10.12129 -8.82725,-10.12129 -3.28133,0 -6.42402,1.61756 -7.71806,4.29808 l -0.0924,0 0,-3.74349 -4.20565,0 0,23.57014 z"
       style="font-style:normal;font-variant:normal;font-weight:500;font-stretch:normal;font-family:'Frutiger 55';-inkscape-font-specification:'Frutiger 55 Medium';fill:#ff0000"
       id="path3388" />
    <path
       d="m 313.25474,227.20467 -6.23915,0 0,-6.83996 -4.34431,1.38647 0,5.45349 -5.31483,0 0,3.51241 5.31483,0 0,13.77236 c 0,4.71403 2.77296,6.83996 7.25591,6.83996 1.38648,0 2.72674,-0.36973 3.69728,-0.64702 l 0,-3.69728 c -0.64703,0.41595 -1.61756,0.83189 -2.95782,0.83189 -1.98729,0 -3.65106,-1.47891 -3.65106,-4.20565 l 0,-12.89426 6.23915,0 0,-3.51241 z"
       style="font-style:normal;font-variant:normal;font-weight:500;font-stretch:normal;font-family:'Frutiger 55';-inkscape-font-specification:'Frutiger 55 Medium';fill:#ff0000"
       id="path3390" />
  </g>
</svg>
