<svg xmlns="http://www.w3.org/2000/svg" width="500" height="196.72"><path d="M484.66 136.27h1.92v-5.5h2.2l3.35 5.5h2.15l-3.6-5.57c1.85-.24 3.28-1.23 3.28-3.5 0-2.49-1.48-3.6-4.48-3.6h-4.82v12.67zm1.92-11.04h2.61c1.34 0 2.76.29 2.76 1.86 0 1.95-1.45 2.06-3.08 2.06h-2.3v-3.92M241.14 141.8v53.84h17.24v-53.85c0-3.29 2.68-5.95 5.97-5.95h6.75v-17.27l-6.75.02a23.2 23.2 0 0 0-23.2 23.2M355.4 173.32a6.34 6.34 0 0 1-12.66 0v-52.4h-17.15l.08 52.4a23.4 23.4 0 0 0 46.79 0l.08-52.4H355.4v52.4M399.14 119.83a23.4 23.4 0 0 0-23.4 23.4l-.08 52.4h17.15v-52.4a6.33 6.33 0 1 1 12.66 0v52.4h17.15l-.09-52.4a23.4 23.4 0 0 0-23.39-23.4M57.44 141.8v53.84h17.24v-53.85c0-3.29 2.68-5.95 5.97-5.95h6.74v-17.27l-6.74.02a23.21 23.21 0 0 0-23.2 23.2M127.84 123.89l-8.8 27.38v21.4a5.96 5.96 0 0 1-8.89 5.2l-5.7 16.36a23.21 23.21 0 0 0 31.83-21.56l.01-30.88c0-7.2-3.3-13.64-8.45-17.9M107.12 141.8a5.96 5.96 0 0 1 9.84-4.53l5.15-16.86a23.21 23.21 0 0 0-32.24 21.38v30.88c0 7.43 3.5 14.06 8.93 18.3l8.32-24.4V141.8M193.12 63.83l17.91 39.44h41.77l17.9-39.44h24.4l20.04-44.3-8.37-8.38-27.37 10.38v-7.26h7V6.48h-7V0h-7.78v6.48h-7.01v7.79h7v7L243.86 10.9l-8.17 8.17 16.6 36.84-16.47 6.23v-6.1h7v-7.78h-7v-6.49h-7.79v6.5h-7v7.78h7v6.1l-16.47-6.24 16.6-36.84-8.17-8.17-27.76 10.38v-7.01h7V6.48h-7V0h-7.78v6.48h-7.01v7.79h7v7.26l-27.37-10.38-8.37 8.38 20.05 44.3h24.38zm-4.93-32.57l31.27-11.93-15.96 35.28 3.77 7.92 19.85 7.53h9.6l19.85-7.53 3.76-7.92-15.96-35.28 31.26 11.93 30.89-11.67-16.49 36.46h-24.39l-17.38 38.4h-32.69l-17.39-38.4H173.8l-16.47-36.46 30.87 11.67M297.56 118.59c-2.08 0-4.1.27-6.03.8V93.92h-17.06l-.11 78.74a23.21 23.21 0 1 0 46.4 0V141.8c0-12.81-10.38-23.2-23.2-23.2zm0 60.05a5.96 5.96 0 0 1-5.96-5.97V141.8a5.96 5.96 0 0 1 11.93 0v30.88c0 3.3-2.67 5.97-5.97 5.97M169.45 93.93v25.45a23.21 23.21 0 0 0-29.24 22.41v30.88a23.21 23.21 0 1 0 46.42 0l-.12-78.74h-17.06zm-.07 78.74a5.96 5.96 0 0 1-11.92 0V141.8a5.96 5.96 0 0 1 11.92 0v30.88M455.64 93.93v25.45a23.21 23.21 0 0 0-29.24 22.41v30.88a23.21 23.21 0 1 0 46.42 0l-.12-78.74h-17.06zm-.07 78.74a5.96 5.96 0 0 1-11.93 0V141.8a5.96 5.96 0 0 1 11.93 0v30.88M214.79 163.45c12.82 0 23.21-8.7 23.21-21.53a23.21 23.21 0 0 0-46.42 0v30.75a23.21 23.21 0 1 0 46.42 0h-17.25a5.96 5.96 0 0 1-11.92 0v-9.22h5.96zm-5.96-22.3a5.96 5.96 0 1 1 11.92 0c0 3.3-2.67 5.18-5.96 5.18h-5.96v-5.18M52.84 120.13a26.42 26.42 0 0 0-52.84 0v75.5l17.06-17.12v-58.38a9.35 9.35 0 1 1 18.72 0c0 5.17-4.2 9.1-9.36 9.1l-9.36-.02.02 17.13h9.86c5.7 0 9.86 6.48 9.86 16.34s-3.37 15.83-9.86 15.83h-9.86L0 195.64h30.57c11.16 0 23.35-12.98 23.35-25.43v-10.9c0-8.3-1.65-15.4-7.57-21.83a26.33 26.33 0 0 0 6.5-17.35"/><path d="M488.9 118.95v1.83c4.97 0 8.9 3.93 8.9 9.13 0 5.29-3.93 9.18-8.9 9.18-5.03 0-8.95-3.9-8.95-9.18 0-5.2 3.81-9.13 8.83-9.13l.12-1.83c-6.04 0-11.16 4.65-11.16 10.96 0 6.36 5.12 11.01 11.16 11.01 5.99 0 11.1-4.65 11.1-11.01 0-6.3-5.11-10.96-11.1-10.96"/></svg>