<svg xmlns="http://www.w3.org/2000/svg" width="300" height="100.64"><defs><clipPath id="a"><path d="M396.93 342.86h62.93v21.1h-62.93v-21.1z"/></clipPath><clipPath id="b"><path d="M390.83 339.24h75.12v28.35h-75.12v-28.35z"/></clipPath><clipPath id="c"><path d="M396.93 342.86h62.93v21.1h-62.93v-21.1z"/></clipPath></defs><g clip-path="url(#a)" transform="matrix(4.76735 0 0 -4.76735 -1892.3 1735.16)"><path d="M421.45 345.71l-.08.1-2.7 2.69c-.1.1-.3.18-.45.18h-7.8a.57.57 0 0 1-.57-.57v-3.27l.05-.15a.26.26 0 0 1 .22-.12h1.66l.06.01c.12.03.2.13.2.26l.01 1.41c0 .12.1.22.2.25h5.05l.12-.02c.13-.03.25-.1.33-.17l1.5-1.51.22-.22 1.53-1.55c.3-.3.56-.2.56.23v2.1c0 .1-.05.24-.11.35"/><path fill-rule="evenodd" d="M420.67 353.99h-10.25a.57.57 0 0 1-.57-.57v-1.05c0-.31.26-.58.57-.58h7.08c.43 0 .54-.27.24-.58l-1.63-1.66c-.07-.07-.06-.19.08-.19h2.53c.15 0 .35.09.46.19l2.09 2.06c.1.1.18.31.18.45v1.13a.8.8 0 0 1-.78.8"/><path d="M458.83 353.58h.22c.12 0 .18.04.18.14 0 .08-.06.13-.17.13h-.23v-.27zm.61-.55h-.22l-.15.4h-.24v-.4h-.2v.97h.45c.12 0 .21-.03.27-.08l.1-.2c0-.13-.07-.21-.19-.26l.18-.43zm.27.49c0 .2-.07.36-.2.5-.14.13-.3.2-.49.2a.66.66 0 0 1-.49-.2.69.69 0 0 1-.2-.5c0-.2.07-.37.2-.5.14-.14.3-.21.49-.21s.35.07.48.2c.14.14.2.31.2.5m.16 0a.81.81 0 0 0-.25-.59.8.8 0 0 0-.59-.25.8.8 0 0 0-.6.25.81.81 0 0 0-.24.6c0 .23.08.43.25.6.16.16.36.24.6.24a.8.8 0 0 0 .58-.25.82.82 0 0 0 .25-.6"/></g><g clip-path="url(#b)" transform="matrix(4.76735 0 0 -4.76735 -1892.3 1735.16)"><path fill-rule="evenodd" d="M439.82 348.18a.57.57 0 0 0-.57.57v1.05c0 .32.25.58.57.58h8.25c.31 0 .57-.26.57-.58v-1.05a.57.57 0 0 0-.57-.57h-8.25z"/><path d="M458.45 345.07l-4.29 4.25a.7.7 0 0 0 0 1l3.2 3.17c.27.28.18.5-.2.5h-2.07a.97.97 0 0 1-.6-.25l-2.34-2.32c-.28-.29-.68-.14-.68.26v2.04c0 .15-.12.27-.27.27h-1.68a.27.27 0 0 1-.26-.27v-8.89c0-.15.12-.26.26-.26h1.68c.15 0 .26.11.27.26v3.13c0 .4.4.54.68.26l2.28-2.27.05-.05 1.1-1.08c.13-.14.4-.25.6-.25h2.06c.39 0 .48.23.2.5"/><path fill-rule="evenodd" d="M439.82 344.57a.57.57 0 0 0-.57.57v1.05c0 .32.25.57.57.57h8.25c.31 0 .57-.25.57-.57v-1.05a.57.57 0 0 0-.57-.57h-8.25z"/></g><g clip-path="url(#c)" transform="matrix(4.76735 0 0 -4.76735 -1892.3 1735.16)"><path d="M448.07 353.99h-15.61a.57.57 0 0 1-.57-.57v-1.04c0-.32.25-.6.57-.6h3.15a.8.8 0 0 0 .8-.79v-6.16c0-.15.13-.26.27-.26h1.64c.15 0 .29.11.29.26V351c0 .44.36.8.8.8h8.66a.6.6 0 0 1 .57.59v1.04c0 .31-.26.57-.57.57M408.66 353.99h-6.94c-.22 0-.43-.02-.63-.05a4.4 4.4 0 0 1-4.01-3.44c-.1-.4-.15-.79-.15-1.16v-.11c0-.37.05-.77.15-1.16a4.4 4.4 0 0 1 4-3.44c.2-.03.42-.04.64-.05h6.94c.31 0 .56.25.56.56v1.08c0 .3-.25.56-.56.56h-6.8c-.81 0-1.4.2-1.82.52l-.02.02-.13.1-.27.29-.05.08-.05.06-.1.17a2.88 2.88 0 0 0 0 2.53l.1.17.05.06.05.08c.08.1.17.2.27.29l.13.1.02.02c.42.31 1 .52 1.81.52h6.81c.31 0 .56.25.56.56v1.08c0 .3-.25.56-.56.56"/></g><path fill="#252727" d="M162.76 46.27l.16.12-.16-.12zM162.72 46.25l.04.02-.04-.02zM162.92 46.4l.12.13-.12-.14z"/><path d="M163.52 53.5c.01-2.74.02-5.72 0-5.83l-.2-.63-.28-.5-.12-.15-.16-.12-.04-.02c-.57-.37-1.39-.21-2.2.6l-16.08 16.2-.8.69-1.25.63-.16.02-.5.07-.5-.07-.17-.02-1.25-.63-.8-.69-16.07-16.2c-.81-.81-1.63-.97-2.2-.6l-.04.02-.15.12-.13.14-.29.51-.17 1.03-.02 5.42c0 1.79.02 2.72.02 3.44 0 .45.15 1.44.3 1.78.16.52.43.9.74 1.22l5.02 5 6.42 6.47c.92 1.23 1.05 2.65-.16 3.86l-11.12 11.26c-.49.5-.89 1.47-.9 2.16l-.01 9.88c0 1.3.46 1.97 1.15 1.94.43-.01.94-.29 1.5-.85l18.77-18.94.06-.06 20.92-21.09.55-.85.3-1.03.03-.27-.01-3.92z"/><path fill="#252727" d="M141.74 64.25z"/><g><path fill="#fabc24" d="M154.15 45.02l-.22-.17-.04-.03-.56-.1c-.66.01-1.62.32-2.53.66-.54.17-1.07.35-1.56.55 0 0-3.69 1.51-7.5 1.54-3.82-.03-7.5-1.54-7.5-1.54-.49-.2-1.03-.38-1.57-.55a8.6 8.6 0 0 0-2.53-.66l-.56.1-.03.03-.14.1-.27.49c-.03.38.2.87.73 1.44l9.72 9.71c.5.45 1.36 1 2.15 1 .79 0 1.65-.55 2.15-1l9.71-9.71.34-.41.31-.56.09-.47-.2-.42"/></g><g><path fill="#e85636" d="M154.15 12.57l-.22.16-.04.03-.56.1a8.64 8.64 0 0 1-2.53-.66c-.54-.16-1.07-.34-1.56-.54 0 0-3.69-1.52-7.5-1.54-3.82.02-7.5 1.54-7.5 1.54-.49.2-1.03.38-1.57.54a8.6 8.6 0 0 1-2.53.66l-.56-.1-.03-.03-.14-.09-.27-.5c-.03-.37.2-.87.73-1.43L139.59 1c.5-.46 1.36-1 2.15-1 .79 0 1.65.54 2.15 1l9.71 9.7.34.42.31.56.09.47-.2.42"/></g><g><path fill="#008ac0" d="M125.51 41.2l.17-.21.03-.04.1-.56a8.49 8.49 0 0 0-.67-2.54c-.16-.54-.34-1.07-.54-1.55 0 0-1.52-3.69-1.54-7.5.02-3.83 1.54-7.51 1.54-7.51.2-.48.38-1.02.54-1.56.36-.92.66-1.87.67-2.53l-.1-.56-.03-.04-.1-.13-.49-.27c-.38-.04-.88.2-1.44.72l-9.71 9.72c-.45.5-.99 1.36-1 2.15.01.8.55 1.66 1 2.15l9.71 9.72.41.34.56.31.47.08.42-.19"/></g><g><path fill="#5ea13e" d="M157.96 41.2l-.17-.21-.02-.04-.1-.56c0-.67.3-1.62.66-2.54.16-.54.34-1.07.54-1.55 0 0 1.52-3.69 1.54-7.5-.02-3.83-1.54-7.51-1.54-7.51-.2-.48-.38-1.02-.54-1.56a8.45 8.45 0 0 1-.66-2.53l.1-.56.02-.04.1-.13.5-.27c.37-.04.87.2 1.43.72l9.72 9.72c.45.5.98 1.36.98 2.15a3.6 3.6 0 0 1-.98 2.15l-9.72 9.72-.4.34-.57.31-.47.08-.42-.19"/></g></svg>