<svg xmlns="http://www.w3.org/2000/svg" width="1920.76" height="323.52"><g fill="#e51e2b"><path d="M346.4 309.71c-26.04-5.7-46.3-18.08-68.36-40.45C253.76 244.7 167.1 142.24 167.1 142.24l138.2-131.25h-74.76L104.4 134.39c-5.52 5.37-8.76 8.88-11.58 12.38h-.71c.2-4.12.36-8.48.36-12.73V35.36A24.39 24.39 0 0 0 68.1 10.99H2.67c-3.11 0-3.51 3.34-1.16 4.42 9.91 4.54 17.7 9.87 17.7 27.6v269.5h73.26V173.6c0-3.54-.17-6.29-.36-10.3h.7c2.52 4.1 6.9 8.83 11.6 14.54 0 0 76.98 90.53 85.16 99.05 32.63 34.17 78.32 46.23 156.48 38.7 4.2-.43 4.25-4.97.35-5.88"/><path d="M488.71 292.7c-60.66 0-95.3-59.35-95.3-127.1 0-78.02 34.64-134.78 95.3-134.78 60.62 0 95.26 59.31 95.26 127.1 0 80.09-34.64 134.77-95.26 134.77m0-292.69C387.01 0 312 70.83 312 161.78c0 90.87 69.08 161.74 176.72 161.74 101.67 0 176.67-70.87 176.67-161.74C665.38 70.83 596.32 0 488.7 0M1785.63 312.5l-45.06-275.1c-2.3-13.79-15.01-26.4-30.79-26.4h-42.22l-73.92 171.64a241.44 241.44 0 0 0-7.21 18.24h-.4a192.3 192.3 0 0 0-6.64-17.3l-65.26-153.04h-.04c-4.73-10.94-15.63-19.55-29.25-19.55h-64.76c-3.15 0-3.5 3.34-1.15 4.42 8.82 4.02 15.15 10.43 12.49 27.35l-44.27 269.74h46.68l29.44-190.25c1.42-9.72 3.1-21.53 3.65-27.5h.36a546.26 546.26 0 0 0 10.87 26.94l81.29 190.81h24.12l82.25-194.15a551.9 551.9 0 0 0 10.1-25.83h.4c.91 7.42 2.39 18.74 4.14 30.14l30.45 189.84h74.73zM1896.4 11H1828c-3.18 0-3.51 3.33-1.16 4.41 9.92 4.55 17.7 9.87 17.7 27.6v269.5h76.23V35.34A24.39 24.39 0 0 0 1896.41 11M957.57 11v172.36c0 8.44.4 13.77.74 21.33h-.74a397.96 397.96 0 0 0-21.74-27.7L806.22 27.12c-10.16-11.61-18.28-16.08-36.88-16.12h-65.87c-3.1 0-3.46 3.34-1.12 4.42 9.96 4.55 17.72 9.87 17.72 27.6v269.5h49.27V118.66c0-10.43-.4-18.47-.7-27.1h.7c9.08 12.25 21.63 28.44 31.73 40.15L956.61 312.5h25.91a24.37 24.37 0 0 0 24.36-24.37V10.99h-49.31zM1133.75 206.6l47.22-103.93c2.3-5.26 4.36-9.96 5.08-12.5h.76c.93 3.02 2.91 7.6 5.1 12.69l45.97 103.74h-104.13zm151.03 105.9h83.01L1236.77 29.6c-4.79-10.23-15.17-18.6-28.7-18.6h-57.3c-3.17 0-3.46 3.28-1.13 4.42 7 3.5 11.85 15.13 6.76 25.96L1029.67 312.5h56.03l31.49-69.44h136.85l30.74 69.44z"/></g></svg>