<svg xmlns="http://www.w3.org/2000/svg" width="120" height="30"><path d="M22.24 17.76l-6-9.85H11.9v14.13h4.3v-9.85l6.03 9.85h4.3V7.9h-4.3v9.85zm34.14-5.1v-1.4h-2.26v-1.9h-4.2l.01 1.91h-2.28v1.4h2.28v9.37h4.2l-.01-9.37h2.26zm-27.45 9.38h4.19v-9.4h-4.19v9.4zm0-11.24h4.19V7.9h-4.2v2.9zm73.34 1.2c-3.37 0-6.12 2.37-6.12 5.28s2.75 5.27 6.12 5.27c3.38 0 6.12-2.36 6.12-5.27 0-2.92-2.74-5.27-6.12-5.27zm1.68 7.25c0 1.5-.87 2.12-1.71 2.12s-1.71-.62-1.71-2.12v-3.98c0-1.49.87-2.1 1.7-2.1.84 0 1.72.61 1.72 2.1v3.98zm-13.29-6.14a5.52 5.52 0 0 0-2.36-.84c-3.02-.26-5.32 2.44-5.32 4.92a5.01 5.01 0 0 0 2.86 4.66c1.4.66 3.21.66 4.81-.36v.55h4.14V7.9h-4.13v5.2zm.04 4.18v1.67c0 1.45-1 1.83-1.65 1.83-.66 0-1.64-.38-1.64-1.83v-3.34c0-1.46.98-1.83 1.64-1.83.65 0 1.64.37 1.64 1.83v1.67zm-47.78-5.08a5.02 5.02 0 0 0-3.34 1.42v-.99h-4.16v9.4h4.16v-6.17c0-.82.84-1.73 1.98-1.73 1.14 0 1.91.9 1.91 1.73v6.16h4.16v-5.1c.02-3.72-3.15-4.76-4.71-4.72zm34 0a5.01 5.01 0 0 0-3.33 1.42v-.99h-4.15v9.4h4.15v-6.17c0-.82.84-1.73 1.98-1.73 1.14 0 1.91.9 1.91 1.73v6.16h4.16v-5.1c.02-3.72-3.15-4.76-4.71-4.72zm-8.75 5.17c0-2.91-2.77-5.32-6.18-5.32-3.4 0-6.16 2.36-6.16 5.27 0 2.91 2.76 5.27 6.16 5.27 2.83 0 5.21-1.64 5.94-3.85h-4.17v.57c0 1.72-1.11 2.1-1.73 2.1-.62 0-1.75-.38-1.75-2.1v-1.94h7.89zm-7.61-3.3a1.7 1.7 0 0 1 1.47-.86 1.71 1.71 0 0 1 1.47.85c.27.48.28 1.03.27 1.85h-3.49c0-.82.01-1.37.28-1.85zm49.5-4.42c0-.46-.34-.7-1.02-.7h-.93v2.41h.58v-.98h.28l.46.98h.63l-.53-1.07c.33-.09.52-.33.52-.64zm-1.09.37h-.28v-.7h.25c.35 0 .52.11.52.36 0 .24-.16.34-.49.34zm.02-2c-1.18 0-2.15.97-2.15 2.17s.97 2.17 2.15 2.17 2.14-.97 2.14-2.17-.96-2.18-2.14-2.18zm0 3.92a1.74 1.74 0 0 1-1.73-1.75c0-.97.77-1.76 1.73-1.76.95 0 1.73.79 1.73 1.76s-.78 1.75-1.73 1.75zM104.32 0H15.68C6.3-.02 0 6.82 0 15.03 0 23.23 6.29 30 15.7 30h88.6c9.42 0 15.7-6.77 15.7-14.97 0-8.2-6.3-15.05-15.68-15.03zm-.04 26.32H15.72C8.25 26.35 3.7 21.25 3.7 15.01c0-6.25 4.57-11.3 12.02-11.32h88.56c7.45.02 12.02 5.07 12.02 11.32s-4.55 11.34-12.02 11.31z" fill="#e60012" fill-rule="evenodd"/></svg>