<svg xmlns="http://www.w3.org/2000/svg" viewBox="-5.97 -13 760 95"><path d="M97 0c-6.65 0-12 5.35-12 12v45c0 6.65 5.35 12 12 12h16v9h15v-9h17c6.65 0 12-5.35 12-12V12c0-6.65-5.35-12-12-12H97zm3 12h41v44h-13v-7h-15v7h-13V12zM14 0C7.35 0 2 5.35 2 12v16c0 6.65 5.35 12 12 12h46v16H0v1c0 6.65 5.35 12 12 12h49c6.65 0 12-5.35 12-12V39c0-6.65-5.35-12-12-12H15V12h43v6h14v-6c0-6.65-5.35-12-12-12H14zm155 0v57c0 6.65 5.35 12 12 12h43c6.65 0 12-5.35 12-12V0h-15v56h-37V0h-15zm104.5 1L239 69h15l7.63-15h38.75L308 69h15L288.5 1l-.5-1h-14l-.5 1zm7.5 14.78L294.31 42H267.7L281 15.78zM330 0v69h15V43h9.5l25 26h20l-25-26h7.5c6.65 0 12-5.35 12-12V12c0-6.65-5.35-12-12-12h-52zm15 12h30a4 4 0 0 1 4 4v11a4 4 0 0 1-4 4h-30V12zm62-12v69h58V56h-43V12h43V0h-58z"/><path fill="#E20A16" d="M435 27h25v13h-25z"/><path d="M497 0v69h58V56h-43V12h43V0h-58z"/><path fill="#E20A16" d="M525 27h25v13h-25z"/><path d="M567 0v69h14V20.19l36 42.94 1 1.18 3.94 4.69H632V0h-15v46.44L581 3.5 578.06 0H567zm77 0h16v69h-16zm23.94 0l30.03 33.34L667.75 69h18l21.5-25.34L730.06 69h18l-32.1-35.66L744.26 0h-18L706.7 23.06 685.94 0h-18z"/></svg>