<svg xmlns="http://www.w3.org/2000/svg" viewBox="0 0 55.24 15.1"><path d="M0 .05l53.1.04V15.1H0V.05zm1.53 1.61v11.9h50.05V1.67H1.53"/><path d="M16.67 3.2h2.38l2.5 8.84h-1.78l-.6-2.21h-2.63L16 11.99c-.53.05-1.83 0-1.83 0l2.5-8.8zm1.15 1.48l-.94 3.74h1.96l-1.02-3.74M44.05 3.2h3.66v1.14h-2.39v1.27h2.17v1.15h-2.17v1.32h2.39v1.15H44l.04-6.04m-10.62.01h1.79l1.7 6.58 1.66-6.59h1.78l-2.68 8.85H36.1l-2.68-8.85m-7.52.01h1.7v7.35h3.7v1.49h-5.45c0-2.93-.07-6 .05-8.85M4.63 3.2h1.75l1.7 6.67 1.66-6.68h1.83l-2.68 8.85H7.27L4.63 3.19M54.38 0c.48 0 .86.4.86.88a.87.87 0 1 1-1.74 0c0-.49.4-.88.87-.88h.01zm-.01.14c-.39 0-.7.33-.7.74 0 .42.31.75.7.75.4 0 .7-.33.7-.74 0-.42-.3-.75-.7-.75zm-.17 1.25h-.15V.41l.28-.02c.14 0 .24.03.3.07.06.05.09.11.09.2 0 .14-.09.21-.19.25.09.02.14.1.17.24.02.15.04.21.06.24h-.17a.85.85 0 0 1-.06-.24c-.02-.13-.09-.18-.21-.18h-.11v.42zm0-.54h.12c.12 0 .23-.05.23-.17 0-.08-.06-.17-.23-.17h-.12v.34"/></svg>