<svg xmlns="http://www.w3.org/2000/svg" width="355" height="71.2"><path fill="#12283b" d="M31.92 70.36l-12.77-30H13.1l-12.76 30h6.68l2.72-6.68h12.6l2.72 6.68h6.86zM20 57.9h-7.92l3.96-9.66L20 57.89zm42.04 7.66l-4.17-4.21c-2.34 2.13-4.42 3.49-7.83 3.49-5.1 0-8.64-4.26-8.64-9.37v-.08c0-5.1 3.62-9.28 8.64-9.28 2.98 0 5.32 1.28 7.62 3.36l4.17-4.8c-2.77-2.73-6.13-4.6-11.75-4.6-9.15 0-15.53 6.93-15.53 15.4v.09c0 8.55 6.51 15.32 15.28 15.32 5.74 0 9.15-2.04 12.21-5.32m31.84 0l-4.17-4.21c-2.34 2.13-4.43 3.49-7.83 3.49-5.11 0-8.64-4.26-8.64-9.37v-.08c0-5.1 3.61-9.28 8.64-9.28 2.98 0 5.32 1.28 7.62 3.36l4.17-4.8c-2.77-2.73-6.13-4.6-11.75-4.6-9.15 0-15.54 6.93-15.54 15.4v.09c0 8.55 6.52 15.32 15.28 15.32 5.75 0 9.15-2.04 12.22-5.32m36-10.09v-.08c0-8.47-6.59-15.32-15.78-15.32-9.2 0-15.88 6.93-15.88 15.4v.09c0 8.47 6.6 15.32 15.8 15.32 9.18 0 15.87-6.93 15.87-15.4m-6.86.08c0 5.1-3.66 9.28-8.93 9.28-5.28 0-9.03-4.26-9.03-9.37v-.08c0-5.1 3.66-9.28 8.94-9.28 5.28 0 9.02 4.26 9.02 9.36v.09zm39.71 14.81l-7.27-10.64c3.78-1.4 6.38-4.43 6.38-9.24v-.08c0-6.13-4.21-9.83-11.24-9.83H137v29.8h6.56v-9.54h5.15l6.38 9.53h7.66zm-7.53-19.54c0 2.51-1.83 4.22-5.02 4.22h-6.64v-8.56h6.51c3.2 0 5.15 1.45 5.15 4.26v.08"/><path fill="#e29c16" d="M154.5 26c0 .4 1.67.36 3.34.36a80.1 80.1 0 0 0 18.44-1.96c7.88-1.87 10-4.65 14.42-7.13 9-5.07 20.38-4.19 20.38-5.04 0-.23-.17-.3-3.34-1.11-.3-1.21-1.86-2-3.43-2-3.7 0-9.75 4.29-15.18 4.29-.59 0-1.14-.07-1.73-.16-2.2-4.1-7.2-7.72-13.38-8.5-3.56-.47-6.11-.89-8.14-1.25-7.16-1.3-9.02-3.17-9.84-3.17-.17 0-.23.16-.23.3 0 1.37 2.45 5.22 6.34 9.57 2.55 2.85 6.77 6.97 6.77 8.93 0 1.08-2.38 2.39-6.93 4.32-5.3 2.26-7.49 2.22-7.49 2.55"/><path fill="#12283b" d="M203.66 70.36v-29.8h-6.55v11.8H182.2v-11.8h-6.56v29.8h6.56V58.4h14.9v11.96h6.56zm38.78-14.9v-.08c0-8.47-6.6-15.32-15.8-15.32-9.19 0-15.87 6.93-15.87 15.4v.09c0 8.47 6.6 15.32 15.8 15.32 9.18 0 15.87-6.93 15.87-15.4m-6.86.08c0 5.1-3.66 9.28-8.94 9.28-5.27 0-9.02-4.26-9.02-9.37v-.08c0-5.1 3.66-9.28 8.94-9.28 5.28 0 9.02 4.26 9.02 9.36v.09zm35.24-8.94v-6.04h-24.68v6.04h9.06v23.75h6.56V46.61h9.06zm28.99 23.75v-5.83h-16.18v-6.26h14.05v-5.83h-14.05V46.4h15.97v-5.83h-22.48v29.8h22.69zm27.1 0V64.4h-13.44V40.57h-6.55v29.8h20zm27.75-8.81v-.08c0-5.2-3.4-7.37-9.44-8.94-5.15-1.32-6.43-1.96-6.43-3.92v-.08c0-1.45 1.32-2.6 3.83-2.6s5.1 1.1 7.74 2.94l3.41-4.94a17.25 17.25 0 0 0-11.07-3.79c-6.08 0-10.42 3.58-10.42 8.98v.09c0 5.91 3.87 7.57 9.87 9.1 4.98 1.28 6 2.13 6 3.8v.08c0 1.75-1.61 2.8-4.3 2.8-3.4 0-6.2-1.4-8.89-3.61l-3.87 4.64a18.96 18.96 0 0 0 12.64 4.77c6.42 0 10.93-3.32 10.93-9.24"/></svg>