<svg data-name="Layer 1" xmlns="http://www.w3.org/2000/svg" width="240" height="164.18"><path d="M143.2 59.55a16.57 16.57 0 0 1-3 9.66h6.29V20.62h-20.11v19.85c10.88 3.37 16.82 10.34 16.82 19.08" fill="#213e99"/><path d="M108.43 38.74a46.81 46.81 0 0 1 12 1.92c-6.84-1.21-17.45.54-22.93 4.86v23.69h20.12v-27a25.36 25.36 0 0 1 9.65 3.92v23h4.37c-4.11 4.64-11.81 7.47-18.44 6.43v1c19.12 1.51 27.22-7.57 27.22-17.77 0-12-11.27-19.05-22.8-20.48V20.62H97.49v17.94c-13 2.61-25.78 10.35-25.78 23.17 0 19.74 27.57 32 51.58 32 36.47 0 64.53-17.62 64.53-42.37C187.82 21.37 147.3 0 115.48 0 79 0 52.17 23.17 52.17 47.92c0 12.81 7.2 23.55 16.27 31l.68-.46c-7.18-6-13.66-15.27-13.66-28.06 1.9-27.08 35.28-42.34 65-42.34 21 0 58.75 4.86 58.75 40 0 18.32-19.58 42.14-60.7 42.14-21.08.03-37.44-11.2-37.44-27.46 0-14 11-24 27.36-24M30.52 164.18v-2.77h7.05v-23.93H18.74v23.93h7.23v2.77H0v-2.77h6.6v-48.73H0v-2.77h25.97v2.77h-7.23v21.6h18.83v-21.6h-7.05v-2.77h25.71v2.77h-6.61v48.73h6.61v2.77H30.52M66.19 109.91h11.79v6.43H66.19zM60.39 164.18v-2.77h6.34v-33.38h-6.34v-2.76h18.03v36.14h5.9v2.77H60.39M86.86 164.18v-2.77h6.51v-55.88h-6.51v-2.76h18.29v58.64h6.16v2.77H86.86M129.65 164.18c-6.42 0-9.9-3.3-9.9-8.39V128h-6.35v-2.77h6.34v-15.4c3.57 0 7.32.08 11 0v15.44h9.1V128h-9.1v33.38H140v2.77h-10.35M185.34 143.83C184.36 129.1 172 124 163.56 124c-9.54 0-22.4 6-22.4 20.43 0 10.45 7.68 20.71 22.67 20.71 13.48 0 19-9 20.35-12.68a20.35 20.35 0 0 0 1.16-8.63zm-21.78 19.1c-4.1 0-6.6-2.05-7.76-4.29-.71-1.34-1.69-3.3-1.69-14.37 0-8.21.18-17.67 9.37-17.67 3.66 0 6.42 1.52 7.95 4.91.53 1.24 1.16 2.5 1.24 12.4.08 9.09.08 19.02-9.11 19.02zM216.8 164.18v-2.77h5.2v-22.94c0-5.18 0-10.26-5.71-10.26-3.22 0-8.48 3.21-9.73 8.48-.45 1.6-.36 3.3-.36 7.58v17.14h5.89v2.77h-23.94v-2.77h6.34V128h-6.34v-2.77h18v5.89a15.57 15.57 0 0 1 7.41-5.8 18.25 18.25 0 0 1 7.05-1.43 19.4 19.4 0 0 1 5.35.71c7.5 2.23 7.86 7.95 7.86 12.06v24.72H240v2.77h-23.2" fill="#213e99"/></svg>