<svg xmlns="http://www.w3.org/2000/svg" width="280" height="55"><g fill="none" fill-rule="evenodd"><path d="M74 40.34c0-1.36-.73-2.07-2.24-2.18-1.74 0-3.55 1.56-5.37 4.65a13.34 13.34 0 0 0-2.2 6.82c0 .42.1.84.27 1.22l.36.53.51.32c.2.1.43.14.66.11 2.81 0 5.23-2.67 7.21-7.94.47-1.12.74-2.32.8-3.53zm-28.91-1.61L43 38.35l1.26 1.07c1.06.97 2.06 2 3 3.07 1 1.13 2 2.49 3.17 4.06l1.05 1.49L54 39.28h-1.24L49 39.1l-3.91-.37zM134.1 3.52h-.1c-.76.1-2.39 2.05-5.8 10.77l-1.74 5.13-1.19 3.64-2.07 6.54-.78 2.56.63-.84a65.6 65.6 0 0 0 4-6.07 79.77 79.77 0 0 0 3.95-7.83c2.3-5.17 3.55-9.46 3.72-12.75l-.07-.55c-.09-.52-.35-.6-.55-.6zm20.07 35.21c1.98-4.4 3.65-8.95 5-13.59l.08-.28-.74 1a65.74 65.74 0 0 0-9.34 18.56 33.58 33.58 0 0 0-1.28 5.7v.17l1.33-2.11 1.75-3c1.13-2.09 2.21-4.28 3.2-6.45zm-55.11 8.44c3.9-1.76 6.16-3.84 6.71-6.19l.1-1.09c0-.9-.29-1.46-.8-1.64l-.54-.09c-.9.1-1.73.59-2.27 1.33l-1.33 1.83-1.58 2.56-1 2.13-.76 1.81 1.47-.65zM277.08 3.52H277c-.76.1-2.39 2.05-5.8 10.77l-1.76 5.13-1.19 3.64-2.07 6.54-.78 2.56.63-.84a65.4 65.4 0 0 0 4-6.07 79.35 79.35 0 0 0 3.97-7.83c2.3-5.17 3.55-9.46 3.72-12.75l-.07-.55c-.11-.52-.37-.6-.57-.6zm-27.54 36.82c0-1.36-.73-2.07-2.24-2.18-1.74 0-3.55 1.56-5.37 4.65a13.33 13.33 0 0 0-2.2 6.82c0 .42.1.84.27 1.22l.36.53.5.32c.2.1.43.14.66.11 2.81 0 5.23-2.67 7.21-7.94.47-1.12.75-2.32.81-3.53z"/><path fill="#000" fill-rule="nonzero" d="M62.53 39.03c.25-.1.45-.27.59-.5l.44-1.11-.47-.65-3.26.17h-.79L69.12 3.29l.12-1-.47-.78-.55-.09-2.75.94a2.4 2.4 0 0 0-1 .52 2 2 0 0 0-.47 1l-4.3 15.49-5 17.54h-4.15c-3.8-.05-7.55-.66-11.17-1.8L38 34.62l1.1-2.35.95-2.45 4.39-12.4L48.88 4.5 49 3.42l-.53-.93-1.26.26-2 .7a2.4 2.4 0 0 0-1 .52c-.25.28-.4.63-.44 1-.44 1.85-1.33 4.76-2.64 8.64l-4 11.86a114.8 114.8 0 0 1-3 7.85c-4.2 10-8.91 15.92-14 17.52a13.5 13.5 0 0 1-4.46.64 20.1 20.1 0 0 1-10.25-2.65l-2-1.31c-.25-.2-.56-.3-.88-.31-.32.06-.6.23-.82.48L.51 49.21l-.51.91.6.7.09.09a20.12 20.12 0 0 0 6.22 2.45c2.08.55 4.23.84 6.38.85h.46c2.05 0 4.09-.28 6.06-.85 6.09-1.7 11.12-5.89 15-12.45L36.98 37 39 38.34a40 40 0 0 1 8.53 8.47A56.53 56.53 0 0 1 51 52.27l.58 1.06h2.58l4.25-14 1.25-.1 2.34-.07.53-.13zm-8.53.25l-2.55 8.8-1.05-1.49a60.9 60.9 0 0 0-3.17-4.06 39.06 39.06 0 0 0-3-3.07L43 38.35l2.12.38 3.89.37 3.77.2 1.22-.02zm18.46-2.78h-.06c-2.7 0-5.46 1.33-8.21 3.94-2.75 2.61-4 5.21-4 8a4.43 4.43 0 0 0 1.65 3.66 6.1 6.1 0 0 0 4 1.38H66a9.6 9.6 0 0 0 4.24-1 14 14 0 0 0 5.32-4.51 11 11 0 0 0 2.34-6.42c0-1.38-.58-2.7-1.62-3.6a5.37 5.37 0 0 0-3.82-1.45zM66 51.8c-.23.03-.45-.01-.66-.11l-.51-.32-.36-.53c-.18-.38-.27-.8-.27-1.22.1-2.43.86-4.79 2.2-6.82 1.82-3.08 3.63-4.65 5.37-4.65 1.51.11 2.24.82 2.24 2.18a10.5 10.5 0 0 1-.77 3.53c-2.03 5.27-4.45 7.94-7.24 7.94zm19.65-7.21l3.41-10.17h3.79l.63-.07a1 1 0 0 0 .42-.37l.21-.5.09-.7-.73-.27h-4l3-9.42c.24-.53.42-1.1.53-1.67l-.15-.38a1.51 1.51 0 0 0-.73-.29l-.91.1-1.31.3c-.32.07-.63.2-.9.4-.24.3-.42.63-.52 1l-2.93 10h-2.01l-.42.07a.71.71 0 0 0-.34.29l-.25.55-.19.59.24.37H85l-3.35 10.26-.74 2.61a12.4 12.4 0 0 0-.5 3.14 3 3 0 0 0 .69 2.21c.63.58 1.47.88 2.32.83 1.7-.08 3.3-.73 4.58-1.85l2-1.63a7 7 0 0 0 1.33-1.34l.21-.4v-.29l-.15-.38-.28-.25-.25-.09c-.33.04-.63.19-.86.43l-2 1.77a5.17 5.17 0 0 1-2.94 1.51.65.65 0 0 1-.49-.14.89.89 0 0 1-.22-.64c0-.66.14-1.32.38-1.93l.92-3.65zm24.17-4.69a3 3 0 0 0-1.2-2.48 4.36 4.36 0 0 0-2.73-.91c-2.95.09-5.79 1.56-8.45 4.36-2.66 2.8-4 5.58-4 8.25 0 2.85 1.78 4.31 5.15 4.33h.29a8.7 8.7 0 0 0 1.53-.14c.68-.12 1.35-.32 2-.57a14 14 0 0 0 6.6-4.62l.16-.43a.57.57 0 0 0-.18-.42l-.39-.14c-.26.04-.5.15-.7.33l-2.17 1.83c-2.24 1.67-4.16 2.53-5.69 2.55a2.3 2.3 0 0 1-2.52-1.87l-.06-.4 3.64-1.5c5.79-2.5 8.74-5.23 8.72-8.17zm-10.46 4l1.58-2.56 1.33-1.83a3.28 3.28 0 0 1 2.27-1.33l.54.09c.51.18.77.74.8 1.64l-.1 1.09c-.55 2.35-2.81 4.44-6.71 6.19l-1.51.65.76-1.81 1.04-2.13zM134 1c-1.53 0-3.38 1.93-5.65 5.91a69.32 69.32 0 0 0-2.57 4.82 82.79 82.79 0 0 0-3.13 7c-.89 2.15-1.73 4.41-2.5 6.72-.68 2-1.81 5.6-3.38 10.72l-1.18 3.87-2.37 2-.39.37c-.14.12-.2.3-.18.48-.05.22 0 .45.15.63.13.12.31.17.49.14.21 0 .42-.08.57-.23l1-.76-.86 3.16a15.8 15.8 0 0 0-.71 4.58c0 2 1 3 3 3h.19a7.49 7.49 0 0 0 4.21-1.8l2-1.68 1.67-1.51c.23-.21.37-.5.39-.82l-.16-.42a.94.94 0 0 0-.32-.15l-.45.27-2.38 2-1.36 1-1 .53c-.25.1-.52.17-.79.19l-.44-.12-.35-.3c-.09-.2-.14-.42-.15-.64l.15-1.54c.56-2.5 1.23-5 2-7.37l1.86-5.33 1.71-2.3 2.93-3.94 2.85-4.31a65.7 65.7 0 0 0 4.65-8.37c1.75-3.85 2.74-8 2.93-12.22-.1-.75-.26-1.5-.5-2.21A2.11 2.11 0 0 0 134 1zm.68 3.63c-.16 3.29-1.41 7.58-3.72 12.75a79.77 79.77 0 0 1-4 7.87 65.6 65.6 0 0 1-4 6.07l-.63.84.78-2.56 2.07-6.54 1.28-3.64 1.79-5.11c3.41-8.72 5-10.67 5.8-10.77h.05c.2 0 .46.08.56.56l.02.53zm44.11 27.22c-1.02-.6-2.1-1.11-3.21-1.51l-2.62-1-.51-.31-.14-.13.12-.13c.45-.31.93-.57 1.44-.77 1.48-.67 2.9-1.47 4.23-2.38a42.41 42.41 0 0 0 9-7.45c3.21-3.76 4.82-7.23 4.8-10.3a5.9 5.9 0 0 0-1.8-4.26 6.4 6.4 0 0 0-4.51-1.85c-3.79.07-8.87 2.52-15.11 7.3l-2.73 2.22 2.47-8 .07-.87-.29-.47-.68-.22-3.32 1.7c-.31.16-.6.36-.85.6a2 2 0 0 0-.44 1l-3.31 12-2.78 3.18a84.12 84.12 0 0 0-4 5.17 55.62 55.62 0 0 0-8 15 35.52 35.52 0 0 0-1.49 5.79c-.24 1.1-.34 2.23-.32 3.36l.19 1.8c.31 1.35.95 1.64 1.4 1.64h.08a2.44 2.44 0 0 0 1.52-.74l2.24-2a39.26 39.26 0 0 0 3.17-3.73 46.11 46.11 0 0 0 3.22-5 65 65 0 0 0 2.92-6.11c1.76-4.19 3.57-9.25 5.39-15l.91-3a99.39 99.39 0 0 1 9.3-7.48A40.26 40.26 0 0 1 181 6.53a8.08 8.08 0 0 1 3.39-.79c2.19.08 3.19 1.08 3.17 3.17 0 3-1.88 6.48-5.59 10.4a41.88 41.88 0 0 1-10.24 7.41l-1.54.83c-1.51.77-2.28 1.7-2.28 2.74 0 1.04.71 2.05 2.2 2.74l4.41 2c2.8 1.39 4.18 3.3 4.22 5.82 0 3.11-1.8 5.36-5.49 6.89-2 .84-5.4 1.27-10.06 1.27l-3.81-.1h-3c-.55 0-1.08.22-1.47.61l-1.58 1.73-.49 1 .58.52.82.22 1.3.05 5.59-.1c3.24.02 6.47-.35 9.62-1.11a18.13 18.13 0 0 0 8.2-4.83c2.68-2.7 4.08-5.5 4.15-8.31a7 7 0 0 0-1.32-3.93 9.91 9.91 0 0 0-2.99-2.91zm-30.91 19v-.18c.26-1.94.69-3.85 1.28-5.72a66.14 66.14 0 0 1 9.38-18.67l.74-1-.08.28a105.23 105.23 0 0 1-5 13.65c-1 2.19-2.08 4.38-3.21 6.5l-1.75 3-1.36 2.14zm50.51-10.64c0-2.39-.64-3.63-2.06-3.7-1.42-.07-3.08 1.5-4.92 4.5l-2 3.21-.69 1.06 1-3 1.23-3.57.5-1.25.16-.57-.43-.4-2.64.93-.77.3a1 1 0 0 0-.58.44c-.16.27-.24.58-.23.89l-.39 2-.95 4-1.3 4.47-.78 2.42-.08.4.09.31.25.16.66.09h2c.2-.01.37-.11.48-.27l.18-.31.7-1.61a39.61 39.61 0 0 1 2.59-4.89c1.78-3 3.18-4.86 4.17-5.59l.29-.08.23.07.14.24v.62c-.02.46-.1.9-.24 1.34l-.74 2v.23l.05.21.29.19h.05c.27 0 .54-.1.75-.28l1.66-1 .69-.52.35-.4c.15-.38.24-.77.26-1.18l.03-1.46zm9.69 6.84l-.26-.43-.49-.25-.44.34-.64.8-1.18 1.36-1.53 1.55c-.22.2-.46.37-.72.51h-.23a.38.38 0 0 1-.3-.08c-.18-.2-.27-.46-.27-.72l.09-.75.38-1.4 3.21-10.2.1-.52a.72.72 0 0 0-.57-.76l-.71.18-1.65.47c-.3.1-.58.26-.82.47-.22.23-.37.51-.45.82l-2 6.85-.9 3.21c-.24.8-.36 1.64-.36 2.48.07 1.65.86 2.49 2.37 2.49h.08a4 4 0 0 0 2.57-1.1 38.12 38.12 0 0 0 4.51-4.73.88.88 0 0 0 .25-.55l-.04-.04zm-1.27-15.14a2.39 2.39 0 0 0 2.53-2.62c-.09-1.72-.94-2.62-2.54-2.69a2.49 2.49 0 0 0-2.59 2.7 2.42 2.42 0 0 0 2.6 2.61zm13.54 4.46c.27-.24.5-.53.67-.85l.12-.61c0-.89-.48-1.39-1.48-1.44-1.36 0-2.35.85-3 2.47l-.47 1.2-.36.71-.63.7-5 5.14-.54.62-.16.46c-.04.2.04.4.2.52l.41.2h.05a.9.9 0 0 0 .59-.36l.74-.69 4.65-4.69.28 1.06.54 2.42c.2 1.14.3 2.29.3 3.44l-.07 1.46c-.26 2.15-1.12 3.23-2.62 3.29-.5.04-1-.14-1.36-.49l-1-.95a3.68 3.68 0 0 0-2.69-1.28c-.7-.05-1.37.32-1.7.95l-.08.45c0 .9.64 1.69 2 2.34.94.43 1.97.63 3 .6h.17c4 0 6.63-1.61 7.72-4.79.31-.8.48-1.66.48-2.53 0-.84-.12-1.68-.34-2.5a17 17 0 0 0-.86-2.53l-.71-1.41-.66-1.19 1-1 .81-.72zm8.2 8.22L232 34.42h3.79l.63-.07a1 1 0 0 0 .42-.37l.21-.5.09-.7-.73-.27h-4l3-9.42c.21-.54.36-1.1.43-1.68l-.15-.38a1.51 1.51 0 0 0-.73-.29l-.91.1-1.31.3c-.32.07-.63.2-.9.4-.24.3-.42.63-.52 1l-2.93 10h-1.93l-.42.07a.7.7 0 0 0-.34.29l-.25.55-.19.59.24.37h2.43l-3.32 10.23-.74 2.61a12.4 12.4 0 0 0-.5 3.14 3 3 0 0 0 .69 2.21c.63.58 1.47.88 2.32.83a7.41 7.41 0 0 0 4.54-1.83l2-1.63c.5-.38.95-.83 1.33-1.34l.21-.4v-.29l-.15-.38-.31-.24-.25-.09a1.4 1.4 0 0 0-.86.43l-2 1.77a5 5 0 0 1-3 1.51.65.65 0 0 1-.49-.14.89.89 0 0 1-.22-.64c0-.66.14-1.32.38-1.93l.99-3.64zM248 36.5c-2.7 0-5.46 1.33-8.21 3.94-2.75 2.61-4 5.21-4 8a4.43 4.43 0 0 0 1.64 3.66 6.1 6.1 0 0 0 4 1.38h.14a9.6 9.6 0 0 0 4.24-1 14.06 14.06 0 0 0 5.32-4.51 11 11 0 0 0 2.34-6.42 4.73 4.73 0 0 0-1.62-3.6A5.37 5.37 0 0 0 248 36.5zm-6.48 15.3c-.23.03-.45-.01-.66-.11l-.5-.32-.36-.53c-.18-.38-.27-.8-.27-1.22.1-2.43.86-4.79 2.2-6.82 1.82-3.08 3.63-4.65 5.37-4.65 1.51.11 2.24.82 2.24 2.18a10.5 10.5 0 0 1-.77 3.53c-1.97 5.27-4.39 7.94-7.2 7.94h-.05zm37.37-49.38A2.11 2.11 0 0 0 277 1c-1.55-.05-3.41 1.89-5.7 5.91a67.12 67.12 0 0 0-2.57 4.82 82.79 82.79 0 0 0-3.13 7c-.89 2.15-1.73 4.41-2.5 6.72-.68 2-1.81 5.6-3.38 10.72l-1.18 3.87-2.37 2-.39.37c-.14.12-.2.3-.18.48-.05.22.01.46.16.63.13.12.31.17.49.14.21 0 .41-.09.57-.23l1-.76-.82 3.21a15.8 15.8 0 0 0-.71 4.58c0 2 1 3 3 3h.19a7.49 7.49 0 0 0 4.21-1.8l2-1.68 1.65-1.56c.23-.21.37-.5.39-.82l-.16-.42a.94.94 0 0 0-.32-.15l-.45.27-2.38 2-1.36 1-1 .53c-.25.1-.52.17-.79.19l-.44-.12-.35-.3c-.09-.2-.14-.42-.15-.64l.21-1.46c.56-2.5 1.23-5 2-7.37l1.86-5.33 1.6-2.38 3-3.94 2.85-4.31a65.78 65.78 0 0 0 4.65-8.37 33.1 33.1 0 0 0 2.9-12.21 11 11 0 0 0-.51-2.17zm-1.19 2.26c-.16 3.29-1.41 7.58-3.72 12.75a79.35 79.35 0 0 1-4 7.87 65.4 65.4 0 0 1-4 6.07l-.63.84.78-2.56 2.07-6.54 1.24-3.69 1.79-5.11c3.41-8.72 5-10.67 5.8-10.77h.05c.2 0 .46.08.56.56l.06.58z"/></g></svg>