<svg xmlns="http://www.w3.org/2000/svg" width="534.03" height="129.4"><defs><clipPath id="a"><path fill="none" d="M-157.72-329.73h806.95v790.69h-806.95z"/></clipPath></defs><g clip-path="url(#a)"><path d="M275.09 72.91L254.83 22l-20.14 50.6c5.24-.16 10.54-.26 16-.26q12.55 0 24.44.6m168.15 51.65A465.13 465.13 0 0 0 293.61 87l17.47 42.43h-13.52l-17.24-43.37c-9.64-.53-19.52-.83-29.65-.83q-10.78 0-21.18.43l-17.41 43.74h-13.53l17.71-43A468.57 468.57 0 0 0 58 124.54v-2.67c30.39-17 60.43-29.62 92.87-37.89v-26L114.38 1.86H128l29 46.6 29-46.6h13.5L163 57.94v23.19a385.85 385.85 0 0 1 58.72-8L251.8 0h6l30.35 73.75a374.65 374.65 0 0 1 57.77 9V11.61H316.1V1.86h72v9.76h-29.79V86c29.43 8.22 57 20.18 84.93 35.93zM491.51 1.86h-72v9.76h29.84v87.93h12.35V11.61h29.84zM78 99.55H65.62V51.36H12.35v48.2H0V1.86h12.35v39.75h53.27V1.86H78zM524.1 9.46a5.9 5.9 0 0 0-2.85-.52h-2v4.89h2.13a6.52 6.52 0 0 0 2.26-.3 2.11 2.11 0 0 0 1.39-2.1 2.06 2.06 0 0 0-.91-2m-2.54-2.11a10.58 10.58 0 0 1 3.66.47 3.35 3.35 0 0 1 2.07 3.41 3 3 0 0 1-1.3 2.66 5.1 5.1 0 0 1-1.95.64 3.25 3.25 0 0 1 2.32 1.31 3.82 3.82 0 0 1 .72 2.09v2a2.18 2.18 0 0 0 .12.71l.08.16h-2.2v-.13-.16l-.06-.43V19c0-1.54-.44-2.57-1.27-3.07a5.79 5.79 0 0 0-2.63-.43h-1.86v5.29h-2.38V7.35zm-7.19-.69a10.18 10.18 0 0 0-3.07 7.46 10.27 10.27 0 0 0 3 7.49 10.5 10.5 0 0 0 14.89 0 10.29 10.29 0 0 0 3.06-7.49 10.24 10.24 0 0 0-3.06-7.46 10.51 10.51 0 0 0-14.88 0m16.07 16.11a12.19 12.19 0 0 1-17.31 0 11.9 11.9 0 0 1-3.54-8.67 11.75 11.75 0 0 1 3.58-8.63 12.21 12.21 0 0 1 17.26 0A11.67 11.67 0 0 1 534 14.1a11.82 11.82 0 0 1-3.59 8.67" fill="#4b77a9"/></g></svg>