<svg xmlns="http://www.w3.org/2000/svg" viewBox="0 0 371.1 195.8"><path d="M133.7 195.2h-3.1v-11.8h-11.7v11.8h-3v-24.9h3V181h11.7v-10.7h3.1zM158.2 182.8c0-3.2-.4-5.6-1.1-7.1-1.1-2.2-3.1-3.3-6.1-3.3-2.9 0-4.9 1-6.1 3.1-.8 1.6-1.2 4-1.2 7.3 0 3.4.4 5.8 1.2 7.3 1.1 2.2 3.1 3.2 6.1 3.2 3 0 5-1.1 6.1-3.4.8-1.5 1.1-3.9 1.1-7.1m3.1 0c0 3.7-.5 6.5-1.5 8.4-1.6 3-4.5 4.6-8.7 4.6-4.2 0-7.1-1.5-8.7-4.5-1-1.9-1.5-4.8-1.5-8.5s.5-6.5 1.5-8.4c1.6-3 4.5-4.5 8.7-4.5 4.2 0 7.1 1.5 8.7 4.5.9 1.9 1.5 4.7 1.5 8.4M183.7 172.8l-7.1-.3v22.7h-3v-22.7l-7.2.3v-2.5h17.3zM206.1 195.2h-14.8v-24.9h14.5v2.5l-11.4-.4v8.9l8.9-.3v2.6l-8.9-.4v10l11.7-.4zM229.2 195.2h-14.7v-24.9h3v22.9l11.7-.4zM250.6 188.5c0 2.5-.9 4.4-2.6 5.6-1.4 1-3.4 1.5-5.9 1.5-2.3 0-4.5-.4-6.7-1.2l-1.6-.6.9-2.4 2.1.8c1.6.6 3.2.9 5 .9 1.7 0 3.1-.3 4.1-1 1.2-.8 1.8-1.9 1.8-3.5 0-2.1-1.1-3.5-3.3-4.3-2-.6-4-1.2-6.1-1.8-2.2-1-3.3-2.8-3.3-5.5 0-4.5 2.6-6.8 7.9-6.8 1.7 0 3.7.2 5.9.7l1.3.3-.6 2.4-1.6-.3c-2.2-.4-3.8-.6-5-.6-3.3 0-4.9 1.5-4.9 4.4 0 1.7 1.1 2.9 3.3 3.6 2 .6 4 1.3 6.1 1.9 2.1 1 3.2 3.1 3.2 5.9M231.3 135.3H229l3.5-11.4 1.9-5.6 1.8 5.6 3.8 11.4h-8.7zm5.5-21.9h-4.9l-13.4 36.8 5 .1 4.3-11.4h13.1l4.5 11.3h5l-13.6-36.8zM311.2 147.2c-1.4 0-6.5-.7-8.3-3.8-1.3-2.3-1.9-6.2-1.9-11.6 0-5.7.7-9.6 2-11.9 1.5-2.4 3.9-3.5 8.1-3.5 2.8 0 6.3 1.5 8.2 3l2-2.9c-.4-.3-4.8-3.9-10.5-3.9-5.3 0-9.1 1.5-11.4 4.4-2.3 3-3.4 7.9-3.4 14.7 0 6.5 1.1 11.2 3.2 14.3 2.8 4 6.9 4.9 11.7 4.9 5.4 0 9.5-3.1 10.5-3.9l-2.1-2.8c-2 1.5-4.3 3-8.1 3m-165.6 2.9h4.9v-36.8h-4.9v36.8zm32.3-18.9c-3.4-1.9-6.1-1.8-9.1-2.8-3.3-1-4.9-2.8-4.9-5.3 0-4.3 2.5-6.5 7.3-6.5.2 0 2.1 0 3.9.6 1.8.6 3.5 1.7 4 3.5l3.1-1.2c-1.1-3.5-3.9-5.1-6.2-5.8-2.4-.8-4.4-.8-5-.8-6.5 0-11.7 3.4-11.7 10.1 0 3.9 1.5 6.2 4.9 8.1 3.4 1.9 6.1 1.8 9.1 2.7 3.3 1.2 4.9 3.3 4.9 6.3 0 2.3-.9 4.1-2.7 5.2-1 .7-2.4 1.2-4.9 1.3-4.8.1-7.7-3-8.1-4.3L159 144c1.4 4.3 7.1 6.6 11.6 6.6 2.8 0 6.1-.7 8.2-2.2 2.6-1.8 4-4.5 4-8.2 0-4.2-1.6-7.1-4.9-9m30.5 0c-3.4-1.9-6.1-1.8-9.1-2.8-3.3-1-4.9-2.8-4.9-5.3 0-4.3 2.5-6.5 7.3-6.5.2 0 2.1 0 3.9.6 1.9.6 3.5 1.7 4.1 3.5l3.1-1.2c-1.1-3.5-3.9-5.1-6.2-5.8-2.4-.8-4.4-.8-5-.8-6.5 0-11.7 3.4-11.7 10.1 0 3.9 1.5 6.2 4.9 8.1 3.4 1.9 6.1 1.8 9.1 2.7 3.3 1.2 4.9 3.3 4.9 6.3 0 2.3-.9 4.1-2.7 5.2-1 .7-2.4 1.2-4.9 1.3-4.8.1-7.7-3-8.1-4.3l-3.6 1.6c1.4 4.3 7.1 6.6 11.6 6.6 2.8 0 6.1-.7 8.3-2.2 2.6-1.8 3.9-4.5 3.9-8.2.1-4.1-1.5-7-4.9-8.9m73.4 6.9l.1 5.9h-.2l-3-5.7-16.1-24.9h-5.3v36.8h4.9v-24.8l-.2-5.8h.1l3.1 5.8 16 24.8h5.3v-36.8h-4.9l.2 24.7zm53.4 9v-14.6l14.6.5v-4l-14.6.5v-13.1l18.7.6v-3.6h-23.6v36.8h24.1v-3.6l-19.2.5zm-293-14.7l14.6.5V129l-14.6.5v-13.1l18.7.6v-3.6H37.2v36.8h24.1v-3.6l-19.2.5v-14.7zm77.9 2.9h-2.3l3.5-11.4 1.9-5.6 1.8 5.6 3.8 11.4h-8.7zm.5-21.9l-13.4 36.8 5 .1 4.4-11.4h13.1l4.5 11.3h5l-13.6-36.8h-5zM15 130l-10.1.5v-14l11.2.4c1.8.1 3.2.7 4.2 1.8 1 1.2 1.5 2.5 1.5 4.2 0 1.9-.6 3.4-1.8 4.8-1.2 1.5-2.9 2.2-5 2.3m7.2 9.2c-.7-2.5-1.7-4.7-3.3-6.2 2.1-.6 3.9-1.7 5.3-3.3 1.6-1.9 2.5-4.2 2.5-6.7 0-2.6-.9-4.8-2.6-6.6-2-2-4.7-3-8.1-3H0v36.8h4.9v-16.5H13c1.4.1 2.5 1.3 3.4 2.7 1.1 1.8 1.5 4 2.5 7.1 1 2.9 3.4 6.6 7.9 8.3l1.5-3.6c-4.4-2.4-5.1-5.7-6.1-9m73-1.1l.1 5.9h-.2l-3-5.7L76 113.4h-5.3v36.8h4.9l.1-24.8-.2-5.8h.1l3.1 5.8 16 24.8h5.3v-36.8h-4.9l.1 24.7zM365.6 116.5h-1.2v2.2h1.2c.7 0 1.2-.5 1.2-1.1-.1-.6-.5-1.1-1.2-1.1m1.2 5.5l-1.4-2.6h-.9v2.6h-.9v-6.3h2.1c1.1 0 2 .8 2 1.9 0 .9-.6 1.5-1.4 1.7l1.5 2.7h-1zm-1.4-8c-2.6 0-4.8 2.2-4.8 4.9s2.2 4.9 4.8 4.9c2.7 0 4.8-2.2 4.8-4.9s-2.2-4.9-4.8-4.9m0 10.6c-3.2 0-5.7-2.6-5.7-5.8 0-3.2 2.6-5.8 5.7-5.8 3.2 0 5.7 2.6 5.7 5.8 0 3.3-2.6 5.8-5.7 5.8M231 79.8l-1.4.3c-9.2 3-13.3 2.9-17.6 1-8.1-3.7-10.5-8.9-12.9-13.8-2.3-4.8-4.1-10.3-10.6-15.7-3.2-2.7-7.7-4.1-9.7-5.2a32 32 0 0 0 10.5-3.5c2.4-1.3 3.8-2.3 5.5-4.2 1.8-1.8 3.9-5.3 4.5-7.9 1.6-6.5.9-9.2.6-11.7-1.1-4.6-2.2-6.9-4.1-9.3-4-5.1-11.3-7-15-7.9-6.7-1.4-8-1.4-14.8-1.6-6.2-.1-7.2-.2-17 0-2.6.1-7.2.2-9.7 1-.9.3-.8 1.9.1 2.3 4.8 2 6.4-2.1 7.2 3 1.2 8.2.8 8.6 1.1 18 .2 9.3 0 9.4.3 18.7.2 9.4-.1 9.4.1 18.7 0 1.6.5 14.2-1 17.8-.3.7-.6 1.3-.9 1.7-.4.6-.9 1.4-3 1.5h-.3c-1.7.1-2.4.2-2.5.2-.8.2-1.5.6-1.6 1.3-.4 1.6-.1 1.8 1.7 1.9 1.9.1 7 .1 15.3.1 5.2 0 6.7-.1 9.1 0 .7 0 1.6.1 2.2.1.8 0 2.6 0 3.9-.1.9-.1 1-1 1-1.6l-.1-.8c-.1-.4-.6-.9-3.2-1.1-.8-.1-.9-.1-1.8-.2-1.7-.2-2.8-.9-3.2-1.1-.2-.1-1.1-.8-1.8-1.4-2.5-2.3-1.7-6.8-1.9-15.1-.2-8.3-.5-7.7-.1-16.1.2-3.7 8.6-2.9 9.7-2.9 4.1-.1 7.7 2.8 11.1 10.5 1.9 4.3 4.2 10.8 8.4 16.9 3.3 4.7 6.4 9.4 13.2 12 4.2 1.6 12.2 1.8 19.1.2 6-1.8 8.9-3.8 9.5-4.2.7-.9.4-1.6.1-1.8m-59.2-36.2c-3.2 0-4.4-.1-7.6-.1-2 0-3.3-.9-3.5-2.9-.4-5.5 0-6.9-.2-16.3s.2-9.9 0-17.3c-.1-1.9 1.5-2.5 3.4-2.6 3-.2 2.7-.2 5.5-.2 2.4 0 5.7.3 9.1 1.6 2.1.8 4 2.3 5.4 3.9 2.4 3 4.4 7 4.5 14.1 0 3.4 0 4.4-.9 7.2-.8 2.7-2.1 4.5-3.5 6.2-1.5 1.8-3.3 2.9-5.3 4.2-2.1 1.2-3.9 2.2-6.9 2.2"/></svg>