<svg data-name="Layer 1" xmlns="http://www.w3.org/2000/svg" width="240" height="198.75"><path d="M16.27 198.75a19.58 19.58 0 0 1-6.54-.95c-2.69-.95-4.89-2.7-6.44-2.7-1 0-1.7.85-1.9 2.7H0v-13.38h1.4c2.1 8.24 7 12.58 14.53 12.58 7.24 0 11-2.75 11-7.14s-3-5.69-13.73-6.24C4.79 183.17.45 178.77.45 171.89S6 159.71 13.53 159.71H14a19.88 19.88 0 0 1 6 .9c1.7.5 5.89 2.74 6.59 2.74 1 0 1.3-.49 1.4-2.74h1.44v12.18H28c-1.7-6.84-7.24-11.38-14-11.38-6.09 0-9.14 2.85-9.14 6.29 0 5.74 7.19 5 13.58 5.64 8.09.75 13.38 4.29 13.38 12.54 0 7.64-6.24 12.88-15.58 12.88M52.26 197.8v-1.75h3.25v-17.82c0-3.54-1.75-5.59-5.09-5.59-2.75 0-5.79 2.85-5.79 5.59v17.82h3.29v1.75H32.69v-1.75h3.24v-33.7h-3.24v-1.75h11.93v13.23a10.1 10.1 0 0 1 8.19-3.6c8.84 0 11.39 4.34 11.39 9.79v16h3.29v1.75H52.26M88.2 182.67c0-5.39-.8-10.88-5.54-10.88-3.54 0-6.29 5.49-6.29 10.88H88.2m-20.57 2.14c0-9.09 6.24-14.58 15.13-14.58 8.34 0 12.83 5.54 13.08 14.18H76.32c0 7.79 3.15 11.88 8.29 11.88 3.44 0 9.74-2.2 9.74-8.79v-.15h1.5v.35c0 5.84-4.84 11-13.43 11s-14.78-4.89-14.78-13.93M118.4 172.33a1 1 0 0 1 .4.05 3.51 3.51 0 0 0-1.9-.6c-6.09 0-8.14 6-8.14 11.83V196h3.29v1.75H96.83V196h3.25v-23.12h-3.25v-1.75h11.93v2.7a9.35 9.35 0 0 1 7.84-3.6 5.73 5.73 0 0 1 5.89 6.14 4.07 4.07 0 0 1-4.09 4 4 4 0 0 1 0-8.09M140.06 182.37a13.55 13.55 0 0 1-3.74 2.2c-4 1.85-5 3.24-5 6.44 0 2.75 1.1 5.3 4 5.3 2.3 0 4.74-2.25 4.74-4.5v-9.44m-7.84-4.54a3.93 3.93 0 0 1-4 3.94c-2.7 0-4-2-4-4.54 0-4.24 4.94-7 12.38-7 10.69 0 12.68 3.79 12.68 11.78V192c0 2.24.15 3.59 1.95 3.59s2.3-1.94 2.3-5.74v-.55h1.45v.8c0 7.79-3.24 8.69-7.69 8.69a6.14 6.14 0 0 1-6.39-4.44c-1.45 2.89-5.24 4.44-9 4.44-6.64 0-9.24-3.34-9.24-7.54 0-7.34 7.74-7.29 13.13-8.74 3.1-.85 4.59-2.44 4.59-4.94 0-3.44-2.54-5.44-6.44-5.44a9.29 9.29 0 0 0-5.34 1.8 3.93 3.93 0 0 1 3.64 3.94M157.43 190.06v-17.18h-3.24v-1.75c5 0 8.64-3.6 9.74-9.24h2v9.24h4.94v1.75H166V192c0 2.4 1.29 3.59 3 3.59s3-1.95 3-5.74v-.55h1.5v.8c0 6.94-3.19 8.69-8.34 8.69s-7.79-1.75-7.79-8.69M189.48 171.79c-4.39 0-6.14 4.74-6.14 13s1.75 12.33 6.14 12.33c4.09 0 6.14-3.95 6.14-12.33s-2.05-13-6.14-13m.05 27c-8.44 0-14.83-4.9-14.83-13.93s6.39-14.58 14.78-14.58c9.29 0 14.78 5.49 14.78 14.58s-6.19 13.93-14.73 13.93M224.77 197.8v-1.75H228v-17.82c0-3.54-1.75-5.59-5.1-5.59-2.75 0-5.79 2.85-5.79 5.59v17.82h3.3v1.75H205.2v-1.75h3.24v-23.17h-3.24v-1.75h11.93v2.7a10.11 10.11 0 0 1 8.19-3.6c8.83 0 11.38 4.34 11.38 9.79v16h3.3v1.75h-15.23M105.18 129.36c-3.92 0-7.11 1.6-9.24 2.13-1.17.32-4.56 1.27-7.32 0-.53-.21-2.23-.32-.21 1.92a9.53 9.53 0 0 0 2.86 1.91c6.8 3.29 12.84 1.91 20.17-1.38 1.8-.84 4.77-.74 4.77-1.7s-1.59-1.59-2.65-3.07c-4-5.74-9-10.52-15.07-12.75-3.19-1.27-4.67-.32-3.72.53 2.33 2.24 3.5 6.38 6.58 9.88a8.65 8.65 0 0 0 3.82 2.54M115.59 126.28c0-2.23 3.39-5.62 4-7.64.74 2 4 5.41 4 7.64a4 4 0 1 1-8.06 0M115.59 137.33c0 2.23 3.39 5.73 4 7.75.74-2 4-5.52 4-7.75a4 4 0 1 0-8.06 0"/><path d="M85.11 121c-3.6-1.27-7-1-9.23-1.17-1.17-.21-4.46-.32-6.59-2.34-.42-.42-1.91-1.16-.85 1.7a9.5 9.5 0 0 0 1.91 2.54c5.2 5.31 11.15 6.05 18.79 5.42 2-.11 5.31.64 5.52-.32s-1.38-1.7-1.91-3.29c-1.81-6.59-4.67-12.63-9.44-16.67-2.45-2.12-4.25-1.7-3.62-.64 1.39 2.76 1.07 6.91 2.76 11.15a9.72 9.72 0 0 0 2.66 3.62"/><path d="M68.66 106c-2.87-2.23-6.16-2.87-8.07-3.61-1.17-.54-4-1.6-5.42-4-.31-.53-1.48-1.59-1.38 1.27a14.88 14.88 0 0 0 1.21 3.06c3.19 6.15 8.49 8.6 15.72 10.08 1.8.53 4.67 2 5.1 1.28s-.85-1.91-.74-3.61c.11-6.47-.85-12.85-4.14-17.83-1.49-2.76-3.3-2.87-3-1.59.42 2.86-1 6.58-.64 10.93a9.25 9.25 0 0 0 1.38 4"/><path d="M58.67 88c-2-2.87-4.77-4.46-6.26-5.74-1-.74-3.29-2.65-3.72-5.31-.21-.53-1-1.8-1.7.85a19.11 19.11 0 0 0 .21 3.08c1.06 6.68 5.2 10.4 11.25 13.91 1.6 1.06 3.71 3.18 4.36 2.76s-.21-2 .32-3.5c2.13-5.94 3.08-12.1 1.6-17.63-.64-3-2.24-3.5-2.24-2.34-.53 2.76-2.86 5.74-3.82 9.88a8.83 8.83 0 0 0 0 4"/><path d="M55.28 67.47c-.75-3.08-2.77-5.42-3.61-7.12-.43-1-1.91-3.4-1.38-5.94 0-.43-.21-1.92-1.7.21a13.53 13.53 0 0 0-1 2.76c-1.28 6.16 1.17 10.83 5.2 16 1.07 1.38 2.13 4.14 2.76 3.82s.63-1.81 1.59-2.86c3.72-4.57 6.69-9.67 7.12-15 .43-2.76-.74-3.94-1.06-2.87-1.39 2.34-4.57 4.13-6.59 7.43a6 6 0 0 0-1.38 3.5"/><path d="M57.93 48.25c0-3.08-1.17-5.73-1.59-7.43-.21-1.07-.85-3.62.21-5.74.1-.53.21-1.91-1.7-.32-.33.42-.86 1.27-1.49 2.34-2.66 5.3-1.6 10.3.85 16 .64 1.49 1 4.25 1.6 4.14s1.06-1.49 2.12-2.34c4.56-3.29 8.5-7.12 10.3-11.89 1.06-2.44.21-3.83-.32-3-1.81 1.8-5.1 2.65-7.86 5.31a5.28 5.28 0 0 0-2.13 2.86"/><path d="M65.57 31.15c1-3 .53-5.84.64-7.65 0-1.06.1-3.72 1.7-5.52.32-.32.74-1.6-1.38-.64a6.92 6.92 0 0 0-2.12 1.81c-4.14 4.35-4.46 9.45-3.72 15.61.22 1.7-.21 4.35.43 4.46s1.37-1.17 2.75-1.7C69.08 35.72 74 33.06 76.93 29c1.7-2.12 1.38-3.61.53-3-2.23 1.17-5.63 1.17-9 2.86a6 6 0 0 0-2.87 2.24"/><path d="M77.37 17.56a20.38 20.38 0 0 0 2.86-6.16c.42-.74 1.28-3 3.19-3.82.42-.32 1.17-1.27-1-1.06a7.94 7.94 0 0 0-2.34.74c-4.67 2.33-6.58 6.37-8 11.68-.32 1.38-1.49 3.51-1 3.82s1.49-.53 2.66-.53c5 .1 9.87-.53 13.48-3 2-1.17 2.23-2.44 1.38-2.23-2.22.32-5-.74-8.29-.53a5.37 5.37 0 0 0-3.07 1.06"/><path d="M90.74 8.54C92.55 7.05 93.5 5 94.35 3.86c.42-.53 1.59-2.33 3.39-2.76.43-.1 1.17-.84-.63-1.1A5.58 5.58 0 0 0 95 .26C90.53 1.32 88.08 4.5 86 9c-.54 1.06-2 2.76-1.49 3.08.31.32 1.37-.32 2.44 0 4.14 1.06 8.49 1.38 12.11-.11 1.91-.64 2.33-1.7 1.58-1.6-2-.21-4.14-1.59-7.11-2a4.85 4.85 0 0 0-2.76.21"/><path d="M111.55 1.42c-1.38 3-4.89 3.92-5.95 4.25-.85.32-4.46 1.27-7.11-.53 1.38-3 4.88-3.93 5.84-4.25s4.46-1.27 7.22.53M141.5 31.69a4 4 0 0 0 5.2-2.13 4.49 4.49 0 0 0 .63-2.23h3.09v25h-2.23c-3.83-10.41-13.37-20.5-24.54-22.94-11-1.7-23.88-1.49-30.25 8.17-1.81 2.65-.85 8.07 2.54 10 11.36 6.9 23.78 3.71 38.87 5.84 7.63 1.06 16 5.42 19.42 13.91 3.3 8.17 2.66 16.56-.63 22.08-7.76 13.27-22.19 14.55-31.43 14.55-9.66 0-19.33-4.46-27-7.22A4 4 0 0 0 90 98.79a4.75 4.75 0 0 0-.64 2.23h-3.08V74.68c.85 0 1.8 0 3.08.11 3 12.1 12.53 21 22.08 23.79 11 3.29 22.08 2.76 30.69-3.29 3.4-2.33 4.67-7.43 3.4-11.89-1.91-6.69-12.22-8.5-19.65-8.6-15.93-.42-35.24-.21-41-17.73-2.23-8.39-.85-17.63 5.2-23.89 10-9.77 26.76-10.09 39.5-6.16 4.57 1 7.64 3.39 11.9 4.68M134.06 129.36c3.93 0 7.11 1.6 9.35 2.13 1.17.32 4.46 1.27 7.23 0 .52-.21 2.23-.32.2 1.92a9.66 9.66 0 0 1-2.86 1.91c-6.8 3.29-12.85 1.91-20.07-1.38-1.92-.84-4.89-.74-4.79-1.7s1.49-1.59 2.55-3.07c4-5.74 9-10.52 15.08-12.75 3.18-1.27 4.68-.32 3.72.53-2.34 2.24-3.4 6.38-6.58 9.88a8.65 8.65 0 0 1-3.83 2.54"/><path d="M154.13 121c3.6-1.27 7-1 9.23-1.17 1.17-.21 4.57-.32 6.59-2.34.43-.42 1.91-1.16.85 1.7a9.77 9.77 0 0 1-1.9 2.54c-5.21 5.31-11.16 6.05-18.8 5.42-2-.11-5.2.64-5.52-.32s1.39-1.7 1.91-3.29c1.8-6.59 4.67-12.63 9.45-16.67 2.44-2.12 4.24-1.7 3.61-.64-1.38 2.76-1.07 6.91-2.76 11.15a9.75 9.75 0 0 1-2.65 3.61"/><path d="M170.58 106c2.88-2.23 6.16-2.87 8.08-3.61 1.16-.54 4.13-1.6 5.41-4 .32-.53 1.49-1.59 1.39 1.27a15.17 15.17 0 0 1-1.17 3.09c-3.19 6.15-8.5 8.6-15.72 10.08-1.8.53-4.67 2-5.08 1.28s.84-1.91.74-3.61c-.11-6.47.85-12.85 4.13-17.83 1.6-2.76 3.3-2.87 3-1.59-.43 2.86.94 6.58.63 10.93a9 9 0 0 1-1.39 4"/><path d="M180.57 88c2-2.87 4.77-4.46 6.37-5.74.85-.74 3.19-2.65 3.71-5.31.1-.53.85-1.8 1.59.85a15.91 15.91 0 0 1-.1 3.08c-1.06 6.68-5.32 10.4-11.36 13.91-1.6 1.06-3.71 3.18-4.25 2.76s.11-2-.42-3.5c-2-5.94-3.09-12.1-1.6-17.63.74-3 2.23-3.5 2.23-2.34.54 2.76 3 5.74 3.83 9.88a6.51 6.51 0 0 1 0 4"/><path d="M184 67.47c.84-3.08 2.76-5.42 3.6-7.12.43-1 1.91-3.4 1.38-5.94 0-.43.32-1.92 1.8.21a14.18 14.18 0 0 1 .86 2.76c1.27 6.16-1.17 10.83-5.1 16-1.17 1.38-2.23 4.14-2.87 3.82s-.53-1.81-1.49-2.86c-3.81-4.57-6.69-9.67-7.21-15-.43-2.76.74-3.94 1.06-2.87 1.39 2.34 4.57 4.13 6.59 7.43a5.35 5.35 0 0 1 1.38 3.5"/><path d="M181.42 48.25c-.1-3.08 1.07-5.73 1.48-7.43.22-1.07 1-3.62-.1-5.74-.21-.53-.31-1.91 1.59-.32a14.38 14.38 0 0 1 1.48 2.34c2.77 5.3 1.6 10.3-.74 16-.63 1.49-1.06 4.25-1.69 4.14s-1-1.49-2.13-2.34c-4.46-3.29-8.49-7.12-10.3-11.89-1-2.44-.21-3.83.43-3 1.7 1.8 5.1 2.65 7.86 5.31a5.81 5.81 0 0 1 2.12 2.86"/><path d="M173.67 31.15c-1-3-.53-5.84-.53-7.65-.11-1.06-.21-3.72-1.8-5.52-.22-.32-.76-1.6 1.48-.64a8.94 8.94 0 0 1 2 1.81c4.13 4.35 4.46 9.45 3.71 15.61-.21 1.7.21 4.35-.43 4.46s-1.38-1.17-2.66-1.7c-5.3-1.81-10.19-4.46-13.16-8.5-1.7-2.12-1.27-3.61-.53-3 2.23 1.17 5.63 1.17 9 2.86a6 6 0 0 1 2.87 2.24"/><path d="M162.09 17.46a22.69 22.69 0 0 1-2.76-6.16c-.43-.74-1.38-3-3.19-3.83-.42-.31-1.17-1.27 1-1.06a8.85 8.85 0 0 1 2.33.75c4.67 2.33 6.59 6.37 7.86 11.67.31 1.49 1.6 3.51 1.06 3.82s-1.49-.53-2.76-.53c-4.88.22-9.76-.53-13.37-2.87-2.13-1.27-2.23-2.54-1.49-2.34 2.33.32 5.1-.74 8.39-.52a5 5 0 0 1 3 1.06"/><path d="M148.6 8.54a18.71 18.71 0 0 1-3.6-4.78A7.33 7.33 0 0 0 141.6 1c-.43-.11-1.17-.74.64-1a5.41 5.41 0 0 1 2.12.22c4.46 1.06 6.9 4.24 9 8.6.53 1.16 2 2.76 1.49 3.08-.31.42-1.39-.21-2.44.11-4.14 1.06-8.51 1.27-12-.11-2-.64-2.45-1.81-1.7-1.7 2-.21 4.14-1.59 7.11-2a4.85 4.85 0 0 1 2.76.32"/><path d="M127.7 1.42c1.37 3 4.87 3.92 5.94 4.25.85.32 4.46 1.27 7.11-.53-1.38-3-4.88-3.93-5.84-4.25s-4.46-1.27-7.21.53"/></svg>