<svg xmlns="http://www.w3.org/2000/svg" width="200" height="75" version="1"><path d="M18.03213372 29.06897876c-1.40367292-2.86298694-3.98592527-4.60303553-7.18781702-4.60303553-4.26665985 0-7.74928618 3.368815-7.74928618 7.638004 0 3.5939085 2.1345945 5.05322253 5.0532225 6.6238187l4.94194036 2.63789345c1.17857942.7890918 1.8538599 1.459314 1.8538599 2.86551607 0 2.24587668-1.8538599 3.7051907-3.9884544 3.7051907-2.41279994 0-3.7051907-1.40620207-4.77248794-3.36628588L1.86081 46.52763494c1.40367292 3.71024896 5.278316 5.89542627 9.09478888 5.89542627 4.88629925 0 9.04167693-3.70519068 9.04167693-8.70024297 0-4.15537767-2.97679824-6.06234954-6.06487867-7.46602246-3.08808043-1.40367292-6.12051977-2.41532908-6.12051977-4.71684684 0-1.459314 1.34803183-2.58225235 2.75170476-2.58225235 1.459314 0 2.75170475 1.00659788 3.368815 2.30151776l4.0997366-2.19023558M26.27460228 25.2525059h-5.72597386l13.36144873 27.1705553 7.74928618-17.56993835L49.3504793 52.4230612l13.36397786-27.1705553H56.9884833l-7.638004 16.7277346-7.69111597-18.18957776-7.74928618 18.18957776-7.63547487-16.7277346"/><path fill-rule="evenodd" d="M68.88050146 9.6957633c-1.909501 0-3.48262633 1.57312532-3.48262633 3.5382674 0 1.909501 1.57312533 3.4244561 3.48262633 3.4244561s3.4800972-1.5149551 3.4800972-3.4244561c0-1.96261294-1.5705962-3.5382674-3.4800972-3.5382674m2.52661126 15.5567426H66.3538902v26.27776875h5.05322252V25.2525059z"/><path d="M92.06007323 29.06897876c-1.40367293-2.86298694-3.98845442-4.60303553-7.18781702-4.60303553-4.26665985 0-7.74928618 3.368815-7.74928618 7.638004 0 3.5939085 2.1345945 5.05322253 5.05322252 6.6238187l4.94194034 2.63789345c1.17857943.7890918 1.85385992 1.459314 1.85385992 2.86551607 0 2.24587668-1.85385992 3.7051907-3.9884544 3.7051907-2.41279996 0-3.7051907-1.40620207-4.77248795-3.36628588l-4.32230094 1.9600838c1.40367293 3.71024897 5.27831602 5.89542628 9.0947889 5.89542628 4.88629924 0 9.04167692-3.7051907 9.04167692-8.70024298 0-4.15537767-2.97679825-6.06234953-6.06487868-7.46602246-3.08808043-1.4036729-6.12051977-2.41532907-6.12051977-4.71684683 0-1.459314 1.34803183-2.58225235 2.75170475-2.58225235 1.45931402 0 2.75170476 1.00659788 3.36881502 2.30151776l4.0997366-2.19276472M113.60834943 29.06897876c-1.40114378-2.86298694-3.98592527-4.60303553-7.18528787-4.60303553-4.269189 0-7.7492862 3.368815-7.7492862 7.638004 0 3.5939085 2.1345945 5.05322253 5.05322253 6.6238187l4.94194033 2.63789345c1.17857943.7890918 1.85133078 1.459314 1.85133078 2.86551607 0 2.24587668-1.85133077 3.7051907-3.98592527 3.7051907-2.41279994 0-3.70519068-1.40620207-4.77248793-3.36628588l-4.32230094 1.9600838c1.40367292 3.71024897 5.27578687 5.89542628 9.09478887 5.89542628 4.88629926 0 9.04167693-3.7051907 9.04167693-8.70024298 0-4.15537767-2.97679825-6.06234953-6.06487867-7.46602246-3.08808044-1.4036729-6.12051978-2.41532907-6.12051978-4.71684683 0-1.459314 1.34803183-2.58225235 2.75170475-2.58225235 1.459314 0 2.75170476 1.00659788 3.36881502 2.30151776l4.09720743-2.19276472"/><path fill-rule="evenodd" d="M132.5313779 29.29407225c4.99758144 0 8.9835067 4.15537768 8.9835067 9.1529591 0 4.9394112-3.98592526 9.15042998-8.9835067 9.15042998-4.99758142 0-8.9835067-4.21101877-8.9835067-9.15042997 0-5.00011057 3.98592528-9.1529591 8.9835067-9.1529591m0-4.83065817c-7.86056836 0-14.0367292 6.06487867-14.0367292 13.98108812 0 7.91620945 6.17616084 13.97602985 14.0367292 13.97602985 7.86056837 0 14.03672923-6.0598204 14.03672923-13.97602985 0-7.91620945-6.17616086-13.98108813-14.03672922-13.98108813z"/><path d="M156.94264105 29.96429446h4.9394112V25.2525059h-4.9394112V15.1991728h-5.05575166v10.0533331h-2.75170477v4.71178856h2.75170476v21.5659802h5.05575165v-21.5659802"/><path fill-rule="evenodd" d="M168.28836488 35.41206288c.61711026-3.76083178 3.53826742-6.56817762 7.4685516-6.56817762 4.04156636 0 6.62634785 2.63789344 7.2434581 6.56817762h-14.7120097m19.76523223 3.81647286v-.78403352c0-7.80492728-3.93028417-13.98108813-12.29668062-13.98108813-8.47767862 0-12.8025087 6.06487867-12.8025087 14.1480114 0 7.74928617 4.88629925 13.8116357 12.91379088 13.8116357 5.11139275 0 9.71442828-2.63789343 12.18539845-7.18528787l-4.26665985-2.41532908c-1.909501 3.14372152-3.9884544 5.11139275-7.8630975 5.11139275-4.82812902 0-7.86056836-4.21101877-7.91620945-8.70277212h20.0459668v-.00252914z"/><path d="M192.24185867 2.79121h5.05322252v48.73906465h-5.05322253z"/><path fill="#eb2127" d="M123.7299693 19.27614713l3.2550037 2.5797232 5.67286193-5.3895982 5.72597386 5.3895982 3.31317392-2.5797232-9.0391478-8.14130295-8.9278656 8.14130295"/><path fill="#ea2328" d="M9.5367511 62.57503078V57.2183114H7.88016416v13.2830454H9.5367511v-6.3784921h6.32538015v6.3784921h1.65658697V57.2183114h-1.65658697v5.35671938H9.5367511"/><path fill="#ea2328" fill-rule="evenodd" d="M27.8097905 63.52598757c1.56806705 0 2.8174624 1.30503644 2.8174624 2.8731035 0 1.55036306-1.24939535 2.87057434-2.8174624 2.87057434-1.57059618 0-2.81999154-1.31768213-2.81999154-2.87057434 0-1.5705962 1.24939536-2.8731035 2.81999154-2.8731035m0-1.51748423c-2.46844103 0-4.40576257 1.90191358-4.40576257 4.3880586 0 2.48361586 1.93732154 4.38805858 4.40576257 4.38805858 2.4659119 0 4.40323344-1.9044427 4.40323344-4.38805858 0-2.486145-1.93732155-4.3880586-4.40323344-4.3880586z"/><path fill="#ea2328" d="M39.87631935 63.73843536h1.55036307v-1.48207628h-1.55036307V59.102521h-1.58577103v3.15383808h-.86243687v1.48207628h.86243687v6.76292143h1.58577103v-6.76292144"/><path fill="#ea2328" fill-rule="evenodd" d="M47.73435858 65.44560513c.1947438-1.1836377 1.11029263-2.06124943 2.34451315-2.06124943 1.26962848 0 2.0789534.8270289 2.27369722 2.06124943h-4.61821037m6.2039814 1.1962834v-.2453266c0-2.45073706-1.23422052-4.3880586-3.85946825-4.3880586-2.6606557 0-4.0188041 1.90191358-4.0188041 4.44117054 0 2.43303306 1.53518822 4.33747578 4.05421206 4.33747578 1.603475 0 3.04761417-.82955805 3.82406028-2.2610515l-1.34044442-.756213c-.59940627.98636476-1.24939535 1.60347502-2.4659119 1.60347502-1.5149551 0-2.46844102-1.31768215-2.486145-2.73147163h6.29250132z"/><path fill="#ea2328" d="M59.7680086 55.21017393h1.58577095v15.29371175H59.7680086zM72.6135127 63.4526425c-.44007044-.8953157-1.2519245-1.44413917-2.25599325-1.44413917-1.3404444 0-2.43050392 1.05718068-2.43050392 2.3976251 0 1.12546747.66769306 1.58577103 1.58577103 2.07642426l1.55036306.82955804c.3692545.24785576.5817023.45777442.5817023.8953157 0 .70563018-.5817023 1.1634046-1.2519245 1.1634046-.75874212 0-1.1634046-.44007044-1.49725112-1.0571807l-1.3581484.61711026c.44007044 1.16340458 1.65658697 1.85133077 2.85539952 1.85133077 1.53265908 0 2.83769553-1.16340458 2.83769553-2.73147163 0-1.3075656-.93578195-1.90444272-1.90444272-2.34451315-.96866078-.44259958-1.91961757-.75874213-1.91961757-1.48207628 0-.46030356.42236645-.80932493.86243688-.80932493.4577744 0 .86496602.31867168 1.0571807.72333414l1.28733245-.68539705"/><path fill="#ea2328" fill-rule="evenodd" d="M98.01619887 70.5013568h2.04607458l-2.37992112-2.9413903 1.621179-1.90444272-1.0571807-1.09258865-1.55036305 1.79821882-2.7668796-3.3485819c1.11029264-.81185405 2.41532908-1.81339365 2.41532908-3.31570305 0-1.7400486-1.4466683-2.7668796-3.0678473-2.7668796-1.74257774 0-3.06531817 1.07488467-3.06531817 2.90851146 0 1.12799662.70563016 2.11436138 1.46184314 2.90345318l-.8270289.60193542c-1.2696285.91301968-2.32680917 1.83109765-2.32680917 3.5256217 0 2.28634294 1.85133077 3.9125802 4.07191604 3.9125802 1.56806706 0 2.97679826-.90037397 3.980867-2.08148254l1.44413917 1.80074797m-5.0203437-8.63448534l-.44007043-.5639983c-.38695848-.49318238-.79415008-.9888939-.79415008-1.65405783 0-.84726203.6879262-1.41126034 1.47954713-1.41126034.88267 0 1.5528922.5083572 1.5528922 1.44413916 0 .9711899-.91807797 1.51748424-1.58577103 2.04354544l-.2124478.14163186zm-.3515505 2.08148255l2.94139027 3.59643766c-.8270289.8270289-1.81339366 1.76281086-3.04761418 1.76281086-1.26962848 0-2.46844103-1.1836377-2.46844103-2.4532662 0-1.26962847 1.49978026-2.16494417 2.41532908-2.7997584l.15933586-.1062239zM116.6053808 58.69785854h.44007044c1.63888298 0 3.61414163.29843857 3.61414163 2.37486284 0 2.1168905-1.8336268 2.43303306-3.52562172 2.43303306h-.52859034v-4.8078959m2.4153291 6.02441243c1.91961755-.23015177 3.18924603-1.8159228 3.18924603-3.71783638 0-1.2696285-.63481424-2.51902385-1.74510687-3.17154207-1.0571807-.59940628-2.32680917-.61711026-3.5053886-.61711026h-2.0106666V70.5013568h1.65658695V64.8816068h.6879262l3.9125802 5.61974997h2.00813747l-4.19331478-5.77908583zM129.7897897 65.44560513c.19221468-1.1836377 1.1077635-2.06124943 2.34198402-2.06124943 1.26962848 0 2.0789534.8270289 2.27369722 2.06124943h-4.61568123m6.20145227 1.1962834v-.2453266c0-2.45073706-1.2342205-4.3880586-3.85946825-4.3880586-2.6606557 0-4.01627495 1.90191358-4.01627495 4.44117054 0 2.43303306 1.53265908 4.33747578 4.05168292 4.33747578 1.603475 0 3.04761417-.82955805 3.82406027-2.2610515l-1.3404444-.756213c-.59940628.98636476-1.24939537 1.60347502-2.4659119 1.60347502-1.5149551 0-2.4659119-1.31768215-2.48361587-2.73147163h6.28997217z"/><path fill="#ea2328" d="M146.35060105 63.4526425c-.44007043-.8953157-1.24939536-1.44413917-2.25599323-1.44413917-1.33791528 0-2.43050393 1.05718068-2.43050393 2.3976251 0 1.12546747.6702222 1.58577103 1.58577102 2.07642426l1.55036307.82955804c.3692545.24785576.58170228.45777442.58170228.8953157 0 .70563018-.5817023 1.1634046-1.2519245 1.1634046-.75621298 0-1.16340458-.44007044-1.49725112-1.0571807l-1.35561925.61711026c.44007044 1.16340458 1.65658697 1.85133077 2.85287038 1.85133077 1.53265908 0 2.83769553-1.16340458 2.83769553-2.73147163 0-1.3075656-.9332528-1.90444272-1.90191357-2.34451315-.9711899-.44259958-1.9221467-.75874213-1.9221467-1.48207628 0-.46030356.42236644-.80932493.864966-.80932493.45777442 0 .8624369.31867168 1.0571807.72333414l1.28480332-.68539705"/><path fill="#ea2328" fill-rule="evenodd" d="M156.58603225 63.52598757c1.56806705 0 2.81999155 1.30503644 2.81999155 2.8731035 0 1.55036306-1.2519245 2.87057434-2.81999155 2.87057434s-2.8174624-1.31768213-2.8174624-2.87057434c0-1.5705962 1.24939535-2.8731035 2.8174624-2.8731035m0-1.51748423c-2.4659119 0-4.40323344 1.90191358-4.40323344 4.3880586 0 2.48361586 1.93732156 4.38805858 4.40323345 4.38805858 2.46844103 0 4.40576258-1.9044427 4.40576258-4.38805858 0-2.486145-1.93732155-4.3880586-4.40576258-4.3880586z"/><path fill="#ea2328" d="M168.53116236 62.25635908h-1.58577103v8.24752685h1.58577103v-4.05421206c0-1.33791527.2124478-2.9236863 1.91961756-2.9236863.37178364 0 .6879262.0885199.97118992.33637567l.720805-1.4466683c-.38695847-.24532663-.84473288-.40466247-1.3025073-.40466247-1.05718068 0-1.86903475.61711025-2.25599323 1.58577103h-.05311194v-1.34044442M179.59362247 63.73843536h1.55036306v-1.48207628h-1.55036306V59.102521h-1.58577103v3.15383808h-.86243688v1.48207628h.86243688v6.76292143h1.58577103v-6.76292144M191.01269138 63.4526425c-.44007043-.8953157-1.2519245-1.44413917-2.25599324-1.44413917-1.33791527 0-2.43050393 1.05718068-2.43050393 2.3976251 0 1.12546747.67022222 1.58577103 1.58577105 2.07642426l1.55036306.82955804c.3692545.24785576.5817023.45777442.5817023.8953157 0 .70563018-.5817023 1.1634046-1.2519245 1.1634046-.75621298 0-1.16340458-.44007044-1.4972511-1.0571807l-1.35561927.61711026c.44007043 1.16340458 1.65405782 1.85133077 2.85287037 1.85133077 1.5326591 0 2.83769553-1.16340458 2.83769553-2.73147163 0-1.3075656-.9332528-1.90444272-1.90444272-2.34451315-.96866076-.44259958-1.91961755-.75874213-1.91961755-1.48207628 0-.46030356.42236645-.80932493.86243687-.80932493.45777442 0 .86496602.31867168 1.0571807.72333414l1.28733246-.68539705"/></svg>
