<svg xmlns="http://www.w3.org/2000/svg" viewBox="0 0 369 223"><path d="M215 91.8h-4.8v-3.9l-7.6-6.1 2.9-23.7V27.2l-7.2-25L177.8 0l-16 7.7v92.2l-10.9 4.4-13.7-5.5-16.5 6.7v17.2h103.1V101l-8.8-9.2zM200 28v29.7l-2.9 23.9-8 6.3v3.9h-4.8l-3.2 3.4V5.9L194 7.3l6 20.7zM175.6 7.2v95.9l-8.2-3.3V11.1l8.2-3.9zm42.6 109.9h-92v-8l11-4.4 13.7 5.5 13.7-5.5 16.5 6.6v-8.1l5.6-5.8h7.9v-6.7l5.1-4 5 4v6.7h7.9l5.6 5.8v13.9z"/><path d="M196.9 103.2h5.5v8.1h-5.5zM186.8 103.2h5.5v8.1h-5.5zM207 103.2h5.5v8.1H207z"/><path fill="#FFF" d="M222.9 249.1c0-6.4 5.2-11.6 11.6-11.6 6.4 0 11.6 5.2 11.6 11.6 0 6.4-5.2 11.6-11.6 11.6-6.4.1-11.6-5.1-11.6-11.6"/><path d="M81.3 218.1c.2 0 .3-.1.3-.2v-34.4c-5.2 0-6.8.1-8.4.2-1.3.1-1.6.5-1.7 1.3l-1.2 6.9c-1.7-.1-3.4-.2-5.1-.4.2-4.5.4-8.7.7-12.7 2.2 0 4.5.1 7.2.1h25.1c2.9 0 4.7-.1 6.9-.1.2 4 .4 8.1.6 12.6-1.7.1-3.4.3-5.2.4l-1.1-6.9c-.1-.8-.4-1.1-1.7-1.3-1.9-.2-3.3-.2-8.4-.2l-.2 34.6 6.6.2c0 1.5 0 2.9-.1 4.3h-9.9c-3.2 0-6.8.1-10.3.1v-4.3l5.9-.2zM137.3 223.4c-6.7 0-11.8-2.2-15.5-5.7-3.9-3.6-6.4-9.3-6.4-16.4 0-8.8 4.6-16 9.9-19.5 4.3-2.8 9-3.8 14.2-3.8 5 0 9.3 1 13.2 3.8 5 3.4 8.5 10.1 8.5 17.8 0 6.8-2.4 13.7-7.5 18.3-3.8 3.5-9 5.5-16.4 5.5zm1-4.4c3.6 0 7.3-1.4 9.9-4.2 2.6-2.9 4.9-7.7 4.9-14.2 0-5.4-1.6-10.4-4.7-13.8-2.7-3.1-6-4.4-9.8-4.4-3.6 0-6.6 1.3-9.2 3.6-3.1 2.8-5.7 8-5.7 14.9 0 5.5 1.3 10.6 4.9 14.2 2.8 2.7 6.2 3.9 9.7 3.9zM171.6 183.2c0-1.5 0-2.9.1-4.2 5.3 0 11-.1 16.3-.1 4.1 0 6.8.1 10.4 1 4.9 1.3 8.9 5.4 8.9 10.3 0 5.7-4.2 10-9.6 11.9v.4c3.4 1.4 5.2 5.3 8.7 11.6 2.1 3.8 2.8 4.2 3.7 4.3l4.3.3c0 1.3 0 2.6-.1 3.9h-5.8c-1.3 0-4.1.1-5.4.1-2.4-3.1-6.5-11.7-8.6-15.1-1.5-2.3-3.5-3-6.4-3-1.5 0-3.1 0-3.8.2l-.1 13.3 5.9.3c0 1.4 0 2.8-.1 4.2h-18.3c0-1.4 0-2.8.1-4.2l4.6-.3c.2 0 .3-.1.3-.2v-34.5l-5.1-.2zm12.6 17c.7.2 1.9.2 3.6.2 8.3 0 11.6-4.9 11.6-8.6 0-6-4.5-8.6-11.2-8.6-2 0-3.6.1-3.9.3l-.1 16.7zM228.9 218.1c.3 0 .4-.2.4-.3v-34.4l-5.3-.2c0-1.5 0-3 .1-4.2h12.4c7.8 10.9 16.9 24.3 23.8 35h.4c-.1-10.1-.2-20.4-.3-30.6l-6.8-.2c0-1.5 0-3 .1-4.2H271v4.2l-4.4.2c-.1 0-.3.1-.3.3l-.2 38.4c-1.6.6-4 .9-5.9.9-6.9-8.9-16.3-22-24.7-34.5h-.5V218l7.2.2c0 1.5 0 2.9-.1 4.3h-17.7c0-1.4 0-2.8.1-4.3l4.4-.1zM282.6 183.2c0-1.5 0-3 .1-4.3h19.4c0 1.3 0 2.7-.1 4.3l-5.8.2c-.2 0-.2.1-.2.3l-.2 34.4 6.2.2c0 1.5 0 2.9-.1 4.3h-9.5c-3 0-6.5.1-9.8.1 0-1.4 0-2.8.1-4.3l5.3-.2c.3 0 .4-.1.4-.3v-34.3l-5.8-.4zM79.6 150.8v-.3H65.4v.3c-.1 1.4-.2 2.8-.2 4.4v.3h.3c.6 0 1.2.1 1.8.1h.2l.5-2.6c0-.1 0-.2.3-.2.5 0 1-.1 2.6-.1v11.4l-2.1.1v2.1h7.6v-.3-1.8l-2.3-.1.1-11.4c1.6 0 2 0 2.6.1.3 0 .3.1.3.2l.4 2.7.9-.1c.4 0 .8-.1 1.1-.1h.3v-.3c-.1-1.6-.1-3-.2-4.4zM93.6 157c-.9-2.3-1.8-4.5-2.5-6.5l-.1-.2H88.5l-.1.2c-1.4 3.2-3.1 7.3-4.6 10.9l-1.2 2.8-1.5.1v2.1h6.4v-.3-1.8l-2.1-.1c.1-.3.2-.5.3-.8.2-.5.4-1.1.6-1.6h5.8c.3.7.6 1.6.9 2.4l-1.9.1v2.1h6.7v-.3-1.8l-1.6-.1c-.7-2.2-1.7-4.7-2.6-7.2zm-2.1 2.8h-4.3c.4-1.1.9-2.3 1.4-3.5.3-.8.6-1.5.9-2.2.2.7.5 1.4.7 2.1.4 1.1.8 2.4 1.3 3.6zM119.1 164.2v-11.5l1.7-.1v-.3-1.8H115.4l-.1.2c-1.3 3.2-3 7.3-4.5 11.1-.5-1.3-1-2.6-1.6-3.9-1-2.6-2-5.1-2.9-7.2l-.1-.2h-5.6v2.1l1.8.1v4.1c0 2.5 0 5.1-.1 7.3l-1.7.1v2H107v-.3-1.8l-2.2-.1v-4.9-4.8c1.4 3.7 2.9 7.4 4.6 10.9l.1.2h2l.1-.1c1.4-2.9 2.9-6.3 4.7-10.9v9.6l-2 .1v2.1h6.8v-.3-1.8l-2 .1zM134.7 151c-1.4-.4-2.5-.4-4.3-.4h-5.2v2.1l1.8.1v11.5l-1.7.1v2.1h7.5v-.3-1.8l-2.8-.1v-3.5h1.1c1.4 0 2.7-.2 3.7-.7 2-.8 3.2-2.7 3.2-4.7.1-2.2-1.3-3.9-3.3-4.4zm.1 4.5c0 1.2-.4 2-1.4 2.5-.6.3-1.4.5-2.4.5-.6 0-.9-.1-1-.1v-5.8h.9c1.8 0 3.9.5 3.9 2.9zM153 161.5h-.2l-.8 2.2c-.1.3-.2.3-.3.3-.4.1-1.8.2-3.6.2-.2 0-1 0-1.1-.1v-4.8h3.4c.3 0 .3 0 .3.2l.1 1.3H153v-.3-3V155.6h-2.2l-.1 1.3c0 .2 0 .2-.3.2h-3.5v-4.5h.4c1.5 0 3.1.1 3.8.1.3 0 .3.1.3.2l.5 2.2h.3c.6-.1 1.2-.1 1.7-.2h.3v-.3c-.1-1.5-.1-2.7-.2-3.8v-.3H142.1v2.1l1.8.1v11.5l-1.8.1v2.1h12.1l.1-.2c.4-1.4.6-2.7.9-3.9l.1-.3-.3-.1c-.8-.2-1.4-.3-2-.4zM172.9 164.2c-.1 0-.3 0-1.1-1.3l-.4-.8c-.8-1.5-1.4-2.6-2.3-3.1 1.9-.8 3.1-2.4 3.1-4.2 0-1.8-1.4-3.3-3.3-3.8-1.2-.3-2.1-.4-3.7-.4h-6v2.1l1.8.1v11.5l-1.7.1v2.1h6.9v-.4-1.6l-2.1-.1v-4.1h1c1 0 1.5.2 2 .9.3.5.8 1.3 1.2 2.2.6 1.2 1.3 2.4 1.8 3l.1.1H174.5v-.3-1.7l-1.6-.3zm-4-8.9c0 1.3-1.2 2.7-3.7 2.7h-1v-5.3h1.1c1.6-.1 3.6.4 3.6 2.6zM188.8 161.5h-.2l-.8 2.2c-.1.3-.2.3-.3.3-.4.1-1.8.2-3.6.2-.2 0-1 0-1.1-.1v-4.8h3.4c.3 0 .3 0 .3.2l.1 1.3H188.8v-.3V157.6 155.7h-2.2l-.1 1.3c0 .2 0 .2-.3.2h-3.5v-4.5h.4c1.5 0 3.1.1 3.8.1.3 0 .3.1.3.2l.5 2.2h.3c.6-.1 1.2-.1 1.7-.2h.3v-.3c0-1.4-.1-2.7-.2-3.8v-.3H177.9v2.1l1.8.1v11.5l-1.8.1v2.1H190l.1-.2c.3-1.4.6-2.7.9-3.9v-.3l-.3-.1c-.7-.3-1.3-.4-1.9-.5z"/></svg>
