<svg width="511" height="106" xmlns="http://www.w3.org/2000/svg"><path d="M459.703 1.5l22.801 43.069L505.305 1.5h4.2v104h-4V8.513l-23 43.91-23-43.91V105.5h-4V1.5h4.198zm-70.199 0v100h50v4h-54V1.5h4zm-49.107 0h4.21l24.764 104H365.4l-7.105-30h-31.581l-7.105 30h-3.972l24.76-104zm2.107 7.33L327.661 71.5h29.687L342.504 8.83zM274.987 1.5c9.672.682 18.328 5.06 24.553 11.73 6.18 6.622 9.964 15.504 9.964 25.27 0 10.107-4.052 19.267-10.62 25.944-6.46 6.568-15.353 10.734-25.215 11.038l-.549.013-.616.005h-33v30h-4V1.5h39.483zm-2.483 4h-33v66h33l.525-.004c8.905-.139 16.953-3.804 22.81-9.661 5.972-5.972 9.665-14.222 9.665-23.335 0-9.113-3.693-17.363-9.665-23.335-5.972-5.971-14.222-9.665-23.335-9.665h0zm-78-4v4h-50v66h35v4h-35v26h50v4h-54V1.5h54zm-120.002 0v70h46v-70h4v104h-4v-30h-46v30h-4V1.5h4zM54.5 1.5v4h-25v100h-4V5.5H.5v-4h54z" fill="#0B2815" stroke="#E1B490" fill-rule="evenodd"/></svg>