<svg xmlns="http://www.w3.org/2000/svg" width="300" height="95.05"><g fill="#827662"><path d="M91.83 0h-17a6 6 0 0 1 2.92 5.48 25.84 25.84 0 0 1-1.92 8.59l-8.5 23.48L52.08 0h-13.7c3.83 2.92 5.62 8.86 2.83 15.44l-10 23.21L16 0H0c2.56 1.74 4.48 5.76 6.76 11.33l15.62 39.2c2.1 5.3 4.48 8 9.5 10.42L48.15 24.3 59.3 50.53c2.28 5.21 4.57 8 9.59 10.42L91.83 0zM128.06 49.61c-3.93 2.92-8 4.2-13.8 4.2a36.9 36.9 0 0 1-7.86-.73v-15h4.2c5.12 0 6.85.37 8.22 1.92v-8.75H106.4V18.91a46.14 46.14 0 0 1 5.85-.28c4.57 0 7.77.73 9.59 2.74v-9H92.06c2.38 1.28 2.74 3.2 2.74 11.15V49c0 7.95-.37 9.87-2.74 11.15h32.62l3.38-10.51zM166.62 45.32c0-14.62-22.2-13.61-22.2-22.57 0-2.65 2.38-4.93 6.49-4.93 4.38 0 8.13 1.55 12.24 5.48V12.88a43.84 43.84 0 0 0-11.79-1.73c-9.14 0-18.46 5.48-18.46 14.53 0 16.44 22.2 14.07 22.2 23.3 0 3.29-2.92 5.67-8 5.67-5.66 0-11.15-2.28-16.81-7.22l3 11.42A35.89 35.89 0 0 0 146 61.31c11.7 0 20.65-6.4 20.65-16M209.05 12.33H170l-2.65 9c2.92-2 5.57-2.74 10.41-2.74h4.66V49c0 7.95-.37 9.87-2.83 11.15h17.09C194.34 58.84 194 56.92 194 49V18.64h4.11c4.29 0 7.22.64 8.68 2.74zM231.45 60.12c-2.38-1.28-2.74-3.2-2.74-11.15V23.48c0-7.95.36-9.87 2.74-11.15h-17.09c2.38 1.28 2.74 3.2 2.74 11.15V49c0 8-.36 9.87-2.74 11.15zM288.18 12.33h-15.62c3.1 1.67 3.44 5.12 3.44 10.42v19.37l-20-23.76c-2-2.47-3.38-4.29-4.66-6h-13.78c2.83 1.64 4.2 4.75 4.2 11.24v26.1c0 5.3-.37 8.77-3.47 10.42h15.62c-3.11-1.64-3.47-5.12-3.47-10.42V30l20.65 24.48c2.92 3.47 6.67 4.93 13.61 6V22.75c0-5.3.46-8.77 3.47-10.42M26.21 87.21v4.21c0 1 .16 2.75-1 3.19v.07h4.44v-.08c-1.19-.44-1-2.14-1-3.19v-8.78c0-1-.14-2.75 1-3.19v-.07h-4.46v.07c1.19.44 1 2.14 1 3.21v2.88h-8.4v-2.88c0-1.07-.14-2.77 1-3.21v-.07h-4.37v.07c1.19.44 1 2.14 1 3.19v8.79c0 1 .14 2.75-1 3.19v.07h4.42v-.08c-1.16-.44-1-2.14-1-3.19v-4.2zM44.68 80.65c3.68 0 5.84 3.28 5.84 6.67s-2.26 6-5.79 6-6-3.35-6-6.6c0-3.51 2.3-6.12 5.91-6.12m.2-1.6a8.27 8.27 0 0 0-8.72 8c0 4.74 3.88 8 8.49 8a8.3 8.3 0 0 0 8.56-8.18A8 8 0 0 0 44.84 79M64.62 81h2.09c.77 0 1.7.12 2 .93h.07l.74-2.77h-.07a2.57 2.57 0 0 1-1.07.16h-9.24a3.58 3.58 0 0 1-.88-.16h-.07L57.37 82h.07a4 4 0 0 1 2.77-1h2v10.42c0 1 .14 2.75-1 3.19v.07h4.6v-.08c-1.23-.72-1.21-1.63-1.21-3V81zM79.17 87.21h1.72c.72 0 1.7 0 2.07.65H83V85.4a2.39 2.39 0 0 1-1 .14h-2.83v-4.33a13.15 13.15 0 0 1 2.37-.21 3.27 3.27 0 0 1 2.75.93h.07v-2.68h-.07a2.38 2.38 0 0 1-1.09.12h-7.45v.07c1.19.44 1 2.14 1 3.21v8.77c0 1 .14 2.77-1 3.19v.07h9.7l1-3h-.07A5.8 5.8 0 0 1 82.12 93l-3-.28v-5.51zM96.2 92.79V82.65c0-1-.16-2.77 1-3.21v-.07h-4.42v.07c1.19.44 1 2.14 1 3.21v8.77c0 1 .14 2.77-1 3.19v.07h9.56l1.21-3.09h-.07A5.72 5.72 0 0 1 99.36 93l-3.16-.21zM118.74 79.51a11.71 11.71 0 0 0-3.46-.51c-2.84 0-5.84 1.11-5.84 4 0 4.93 8 4.28 8 7.91 0 1.63-2 2.42-3.33 2.42a8.05 8.05 0 0 1-5.11-1.89l.67 2.91a12.08 12.08 0 0 0 4.16.7c3.63 0 6.23-2.32 6.23-4.81 0-4.3-8-4.26-8-7.44 0-1.61 1.67-2.12 3-2.12a5.29 5.29 0 0 1 3.65 1.46v-2.63zM144.95 91.44a4.49 4.49 0 0 1-3.42 2 3 3 0 0 1-3.26-3 4.4 4.4 0 0 1 2.1-3.44l4.58 4.49zm-4.19-7.16c-.63-.56-1.63-1.49-1.63-2.42a1.35 1.35 0 0 1 1.53-1.33 1.47 1.47 0 0 1 1.6 1.42 3.16 3.16 0 0 1-1.51 2.33m12.61 10.4v-.08c-4.4-2-7.81-5.63-11.28-9 1.07-1 2-1.91 2-3.44a3.18 3.18 0 0 0-3.32-3.16 3.47 3.47 0 0 0-3.63 3.23c0 1.3 1 2.4 1.86 3.28-1.7 1.35-3.21 2.72-3.21 5 0 2.88 2.63 4.44 5.26 4.44a5.12 5.12 0 0 0 4.84-2.72 14.48 14.48 0 0 0 2.77 2 4.72 4.72 0 0 0 2.19.37h2.53zM166.71 79.37v.07c1.19.44 1 2.14 1 3.21v8.77c0 1 .16 2.77-1 3.19v.07h4.44v-.07c-1.19-.42-1-2.12-1-3.19V81a11.83 11.83 0 0 1 1.58-.19 2.67 2.67 0 0 1 3 2.58c0 2.19-2.16 3-4 3.33l2.08 3.28 2.84 3.51a3.06 3.06 0 0 0 2.7 1.17h2.14a16.24 16.24 0 0 1-3.77-3.26l-3.35-4.21a4.54 4.54 0 0 0 3.7-4.09c0-2.11-1.7-3.74-4.81-3.74h-5.54zM189.55 87.21h1.72c.72 0 1.7 0 2.07.65h.07V85.4h-.07a2.39 2.39 0 0 1-1 .14h-2.77v-4.33a13.14 13.14 0 0 1 2.37-.16 3.27 3.27 0 0 1 2.75.93h.07v-2.73h-.07a2.38 2.38 0 0 1-1.09.12h-7.44v.07c1.19.44 1 2.14 1 3.21v8.77c0 1 .14 2.77-1 3.19v.07h9.7l1-3h-.07a5.8 5.8 0 0 1-4.3 1.37l-3-.28v-5.56zM212.59 79.51a11.71 11.71 0 0 0-3.46-.51c-2.84 0-5.84 1.11-5.84 4 0 4.93 8 4.28 8 7.91 0 1.63-2 2.42-3.33 2.42a8 8 0 0 1-5.09-1.93l.67 2.91a12.08 12.08 0 0 0 4.16.7c3.63 0 6.23-2.32 6.23-4.81 0-4.3-8-4.26-8-7.44 0-1.61 1.67-2.12 3-2.12a5.29 5.29 0 0 1 3.65 1.46v-2.59zM228.74 80.65c3.68 0 5.84 3.28 5.84 6.67s-2.26 6-5.79 6-6-3.35-6-6.6c0-3.51 2.3-6.12 5.91-6.12m.2-1.6a8.27 8.27 0 0 0-8.72 8c0 4.77 3.88 8.07 8.49 8.07a8.3 8.3 0 0 0 8.56-8.18A8 8 0 0 0 228.9 79M243.66 79.37v.07c1.19.44 1 2.14 1 3.21v8.77c0 1 .16 2.77-1 3.19v.07h4.44v-.07c-1.19-.42-1-2.12-1-3.19V81a11.83 11.83 0 0 1 1.58-.19 2.67 2.67 0 0 1 3 2.58c0 2.19-2.16 3-4 3.33l2.07 3.28 2.84 3.51a3.06 3.06 0 0 0 2.7 1.17h2.14a16.29 16.29 0 0 1-3.77-3.26l-3.35-4.21a4.54 4.54 0 0 0 3.7-4.09c0-2.11-1.7-3.74-4.81-3.74h-5.54zM267.84 81h2.09c.77 0 1.7.12 2 .93h.07l.74-2.77h-.07a2.56 2.56 0 0 1-1.07.16h-9.26a3.62 3.62 0 0 1-.88-.16h-.07l-.8 2.84h.07a4 4 0 0 1 2.77-.93h2v10.35c0 1 .14 2.75-1 3.19v.07h4.61v-.08c-1.23-.72-1.21-1.63-1.21-3V81zM287 79.51a11.71 11.71 0 0 0-3.46-.51c-2.84 0-5.84 1.11-5.84 4 0 4.93 8 4.28 8 7.91 0 1.63-2 2.42-3.32 2.42a8.05 8.05 0 0 1-5.09-1.93l.67 2.91a12.08 12.08 0 0 0 4.16.7c3.63 0 6.23-2.32 6.23-4.81 0-4.3-8-4.26-8-7.44 0-1.61 1.67-2.12 3-2.12a5.3 5.3 0 0 1 3.65 1.5v-2.63zM293.81 18.45v-1.81H295c.62 0 1.27.13 1.27.86 0 .9-.67 1-1.42 1h-1.06zm0 .75h1l1.54 2.53h1l-1.66-2.57a1.52 1.52 0 0 0 1.52-1.61c0-1.15-.69-1.66-2.06-1.66h-2.22v5.84h.88zm1.07 4.68a5.07 5.07 0 1 0-5.15-5.08 5.06 5.06 0 0 0 5.15 5.08m-4.13-5.08a4.11 4.11 0 1 1 8.23 0 4.11 4.11 0 1 1-8.23 0"/></g></svg>