<svg xmlns="http://www.w3.org/2000/svg" width="100" height="40"><path d="M55.02 8.9c-8.9 0-15.62 6.9-15.62 15.46 0 9.01 7.01 15.46 15.62 15.46 8.6 0 15.59-6.45 15.59-15.46 0-8.56-6.7-15.47-15.59-15.47zm0 8.16c3.84-.02 6.98 3.25 6.98 7.3 0 4.02-3.14 7.29-6.98 7.29-3.84 0-6.98-3.27-6.98-7.3 0-4.04 3.14-7.29 6.98-7.29zM99.5 34.4a5.41 5.41 0 1 1-10.82 0 5.41 5.41 0 0 1 10.83 0zm-15.75 4.39h-8.5V.39h8.5zm-83.23 0L15.98.39h7.99l15.2 38.4H28.35l-1.8-5.42h-13.4l-1.8 5.42H.51zm23.45-13.4l-4-12.89-4 12.89h8z"/></svg>