<svg xmlns="http://www.w3.org/2000/svg" xmlns:xlink="http://www.w3.org/1999/xlink" viewBox="0 0 439 432"><defs><linearGradient id="b" x1="13.67%" x2="86.33%" y1="15.11%" y2="84.89%"><stop offset="0%" stop-color="#FF2D84"/><stop offset="100%" stop-color="#FFA53B"/></linearGradient><linearGradient id="d" x1="50%" x2="50%" y1="0%" y2="100%"><stop offset="0%" stop-opacity=".2"/><stop offset="100%" stop-opacity="0"/></linearGradient><linearGradient id="f" x1="50%" x2="96.75%" y1="0%" y2="27.71%"><stop offset="0%" stop-color="#444" stop-opacity=".08"/><stop offset="100%" stop-opacity="0"/></linearGradient><ellipse id="a" cx="219.5" cy="215.8" rx="219.5" ry="215.8"/><path id="e" d="M83.9 70h114a70.5 70.5 0 110 141h-114a70.5 70.5 0 110-141z"/></defs><g fill="none" fill-rule="evenodd"><mask id="c" fill="#fff"><use xlink:href="#a"/></mask><use fill="url(#b)" xlink:href="#a"/><g mask="url(#c)"><path fill="url(#d)" d="M73.57 58.15l292 63.73v233.27h-292z" transform="rotate(-20 479.88 139.7)"/><g transform="translate(118.7 85.3)"><mask id="g" fill="#fff"><use xlink:href="#e"/></mask><use fill="#FFF" transform="rotate(-45 140.9 140.5)" xlink:href="#e"/><circle cx="100.3" cy="167.7" r="87" fill="url(#f)" mask="url(#g)"/></g><path fill="#FFF" d="M188.94 135.64l80.71 80.7L319 266l-49.5 50a70.43 70.43 0 01-99.6 0l-80.66-80.66a70.5 70.5 0 0199.7-99.7z"/></g></g></svg>