<svg xmlns="http://www.w3.org/2000/svg" width="150" height="54.18"><path d="M15.82 35.82V18.5c0-2.14.37-3.73 1.1-4.78.72-1.05 1.83-1.58 3.3-1.58.86 0 1.64.24 2.34.71s1.32 1.19 1.87 2.15a8.58 8.58 0 0 1 3.09-2.16 10.6 10.6 0 0 1 3.96-.7c1.9 0 3.57.34 5.03 1.02a10.2 10.2 0 0 1 3.77 3.04 13 13 0 0 1 4.07-3.1c1.39-.64 2.99-.96 4.81-.96 3.15 0 5.6 1 7.35 2.97 1.75 1.97 2.63 4.76 2.63 8.35v12.36c0 2.12-.37 3.7-1.1 4.72-.73 1.04-1.84 1.55-3.33 1.55-1.5 0-2.6-.5-3.3-1.53-.72-1.03-1.07-2.6-1.07-4.74v-9.74c0-2.26-.33-3.92-.97-4.97-.65-1.05-1.67-1.57-3.05-1.57-1.53 0-2.65.51-3.36 1.55-.71 1.03-1.07 2.66-1.07 4.88v9.85c0 2.12-.36 3.7-1.09 4.72-.73 1.04-1.84 1.55-3.33 1.55-1.5 0-2.6-.51-3.34-1.55-.73-1.03-1.1-2.6-1.1-4.72v-9.74c0-2.28-.31-3.94-.95-4.98-.64-1.04-1.64-1.56-3-1.56-1.53 0-2.65.51-3.36 1.55-.72 1.03-1.07 2.66-1.07 4.88v9.85c0 2.12-.37 3.7-1.1 4.72-.72 1.04-1.83 1.55-3.33 1.55s-2.6-.51-3.32-1.55c-.72-1.03-1.08-2.6-1.08-4.72zm68.21 2.3a9.42 9.42 0 0 1-3.44 3.03c-1.33.66-2.85 1-4.57 1-3.57 0-6.59-1.44-9.05-4.3-2.47-2.87-3.7-6.43-3.7-10.68 0-4.29 1.32-7.9 3.98-10.83 2.66-2.94 5.9-4.4 9.73-4.4 1.5 0 2.82.24 3.98.74A8.36 8.36 0 0 1 84.03 15a5.88 5.88 0 0 1 1.77-2c.7-.5 1.42-.74 2.15-.74 1.51 0 2.63.51 3.35 1.54.72 1.02 1.08 2.59 1.08 4.7v17.33c0 3.19-.16 5.67-.48 7.46a12.24 12.24 0 0 1-6.94 9.26 18.41 18.41 0 0 1-8.08 1.64c-3.8 0-6.91-.6-9.32-1.78-2.4-1.2-3.6-2.7-3.6-4.52 0-1.08.36-1.98 1.08-2.7a3.7 3.7 0 0 1 2.71-1.06c.53 0 1.8.38 3.82 1.15 2.01.76 3.9 1.15 5.64 1.15 2.19 0 3.88-.63 5.08-1.9 1.2-1.26 1.8-3.05 1.8-5.36 0-.11 0-.28-.02-.51l-.03-.53zM72.4 27.17c0 2.16.54 3.9 1.61 5.23a5.1 5.1 0 0 0 4.16 2c1.7 0 3.08-.67 4.18-2.01a8 8 0 0 0 1.64-5.22c0-2.08-.55-3.77-1.64-5.08a5.21 5.21 0 0 0-4.18-1.96c-1.7 0-3.08.65-4.16 1.96a7.75 7.75 0 0 0-1.61 5.08zm25.87 2.8V18.5c0-2.12.36-3.7 1.1-4.71.72-1.03 1.83-1.54 3.33-1.54 1.47 0 2.57.51 3.29 1.54.72 1.02 1.08 2.59 1.08 4.7v9.72c0 2.3.35 3.92 1.06 4.87.71.96 1.87 1.43 3.48 1.43 1.6 0 2.76-.47 3.47-1.43.7-.95 1.06-2.57 1.06-4.87V18.5c0-2.12.36-3.7 1.08-4.71.72-1.03 1.84-1.54 3.35-1.54 1.47 0 2.57.5 3.28 1.52.7 1.02 1.06 2.6 1.06 4.73v11.47c0 4.1-1.14 7.22-3.41 9.39-2.28 2.16-5.58 3.24-9.9 3.24-4.31 0-7.61-1.08-9.9-3.24-2.29-2.17-3.43-5.3-3.43-9.39zm32.66 5.85V18.5c0-2.12.36-3.7 1.07-4.71.72-1.03 1.83-1.54 3.33-1.54.89 0 1.68.23 2.37.68a5.9 5.9 0 0 1 1.83 2.07 9.95 9.95 0 0 1 2.9-2.17 7.08 7.08 0 0 1 3.09-.74 4.4 4.4 0 0 1 3.15 1.27 4.02 4.02 0 0 1 1.33 3c0 1.73-1.62 3.17-4.86 4.33-1.17.4-2.04.74-2.63 1.01a4.78 4.78 0 0 0-2.21 1.72c-.37.63-.55 1.78-.55 3.43v8.97c0 2.12-.36 3.7-1.1 4.72-.72 1.04-1.83 1.55-3.32 1.55-1.5 0-2.6-.51-3.33-1.55-.71-1.03-1.07-2.6-1.07-4.72zm-121.47 0c0 2.14-.36 3.71-1.07 4.74-.71 1.02-1.8 1.53-3.28 1.53-1.5 0-2.6-.51-3.33-1.55-.73-1.03-1.1-2.6-1.1-4.72V18.5c0-2.12.36-3.7 1.08-4.71.72-1.03 1.84-1.54 3.35-1.54 1.48 0 2.57.51 3.28 1.54.71 1.02 1.07 2.59 1.07 4.7z"/><path fill="#89c623" d="M0 5c0-1.38.5-2.55 1.5-3.53S3.7 0 5.11 0c1.38 0 2.57.49 3.55 1.47a4.8 4.8 0 0 1 1.48 3.52c0 1.39-.49 2.56-1.46 3.52A4.89 4.89 0 0 1 5.1 9.96 5 5 0 0 1 0 4.99z"/></svg>