<svg xmlns="http://www.w3.org/2000/svg" width="300" height="300.01"><defs><clipPath id="a"><path fill="none" d="M-424.52-138.45H627.84v744.1H-424.52z"/></clipPath></defs><g clip-path="url(#a)"><path fill="#00b900" d="M245.1 1H55.32A54.21 54.21 0 0 0 1 54.9v189.78C1 274.49 25.1 299 54.9 299h189.79A54.21 54.21 0 0 0 299 245.1V55.32A54.2 54.2 0 0 0 245.1 1"/><path fill="#fff" d="M258 136.9c0-48.55-48.67-88-108.5-88S41 88.35 41 136.9c0 43.52 38.6 80 90.74 86.87 3.53.76 8.34 2.33 9.56 5.35 1.09 2.74.72 7 .35 9.81l-1.55 9.29c-.47 2.74-2.18 10.73 9.4 5.85s62.49-36.79 85.25-63C250.48 173.83 258 156.33 258 136.9"/><path fill="#00b900" d="M127.47 113.44h-7.61a2.11 2.11 0 0 0-2.12 2.11v47.28a2.11 2.11 0 0 0 2.12 2.11h7.61a2.11 2.11 0 0 0 2.11-2.11v-47.28a2.11 2.11 0 0 0-2.11-2.11m52.38 0h-7.61a2.11 2.11 0 0 0-2.11 2.11v28.09l-21.66-29.26-.16-.21-.13-.13-.11-.09h-.05l-.11-.07h-.06l-.11-.06h-.07l-.12-.05h-8.39a2.11 2.11 0 0 0-2.12 2.11v47.28a2.11 2.11 0 0 0 2.12 2.11h7.61a2.11 2.11 0 0 0 2.12-2.11v-28.41L170.51 164a2.09 2.09 0 0 0 .54.52l.13.08h.46a2.11 2.11 0 0 0 .54.07h7.61a2.11 2.11 0 0 0 2.11-2.11v-47.01a2.11 2.11 0 0 0-2.11-2.11m-70.66 39.66H88.45v-37.55a2.11 2.11 0 0 0-2.11-2.11h-7.62a2.11 2.11 0 0 0-2.11 2.11v47.27a2.1 2.1 0 0 0 .59 1.46 2.1 2.1 0 0 0 1.46.59h30.4a2.11 2.11 0 0 0 2.11-2.12v-7.61a2.11 2.11 0 0 0-2.11-2.11m112.82-27.75a2.11 2.11 0 0 0 2.11-2.11v-7.61a2.11 2.11 0 0 0-2.11-2.12h-30.4a2.1 2.1 0 0 0-1.46.6 2.1 2.1 0 0 0-.59 1.46v47.27a2.1 2.1 0 0 0 .59 1.46 2.1 2.1 0 0 0 1.46.59h30.41a2.11 2.11 0 0 0 2.11-2.11v-7.61a2.11 2.11 0 0 0-2.11-2.11H201.2v-8h20.68A2.11 2.11 0 0 0 224 143v-7.61a2.11 2.11 0 0 0-2.11-2.12H201.2v-8z"/></g></svg>