<svg xmlns="http://www.w3.org/2000/svg" width="1278.75" height="312.5"><defs><clipPath id="a"><path d="M0 250h1023V0H0v250z"/></clipPath></defs><path fill="#bd081c" d="M503.75 112.64h40.39v126.87h-40.4V112.64z"/><g clip-path="url(#a)" transform="matrix(1.25 0 0 -1.25 0 312.5)"><path fill="#bd081c" d="M442.05 159.89h31.13V146h.6c7.52 10.9 17.24 16.85 31.31 16.85 22.2 0 35.29-15.86 35.29-38.46v-66h-32.32v59.46c0 10.7-5.35 18.04-15.85 18.04-10.7 0-17.84-8.92-17.84-21.4V58.4h-32.32v101.49zm-3.52 27.15a19.38 19.38 0 1 1-38.76 0 19.38 19.38 0 0 1 38.76 0m329.1-25.69c-.93.09-1.98.12-3.22.12-12.29 0-20.61-5.35-27.75-17.44h-.6v15.86h-30.92V58.39h32.31V104c0 21.12 11.7 30.91 30.18 29.2v28.16zm158.56-38.93c-12.89 2.38-24.38 3.37-24.38 10.5 0 6.35 6.14 9.32 14.07 9.32 8.92 0 15.07-2.77 16.26-11.89h29.73c-1.58 20.02-17.05 32.51-45.79 32.51-23.99 0-43.8-11.1-43.8-32.5 0-23.8 18.82-28.55 36.47-31.53 13.48-2.38 25.77-3.37 25.77-12.49 0-6.54-6.15-10.1-15.86-10.1-9.75 0-16.2 4.12-18.17 12.48H869.7c2.27-20.86 20.58-33.5 49.16-33.5 26.56 0 46.18 11.5 46.18 33.7 0 25.97-21 30.53-38.85 33.5m-108.44 17.45c10.5 0 18.04-7.73 19.23-19.83h-40.04c2.18 12.1 8.52 19.83 20.8 19.83m1.8-61.26c-13.29 0-20.82 8.53-22.8 22.2h72.95c.2 20.62-5.75 38.26-17.85 49.36-8.72 7.93-20.21 12.7-34.69 12.7-30.92 0-52.13-23.2-52.13-53.53 0-30.73 20.62-53.92 54.12-53.92 12.88 0 23.19 3.37 31.71 9.32 8.92 6.14 14.87 14.86 17.05 23.98h-31.52c-2.77-6.34-8.32-10.1-16.85-10.1m202.42 3.71c-1.5-.06-3.5-.15-5.35-.15-6.94 0-11.3 1.98-11.3 9.91v47.58h16.65v20.22h-16.65V192h-31.52v-32.11h-9.92v-20.22h9.92V85.16c0-21.81 13.48-27.95 32.3-27.95 7.2 0 12.63.53 15.87 1.17v23.95zm-423.87-.05c-1.3-.05-2.78-.1-4.17-.1-6.94 0-11.3 1.98-11.3 9.91v47.58h15.47v20.22H582.6V192h-31.5v-32.11h-10.5v-20.22h10.5V85.16c0-21.81 13.48-27.95 32.32-27.95 6.37 0 11.36.42 14.67.96v24.11z"/><path fill="#bd081c" d="M668.46 120.04c-1.2 12.1-8.72 19.83-19.23 19.83-12.3 0-18.63-7.74-20.81-19.83h40.04zm-71.96-10.7c0 30.33 21.21 53.52 52.14 53.52 14.47 0 25.96-4.76 34.69-12.69 12.09-11.1 18.03-28.74 17.84-49.36h-72.95c1.98-13.67 9.51-22.2 22.8-22.2 8.52 0 14.07 3.77 16.84 10.11h31.52c-2.18-9.12-8.13-17.84-17.05-23.98-8.52-5.95-18.83-9.32-31.71-9.32-33.5 0-54.12 23.2-54.12 53.92m-249.62 24.18c12.69 0 19.83 7.54 19.83 18.84s-7.34 18.23-19.83 18.23H322.1v-37.07h24.78zm-57.49 66.6h56.11c17.25 0 29.93-4.75 38.65-13.08 9.12-8.52 14.28-20.61 14.28-34.88 0-27.16-18.83-46.39-47.97-46.39H322.1V58.39h-32.7v141.74z"/><path fill="#fff" d="M245.03 125c0-67.37-54.61-122-121.99-122C55.67 3 1.05 57.64 1.05 125s54.62 122 122 122c67.37 0 121.98-54.63 121.98-122"/><path fill="#bd081c" d="M123.04 247C55.67 247 1.05 192.36 1.05 125c0-51.68 32.16-95.86 77.54-113.64-1.07 9.65-2.03 24.5.42 35.04 2.22 9.52 14.3 60.63 14.3 60.63s-3.65 7.31-3.65 18.12c0 16.96 9.84 29.62 22.08 29.62 10.4 0 15.43-7.81 15.43-17.18 0-10.47-6.66-26.12-10.1-40.62-2.87-12.14 6.09-22.04 18.07-22.04 21.68 0 38.34 22.86 38.34 55.86 0 29.2-20.98 49.63-50.95 49.63-34.71 0-55.09-26.03-55.09-52.94 0-10.49 4.04-21.73 9.08-27.84 1-1.2 1.14-2.27.85-3.5-.93-3.85-2.99-12.14-3.4-13.83-.52-2.24-1.76-2.71-4.07-1.64-15.24 7.1-24.76 29.37-24.76 47.26 0 38.49 27.96 73.83 80.6 73.83 42.32 0 75.2-30.16 75.2-70.46 0-42.04-26.5-75.88-63.3-75.88-12.36 0-23.98 6.42-27.96 14l-7.6-29C99.33 29.84 91.9 16.56 86.92 8.46A121.93 121.93 0 0 1 123.04 3c67.38 0 122 54.62 122 121.99s-54.62 122-122 122"/></g></svg>