<svg xmlns="http://www.w3.org/2000/svg" width="262" height="90"><g fill="none" fill-rule="evenodd"><g transform="translate(107 21)"><circle cx="128.77" cy="10" r="5.69" fill="#FF4500"/><path fill="#222" fill-rule="nonzero" d="M47.55 34.25c2.79 0 4.4-2.1 4.3-4.13a15.13 15.13 0 0 0-.28-2.31c-1.71-7.4-7.72-12.88-14.86-12.88-8.47 0-15.34 7.68-15.34 17.12 0 9.44 6.87 17.11 15.34 17.11 5.31 0 9.12-1.93 11.86-4.99a3.32 3.32 0 0 0-.54-4.93c-1.34-.92-3-.6-4.24.42-1.18 1.03-3.43 3.06-7.08 3.06-4.29 0-7.94-3.7-8.74-8.58h19.58v.1zm-10.9-12.82c3.87 0 7.2 3 8.43 7.13H28.24c1.23-4.18 4.56-7.13 8.42-7.13zM21.7 18.31c0-1.6-1.19-2.9-2.7-3.16-4.66-.7-9.06 1.02-11.58 4.18v-.43a3.19 3.19 0 0 0-3.22-3.2 3.23 3.23 0 0 0-3.22 3.2v26.3a3.29 3.29 0 0 0 3 3.32 3.21 3.21 0 0 0 3.44-3.22V31.73c0-6.01 4.5-10.95 10.73-10.25h.64c1.61-.1 2.9-1.5 2.9-3.17zM132 21.75a3.23 3.23 0 0 0-3.23-3.22 3.23 3.23 0 0 0-3.22 3.22V45.3a3.23 3.23 0 0 0 3.22 3.22A3.23 3.23 0 0 0 132 45.3V21.75zM84.14 3.94A3.23 3.23 0 0 0 80.92.72a3.23 3.23 0 0 0-3.22 3.22v14.32a11.12 11.12 0 0 0-8.2-3.27c-8.48 0-15.35 7.67-15.35 17.11s6.87 17.12 15.34 17.12c3.27 0 6.06-1.13 8.26-3.33a3.22 3.22 0 0 0 6.39-.6V3.95zm-14.6 38.89c-4.93 0-8.9-4.77-8.9-10.73 0-5.9 3.97-10.73 8.9-10.73 4.94 0 8.91 4.78 8.91 10.73 0 5.96-4.02 10.73-8.9 10.73zm48.18-38.89A3.23 3.23 0 0 0 114.5.72a3.23 3.23 0 0 0-3.22 3.22v14.32a11.12 11.12 0 0 0-8.2-3.27c-8.48 0-15.35 7.67-15.35 17.11s6.87 17.12 15.34 17.12a11.3 11.3 0 0 0 8.27-3.33 3.22 3.22 0 0 0 6.38-.6V3.95zm-14.64 38.89c-4.94 0-8.91-4.77-8.91-10.73 0-5.9 3.97-10.73 8.9-10.73 4.94 0 8.91 4.78 8.91 10.73 0 5.96-3.97 10.73-8.9 10.73zm45.22 2.52V21.42h2.84c1.5 0 2.85-1.12 2.95-2.68a2.88 2.88 0 0 0-2.84-3.05h-2.95v-4.51a3.29 3.29 0 0 0-3-3.33 3.21 3.21 0 0 0-3.44 3.22v4.67h-2.68a2.93 2.93 0 0 0-2.95 2.68 2.88 2.88 0 0 0 2.84 3.06h2.74V45.4a3.23 3.23 0 0 0 3.22 3.21c1.88-.1 3.27-1.5 3.27-3.27z"/></g><circle cx="45" cy="45" r="44.96" fill="#FF4500"/><path fill="#FFF" fill-rule="nonzero" d="M74.99 45a6.54 6.54 0 0 0-6.55-6.55c-1.77 0-3.38.7-4.56 1.83-4.5-3.22-10.67-5.31-17.54-5.58l3-14.06 9.77 2.1a4.67 4.67 0 1 0 .48-2.26l-10.89-2.3c-.32-.06-.64 0-.86.16-.27.16-.43.43-.48.75l-3.33 15.66c-6.97.22-13.25 2.31-17.8 5.58a6.59 6.59 0 0 0-4.57-1.82A6.54 6.54 0 0 0 18.98 51c-.1.64-.16 1.29-.16 1.98 0 10.09 11.75 18.3 26.23 18.3 14.49 0 26.24-8.16 26.24-18.3 0-.64-.06-1.34-.16-1.98a6.6 6.6 0 0 0 3.86-6zm-44.96 4.67a4.67 4.67 0 1 1 9.34 0 4.67 4.67 0 0 1-9.34 0zm26.13 12.39c-3.22 3.22-9.34 3.43-11.1 3.43-1.83 0-7.95-.27-11.11-3.43a1.2 1.2 0 0 1 0-1.72 1.2 1.2 0 0 1 1.71 0c2.04 2.04 6.34 2.74 9.4 2.74 3.05 0 7.4-.7 9.38-2.74a1.2 1.2 0 0 1 1.72 0 1.3 1.3 0 0 1 0 1.72zm-.86-7.67a4.67 4.67 0 1 1 0-9.34 4.67 4.67 0 0 1 0 9.34z"/></g></svg>