<svg xmlns="http://www.w3.org/2000/svg" width="298" height="148.81"><defs><clipPath id="a"><path fill="none" d="M-1690.01-52175.51h2896.97V3254.26h-2896.97z"/></clipPath></defs><path fill="#7c529e" d="M291.56 120.39a1.36 1.36 0 0 1 0 .19.45.45 0 0 1 0 .13.15.15 0 0 1-.05.07h-1.32v4a.11.11 0 0 1 0 .07.17.17 0 0 1-.08.05h-.81a.14.14 0 0 1-.08-.05.09.09 0 0 1 0-.07v-4h-1.32a.24.24 0 0 1 0-.07.45.45 0 0 1 0-.13 1.36 1.36 0 0 1 0-.19 1.42 1.42 0 0 1 0-.2.48.48 0 0 1 0-.13.18.18 0 0 1 0-.07h3.67a.13.13 0 0 1 .05.07.48.48 0 0 1 0 .13 1.42 1.42 0 0 1 0 .2m6.38 4.46a.13.13 0 0 1 0 .07.14.14 0 0 1-.08.05h-.77a.14.14 0 0 1-.08-.05.11.11 0 0 1 0-.07v-4.08l-1.46 4.08a.21.21 0 0 1-.05.08.25.25 0 0 1-.1.05h-.75a.25.25 0 0 1-.1-.05.15.15 0 0 1 0-.07l-1.4-4.08v4.08a.13.13 0 0 1 0 .07.14.14 0 0 1-.08.05h-.77a.12.12 0 0 1-.08-.05.11.11 0 0 1 0-.07v-4.47a.42.42 0 0 1 .1-.3.39.39 0 0 1 .28-.1h.67a1.41 1.41 0 0 1 .31 0 .57.57 0 0 1 .22.1.54.54 0 0 1 .16.18 1.44 1.44 0 0 1 .11.27l1.09 3 1.12-3a1.74 1.74 0 0 1 .11-.27.8.8 0 0 1 .14-.18.49.49 0 0 1 .19-.1 1 1 0 0 1 .25 0h.69a.51.51 0 0 1 .18 0 .31.31 0 0 1 .12.08.3.3 0 0 1 .07.13.48.48 0 0 1 0 .17zm-246.31-21.7a126.94 126.94 0 0 1-16-3C29.41 98.45 11.83 94 8.78 71.74A113.59 113.59 0 0 1 7.72 57c-.2-14.38 2.65-23.28 7.64-29.34.28-.47 4.3-5.68 14.13-9.56 7.88-3.9 43.16-7 72.3-8.48C121 8.65 144.7 8.45 170.28 9c20.37.43 41.9 1.19 63.41 3.45 34.92 3.92 41.33 9.44 46.5 15.86 2.84 4.06 4.42 9.27 5.9 17.84a89.35 89.35 0 0 1-.33 21.15c-2.68 22.09-8.06 33.29-61.25 37.55-4.58.31-9.57.88-14.92 1 0 0-22.14 1.22-48.57 1.62-19.17.28-40.62-.05-57.49-.67-7.15-.27-15.84-.88-15.84-.88s-17.31 22.42-20.83 27.24-6.73 8.44-11.4 7c-2.79-.87-3.59-3.73-3.75-7.83-.13-3.48 0-29.15 0-29.15"/><path fill="#7c529e" d="M79.63 113.77c5.42.33 13.42.7 20.91 1 17.67.74 40.14 1.15 60.21.84 28.21.15 61.71-2.66 66.51-3 57.27-2.05 66-21.86 66.2-53.56.1-20.29-3.07-30-7.81-36-5.41-7.52-12.11-14-48.69-18.61C214.43 1.79 191.87.89 170.54.37c-26.78-.65-51.62-.44-71.74.7-30.52 1.72-67.48 5.31-75.74 9.86C12.76 15.46 8.55 21.55 8.25 22.1 3 29.18-.19 39.68 0 56.52a147.44 147.44 0 0 0 1 17.29c3.18 26.06 22.1 31.85 28.68 33.84 15.95 4.94 44.61 5.8 50 6.12"/><path fill="#fff" d="M107.66 81.4l-16-39.82a8.29 8.29 0 0 1-.5-1.63 8.53 8.53 0 0 1-.16-1.77A5.58 5.58 0 0 1 92.76 34a6.16 6.16 0 0 1 4.43-1.68 4.48 4.48 0 0 1 3.19 1.16 10.47 10.47 0 0 1 2.28 3.95l10.84 29.25L124 37.83a10.34 10.34 0 0 1 2.38-4.33 5 5 0 0 1 3.53-1.22 5.93 5.93 0 0 1 4.25 1.47 5.26 5.26 0 0 1 1.55 4 11.46 11.46 0 0 1-.79 4.11l-15.53 39.07a9.15 9.15 0 0 1-2.45 3.79 5.51 5.51 0 0 1-3.6 1.14 5.26 5.26 0 0 1-3.36-1 8.41 8.41 0 0 1-2.32-3.43m42.11-3.51q0 4.06-1.33 6a4.59 4.59 0 0 1-4.08 1.94 4.7 4.7 0 0 1-4.15-2q-1.36-2-1.36-6V56q0-4 1.35-6a4.71 4.71 0 0 1 4.16-2 4.59 4.59 0 0 1 4.08 2q1.33 1.95 1.33 6zm16.54-29.58a13.16 13.16 0 0 1 4.19-2.48 14.48 14.48 0 0 1 5-.83 16.17 16.17 0 0 1 12.69 6 21.93 21.93 0 0 1 5.17 14.89A20.89 20.89 0 0 1 188 80.25a16.27 16.27 0 0 1-12.56 6 13.6 13.6 0 0 1-5.29-1 11.29 11.29 0 0 1-4.14-3 8.3 8.3 0 0 1-2.46 2.81 5.39 5.39 0 0 1-3.08.94 4.92 4.92 0 0 1-4.37-2.09q-1.42-2.08-1.42-6.37V40.75q0-4.32 1.42-6.41a5.65 5.65 0 0 1 8.76 0q1.44 2.08 1.44 6.41zm-.89 17.32a11.86 11.86 0 0 0 2.33 7.67 7.62 7.62 0 0 0 12 0 11.84 11.84 0 0 0 2.35-7.63 12.19 12.19 0 0 0-2.33-7.75 7.57 7.57 0 0 0-12 0 12.17 12.17 0 0 0-2.33 7.77m40.91 3.12a8.13 8.13 0 0 0 3.36 5.1 9.49 9.49 0 0 0 6.08 1.83 17.39 17.39 0 0 0 7.29-1.88q4-1.89 5-1.89a4.6 4.6 0 0 1 3.35 1.26 4.29 4.29 0 0 1 1.3 3.23q0 3.74-5.22 6.73a24.23 24.23 0 0 1-12.27 3 19.33 19.33 0 0 1-14.36-5.85 20.06 20.06 0 0 1-5.76-14.67 20.68 20.68 0 0 1 5.6-14.79A18.41 18.41 0 0 1 214.61 45a18.11 18.11 0 0 1 13.5 5.56 18.72 18.72 0 0 1 5.44 13.6c0 1.75-.4 3-1.19 3.66s-2.32 1-4.57 1zm-.46-6.84H223a8.88 8.88 0 0 0-2.61-5.85 8.11 8.11 0 0 0-5.7-2.15 8.73 8.73 0 0 0-5.8 2.05 10.77 10.77 0 0 0-3 6m30.88 15.31V54q0-4.28 1.42-6.36a5 5 0 0 1 4.37-2.07 5.49 5.49 0 0 1 3.13.92 7.87 7.87 0 0 1 2.41 2.79 13.06 13.06 0 0 1 3.82-2.93 9.11 9.11 0 0 1 4.06-1 5.73 5.73 0 0 1 4.16 1.71 5.49 5.49 0 0 1 1.75 4q0 3.49-6.41 5.83-2.3.83-3.45 1.37a6.34 6.34 0 0 0-2.92 2.32 10.3 10.3 0 0 0-.72 4.62v12.16q0 4.28-1.44 6.37a5.65 5.65 0 0 1-8.76 0q-1.42-2.08-1.42-6.37m-98.28-39.04a5.81 5.81 0 0 1 1.8-4.28 5.92 5.92 0 0 1 4.32-1.79 5.78 5.78 0 0 1 4.26 1.75 6.09 6.09 0 0 1 0 8.56 5.8 5.8 0 0 1-4.27 1.76 5.94 5.94 0 0 1-4.35-1.76 5.79 5.79 0 0 1-1.77-4.28M70 56.33a1.27 1.27 0 0 1-1.27-1.2c-.21-4.3-2.24-6.41-6.38-6.64a1.27 1.27 0 0 1 .12-2.49c5.47.29 8.5 3.42 8.78 9a1.27 1.27 0 0 1-1.2 1.33H70"/><path fill="#fff" d="M76.5 58.51a1.27 1.27 0 0 1-1.24-1.3 14.63 14.63 0 0 0-3.78-10.73C68.81 43.6 65.2 42 60.39 41.67a1.27 1.27 0 0 1 .18-2.53c5.41.4 9.69 2.29 12.74 5.62a17.28 17.28 0 0 1 4.45 12.5 1.27 1.27 0 0 1-1.27 1.24"/><path fill="#fff" d="M83.16 61.12a1.27 1.27 0 0 1-1.27-1.26c-.06-7.76-2.29-13.68-6.83-18.11a23.52 23.52 0 0 0-16.82-6.65 1.27 1.27 0 0 1 0-2.54 26 26 0 0 1 18.58 7.37c5 4.85 7.53 11.55 7.59 19.9a1.26 1.26 0 0 1-1.25 1.28zM62.66 72a3.46 3.46 0 0 0 2.74-1l1.87-2.36a4.12 4.12 0 0 1 5.22-.72c1.19.67 3.32 2 4.65 3s4.32 3.46 4.33 3.46a3.58 3.58 0 0 1 .76 4.68 19.51 19.51 0 0 1-3.9 4.8 7.71 7.71 0 0 1-4 1.91 2.56 2.56 0 0 1-.58 0 5.26 5.26 0 0 1-1.68-.26v-.06c-2-.56-5.33-2-10.88-5a64.62 64.62 0 0 1-9.14-6 47.86 47.86 0 0 1-4.11-3.64l-.14-.14-.14-.14-.14-.14-.14-.13a48 48 0 0 1-3.65-4.11 64.28 64.28 0 0 1-6-9.14c-3.06-5.55-4.47-8.88-5-10.87h-.06a5.16 5.16 0 0 1-.26-1.68 2.35 2.35 0 0 1 0-.58 7.7 7.7 0 0 1 1.91-4A19.53 19.53 0 0 1 39.1 36a3.58 3.58 0 0 1 4.68.76s2.43 2.91 3.46 4.32a54.21 54.21 0 0 1 3 4.65 4.11 4.11 0 0 1-.72 5.22l-2.36 1.87a3.46 3.46 0 0 0-1 2.74S49.63 68.72 62.66 72"/><path fill="#7c529e" d="M117.33 130a3.46 3.46 0 0 0-3 1.44 6.71 6.71 0 0 0-1.05 4q0 5.37 4 5.37a12.67 12.67 0 0 0 4.1-.85v2.86a11.34 11.34 0 0 1-4.42.82 6.73 6.73 0 0 1-5.36-2.12 9 9 0 0 1-1.86-6.1 10 10 0 0 1 .91-4.39 6.58 6.58 0 0 1 2.62-2.89 7.75 7.75 0 0 1 4-1 10.8 10.8 0 0 1 4.7 1.13l-1.1 2.77a18.18 18.18 0 0 0-1.81-.75 5.43 5.43 0 0 0-1.79-.32m18.47 7.28a6.6 6.6 0 0 1-1.58 4.69 5.73 5.73 0 0 1-4.4 1.69 6.13 6.13 0 0 1-3.12-.78 5.13 5.13 0 0 1-2.07-2.22 7.45 7.45 0 0 1-.73-3.38 6.56 6.56 0 0 1 1.57-4.68 5.76 5.76 0 0 1 4.42-1.67 6.22 6.22 0 0 1 3.12.77 5.16 5.16 0 0 1 2.07 2.21 7.43 7.43 0 0 1 .72 3.37m-8.49 0a5.14 5.14 0 0 0 .6 2.76 2.14 2.14 0 0 0 2 .94 2.11 2.11 0 0 0 1.92-.93 5.22 5.22 0 0 0 .59-2.76 5.05 5.05 0 0 0-.59-2.73 2.52 2.52 0 0 0-3.88 0 5.06 5.06 0 0 0-.59 2.74m22.54 6.13h-3.35v-7.17a3.44 3.44 0 0 0-.47-2 1.72 1.72 0 0 0-1.51-.66 2.27 2.27 0 0 0-2 .94 5.85 5.85 0 0 0-.62 3.11v5.78h-3.35v-12.27h2.56l.45 1.57h.19a3.52 3.52 0 0 1 1.54-1.34 5.25 5.25 0 0 1 2.23-.46 4.31 4.31 0 0 1 3.25 1.16 4.66 4.66 0 0 1 1.11 3.35zm14.78 0h-3.35v-7.17a3.44 3.44 0 0 0-.47-2 1.72 1.72 0 0 0-1.51-.66 2.27 2.27 0 0 0-2 .94 5.85 5.85 0 0 0-.62 3.11v5.78h-3.35v-12.27h2.56l.45 1.57h.19a3.55 3.55 0 0 1 1.54-1.34 5.25 5.25 0 0 1 2.23-.46 4.31 4.31 0 0 1 3.25 1.16 4.66 4.66 0 0 1 1.11 3.35zm9.01.22A6.34 6.34 0 0 1 169 142a6.2 6.2 0 0 1-1.67-4.63 6.82 6.82 0 0 1 1.54-4.77 5.5 5.5 0 0 1 4.27-1.69 5.4 5.4 0 0 1 4 1.49 5.6 5.6 0 0 1 1.45 4.1v1.62h-7.92a3.22 3.22 0 0 0 .85 2.23 3 3 0 0 0 2.22.8 9.2 9.2 0 0 0 2.1-.23 10.12 10.12 0 0 0 2.06-.74v2.59a7.86 7.86 0 0 1-1.88.65 11.84 11.84 0 0 1-2.44.22m-.47-10.35a2.12 2.12 0 0 0-1.67.68 3.11 3.11 0 0 0-.69 1.92h4.7a2.8 2.8 0 0 0-.65-1.92 2.2 2.2 0 0 0-1.69-.68m13.24 10.33q-5.73 0-5.73-6.29a6.71 6.71 0 0 1 1.56-4.78 5.84 5.84 0 0 1 4.47-1.66 8.55 8.55 0 0 1 3.82.84l-1 2.59c-.53-.21-1-.38-1.47-.52a4.77 4.77 0 0 0-1.36-.2q-2.62 0-2.61 3.71t2.61 3.6a5.93 5.93 0 0 0 1.79-.26 6.38 6.38 0 0 0 1.65-.8v2.86a5.45 5.45 0 0 1-1.64.72 9.32 9.32 0 0 1-2.09.2M198.1 141a7.22 7.22 0 0 0 2.11-.38v2.49a7.52 7.52 0 0 1-3.08.56 3.76 3.76 0 0 1-2.93-1 4.41 4.41 0 0 1-.92-3v-5.92h-1.6v-1.42l1.84-1.12 1-2.59h2.14v2.61h3.44v2.51h-3.44v5.92a1.3 1.3 0 0 0 .4 1.05 1.57 1.57 0 0 0 1.06.34m4.09.78a1.84 1.84 0 0 1 .49-1.39 2 2 0 0 1 1.44-.47 2 2 0 0 1 1.41.49 2.12 2.12 0 0 1 0 2.75 1.9 1.9 0 0 1-1.4.5 2 2 0 0 1-1.43-.49 1.84 1.84 0 0 1-.5-1.38m16.34 1.56h-3.35v-16.05h9.2v2.79h-5.85v4.14H224v2.78h-5.45z"/><g clip-path="url(#a)"><path fill="#7c529e" d="M234.14 130.9a5.43 5.43 0 0 1 1.13.1l-.25 3.14a3.83 3.83 0 0 0-1-.11 3.55 3.55 0 0 0-2.5.82 3 3 0 0 0-.89 2.31v6.25h-3.35v-12.28h2.54l.49 2.06h.17a4.61 4.61 0 0 1 1.54-1.66 3.81 3.81 0 0 1 2.11-.63m8.93 12.72a6.34 6.34 0 0 1-4.63-1.64 6.2 6.2 0 0 1-1.67-4.63 6.82 6.82 0 0 1 1.54-4.77 5.5 5.5 0 0 1 4.27-1.69 5.4 5.4 0 0 1 4 1.49 5.6 5.6 0 0 1 1.45 4.1v1.62h-7.92a3.22 3.22 0 0 0 .85 2.23 3 3 0 0 0 2.22.8 9.2 9.2 0 0 0 2.1-.23 10.12 10.12 0 0 0 2.06-.74v2.59a7.86 7.86 0 0 1-1.88.65 11.84 11.84 0 0 1-2.44.22m-.47-10.35a2.12 2.12 0 0 0-1.67.68 3.11 3.11 0 0 0-.69 1.92h4.7a2.8 2.8 0 0 0-.65-1.92 2.2 2.2 0 0 0-1.69-.68m13.8 10.35a6.34 6.34 0 0 1-4.63-1.64 6.2 6.2 0 0 1-1.67-4.63 6.82 6.82 0 0 1 1.54-4.77 5.5 5.5 0 0 1 4.27-1.69 5.4 5.4 0 0 1 4 1.49 5.6 5.6 0 0 1 1.45 4.1v1.62h-7.92a3.22 3.22 0 0 0 .85 2.23 3 3 0 0 0 2.22.8 9.2 9.2 0 0 0 2.1-.23 10.12 10.12 0 0 0 2.06-.74v2.59a7.86 7.86 0 0 1-1.88.65 11.84 11.84 0 0 1-2.44.22m-.47-10.35a2.12 2.12 0 0 0-1.67.68 3.11 3.11 0 0 0-.69 1.92h4.7a2.8 2.8 0 0 0-.65-1.92 2.2 2.2 0 0 0-1.69-.68"/></g><path fill="#7c529e" d="M264.08 143.4h3.35v-17.08h-3.35z"/><g clip-path="url(#a)"><path fill="#7c529e" d="M269.18 131.13h3.67l2.32 6.91a9.65 9.65 0 0 1 .4 2.13h.07a9.18 9.18 0 0 1 .47-2.13l2.27-6.91H282L276.78 145a6 6 0 0 1-2 2.88 5.13 5.13 0 0 1-3.09 1 7.84 7.84 0 0 1-1.7-.18V146a5.63 5.63 0 0 0 1.32.14 2.39 2.39 0 0 0 1.56-.54 3.5 3.5 0 0 0 1-1.64l.2-.6zm14.08 10.7a1.84 1.84 0 0 1 .49-1.39 2 2 0 0 1 1.44-.47 2 2 0 0 1 1.41.49 2.12 2.12 0 0 1 0 2.75 1.9 1.9 0 0 1-1.4.5 2 2 0 0 1-1.43-.49 1.84 1.84 0 0 1-.5-1.38"/></g></svg>