<svg xmlns="http://www.w3.org/2000/svg" width="70" height="20" fill="#1ab7ea"><path d="M15.72 9.43c-.07 1.51-1.13 3.59-3.17 6.22-2.12 2.75-3.9 4.12-5.37 4.12-.9 0-1.67-.83-2.3-2.5l-1.25-4.61c-.47-1.68-.97-2.51-1.5-2.51-.12 0-.53.24-1.22.73l-.73-.94A191 191 0 0 0 2.45 7.9c1.02-.88 1.79-1.35 2.3-1.4C5.96 6.4 6.71 7.23 6.99 9c.3 1.91.5 3.1.62 3.56.35 1.59.74 2.38 1.16 2.38.32 0 .81-.51 1.46-1.54.65-1.03 1-1.81 1.05-2.35.1-.89-.26-1.33-1.05-1.33-.37 0-.75.08-1.15.25.77-2.5 2.23-3.72 4.38-3.65 1.6.05 2.35 1.08 2.26 3.11"/><path d="M22.28 1.92c-.02.58-.31 1.13-.87 1.67-.63.6-1.38.9-2.24.9-1.32 0-1.96-.58-1.92-1.74.02-.6.38-1.18 1.07-1.73A3.55 3.55 0 0 1 20.6.18c.5 0 .9.2 1.23.58.32.38.47.77.45 1.16zm3.04 12.42a11.77 11.77 0 0 1-2.69 3.35c-1.56 1.34-3.12 2.02-4.68 2.02-.72 0-1.27-.23-1.66-.7a2.62 2.62 0 0 1-.54-1.81c.02-.77.26-1.96.72-3.56.45-1.6.68-2.47.68-2.59 0-.6-.21-.9-.63-.9-.14 0-.54.24-1.19.73l-.8-.94 2.23-2.03c1-.88 1.75-1.35 2.24-1.4.77-.06 1.33.16 1.7.68.35.53.49 1.2.4 2.04-.3 1.41-.63 3.21-.98 5.4-.03.99.33 1.49 1.08 1.49.32 0 .9-.35 1.74-1.04.7-.57 1.27-1.11 1.72-1.62l.66.88"/><path d="M47.13 14.34a11.76 11.76 0 0 1-2.7 3.35c-1.55 1.34-3.11 2.02-4.67 2.02-1.51 0-2.25-.84-2.2-2.51.02-.75.17-1.64.43-2.69.27-1.05.42-1.86.44-2.44.02-.89-.24-1.33-.8-1.33-.61 0-1.34.72-2.18 2.17a9.65 9.65 0 0 0-1.43 4.4c-.05 1 .05 1.77.29 2.3-1.62.05-2.76-.22-3.41-.8-.58-.51-.85-1.36-.8-2.55.02-.75.13-1.5.34-2.24.2-.74.32-1.4.34-1.99.05-.86-.26-1.29-.94-1.29-.58 0-1.21.66-1.89 2a10.14 10.14 0 0 0-1.12 4.15c-.05 1.3.04 2.2.25 2.72-1.6.05-2.73-.29-3.4-1.01-.56-.6-.81-1.52-.77-2.75.02-.6.13-1.45.32-2.52.2-1.08.3-1.93.33-2.53.05-.42-.06-.63-.32-.63-.14 0-.53.24-1.19.71l-.84-.94c.12-.1.85-.77 2.2-2.03.98-.9 1.65-1.37 2-1.4.6-.04 1.09.2 1.46.76a3.3 3.3 0 0 1 .5 2.56c.34-.53.75-1 1.21-1.4a6.21 6.21 0 0 1 3.6-1.57c1.14-.09 1.96.18 2.44.8.4.52.59 1.25.56 2.2.17-.13.34-.28.53-.45a9.29 9.29 0 0 1 1.57-1.5 5.18 5.18 0 0 1 2.69-1.05c1.11-.09 1.92.18 2.4.8.42.51.61 1.24.57 2.2-.03.64-.19 1.59-.48 2.83s-.43 1.95-.43 2.14c-.03.49.02.82.14 1 .11.2.4.29.83.29.33 0 .91-.35 1.75-1.04.7-.57 1.27-1.11 1.71-1.62l.67.88"/><path d="M52.3 10.65c.02-.62-.24-.93-.77-.93-.7 0-1.4.48-2.13 1.44a4.88 4.88 0 0 0-1.12 3.21 7.86 7.86 0 0 0 2.97-1.9c.67-.75 1.02-1.35 1.04-1.82zm7.92 3.65c-.67 1.12-2 2.23-3.98 3.35a14.92 14.92 0 0 1-7.5 2.12c-1.9 0-3.24-.62-4.06-1.88a5.17 5.17 0 0 1-.84-3.07c.03-1.89.87-3.68 2.52-5.38a8.68 8.68 0 0 1 6.42-2.8c2.29 0 3.5.94 3.64 2.8.09 1.18-.56 2.4-1.96 3.65a10.63 10.63 0 0 1-5.62 2.61c.42.58 1.04.87 1.88.87 1.68 0 3.5-.42 5.49-1.28a14.6 14.6 0 0 0 3.35-1.86l.66.87"/><path d="M65.75 11.83a4.4 4.4 0 0 0-.26-1.73c-.2-.53-.48-.8-.85-.8-1.19 0-2.17.65-2.94 1.93a6.75 6.75 0 0 0-1.04 3.36c-.03.59.08 1.1.31 1.54.26.52.62.77 1.08.77 1.05 0 1.95-.62 2.7-1.85.62-1.03.96-2.1 1-3.22zm3.95.13a8.3 8.3 0 0 1-2.37 5.54 7.38 7.38 0 0 1-5.56 2.34c-1.84 0-3.23-.6-4.19-1.78a5.67 5.67 0 0 1-1.15-3.31c-.12-2 .6-3.84 2.17-5.51a8.15 8.15 0 0 1 6.32-2.79c1.63 0 2.86.55 3.7 1.64.8 1 1.15 2.29 1.08 3.87"/></svg>