<svg xmlns="http://www.w3.org/2000/svg" viewBox="0 0 291 112"><g fill="#00b488"><path d="M55.68 6.67c7.41-7.22 19.18-8.29 28.57-4.74 6.43 2.47 10.99 8.44 12.6 15.03 2.4 9.72 1.18 20.18-2.63 29.38-5.7 1.27-13.2.09-16.22-5.41 1.62-6.58 3.31-13.87.44-20.36-1.31-3.05-5.1-4.65-8.16-3.25-3.33 1.43-4.62 5.22-5.08 8.55-.95 8.17.9 17.12 6.65 23.27 4.8 5.21 12.08 7.67 19.08 7.35 9.5-.22 18.8-4.4 25.17-11.47 4.92-.04 9.85-.03 14.77 0 .02 12.31-.02 24.61.02 36.92.12 4.14.3 8.73 2.96 12.14 2.33 3.01 7 2.68 9.76.46 3.91-3.02 5.89-7.76 7.54-12.26 3.95-12.02 5.29-24.7 6.02-37.27 5.05-.02 10.1-.02 15.15.01.18 4.2.29 8.41.45 12.62 3.66-5.62 8.9-10.44 15.41-12.46 6.52-2.06 14.38-1.68 19.78 2.9 4.87 4.15 6.75 10.73 7.06 16.91.31 8-.12 16.01.22 24 .26 2.68 1 6.02 3.85 7.04 3.56 1.13 6.84-1.59 8.58-4.45 5.31-8.48 5.64-18.91 10.14-27.74 3.79-8.04 10.29-15.22 18.89-18.11 7.8-2.56 16.8-2.49 24.15 1.42A19.25 19.25 0 0 1 290.99 64c.4 6.8-3.04 13.54-8.64 17.35-8.4 5.94-19.07 7.06-29.08 7.04a14.64 14.64 0 0 0 8.41 6.9c9.04 2.76 19.13.74 26.88-4.55-.02 5.34.05 10.68-.02 16.01-6.48 4.48-14.88 5.34-22.59 5.22-11.37-.26-23.22-5.86-28.51-16.33-3.3 8.82-11.59 16.56-21.43 16.35-6.45.18-12.83-3.46-15.75-9.24-4.13-7.58-2.78-16.45-3.01-24.71-.16-4.89.59-10.1-1.52-14.69-1.9-3.76-7.01-3.59-10.31-1.98-5.56 2.74-8.18 8.94-9.65 14.62-2.77 11.4-1.44 23.22-1.79 34.82-5.95 0-11.9.01-17.84-.01-.05-5.11.02-10.23-.04-15.34-2.54 5.03-5.89 9.82-10.65 12.97a21.32 21.32 0 0 1-21.82 1.13c-5.6-3.13-8.47-9.38-9.69-15.42-1.96-10.33-.82-20.92-1.11-31.36-8.21 5.6-18.33 7.45-28.1 7.73a124.6 124.6 0 0 1-25.5 34.71c-3.25 2.91-6.68 6.39-11.31 6.65-4.15.12-7.58-2.64-10.61-5.14-9.49-8.3-16.21-19.26-21.49-30.59C7.3 57.65 2.85 37.58 0 17.51v-.76c6.35.02 12.7-.03 19.04.02 1.78 14.15 4.43 28.27 9.28 41.72a114.85 114.85 0 0 0 20.06 35.24c7.86-7.89 14.18-17.21 19.21-27.12-12.34-6.4-19.54-20.03-20.28-33.63-.74-9.35 1.41-19.59 8.37-26.31m206.76 53.97c-6.7 2.6-10.39 9.82-10.87 16.69 6.51-.15 13.55-.75 19-4.69 3.1-2.21 5.29-6.81 2.94-10.3-2.56-3.29-7.52-3.01-11.07-1.7z"/><path d="M120.39 12.5c3.63-.65 7.66.15 10.41 2.72 4.89 4.46 4.84 13.09-.01 17.56-4.9 4.61-14.09 3.87-17.62-2.08-4.08-6.47-1.05-17.13 7.22-18.2z"/></g></svg>