<svg width="112" height="106" xmlns="http://www.w3.org/2000/svg" xmlns:xlink="http://www.w3.org/1999/xlink"><defs><path d="M0 38.987V90c0 8.284 6.716 15 15 15h81.376c8.285 0 15-6.716 15-15V38.928a15 15 0 00-7.847-13.185L63.18 3.853a15 15 0 00-14.228-.041L7.924 25.761A15 15 0 000 38.987z" id="a"/></defs><g transform="translate(.307 .91)" fill="none" fill-rule="evenodd"><mask id="b" fill="#fff"><use xlink:href="#a"/></mask><use fill="#4280B4" xlink:href="#a"/><path d="M23.412 29.5h64.553c3.12 0 4.251.325 5.392.935a6.36 6.36 0 012.646 2.646c.61 1.14.935 2.272.935 5.393v39.052c0 3.12-.325 4.252-.935 5.393a6.36 6.36 0 01-2.646 2.646c-1.14.61-2.272.935-5.392.935H23.412c-3.12 0-4.252-.325-5.393-.935a6.36 6.36 0 01-2.646-2.646c-.61-1.14-.935-2.272-.935-5.393V38.474c0-3.12.325-4.252.935-5.393a6.36 6.36 0 012.646-2.646c1.141-.61 2.272-.935 5.393-.935z" fill="#D8D8D8" mask="url(#b)"/><path d="M62.421 61.674L116.422 35c30.682 57.471 10.437 86.207-60.734 86.207-71.17 0-90.88-28.736-59.126-86.207l52.43 26.602a15 15 0 0013.43.072z" fill="#5098D6" mask="url(#b)"/></g></svg>