<svg xmlns="http://www.w3.org/2000/svg" viewBox="0 0 400 243.6"><g fill="#231f20"><path d="M163.82 2.22c13.17.05 26.34 0 39.5.03 4.79.33 9.58.01 14.36.19-.23 4.27-.16 8.54-.16 12.82-13.3 0-26.6-.03-39.91.01 0 6.38.01 12.76 0 19.15 7.46 0 14.93.03 22.4-.02.03 4.07-.02 8.15.03 12.23-7.48.1-14.95-.03-22.43.06.03 16.06-.07 32.13.05 48.2-4.67.1-9.35.1-14.02 0 .15-13.66-.13-27.32.17-40.98 0-17.23-.03-34.46.01-51.7z"/><path d="M222.42 2.25c4.66 0 9.32-.05 13.98.02-.12 12.32.14 24.65-.15 36.97V82.8c-.02 4.04.09 8.1-.18 12.14-7.54.11-15.07-.24-22.6-.16-10.34.01-20.67-.02-31 .02 0-4.3.14-8.59.09-12.89 13.28.02 26.56-.01 39.85.02.08-6.42.02-12.85.03-19.28-7.47-.02-14.93-.02-22.4 0 0-4.09.02-8.17 0-12.26 7.46-.12 14.93.04 22.4-.08 0-16.03.03-32.05-.02-48.07zM2.6 135.35c23.55 0 47.1.01 70.65-.02.02 6.34.05 12.67-.01 19l-49.9.01c0 7.95-.02 15.9 0 23.85 14.57-.03 29.13 0 43.69 0 .08 6.3-.02 12.62.05 18.93-14.58-.02-29.15.01-43.73-.02-.03 14.98-.02 29.95 0 44.93-6.91-.08-13.82-.08-20.72 0-.08-35.57-.01-71.13-.03-106.69zm84.38 106.68c-.02-35.58-.03-71.15.01-106.72 24.34.07 48.68.03 73.02.02 0 6.34-.03 12.67.02 19-17.58 0-35.16-.02-52.73.03.05 7.43 0 14.87.02 22.32 16.14-.04 32.28-.02 48.42-.02-.06 6.3.01 12.62-.05 18.93-16.12.01-32.24.02-48.36-.01-.04 9.13.04 18.26-.04 27.38 18.37.06 36.74 0 55.11.02.05 6.34.05 12.67 0 19-25.14.03-50.28-.06-75.42.05zm91-106.72c7.32.05 14.64.07 21.95 0l39.61 74.35c.05-24.77.05-49.54 0-74.3 6.45-.04 12.9 0 19.35-.03.03 35.56.03 71.12 0 106.68-6.9-.05-13.8-.02-20.69-.02-13.53-25.39-27.1-50.76-40.7-76.1l-.01 76.13c-6.5-.06-13-.08-19.51.01.04-35.57.02-71.15 0-106.72zm100.72.02c15.07.04 30.13 0 45.2.02 8.26.14 16.72 2.47 23.09 7.92 6.67 5.23 10.57 13.11 13 21.06 2.06 7.24 2.8 14.79 2.94 22.3-.3 11.6-1.94 23.47-7.3 33.9a38.04 38.04 0 0 1-15.94 17.31c-5.13 2.8-10.99 3.97-16.79 4.12-14.72.07-29.44-.05-44.17.07-.1-35.57-.03-71.14-.03-106.7m20.53 18.6c-.05 23.15-.03 46.3-.01 69.46 6.55-.03 13.1 0 19.64-.02 2.68-.07 5.42-.4 7.89-1.49 4.79-1.97 8.19-6.25 10.44-10.78 3.8-8.24 4.64-17.53 4.39-26.5-.23-8.6-1.54-17.8-7.2-24.64-3.42-4.22-9.06-5.62-14.24-5.96-6.97-.13-13.94.02-20.9-.08zm77.55 88.12c-.08-35.58-.07-71.16 0-106.75 6.89.1 13.79.03 20.68.03.04 35.55.05 71.1 0 106.66-6.9.03-13.79-.1-20.68.06z"/></g></svg>