<svg xmlns="http://www.w3.org/2000/svg" viewBox="8.38 51.96 176.65 88.63"><g fill-rule="evenodd" clip-rule="evenodd"><path d="M170.86 74.06a10.27 10.27 0 0 0 4.58-4.67c.83-1.8.44-3.67-1.15-4.12a3.14 3.14 0 0 0-3.56 1.62c-.74 1.61-.45 3.39.96 3.9-.37.47-1.34 1.2-1.83 1.57-.67.48-.96 1.1-.64 1.58.43.64 1.1.4 1.64.12zm-3.1 37c.04-.6-.57-1.1-1.72-1.14-29.49-1.02-78-2.86-124.69 9.44-1.7.42-2.87.92-2.9 1.72-.03.83.52 1.5 1.94 1.88 2.57.7 5.24 1.11 6.7 1.28 1.13.14 2.55.2 3.93 0 1.76-.25 3.7-.82 4.94-1.23 31.84-10.62 71.58-11.58 109.86-10.95 1.3.02 1.92-.48 1.95-1zm-84-39.16a2.53 2.53 0 0 0 2.51 3.23c1.86.06 3-1.07 3.3-2.38.42-1.74-.64-3.31-2.51-3.27-1.57.04-2.85.81-3.3 2.42zm98.2 9.98c-.53-1.27-.91-2.6-.62-3.56.31-1.02 1.07-1.22 1.56-2.74.4-1.25.22-2.8-1.3-2.85-1.69-.06-2.5 1.24-3.24 3.49-2.76 5.07-10.39 11.47-12.77 13.36-2.26 1.8-2.61 2.43-1.98 3.3.62.86 1.81.73 4.26-1.17 3.07-2.36 8.53-7.63 10.76-10.82.17 3.32 1.53 6.43.62 11.15-.4 2.12-1.46 4.9-4 6.03-1.83.82-4.42.2-5.21-1.64 1.51-.35 2.22-1.2 2.26-2.74.04-1.41-.77-2.46-2.13-2.64-.97-.14-2.25.16-2.89 1.24a5.12 5.12 0 0 0-.5 3.68c.75 3.44 3.94 4.95 7.23 5.07 4.13.15 8.65-2.46 9.85-6.97 1.17-4.38-.5-8.78-1.9-12.19z"/><path d="M154.13 82.83c5.36-5.66 10.82-12.21 12.31-18.12 1.03-4.04.15-6.85-3.73-6.72-9.01.28-22.05 15.68-23.62 30.8a17.2 17.2 0 0 0 .04 4.04 33.04 33.04 0 0 1-7.5 5.63c-1.28.7-2.56.99-3.36.15-.54-.56-.62-1.82-.03-3.22 1.14-2.72 3.1-5.13 4.88-8.21 1.17-2.02 1.44-4.41.94-5.82-.5-1.45-2.1-2.41-3.95-2.41-3.02 0-6.07 1.58-8.46 3.31 0 0 10.6-17.88 11.76-19.87 1-1.71.18-2.16-1.05-2.16h-2.82c-.86 0-1.3.41-1.96 1.55-8.02 13.84-13.14 22.66-16.43 28.37-.7.73-1.5 1.58-2.45 2.62-3.73 3.79-8.56 7.73-12.16 8.22a4.05 4.05 0 0 1-4.13-1.8c5-2.88 10.45-6.27 12.92-10.6 1.3-2.28 1.88-3.77 1.44-6-.41-2.08-1.96-3-4.15-3.21-3.31-.31-7.3.98-10.4 3.93-3.04 2.9-4.65 5.8-5.45 8.73-.64 2.36-.56 5.13.33 7.44a31.19 31.19 0 0 1-5.31 2.29c-4.05 1.28-5.91-1.81-3.64-6.87 1.02-2.27 4.8-9.62 6.72-12.56.62-.95.38-1.72-.79-1.67l-3.53.14c-.86.05-1.33.29-1.78.99-1.52 2.38-4.82 9.91-7.08 13.6-1.53 2.5-3.01 4.55-5.12 6.24-2.21 1.77-4.59 1.05-4.94-1.38-.43-2.93.7-6.84.74-9.74.04-4.37-.9-7.2-2.74-9.4 14.5-5.32 22.83-20.23 31.26-24.2a14.18 14.18 0 0 1 1.56-.62c2.48-.84 4.9-.86 5.48.9.68 2.04-1.67 4.52-4.33 5.41-2.29.76-3.33 1.52-3.13 2.2.22.78 1.32.75 3.06.52 4.23-.55 8.58-4.5 7.65-9-.59-2.87-3.37-4.36-7.18-4.15-.83.05-1.65.18-2.46.38-10.9 2.6-19.86 17.7-29.59 24.45a19.36 19.36 0 0 1-4.15 2.32A9.38 9.38 0 0 0 51.25 77c2.6-5.65 4.59-10.54 8.15-15.22 1.37-.82 3.5-1.4 4.81-2.4 1.43-1.1 2.03-2.4 1.5-3.27-.61-1.01-2.53-1.22-3.96-.75-1.01.33-1.7 1.16-3.13 2.47-1.43 1.3-4.68 1.7-8.12 1.03-1.52-.3-3-.81-4.49-1.4-3.53-1.36-7.16-3.09-11.81-3.1-6.58-.04-11.33 3.02-11.42 8-.08 4.9 4.63 7.51 9.7 6.58 1.06-.2 2.7-1.12 2.7-1.74 0-.68-1.86-.85-2.82-.87-4.17-.1-6.37-1.33-6.3-3.63.07-2.1 2.21-3.65 6.17-3.7 4.07-.03 7.59 1.84 12.7 2.79l.12.02.06.01c2.73.5 5.9.72 9.86.27-4.07 4.38-10.17 13.3-14.5 21.27-7.03 12.92-10.16 18.16-15.37 20.7-3.66 1.77-8.55 2.18-11.3-.03a4.22 4.22 0 0 1-1.62-3.11c0-.55.15-.68.3-.68 2.34-.1 3.46-1.13 3.65-2.66.26-2.08-1.19-3.49-3.06-3.36-3.12.22-4.7 2.56-4.56 6.1.16 4.18 3.45 8.23 10.12 8.29 15.21.12 23.35-13.85 29.08-24.44.37-.7.73-1.37 1.07-2.04 1.5.53 3.59.67 6.59.13.96 3.47-.54 8.62-.5 13.43.04 6.78 2.25 10.46 6.7 10.64 3.78.16 7.83-2.56 10.34-6.5.44 3.99 3.41 5.53 6.43 5.45 2.68-.07 6.29-1.67 9.9-3.72a6.89 6.89 0 0 0 5.84 2.79c4.18-.04 8.25-2.56 12.63-6.52-1.55 2.7-1.75 3.11-2.1 3.78-.47.94-.08 1.85.78 1.82a63.9 63.9 0 0 0 2.76-.18c1-.07 1.5-.48 1.86-1.04.54-.83 4.55-8.17 6.55-11.19 2.93-4.43 6.65-6.95 8.65-7.71 2.88-1.1 4.02.84 2.28 3.33-2.47 3.55-4.36 6.73-4.75 9.34-.52 3.54 1.2 6.33 5.11 6.5 2.04.08 3.82-.57 5.84-1.84a38.7 38.7 0 0 0 6.23-4.69c1.19 3.06 3.57 5.35 7.36 5.61 6.35.44 9.9-2.72 12.69-5.56 1.04-1.07 1.05-2.08.45-2.69-.56-.57-1.82-.27-2.6.53-2.19 2.23-4.99 4.5-8.41 4.32-2.98-.15-4.56-2.59-4.95-5.97 4.27-3.82 6.5-6.03 9.67-9.37zm-102.3-2.17c-1.48 0-2.09-.4-1.96-1.12.1-.53.71-.63 1.25-.63 1.74.02 2.66.44 3.4 1.54-1 .2-1.86.21-2.69.21zM92 92.02c1.27-4.1 3.7-7.08 6.09-8.6 1.22-.77 2.66-.83 3.2-.48 1.24.82 1.55 3.7-1.76 7.31a33.45 33.45 0 0 1-7.99 6.6c-.22-1.4-.1-3.05.46-4.83zm52.5-3.88l.1-.77c1.55-10.12 9.77-21.5 15.04-24.95 2.3-1.5 3.84-.94 3.12 1.42-1.22 4.08-5.53 10.15-9.04 14.45a101.01 101.01 0 0 1-9.22 9.85zm-92.37 46.51c0 1.6.98 2.12 2.91 2.56 1.23.29 1.62.53 1.62.98 0 .75-.83.75-1.32.75-.8 0-1.81-.4-2.44-.79l-.94 1.52c.95.57 2.19.92 3.33.92 2.16 0 3.35-.91 3.35-2.57 0-1.4-.75-2.06-2.96-2.58-1.06-.25-1.57-.43-1.57-.92 0-.73.82-.73 1.09-.73.78 0 1.52.24 2.31.75l.95-1.53a5.5 5.5 0 0 0-3.14-.87c-1.94 0-3.19.99-3.19 2.51zm13.36-2.37v8.17h2.03v-8.17h-2.03zm14.67 5.03a40.9 40.9 0 0 0-1.7-2.57l-1.83-2.46h-1.8v8.17h1.89v-2.41c0-1.1-.04-2.65-.09-2.97a65.02 65.02 0 0 0 3.7 5.38h1.63v-8.17h-1.88v2.14c0 .22.01 2.46.08 2.89zm7.84-.94c0 2.6 1.42 4.22 3.7 4.22a3.44 3.44 0 0 0 3.3-1.93 231.51 231.51 0 0 0-1.67-.89c-.4.68-.76 1.15-1.6 1.15-1.04 0-1.65-.93-1.65-2.55s.6-2.56 1.62-2.56c.9 0 1.24.6 1.5 1.25l1.78-.7c-.53-1.37-1.27-2.22-3.26-2.22-2.26 0-3.72 1.66-3.72 4.23zm13.44-4.1v8.18h6.26v-1.6h-4.3V137h2.53v-1.57h-2.54v-1.54h4.22v-1.6h-6.17zm20.41 0c-.26.73-.76 1.05-1.7 1.15v1.13h1.44v5.9h1.93v-8.17h-1.67zm8.8 2.22c0 .8.54 1.25.86 1.44l.23.14.12.07-.13.04-.25.1c-.28.12-1.2.57-1.2 1.7 0 1.61 1.41 2.61 3.69 2.61 2.3 0 3.72-1 3.72-2.6 0-1.16-.93-1.62-1.2-1.73l-.37-.15.33-.2c.6-.38.87-.84.87-1.42 0-1.45-1.27-2.35-3.32-2.35-2.07 0-3.36.9-3.36 2.35zm1.87.04c0-.25.1-1.06 1.45-1.06 1.09 0 1.47.55 1.47 1.06 0 .3-.14 1.02-1.44 1.02-1.37 0-1.48-.78-1.48-1.02zm-.37 3.43c0-.76.68-1.22 1.82-1.22s1.84.47 1.84 1.22c0 .76-.7 1.23-1.81 1.23-1.14 0-1.85-.47-1.85-1.23zm11.87-5.68l-.27 4.1 1.8.61a2.6 2.6 0 0 1 1.6-.47c.86 0 1.36.44 1.36 1.2 0 .87-.58 1.3-1.71 1.3-.82 0-1.79-.29-2.68-.78l-.77 1.42c1.1.64 2.15.93 3.4.93 2.31 0 3.65-1.06 3.65-2.92 0-1.71-1.02-2.65-2.86-2.65-.9 0-1.38.17-1.77.36l-.3.15.1-1.72h4.31v-1.53h-5.86zm14.4 0c-.27.72-.76 1.04-1.71 1.14v1.13h1.44v5.9h1.93v-8.17h-1.66z"/></g></svg>