<svg xmlns="http://www.w3.org/2000/svg" width="154" height="29"><path fill="#D30D43" d="M22.6.3v.4c0 1.9 1.3 1.9 3.2 1.9h5.3c3.8 0 5.8 1.6 5.8 4.7 0 2.9-1.7 4.7-4.7 4.7h-3v2.4h3.1c4.1 0 6.2 2.4 6.2 5.6 0 3.6-1.6 5.9-5.6 5.9-4.6 0-6.2-3.7-6.2-8.3V7.3c0-2.4-1.8-2.7-3-2.7h-.8v13c0 6.3 2.9 10.6 10.1 10.6 5.7 0 9.9-2.7 9.9-8.2a7.4 7.4 0 0 0-6.2-7.2c2.9-1 4.3-3.5 4.3-5.9C41 2.8 37.6.3 31.6.3h-9zm43.8 4v17.4c0 4.5 2.3 6.2 6.2 6.2 1.1 0 2.2-.1 3.3-.5l-.4-2.1c-.7.4-1.4.5-2 .5-2.2 0-3.2-.8-3.2-3.2V12.3h5.5v-2.2h-5.5V6.8c0-2.3-1.9-2.5-3.1-2.5h-.8zm44.3.2c-2.2 3-5.7 4.8-9.6 6v2.3a14 14 0 0 1 5-1.1c3.6 0 4.8 1.9 4.8 4.5v.6H108c-6.1 0-8.6 2.8-8.6 5.8 0 3.4 2 5.3 6.3 5.3 1.9 0 4-.8 5.3-2.4.2 1.5 1 2.1 2.9 2.1h.8V16.3c.1-3.9-1.7-6.6-7.4-6.6 2.9-1.3 5.4-3.1 6.6-5.2h-3.2zM9.4 9.5C3.8 9.5 0 13.3 0 18.9 0 24.2 3.7 28 9 28c5.8 0 9.4-3.8 9.4-9.4 0-5.3-3.7-9.1-9-9.1zm45.2 0c-5.6 0-9.4 3.8-9.4 9.4 0 5.3 3.7 9.1 9 9.1 5.8 0 9.4-3.8 9.4-9.4 0-5.3-3.6-9.1-9-9.1zm39.6 0c-6.1 0-9.6 4.1-9.6 9.3 0 5.4 2.5 9.2 9 9.2 1.9 0 3.6-.3 4.9-.9l-.6-2.1c-1 .5-2.2.8-3.8.8-4.2 0-5.5-3.5-5.5-7.1 0-3.7 1.5-6.9 5.8-6.9 1.4 0 2.4.2 3.7.7v-2.3c-1.1-.4-2.6-.7-3.9-.7zm50.5 0c-5.6 0-9.4 3.8-9.4 9.4 0 5.3 3.7 9.1 9 9.1 5.8 0 9.4-3.8 9.4-9.4.1-5.3-3.6-9.1-9-9.1zm-20.5.2c-3.6.1-6.4 1.8-6.4 6.3v11.5h3.9V15.2c0-2.4 1.1-3.3 3.3-3.3.6 0 1.2.1 1.9.3V10c-1.1-.2-2-.3-2.7-.3zm-46.1.4v17.4H82V10.1h-3.9zm50.7 0v17.4h3.9V10.1h-3.9zM9 11.8c3.2-.1 5.3 2.6 5.4 6.8.2 3.8-1.3 7-5.1 7.2-3.1.1-5.3-2.6-5.4-6.8-.1-3.9 1.3-7.1 5.1-7.2zm45.3 0c3.2-.1 5.3 2.6 5.4 6.8.1 3.8-1.3 7-5.1 7.2-3.1.1-5.3-2.6-5.4-6.8-.1-3.9 1.3-7.1 5.1-7.2zm90.1 0c3.2-.1 5.3 2.6 5.4 6.8.1 3.8-1.3 7-5.1 7.2-3.1.1-5.3-2.6-5.4-6.8-.1-3.9 1.3-7.1 5.1-7.2zM108.3 19h2.6v2.2h.1c0 1.7-.6 2.6-1.6 3.5-1 .8-2.1 1.2-3.2 1.2-2 0-3-1.3-3-3.3 0-1.5.7-3.6 5.1-3.6z"/></svg>