<svg xmlns="http://www.w3.org/2000/svg" viewBox="0 0 1825 550"><path fill="#9b0608" d="M272.49 33.73c23.66-3.02 48.46-.01 69.84 10.93 12.49 6.49 24.06 14.99 33.35 25.62 17.71 20.16 27.39 46.26 31.13 72.57 5.18 36.6.06 74.05-10.86 109.17-15.45 48.98-42.35 94.09-76.84 132.04-26.77 29.14-58.63 54.21-95.06 70.08-27.75 11.99-58.78 18.49-88.89 13.16-24.5-4.14-47.27-17.13-63.5-35.9-19.88-22.79-29.86-52.69-32.69-82.45-3.77-40.56 4.27-81.49 18.93-119.24 14.96-38.37 36.88-73.92 63.76-105.08 27.48-31.54 60.65-58.8 99-76 16.47-7.33 33.91-12.7 51.83-14.9m16.94 23.01c-19.66 3.09-38.15 11.34-55.04 21.63-20.46 12.54-38.81 28.27-55.38 45.57-30.26 31.87-54.86 69.02-72.92 109.06-14.79 33.18-25.56 68.57-27.97 104.96-1.34 23.31.71 47.59 11.13 68.82 7.13 14.72 19.21 27.22 34.37 33.66 18.01 7.89 38.67 6.96 57.26 1.64 26.68-7.67 50.49-22.97 71.65-40.62 23.68-20.01 44.23-43.57 61.92-68.99a385 385 0 0 0 43.07-80.92c12.04-31.44 20.16-64.79 20.33-98.59-.02-19.89-2.86-40.21-11.64-58.25-6.75-13.98-17.75-26.38-32.1-32.78-13.87-6.43-29.71-7.5-44.68-5.19zm797.65-16.95c30.25-2.43 61.76 4 87.29 20.82 9.49 6.32 17.95 14.35 24.14 23.97 4.61 7.09 7.55 15.13 9.49 23.33 2.24 10.14.65 20.92-3.81 30.25-6.17 13.05-17.31 23.4-30.2 29.69-4.74 2.19-9.6 4.95-15 4.6-2.34-.12-4.3-1.47-6.25-2.57.37-6.54 5.01-11.63 10.27-15.01 12.47-8.46 18.98-24.02 17.99-38.84-.19-9.33-4.49-17.95-9.63-25.51a60.83 60.83 0 0 0-29.63-22.28c-19.28-7.36-40.63-10.01-60.91-5.6a107.64 107.64 0 0 0-46.61 22.52c-7.53 6.52-14.59 13.85-19.6 22.52-6.99 12.34-7.77 27.56-3.52 40.96 4.26 14.36 10.22 28.26 18.39 40.86 15.07 23.78 34.79 44.18 50.26 67.68a204.3 204.3 0 0 1 17.76 32.41c4.68 11.03 9.09 22.38 10.39 34.39 3.59 28.22-6.05 57.2-23.84 79.12a152.38 152.38 0 0 1-42.48 37.41c-24.3 14.62-51.86 23.2-79.82 27.3a166.63 166.63 0 0 1-96.16-12.27c-27.23-12.39-52.31-33.32-62.94-62-6.27-17.39-6.05-37.26 1.68-54.15 7.46-16.72 20.94-30.03 35.99-40.08 11.24-7.9 24.26-12.56 36.82-17.86.62 6.89-6.05 10.62-11.19 13.5-11.08 5.18-20.3 13.93-26.75 24.26-8.72 13.84-11.99 30.61-11.03 46.82.96 14.41 4.36 29.06 12.57 41.17 10.14 15.41 26.01 26.33 43.1 32.76 20.98 7.93 43.97 9.62 66.1 6.68 27.92-4.22 54.77-16.07 76.34-34.34 13.8-11.94 24.95-27.58 29.3-45.49 3.73-14.81 2.3-30.48-2.15-44.96-6.54-25.92-22.27-48.13-38.51-68.88-19.26-24.58-37.66-50.81-46.87-80.99-5.13-19.06-5.77-39.69.59-58.54 5.68-17.23 17.13-32.24 31.47-43.22 24.85-19.11 56.24-27.29 86.96-30.43zm-530.07 60.8c8.01-1.46 16.63-1.99 24.34 1.11 9.31 3.76 15.67 13.36 15.89 23.36.66 14.88-4.74 29.17-10.54 42.62-14.74 32.03-35.64 60.81-58.12 87.82a678.4 678.4 0 0 1-72.35 73.68c-2.76 2.56-6.41 4.63-7.5 8.49-6.3 16.26-12.16 32.97-13.92 50.41-.34 6.55-.73 14.04 3.52 19.5 4.01 4.95 10.87 4.93 16.66 5.28 12.19-.17 22.79-7.52 31.34-15.58 15.14-14.5 26.76-32.12 38.61-49.29 8.76-13.4 18.89-25.83 28.73-38.44 12.49-15.64 25.74-30.93 41.65-43.21 12.74-9.68 27.59-17.43 43.72-18.98 11.61-.22 24.11 1.69 33.36 9.25 4.38 3.33 6.97 8.27 10.28 12.54 23.75-53.21 46.93-106.68 70.34-160.05l36.4.01c-33.01 75.75-66.07 151.47-99.08 227.21-6.77 16.62-13.7 33.32-17.69 50.88-1.41 7.33-2.79 15.88 1.82 22.38 4.09 3.64 10.3 2.65 15.13 1.17 10.78-3.94 20.22-10.82 28.64-18.5 8.56-7.93 16-17.11 21.8-27.24 1.93-3.36 3.11-7.79 7.07-9.34 2.72-1.12 5.17 1.79 5.34 4.31-.08 2.28-1.11 4.38-1.9 6.48a115.7 115.7 0 0 1-31.07 44.93c-11.85 10.48-26.61 18.32-42.54 19.79-11.25 1.12-23.33-.67-32.62-7.51-9.33-6.68-14.94-17.41-17.39-28.43a204.2 204.2 0 0 1-31.1 26.64c-10.27 6.98-22.21 12.4-34.85 12.31-11.63.24-23.76-3.7-31.72-12.46-7.27-7.82-10.43-18.5-11.36-28.93-11.14 9.61-22.15 19.54-34.57 27.51-13.32 8.55-29.46 12.97-45.27 10.93-11.11-1-22.31-6.03-28.78-15.41-8.66-12.27-9.94-27.89-10.16-42.45-12.64 10.56-27.06 18.74-41.87 25.81-4.98 2.99-10.17 6.59-16.26 6.25-1.8-.14-4.4-1.08-3.99-3.34.72-3.13 3.24-5.47 5.7-7.35 20.55-12.92 39.49-28.29 57.49-44.53 2.06-1.98 4.31-3.79 6.05-6.07 7.97-19.27 13.88-39.33 20.93-58.95 13.62-38.29 29.11-76.12 49.66-111.27 10.14-17 21.58-33.41 35.68-47.38 12.39-12.06 27.23-22.59 44.5-25.96m-12.92 37.49c-13.03 13.54-22.71 29.83-31.85 46.12-9.47 17.28-17.88 35.11-25.93 53.09-5.08 10.69-7.29 22.43-11.59 33.41-2.93 7.68-5.94 15.38-9.97 22.56a281.96 281.96 0 0 0 18.82-17.77c22.84-23.77 43.46-49.63 62.32-76.65 10.97-16.15 21.76-32.68 28.94-50.92 2.39-6.75 5.22-14.59 1.69-21.46-2.71-1.21-5.38-3.25-8.51-2.68-9.55 1.27-17.35 7.69-23.92 14.3m99.35 126.58c-10.38 2.27-19.08 8.96-26.82 15.94-9.7 9.05-18.67 18.98-25.79 30.21-11.54 17.69-21.63 36.51-28.2 56.64-2.93 9.68-5.53 19.9-3.93 30.07 1.19 6.08 4.97 12.54 11.39 14.09 7.98 1.81 16-1.62 22.45-6.12 10.88-7.62 19.56-17.9 27.53-28.42a290.5 290.5 0 0 0 30.72-53.3c5.46-12.77 10.52-25.94 12.31-39.79.76-6.17-.62-13.25-5.67-17.32-3.88-3.2-9.35-2.76-13.99-2zm782.96-92.04c5.83-1.15 12.48.1 17.05 4.04a19.87 19.87 0 0 1 3.13 11.33c-.16 5.55-3.53 10.47-7.77 13.8-7.12 5.6-16.85 8.1-25.7 5.88-3.93-1.03-7.89-3.32-9.57-7.17-1.68-4.48-1.71-9.78.97-13.89 4.79-7.61 13.32-12.06 21.89-13.99zm-237.01 60.04c12.9.03 25.81 0 38.73.02-3.94 8.12-8.1 16.13-12.1 24.22 8.46-5.29 17.1-10.93 27.09-12.77 12.31-2.58 25.73-4.11 37.57 1.17 14.71 5.7 25.68 18.9 29.99 33.9 4.26 15.17 4.57 31.82-.79 46.75-5.82 17.9-14.99 34.62-26.47 49.5-11.5 15.05-25.51 28.34-41.81 38.07-13.75 8.17-29.44 13.72-45.56 13.72-9.12.13-18.09-2.3-26.38-5.95a38.87 38.87 0 0 1-16.84-14.1c-3.04 4.19-3.97 9.3-5.58 14.09-8.5 18.73-17.18 37.39-25.68 56.13-6.53 15.36-12.98 30.77-19.47 46.15-12.94.02-25.88-.01-38.82.02 18.27-39.98 35.95-80.22 53.94-120.32 15.05-34.01 30.73-67.74 44.84-102.16a3056.5 3056.5 0 0 0 27.34-68.44m60.77 27.53c-9.39 1-17.85 5.96-24.85 12.06-5.93 5.41-11.99 10.74-16.95 17.08-17.21 21.44-29.04 47.03-35.35 73.73-2.44 11.72-4.29 24.2-.94 35.93 1.59 6.28 6.79 11.1 12.84 13.08 6.03 1.23 12.35.13 18.01-2.13 9.19-3.74 17.07-10.06 24.06-16.99 11.82-11.91 21.33-25.91 29.51-40.51 8.53-15.67 15.73-32.19 20.07-49.54 1.76-8.66 3.04-17.62 1.71-26.43-.89-5.74-4.21-11.63-9.98-13.56-5.83-1.92-11.96-3.44-18.13-2.72zm137.93-17.76c12.93.01 25.86-.01 38.8.01-20.66 42.52-39.22 86.02-58.3 129.25-4.17 9.45-9.2 18.84-10.47 29.23-.71 4.67.83 10.39 5.59 12.31 6.14 2.37 13.17 2.1 19.3-.24 8.41-3.12 15.36-9.1 21.64-15.35 11.82-12.29 21.16-26.73 29.42-41.59 7.72-13.59 13.4-28.23 21.26-41.75 9.77-17.15 21.5-33.43 36.31-46.6 13.09-11.75 29-20.82 46.46-23.92 8.67-1.44 17.86-2.35 26.3.72 12.01 3.78 21.7 14.25 23.96 26.7 1.59 9.12-1.62 19.23-8.91 25.13-7.22 5.96-17.94 7.63-26.45 3.57a17.6 17.6 0 0 1-9.48-11.34c-1.03-4.06.83-8.36 3.97-10.96 5.1-4.07 10.85-7.57 17.38-8.67-3.22-4.71-7.28-9.2-12.91-10.91-8.68-3.26-17.96.69-24.97 5.87-13.1 9.77-22.53 23.51-30.62 37.5-9.26 16.73-16.64 34.68-20.17 53.54-1.99 11.29-2.75 23.37 1.6 34.24 3.46 8.73 10.1 16.82 19.25 19.82a54.17 54.17 0 0 0 26.91.95c13.26-3.04 24.56-11.45 33.77-21.18 14.51-15.66 25.16-34.39 34.76-53.33 6.47-13.45 13.18-26.86 21.84-39.07 11.92-17.11 26.77-32.67 45.14-42.87 14.96-8.32 32.5-12.75 49.61-10.37 8.48 1.33 17.43 5.47 21.42 13.5 4.36 9.37 3.6 20.37-.1 29.83-5.77 14.86-16.93 27.02-29.53 36.48-19.23 14.5-42.23 22.89-65.37 28.77-4.29 10.05-7.34 21.22-4.88 32.15 1.37 7.52 6.38 13.67 11.88 18.69 5.64 4.88 13.23 6.73 20.53 7.02 12.65.49 25.87-1.1 36.99-7.55 8.16-4.51 14.73-11.25 21.31-17.74 3.63-3.32 7.14-7.09 11.81-8.91 2.51-.22 2.81 2.8 3.1 4.65.15 7.73-3.3 15.18-8.15 21.07-13.8 17.39-34.6 28.12-56.08 32.63-10.17 1.99-20.67 3.59-30.97 1.69-23.56-3.44-43.38-22.25-49.4-45.07-19.73 23.91-47.68 42.23-78.88 45.97-19.6 2.38-41.02-1.57-56.18-14.9-11.05-9.52-17.06-23.91-17.62-38.34-8.82 11.36-18.19 22.35-28.84 32.05-7.89 7.1-16.6 13.53-26.54 17.44-8.07 3.21-16.89 4.1-25.5 3.7-9.4-.61-19.08-3.66-25.8-10.54-6.74-6.69-9.68-16.32-9.76-25.64-8.71 6.66-18.46 12.09-28.97 15.3-4.99 1.45-10.21 2.78-15.43 2.18-1.8.04-2.31-2.03-2.12-3.45.39-2.51 2.66-4.04 4.53-5.47 5.46-4.17 12.01-6.55 17.6-10.53 14.92-10.14 25.58-25.18 34.33-40.68 10.14-17.99 18.52-36.89 27.4-55.51 9.42-19.82 18.57-39.77 28.23-59.48m302.28 18.95c-5.85 2.78-10.81 7.06-15.28 11.67-7.59 7.94-14.09 16.85-19.91 26.15-3.08 5.04-6.32 10.04-8.41 15.6-2.58 5.98-6.17 11.44-8.99 17.3 23.51-5.24 46.44-16.43 62.53-34.72 6.02-7.08 11.31-15.76 11.09-25.36-.04-4.64-2.31-9.73-6.79-11.59-4.61-1.7-9.87-1.17-14.24.95z"/></svg>