<svg xmlns="http://www.w3.org/2000/svg" viewBox="0 0 187.09 59.09"><path fill="#00b082" d="M0 5.37h187.09v48.35H0z"/><path fill="#fff" d="M166.75 35.42h-8.8c.08-4.43 1.17-7.1 2.19-8.02 1.06-.97 2.35-1.8 3.81-1.78 2.66.02 4.77 3.06 4.84 6.05.03 1.36.27 3.75-2.05 3.75zm-8.68 1.91h11.75c2.96 0 3.98-2.35 3.97-3.92a10.01 10.01 0 0 0-2.51-6.5 9.36 9.36 0 0 0-7.46-3.27 10.1 10.1 0 0 0-7.82 3.71 12.17 12.17 0 0 0-3.23 8.55c.02 3.63.84 6.72 3.2 9.1 2.37 2.42 4.73 3.34 8.44 3.34 2.4 0 4.63-1.41 5.51-2.03 1.48-1.05 3.2-3.77 3.39-5.23-.27-.33-.37-.76-.8-.75-.47 0-.91.41-1.14.84-1.58 2.93-3.6 4.57-6.43 4.57-5.03 0-6.87-4.07-6.87-8.4zm-23.4-13.16l6.91 23.56h4.15a98.7 98.7 0 0 1 9.1-24.09h-2.72a92.43 92.43 0 0 0-7.18 18.66l-5.58-18.13h-4.68zm-6.92 0h4.63v23.56h-4.63V24.17zm2.37-7.93a2.59 2.59 0 0 1 0 5.16 2.58 2.58 0 0 1 0-5.16zm-12.4-1.37c2.21-1.05 4.71-2.35 6.66-2.48v35.34h-4.63v-29.2c0-1.8-.61-3.28-1.92-3.3-.17-.01-.3-.27-.11-.36zM95.63 36.2c.04 3.6 1.06 6.5 3.14 8.74a9.83 9.83 0 0 0 7.58 3.4c3.09-.02 5.9-1.14 8.01-3.48 2.2-2.44 3.07-5.51 3.04-9.12-.02-1.72-.09-3.36-.7-4.92a13.18 13.18 0 0 0-2.58-4.12 9.48 9.48 0 0 0-3.41-2.33 12.97 12.97 0 0 0-4.38-.72c-3.18 0-5.47.87-7.63 3.2-2.16 2.34-3.07 5.64-3.07 9.35zm16.78.6c-.04 2.7-.57 4.87-1.64 6.6-1.1 1.78-2.66 2.67-4.4 2.64-1.87-.03-3.5-1.13-4.6-3.43-1.03-2.13-1-4.67-1-7.54 0-2.76.32-4.91 1.37-6.66a5.1 5.1 0 0 1 4.45-2.7c1.94 0 3.4 1.14 4.49 3.44 1 2.12 1.33 4.66 1.33 7.64zM64.14 26.26c1.99.38 2.04 2.23 2.04 4.32v17.14h4.53V28.67c1.41-.92 3.06-2.18 4.66-2.17 1.73 0 2.04 2.96 2.04 4.47v16.76h4.58V28.68c1.64-1.06 2.23-2.12 4.62-2.07 1.7.04 1.96 2 1.96 3.34v17.78h4.7V30.38c0-3.01-.7-6.73-5.03-6.73-2.47 0-3.54.52-6.47 2.95-.53-1.48-2.8-2.95-4.4-2.95-3.07 0-4.64 1.51-6.55 2.71v-2.71c-1.38 0-4.7.52-6.68 2.63zm-8.47-11.4c2.21-1.05 4.71-2.35 6.66-2.48v35.34H57.7v-29.2c0-1.8-.6-3.28-1.92-3.3-.17-.01-.3-.27-.11-.36zm-5.91 32.86h4.6v-23c-.97-.73-4.39-.84-5.16-.84-8.69 0-15.5 5.44-15.5 15.06 0 7.12 5.32 9.39 8.82 9.39 3.43 0 5.33-1.42 6.15-2.58.25-.34.08-.92-.37-.86-.57.08-1.36 1.56-4.2 1.64a5.7 5.7 0 0 1-3.3-1c-1.47-1.01-2.63-4.21-2.67-6.8-.07-4.92 2.62-12.46 8.43-12.95.74-.07 2.3-.28 2.98.06.59.3.22.42.22.84v21.04zm-31.02.07V13.34a9.78 9.78 0 0 1 3.6-.87c5.07-.01 8.82 4.03 8.74 10.32-.08 7.35-3.75 10.07-6.54 10.26-3.23.23-3.77-.91-4.92-.87-.48.01-1.06.43-.22 1.19 1.62 1.44 4.83 1.48 6.75 1.4 4.54-.19 9.78-4.8 9.86-12.26.07-6.19-4.6-11.87-12.46-11.9-2.72 0-7.42.53-9.78 1.15v36l4.97.04z"/><path fill="#939598" d="M0 0h187.09v2.4H0zm0 59.09h187.09v-2.4H0z"/></svg>