<svg xmlns="http://www.w3.org/2000/svg" width="79" height="43"><g fill="none"><path fill="#9F2340" d="M17.46 2.64A6.7 6.7 0 0 1 21.88.39c.8-.05 1.61-.01 2.42-.02 1.48.23 2.9.76 4.22 1.47 3.83 2.04 7.01 5.1 10.9 7.06 2.12 1.05 4.5 1.77 6.88 1.47a14.5 14.5 0 0 0 4.43-1.5 33.95 33.95 0 0 1 4.99-1.97 9.53 9.53 0 0 1 3.64-.46 4.7 4.7 0 0 1 3.56 2.15c.32.53.59 1.14.5 1.77l-.14.04c-.49-.39-.88-.9-1.43-1.2-1.1-.67-2.45-.6-3.66-.36a29.38 29.38 0 0 0-5.82 2.12c-2.34 1.04-4.75 2.14-7.35 2.25-2.75.14-5.42-.9-7.71-2.34-2.27-1.4-4.46-2.94-6.64-4.48-1.16-.81-2.3-1.65-3.55-2.33a8.33 8.33 0 0 0-4.08-1.13 5.72 5.72 0 0 0-4.14 1.4c-.47.42-.72 1.05-1.29 1.37a5.8 5.8 0 0 0-2.44 2.66c-.39.98-.1 2.16-.75 3.04-1 1.14-2.3 1.93-3.5 2.84.2.55.74.8 1.09 1.23.32.55-.07 1.14-.4 1.58.02.42.55.53.77.84-.16.35-.54.56-.63.95.17.22.42.43.43.73-.07.45-.4.81-.48 1.27-.08.36.02.83.4.98.6.2 1.22.08 1.83.04a22.7 22.7 0 0 1 4.1-.02c1.34.16 2.77.53 3.72 1.56a6.11 6.11 0 0 1 1.46 3.87l-.24.02c-.4-.47-.6-1.08-.99-1.57a5.39 5.39 0 0 0-3.67-2.21c-2.3-.4-4.63.17-6.94.12-.67-.02-1.44-.23-1.78-.86-.43-.79-.16-1.7 0-2.51.16-.5-.55-.68-.48-1.15.06-.44.45-.71.77-.97-.23-.25-.55-.49-.57-.86-.17-.6.74-.8.6-1.4-.23-.45-.75-.69-.98-1.14-.24-.36-.35-.94.06-1.22 1.01-.68 2.06-1.33 3.02-2.1.25-.2.5-.42.66-.7.2-.38.23-.8.32-1.2a8.75 8.75 0 0 1 1.08-3.08 6 6 0 0 1 2.08-1.85c.24-.14.53-.27.61-.57.18-.48.36-.98.7-1.38z"/><path fill="#9F2240" d="M23.75 6.43a6.16 6.16 0 0 1 3.91.66c1.72.86 3.14 2.18 4.63 3.35a38.56 38.56 0 0 0 6.25 4.16 13.9 13.9 0 0 0 4.73 1.53c1.42.23 2.88.15 4.27-.21 2.69-.7 5.22-1.88 7.76-2.98a20.5 20.5 0 0 1 4.97-1.43 6.2 6.2 0 0 1 4.11.73 4.56 4.56 0 0 1 2 3.28c.02.2.02.48-.2.56-.44-.44-.77-1-1.28-1.35-1.15-.93-2.73-1.02-4.14-.76-2.9.53-5.52 1.94-8.21 3.07-2.73 1.12-5.6 2.07-8.57 2.1a11.8 11.8 0 0 1-4.62-.96 17.28 17.28 0 0 1-3.78-2.1c-2.36-1.79-4.33-4.01-6.55-5.96-1.47-1.3-3.28-2.42-5.3-2.48-.65-.03-1.3.2-1.94.18-.26.03-.18-.32-.04-.41a4.05 4.05 0 0 1 2-.98z"/><path fill="#9F2240" d="M27.04 13.52c1.1-.23 2.18.25 3.11.8 1.53.98 2.8 2.28 4.15 3.49a16.91 16.91 0 0 0 5.16 3.35 14.05 14.05 0 0 0 8.4.43c2.89-.7 5.58-1.98 8.3-3.12a23.7 23.7 0 0 1 6.2-1.75c1.43-.16 2.99 0 4.2.85 1.18.8 1.9 2.21 1.96 3.63.07.25-.25.6-.42.28a4.46 4.46 0 0 0-2.5-2.07c-1.75-.53-3.6-.1-5.3.43-2.7.9-5.2 2.29-7.87 3.3a21.5 21.5 0 0 1-8.34 1.68c-1.4-.05-2.83-.15-4.16-.65a16.97 16.97 0 0 1-5.24-3.29c-1.55-1.33-2.9-2.87-4.33-4.34a17.44 17.44 0 0 0-2.43-2.09c-.38-.28-.85-.36-1.25-.58-.08-.22.2-.3.36-.35zm40.15 17.12c.33-.73 1.05-1.33 1.88-1.33h2.32c.82.03 1.5.65 1.82 1.37 1.86 3.93 3.76 7.84 5.6 11.78a444 444 0 0 1-3.04 0c-.43-.84-.76-1.72-1.23-2.53l-.16-.15c-2-.03-4 0-6.01-.01-.88.01-1.76-.02-2.64.06l.05.1c-.35.85-.79 1.67-1.15 2.52-1.03.02-2.05 0-3.08 0 1.87-3.94 3.76-7.87 5.64-11.81zm2.18 1.48c-1 1.92-1.88 3.89-2.77 5.85.78-.05 1.56-.02 2.35-.02 1.61.01 3.23-.05 4.85.02-.92-1.93-1.77-3.9-2.76-5.79-.13-.25-.3-.5-.58-.58-.44-.17-.9.13-1.1.52zm-19.32-2.79c.86-.03 1.73 0 2.59-.01.04 3.38 0 6.76.02 10.14-.02.43.4.75.8.72 2.57.02 5.14-.01 7.71.02-.36.76-.7 1.52-1.1 2.26h-7.3a2.74 2.74 0 0 1-1.75-.46 2.66 2.66 0 0 1-.96-2.08l-.01-10.59zm-12.52.08c.73.32 1.57-.04 2.33.18.12.43.06.88.06 1.32 0 2.7.02 5.4 0 8.1 0 .33-.02.7.16 1 .33.37.88.4 1.34.4 1.93-.04 3.86.01 5.79-.03.4 0 .9.01 1.11.4.2.45.2.95.25 1.42-.8.08-1.6.04-2.4.05l-6.01-.01c-.57-.02-1.19-.08-1.65-.44-.5-.41-.7-1.05-.85-1.65l-.05.48c-.08-.35-.1-.7-.1-1.05.02-3.39-.02-6.78.02-10.17z"/><path fill="#882C46" d="M37.43 29.35c.9-.06 1.8-.04 2.68 0-.02 3.29 0 6.59-.01 9.88 0 .26.02.56.23.74.19.2.49.22.75.22h6.6c.32-.02.62.17.78.44.34.55.35 1.22.37 1.84-2.97.01-5.94.02-8.91 0a2.32 2.32 0 0 1-2.31-1.84l.05-.48c.16.6.36 1.24.85 1.65.46.36 1.08.42 1.65.44h6.02c.8 0 1.6.04 2.4-.04-.06-.47-.06-.97-.26-1.41-.22-.4-.72-.41-1.11-.4-1.93.03-3.86-.02-5.79.02-.46 0-1-.03-1.34-.4-.18-.3-.15-.67-.17-1 .03-2.7.01-5.4.01-8.1 0-.44.06-.9-.06-1.32-.76-.22-1.6.14-2.33-.18l-.1-.06z"/><path fill="#9F2240" d="M23.37 29.96a3.25 3.25 0 0 1 2.1-.61H35.8c-.08.65-.16 1.33-.5 1.9a.73.73 0 0 1-.7.4h-8.67c-.38-.03-.77.24-.78.64-.03.76 0 1.53 0 2.3h7.53l.01 2.28c-2.52.03-5.03 0-7.55.02.01.9-.02 1.8.02 2.69.02.4.42.62.79.6h8.65a.9.9 0 0 1 .8.32c.42.56.45 1.3.47 1.97-3.34.03-6.7-.02-10.04 0a3.6 3.6 0 0 1-2.18-.49 2.9 2.9 0 0 1-1.2-2.4v-7.52c0-.79.3-1.6.92-2.1zM.26 29.32H3c.99 3.08 1.94 6.17 2.97 9.23l2.85-7.87c.16-.48.44-.96.92-1.17h1.9c.4.06.68.39.82.75 1.01 2.76 1.95 5.55 2.99 8.3 1.02-3.08 2.04-6.15 3.04-9.24h2.7L16.8 42.46h-2.66a6632.8 6632.8 0 0 1-3.34-9.12c-.01-.12-.15-.34-.2-.1-1.2 3.06-2.35 6.14-3.53 9.22H4.52C3.1 38.1 1.74 33.73.26 29.4v-.08z"/></g></svg>