<svg xmlns="http://www.w3.org/2000/svg" viewBox="0 0 299.99883 34.952404"><g fill="#2b4779"><path d="M64.68499346 34.70560392l-9.3816815-12.03690542h-3.5290604v12.03690542H41.01575685V3.02492057H57.024397c11.70524228 0 19.19425102 3.30347462 19.19425102 9.86656756 0 4.43551495-4.3042202 7.19352702-10.15574493 8.6413326l10.32733263 13.17113858H64.68499346v.0010142zm-8.176456-26.16027356h-4.7342859v8.8266254h5.3359393c5.5094457 0 8.3480437-1.49547187 8.3480437-4.39111045.001069-2.85011027-2.49314752-4.43551494-8.949423-4.43551494zM103.1688829 22.75476646V34.7025888H92.41038818V22.84576825L76.91651114 3.02217955h11.8790228l4.64739563 6.42659026c1.9805498 2.7591085 3.96104477 5.88441695 4.47690432 7.37772343.60159856-1.4933613 2.58212095-4.753473 4.4758079-7.37772342l4.64739562-6.42659024h11.70524227l-15.5796709 19.7323128zM143.84558657 34.70560392l-2.8383239-6.60667512H127.4962379l-2.8394203 6.60667512h-11.01697272l15.40589036-31.68068335h10.50111317l15.40369755 31.68068335h-11.10495938zm-6.79525714-15.658064c-1.0336652-2.44443963-2.40943685-6.1121955-2.8394203-7.69348866-.43209405 1.62789045-1.6352638 5.02236686-2.75472287 7.60139047l-1.63526378 3.85003356h8.86472556l-1.6352912-3.75766127zM184.22077828 34.70560392L173.11910812 20.585525c-1.55053893-1.99113013-3.44436293-4.57229174-4.56160177-6.42576795.08551976 1.9477398.1707654 5.20464453.1707654 7.19462343v13.35122344h-9.8128436V3.0276616h10.845385l10.58690702 13.89558956c1.4637035 1.89793552 3.61595064 4.842282 4.73318948 6.60777153-.08551975-1.9477124-.343148-5.38664812-.343148-7.37991624V3.0276616h9.8117472V34.7056039h-10.32842906zM229.28311037 34.70560392l-2.84270953-6.60667512h-13.51212118l-2.8394203 6.60667512h-11.01697272L214.4766806 3.02492057h10.50220957l15.40589036 31.68068335h-11.10167016zm-6.80046508-15.658064c-1.03265104-2.44443963-2.40842268-6.1121955-2.84051672-7.69348866-.43105246 1.62789045-1.6352912 5.02236686-2.75472286 7.60139047l-1.6352912 3.85003356h8.86691838l-1.63630538-3.75766127zM244.6053997 3.01943854h10.7563019V34.7001219h-10.7563019V3.01943853zM288.2972229 34.70560392l-9.38277793-12.03690542H275.386481v12.03690542h-10.76068754V3.02492057h16.00946247c11.70524227 0 19.1923323 3.30347462 19.1923323 9.86656756 0 4.43551495-4.30120508 7.19352702-10.15382622 8.6413326l10.32651035 13.17113858H288.2969488v.0010142zm-8.1775524-26.16027356h-4.7331895v8.8266254h5.3348429c5.5083493 0 8.3480437-1.49547187 8.3480437-4.39111045.0000274-2.85011027-2.49418912-4.43551494-8.949423-4.43551494z"/></g><g fill="#f4ca35"><path d="M23.4052659 1.89562125c2.2294342.74457007 4.58818963 1.31541443 6.99343272 1.5886665l1.67763992.0164461.05180524-.0465973c1.00299322.02741017 1.7443837-.41304397 2.7198297-.6280494.10498098-.02466917.35693533-.08798668.46391726.05509445.0487901.1863892-.02741018.38867632-.23846855.52742664-1.1946726.91399237-2.61917954 1.59392924-3.9621412 2.08328314V5.4644812c-.4405912.08469746-.9119092.2744307-1.3694673.4246933-1.65428644.5009484-3.53755752.8155076-5.31675215.68736502-3.4081815-.17487693-6.30488907-1.39273853-9.31397837-1.24869805-2.95481716-.17268412-5.76490857.9563685-7.33770456 3.18478854-.80703787 1.1660838-1.44884718 2.39570436-1.6490237 3.7480677.08908307 1.2243304 1.80789308 1.69457942 2.4518404 2.7071388.36962623.61212408.55286327 1.2867982.8314055 1.92227576.71384326 1.28046645 1.42132735 2.5598639 2.29828858 3.765062l-.02192815.02466916c.51369414.80596886 1.33238133 1.50394163 2.30039916 1.97737022 1.25508464.8970803 2.36289438 2.02185693 3.021698 3.23028944l-.03426272.01918712c.74136307 1.18198168 1.15758662 2.40738108 1.73166538 3.6400716.25738157.7562194.54118655 1.42135476.76148215 2.15742767.075378.06879955.075378.17981076.11950838.27648646.20310942.5825485.3759854 1.20316975.62380083 1.74334212-.1068997.08140823.08360105.11238173.0603024.19159714.0137051.3272227.33270473.8176456-.0931946 1.0368722-.61960707-.54757312-.9447192-1.3503624-1.27942487-1.9339251-.73182433-1.27627268-1.5696164-2.51014183-2.47195946-3.72394673l.02741018-.02466916c-.5539323-.69583476-1.16608378-1.47960138-1.79945076-2.1998038-2.67002542-2.95591356-6.59406645-4.73099666-9.46226744-7.5451996l-.02741018.02466915c-.24449878-.21928142-.40142205-.50944556-.5994606-.75939897l.01918714-.02741018c-.34950718-.48929908-.55711186-1.04745252-.8949423-1.54842834l.01918712-.02466916c-.88754155-1.3217736-1.74120412-2.72509246-2.31522806-4.11563818-.11950838-.6153585-.33029265-1.1448957-.3770544-1.8534488l-.06688084-.2318901C.98406948 10.3437395-.61619152 9.9698647.2639493 8.73278855c.55286327-.5962536 2.69225505-1.33131233 3.41996786-2.4507714.0164461-.16720208.05509445-.36647407-.08908308-.5179153 0-.11950838-.1241681-.2455952-.21078427-.36962625-.40462903-.5030864-1.50185844-.10580327-1.48382254-.848345.11238172-.00548202.00548203-.10388456.0794895-.14637034-.0613988-.36644666-.08689025-.60899932.01644612-.91824095.22147423-.6089993.43743902-1.31015166.3939939-1.92441374.04467858-.2307937.27547228-.36858466.50837656-.45859968.4554201-.11430044.85366257-.17569924 1.30061293-.23517933l.05619086.0455009C5.28798817.82413 6.52818906.89786338 7.2134435 1.70953355c.29638626.6153585.06468803 1.34507225-.10169175 1.9646519-.05180524.35690793-.4427292.64816847-.35161776 1.0241813.13568037.1386955.4204721.13019833.60159857.05317573 1.55898126-.94471918 2.92000622-2.25591244 4.05533578-3.5797692C12.4634793.19210612 14.00447948-.14679332 15.4216953.05656278c2.87121612.22147425 5.29783915 1.18406487 7.9741689 1.8375235z"/><path d="M16.00451792 7.07614483c.40460163.53803438-.1367768 1.01253197-.29775676 1.48596055-1.68504067 2.5302335-2.27285193 5.39624168-3.39118718 8.10656005-.08360104.0931946-.24970672.1217012-.36962625.08469745-.29775676-.21270298-.29775676-.5634436-.2636859-.87062947.22448935-2.93809694 1.00088263-5.6947385 2.25166386-8.32145583.2922747-.42047213.79116736-.8970529 1.43407307-.79752653.24258008.05070883.45964127.13568038.63649174.31247602zM20.4449667 7.8436298c.2151699.96590726-.47764975 1.75814362-.7847808 2.62238653-1.63951236 3.2727752-3.60745348 6.47538037-4.57969248 9.97374134-.0455009.11128533-.11046302.2617672-.24038726.31042027-.1386955.03810014-.25518875-.0309735-.29123314-.12910194-.32823687-1.39060054.04961242-2.8375016.4066848-4.15922036.93413886-2.93700054 2.06420567-5.9417042 3.64445723-8.67312842.1833741-.1397919.21188068-.25820387.4405912-.32311117.5496563-.05728727 1.100409-.0164461 1.40436045.3781234zM25.18692744 8.00809087c.44163278.33270474.21379938.9616861.04029296 1.3514588-1.92126158 4.2546078-5.03305682 7.92318597-6.32078697 12.3852888-.35586634.94578817-.58674226 1.92334475-.8822514 2.87642404-.05207933.17158772-.30288245.17679565-.48189832.13458398-.1707654-.40457422-.12060478-.91826836-.12060478-1.35567998.40564322-3.58525124 1.26248538-7.0685366 3.01429724-10.18973355.79643013-1.55900867 1.56640943-2.9613956 2.4020635-4.48320866.23600164-.43001087.631229-.8197836 1.20528035-.9606171.4225827-.02466915.82926752.0740075 1.14382672.24148367zM30.44968155 8.2273723c.30800817.51580472.01096407 1.0834969-.12910194 1.57704457-1.2222198 3.41887146-3.50768042 6.2486982-5.34334002 9.3635908-1.571727 2.55884972-2.60012945 5.4003532-3.64665004 8.1786488-.3622255.83455768-.49250607 1.7612958-.93202827 2.55454633-.03590733.08551976-.14828906.03426272-.22531166.05619087-.26999024-.22777858-.2351793-.55283588-.29877093-.84094425.20749505-3.47807745 1.54845576-6.62065432 2.8076245-9.75966787 1.57597558-3.50027968 3.6888617-6.84295085 5.12515502-10.4619166.2000943-.4564617.595212-1.01568414 1.20525292-1.18727185.6111099-.0920982 1.07398558.12827963 1.43722525.5200533z"/></g></svg>
